<svg width="100%" height="100%" viewBox="0 0 37 38" fill="none" xmlns="http://www.w3.org/2000/svg">
    <path d="M18.4927 37.5C8.29185 37.5 0 29.2244 0 19.0436C0 8.86279 8.29185 0.572693 18.4927 0.572693C28.6936 0.572693 36.9854 8.84824 36.9854 19.0291C37 29.2244 28.6936 37.5 18.4927 37.5ZM18.4927 2.31798C9.26822 2.31798 1.74872 9.82269 1.74872 19.0436C1.74872 28.2645 9.26822 35.7547 18.4927 35.7547C27.7318 35.7547 35.2367 28.25 35.2367 19.0436C35.2367 9.83724 27.7318 2.31798 18.4927 2.31798Z"
          fill="white"/>
    <path d="M28.4604 29.0935C27.9795 29.0935 27.586 28.7008 27.586 28.2208V25.2539C27.3383 23.2904 22.9519 21.4579 18.4927 21.4579C13.9897 21.4579 9.39935 23.334 9.39935 25.1811V28.2354C9.39935 28.7153 9.00589 29.108 8.52499 29.108C8.0441 29.108 7.65063 28.7153 7.65063 28.2354V25.1811C7.65063 21.6179 13.946 19.7126 18.4927 19.7126C23.4474 19.7126 28.985 21.7778 29.3202 25.123C29.3202 25.1521 29.3202 25.1811 29.3202 25.2102V28.2354C29.3348 28.7008 28.9413 29.0935 28.4604 29.0935Z"
          fill="white"/>
    <path d="M19.3963 21.4433H17.6039C15.7094 21.4433 14.0336 20.5125 13.028 18.8836C12.518 18.0691 12.2703 17.1965 12.2703 16.2657V11.1025C12.2703 8.19373 14.6165 5.92487 17.6184 5.92487H19.4109C22.4128 5.92487 24.759 8.19373 24.759 11.1025V16.2657C24.759 17.1819 24.5113 18.0546 24.0013 18.869C22.9666 20.5125 21.3053 21.4433 19.3963 21.4433ZM17.6039 7.68469C15.5491 7.68469 14.0044 9.15364 14.0044 11.1171V16.2802C14.0044 16.8765 14.1647 17.4292 14.4999 17.9819C15.1994 19.1018 16.2923 19.7126 17.5893 19.7126H19.3817C20.6933 19.7126 21.7862 19.0872 22.4857 17.9673C22.8209 17.4292 22.9812 16.8765 22.9812 16.2802V11.1025C22.9812 9.15364 21.4365 7.67015 19.3817 7.67015H17.6039V7.68469Z"
          fill="white"/>
    <path d="M18.5072 26.7955C18.3032 26.7955 18.0991 26.7228 17.9243 26.5774L12.6781 21.9814C12.3138 21.6615 12.2846 21.1088 12.5907 20.7452C12.9113 20.3816 13.465 20.3525 13.8293 20.6579L18.5072 24.7448L23.1558 20.687C23.5202 20.3671 24.0739 20.4107 24.3945 20.7743C24.7151 21.1379 24.6714 21.6906 24.3071 22.0105L19.0755 26.5774C18.9152 26.7228 18.7112 26.7955 18.5072 26.7955Z"
          fill="white"/>
    <path d="M21.6695 13.2259C20.2851 13.2259 18.5656 13.0078 17.2395 12.1206C15.4762 10.9425 13.6837 12.077 13.6109 12.1206C13.2028 12.3824 12.6636 12.266 12.4013 11.8733C12.139 11.4661 12.241 10.9425 12.6491 10.6662C12.7656 10.5935 15.4616 8.83365 18.2158 10.6662C19.848 11.757 22.7188 11.4952 23.6951 11.3061C24.1615 11.2043 24.6278 11.5243 24.7298 11.9897C24.8172 12.4551 24.5112 12.9205 24.0449 13.0223C23.9575 13.0369 22.9665 13.2259 21.6695 13.2259Z"
          fill="white"/>
</svg>
