<svg width="100%" height="100%" viewBox="0 0 28 24" fill="none" xmlns="http://www.w3.org/2000/svg">
    <path d="M5.93982 15.6284C5.78984 15.6284 5.64563 15.5706 5.53713 15.4671C5.42862 15.3636 5.36416 15.2222 5.35713 15.0724C5.35009 14.9226 5.40103 14.7758 5.49935 14.6626C5.59768 14.5494 5.73585 14.4783 5.88516 14.4643L25.1873 12.6263L26.8265 5.09101C26.8404 5.00997 26.8362 4.92687 26.8143 4.84763C26.7924 4.76838 26.7533 4.69493 26.6998 4.63251C26.6435 4.56467 26.5729 4.51014 26.493 4.47282C26.4131 4.43551 26.326 4.41633 26.2378 4.41668H4.01913C3.86442 4.41668 3.71604 4.35522 3.60665 4.24582C3.49725 4.13643 3.43579 3.98805 3.43579 3.83334C3.43579 3.67863 3.49725 3.53026 3.60665 3.42086C3.71604 3.31146 3.86442 3.25001 4.01913 3.25001H26.2378C26.4976 3.24934 26.7543 3.30621 26.9895 3.41653C27.2247 3.52685 27.4326 3.68788 27.5981 3.88806C27.7622 4.08509 27.8805 4.31601 27.9447 4.56421C28.0089 4.81241 28.0173 5.07175 27.9693 5.32359L26.2368 13.2906C26.2105 13.4115 26.1465 13.5209 26.054 13.603C25.9615 13.6852 25.8452 13.7358 25.7221 13.7475L5.99576 15.6258C5.97686 15.6277 5.95837 15.6284 5.93982 15.6284Z"
          fill="#1C7F62"/>
    <path d="M10.5001 23.6667C10.0386 23.6667 9.58747 23.5299 9.20376 23.2735C8.82004 23.0171 8.52097 22.6527 8.34436 22.2263C8.16776 21.8 8.12155 21.3308 8.21158 20.8782C8.30162 20.4256 8.52385 20.0098 8.85017 19.6835C9.17649 19.3572 9.59226 19.1349 10.0449 19.0449C10.4975 18.9549 10.9667 19.0011 11.393 19.1777C11.8194 19.3543 12.1838 19.6534 12.4402 20.0371C12.6966 20.4208 12.8334 20.8719 12.8334 21.3334C12.8327 21.952 12.5867 22.5451 12.1492 22.9826C11.7118 23.42 11.1187 23.6661 10.5001 23.6667ZM10.5001 20.1667C10.2693 20.1667 10.0438 20.2352 9.85192 20.3634C9.66007 20.4915 9.51053 20.6738 9.42223 20.8869C9.33393 21.1001 9.31082 21.3347 9.35584 21.561C9.40085 21.7873 9.51197 21.9952 9.67513 22.1584C9.83829 22.3215 10.0462 22.4326 10.2725 22.4777C10.4988 22.5227 10.7334 22.4996 10.9466 22.4113C11.1597 22.323 11.3419 22.1734 11.4701 21.9816C11.5983 21.7897 11.6668 21.5642 11.6668 21.3334C11.6665 21.0241 11.5434 20.7275 11.3247 20.5088C11.106 20.2901 10.8094 20.167 10.5001 20.1667Z"
          fill="#1C7F62"/>
    <path d="M24.5001 18.4167H7.88186C7.33403 18.4172 6.80355 18.2247 6.38352 17.873C5.9635 17.5213 5.68077 17.0329 5.58497 16.4935L3.0967 1.9768C3.07213 1.84274 3.00127 1.72157 2.89648 1.63442C2.79169 1.54727 2.65963 1.49969 2.52334 1.49998H1.16667V2.08332C1.16667 2.23803 1.10521 2.3864 0.995816 2.4958C0.88642 2.6052 0.738046 2.66666 0.583336 2.66666C0.428625 2.66666 0.280252 2.6052 0.170855 2.4958C0.0614584 2.3864 0 2.23803 0 2.08332V1.49998C0.000308863 1.19066 0.123325 0.894091 0.342051 0.675365C0.560778 0.456638 0.857346 0.333622 1.16667 0.333313H2.52334C2.93419 0.333007 3.33203 0.477406 3.64704 0.74117C3.96204 1.00493 4.1741 1.37121 4.24598 1.77573L6.73426 16.2924C6.78273 16.5614 6.92427 16.8047 7.13408 16.9797C7.34389 17.1548 7.6086 17.2505 7.88186 17.25H24.5001C24.6548 17.25 24.8032 17.3115 24.9126 17.4209C25.022 17.5303 25.0834 17.6787 25.0834 17.8334C25.0834 17.9881 25.022 18.1365 24.9126 18.2459C24.8032 18.3553 24.6548 18.4167 24.5001 18.4167Z"
          fill="#1C7F62"/>
    <path d="M21.5833 23.6667C21.1219 23.6667 20.6707 23.5299 20.287 23.2735C19.9033 23.0171 19.6042 22.6527 19.4276 22.2263C19.251 21.8 19.2048 21.3308 19.2948 20.8782C19.3849 20.4256 19.6071 20.0098 19.9334 19.6835C20.2597 19.3572 20.6755 19.1349 21.1281 19.0449C21.5808 18.9549 22.0499 19.0011 22.4763 19.1777C22.9026 19.3543 23.2671 19.6534 23.5234 20.0371C23.7798 20.4208 23.9167 20.8719 23.9167 21.3334C23.916 21.952 23.6699 22.5451 23.2325 22.9826C22.7951 23.42 22.202 23.6661 21.5833 23.6667ZM21.5833 20.1667C21.3526 20.1667 21.127 20.2352 20.9352 20.3634C20.7433 20.4915 20.5938 20.6738 20.5055 20.8869C20.4172 21.1001 20.3941 21.3347 20.4391 21.561C20.4841 21.7873 20.5952 21.9952 20.7584 22.1584C20.9215 22.3215 21.1294 22.4326 21.3557 22.4777C21.582 22.5227 21.8166 22.4996 22.0298 22.4113C22.243 22.323 22.4252 22.1734 22.5534 21.9816C22.6816 21.7897 22.75 21.5642 22.75 21.3334C22.7497 21.0241 22.6267 20.7275 22.408 20.5088C22.1892 20.2901 21.8927 20.167 21.5833 20.1667Z"
          fill="#1C7F62"/>
    <path d="M7.58346 10.25C7.4681 10.25 7.35534 10.2158 7.25944 10.1517C7.16353 10.0876 7.08878 9.99649 7.04464 9.88991C7.0005 9.78334 6.98895 9.66607 7.01145 9.55293C7.03394 9.43979 7.08948 9.33586 7.17104 9.25428L10.6711 5.75426C10.7811 5.64801 10.9284 5.58921 11.0814 5.59054C11.2343 5.59187 11.3806 5.65321 11.4888 5.76137C11.5969 5.86953 11.6583 6.01583 11.6596 6.16878C11.6609 6.32173 11.6021 6.46908 11.4959 6.5791L7.99587 10.0791C7.94178 10.1334 7.8775 10.1764 7.80672 10.2057C7.73595 10.2351 7.66007 10.2501 7.58346 10.25Z"
          fill="#1C7F62"/>
    <path d="M9.33346 12.5834C9.2181 12.5834 9.10534 12.5491 9.00944 12.485C8.91353 12.4209 8.83878 12.3298 8.79464 12.2233C8.7505 12.1167 8.73895 11.9994 8.76145 11.8863C8.78394 11.7731 8.83948 11.6692 8.92104 11.5876L14.7544 5.75426C14.8644 5.64801 15.0118 5.58921 15.1647 5.59054C15.3177 5.59187 15.464 5.65321 15.5721 5.76137C15.6803 5.86953 15.7416 6.01583 15.743 6.16878C15.7443 6.32173 15.6855 6.46908 15.5792 6.5791L9.74587 12.4125C9.69178 12.4667 9.6275 12.5097 9.55672 12.5391C9.48595 12.5684 9.41007 12.5835 9.33346 12.5834Z"
          fill="#1C7F62"/>
    <path d="M13.4167 12.5834C13.3014 12.5834 13.1886 12.5491 13.0927 12.485C12.9968 12.4209 12.922 12.3298 12.8779 12.2233C12.8338 12.1167 12.8222 11.9994 12.8447 11.8863C12.8672 11.7731 12.9227 11.6692 13.0043 11.5876L18.8376 5.75426C18.9477 5.64801 19.095 5.58921 19.248 5.59054C19.4009 5.59187 19.5472 5.65321 19.6554 5.76137C19.7635 5.86953 19.8249 6.01583 19.8262 6.16878C19.8275 6.32173 19.7687 6.46908 19.6625 6.5791L13.8291 12.4125C13.775 12.4667 13.7108 12.5097 13.64 12.5391C13.5692 12.5684 13.4933 12.5835 13.4167 12.5834Z"
          fill="#1C7F62"/>
    <path d="M18.0835 12C17.9681 12 17.8553 11.9658 17.7594 11.9017C17.6635 11.8376 17.5888 11.7465 17.5446 11.6399C17.5005 11.5333 17.4889 11.4161 17.5114 11.3029C17.5339 11.1898 17.5895 11.0859 17.671 11.0043L22.9211 5.75426C23.0311 5.64801 23.1784 5.58921 23.3314 5.59054C23.4843 5.59187 23.6306 5.65321 23.7388 5.76137C23.8469 5.86953 23.9083 6.01583 23.9096 6.16878C23.911 6.32173 23.8522 6.46908 23.7459 6.5791L18.4959 11.8291C18.4418 11.8834 18.3775 11.9264 18.3067 11.9557C18.2359 11.9851 18.1601 12.0001 18.0835 12Z"
          fill="#1C7F62"/>
    <path d="M22.1667 12C22.0514 12 21.9386 11.9658 21.8427 11.9017C21.7468 11.8376 21.672 11.7465 21.6279 11.6399C21.5838 11.5333 21.5722 11.4161 21.5947 11.3029C21.6172 11.1898 21.6727 11.0859 21.7543 11.0043L23.5043 9.25426C23.6143 9.14801 23.7617 9.08921 23.9146 9.09054C24.0676 9.09187 24.2139 9.15321 24.322 9.26137C24.4302 9.36953 24.4915 9.51583 24.4929 9.66878C24.4942 9.82173 24.4354 9.96908 24.3291 10.0791L22.5791 11.8291C22.525 11.8834 22.4608 11.9264 22.39 11.9557C22.3192 11.9851 22.2433 12.0001 22.1667 12Z"
          fill="#1C7F62"/>
</svg>
