<svg width="100%" height="100%" viewBox="0 0 25 26" fill="none" xmlns="http://www.w3.org/2000/svg">
    <g clipPath="url(#clip0_3643_21007-008394)">
        <path d="M16.8604 25.5116H1.74418C1.28175 25.5111 0.838408 25.3272 0.51142 25.0002C0.184432 24.6732 0.000507835 24.2298 0 23.7674V3.41862C0.000507835 2.95619 0.184432 2.51285 0.51142 2.18586C0.838408 1.85887 1.28175 1.67495 1.74418 1.67444H12.7907C12.9449 1.67444 13.0927 1.73569 13.2018 1.84472C13.3108 1.95376 13.3721 2.10164 13.3721 2.25583C13.3721 2.41003 13.3108 2.55791 13.2018 2.66694C13.0927 2.77597 12.9449 2.83723 12.7907 2.83723H1.74418C1.59003 2.83738 1.44224 2.89868 1.33324 3.00768C1.22425 3.11668 1.16294 3.26447 1.16279 3.41862V23.7674C1.16288 23.9216 1.22416 24.0694 1.33318 24.1784C1.44219 24.2874 1.59002 24.3487 1.74418 24.3488H16.8604C17.0146 24.3487 17.1624 24.2874 17.2714 24.1784C17.3804 24.0694 17.4417 23.9216 17.4418 23.7674V12.1395C17.4418 11.9853 17.5031 11.8375 17.6121 11.7284C17.7211 11.6194 17.869 11.5581 18.0232 11.5581C18.1774 11.5581 18.3253 11.6194 18.4343 11.7284C18.5434 11.8375 18.6046 11.9853 18.6046 12.1395V23.7674C18.6041 24.2298 18.4202 24.6732 18.0932 25.0002C17.7662 25.3272 17.3229 25.5111 16.8604 25.5116Z"
              fill="#1C7F62"/>
        <path d="M9.29105 16.7907C8.37114 16.7907 7.47188 16.5179 6.70701 16.0069C5.94213 15.4958 5.34598 14.7694 4.99394 13.9195C4.64191 13.0696 4.5498 12.1344 4.72927 11.2322C4.90873 10.3299 5.35171 9.50117 6.00219 8.8507C6.65266 8.20022 7.48142 7.75724 8.38365 7.57778C9.28589 7.39831 10.2211 7.49042 11.071 7.84245C11.9209 8.19449 12.6473 8.79064 13.1583 9.55552C13.6694 10.3204 13.9422 11.2196 13.9422 12.1396C13.9408 13.3727 13.4503 14.5549 12.5784 15.4269C11.7064 16.2988 10.5242 16.7893 9.29105 16.7907ZM9.29105 8.65119C8.60111 8.65119 7.92667 8.85578 7.35302 9.23909C6.77936 9.6224 6.33224 10.1672 6.06822 10.8046C5.80419 11.442 5.73511 12.1434 5.86971 12.8201C6.00431 13.4968 6.33654 14.1183 6.8244 14.6062C7.31226 15.0941 7.93382 15.4263 8.6105 15.5609C9.28718 15.6955 9.98857 15.6264 10.626 15.3624C11.2634 15.0984 11.8082 14.6512 12.1915 14.0776C12.5748 13.5039 12.7794 12.8295 12.7794 12.1396C12.7784 11.2147 12.4105 10.328 11.7566 9.67403C11.1026 9.02006 10.2159 8.65221 9.29105 8.65119Z"
              fill="#1C7F62"/>
        <path d="M13.3608 12.721H5.22129C5.06709 12.721 4.91921 12.6597 4.81018 12.5507C4.70115 12.4416 4.63989 12.2938 4.63989 12.1396C4.63989 11.9854 4.70115 11.8375 4.81018 11.7285C4.91921 11.6194 5.06709 11.5582 5.22129 11.5582H13.3608C13.515 11.5582 13.6629 11.6194 13.7719 11.7285C13.8809 11.8375 13.9422 11.9854 13.9422 12.1396C13.9422 12.2938 13.8809 12.4416 13.7719 12.5507C13.6629 12.6597 13.515 12.721 13.3608 12.721Z"
              fill="#1C7F62"/>
        <path d="M9.30229 16.7907C9.22593 16.7908 9.15031 16.7758 9.07977 16.7466C9.00923 16.7174 8.94516 16.6745 8.89124 16.6204C7.93508 15.6648 7.3645 13.9894 7.3645 12.1396C7.3645 10.2897 7.93508 8.61434 8.89124 7.65876C9.00083 7.55247 9.14782 7.49354 9.30048 7.49471C9.45314 7.49587 9.59921 7.55704 9.70716 7.66499C9.8151 7.77294 9.87626 7.91902 9.87741 8.07168C9.87857 8.22434 9.81963 8.37133 9.71333 8.48091C8.98206 9.21247 8.52729 10.6143 8.52729 12.1396C8.52729 13.6648 8.98206 15.0664 9.71333 15.7983C9.79462 15.8796 9.84997 15.9832 9.87239 16.0959C9.89482 16.2087 9.8833 16.3256 9.83931 16.4318C9.79532 16.538 9.72082 16.6288 9.62523 16.6927C9.52964 16.7566 9.41726 16.7907 9.30229 16.7907Z"
              fill="#1C7F62"/>
        <path d="M9.30222 16.7907C9.18725 16.7907 9.07486 16.7566 8.97928 16.6927C8.88369 16.6288 8.80919 16.538 8.7652 16.4318C8.7212 16.3256 8.70969 16.2087 8.73211 16.0959C8.75454 15.9832 8.80989 15.8796 8.89117 15.7983C9.62245 15.0664 10.0772 13.6646 10.0772 12.1396C10.0772 10.6146 9.62245 9.21247 8.89117 8.48091C8.78487 8.37133 8.72594 8.22434 8.72709 8.07168C8.72825 7.91902 8.7894 7.77294 8.89735 7.66499C9.00529 7.55704 9.15137 7.49587 9.30403 7.49471C9.45669 7.49354 9.60368 7.55247 9.71326 7.65876C10.6694 8.61434 11.24 10.2895 11.24 12.1396C11.24 13.9896 10.6694 15.6648 9.71326 16.6204C9.65935 16.6745 9.59528 16.7174 9.52474 16.7466C9.4542 16.7758 9.37857 16.7908 9.30222 16.7907Z"
              fill="#1C7F62"/>
        <path d="M13.372 22.0233H5.23252C5.07832 22.0233 4.93044 21.962 4.82141 21.853C4.71238 21.7439 4.65112 21.5961 4.65112 21.4419C4.65112 21.2877 4.71238 21.1398 4.82141 21.0308C4.93044 20.9217 5.07832 20.8605 5.23252 20.8605H13.372C13.5262 20.8605 13.6741 20.9217 13.7831 21.0308C13.8922 21.1398 13.9534 21.2877 13.9534 21.4419C13.9534 21.5961 13.8922 21.7439 13.7831 21.853C13.6741 21.962 13.5262 22.0233 13.372 22.0233Z"
              fill="#1C7F62"/>
        <path d="M18.0231 9.81396C17.9468 9.81406 17.8711 9.79907 17.8006 9.76985C17.7301 9.74062 17.666 9.69774 17.6121 9.64367L13.5423 5.57392C13.4333 5.46489 13.3721 5.31702 13.3721 5.16284C13.3721 5.00866 13.4333 4.8608 13.5423 4.75177L15.2865 3.00758C15.4002 2.90504 15.5458 2.84487 15.6987 2.83724C15.7752 2.83743 15.851 2.85269 15.9216 2.88216C15.9922 2.91163 16.0564 2.95472 16.1103 3.00898L17.9959 4.90874L22.2458 0.658752C22.2998 0.604749 22.3639 0.561909 22.4344 0.53268C22.5049 0.503451 22.5805 0.488405 22.6568 0.488403L22.6574 0.488403C22.7338 0.488441 22.8094 0.503553 22.88 0.532875C22.9505 0.562197 23.0146 0.605151 23.0685 0.659275L24.8301 2.42671C24.884 2.4807 24.9267 2.54477 24.9559 2.61527C24.985 2.68577 25 2.76133 25 2.83762C24.9999 2.91391 24.9848 2.98944 24.9556 3.0599C24.9263 3.13036 24.8835 3.19437 24.8295 3.24828L18.4342 9.64361C18.3803 9.69769 18.3162 9.74058 18.2457 9.76982C18.1751 9.79905 18.0995 9.81406 18.0231 9.81396ZM14.7755 5.16281L18.0231 8.41048L23.5969 2.83671L22.6561 1.89276L18.4052 6.14368C18.3513 6.19768 18.2872 6.24052 18.2166 6.26974C18.1461 6.29896 18.0705 6.31399 17.9942 6.31397H17.993C17.9165 6.31379 17.8407 6.29853 17.7701 6.26906C17.6995 6.23959 17.6353 6.19649 17.5814 6.14223L15.6959 4.24246L14.7755 5.16281Z"
              fill="#1C7F62"/>
    </g>
    <defs>
        <clipPath id="clip0_3643_21007-008394">
            <rect width="25" height="25.0232" fill="white" transform="translate(0 0.488403)"/>
        </clipPath>
    </defs>
</svg>
