<svg width="100%" height="100%" viewBox="0 0 120 120" fill="none" xmlns="http://www.w3.org/2000/svg">
    <path d="M0 4C0 1.79086 1.79086 0 4 0H116C118.209 0 120 1.79086 120 4V116C120 118.209 118.209 120 116 120H4C1.79086 120 0 118.209 0 116V4Z"
          fill="#F5FAFF"/>
    <path d="M19.2868 87.0858C19.2868 87.0858 10.4038 74.2028 15.7868 60.9263C19.2974 52.2773 32.4783 47.5326 39.9144 52.2773C43.0846 54.2986 53.2442 52.3411 58.6697 43.9901C69.2123 27.756 106.021 37.6177 99.3187 62.5433C96.074 74.6071 109.191 75.0433 102.51 87.1071L19.2868 87.0858Z"
          fill="#FBEAC6"/>
    <path d="M105.096 50.4153C103.447 47.1813 97.8835 49.4792 97.8835 49.4792C97.8835 49.4792 95.2239 56.3089 94.1069 56.6919C92.9898 57.0749 95.2452 50.4047 95.2452 50.4047C92.9898 50.66 87.9154 54.5643 87.9154 54.5643C87.9154 54.5643 89.7452 61.4898 88.5749 61.5855C87.4047 61.6813 87.2664 55.3728 87.2664 55.3728C85.2558 56.4685 83.7877 59.3941 83.7877 59.3941C82.1494 63.9898 88.1388 65.8621 88.1388 65.8621C88.1388 65.8621 88.7239 68.277 87.809 71.3834C87.809 71.3834 87.5749 71.9685 87.4154 72.9153L88.0005 72.7877C88.0111 72.6175 88.0324 72.4579 88.0643 72.2983C88.0643 72.2983 88.0643 72.2983 88.0643 72.2877C88.0856 72.1919 88.1175 72.0536 88.1494 71.8728C88.2558 71.4898 88.3196 71.2026 88.3622 71.0004C88.6707 69.7877 89.1388 68.2026 89.5856 67.7877C89.5856 67.7877 89.5005 67.7132 89.4047 67.543C89.4579 67.6175 89.5218 67.7026 89.5856 67.7877C91.043 69.7238 96.1175 69.0217 98.7771 67.8621C101.447 66.7026 100.064 66.1706 98.2877 65.2132C96.5218 64.2558 93.4473 65.2558 92.4154 64.9472C91.3835 64.6387 92.6281 63.8515 94.5218 63.6068C96.4047 63.3621 97.7345 65.0217 100.788 64.6707C103.852 64.3196 104.947 58.2026 104.947 58.2026C103.011 59.2877 99.0537 58.926 98.7664 58.2345C98.4686 57.5536 103.99 56.4579 104.798 56.0643C105.607 55.6813 106.745 53.6494 105.096 50.4153Z"
          fill="#004C40"/>
    <path d="M95.4247 30.5322C100.18 30.7663 100.435 38.6492 100.435 38.6492C100.435 38.6492 93.7119 45.5109 93.8502 47.0428C93.9885 48.5748 100.744 42.2982 100.744 42.2982C101.659 45.1386 99.7226 53.2982 99.7226 53.2982C99.7226 53.2982 90.4566 54.8407 90.9779 56.2875C91.4885 57.745 99.1162 54.5109 99.1162 54.5109C98.8928 57.5003 96.1907 60.8301 96.1907 60.8301C91.5736 65.2663 86.1162 59.1173 86.1162 59.1173C86.1162 59.1173 82.9141 59.7237 79.7013 62.479C79.7013 62.479 79.1268 63.0641 78.0843 63.7663L77.9141 63.0003C78.1056 62.8939 78.2864 62.7769 78.4672 62.6599C78.4672 62.6599 78.4673 62.6599 78.4779 62.6599C78.5843 62.5854 78.7332 62.4684 78.9247 62.3301C79.329 62.0003 79.6375 61.7662 79.8609 61.6067C81.1481 60.596 82.797 59.1705 83.0417 58.4152C83.0417 58.4152 83.18 58.479 83.4247 58.5003C83.297 58.4684 83.1694 58.4471 83.0417 58.4152C79.946 57.7237 78.0524 51.2769 77.9992 47.4684C77.946 43.6599 79.329 45.0216 81.4247 46.6173C83.5204 48.2131 83.9885 52.4258 84.9034 53.5003C85.829 54.5748 86.0843 52.6492 85.3715 50.2663C84.6481 47.8726 81.9566 47.1918 80.7226 43.3514C79.4885 39.5109 86.2226 34.8939 86.2226 34.8939C85.9779 37.7875 88.5311 42.3194 89.5098 42.3088C90.4885 42.2875 88.8183 35.1173 88.8502 33.9258C88.8502 32.7556 90.6694 30.2982 95.4247 30.5322Z"
          fill="#1E8161"/>
    <path d="M52.1173 45.7554C54.6705 42.3937 60.5641 46.1597 60.5641 46.1597C60.5641 46.1597 62.213 54.5214 63.4045 55.1916C64.596 55.8618 63.3939 47.766 63.3939 47.766C65.9258 48.5214 70.9364 54.032 70.9364 54.032C70.9364 54.032 67.4151 61.5852 68.7343 61.9363C70.0534 62.2873 71.5109 55.0958 71.5109 55.0958C73.5854 56.766 74.6705 60.4043 74.6705 60.4043C75.6066 66.0001 68.3619 66.915 68.3619 66.915C68.3619 66.915 67.2024 69.5533 67.6066 73.298C67.6066 73.298 67.7449 74.0107 67.7343 75.1277L67.096 74.8618C67.1173 74.6703 67.1279 74.4788 67.1279 74.2873V74.2767C67.1279 74.1597 67.1173 73.9894 67.1066 73.7873C67.0641 73.3192 67.0534 72.9894 67.0428 72.7448C66.9471 71.298 66.7343 69.3831 66.2981 68.8192C66.2981 68.8192 66.4151 68.7448 66.5534 68.5852C66.4683 68.6597 66.3832 68.7448 66.2981 68.8192C64.2449 70.7341 58.5747 68.8937 55.7556 67.0214C52.9471 65.149 54.6279 64.8299 56.8513 64.0852C59.0747 63.3512 62.3832 65.1278 63.6279 64.9895C64.8726 64.8512 63.6066 63.6916 61.4896 63.0214C59.3832 62.3512 57.5322 63.9788 54.096 62.9575C50.6598 61.9363 50.6705 54.6916 50.6705 54.6916C52.6598 56.3299 57.2662 56.7235 57.7449 56.0001C58.2236 55.2767 52.1279 52.9043 51.2875 52.2767C50.4471 51.6809 49.5641 49.1171 52.1173 45.7554Z"
          fill="#004C40"/>
    <path d="M92.6464 86.5424L89.4336 74.6807H91.9336L93.7315 86.4785C93.774 86.7339 93.6038 86.9679 93.3698 86.9679H93.1464C92.923 86.9785 92.7208 86.7977 92.6464 86.5424Z"
          fill="#004C40"/>
    <path d="M56.7557 86.5424L59.9685 74.6807H57.4685L55.6706 86.4785C55.628 86.7339 55.7983 86.9679 56.0323 86.9679H56.2557C56.4791 86.9785 56.6919 86.7977 56.7557 86.5424Z"
          fill="#004C40"/>
    <path d="M76.2948 86.5425L73.082 74.6914H75.582L77.3799 86.4893C77.4225 86.7446 77.2522 86.9786 77.0182 86.9786H76.7948C76.5608 86.9786 76.3586 86.7978 76.2948 86.5425Z"
          fill="#004C40"/>
    <path d="M94.6912 46.4887C94.6912 46.4887 88.0529 45.0419 75.2337 46.4887L73.7656 61.4249L91.3614 60.5526L94.6912 46.4887Z"
          fill="#004C40"/>
    <path d="M55.0731 69.0105C55.0731 69.0105 53.8178 55.6381 59.5625 55.6381C65.3178 55.6381 66.4668 55.5743 65.9455 50.2658C65.4136 44.7658 73.6263 46.4892 73.6263 46.4892L71.5838 69.0105H55.0731Z"
          fill="white"/>
    <path d="M58.3622 69.0101C58.3622 69.0101 57.1069 55.6378 62.8516 55.6378C68.5962 55.6378 70.3303 54.7335 71.1282 49.4569C71.6601 45.9569 76.9154 46.4889 76.9154 46.4889L74.8728 69.0101H58.3622Z"
          fill="#1E8161"/>
    <path d="M76.2973 75.5H90.8824C92.4569 75.5 93.7547 74.2128 93.7547 72.6277V69H73.3398V72.5532C73.3398 74.1702 74.6696 75.5 76.2973 75.5Z"
          fill="#BDE4E2"/>
    <path d="M58.1168 75.5001H73.8295C75.4572 75.5001 76.787 74.1703 76.787 72.5427V69.0107H55.0742V72.4575C55.0742 74.1278 56.4466 75.5001 58.1168 75.5001Z"
          fill="white"/>
    <path d="M66.3906 79.9043C66.3906 79.9043 66.7098 82.7022 67.1779 83.9362C67.4651 84.6915 67.1885 85.4362 66.9864 85.8405C66.6034 86.5745 66.5077 86.9787 67.114 86.9894C68.497 87.0319 68.8374 86.6915 69.2523 85.4149C69.4438 84.8298 69.1353 83.3511 69.9757 82.2979C70.6034 81.5 70.0502 80.6702 69.3693 80.3405C68.6885 80.0107 67.7417 78.2021 67.7417 78.2021L66.3906 79.9043Z"
          fill="#004C40"/>
    <path d="M72.3816 36.0853C72.3816 36.0853 71.9561 34.0853 74.488 33.5428C77.0199 33.0002 79.0837 34.3832 80.2114 35.447C81.339 36.5108 80.6582 39.7662 82.339 39.8619C84.0199 39.9577 85.5199 40.7343 85.1795 42.5853C84.839 44.4364 86.5943 43.6279 86.4348 45.4364C86.2752 47.2449 84.8922 48.8619 81.3709 48.8938C77.8603 48.9257 71.6369 47.064 71.5092 46.83C71.3816 46.596 67.7433 44.7236 70.222 42.83C72.6475 40.9683 68.4454 37.3726 72.3816 36.0853Z"
          fill="#002A35"/>
    <path d="M58.3621 69.0106C58.3621 69.0106 58.1918 67.7021 59.0216 67.1064C61.1067 65.6064 64.5642 63.7234 69.0642 63.4681C76.6919 63.0319 81.5536 69.0106 81.5536 69.0106H58.3621Z"
          fill="#004C40"/>
    <path d="M76.2316 58.9887C76.2316 58.9887 59.3167 57.9462 59.4975 62.6589C59.572 64.4674 61.5933 69.393 61.9337 70.3185C64.1677 76.51 66.3911 80.7228 66.3911 80.7228C66.3911 80.7228 68.4869 80.1057 68.6784 78.5525C68.6784 78.5525 67.2209 70.0419 66.2209 68.2015C65.4975 66.8717 66.9869 65.7228 66.9869 65.7228C66.9869 65.7228 74.1252 66.2121 76.338 65.5845C78.5507 64.9462 76.2316 58.9887 76.2316 58.9887Z"
          fill="#FFCB68"/>
    <path d="M62.6479 80.2549C62.6479 80.2549 62.1692 82.4889 61.6053 83.0634C61.0415 83.6378 60.4457 85.0846 59.7968 85.4889C59.1585 85.8932 58.0628 86.4676 58.3926 86.9783C58.3926 86.9783 61.6692 87.1591 61.9777 86.6166C62.2649 86.1166 63.2223 84.7655 64.2117 84.5527C65.1798 84.3506 65.2968 83.3293 64.9032 82.6804C64.5096 82.0315 64.7011 79.5527 64.7011 79.5527L62.6479 80.2549Z"
          fill="#1E8161"/>
    <path d="M84.4333 58.4258C84.4333 58.4258 62.0396 61.2449 62.263 65.1811C62.8907 76.0109 62.1992 81.8619 62.1992 81.8619C62.1992 81.8619 63.8588 82.6705 65.1567 81.8832C65.1567 81.8832 66.1035 77.5641 66.9971 74.9896C68.8056 69.7662 67.9545 68.1173 68.2311 68.0428C68.5077 67.9683 79.9758 69.0109 84.1673 65.5428C85.912 64.096 84.4333 58.4258 84.4333 58.4258Z"
          fill="#FBEAC6"/>
    <path d="M70.2871 45.6589C70.2871 45.6589 67.2339 52.8717 66.0424 53.2334C64.8509 53.5845 59.1488 54.7759 58.9679 54.9781C58.7871 55.1802 59.4679 56.1057 59.553 55.9462C59.6381 55.7759 66.5424 55.5951 67.2764 55.4568C68.6807 55.1908 72.2126 50.744 72.2126 49.9993C72.202 49.2547 71.1807 45.244 70.2871 45.6589Z"
          fill="#FCC8AF"/>
    <path d="M83.7325 61.2336C82.5836 63.84 75.5623 61.5953 73.7644 60.2655C71.3283 58.4676 74.69 58.2655 73.924 56.2761C73.5091 55.1804 71.4559 53.308 71.0942 51.7549C70.9134 50.9676 71.4559 45.9889 71.9347 45.0208C72.424 44.0527 74.7112 43.2123 76.4346 43.3187C79.2325 43.4889 80.0836 43.8612 80.4453 44.7655C80.9878 46.1166 81.3389 47.8612 81.5304 49.4463C81.6793 50.7123 81.7325 51.8719 81.7006 52.6378C81.6474 53.7761 82.5304 55.8506 83.1793 57.7336C83.69 59.191 84.0517 60.5208 83.7325 61.2336Z"
          fill="#FBEAC6"/>
    <path d="M72.0186 35.6488C71.9654 35.2764 71.8803 34.4466 72.3591 33.8615C72.7633 33.3509 73.4548 33.0637 74.391 32.9998C75.8803 32.9041 76.9867 33.2445 77.6569 33.5637C78.3803 33.9041 78.8697 34.4041 78.891 34.4254L78.6888 34.3402C78.6782 34.3296 77.2101 32.9147 74.4016 33.0956C73.4974 33.1594 72.9548 33.3934 72.5612 33.8722C72.1144 34.4254 72.1888 35.0105 72.242 35.3722C72.242 35.3934 72.0718 35.553 72.0718 35.553L72.4548 35.6913C72.4442 35.6913 72.0186 35.6594 72.0186 35.6488Z"
          fill="#002A35"/>
    <path d="M85.1911 42.4358L84.9783 42.1911C85.1804 41.4996 85.1166 40.8826 84.6485 40.3613C84.2443 39.9038 83.7762 39.6911 83.2017 39.7762C81.8081 39.9889 81.5634 39.6698 81.5528 39.6592L81.457 39.7549L81.4783 39.5953L81.5634 39.457C81.5634 39.457 81.8826 39.8932 83.1911 39.6911C83.7975 39.5953 84.3932 39.8187 84.8187 40.3081C85.2975 40.8506 85.4038 41.723 85.1911 42.4358Z"
          fill="#002A35"/>
    <path d="M73.4684 69.0105C73.4684 69.0105 72.1705 55.6381 78.0854 55.6381C84.0003 55.6381 87.4684 56.1807 86.245 49.4998C85.5109 45.5317 88.3195 45.5743 93.9152 46.0317C94.6067 46.0849 95.745 46.9998 95.5854 47.67L90.4258 69.0105H73.4684Z"
          fill="white"/>
    <path d="M72.3059 51.4683C71.8698 51.5002 71.4549 51.4364 71.0613 51.3087C70.5293 51.1279 70.0506 50.83 69.657 50.5108C68.891 49.8938 68.4336 49.2023 68.4336 49.2023C68.4336 49.2023 70.1038 45.6279 70.6783 44.9045C71.2527 44.1704 73.5293 43.5215 73.5293 43.5215C73.5293 43.5215 74.5506 51.2981 72.3059 51.4683Z"
          fill="#FBEAC6"/>
    <path d="M75.0717 45.0213C73.6675 45.0426 73.593 44.5532 73.5292 44.0213C73.5079 43.7979 73.4866 43.4256 73.4653 42.9681C73.4547 42.7766 73.4547 42.5745 73.4441 42.3617C73.4228 41.9575 73.4015 41.5426 73.3696 41.2128C73.3377 40.8617 73.3164 40.6171 73.3164 40.6171L76.1568 39.9468L76.327 39.9043C76.4015 42.1277 77.0717 43.1171 77.1462 43.4894C77.2951 44.2979 75.9973 45.0107 75.0717 45.0213Z"
          fill="#FCC8AF"/>
    <path d="M76.1555 40.9678C75.8364 41.7869 75.0598 42.8614 73.4747 42.9784C73.464 42.7869 73.464 42.5848 73.4534 42.372C73.4321 41.9678 73.4108 41.5529 73.3789 41.2231L76.1555 40.9678Z"
          fill="#F3B99C"/>
    <path d="M72.1138 41.6171C72.433 42.9788 74.5181 42.9788 76.1564 40.9681C77.6457 39.1383 78.2202 37.5745 76.0712 36.4575C73.9223 35.3405 73.1564 35.9894 72.6244 36.6064C71.2308 38.2128 71.7627 40.1171 72.1138 41.6171Z"
          fill="#FCC8AF"/>
    <path d="M75.4138 36.7339C75.4138 36.7339 73.9776 36.3935 72.6372 36.4147C71.7223 36.4254 71.6265 34.5424 73.6691 33.9041C75.7329 33.2552 78.0734 34.053 78.8819 34.6381C80.2117 35.6062 77.5202 40.4892 77.3819 40.5105C77.2436 40.5317 76.4138 40.8935 76.4138 40.8935C76.4138 40.8935 76.201 40.2126 76.3925 40.0637C77.0095 39.6062 77.0095 38.7232 76.2755 38.8296C75.6372 38.9254 76.2329 36.8403 75.4138 36.7339Z"
          fill="#002A35"/>
    <path d="M58.9641 54.9785C58.9641 54.9785 57.7513 56.0955 57.6024 56.5104C57.4535 56.9253 57.1875 58.404 57.1875 58.404C57.1875 58.404 57.5386 58.404 57.7939 57.7445C58.0492 57.0849 59.1981 56.9572 59.5173 56.5636C59.8471 56.17 60.1343 55.1381 60.1343 55.1381L58.9641 54.9785Z"
          fill="#FCC8AF"/>
    <path d="M60.0399 55.457C60.0399 55.457 59.9867 56.5528 59.7526 56.9145C59.5292 57.2655 59.2314 57.8507 59.0505 57.7336C58.8697 57.6166 59.0186 56.4145 59.0186 56.4145L60.0399 55.457Z"
          fill="#FCC8AF"/>
    <path d="M57.8064 56.5957C57.7852 56.6489 56.7852 58.1063 56.7852 58.1063C56.7852 58.1063 57.2532 58.234 57.3383 58.0212C57.4341 57.8085 57.8064 56.5957 57.8064 56.5957Z"
          fill="#FCC8AF"/>
    <path d="M71.0644 51.308C70.5325 51.1272 70.0538 50.8293 69.6602 50.5102C70.3197 50.1591 71.0219 49.1698 71.1814 49.2442C71.3516 49.3187 71.0644 51.308 71.0644 51.308Z"
          fill="#FFCB68"/>
    <path d="M83.1911 57.744C83.1486 57.6802 81.7337 55.7015 80.7337 54.0845C79.7231 52.4355 80.9571 48.2334 80.9571 48.2334L81.5422 49.4462C81.6911 50.7121 81.7443 51.8717 81.7124 52.6377C81.6699 53.776 82.5529 55.8504 83.1911 57.744Z"
          fill="#FFCB68"/>
    <path d="M76.7963 69.0102C76.7963 69.0102 75.5197 55.2123 81.4133 55.6378C88.8389 56.1804 90.3282 56.4676 88.8921 50.0421C87.8708 45.4783 90.9346 45.6378 94.7857 46.1378C95.3176 46.2017 95.9027 46.6059 95.775 47.3825L93.7538 69.0102H76.7963Z"
          fill="#BDE4E2"/>
    <path d="M88.106 53.5216C85.9677 49.628 81.3187 45.862 81.3187 45.862C78.5634 45.6599 79.0847 47.6386 79.3187 48.9684C79.5421 50.2982 84.7549 53.2769 84.9038 53.3939C85.0421 53.5003 79.4358 54.7237 78.223 54.9897C78.0741 55.0216 77.9358 55.096 77.8294 55.2131C77.4996 55.5535 76.7975 56.3301 76.6911 56.6492C76.6485 56.7875 76.5953 57.0429 76.5528 57.3194C76.2762 57.7556 75.957 58.2875 75.957 58.2875C75.957 58.2875 76.2443 58.3514 76.4038 58.2769C76.3826 58.4471 76.3613 58.5535 76.3613 58.5535C76.3613 58.5535 76.7124 58.5322 76.9358 57.862C77.0315 57.5641 77.3187 57.362 77.6379 57.1918L77.457 57.8939C77.457 57.8939 77.7336 57.8726 77.8932 57.6492C77.9996 57.5003 78.1485 57.128 78.2443 56.8939C78.4038 56.8088 78.5315 56.7237 78.606 56.6173C78.7336 56.4577 78.8506 56.1918 78.9358 55.9258C80.1698 55.8514 84.7549 55.5748 86.4889 55.4046C87.5102 55.3088 87.8826 54.9046 88.1911 54.745C88.4358 54.628 88.2336 53.7343 88.106 53.5216Z"
          fill="#FCC8AF"/>
    <path d="M78.2222 43.5C78.2222 43.5 80.6051 43.9255 81.4562 44.5851C82.3073 45.234 83.5839 47 83.5839 47C83.5839 47 84.0307 50.734 80.3285 50.8085L76.8711 45.6383L78.2222 43.5Z"
          fill="#FBEAC6"/>
    <path d="M72.5742 41.1273C72.5742 41.1273 72.638 41.5954 73.0955 41.5209C73.5529 41.4464 73.7976 41.0741 73.7976 41.0741C72.9998 40.9783 72.5742 41.1273 72.5742 41.1273Z"
          fill="white"/>
    <path d="M75.7778 75.9149C75.7778 75.9149 74.0863 75.8723 73.7671 77.2021L73.3203 75.5H75.7352L75.7778 75.9149Z"
          fill="#1A4554"/>
    <path d="M92.1272 75.9255C92.1272 75.9255 90.4357 75.8723 90.1165 77.2021L89.6484 75.5H92.0633L92.1272 75.9255Z"
          fill="#1A4554"/>
    <path d="M57.3086 75.734C57.3086 75.734 59.2873 75.6702 59.3724 76.8936L59.7554 75.5H57.3405L57.3086 75.734Z"
          fill="#1A4554"/>
    <path d="M37.767 54.8297C35.8202 54.8297 34.0011 53.8297 32.6287 52C31.267 50.1808 30.5117 47.7766 30.5117 45.2127C30.5117 42.6489 31.267 40.234 32.6287 38.4255C34.0011 36.6063 35.8309 35.5957 37.767 35.5957C39.7138 35.5957 41.533 36.5957 42.9053 38.4255C44.267 40.2446 45.0224 42.6489 45.0224 45.2127C45.0224 47.7766 44.267 50.1914 42.9053 52C41.533 53.8297 39.7032 54.8297 37.767 54.8297ZM37.767 35.7766C33.8628 35.7766 30.6926 40.0106 30.6926 45.2127C30.6926 50.4149 33.8628 54.6489 37.767 54.6489C41.6713 54.6489 44.8415 50.4149 44.8415 45.2127C44.8415 40.0106 41.6607 35.7766 37.767 35.7766Z"
          fill="#2E3552"/>
    <path d="M43.606 45.2127C43.606 47.1382 43.1805 48.9254 42.4358 50.4254C41.5848 52.1595 40.3188 53.4893 38.8295 54.1914C38.0848 54.5425 37.2763 54.734 36.4358 54.734C32.4784 54.734 29.2656 50.468 29.2656 45.2127C29.2656 40.0531 32.3507 35.851 36.2018 35.6914C36.2763 35.6914 36.3614 35.6914 36.4358 35.6914C38.3614 35.6914 40.1167 36.702 41.4039 38.351C41.8507 38.9254 42.255 39.585 42.5741 40.2978C42.8614 40.9254 43.0954 41.6063 43.2656 42.3191C43.489 43.234 43.606 44.202 43.606 45.2127Z"
          fill="#FFCB68"/>
    <path d="M41.4043 38.3403L35.5 45.468L36.2021 35.6914C36.2766 35.6914 36.3617 35.6914 36.4362 35.6914C38.3723 35.6914 40.117 36.702 41.4043 38.3403Z"
          fill="#1E8161"/>
    <path d="M42.4479 50.4254C41.5968 52.1595 40.3309 53.4893 38.8415 54.1914L35.5117 45.4893L42.4479 50.4254Z"
          fill="#1E8161"/>
    <path d="M37.7335 38.4366C37.7016 38.4259 37.659 38.394 37.6696 38.3196C37.7547 37.8408 38.3824 36.043 39.9037 36.043C39.9143 36.043 39.925 36.043 39.9462 36.043V36.2238C39.2973 36.2132 38.7441 36.543 38.3292 37.2238C37.9994 37.7451 37.8718 38.2983 37.8611 38.3515C37.8611 38.3196 37.8505 38.277 37.7973 38.2664L37.7335 38.4366Z"
          fill="#2E3552"/>
    <path d="M44.9057 44.7876C44.8844 44.7876 42.4269 44.6386 41.7886 44.7876L41.7461 44.6067C42.4057 44.4578 44.8099 44.5961 44.9163 44.6067L44.9057 44.7876Z"
          fill="#2E3552"/>
    <path d="M40.9664 41.1387L40.8281 41.011C40.8388 41.0004 41.1579 40.6493 41.6579 40.3089C42.126 39.9897 42.8388 39.6068 43.5941 39.6174V39.7983C43.5834 39.7983 43.5834 39.7983 43.5728 39.7983C42.2324 39.7983 40.9877 41.1174 40.9664 41.1387Z"
          fill="#2E3552"/>
    <path d="M44.3094 49.1813C43.7881 49.16 43.1498 48.894 42.3839 48.4047C41.8201 48.043 41.4052 47.6813 41.3945 47.6813L41.5116 47.543C41.5328 47.5536 43.1498 48.9366 44.3094 48.9898V49.1813Z"
          fill="#2E3552"/>
    <path d="M41.7672 53.2028C40.8949 53.1283 39.6821 50.9475 39.6289 50.8517L39.7885 50.7666C40.1183 51.373 41.1289 52.9687 41.7778 53.0219L41.7672 53.2028Z"
          fill="#2E3552"/>
    <path d="M37.4255 54.7768C37 53.7768 37.0851 52.2875 37.0851 52.2236L37.2659 52.2343C37.2659 52.2449 37.1808 53.7449 37.5957 54.7024L37.4255 54.7768Z"
          fill="#2E3552"/>
    <path d="M33.3488 53.7553L33.168 53.7341C33.285 52.8511 34.3063 51.7447 34.3488 51.7021L34.4871 51.8298C34.4658 51.8298 33.4552 52.9256 33.3488 53.7553Z"
          fill="#2E3552"/>
    <path d="M30.5005 50.4362L30.3516 50.3298C30.7452 49.7553 32.192 49.5106 32.2452 49.5L32.2771 49.6809C32.2665 49.6915 30.8516 49.9255 30.5005 50.4362Z"
          fill="#2E3552"/>
    <path d="M29.2814 44.3588L29.2578 44.5381L31.093 44.78L31.1166 44.6007L29.2814 44.3588Z" fill="#2E3552"/>
    <path d="M31.881 41.6174C31.8703 41.6174 31.5406 41.5855 31.1576 41.4472C30.6469 41.2664 30.2746 40.9791 30.0938 40.6281L30.2533 40.543C30.6469 41.3089 31.881 41.4366 31.9023 41.4366L31.881 41.6174Z"
          fill="#2E3552"/>
    <path d="M33.4234 39.4048C33.3702 39.3623 32.0829 38.3729 31.9766 37.6921L32.1574 37.6602C32.2532 38.2665 33.5191 39.2559 33.5404 39.2665L33.4234 39.4048Z"
          fill="#2E3552"/>
    <path d="M35.2667 38.3084C35.2667 38.3084 34.5007 36.734 34.9582 35.8936L35.2667 38.3084Z" fill="#2E3552"/>
    <path d="M41.9358 45.2129C41.9358 46.6916 41.606 48.064 41.0421 49.2023C40.3932 50.5321 39.4251 51.5533 38.2762 52.0959C37.7017 52.3618 37.0847 52.5108 36.4464 52.5108C33.4145 52.5108 30.957 49.2448 30.957 45.2129C30.957 41.2555 33.3187 38.0427 36.2762 37.915C36.34 37.915 36.3932 37.915 36.457 37.915C37.9358 37.915 39.2762 38.6916 40.2655 39.9576C40.6166 40.4044 40.9145 40.9044 41.1592 41.447C41.3826 41.9257 41.5634 42.447 41.6911 43.0001C41.8506 43.6916 41.9358 44.4363 41.9358 45.2129Z"
          fill="#004C40"/>
    <path d="M36.2226 49.8624C38.0498 49.8624 39.5311 47.8953 39.5311 45.4688C39.5311 43.0423 38.0498 41.0752 36.2226 41.0752C34.3953 41.0752 32.9141 43.0423 32.9141 45.4688C32.9141 47.8953 34.3953 49.8624 36.2226 49.8624Z"
          fill="#002A35"/>
    <path d="M35.7109 49.8624C37.5381 49.8624 39.0194 47.8953 39.0194 45.4688C39.0194 43.0423 37.5381 41.0752 35.7109 41.0752C33.8836 41.0752 32.4023 43.0423 32.4023 45.4688C32.4023 47.8953 33.8836 49.8624 35.7109 49.8624Z"
          fill="#1E8161"/>
    <path d="M36.0518 62.5007H28.7539C28.7539 61.8624 29.2752 61.3517 29.9028 61.3517H34.9028C35.5411 61.3411 36.0518 61.8624 36.0518 62.5007Z"
          fill="#002A35"/>
    <path d="M35.5104 46.713C36.0274 46.713 36.4466 46.1557 36.4466 45.4683C36.4466 44.7809 36.0274 44.2236 35.5104 44.2236C34.9934 44.2236 34.5742 44.7809 34.5742 45.4683C34.5742 46.1557 34.9934 46.713 35.5104 46.713Z"
          fill="#002A35"/>
    <path d="M32.0929 61.4684L29.5185 48.862C29.5078 48.8301 29.5078 48.7982 29.5078 48.7769C29.561 48.0854 29.827 47.4365 30.2844 46.9152C30.7419 46.3939 31.3482 46.0322 32.0291 45.8833L35.9121 45.0322L36.0504 45.6492L32.1674 46.5003C31.1355 46.7237 30.3695 47.5322 30.178 48.5429C30.1568 48.6812 30.1567 48.8301 30.1887 48.9684L32.7099 61.3407L32.0929 61.4684Z"
          fill="#002A35"/>
    <path d="M49.0311 62.8829V63.4893C49.0311 63.702 48.9566 63.8829 48.8821 63.8829H26.563C26.4779 63.8829 26.4141 63.7127 26.4141 63.4893V62.8829C26.4141 62.6701 26.4885 62.4893 26.563 62.4893H48.8821C48.9566 62.4999 49.0311 62.6701 49.0311 62.8829Z"
          fill="#002A35"/>
    <path d="M49.0312 62.8829V63.4893C49.0312 63.702 48.9674 63.8829 48.893 63.8829H31.1695C31.0951 63.8829 31.0312 63.7127 31.0312 63.4893V62.8829C31.0312 62.6701 31.0951 62.4893 31.1695 62.4893H48.8823C48.9674 62.4999 49.0312 62.6701 49.0312 62.8829Z"
          fill="#BDE4E2"/>
    <path d="M43.3834 63.8828H27.543V86.9786H43.3834V63.8828Z" fill="#002A35"/>
    <path d="M47.817 63.8828H31.9766V86.9786H47.817V63.8828Z" fill="#1E8161"/>
    <path d="M46.9664 85.7025H32.8281V64.543H46.9664V85.7025ZM32.9771 85.5536H46.8068V64.6919H32.9771V85.5536Z"
          fill="#002A35"/>
    <path d="M46.8917 71.543H32.9023V71.6919H46.8917V71.543Z" fill="#002A35"/>
    <path d="M46.8917 78.6816H32.9023V78.8306H46.8917V78.6816Z" fill="#002A35"/>
    <path d="M41.3298 65.9046H38.734C38.6064 65.9046 38.5 65.7982 38.5 65.6706C38.5 65.5429 38.6064 65.4365 38.734 65.4365H41.3298C41.4574 65.4365 41.5638 65.5429 41.5638 65.6706C41.5638 65.7982 41.4574 65.9046 41.3298 65.9046Z"
          fill="#002A35"/>
    <path d="M41.3298 72.8831H38.734C38.6064 72.8831 38.5 72.7767 38.5 72.6491C38.5 72.5214 38.6064 72.415 38.734 72.415H41.3298C41.4574 72.415 41.5638 72.5214 41.5638 72.6491C41.5638 72.7767 41.4574 72.8831 41.3298 72.8831Z"
          fill="#002A35"/>
    <path d="M41.3298 80.1605H38.734C38.6064 80.1605 38.5 80.0541 38.5 79.9264C38.5 79.7988 38.6064 79.6924 38.734 79.6924H41.3298C41.4574 79.6924 41.5638 79.7988 41.5638 79.9264C41.5638 80.0541 41.4574 80.1605 41.3298 80.1605Z"
          fill="#002A35"/>
    <path d="M41.0956 61.2877H36.8828V59.7451H41.1062C41.5317 59.7451 41.8722 60.0855 41.8722 60.5111C41.8722 60.9366 41.5211 61.2877 41.0956 61.2877Z"
          fill="#FCECDB"/>
    <path d="M45.5952 60.3836V60.6177C45.5952 60.7453 45.5633 60.8623 45.4995 60.9581C45.3825 61.1602 45.1697 61.2985 44.9144 61.2985H36.7442C36.691 61.2985 36.6484 61.256 36.6484 61.2028V61.1709C36.6484 61.1177 36.691 61.0751 36.7442 61.0751H41.7229C41.7548 61.0432 41.7761 61.0113 41.7974 60.9687C41.8399 60.8836 41.8718 60.7772 41.8718 60.6709V60.373C41.8718 60.3198 41.8612 60.2666 41.8506 60.2134C41.8293 60.1283 41.7867 60.0538 41.7335 59.99H36.7442C36.691 59.99 36.6484 59.9475 36.6484 59.8943V59.8623C36.6484 59.8092 36.691 59.7666 36.7442 59.7666H44.9569C45.2442 59.7666 45.4889 59.9581 45.5633 60.224C45.5846 60.2666 45.5952 60.3198 45.5952 60.3836Z"
          fill="#004C40"/>
    <path d="M45.575 60.2021H41.8623C41.841 60.117 41.7985 60.0425 41.7453 59.9787H36.7559C36.7027 59.9787 36.6602 59.9362 36.6602 59.883V59.851C36.6602 59.7979 36.7027 59.7553 36.7559 59.7553H44.9687C45.2559 59.7447 45.5006 59.9362 45.575 60.2021Z"
          fill="#004C40"/>
    <path d="M36.8828 60.5215L37.4892 60.5428L36.8828 60.5534V60.5215Z" fill="#F4D2B8"/>
    <path d="M36.8828 60.7559L38.3296 60.7878L36.8828 60.7984V60.7559Z" fill="#F4D2B8"/>
    <path d="M37.9245 62.4795H42.5628V61.2773H37.882C37.5628 61.2773 37.2969 61.5327 37.2969 61.8625C37.3075 62.2029 37.5841 62.4795 37.9245 62.4795Z"
          fill="#1E8161"/>
    <path d="M42.2978 62.4795H47.5744V61.2773H42.2872C41.9574 61.2773 41.6914 61.5433 41.6914 61.8731C41.702 62.2135 41.968 62.4795 42.2978 62.4795Z"
          fill="#FCECDB"/>
    <path d="M41.3378 62.4798H47.7634C47.8166 62.4798 47.8485 62.4372 47.8485 62.3947C47.8485 62.3415 47.8059 62.3096 47.7634 62.3096H41.3485C41.2953 62.3096 41.2634 62.3521 41.2634 62.3947C41.2527 62.4372 41.2953 62.4798 41.3378 62.4798Z"
          fill="#1E8161"/>
    <path d="M41.3378 61.4583H47.7634C47.8166 61.4583 47.8485 61.4158 47.8485 61.3732C47.8485 61.32 47.8059 61.2881 47.7634 61.2881H41.3485C41.2953 61.2881 41.2634 61.3306 41.2634 61.3732C41.2527 61.4264 41.2953 61.4583 41.3378 61.4583Z"
          fill="#1E8161"/>
    <path d="M47.5839 61.8838L46.8711 61.9051L47.5839 61.9157V61.8838Z" fill="#F4D2B8"/>
    <path d="M47.5849 61.6074L45.8828 61.6287L47.5849 61.6393V61.6074Z" fill="#F4D2B8"/>
    <path d="M45.9023 61.6182C45.9023 61.6182 45.9768 61.6714 45.9981 61.7565C45.9981 61.7671 46.0087 61.7884 46.0087 61.799C46.0087 61.916 46.0087 62.1607 46.0087 62.1607L46.2215 62.0331L46.4343 62.1607V61.8203C46.4343 61.7565 46.413 61.6926 46.3811 61.6501C46.3598 61.6288 46.3492 61.6182 46.3172 61.6182H45.9023Z"
          fill="#1E8161"/>
    <path d="M45.9023 61.6182C45.9023 61.6182 45.9768 61.6714 45.9981 61.7565H46.4236C46.4236 61.7565 46.4023 61.6394 46.3172 61.6182H45.9023Z"
          fill="#004C40"/>
    <path d="M102.594 87.3091H19.0086C18.8809 87.3091 18.7852 87.2134 18.7852 87.0857C18.7852 86.958 18.8809 86.8623 19.0086 86.8623H102.604C102.732 86.8623 102.828 86.958 102.828 87.0857C102.817 87.2134 102.721 87.3091 102.594 87.3091Z"
          fill="#2E3552"/>
</svg>
