<svg width="100%" height="100%" viewBox="0 0 121 120" fill="none" xmlns="http://www.w3.org/2000/svg">
    <path d="M0.5 4C0.5 1.79086 2.29086 0 4.5 0H116.5C118.709 0 120.5 1.79086 120.5 4V116C120.5 118.209 118.709 120 116.5 120H4.5C2.29086 120 0.5 118.209 0.5 116V4Z"
          fill="#F5FAFF"/>
    <path d="M28.5988 86.8914C28.5988 86.8914 18.44 86.6214 14.0975 79.7589C6.2338 67.3239 9.77755 56.4152 23.78 57.2289C39.4438 58.1364 37.5125 19.5864 64.6325 38.1452C70.52 42.1764 83.6263 33.7127 88.865 51.3452C90.11 55.5377 99.4625 55.8302 105.504 59.1939C114.984 64.4702 112.306 86.9777 103.351 87.0677C94.3925 87.1577 28.5988 86.8914 28.5988 86.8914Z"
          fill="#E1F1E3"/>
    <path d="M19.2359 59.7975C19.6897 59.9025 21.7372 59.9288 23.1734 59.6025C23.4734 59.535 23.7472 59.4525 23.9722 59.3512C24.2422 59.2312 24.4484 59.0888 24.5497 58.9125C24.7109 58.6425 25.0109 57.7162 25.3597 56.5012C26.3234 53.1562 27.6772 47.625 27.6772 47.625C27.6772 47.625 24.9584 48.18 24.3809 48.6525C23.8034 49.125 23.2972 56.6438 22.7572 56.8463C22.6784 56.8763 22.5397 56.94 22.3634 57.0262C22.3559 57.03 22.3447 57.0338 22.3372 57.0375C22.2322 57.09 22.1122 57.15 21.9847 57.2137C20.8634 57.7912 19.0034 58.83 18.8122 59.0625C18.5572 59.3738 18.5759 59.6437 19.2359 59.7975Z"
          fill="#FFCB68"/>
    <path d="M24.4533 51.9075C24.4533 51.78 24.4645 51.6525 24.4908 51.5213C24.8395 49.5975 27.622 47.625 27.6783 47.625V47.6662C27.6783 47.9587 28.1433 48.5025 28.8558 48.5512C29.7033 48.6075 30.7495 48.1238 30.7495 47.6363C30.7533 47.6363 31.2258 47.7 31.3833 47.7188C32.062 47.7975 33.4158 48.1613 33.997 48.6C34.5483 49.0163 33.7683 51.645 33.2845 53.5088C33.0783 54.2963 32.9283 54.945 32.9545 55.2338C32.9658 55.3763 33.0933 57.285 33.2058 59.0137C33.2995 60.4387 33.382 61.7437 33.3858 61.8225C33.3933 61.9837 32.587 62.5538 31.2333 62.9813C30.907 63.0863 30.547 63.18 30.1608 63.2588C29.467 63.4013 28.6795 63.495 27.8283 63.4913C27.5508 63.4913 27.2845 63.4763 27.0333 63.45C25.1058 63.2625 24.442 61.0612 24.4533 51.9075Z"
          fill="#FFCB68"/>
    <path d="M30.7509 47.6132C30.7659 46.867 30.7546 45.9745 30.6534 45.2207L27.6684 45.7082C27.6684 45.7082 27.6646 46.6195 27.6796 47.6282C27.6796 47.6282 27.5971 48.5657 28.7521 48.7007C29.9071 48.8395 30.7809 48.337 30.7509 47.6132Z"
          fill="#FCC8AF"/>
    <path d="M28.2513 87.1196C28.6263 86.8871 28.405 85.1771 28.405 85.1771C28.405 85.1771 26.6463 83.7821 26.41 84.8546C26.1738 85.9271 24.7525 86.4146 23.9425 86.5496C23.3837 86.6433 23.1775 86.9321 23.125 87.1158L28.2513 87.1196Z"
          fill="#2E3552"/>
    <path d="M30.9844 57.6974C30.9844 60.5586 32.3719 59.7861 33.2081 59.0136C33.0956 57.2849 33.0169 51.1611 33.0169 51.1611C33.0169 51.1611 30.9844 53.5986 30.9844 57.6974Z"
          fill="#FFA412"/>
    <path d="M21.9844 57.2209C22.0406 57.6221 22.6744 58.7921 23.1694 59.6021C23.4694 59.5346 23.7431 59.4521 23.9681 59.3509C24.2381 59.2309 24.4444 59.0884 24.5456 58.9121C24.7069 58.6421 25.0069 57.7159 25.3556 56.5009C25.0969 55.0046 24.8494 53.5271 24.8494 53.5271L24.7744 52.5371C24.7744 52.6121 23.6156 56.9659 23.0906 57.0671C22.7756 57.1271 22.5506 57.0521 22.3594 57.0259C22.3519 57.0296 22.3406 57.0334 22.3331 57.0371C22.2319 57.0934 22.1119 57.1534 21.9844 57.2209Z"
          fill="#FFA412"/>
    <path d="M33.6381 87.1196C34.0131 86.8871 33.7919 85.1771 33.7919 85.1771C33.7919 85.1771 32.0331 83.7821 31.7969 84.8546C31.5606 85.9271 30.1394 86.4146 29.3294 86.5496C28.7706 86.6433 28.5681 86.9321 28.5156 87.1158L33.6381 87.1196Z"
          fill="#2E3552"/>
    <path d="M31.0324 44.3588C31.0324 44.3588 33.0236 41.22 29.1986 41.01C29.1986 41.01 27.7624 41.1788 27.4399 40.8525C27.4399 40.8525 26.3261 42.5438 27.3649 44.355C28.4036 46.17 31.0324 44.3588 31.0324 44.3588Z"
          fill="#002A35"/>
    <path d="M27.7576 45.9969C28.0464 46.2256 28.8976 46.4506 29.1451 46.4769C29.1451 46.4769 30.4051 46.1956 30.6339 46.0569C30.9901 45.8431 30.9676 45.4081 30.9826 44.8006C31.0051 44.0844 31.0764 43.5219 30.9977 43.1094C30.9039 42.6144 30.5889 42.3331 29.7114 42.2581C28.1027 42.1194 27.4314 42.5206 27.4014 43.0606C27.3939 43.2069 27.3864 43.3456 27.3826 43.4731C27.3189 45.1606 27.4539 45.7569 27.7576 45.9969Z"
          fill="#FCC8AF"/>
    <path d="M27.3689 44.0283C27.3839 45.0033 27.6464 45.5808 27.8377 45.6521C28.0552 45.7346 28.3139 45.8058 28.5839 45.8508C28.6739 45.8621 28.7602 45.8583 28.7602 45.8058C28.7564 45.6521 28.5502 45.4608 28.7039 45.3258C28.8652 45.1833 29.7239 45.1346 29.7952 45.4458C29.8289 45.5996 29.5514 45.8658 29.7427 45.8733C29.7989 45.8621 29.8552 45.8508 29.9114 45.8396C30.2264 45.7571 30.4702 45.6108 30.5752 45.5471C30.9314 45.3333 30.9052 45.0033 30.9839 44.4033C31.0364 44.0133 31.0364 44.2271 30.9839 44.8008C30.9314 45.4046 31.0364 45.7908 30.6352 46.0571C30.4139 46.2033 29.1277 46.7808 29.1277 46.7808C29.1464 46.4733 28.0514 46.2221 27.7589 45.9933C27.4852 45.7833 27.3502 45.2958 27.3689 44.0283Z"
          fill="#002A35"/>
    <path d="M33.3944 61.1583C33.3869 61.0871 33.3832 61.0158 33.3757 60.9483C33.3719 60.8808 33.3644 60.8171 33.3607 60.7496C33.3569 60.7233 33.3569 60.7008 33.3569 60.6746C33.3532 60.6221 33.3494 60.5733 33.3457 60.5208C33.3344 60.3521 33.3232 60.1871 33.3119 60.0258C33.3082 59.9846 33.3082 59.9433 33.3044 59.9021C33.2969 59.7746 33.2894 59.6508 33.2819 59.5271C33.2782 59.4633 33.2744 59.3996 33.2707 59.3358C33.2669 59.2533 33.2632 59.1746 33.2594 59.0921C33.2557 59.0433 33.2557 58.9946 33.2519 58.9458C33.2519 58.9158 33.2482 58.8896 33.2482 58.8596C33.2444 58.8108 33.2444 58.7621 33.2407 58.7171C33.2294 58.4771 33.2219 58.2446 33.2107 58.0158C33.1694 57.9221 33.1469 57.8658 33.1432 57.8583C33.1432 57.8583 33.1432 57.8583 33.1394 57.8583C32.2244 57.5733 31.7819 56.3846 31.5757 55.1133C31.4257 54.1833 31.3994 53.2083 31.4069 52.5108C31.4144 51.9708 30.9794 51.5283 30.4357 51.5283H24.8407C24.6307 51.5283 24.4544 51.7008 24.4544 51.9146C24.4432 61.0683 24.1994 63.0671 24.2032 63.3708C24.2032 63.4646 24.2032 63.5658 24.2069 63.6671C24.2144 64.0008 24.2257 64.3871 24.2557 64.8108C24.2857 65.2946 24.3344 65.8308 24.4094 66.4083C24.4244 66.5321 24.4432 66.6558 24.4582 66.7833L25.9432 85.3346C25.9319 85.5821 26.1269 85.7921 26.3744 85.8296C26.7794 85.8896 27.3082 86.0583 27.8069 86.0396C27.3607 86.0246 26.8957 85.8821 26.5657 85.8296C26.3444 85.7921 26.1682 85.5821 26.1794 85.3346C26.4419 79.6383 25.4669 73.6646 24.9719 66.7833C24.9644 66.6558 24.9419 66.5321 24.9269 66.4083C24.8594 65.8346 24.8144 65.2946 24.7882 64.8108C25.0544 62.8758 26.5582 62.7746 27.9232 66.7721C27.8257 67.5521 28.3657 70.2108 28.8382 72.4308C28.8194 72.2096 28.8082 72.0746 28.8082 72.0746C28.8232 71.2046 29.7119 71.5496 29.8994 70.2258C29.9707 69.7233 30.0494 69.2058 30.1282 68.6846C30.4357 66.6671 30.7769 64.5746 30.9044 63.0933C30.9044 63.0933 30.9044 63.0896 30.9082 63.0896C31.0244 63.0558 31.1369 63.0258 31.2457 62.9883C32.5994 62.5608 33.4057 61.9908 33.3982 61.8296C33.3832 61.6458 33.4169 61.4171 33.3944 61.1583Z"
          fill="#1E8161"/>
    <path d="M27.9202 66.768C26.5552 62.7705 25.0514 62.8717 24.7852 64.8067C24.8114 65.2905 24.8564 65.8267 24.9239 66.4042C24.9389 66.528 24.9577 66.6517 24.9689 66.7792C25.4639 73.6605 26.4389 79.6342 26.1764 85.3305C26.1652 85.578 26.3302 85.8517 26.5514 85.8892C26.8814 85.9417 27.2489 86.0355 27.6914 86.0505C27.9239 86.043 28.2614 85.983 28.4639 85.863C28.7864 85.6755 29.3227 78.273 29.0827 75.3967C29.0339 74.793 28.8952 73.158 28.8314 72.4305C28.3627 70.2067 27.8227 67.548 27.9202 66.768Z"
          fill="#1E8161"/>
    <path d="M33.1372 73.4361C33.1822 73.8336 33.7109 75.6524 33.7522 75.8811C34.1759 78.1461 34.2284 81.9036 34.0109 85.5749C33.9659 86.3174 32.1809 85.9649 31.5809 85.9574C31.3334 85.9536 31.1084 85.7699 31.0897 85.5224C30.6172 79.6911 28.6634 71.6811 27.4034 66.9711C26.7697 64.5974 26.6797 62.8536 26.6797 62.8536C26.6797 62.8536 32.5559 59.2536 33.1934 61.2186C33.7597 62.9586 32.7847 70.3911 33.1372 73.4361Z"
          fill="#004C40"/>
    <path d="M27.4677 40.1323C27.5089 40.0873 27.5502 40.0423 27.5952 40.001C27.7864 39.8173 28.0189 39.6635 28.2964 39.5473C29.3202 39.1198 30.1714 39.5135 30.7039 39.9185C30.7564 39.9598 30.8052 39.9973 30.8502 40.0385C31.1389 40.2823 31.3002 40.5035 31.3002 40.5035C31.3002 40.5035 31.7989 41.1823 31.7802 42.6148L26.6539 42.671C26.6539 42.6635 26.5789 41.1185 27.4677 40.1323Z"
          fill="#FFA412"/>
    <path d="M30.337 42.6225L30.0557 42.6262C30.0482 42.5437 30.0632 40.6837 30.757 39.96C30.8095 40.0012 30.7982 39.9937 30.8432 40.0312C30.187 40.6687 30.337 42.6037 30.337 42.6225Z"
          fill="#E27F2B"/>
    <path d="M28.1111 42.6483C28.0511 41.5083 27.6161 40.3121 27.4998 40.0983C27.5411 40.0533 27.5486 40.0421 27.5936 39.9971C27.6761 40.1396 28.3436 41.3771 28.4148 42.6408L31.7786 42.6033C31.7786 42.6033 30.0723 42.9858 29.0448 42.9971C28.0173 43.0083 26.6523 42.6558 26.6523 42.6558L28.1111 42.6483Z"
          fill="#E27F2B"/>
    <path d="M31.5838 47.7451C31.5838 47.7451 29.8513 49.7626 29.75 51.5251L30.6313 51.5701C30.6313 51.5701 30.8525 49.6089 32.1575 47.8651C32.1575 47.8651 31.955 47.8164 31.8875 47.8014C31.7975 47.7826 31.5838 47.7451 31.5838 47.7451Z"
          fill="#1E8161"/>
    <path d="M27.2689 47.7148C26.0277 49.5936 25.8964 51.5586 25.8964 51.5586L25.0039 51.5436C25.0789 50.1598 25.9452 48.6373 26.4252 47.9173C26.4252 47.9173 27.0439 47.7636 27.2689 47.7148Z"
          fill="#1E8161"/>
    <path d="M29.2011 67.0831H29.9173C30.2511 66.9331 32.0398 66.1568 33.7611 66.1456C35.0023 66.1381 36.4198 67.0681 36.5023 67.0756C36.7198 67.1018 35.7823 67.1093 35.7823 67.1093C35.7823 67.1093 34.3798 66.4906 33.7498 66.4756C33.1498 66.4606 31.8148 66.8993 31.2823 67.0831H35.2911C35.6248 67.0831 35.9023 67.3568 35.9023 67.6943V72.2618C35.9023 72.5956 35.6286 72.8731 35.2911 72.8731H29.2011C28.8673 72.8731 28.5898 72.5993 28.5898 72.2618V67.6906C28.5936 67.3568 28.8673 67.0831 29.2011 67.0831Z"
          fill="#FFCB68"/>
    <path d="M31.1855 67.083H37.2792C37.613 67.083 37.8905 67.3568 37.8905 67.6943V72.2618C37.8905 72.5955 37.6167 72.873 37.2792 72.873H31.1855C30.8517 72.873 30.5742 72.5993 30.5742 72.2618V67.6905C30.5742 67.3568 30.848 67.083 31.1855 67.083Z"
          fill="#FFA412"/>
    <path d="M32.9725 58.5788C32.9275 60.6451 33.1862 64.7588 33.1862 64.7588H34.405C34.9787 61.8638 35.185 60.0001 35.185 58.9838C35.185 58.7851 35.185 58.5976 35.1812 58.4251C35.1737 57.5588 35.1512 57.0526 35.1512 57.0526C35.38 51.7951 34.33 48.9863 34 48.5963C33.67 48.2101 32.1625 47.8613 32.1625 47.8613C32.1625 47.8613 31.6637 49.3126 31.4612 50.4826C31.2587 51.6526 33.0587 56.5613 32.9837 58.2376C32.98 58.3426 32.9762 58.4588 32.9725 58.5788Z"
          fill="#FFCB68"/>
    <path d="M17.1529 59.9844H18.1392C18.2367 59.9844 18.3154 60.0669 18.3154 60.1644V87.0106C18.3154 87.1081 18.2367 87.1869 18.1392 87.1869H17.1529C17.0554 87.1869 16.9767 87.1081 16.9767 87.0106V60.1644C16.9729 60.0631 17.0554 59.9844 17.1529 59.9844Z"
          fill="#FFCB68"/>
    <path d="M17.1527 59.9844H18.1389C18.2364 59.9844 18.3152 60.0669 18.3152 60.1644V60.9969H16.9727V60.1644C16.9727 60.0631 17.0552 59.9844 17.1527 59.9844Z"
          fill="#002A35"/>
    <path d="M18.3153 87.0073C18.3153 87.1048 18.2366 87.1835 18.1391 87.1835H17.1528C17.0553 87.1835 16.9766 87.1048 16.9766 87.0073V86.291H18.3153V87.0073Z"
          fill="#002A35"/>
    <path d="M17.6364 61.7432C17.6927 61.7432 17.7377 61.7882 17.7377 61.8444V85.4732C17.7377 85.5294 17.6927 85.5744 17.6364 85.5744C17.5802 85.5744 17.5352 85.5294 17.5352 85.4732V61.8444C17.5352 61.7882 17.5802 61.7432 17.6364 61.7432Z"
          fill="#FFA412"/>
    <path d="M33.1869 64.7584C33.1869 64.7584 32.9281 60.6446 32.9731 58.5784C33.9481 58.2634 34.7356 58.3346 35.1819 58.4284C35.1819 58.6009 35.1856 58.7884 35.1856 58.9871C35.1856 60.0034 34.9831 61.8671 34.4056 64.7621C34.6606 65.8271 34.6419 66.9784 34.2031 67.1846C33.7644 67.3871 32.3056 66.6259 32.3244 66.2884C32.3394 65.9434 33.1869 64.7584 33.1869 64.7584Z"
          fill="#FCC8AF"/>
    <path d="M16.5066 59.9998C16.6266 59.5648 16.7128 59.321 17.0128 59.111C17.4478 58.8035 17.9653 58.886 18.3516 58.9535C18.6478 59.006 18.9553 58.9048 19.0828 58.856C19.7653 58.4023 21.4791 57.461 22.3341 57.041C22.9153 57.3785 23.6316 58.046 23.9691 59.351C22.6566 59.9323 19.7803 59.921 19.2328 59.7935C19.2328 59.7935 18.7266 60.161 18.3403 60.1948C18.1941 60.206 18.0103 60.1648 17.8378 60.1085C17.5678 60.0185 17.2753 60.1085 17.0803 60.3485C16.8928 60.581 16.6491 60.7085 16.5478 60.7085C16.3941 60.7123 16.4316 60.2735 16.5066 59.9998Z"
          fill="#FCC8AF"/>
    <path d="M49.4636 54.9147C48.9611 56.4522 46.2198 59.111 45.8448 59.3772C45.8448 59.3772 45.2073 58.316 45.3348 57.7197C45.4398 57.2322 46.5048 55.5035 46.8686 54.6522C46.8873 54.6072 46.9061 54.566 46.9211 54.5285C46.9698 54.3972 46.9961 54.296 46.9923 54.236C46.9736 54.0522 46.3923 53.6022 45.7173 53.0697C44.8398 52.376 43.8048 51.5435 43.6361 50.966C43.3398 49.946 42.3086 45.9072 42.3086 45.9072C42.3086 45.9072 44.8698 46.4622 45.5898 47.0997C46.3136 47.7372 49.4148 53.0472 49.5423 54.4085C49.5536 54.5547 49.5236 54.7235 49.4636 54.9147Z"
          fill="#FFCB68"/>
    <path d="M49.462 54.9145C48.9595 56.452 46.2183 59.1107 45.8433 59.377C45.8433 59.377 45.2058 58.3157 45.3333 57.7195C45.442 57.2095 46.6158 55.3195 46.9195 54.5282C47.3733 54.4457 48.442 54.352 49.462 54.9145Z"
          fill="#FCC8AF"/>
    <path d="M42.3046 45.5508V45.8658C42.3046 45.8658 42.3909 46.8483 41.1834 46.9908C39.9759 47.1333 39.0684 46.6946 39.0984 45.9408C39.2071 45.3558 39.3196 44.8646 39.3309 44.3808C39.3346 44.2008 39.3234 44.0096 39.2896 43.7921L41.6296 43.7471L42.3196 43.8596L42.3046 45.5508Z"
          fill="#FCC8AF"/>
    <path d="M42.3153 43.8557L42.3078 45.5507C42.0603 45.6669 41.7791 45.7382 41.4641 45.7382C40.3878 45.7382 39.6941 44.9507 39.3303 44.3769C39.3341 44.1969 39.3228 44.0057 39.2891 43.7882L41.6291 43.7432L42.3153 43.8557Z"
          fill="#F3B99C"/>
    <path d="M40.2423 87.1345C40.2423 87.1345 40.1298 86.2495 39.8673 85.7245C39.6048 85.1995 37.9323 85.5333 37.9323 85.5333C37.9323 85.5333 37.5986 85.822 37.5273 87.1608L40.2423 87.1345Z"
          fill="#2E3552"/>
    <path d="M45.9476 87.1309C45.5538 86.8909 45.7788 85.0984 45.7788 85.0984C45.7788 85.0984 47.6126 83.6321 47.8638 84.7534C48.1151 85.8746 49.6038 86.3809 50.4513 86.5159C51.0363 86.6096 51.2163 86.9359 51.2726 87.1271H45.9476V87.1309Z"
          fill="#2E3552"/>
    <path d="M48.3833 84.911C47.082 78.9297 46.6058 70.3197 46.4295 65.2197L42.7695 72.6485C42.8933 73.106 42.9908 73.526 43.0545 73.886C43.1295 74.2985 43.1783 74.636 43.1895 74.876C43.3583 78.1985 45.0795 85.8185 45.552 85.9947C46.2795 86.2685 47.4233 85.6872 48.0233 85.496C48.2708 85.4135 48.4395 85.166 48.3833 84.911Z"
          fill="#1E8161"/>
    <path d="M45.8997 60.8769C45.8997 60.8769 39.4909 59.1669 39.4534 61.3306C39.4234 63.0256 41.8234 69.0894 42.7684 72.6481L46.4284 65.2193C46.3422 62.6506 45.8997 60.8769 45.8997 60.8769Z"
          fill="#004C40"/>
    <path d="M42.5385 61.5186C42.5385 61.5186 42.396 66.7761 41.781 69.9749C41.166 73.1736 41.0048 75.4649 40.8548 79.0011C40.7048 82.5374 40.191 85.8861 40.191 85.8861C40.191 85.8861 38.7023 86.2461 37.5473 85.9574C37.206 77.8349 37.5998 76.8674 37.341 74.3774C37.0373 71.4749 36.891 70.7886 36.8085 68.2311C36.7073 65.0736 36.126 61.5261 36.8198 60.7161C37.3335 60.1161 38.7398 61.3386 42.5385 61.5186Z"
          fill="#1E8161"/>
    <path d="M46.0836 61.3835C46.0836 61.3835 44.3549 62.3922 41.8461 62.366C40.8674 62.3547 40.0199 62.2835 39.2961 62.1747C37.2861 61.8747 36.2699 61.316 36.2774 61.106C36.2849 60.9185 36.2961 60.2922 36.3224 60.0222C36.6411 56.336 36.4761 53.471 36.9074 51.3185C36.9111 51.2922 36.9186 51.266 36.9224 51.2397C37.4924 48.5022 38.3849 46.931 38.8274 46.286C38.9886 46.0497 39.0899 45.941 39.0974 45.941C39.0974 46.451 40.1849 46.8935 41.0736 46.8335C41.8199 46.7847 42.3036 46.2147 42.3036 45.9072C42.3636 45.9072 45.6749 48.206 45.6749 50.3435C45.6899 59.9172 46.2674 61.3872 46.0836 61.3835Z"
          fill="#FFCB68"/>
    <path d="M39.3038 62.1407C39.3038 62.152 39.3 62.1632 39.3 62.1707C37.29 61.8707 36.2738 61.312 36.2813 61.102C36.2888 60.9145 36.3 60.2882 36.3263 60.0182C36.645 56.332 36.48 53.467 36.9113 51.3145C37.965 52.7282 40.1325 56.422 39.3038 62.1407Z"
          fill="#FFA412"/>
    <path d="M44.8127 57.5626L44.5427 58.4626L44.2727 59.3551L32.6102 55.8451C32.5952 55.8451 32.5764 55.8451 32.5614 55.8414C32.5464 55.8376 32.5314 55.8301 32.5164 55.8189C32.3702 55.7139 32.3439 55.3351 32.4564 54.9039C32.4639 54.8814 32.4677 54.8551 32.4752 54.8326C32.6102 54.3714 32.8614 54.0301 33.0489 54.0264C33.0639 54.0264 33.0789 54.0264 33.0939 54.0339C33.1089 54.0376 33.1239 54.0451 33.1352 54.0564L44.8127 57.5626Z"
          fill="#F5F5F5"/>
    <path d="M44.5388 58.463L44.2688 59.3555L32.6063 55.8455C32.5913 55.8455 32.5725 55.8455 32.5575 55.8418C32.5425 55.838 32.5275 55.8305 32.5125 55.8193C32.3663 55.7143 32.34 55.3355 32.4525 54.9043C32.9288 55.2605 35.205 56.843 39.0938 57.6155C43.1138 58.4105 44.355 58.4593 44.5388 58.463Z"
          fill="#ECECEC"/>
    <path d="M44.8367 57.5547C44.6417 57.4984 44.3642 57.8547 44.2179 58.3534C44.0717 58.8522 44.1092 59.3059 44.3042 59.3622C44.4992 59.4184 44.7767 59.0622 44.9229 58.5634C45.0692 58.0647 45.0317 57.6147 44.8367 57.5547Z"
          fill="#E1E1E1"/>
    <path d="M33.2221 53.7225L31.8459 53.5012C31.8309 53.4937 31.8159 53.49 31.8009 53.4862C31.7859 53.4825 31.7709 53.4825 31.7559 53.4862C31.5684 53.5125 31.3659 53.8837 31.2909 54.36C31.2871 54.3862 31.2834 54.4087 31.2796 54.435C31.2534 54.645 31.2571 54.84 31.2834 54.9975C31.3134 55.1662 31.3734 55.2862 31.4521 55.3312L31.4559 55.335C31.4709 55.3425 31.4859 55.35 31.5046 55.35C31.5196 55.3537 31.5384 55.3537 31.5534 55.35L43.5759 57.3L43.7259 56.3812L43.8759 55.455L33.2221 53.7225Z"
          fill="#F5F5F5"/>
    <path d="M38.2209 56.25C35.6484 56.085 34.2871 54.7237 33.2221 53.7225L31.8459 53.5012C31.8309 53.4937 31.8159 53.49 31.8009 53.4862C31.7859 53.4825 31.7709 53.4825 31.7559 53.4862C31.5684 53.5125 31.3659 53.8837 31.2909 54.36C31.2871 54.3862 31.2834 54.4087 31.2796 54.435C31.2534 54.645 31.2571 54.84 31.2834 54.9975C31.3471 55.1812 31.4146 55.305 31.4521 55.3312L31.4559 55.335C31.4709 55.3425 31.4859 55.35 31.5046 55.35C31.5196 55.3537 31.5384 55.3537 31.5534 55.35L43.5759 57.3L43.7259 56.3812C43.5459 56.4 42.3084 56.5125 38.2209 56.25Z"
          fill="#ECECEC"/>
    <path d="M43.9026 55.444C43.7001 55.414 43.4751 55.804 43.3926 56.3178C43.3101 56.8315 43.4076 57.274 43.6101 57.3078C43.8126 57.3378 44.0376 56.9478 44.1201 56.434C44.1989 55.9165 44.1051 55.474 43.9026 55.444Z"
          fill="#E1E1E1"/>
    <path d="M39.6227 58.9798C36.8327 58.5373 34.9915 57.3673 34.234 56.8011C33.9752 56.6098 33.844 56.4861 33.844 56.4861C32.4152 53.4823 34.999 48.2136 35.4715 47.3211C35.9815 46.3573 39.094 45.9336 39.094 45.9336C39.094 45.9336 38.5952 47.3961 38.404 49.3011C38.209 51.2061 36.139 54.9223 36.2215 55.2373C36.244 55.3161 36.4915 55.4811 36.859 55.6873C37.9427 56.3023 40.0315 57.2961 40.159 57.5286C40.3315 57.8473 39.6227 58.9798 39.6227 58.9798Z"
          fill="#FCC8AF"/>
    <path d="M40.165 57.5363C40.165 57.5363 41.7212 56.9138 42.1037 57.1688C42.4862 57.4238 43.1237 57.8063 43.1237 58.0613C43.1237 58.3163 42.3175 58.995 41.635 59.2088C40.9562 59.4225 39.625 58.9838 39.625 58.9838L40.165 57.5363Z"
          fill="#FCC8AF"/>
    <path d="M38.4077 49.3048C38.2127 51.2098 36.1427 54.9261 36.2252 55.2411C36.2477 55.3198 36.4952 55.4848 36.8627 55.6911C36.8402 55.6911 36.8177 55.6948 36.7915 55.6911C35.1602 55.6198 34.4252 56.5198 34.234 56.8011C33.9752 56.6098 33.844 56.4861 33.844 56.4861C32.4152 53.4823 34.999 48.2136 35.4715 47.3211C35.9815 46.3573 39.094 45.9336 39.094 45.9336C39.094 45.9336 38.599 47.3998 38.4077 49.3048Z"
          fill="#FFCB68"/>
    <path d="M42.4205 45.1645C42.4205 45.1645 39.4542 45.2845 39.1055 43.4132C38.7567 41.542 38.1342 40.357 40.0355 39.892C41.933 39.427 42.4805 40.0532 42.7092 40.6682C43.0017 41.4557 42.8292 41.5195 42.9342 42.232C43.1217 43.4882 42.9117 45.0332 42.4205 45.1645Z"
          fill="#FCC8AF"/>
    <path d="M39.1671 43.9532C39.1671 43.9532 38.5896 42.7157 38.1058 42.1682C37.6221 41.6207 37.8846 38.8757 39.9733 38.9619C42.0583 39.0482 42.8083 40.5445 42.8271 40.8295C42.8496 41.1145 41.1583 40.8969 40.6971 41.2682C40.2358 41.6432 40.6746 42.2582 40.1496 42.4757C39.6208 42.6969 39.2046 42.697 39.2946 43.177C39.3846 43.657 39.1671 43.9532 39.1671 43.9532Z"
          fill="#002A35"/>
    <path d="M39.731 38.2498C39.1835 38.3885 38.771 38.606 38.4635 38.8723C38.4335 38.8985 38.4035 38.9248 38.3735 38.951C37.2373 40.0348 37.691 41.7598 37.691 41.7598C37.691 41.7598 37.841 42.1948 37.946 42.3635C38.051 42.5323 39.5585 42.3373 39.6373 42.011C39.716 41.6848 40.016 41.3473 40.016 41.3473C40.016 41.3473 41.606 41.2385 41.711 41.231C42.071 41.2048 43.0948 40.8485 43.0948 40.8485C43.0835 40.751 42.506 37.5523 39.731 38.2498Z"
          fill="#FFA412"/>
    <path d="M44.0366 40.5115C43.8453 40.4665 43.5191 40.414 42.9866 40.3915C42.9866 40.3915 42.5366 40.7627 41.6403 41.0477C41.2203 40.519 40.0241 39.2402 38.4641 38.869C38.4603 38.869 38.4566 38.8652 38.4491 38.8652C38.4153 38.9065 38.3966 38.9215 38.3741 38.9477C38.3666 38.9552 38.3591 38.9665 38.3516 38.9777C39.6228 39.199 40.8266 40.624 41.2428 41.1565C40.8866 41.2427 40.4778 41.314 40.0166 41.344C40.0166 41.344 42.7953 41.3965 44.0666 40.729C44.1603 40.684 44.1453 40.5377 44.0366 40.5115Z"
          fill="#E27F2B"/>
    <path d="M47.5836 53.8948C47.5274 54.2136 47.3549 54.5473 46.8674 54.6523C46.8861 54.6073 46.9049 54.5661 46.9199 54.5286C46.9686 54.3973 46.9949 54.2961 46.9911 54.2361C46.9724 54.0523 46.3911 53.6023 45.7161 53.0698C45.6599 52.7661 45.5249 51.8698 45.7161 51.1573C45.9486 50.2836 47.6474 53.5348 47.5836 53.8948Z"
          fill="#FFA412"/>
    <path d="M36.5373 55.4777C36.5373 55.4777 34.4561 55.309 33.7773 56.5202C33.7773 56.5202 33.8336 56.929 34.2386 56.8052C34.2386 56.8052 36.0011 55.6015 36.8636 55.6952C36.8636 55.6915 36.7286 55.4815 36.5373 55.4777Z"
          fill="#FFA412"/>
    <path d="M46.8672 54.6524C46.8672 54.6524 47.9472 54.6974 49.3084 55.2899C49.3084 55.2899 49.6084 54.9937 49.4884 54.8249C49.3684 54.6524 47.4522 54.0412 46.8672 54.6524Z"
          fill="#FFA412"/>
    <path d="M86.3498 62.3658L88.3298 85.657C88.3298 85.657 88.5361 87.0708 87.4748 87.0708C85.7311 87.0745 78.7936 87.0708 78.7936 87.0708C78.7936 87.0708 80.1061 86.7783 80.0911 86.1145C80.0723 85.3345 77.7773 62.1445 77.7773 62.1445L86.3498 62.3658Z"
          fill="#002A35"/>
    <path d="M86.8966 86.651C85.1978 86.6735 78.5716 86.651 78.2266 86.651C78.3541 86.651 79.3516 86.6285 79.4941 85.886C79.5053 85.826 79.5128 85.766 79.5091 85.6985C79.5091 85.5523 79.4266 84.6335 79.2953 83.2273C79.1791 81.9673 79.0216 80.321 78.8453 78.4985C78.1628 71.4335 77.1953 61.7285 77.1953 61.7285L85.7678 61.9498L87.1741 78.4985L87.4478 81.7273L87.6953 84.6335L87.7478 85.2373C87.7516 85.2373 87.9953 86.636 86.8966 86.651Z"
          fill="#FFCB68"/>
    <path d="M107.167 49.6914L102.348 68.8577L101.688 71.4827L99.4419 80.4114H57.7344L66.0069 49.6914H107.167Z"
          fill="#FFCB68"/>
    <path d="M107.17 49.6914L107.838 49.9127L100.334 81.0789L99.4453 80.4114L107.17 49.6914Z" fill="#1E8161"/>
    <path d="M100.331 81.0786H58.8781L57.7344 80.4111H99.4419L100.331 81.0786Z" fill="#002A35"/>
    <path d="M85.7745 86.6592H76.8008V87.0829H85.7745V86.6592Z" fill="#1E8161"/>
    <path d="M87.5087 81.0633L87.4525 81.7233L87.4488 81.7458C87.4488 81.7458 81.6175 82.3008 79.2962 83.2196C79.2362 82.5896 79.1687 81.8583 79.0938 81.0596H87.5087V81.0633Z"
          fill="#FFA412"/>
    <path d="M86.8966 86.6513C85.1978 86.6738 78.5716 86.6513 78.2266 86.6513C78.3541 86.6513 79.3516 86.6288 79.4941 85.8863C80.1766 85.92 83.9716 86.04 87.6991 84.6338L87.7516 85.2375C87.7516 85.2375 87.9953 86.6363 86.8966 86.6513Z"
          fill="#FFA412"/>
    <path d="M100.906 74.3809L99.3914 80.4109H85.3477C91.2839 78.5434 94.0964 75.8134 95.2289 74.3809H100.906Z"
          fill="#FFA412"/>
    <path d="M106.358 50.0967L100.471 74.3817H59.8359L66.4322 50.0967H106.358Z" fill="#F5F5F5"/>
    <path d="M59.3481 74.3809H59.8581L59.7531 74.7484L59.2656 74.6959L59.3481 74.3809Z" fill="#F1A34F"/>
    <path d="M74.5603 33.566C74.5491 33.5585 74.5416 33.5547 74.5341 33.5472L68.2003 29.2197L53.3803 33.6822L53.2753 38.141H52.9341C52.7316 38.141 52.5703 38.306 52.5703 38.5047V38.8685C52.5703 39.071 52.7353 39.2322 52.9341 39.2322H54.1116C54.3141 39.2322 54.4753 39.0672 54.4753 38.8685V38.5047C54.4753 38.3022 54.3103 38.141 54.1116 38.141H53.5378L56.3316 35.1335H66.3591V74.3735H68.7966V35.1372H70.8666V35.9885C70.8666 36.191 71.0316 36.3522 71.2303 36.3522H74.3391C74.5416 36.3522 74.7028 36.1872 74.7028 35.9885V33.8547C74.7066 33.7385 74.6503 33.6335 74.5603 33.566ZM53.4853 37.886L53.5903 35.1372H56.0428L53.4853 37.886ZM71.2341 33.4947C71.0541 33.4947 70.9041 33.626 70.8741 33.7985H53.7516L68.1666 29.456L74.1178 33.4947H71.2341Z"
          fill="#1E8161"/>
    <path d="M105.106 47.9515H104.899L104.854 45.2328L95.7756 42.499L91.8944 45.1503L92.0219 45.109C91.8981 45.109 91.7969 45.2103 91.7969 45.334V46.639C91.7969 46.7628 91.8981 46.864 92.0219 46.864H93.9231C94.0469 46.864 94.1481 46.7628 94.1481 46.639V46.1178H95.4156V70.1028H96.9044V46.1178H103.024L104.734 47.9553H104.386C104.262 47.9553 104.161 48.0565 104.161 48.1803V48.4053C104.161 48.529 104.262 48.6303 104.386 48.6303H105.106C105.229 48.6303 105.331 48.529 105.331 48.4053V48.1803C105.327 48.0528 105.226 47.9515 105.106 47.9515ZM94.1369 45.2965C94.1181 45.1915 94.0281 45.109 93.9156 45.109H92.1344L95.7944 42.6415L104.607 45.2965H94.1369ZM103.204 46.114H104.723L104.768 47.794L103.204 46.114Z"
          fill="#1E8161"/>
    <path d="M92.7688 48.6528V48.4953H92.42V47.4453H92.1313V48.4953H91.4V47.4453H91.1113V48.4953H90.3163V47.4453H90.0275V48.4953H89.2962V47.4453H89.0075V48.4953H88.625V48.6528H89.0075V49.1628H88.625V49.3203H89.0075V49.8303H88.625V49.9878H89.0075V50.4978H88.625V50.6553H89.0075V51.1653H88.625V51.3228H89.0075V51.8328H88.625V51.9903H89.0075V52.4028H88.625V52.5603H89.0075V53.0703H88.625V53.2278H89.0075V53.7378H88.625V53.8953H89.0075V54.4053H88.625V54.5628H89.0075V55.0728H88.625V55.2303H89.0075V55.7403H88.625V55.8978H89.0075V56.3853H88.625V56.5428H89.0075V57.0528H88.625V57.2103H89.0075V57.7203H88.625V57.8778H89.0075V58.3878H88.625V58.5453H89.0075V59.0553H88.625V59.2128H89.0075V59.7228H88.625V59.8803H89.0075V60.2928H88.625V60.4503H89.0075V60.9603H88.625V61.1178H89.0075V61.6278H88.625V61.7853H89.0075V62.2953H88.625V62.4528H89.0075V62.9628H88.625V63.1203H89.0075V63.6303H88.625V63.7878H89.0075V64.2453H88.625V64.4028H89.0075V64.9128H88.625V65.0703H89.0075V65.5803H88.625V65.7378H89.0075V66.2478H88.625V66.4053H89.0075V66.9153H88.625V67.0728H89.0075V67.5828H88.625V67.7403H89.0075V68.1528H88.625V68.3103H89.0075V68.8203H88.625V68.9778H89.0075V69.4878H88.625V69.6453H92.7613V69.4878H92.4125V68.9778H92.7613V68.8203H92.4125V68.3103H92.7613V68.1528H92.4125V67.7403H92.7613V67.5828H92.4125V67.0728H92.7613V66.9153H92.4125V66.4053H92.7613V66.2478H92.4125V65.7378H92.7613V65.5803H92.4125V65.0703H92.7613V64.9128H92.4125V64.4028H92.7613V64.2453H92.4125V63.7878H92.7613V63.6303H92.4125V63.1203H92.7613V62.9628H92.4125V62.4528H92.7613V62.2953H92.4125V61.8378H92.7613V61.6803H92.4125V61.1703H92.7613V61.0128H92.4125V60.5028H92.7613V60.3453H92.4125V59.9328H92.7613V59.7753H92.4125V59.2653H92.7613V59.1078H92.4125V58.5978H92.7613V58.4403H92.4125V57.9303H92.7613V57.7728H92.4125V57.2628H92.7613V57.1053H92.4125V56.5953H92.7613V56.4378H92.4125V55.9503H92.7613V55.7928H92.4125V55.2828H92.7613V55.1253H92.4125V54.6153H92.7613V54.4578H92.4125V53.9478H92.7613V53.7903H92.4125V53.2803H92.7613V53.1228H92.4125V52.5753H92.7613V52.4178H92.4125V52.0053H92.7613V51.8478H92.4125V51.3378H92.7613V51.1803H92.4125V50.6628H92.7613V50.5053H92.4125V49.9953H92.7613V49.8378H92.4125V49.3278H92.7613V49.1703H92.4125V48.6603H92.7688V48.6528ZM91.115 48.6528V49.1628H90.32V48.6528H91.115ZM90.32 68.9028V68.3928H91.115V68.9028H90.32ZM91.115 69.0603V69.5703H90.32V69.0603H91.115ZM90.32 68.2316V67.8191H91.115V68.2316H90.32ZM90.32 67.6578V67.1478H91.115V67.6578H90.32ZM90.32 66.9866V66.4766H91.115V66.9866H90.32ZM90.32 66.3191V65.8091H91.115V66.3191H90.32ZM90.32 65.6478V65.1378H91.115V65.6478H90.32ZM90.32 64.9766V64.4666H91.115V64.9766H90.32ZM90.32 64.3053V63.8478H91.115V64.3053H90.32ZM90.32 63.6903V63.1803H91.115V63.6903H90.32ZM90.32 63.0228V62.5128H91.115V63.0228H90.32ZM90.32 62.3516V61.8378H91.115V62.3478H90.32V62.3516ZM90.32 61.6803V61.1703H91.115V61.6803H90.32ZM90.32 61.0091V60.4991H91.115V61.0091H90.32ZM90.32 60.3378V59.9253H91.115V60.3378H90.32ZM90.32 59.7678V59.2578H91.115V59.7678H90.32ZM90.32 59.0966V58.5866H91.115V59.0966H90.32ZM90.32 58.4253V57.9153H91.115V58.4253H90.32ZM90.32 57.7541V57.2441H91.115V57.7541H90.32ZM90.32 57.0866V56.5766H91.115V57.0866H90.32ZM90.32 56.4153V55.9278H91.115V56.4153H90.32ZM90.32 55.7666V55.2566H91.115V55.7666H90.32ZM90.32 55.0991V54.5891H91.115V55.0991H90.32ZM90.32 54.4278V53.9178H91.115V54.4278H90.32ZM90.32 53.7566V53.2466H91.115V53.7566H90.32ZM90.32 53.0853V52.5753H91.115V53.0853H90.32ZM90.32 52.4178V52.0053H91.115V52.4178H90.32ZM90.32 51.8441V51.3341H91.115V51.8441H90.32ZM90.32 51.1728V50.6628H91.115V51.1728H90.32ZM90.32 50.5016V49.9916H91.115V50.5016H90.32ZM90.32 49.8341V49.3241H91.115V49.8341H90.32ZM89.3038 48.6528H90.035V49.1628H89.3038V48.6528ZM89.3038 49.3203H90.035V49.8303H89.3038V49.3203ZM89.3038 49.9916H90.035V50.5016H89.3038V49.9916ZM89.3038 50.6628H90.035V51.1728H89.3038V50.6628ZM89.3038 51.3341H90.035V51.8441H89.3038V51.3341ZM89.3038 52.0016H90.035V52.4141H89.3038V52.0016ZM89.3038 52.5753H90.035V53.0853H89.3038V52.5753ZM89.3038 53.2466H90.035V53.7566H89.3038V53.2466ZM89.3038 53.9178H90.035V54.4278H89.3038V53.9178ZM89.3038 54.5853H90.035V55.0953H89.3038V54.5853ZM89.3038 55.2566H90.035V55.7666H89.3038V55.2566ZM89.3038 55.9278H90.035V56.4153H89.3038V55.9278ZM89.3038 56.5728H90.035V57.0828H89.3038V56.5728ZM89.3038 57.2441H90.035V57.7541H89.3038V57.2441ZM89.3038 57.9153H90.035V58.4253H89.3038V57.9153ZM89.3038 58.5866H90.035V59.0966H89.3038V58.5866ZM89.3038 59.2541H90.035V59.7641H89.3038V59.2541ZM89.3038 59.9253H90.035V60.3378H89.3038V59.9253ZM89.3038 60.4991H90.035V61.0091H89.3038V60.4991ZM89.3038 61.1703H90.035V61.6803H89.3038V61.1703ZM89.3038 61.8378H90.035V62.3478H89.3038V61.8378ZM89.3038 62.5091H90.035V63.0191H89.3038V62.5091ZM89.3038 63.1803H90.035V63.6903H89.3038V63.1803ZM89.3038 63.8516H90.035V64.3091H89.3038V63.8516ZM89.3038 64.4666H90.035V64.9766H89.3038V64.4666ZM89.3038 65.1341H90.035V65.6441H89.3038V65.1341ZM89.3038 65.8053H90.035V66.3153H89.3038V65.8053ZM89.3038 66.4766H90.035V66.9866H89.3038V66.4766ZM89.3038 67.1478H90.035V67.6578H89.3038V67.1478ZM89.3038 67.8191H90.035V68.2316H89.3038V67.8191ZM89.3038 68.3891H90.035V68.8991H89.3038V68.3891ZM89.3038 69.0603H90.035V69.5703H89.3038V69.0603ZM92.135 69.5703H91.4038V69.0603H92.135V69.5703ZM92.135 68.9028H91.4038V68.3928H92.135V68.9028ZM92.135 68.2316H91.4038V67.8191H92.135V68.2316ZM92.135 67.6578H91.4038V67.1478H92.135V67.6578ZM92.135 66.9866H91.4038V66.4766H92.135V66.9866ZM92.135 66.3191H91.4038V65.8091H92.135V66.3191ZM92.135 65.6478H91.4038V65.1378H92.135V65.6478ZM92.135 64.9766H91.4038V64.4666H92.135V64.9766ZM92.135 64.3053H91.4038V63.8478H92.135V64.3053ZM92.135 63.6903H91.4038V63.1803H92.135V63.6903ZM92.135 63.0228H91.4038V62.5128H92.135V63.0228ZM92.135 62.3516H91.4038V61.8378H92.135V62.3516ZM92.135 61.6803H91.4038V61.1703H92.135V61.6803ZM92.135 61.0091H91.4038V60.4991H92.135V61.0091ZM92.135 60.3378H91.4038V59.9253H92.135V60.3378ZM92.135 59.7678H91.4038V59.2578H92.135V59.7678ZM92.135 59.0966H91.4038V58.5866H92.135V59.0966ZM92.135 58.4253H91.4038V57.9153H92.135V58.4253ZM92.135 57.7541H91.4038V57.2441H92.135V57.7541ZM92.135 57.0866H91.4038V56.5766H92.135V57.0866ZM92.135 56.4153H91.4038V55.9278H92.135V56.4153ZM92.135 55.7666H91.4038V55.2566H92.135V55.7666ZM92.135 55.0991H91.4038V54.5891H92.135V55.0991ZM92.135 54.4278H91.4038V53.9178H92.135V54.4278ZM92.135 53.7566H91.4038V53.2466H92.135V53.7566ZM92.135 53.0853H91.4038V52.5753H92.135V53.0853ZM92.135 52.4178H91.4038V52.0053H92.135V52.4178ZM92.135 51.8441H91.4038V51.3341H92.135V51.8441ZM92.135 51.1728H91.4038V50.6628H92.135V51.1728ZM92.135 50.5016H91.4038V49.9916H92.135V50.5016ZM92.135 49.8341H91.4038V49.3241H92.135V49.8341ZM92.135 49.1628H91.4038V48.6528H92.135V49.1628Z"
          fill="#1E8161"/>
    <path d="M87.2572 37.5791H75.4297V74.3816H87.2572V37.5791Z" fill="#1E8161"/>
    <path opacity="0.5" d="M83.9948 42.6338H75.4336V48.0263H83.9948V42.6338Z" fill="#E1F1E3"/>
    <path opacity="0.5" d="M83.9948 52.5078H75.4336V57.9003H83.9948V52.5078Z" fill="#E1F1E3"/>
    <path opacity="0.5" d="M83.9948 62.2539H75.4336V67.6464H83.9948V62.2539Z" fill="#E1F1E3"/>
    <path d="M100.41 67.6091V62.6254H87.2623V37.5566H83.9961V74.3816H87.2623H100.474L102.116 67.6091H100.41Z"
          fill="#004C40"/>
    <path d="M98.6712 74.3779H98.96V73.9166H99.6913V74.3779H99.98V73.9166H100.584L100.621 73.7591H99.98V73.2491H100.745L101.094 71.8054H101.06V71.2954H101.218L101.255 71.1379H101.056V70.6279H101.379L101.416 70.4704H101.056V69.9604H101.54L101.577 69.8029H101.056V69.2929H101.705L101.743 69.1354H101.056V68.7229H101.788V68.9516L102.076 67.7629V67.3804H102.17L102.207 67.2229H102.076V66.7129H102.331L102.369 66.5554H102.076V66.0454H102.425V65.8879H102.076V65.3779H102.425V65.2204H102.076V64.7329H102.425V64.5754H102.076V64.0654H102.425V63.9079H102.076V63.3979H102.425V63.2404H102.076V62.7304H102.425V62.5729H102.076V62.0254H102.425V61.8679H102.076V61.3579H102.425V61.2004H102.076V60.7879H102.425V60.6304H102.076V60.1129H102.425V59.9554H102.076V59.4454H102.425V59.2879H102.076V58.7779H102.425V58.6204H102.076V58.1104H102.425V57.9529H102.076V57.4429H102.425V57.2854H102.076V56.2354H101.788V57.2854H101.056V56.2354H100.768V57.2854H99.9725V56.2354H99.6837V57.2854H98.9525V56.2354H98.6637V57.2854H98.2812V57.4429H98.6637V57.9529H98.2812V58.1104H98.6637V58.6204H98.2812V58.7779H98.6637V59.2879H98.2812V59.4454H98.6637V59.9554H98.2812V60.1129H98.6637V60.6229H98.2812V60.7804H98.6637V61.1929H98.2812V61.3504H98.6637V61.8604H98.2812V62.0179H98.6637V62.5279H98.2812V62.6854H98.6637V63.1954H98.2812V63.3529H98.6637V63.8629H98.2812V64.0204H98.6637V64.5304H98.2812V64.6879H98.6637V65.1754H98.2812V65.3329H98.6637V65.8429H98.2812V66.0004H98.6637V66.5104H98.2812V66.6679H98.6637V67.1779H98.2812V67.3354H98.6637V67.8454H98.2812V68.0029H98.6637V68.5129H98.2812V68.6704H98.6637V69.0829H98.2812V69.2404H98.6637V69.7504H98.2812V69.9079H98.6637V70.4179H98.2812V70.5754H98.6637V71.0854H98.2812V71.2429H98.6637V71.7529H98.2812V71.9104H98.6637V72.4204H98.2812V72.5779H98.6637V73.0354H98.2812V73.1929H98.6637V73.7029H98.2812V73.8604H98.6637V74.3779H98.6712ZM101.06 57.4316H101.791V57.9416H101.06V57.4316ZM101.06 58.1029H101.791V58.6129H101.06V58.1029ZM101.06 58.7741H101.791V59.2841H101.06V58.7741ZM101.06 59.4416H101.791V59.9516H101.06V59.4416ZM101.06 60.1129H101.791V60.6229H101.06V60.1129ZM101.06 60.7841H101.791V61.1966H101.06V60.7841ZM101.06 61.3579H101.791V61.8679H101.06V61.3579ZM101.06 62.0254H101.791V62.5354H101.06V62.0254ZM101.06 62.6966H101.791V63.2066H101.06V62.6966ZM101.06 63.3679H101.791V63.8779H101.06V63.3679ZM101.06 64.0391H101.791V64.5491H101.06V64.0391ZM101.06 64.7066H101.791V65.1941H101.06V64.7066ZM101.06 65.3554H101.791V65.8654H101.06V65.3554ZM101.06 66.0266H101.791V66.5366H101.06V66.0266ZM101.06 66.6941H101.791V67.2041H101.06V66.6941ZM101.06 67.3654H101.791V67.8754H101.06V67.3654ZM101.06 68.0366H101.791V68.5466H101.06V68.0366ZM99.98 57.4316H100.775V57.9416H99.98V57.4316ZM99.98 58.1029H100.775V58.6129H99.98V58.1029ZM99.98 58.7741H100.775V59.2841H99.98V58.7741ZM99.98 59.4416H100.775V59.9516H99.98V59.4416ZM99.98 60.1129H100.775V60.6229H99.98V60.1129ZM99.98 60.7841H100.775V61.1966H99.98V60.7841ZM99.98 61.3579H100.775V61.8679H99.98V61.3579ZM99.98 62.0254H100.775V62.5354H99.98V62.0254ZM99.98 62.6966H100.775V63.2066H99.98V62.6966ZM99.98 63.3679H100.775V63.8779H99.98V63.3679ZM99.98 64.0391H100.775V64.5491H99.98V64.0391ZM99.98 64.7066H100.775V65.1941H99.98V64.7066ZM99.98 65.3554H100.775V65.8654H99.98V65.3554ZM99.98 66.0266H100.775V66.5366H99.98V66.0266ZM99.98 66.6941H100.775V67.2041H99.98V66.6941ZM99.98 67.3654H100.775V67.8754H99.98V67.3654ZM99.98 68.0366H100.775V68.5466H99.98V68.0366ZM99.98 68.7079H100.775V69.1204H99.98V68.7079ZM99.98 69.2779H100.775V69.7879H99.98V69.2779ZM99.98 69.9491H100.775V70.4591H99.98V69.9491ZM99.98 70.6204H100.775V71.1304H99.98V70.6204ZM99.98 71.2916H100.775V71.8016H99.98V71.2916ZM99.98 71.9629H100.775V72.4729H99.98V71.9629ZM99.98 72.6304H100.775V73.0879H99.98V72.6304ZM98.96 57.4316H99.6913V57.9416H98.96V57.4316ZM98.96 58.1029H99.6913V58.6129H98.96V58.1029ZM98.96 58.7741H99.6913V59.2841H98.96V58.7741ZM98.96 59.4416H99.6913V59.9516H98.96V59.4416ZM98.96 60.1129H99.6913V60.6229H98.96V60.1129ZM98.96 60.7841H99.6913V61.1966H98.96V60.7841ZM98.96 61.3579H99.6913V61.8679H98.96V61.3579ZM98.96 62.0254H99.6913V62.5354H98.96V62.0254ZM98.96 62.6966H99.6913V63.2066H98.96V62.6966ZM98.96 63.3679H99.6913V63.8779H98.96V63.3679ZM98.96 64.0391H99.6913V64.5491H98.96V64.0391ZM98.96 64.7066H99.6913V65.1941H98.96V64.7066ZM98.96 65.3554H99.6913V65.8654H98.96V65.3554ZM98.96 66.0266H99.6913V66.5366H98.96V66.0266ZM98.96 66.6941H99.6913V67.2041H98.96V66.6941ZM98.96 67.3654H99.6913V67.8754H98.96V67.3654ZM98.96 68.0366H99.6913V68.5466H98.96V68.0366ZM98.96 68.7079H99.6913V69.1204H98.96V68.7079ZM98.96 69.2779H99.6913V69.7879H98.96V69.2779ZM98.96 69.9491H99.6913V70.4591H98.96V69.9491ZM98.96 70.6204H99.6913V71.1304H98.96V70.6204ZM98.96 71.2916H99.6913V71.8016H98.96V71.2916ZM98.96 71.9629H99.6913V72.4729H98.96V71.9629ZM98.96 72.6304H99.6913V73.0879H98.96V72.6304ZM98.96 73.2454H99.6913V73.7554H98.96V73.2454Z"
          fill="#1E8161"/>
    <path d="M112.368 87.4617H8.62813C8.56438 87.4617 8.51562 87.3642 8.51562 87.2479C8.51562 87.1317 8.56813 87.0342 8.62813 87.0342H112.368C112.432 87.0342 112.481 87.1317 112.481 87.2479C112.481 87.3642 112.432 87.4617 112.368 87.4617Z"
          fill="#283250"/>
    <path d="M75.4303 53.8389H63.6328V74.3814H75.4303V53.8389Z" fill="#004C40"/>
    <path d="M65.3477 54.8066H64.4102V58.4816H65.3477V54.8066Z" fill="white"/>
    <path d="M67.2227 54.8066H66.2852V58.4816H67.2227V54.8066Z" fill="white"/>
    <path d="M69.0898 54.8066H68.1523V58.4816H69.0898V54.8066Z" fill="white"/>
    <path d="M70.9648 54.8066H70.0273V58.4816H70.9648V54.8066Z" fill="white"/>
    <path d="M72.8398 54.8066H71.9023V58.4816H72.8398V54.8066Z" fill="white"/>
    <path d="M74.7148 54.8066H73.7773V58.4816H74.7148V54.8066Z" fill="white"/>
    <path d="M65.3477 59.6816H64.4102V63.3566H65.3477V59.6816Z" fill="#EBF2F9"/>
    <path d="M67.2227 59.6816H66.2852V63.3566H67.2227V59.6816Z" fill="#EBF2F9"/>
    <path d="M69.0898 59.6816H68.1523V63.3566H69.0898V59.6816Z" fill="#EBF2F9"/>
    <path d="M70.9648 59.6816H70.0273V63.3566H70.9648V59.6816Z" fill="#EBF2F9"/>
    <path d="M72.8398 59.6816H71.9023V63.3566H72.8398V59.6816Z" fill="#EBF2F9"/>
    <path d="M74.7148 59.6816H73.7773V63.3566H74.7148V59.6816Z" fill="#EBF2F9"/>
    <path d="M65.3477 64.5566H64.4102V68.2316H65.3477V64.5566Z" fill="#EBF2F9"/>
    <path d="M67.2227 64.5566H66.2852V68.2316H67.2227V64.5566Z" fill="#EBF2F9"/>
    <path d="M69.0898 64.5566H68.1523V68.2316H69.0898V64.5566Z" fill="#EBF2F9"/>
    <path d="M70.9648 64.5566H70.0273V68.2316H70.9648V64.5566Z" fill="#EBF2F9"/>
    <path d="M72.8398 64.5566H71.9023V68.2316H72.8398V64.5566Z" fill="#EBF2F9"/>
    <path d="M74.7148 64.5566H73.7773V68.2316H74.7148V64.5566Z" fill="#EBF2F9"/>
    <path d="M65.3477 69.4688H64.4102V73.1437H65.3477V69.4688Z" fill="#EBF2F9"/>
    <path d="M67.2227 69.4688H66.2852V73.1437H67.2227V69.4688Z" fill="#EBF2F9"/>
    <path d="M69.0898 69.4688H68.1523V73.1437H69.0898V69.4688Z" fill="#EBF2F9"/>
    <path d="M70.9648 69.4688H70.0273V73.1437H70.9648V69.4688Z" fill="#EBF2F9"/>
    <path d="M72.8398 69.4688H71.9023V73.1437H72.8398V69.4688Z" fill="#EBF2F9"/>
    <path d="M74.7148 69.4688H73.7773V73.1437H74.7148V69.4688Z" fill="#EBF2F9"/>
    <path d="M74.3698 48.457H69.7461V53.8383H74.3698V48.457Z" fill="#1E8161"/>
    <path d="M115.121 87.4578H7.82188C7.73938 87.4578 7.67188 87.3903 7.67188 87.3078V87.1803C7.67188 87.0978 7.73938 87.0303 7.82188 87.0303H115.121C115.203 87.0303 115.271 87.0978 115.271 87.1803V87.3078C115.267 87.394 115.199 87.4578 115.121 87.4578Z"
          fill="#2E3552"/>
</svg>
