<svg width="100%" height="100%" viewBox="0 0 120 120" fill="none" xmlns="http://www.w3.org/2000/svg">
    <path d="M0 4C0 1.79086 1.79086 0 4 0H116C118.209 0 120 1.79086 120 4V116C120 118.209 118.209 120 116 120H4C1.79086 120 0 118.209 0 116V4Z"
          fill="#F5FAFF"/>
    <path opacity="0.3"
          d="M110.035 87.4459L12.8054 87.4197C12.8054 87.4197 -0.41715 72.0072 6.0441 56.1447C10.2591 45.8059 21.7604 38.2797 33.7716 39.4759C42.1866 40.3122 50.9691 45.8884 57.4716 35.8947C58.3866 34.4959 59.4629 33.2584 60.6666 32.1784C62.6729 30.3859 65.0504 29.0209 67.6454 28.0684C67.6679 28.0609 67.6979 28.0534 67.7241 28.0422C67.9229 27.9672 68.1291 27.8997 68.3429 27.8322C68.3729 27.8172 68.3991 27.8134 68.4329 27.7984C68.6729 27.7159 68.9204 27.6409 69.1641 27.5659C69.1866 27.5584 69.2091 27.5509 69.2316 27.5509C69.7116 27.4084 70.1991 27.2809 70.6904 27.1722V27.1647C70.7204 27.1572 70.7429 27.1497 70.7691 27.1497C71.2191 27.0409 71.6766 26.9472 72.1416 26.8647C72.4791 26.8047 72.8204 26.7484 73.1654 26.7034C74.0954 26.5759 75.0404 26.4859 75.9966 26.4372C77.1704 26.3772 78.3591 26.3847 79.5516 26.4522C79.5816 26.4522 79.6079 26.4522 79.6379 26.4597C79.9116 26.4747 80.1816 26.4934 80.4554 26.5159C80.4854 26.5234 80.5116 26.5234 80.5416 26.5234C87.0741 27.0934 93.6141 29.5272 98.5829 33.5809C98.6054 33.5959 98.6354 33.6147 98.6579 33.6334C99.2803 34.1434 99.8804 34.6872 100.454 35.2497C100.488 35.2834 100.522 35.3172 100.555 35.3434C104.59 39.3784 107.182 44.6772 107.182 51.0747C107.182 52.1284 107.114 53.2159 106.964 54.3297C106.953 54.4234 106.942 54.5209 106.923 54.6072C106.878 54.9597 106.822 55.3122 106.75 55.6684C106.608 56.4559 106.51 57.2847 106.207 58.0797C99.9179 74.4859 118.045 73.0347 110.035 87.4459Z"
          fill="#FBEAC6"/>
    <path d="M116.891 87.4686H7.82594C7.74719 87.4686 7.67969 87.4049 7.67969 87.3224V87.2136C7.67969 87.1349 7.74344 87.0674 7.82594 87.0674H116.891C116.97 87.0674 117.037 87.1311 117.037 87.2136V87.3224C117.037 87.4049 116.973 87.4686 116.891 87.4686Z"
          fill="#0C2934"/>
    <path d="M19.5881 43.249H19.3594V86.6215H19.5881V43.249Z" fill="#E1F1E3"/>
    <path d="M36.3811 43.249H36.1523V86.6215H36.3811V43.249Z" fill="#E1F1E3"/>
    <path d="M36.3814 57.3906H19.4727V57.6644H36.3814V57.3906Z" fill="#E1F1E3"/>
    <path d="M36.3814 65.667H19.4727V65.9407H36.3814V65.667Z" fill="#E1F1E3"/>
    <path d="M36.3814 79.1895H19.4727V79.4632H36.3814V79.1895Z" fill="#E1F1E3"/>
    <path d="M36.3814 48.3867H19.4727V48.6605H36.3814V48.3867Z" fill="#E1F1E3"/>
    <path d="M57.9414 45.1016C57.9414 47.9741 60.2702 50.3028 63.1427 50.3028C66.0152 50.3028 68.3439 47.9741 68.3439 45.1016H57.9414Z"
          fill="#F7CB78"/>
    <path d="M57.8336 45.2209H68.4536C68.5361 45.2209 68.6036 45.1534 68.6036 45.0709C68.6036 44.9884 68.5361 44.9209 68.4536 44.9209H57.8336C57.7511 44.9209 57.6836 44.9884 57.6836 45.0709C57.6836 45.1534 57.7511 45.2209 57.8336 45.2209Z"
          fill="#FFA412"/>
    <path d="M64.262 29.625C65.327 33.75 67.0933 40.335 67.9033 43.2075C67.9108 43.2225 67.9108 43.245 67.9183 43.26C68.0158 43.5938 68.0983 43.8938 68.1733 44.1525C68.2108 44.265 68.2408 44.3625 68.2708 44.4637V44.4713C68.3233 44.6513 68.3758 44.805 68.4133 44.925C68.4583 45.0675 68.4958 45.1575 68.5183 45.1988L68.4808 45.2213L68.4283 45.2588C68.4283 45.2513 68.4208 45.2362 68.4133 45.2287C68.3908 45.1762 68.3533 45.0713 68.3083 44.925C68.2633 44.8125 68.2183 44.6588 68.1658 44.4863C68.1283 44.3663 68.0908 44.2388 68.0458 44.0925C67.9783 43.8525 67.9033 43.5863 67.8208 43.29C67.8133 43.275 67.8133 43.26 67.8058 43.245V43.2375C66.9883 40.35 65.5783 34.98 64.5058 30.855L64.1758 29.6813L64.262 29.625Z"
          fill="#0C2934"/>
    <path d="M61.4013 31.5864L57.8875 44.9214L57.8125 45.2064L57.865 45.2214L57.91 45.2364L57.9175 45.2214L57.94 45.1164L57.9475 45.1014L57.9925 44.9214L61.54 31.4814L61.4013 31.5864Z"
          fill="#0C2934"/>
    <path d="M61.3703 50.4355H64.9141V49.9855H61.3703V50.4355Z" fill="#FFA412"/>
    <path d="M71.9764 55.0086L72.0289 54.9973C71.5789 53.2198 71.9502 50.6136 72.1977 48.8886C72.2652 48.4086 72.3252 47.9923 72.3477 47.7073C72.4152 46.9123 71.9839 45.2211 71.0089 44.1073C70.4314 43.4511 69.7714 43.1023 69.0364 43.0686C66.7602 42.9636 66.2577 44.8986 66.2539 44.9173L66.3064 44.9286C66.3102 44.9098 66.8052 43.0161 69.0364 43.1211C69.7527 43.1548 70.4052 43.4998 70.9714 44.1411C71.9389 45.2436 72.3627 46.9161 72.2989 47.6998C72.2764 47.9848 72.2164 48.3973 72.1489 48.8773C71.8977 50.6098 71.5227 53.2198 71.9764 55.0086Z"
          fill="#3E7F63"/>
    <path d="M71.9112 50.6807C71.9112 50.6807 71.0113 50.7707 70.625 51.5544C70.6288 51.5544 71.3375 51.6519 71.9112 50.6807Z"
          fill="#3E7F63"/>
    <path d="M71.8212 51.7197C71.8212 51.7197 70.9513 51.971 70.7188 52.8147C70.7188 52.8147 71.435 52.781 71.8212 51.7197Z"
          fill="#3E7F63"/>
    <path d="M71.7886 53.0547C71.7886 53.0547 71.1324 53.4409 71.1211 54.1759C71.1174 54.1722 71.6949 53.9959 71.7886 53.0547Z"
          fill="#3E7F63"/>
    <path d="M71.8096 54.0332C71.8096 54.0332 71.2808 54.5807 71.4646 55.2932C71.4646 55.2932 71.9746 54.967 71.8096 54.0332Z"
          fill="#3E7F63"/>
    <path d="M71.9456 54.7461C71.9456 54.7461 71.7543 55.4811 72.2606 56.0136C72.2606 56.0136 72.5418 55.4811 71.9456 54.7461Z"
          fill="#3E7F63"/>
    <path d="M71.8203 54.0332C71.8203 54.0332 72.0228 54.7645 72.7278 54.9707C72.7241 54.9707 72.7053 54.3707 71.8203 54.0332Z"
          fill="#3E7F63"/>
    <path d="M71.7891 53.0547C71.7891 53.0547 71.9916 53.7859 72.6966 53.9922C72.6928 53.9922 72.6741 53.3884 71.7891 53.0547Z"
          fill="#3E7F63"/>
    <path d="M71.8438 51.7012C71.8438 51.7012 71.9225 52.4549 72.5862 52.7737C72.5825 52.7737 72.6612 52.1774 71.8438 51.7012Z"
          fill="#3E7F63"/>
    <path d="M71.9141 50.6846C71.9141 50.6846 72.0078 51.5621 72.7766 51.9296C72.7766 51.9296 72.8666 51.2358 71.9141 50.6846Z"
          fill="#3E7F63"/>
    <path d="M72.1245 49.3045C72.1245 49.3045 71.2208 49.237 70.707 49.9457C70.707 49.9457 71.3895 50.1632 72.1245 49.3045Z"
          fill="#3E7F63"/>
    <path d="M72.1224 49.3086C72.1224 49.3086 72.0624 50.1898 72.7561 50.6848C72.7561 50.6848 72.9624 50.0173 72.1224 49.3086Z"
          fill="#3E7F63"/>
    <path d="M72.3239 47.6436C72.3239 47.6436 71.4202 47.6961 71.0039 48.4648C71.0039 48.4648 71.7089 48.5923 72.3239 47.6436Z"
          fill="#3E7F63"/>
    <path d="M72.3242 47.6475C72.3242 47.6475 72.3805 48.5287 73.1342 48.9262C73.1342 48.9262 73.2505 48.2362 72.3242 47.6475Z"
          fill="#3E7F63"/>
    <path d="M72.06 46.0684C72.06 46.0684 71.2463 46.4621 71.1562 47.3321C71.1562 47.3359 71.8575 47.1784 72.06 46.0684Z"
          fill="#3E7F63"/>
    <path d="M72.0625 46.0723C72.0625 46.0723 72.4525 46.8635 73.3 46.946C73.3 46.946 73.1425 46.2635 72.0625 46.0723Z"
          fill="#3E7F63"/>
    <path d="M71.4087 44.6396C71.4087 44.6396 70.5462 45.3521 70.6925 46.4246C70.6925 46.4246 71.4875 46.0346 71.4087 44.6396Z"
          fill="#3E7F63"/>
    <path d="M71.4102 44.6434C71.4102 44.6434 72.1077 45.4797 73.1539 45.3297C73.1539 45.3297 72.7677 44.5572 71.4102 44.6434Z"
          fill="#3E7F63"/>
    <path d="M70.3142 43.4922C70.3142 43.4922 69.4667 44.4222 69.8005 45.5922C69.8005 45.5884 70.6255 45.0297 70.3142 43.4922Z"
          fill="#3E7F63"/>
    <path d="M70.3164 43.4919C70.3164 43.4919 71.2277 44.3132 72.3639 43.9794C72.3639 43.9794 71.8127 43.1807 70.3164 43.4919Z"
          fill="#3E7F63"/>
    <path d="M68.8382 43.083C68.8382 43.083 68.407 44.2643 69.157 45.2205C69.1607 45.2205 69.712 44.388 68.8382 43.083Z"
          fill="#3E7F63"/>
    <path d="M68.8438 43.0871C68.8438 43.0871 69.9988 43.4996 70.9213 42.7609C70.925 42.7609 70.1112 42.2284 68.8438 43.0871Z"
          fill="#3E7F63"/>
    <path d="M66.7266 44.0737C66.7266 44.0737 67.5253 44.7674 68.4853 44.3999C68.4816 44.3999 67.9866 43.7024 66.7266 44.0737Z"
          fill="#3E7F63"/>
    <path d="M66.7259 44.0698C66.7259 44.0698 67.3746 43.211 67.0559 42.2285C67.0559 42.2285 66.4146 42.7648 66.7259 44.0698Z"
          fill="#3E7F63"/>
    <path d="M60.345 53.1221L60.3825 53.1258C60.495 51.8321 61.3538 50.1746 61.9238 49.0796C62.0813 48.7721 62.22 48.5096 62.3025 48.3221C62.5313 47.8046 62.64 46.5746 62.2463 45.5996C62.0138 45.0258 61.6537 44.6358 61.17 44.4446C59.67 43.8408 58.8825 45.0183 58.875 45.0296L58.905 45.0483C58.9125 45.0371 59.685 43.8858 61.155 44.4746C61.6275 44.6658 61.9838 45.0483 62.2088 45.6108C62.5988 46.5746 62.49 47.7933 62.265 48.3033C62.1825 48.4871 62.0475 48.7533 61.8863 49.0571C61.32 50.1596 60.4612 51.8208 60.345 53.1221Z"
          fill="#3E7F63"/>
    <path d="M61.315 50.2125C61.315 50.2125 60.6925 50.0625 60.25 50.4975C60.25 50.4975 60.7038 50.73 61.315 50.2125Z"
          fill="#3E7F63"/>
    <path d="M61.0133 50.8872C61.0133 50.8872 60.372 50.8534 60.0195 51.3634C60.0195 51.3634 60.507 51.5059 61.0133 50.8872Z"
          fill="#3E7F63"/>
    <path d="M60.6736 51.7725C60.6736 51.7725 60.1448 51.8775 59.9648 52.365C59.9648 52.365 60.3923 52.38 60.6736 51.7725Z"
          fill="#3E7F63"/>
    <path d="M60.4664 52.4326C60.4664 52.4326 59.9864 52.6764 59.9414 53.1939C59.9414 53.1939 60.3577 53.0964 60.4664 52.4326Z"
          fill="#3E7F63"/>
    <path d="M60.3858 52.9385C60.3858 52.9385 60.0858 53.3847 60.2995 53.861C60.3033 53.861 60.6145 53.5722 60.3858 52.9385Z"
          fill="#3E7F63"/>
    <path d="M60.4696 52.4326C60.4696 52.4326 60.4321 52.9689 60.8558 53.2726C60.8558 53.2726 60.9833 52.8639 60.4696 52.4326Z"
          fill="#3E7F63"/>
    <path d="M60.6766 51.7725C60.6766 51.7725 60.6391 52.3087 61.0629 52.6125C61.0666 52.6087 61.1904 52.2037 60.6766 51.7725Z"
          fill="#3E7F63"/>
    <path d="M61.0318 50.8799C61.0318 50.8799 60.908 51.4049 61.2755 51.7724C61.2755 51.7686 61.4668 51.3899 61.0318 50.8799Z"
          fill="#3E7F63"/>
    <path d="M61.3158 50.2158C61.3158 50.2158 61.1733 50.8233 61.6008 51.2508C61.6008 51.2508 61.822 50.8083 61.3158 50.2158Z"
          fill="#3E7F63"/>
    <path d="M61.7784 49.3417C61.7784 49.3417 61.1897 49.083 60.6797 49.4392C60.6797 49.4355 61.0884 49.743 61.7784 49.3417Z"
          fill="#3E7F63"/>
    <path d="M61.7766 49.3418C61.7766 49.3418 61.5291 49.9155 61.8778 50.4105C61.8778 50.4105 62.1703 50.013 61.7766 49.3418Z"
          fill="#3E7F63"/>
    <path d="M62.3028 48.2773C62.3028 48.2773 61.6841 48.101 61.2266 48.5173C61.2266 48.5173 61.6691 48.7685 62.3028 48.2773Z"
          fill="#3E7F63"/>
    <path d="M62.2998 48.2773C62.2998 48.2773 62.131 48.8811 62.5435 49.3236C62.5435 49.3236 62.7835 48.8923 62.2998 48.2773Z"
          fill="#3E7F63"/>
    <path d="M62.4898 47.1592C62.4898 47.1592 61.8523 47.2304 61.5898 47.7929C61.5898 47.7967 62.0961 47.8567 62.4898 47.1592Z"
          fill="#3E7F63"/>
    <path d="M62.4883 47.1631C62.4883 47.1631 62.5633 47.7856 63.1145 48.0368C63.1145 48.0368 63.1708 47.5418 62.4883 47.1631Z"
          fill="#3E7F63"/>
    <path d="M62.3884 46.0537C62.3884 46.0537 61.6459 46.3275 61.4922 47.0812C61.4922 47.0775 62.1184 47.0025 62.3884 46.0537Z"
          fill="#3E7F63"/>
    <path d="M62.3867 46.0576C62.3867 46.0576 62.6605 46.7814 63.3917 46.9239C63.3955 46.9201 63.3167 46.3126 62.3867 46.0576Z"
          fill="#3E7F63"/>
    <path d="M61.9263 45.0293C61.9263 45.0293 61.1425 45.453 61.0938 46.3118C61.0938 46.3118 61.7763 46.128 61.9263 45.0293Z"
          fill="#3E7F63"/>
    <path d="M61.9258 45.0293C61.9258 45.0293 62.342 45.7905 63.182 45.8318C63.182 45.8355 63.002 45.1718 61.9258 45.0293Z"
          fill="#3E7F63"/>
    <path d="M61.0352 44.4102C61.0352 44.4102 60.469 45.1002 60.7502 45.9139C60.7502 45.9139 61.3127 45.4864 61.0352 44.4102Z"
          fill="#3E7F63"/>
    <path d="M61.0352 44.4106C61.0352 44.4106 61.7102 44.958 62.5014 44.6768C62.5052 44.6805 62.0814 44.1331 61.0352 44.4106Z"
          fill="#3E7F63"/>
    <path d="M59.3906 44.5801C59.3906 44.5801 59.7656 45.2326 60.4894 45.2101C60.4894 45.2063 60.3206 44.6251 59.3906 44.5801Z"
          fill="#3E7F63"/>
    <path d="M59.3906 44.5759C59.3906 44.5759 60.0244 44.1521 60.0431 43.4209C60.0431 43.4209 59.4881 43.6309 59.3906 44.5759Z"
          fill="#3E7F63"/>
    <path d="M65.6878 55.5784C65.6953 55.5596 66.3516 53.6734 65.6878 52.2071C65.0503 50.7934 65.3128 48.6071 65.6128 46.8559C65.8303 45.6034 65.5903 43.7059 64.9041 42.9821C64.6828 42.7496 64.4316 42.6484 64.1503 42.6821C62.8716 42.8359 62.7928 44.8909 62.7891 44.9134H62.8416C62.8416 44.8946 62.9203 42.8846 64.1541 42.7346C64.4166 42.7046 64.6528 42.7984 64.8628 43.0159C65.4028 43.5859 65.8228 45.2959 65.5566 46.8446C65.2528 48.5996 64.9903 50.8009 65.6353 52.2259C66.2916 53.6734 65.6428 55.5371 65.6353 55.5559L65.6878 55.5784Z"
          fill="#3E7F63"/>
    <path d="M65.7239 55.3799C65.7239 55.3799 65.0826 55.7886 65.0939 56.5236C65.0939 56.5236 65.6639 56.3249 65.7239 55.3799Z"
          fill="#3E7F63"/>
    <path d="M65.688 56.1035C65.688 56.1035 65.328 56.7748 65.6992 57.4085C65.6992 57.4085 66.0967 56.9548 65.688 56.1035Z"
          fill="#3E7F63"/>
    <path d="M65.7305 55.3799C65.7305 55.3799 65.7567 56.1374 66.3942 56.5049C66.3905 56.5049 66.5105 55.9161 65.7305 55.3799Z"
          fill="#3E7F63"/>
    <path d="M65.915 54.375C65.915 54.375 65.1013 54.6375 64.9062 55.44C64.9062 55.44 65.5812 55.3875 65.915 54.375Z"
          fill="#3E7F63"/>
    <path d="M65.9141 54.375C65.9141 54.375 65.9553 55.23 66.6791 55.6275C66.6791 55.6275 66.8066 54.9637 65.9141 54.375Z"
          fill="#3E7F63"/>
    <path d="M65.9358 53.2012C65.9358 53.2012 65.0283 53.6737 64.957 54.6599C64.9533 54.6637 65.7408 54.4649 65.9358 53.2012Z"
          fill="#3E7F63"/>
    <path d="M65.9375 53.2012C65.9375 53.2012 66.1587 54.2024 67.0925 54.5287C67.0925 54.5287 67.1038 53.7187 65.9375 53.2012Z"
          fill="#3E7F63"/>
    <path d="M65.5857 51.9971C65.5857 51.9971 64.5657 52.7171 64.6407 53.9171C64.6407 53.9208 65.5594 53.5533 65.5857 51.9971Z"
          fill="#3E7F63"/>
    <path d="M65.5859 51.9971C65.5859 51.9971 66.0134 53.1671 67.1947 53.4108C67.1947 53.4108 67.0822 52.4283 65.5859 51.9971Z"
          fill="#3E7F63"/>
    <path d="M65.2819 50.4902C65.2819 50.4902 64.4232 51.349 64.6932 52.4927C64.6894 52.4965 65.5107 51.9902 65.2819 50.4902Z"
          fill="#3E7F63"/>
    <path d="M65.2812 50.4902C65.2812 50.4902 65.8888 51.544 67.0625 51.5815C67.0625 51.5815 66.785 50.659 65.2812 50.4902Z"
          fill="#3E7F63"/>
    <path d="M62.9844 43.9652C62.9844 43.9652 63.8994 44.404 64.7244 43.8715C64.7244 43.8715 64.0981 43.3652 62.9844 43.9652Z"
          fill="#3E7F63"/>
    <path d="M62.9861 43.9616C62.9861 43.9616 63.4061 43.0654 62.8848 42.2666C62.8848 42.2704 62.3973 42.8816 62.9861 43.9616Z"
          fill="#3E7F63"/>
    <path d="M63.8555 42.8027C63.8555 42.8027 64.148 43.534 64.988 43.6465C64.9842 43.6465 64.913 43.0277 63.8555 42.8027Z"
          fill="#3E7F63"/>
    <path d="M64.2109 42.7088C64.2109 42.7088 65.0809 42.825 65.6172 42.1688C65.6172 42.1688 64.9647 41.9175 64.2109 42.7088Z"
          fill="#3E7F63"/>
    <path d="M65.4575 47.8574C65.4575 47.8574 64.3363 48.3299 64.1563 49.4887C64.1525 49.4887 65.105 49.3312 65.4575 47.8574Z"
          fill="#3E7F63"/>
    <path d="M65.457 47.8574C65.457 47.8574 65.6183 49.0612 66.6945 49.5412C66.6945 49.5412 66.7883 48.5812 65.457 47.8574Z"
          fill="#3E7F63"/>
    <path d="M65.6734 46.3916C65.6734 46.3916 64.3872 46.7404 64.0234 47.9779C64.0234 47.9779 65.0772 47.9441 65.6734 46.3916Z"
          fill="#3E7F63"/>
    <path d="M65.6719 46.3916C65.6719 46.3916 65.6756 47.7229 66.7706 48.3979C66.7744 48.4016 67.0144 47.3704 65.6719 46.3916Z"
          fill="#3E7F63"/>
    <path d="M65.6202 44.8311C65.6202 44.8311 64.3902 45.3486 64.1914 46.6198C64.1914 46.6198 65.2339 46.4473 65.6202 44.8311Z"
          fill="#3E7F63"/>
    <path d="M65.6211 44.8311C65.6211 44.8311 65.8011 46.1511 66.9748 46.6761C66.9748 46.6761 67.0798 45.6261 65.6211 44.8311Z"
          fill="#3E7F63"/>
    <path d="M65.277 43.6465C65.277 43.6465 64.2083 44.4415 64.3208 45.724C64.3208 45.7277 65.292 45.3115 65.277 43.6465Z"
          fill="#3E7F63"/>
    <path d="M65.2773 43.6465C65.2773 43.6465 65.7686 44.8877 67.0361 45.1127C67.0361 45.1127 66.8861 44.0665 65.2773 43.6465Z"
          fill="#3E7F63"/>
    <path d="M102.797 47.7148C102.797 50.5873 100.468 52.9161 97.5958 52.9161C94.7233 52.9161 92.3945 50.5873 92.3945 47.7148H102.797Z"
          fill="#F7CB78"/>
    <path d="M102.907 47.8352H92.2867C92.2042 47.8352 92.1367 47.7677 92.1367 47.6852C92.1367 47.6027 92.2042 47.5352 92.2867 47.5352H102.907C102.989 47.5352 103.057 47.6027 103.057 47.6852C103.057 47.7677 102.989 47.8352 102.907 47.8352Z"
          fill="#FFA412"/>
    <path d="M96.52 32.0586C95.455 36.1836 93.6438 42.9448 92.8338 45.8173C92.8263 45.8323 92.8262 45.8548 92.8187 45.8698C92.7212 46.2036 92.6387 46.5036 92.5637 46.7623C92.5262 46.8748 92.4963 46.9723 92.4663 47.0736V47.0811C92.4138 47.2611 92.3613 47.4148 92.3238 47.5348C92.2788 47.6773 92.2412 47.7673 92.2188 47.8086L92.2562 47.8311L92.3088 47.8686C92.3088 47.8611 92.3163 47.8461 92.3238 47.8386C92.3463 47.7861 92.3838 47.6811 92.4288 47.5348C92.4738 47.4223 92.5188 47.2686 92.5713 47.0961C92.6088 46.9761 92.6463 46.8486 92.6913 46.7023C92.7588 46.4623 92.8338 46.1961 92.9163 45.8998C92.9238 45.8848 92.9237 45.8698 92.9312 45.8548V45.8473C93.7487 42.9598 95.1587 37.5898 96.2312 33.4648L96.6062 32.1111L96.52 32.0586Z"
          fill="#0C2934"/>
    <path d="M99.3381 34.1997L102.852 47.531L102.927 47.8197L102.874 47.8347L102.829 47.8497L102.822 47.8347L102.799 47.7297L102.792 47.7147L102.747 47.531L99.2031 34.0947L99.3381 34.1997Z"
          fill="#0C2934"/>
    <path d="M99.3719 52.5977H95.8281V53.0477H99.3719V52.5977Z" fill="#FFA412"/>
    <path d="M88.7648 57.6228L88.7123 57.6116C89.1623 55.8341 88.7911 53.2278 88.5436 51.5028C88.4761 51.0228 88.4161 50.6066 88.3936 50.3216C88.3261 49.5266 88.7573 47.8353 89.7323 46.7216C90.3098 46.0653 90.9698 45.7166 91.7048 45.6828C93.9811 45.5778 94.4836 47.5128 94.4873 47.5316L94.4348 47.5428C94.4311 47.5241 93.9361 45.6303 91.7048 45.7353C90.9886 45.7691 90.3361 46.1141 89.7698 46.7553C88.8023 47.8578 88.3786 49.5303 88.4423 50.3141C88.4648 50.5991 88.5248 51.0116 88.5923 51.4916C88.8473 53.2203 89.2186 55.8341 88.7648 57.6228Z"
          fill="#3E7F63"/>
    <path d="M88.8281 53.2949C88.8281 53.2949 89.7281 53.3849 90.1144 54.1687C90.1106 54.1687 89.4019 54.2662 88.8281 53.2949Z"
          fill="#3E7F63"/>
    <path d="M88.918 54.334C88.918 54.334 89.788 54.5852 90.0205 55.429C90.0205 55.429 89.3042 55.3952 88.918 54.334Z"
          fill="#3E7F63"/>
    <path d="M88.957 55.665C88.957 55.665 89.6133 56.0513 89.6245 56.7863C89.6245 56.7863 89.0508 56.61 88.957 55.665Z"
          fill="#3E7F63"/>
    <path d="M88.9301 56.6475C88.9301 56.6475 89.4589 57.195 89.2751 57.9075C89.2751 57.9037 88.7689 57.5812 88.9301 56.6475Z"
          fill="#3E7F63"/>
    <path d="M88.7953 57.3604C88.7953 57.3604 88.9866 58.0954 88.4803 58.6279C88.4803 58.6241 88.1991 58.0916 88.7953 57.3604Z"
          fill="#3E7F63"/>
    <path d="M88.927 56.6475C88.927 56.6475 88.7245 57.3787 88.0195 57.585C88.0195 57.585 88.0383 56.9812 88.927 56.6475Z"
          fill="#3E7F63"/>
    <path d="M88.9583 55.665C88.9583 55.665 88.7558 56.3963 88.0508 56.6025C88.0508 56.6063 88.0695 56.0025 88.9583 55.665Z"
          fill="#3E7F63"/>
    <path d="M88.8954 54.3115C88.8954 54.3115 88.8167 55.0653 88.1529 55.384C88.1567 55.3878 88.0779 54.7878 88.8954 54.3115Z"
          fill="#3E7F63"/>
    <path d="M88.8296 53.2988C88.8296 53.2988 88.7359 54.1763 87.9671 54.5438C87.9671 54.5438 87.8771 53.8501 88.8296 53.2988Z"
          fill="#3E7F63"/>
    <path d="M88.6172 51.9187C88.6172 51.9187 89.5209 51.8512 90.0347 52.56C90.0347 52.5562 89.3522 52.7775 88.6172 51.9187Z"
          fill="#3E7F63"/>
    <path d="M88.6193 51.9229C88.6193 51.9229 88.6793 52.8041 87.9855 53.2991C87.9893 53.2991 87.7793 52.6316 88.6193 51.9229Z"
          fill="#3E7F63"/>
    <path d="M88.418 50.2578C88.418 50.2578 89.3217 50.3103 89.738 51.0791C89.738 51.0791 89.033 51.2066 88.418 50.2578Z"
          fill="#3E7F63"/>
    <path d="M88.4162 50.2617C88.4162 50.2617 88.36 51.143 87.6062 51.5405C87.6062 51.5405 87.49 50.8505 88.4162 50.2617Z"
          fill="#3E7F63"/>
    <path d="M88.6836 48.6826C88.6836 48.6826 89.4973 49.0764 89.5873 49.9464C89.5873 49.9464 88.8861 49.7926 88.6836 48.6826Z"
          fill="#3E7F63"/>
    <path d="M88.6829 48.6865C88.6829 48.6865 88.2929 49.4778 87.4454 49.5603C87.4416 49.5565 87.5991 48.8778 88.6829 48.6865Z"
          fill="#3E7F63"/>
    <path d="M89.3297 47.2549C89.3297 47.2549 90.1922 47.9674 90.046 49.0399C90.046 49.0399 89.251 48.6499 89.3297 47.2549Z"
          fill="#3E7F63"/>
    <path d="M89.3297 47.2582C89.3297 47.2582 88.6322 48.0945 87.5859 47.9445C87.5859 47.9445 87.9722 47.1682 89.3297 47.2582Z"
          fill="#3E7F63"/>
    <path d="M90.4256 46.1025C90.4256 46.1025 91.2731 47.0325 90.9394 48.2025C90.9394 48.2025 90.1144 47.64 90.4256 46.1025Z"
          fill="#3E7F63"/>
    <path d="M90.4225 46.1062C90.4225 46.1062 89.5113 46.9274 88.375 46.5937C88.375 46.5937 88.9263 45.7949 90.4225 46.1062Z"
          fill="#3E7F63"/>
    <path d="M91.9063 45.6982C91.9063 45.6982 92.3375 46.8795 91.5875 47.8357C91.5838 47.8357 91.0363 47.0032 91.9063 45.6982Z"
          fill="#3E7F63"/>
    <path d="M91.9017 45.6979C91.9017 45.6979 90.7467 46.1104 89.8242 45.3716C89.8205 45.3716 90.6342 44.8429 91.9017 45.6979Z"
          fill="#3E7F63"/>
    <path d="M94.0205 46.6874C94.0205 46.6874 93.2217 47.3811 92.2617 47.0136C92.2617 47.0099 92.7567 46.3161 94.0205 46.6874Z"
          fill="#3E7F63"/>
    <path d="M94.0158 46.684C94.0158 46.684 93.367 45.8253 93.6858 44.8428C93.6858 44.8428 94.327 45.379 94.0158 46.684Z"
          fill="#3E7F63"/>
    <path d="M100.394 55.7364L100.356 55.7401C100.244 54.4464 99.3849 52.7889 98.8149 51.6939C98.6574 51.3864 98.5187 51.1239 98.4362 50.9364C98.2074 50.4189 98.0987 49.1888 98.4924 48.2138C98.7249 47.6401 99.0849 47.2501 99.5687 47.0589C101.069 46.4551 101.856 47.6326 101.864 47.6439L101.834 47.6626C101.826 47.6514 101.05 46.5001 99.5837 47.0888C99.1112 47.2801 98.7549 47.6626 98.5299 48.2251C98.1399 49.1889 98.2487 50.4076 98.4737 50.9176C98.5562 51.1014 98.6912 51.3676 98.8524 51.6714C99.4187 52.7739 100.277 54.4314 100.394 55.7364Z"
          fill="#3E7F63"/>
    <path d="M99.4219 52.8267C99.4219 52.8267 100.044 52.6767 100.487 53.1117C100.487 53.1117 100.033 53.3442 99.4219 52.8267Z"
          fill="#3E7F63"/>
    <path d="M99.7266 53.5014C99.7266 53.5014 100.368 53.4677 100.72 53.9777C100.72 53.9739 100.233 54.1202 99.7266 53.5014Z"
          fill="#3E7F63"/>
    <path d="M100.062 54.3828C100.062 54.3828 100.591 54.4878 100.771 54.9753C100.771 54.9753 100.344 54.9941 100.062 54.3828Z"
          fill="#3E7F63"/>
    <path d="M100.273 55.0469C100.273 55.0469 100.753 55.2906 100.798 55.8081C100.798 55.8081 100.386 55.7069 100.273 55.0469Z"
          fill="#3E7F63"/>
    <path d="M100.353 55.5527C100.353 55.5527 100.653 55.999 100.439 56.4752C100.439 56.4752 100.124 56.1827 100.353 55.5527Z"
          fill="#3E7F63"/>
    <path d="M100.267 55.0469C100.267 55.0469 100.305 55.5831 99.8812 55.8869C99.8812 55.8869 99.7537 55.4781 100.267 55.0469Z"
          fill="#3E7F63"/>
    <path d="M100.062 54.3828C100.062 54.3828 100.1 54.9191 99.6759 55.2228C99.6721 55.2228 99.5483 54.8141 100.062 54.3828Z"
          fill="#3E7F63"/>
    <path d="M99.7075 53.4902C99.7075 53.4902 99.8312 54.0152 99.4637 54.3827C99.4637 54.3827 99.2725 54.0002 99.7075 53.4902Z"
          fill="#3E7F63"/>
    <path d="M99.423 52.8262C99.423 52.8262 99.5655 53.4337 99.138 53.8612C99.138 53.8649 98.9167 53.4187 99.423 52.8262Z"
          fill="#3E7F63"/>
    <path d="M98.9609 51.9531C98.9609 51.9531 99.5497 51.6943 100.06 52.0506C100.06 52.0506 99.6547 52.3581 98.9609 51.9531Z"
          fill="#3E7F63"/>
    <path d="M98.9624 51.9561C98.9624 51.9561 99.2099 52.5298 98.8611 53.0248C98.8574 53.0248 98.5649 52.6273 98.9624 51.9561Z"
          fill="#3E7F63"/>
    <path d="M98.4375 50.8915C98.4375 50.8915 99.0562 50.7153 99.5137 51.1316C99.51 51.1316 99.0675 51.379 98.4375 50.8915Z"
          fill="#3E7F63"/>
    <path d="M98.44 50.8916C98.44 50.8916 98.6088 51.4954 98.1963 51.9379C98.1963 51.9379 97.9563 51.5029 98.44 50.8916Z"
          fill="#3E7F63"/>
    <path d="M98.2461 49.7734C98.2461 49.7734 98.8836 49.8447 99.1461 50.4072C99.1461 50.4072 98.6398 50.4709 98.2461 49.7734Z"
          fill="#3E7F63"/>
    <path d="M98.2485 49.7773C98.2485 49.7773 98.1735 50.3998 97.6222 50.6511C97.6222 50.6511 97.566 50.1561 98.2485 49.7773Z"
          fill="#3E7F63"/>
    <path d="M98.3477 48.668C98.3477 48.668 99.0902 48.9417 99.2439 49.6955C99.2439 49.6917 98.6177 49.6167 98.3477 48.668Z"
          fill="#3E7F63"/>
    <path d="M98.3488 48.668C98.3488 48.668 98.075 49.3917 97.3438 49.5342C97.3438 49.5342 97.4188 48.9267 98.3488 48.668Z"
          fill="#3E7F63"/>
    <path d="M98.8125 47.6406C98.8125 47.6406 99.5962 48.0644 99.645 48.9231C99.6487 48.9269 98.9625 48.7431 98.8125 47.6406Z"
          fill="#3E7F63"/>
    <path d="M98.8109 47.6445C98.8109 47.6445 98.3947 48.4058 97.5547 48.447C97.5547 48.447 97.7347 47.7833 98.8109 47.6445Z"
          fill="#3E7F63"/>
    <path d="M99.7019 47.0244C99.7019 47.0244 100.268 47.7144 99.9869 48.5282C99.9869 48.5282 99.4244 48.1007 99.7019 47.0244Z"
          fill="#3E7F63"/>
    <path d="M99.7007 47.0248C99.7007 47.0248 99.0256 47.5723 98.2344 47.2911C98.2306 47.2948 98.6544 46.7473 99.7007 47.0248Z"
          fill="#3E7F63"/>
    <path d="M101.349 47.1904C101.349 47.1904 100.974 47.8429 100.25 47.8204C100.25 47.8204 100.419 47.2392 101.349 47.1904Z"
          fill="#3E7F63"/>
    <path d="M101.348 47.1902C101.348 47.1902 100.714 46.7664 100.695 46.0352C100.695 46.0352 101.25 46.2452 101.348 47.1902Z"
          fill="#3E7F63"/>
    <path d="M95.0545 58.1916C95.047 58.1729 94.3907 56.2866 95.0545 54.8204C95.692 53.4066 95.4295 51.2204 95.1295 49.4691C94.912 48.2166 95.152 46.3191 95.8382 45.5954C96.0595 45.3629 96.3107 45.2616 96.592 45.2954C97.8707 45.4491 97.9495 47.5041 97.9532 47.5266H97.9007C97.9007 47.5079 97.822 45.4979 96.5882 45.3479C96.3257 45.3179 96.0895 45.4116 95.8795 45.6291C95.3395 46.1991 94.9195 47.9091 95.1857 49.4579C95.4895 51.2129 95.752 53.4141 95.107 54.8391C94.4507 56.2866 95.0995 58.1504 95.107 58.1691L95.0545 58.1916Z"
          fill="#3E7F63"/>
    <path d="M95.0195 57.9932C95.0195 57.9932 95.6608 58.4019 95.6495 59.1369C95.6495 59.1332 95.0795 58.9382 95.0195 57.9932Z"
          fill="#3E7F63"/>
    <path d="M95.0557 58.7168C95.0557 58.7168 95.4157 59.388 95.0445 60.0218C95.0445 60.018 94.647 59.568 95.0557 58.7168Z"
          fill="#3E7F63"/>
    <path d="M95.0141 57.9932C95.0141 57.9932 94.9878 58.7507 94.3503 59.1182C94.3503 59.1182 94.2303 58.5257 95.0141 57.9932Z"
          fill="#3E7F63"/>
    <path d="M94.8242 56.9883C94.8242 56.9883 95.638 57.2508 95.833 58.0533C95.833 58.0533 95.158 58.0008 94.8242 56.9883Z"
          fill="#3E7F63"/>
    <path d="M94.8256 56.9883C94.8256 56.9883 94.7843 57.8433 94.0606 58.2408C94.0606 58.2408 93.9368 57.5733 94.8256 56.9883Z"
          fill="#3E7F63"/>
    <path d="M94.8047 55.8145C94.8047 55.8145 95.7122 56.287 95.7834 57.2732C95.7872 57.277 94.9997 57.0782 94.8047 55.8145Z"
          fill="#3E7F63"/>
    <path d="M94.8034 55.8145C94.8034 55.8145 94.5822 56.8157 93.6484 57.142C93.6484 57.142 93.6372 56.3282 94.8034 55.8145Z"
          fill="#3E7F63"/>
    <path d="M95.1562 54.6104C95.1562 54.6104 96.1762 55.3303 96.1012 56.5303C96.1012 56.5303 95.1825 56.1666 95.1562 54.6104Z"
          fill="#3E7F63"/>
    <path d="M95.1556 54.6104C95.1556 54.6104 94.7281 55.7803 93.5469 56.0241C93.5469 56.0241 93.6594 55.0416 95.1556 54.6104Z"
          fill="#3E7F63"/>
    <path d="M95.4633 53.1035C95.4633 53.1035 96.3221 53.9623 96.0521 55.106C96.0521 55.106 95.2308 54.6035 95.4633 53.1035Z"
          fill="#3E7F63"/>
    <path d="M95.4648 53.1035C95.4648 53.1035 94.8573 54.1573 93.6836 54.1948C93.6836 54.1948 93.9573 53.2685 95.4648 53.1035Z"
          fill="#3E7F63"/>
    <path d="M97.7556 46.5785C97.7556 46.5785 96.8406 47.0173 96.0156 46.4848C96.0156 46.4848 96.6419 45.9785 97.7556 46.5785Z"
          fill="#3E7F63"/>
    <path d="M97.7537 46.5749C97.7537 46.5749 97.3337 45.6786 97.8549 44.8799C97.8549 44.8799 98.3462 45.4949 97.7537 46.5749Z"
          fill="#3E7F63"/>
    <path d="M96.8825 45.416C96.8825 45.416 96.59 46.1473 95.75 46.2598C95.7538 46.2598 95.825 45.6373 96.8825 45.416Z"
          fill="#3E7F63"/>
    <path d="M96.5312 45.322C96.5312 45.322 95.6613 45.4383 95.125 44.782C95.125 44.782 95.7738 44.5308 96.5312 45.322Z"
          fill="#3E7F63"/>
    <path d="M95.2812 50.4707C95.2812 50.4707 96.4025 50.9432 96.5825 52.102C96.5863 52.102 95.6337 51.9445 95.2812 50.4707Z"
          fill="#3E7F63"/>
    <path d="M95.2819 50.4707C95.2819 50.4707 95.1206 51.6745 94.0444 52.1545C94.0444 52.1507 93.9506 51.1945 95.2819 50.4707Z"
          fill="#3E7F63"/>
    <path d="M95.0664 49.0049C95.0664 49.0049 96.3527 49.3536 96.7164 50.5911C96.7164 50.5911 95.6627 50.5574 95.0664 49.0049Z"
          fill="#3E7F63"/>
    <path d="M95.0653 49.0049C95.0653 49.0049 95.0615 50.3361 93.9665 51.0111C93.9665 51.0111 93.7228 49.9836 95.0653 49.0049Z"
          fill="#3E7F63"/>
    <path d="M95.125 47.4443C95.125 47.4443 96.355 47.9618 96.5538 49.2331C96.55 49.2331 95.5075 49.0606 95.125 47.4443Z"
          fill="#3E7F63"/>
    <path d="M95.1262 47.4443C95.1262 47.4443 94.9462 48.7643 93.7725 49.2893C93.7687 49.2893 93.6637 48.2393 95.1262 47.4443Z"
          fill="#3E7F63"/>
    <path d="M95.4611 46.2598C95.4611 46.2598 96.5299 47.0548 96.4174 48.3373C96.4174 48.341 95.4461 47.921 95.4611 46.2598Z"
          fill="#3E7F63"/>
    <path d="M95.4619 46.2598C95.4619 46.2598 94.9706 47.501 93.7031 47.726C93.7031 47.726 93.8531 46.6798 95.4619 46.2598Z"
          fill="#3E7F63"/>
    <path d="M28.3884 54.7686C28.3884 56.1823 27.2447 57.3261 25.8309 57.3261C24.4172 57.3261 23.2734 56.1823 23.2734 54.7686H28.3884Z"
          fill="#E1F1E3"/>
    <path d="M28.4395 54.8287H23.2195C23.1783 54.8287 23.1445 54.795 23.1445 54.7537C23.1445 54.7125 23.1783 54.6787 23.2195 54.6787H28.4395C28.4808 54.6787 28.5145 54.7125 28.5145 54.7537C28.5145 54.795 28.4808 54.8287 28.4395 54.8287Z"
          fill="#E1F1E3"/>
    <path d="M26.7047 57.1689H24.9609V57.3902H26.7047V57.1689Z" fill="#E1F1E3"/>
    <path d="M24.633 54.6792C24.633 54.6792 23.763 52.4142 23.4292 52.2529C23.0955 52.0917 22.3267 51.8142 21.7005 52.1854C21.0742 52.5567 20.6992 53.4529 20.6992 53.4529C20.6992 53.4529 21.153 53.6367 22.188 53.3742C23.2192 53.1117 23.3917 52.4929 23.4817 52.5567C23.5717 52.6167 24.483 54.6792 24.483 54.6792H24.633Z"
          fill="#E1F1E3"/>
    <path d="M27.1836 54.6788C27.1836 54.6788 27.3598 51.42 28.3048 50.9775C29.2498 50.5388 30.0336 51.1425 30.1798 51.7313C30.3298 52.32 30.2886 53.6513 30.5023 54.0638C30.5023 54.0638 29.0998 53.9625 28.9648 52.9725C28.8298 51.9825 28.3161 51.2438 28.1961 51.3075C28.0761 51.3713 27.3861 52.3538 27.3598 54.675L27.1836 54.6788Z"
          fill="#E1F1E3"/>
    <path d="M25.4573 54.679C25.4573 54.679 24.9173 50.749 24.0135 50.1865C23.1098 49.624 21.5835 49.624 21.531 49.624C21.4785 49.624 21.9885 50.4603 22.8923 51.0453C23.796 51.6303 24.5798 51.529 24.6323 51.6565C25.1273 52.879 25.2398 54.679 25.2398 54.679H25.4573Z"
          fill="#E1F1E3"/>
    <path d="M25.8297 54.6795C25.8297 54.6795 25.8072 52.152 25.1884 51.972C24.5659 51.792 23.6584 52.4857 23.4934 53.3745C23.4934 53.3745 23.3472 53.9632 23.1484 54.1732C23.1484 54.1732 23.5984 54.3682 24.0709 54.2745C24.5434 54.1807 24.9409 53.6482 24.9672 53.187C24.9934 52.7295 25.1697 52.1107 25.2522 52.1482C25.3347 52.1857 25.4472 52.4145 25.5297 52.7857C25.6122 53.157 25.6722 54.672 25.6722 54.672H25.8297V54.6795Z"
          fill="#E1F1E3"/>
    <path d="M26.1714 54.6787C26.1714 54.6787 25.8076 51.7537 25.9951 51.1199C26.1826 50.4862 27.1014 49.9462 27.7764 49.9199C27.7764 49.9199 27.7089 50.7299 27.5326 51.2437C27.3564 51.7574 26.1714 51.8737 26.1414 52.1137C26.1151 52.3499 26.3101 54.6824 26.3101 54.6824L26.1714 54.6787Z"
          fill="#E1F1E3"/>
    <path d="M26.598 54.6795C26.598 54.6795 26.4217 53.6707 26.448 53.427C26.4742 53.1832 26.7405 52.7782 26.9505 52.6582C26.9505 52.6582 26.9355 53.2207 27.033 53.4495C27.1305 53.6782 26.598 54.1695 26.6092 54.237C26.6205 54.3082 26.6917 54.6795 26.6917 54.6795H26.598Z"
          fill="#E1F1E3"/>
    <path d="M79.8397 40.8408C79.8434 40.7283 81.2159 41.5871 81.7222 42.5021C82.5434 43.9796 81.8909 45.7233 81.2609 45.5583C80.8597 45.4533 80.7434 46.1396 80.7434 46.1396L76.8359 42.9746C76.8397 42.9746 78.2722 40.0046 79.8397 40.8408Z"
          fill="#0C2934"/>
    <path d="M70.2514 58.2669C70.2514 58.2669 69.4751 58.1169 69.2989 58.2669C69.1226 58.4169 68.2826 59.2719 68.4626 59.5531C68.6426 59.8344 69.5051 59.3206 69.6851 59.2719C69.8651 59.2231 70.3639 59.0281 70.3639 59.0281L70.2514 58.2669Z"
          fill="#F3C9B2"/>
    <path d="M78.4805 85.6418L79.3092 85.9493C79.3092 85.9493 82.913 80.9468 83.3592 76.548C83.438 75.7643 83.4117 75.003 83.2392 74.298C83.2392 74.298 83.273 74.0955 83.3367 73.7393C83.3667 73.5743 83.4005 73.3718 83.4417 73.143C83.558 72.4718 83.7192 71.553 83.903 70.5068C84.3267 68.0993 84.878 65.0205 85.3055 62.7593L85.0805 62.688L82.6617 61.908L82.163 60.318L80.3592 59.8418C80.3592 59.8418 79.958 60.6293 79.598 64.3493C79.5305 64.8368 79.4705 65.3768 79.4255 65.958C79.2867 67.7393 79.2755 69.948 79.598 72.4755C79.6805 73.1205 79.7855 73.788 79.913 74.4743C80.0067 74.9768 80.0217 75.663 79.9805 76.4505C79.8005 80.0543 78.4805 85.6418 78.4805 85.6418Z"
          fill="#3E7F63"/>
    <path d="M79.4219 65.9659L83.3369 73.7471C83.3669 73.5821 83.4006 73.3796 83.4419 73.1509C83.5581 72.4796 83.7194 71.5609 83.9031 70.5146C84.3269 68.1071 84.8781 65.0284 85.3056 62.7671L85.0806 62.6959L82.6619 61.9159L82.1631 60.3259L80.3594 59.8496C80.3594 59.8496 79.9581 60.6371 79.5981 64.3571C79.5269 64.8446 79.4669 65.3846 79.4219 65.9659Z"
          fill="#2A5E4D"/>
    <path d="M81.1445 60.8475L81.2345 60.0713C82.7533 60.4763 86.807 58.9463 86.807 58.9463C86.807 58.9463 88.277 60.24 88.0858 63.3375C87.992 64.8488 87.8195 71.2763 87.6395 73.1775C87.5758 73.8675 87.5195 74.3588 87.4933 74.5538C87.4933 74.5538 87.4933 74.5538 87.4933 74.5575C87.4858 74.6175 87.5083 74.6738 87.5383 74.7263C87.8045 75.1763 88.022 75.6413 88.202 76.1213C89.9645 80.8238 87.932 86.6138 87.932 86.6138L87.4033 86.4C87.4033 86.4 86.2445 79.9575 85.3033 77.1113C85.142 76.6275 84.992 76.2488 84.8495 76.0238C84.4408 75.3638 84.062 74.2838 83.717 73.0013C83.0645 70.575 82.5395 67.4175 82.1908 64.98C82.142 64.9688 81.1445 60.8475 81.1445 60.8475Z"
          fill="#3E7F63"/>
    <path d="M70.25 58.2675L70.3625 59.0288C70.3625 59.0288 70.4112 59.0288 70.5012 59.0213C70.7787 59.0025 71.45 58.965 72.2112 58.8825C73.355 58.77 74.7125 58.5675 75.2525 58.2338C76.0738 57.7313 77.4275 56.1938 78.305 54.6525C78.3312 54.615 78.35 54.5775 78.3687 54.54C78.8262 53.7225 79.1488 52.9125 79.1713 52.2675C79.19 51.87 79.145 51.5325 79.0662 51.2363C78.9612 50.8463 78.785 50.5388 78.6013 50.3063C78.575 50.2688 78.5525 50.2313 78.515 50.2013C78.215 49.845 77.9187 49.6913 77.9187 49.6913C77.7687 49.6275 77.6037 49.7025 77.435 49.8863V49.8938C77.2962 50.04 77.1462 50.2575 77 50.535C76.9925 50.5425 76.9888 50.5463 76.9888 50.5538C76.9588 50.61 76.925 50.6738 76.8875 50.7413C76.8762 50.7525 76.8687 50.7713 76.8612 50.7863C76.7937 50.9325 76.7225 51.0825 76.655 51.24C75.8825 52.9238 75.0575 55.4738 74.375 56.235C74.0788 56.5613 72.7288 57.2025 71.6562 57.6788C70.8763 58.0163 70.25 58.2675 70.25 58.2675Z"
          fill="#F3C9B2"/>
    <path d="M78.2461 51.4237C78.7223 51.645 79.2998 51.795 79.9936 51.8325C82.6036 51.975 83.1961 49.6875 83.3011 48.1687C82.9261 48.0337 82.5961 48.045 82.4048 48.0562C82.2211 48.0675 82.0261 48.0862 81.8686 48.105C81.5498 47.94 80.9761 47.13 80.6461 45.7725L80.5336 45.825L78.6511 46.71C78.6511 46.71 78.8498 47.3212 78.9998 47.91C79.1161 48.3675 79.1986 48.8137 79.1273 48.9375C78.9773 48.9975 78.8911 49.035 78.8911 49.035C78.8911 49.035 78.8911 49.035 78.8911 49.0387C78.8723 49.0875 78.4598 50.13 78.2461 51.4237Z"
          fill="#F3C9B2"/>
    <path d="M77.5923 53.1375C77.6111 53.19 77.6336 53.2388 77.6561 53.2913C78.3161 54.7163 79.5386 60.6113 79.5386 60.6113C79.3661 61.6725 87.5036 60.405 87.5261 59.4375C87.8111 58.4138 86.5098 56.7713 85.7748 55.9463C85.6811 55.8413 85.5986 55.7325 85.5273 55.6125C85.3473 55.32 85.2311 54.9863 85.1936 54.6375C85.0473 53.2688 85.1036 51.9863 85.0923 51.2063C84.9498 51.1013 84.8111 51 84.6798 50.9063C84.4811 50.7638 84.3086 50.6288 84.1773 50.49C84.0348 50.34 83.9486 50.19 83.9373 50.0175C83.9298 49.8863 83.9336 49.755 83.9486 49.62C83.9561 49.5563 83.9636 49.4925 83.9711 49.4325C84.0723 48.7688 84.3498 48.1688 84.3498 48.1688C83.6486 47.8838 82.4036 48.0525 82.4036 48.0525C82.4036 48.0525 82.4036 48.12 82.4073 48.2363C82.4111 48.69 82.4073 49.86 82.2611 50.0813C82.0773 50.355 78.7436 51.5625 78.5673 51.1875C78.3948 50.82 78.8673 49.0988 78.8861 49.035V49.0313C77.7686 49.47 77.3711 49.8375 77.3711 49.8375C78.0461 50.28 77.0711 51.7575 77.5923 53.1375Z"
          fill="#FFA412"/>
    <path d="M78.6523 46.7131C78.6523 46.7131 78.8511 47.3244 79.0011 47.9131C80.0998 47.6056 80.4374 46.4506 80.5349 45.8281L78.6523 46.7131Z"
          fill="#EABA9F"/>
    <path d="M78.4184 47.3618C78.4184 47.3618 81.0509 46.7543 80.6459 45.1193C80.2409 43.4843 80.3084 42.3068 78.6097 42.6255C76.9109 42.9443 76.7422 43.6493 76.7422 44.2268C76.7497 44.808 77.7247 47.478 78.4184 47.3618Z"
          fill="#F3C9B2"/>
    <path d="M76.5973 43.3012C76.8785 42.7087 77.2123 42.7425 77.4223 42.8475C78.6598 41.7037 79.871 42.6375 79.871 42.6375C80.3398 43.7662 81.3485 44.2275 81.3485 44.2275C81.3485 44.2275 80.9435 44.64 79.7735 44.6325C79.4135 44.6287 79.0535 44.4637 78.7273 44.2387C79.361 44.8762 80.0998 45.2625 80.0998 45.2625C78.6335 44.9812 77.6473 43.2825 77.546 43.1025C77.4223 43.2862 77.1823 43.6762 77.1635 44.0062C77.1373 44.4562 77.291 45.3262 77.0323 45.36C77.0398 45.3562 76.1735 44.19 76.5973 43.3012Z"
          fill="#0C2934"/>
    <path d="M77.3759 49.8447C77.3759 49.8447 76.7422 50.951 76.6484 51.236C76.6484 51.236 77.4697 51.206 77.8034 51.836C77.7997 51.836 77.8784 49.991 77.3759 49.8447Z"
          fill="#FFA412"/>
    <path d="M81.7338 58.6307C83.3388 58.6119 84.7001 56.9469 85.5288 55.6157C85.3488 55.3232 85.2326 54.9894 85.1951 54.6407C85.0488 53.2719 85.1051 51.9894 85.0938 51.2094C84.9513 51.1044 84.8126 51.0032 84.6813 50.9094C84.4826 50.7669 84.3101 50.6319 84.1788 50.4932C82.8663 52.7169 79.5588 58.6532 81.7338 58.6307Z"
          fill="#D5823F"/>
    <path d="M75.668 59.5045L75.8892 60.307C75.8892 60.307 76.1667 60.2583 76.6055 60.1758C76.7367 60.1495 76.8117 60.1308 76.8117 60.1308C77.1642 60.0633 77.5842 59.9658 78.0417 59.8683H78.0492C78.833 59.6808 79.7142 59.452 80.4567 59.2008C80.978 59.017 81.4317 58.8258 81.7392 58.6308C81.7692 58.612 81.7955 58.5933 81.8255 58.567C82.5605 58.0345 83.4342 56.4633 84.113 54.7795C84.2067 54.547 84.2967 54.3145 84.383 54.0895C84.698 53.2495 84.9492 52.417 85.0992 51.7008C85.193 51.2733 85.2567 50.8833 85.268 50.5645C85.2755 50.452 85.2792 50.3433 85.2755 50.2458C85.2642 48.4233 84.3567 48.172 84.3567 48.172C84.338 48.1645 84.3192 48.1608 84.293 48.1533C84.1355 48.127 83.9742 48.2358 83.8017 48.442C83.588 48.7008 83.363 49.1208 83.1305 49.6308C82.7742 50.4408 82.3955 51.4908 82.043 52.5333C81.848 53.1033 81.6605 53.677 81.473 54.2058C81.368 54.5245 81.2592 54.8283 81.158 55.1058C80.963 55.6345 80.7867 56.062 80.6292 56.332C80.528 56.5083 80.2392 56.752 79.8567 57.0295C79.1892 57.5133 78.218 58.0983 77.3705 58.5745C77.018 58.777 76.6842 58.957 76.4105 59.107C75.9642 59.347 75.668 59.5045 75.668 59.5045Z"
          fill="#F3C9B2"/>
    <path d="M83.1328 49.6304C84.3441 49.2966 85.2741 50.2416 85.2741 50.2416C85.2591 48.4229 84.3553 48.1754 84.3553 48.1754C83.9878 48.0216 83.5678 48.6516 83.1328 49.6304Z"
          fill="#F99746"/>
    <path d="M84.8555 87.0375H89.0367C89.0367 87.0375 89.138 86.4 88.9167 85.9162C88.7067 85.4512 88.3805 85.2412 88.4592 84.6787C88.193 84.9525 87.7617 85.26 87.158 85.1775C87.083 85.2975 86.6817 85.9387 86.4342 86.1187C86.1605 86.3175 84.9417 86.2462 84.8555 87.0375Z"
          fill="#0C2934"/>
    <path d="M75.8789 87.0375H80.0602C80.0602 87.0375 80.2177 86.37 79.9402 85.9162C79.6964 85.515 79.7902 85.2862 79.9702 84.9525C79.7789 85.0312 79.5352 85.0987 79.2652 85.0837C79.0552 85.0725 78.8377 84.9787 78.6427 84.8662C78.4627 85.0725 77.6939 85.9462 77.4502 86.1187C77.1839 86.3175 75.9652 86.2462 75.8789 87.0375Z"
          fill="#0C2934"/>
    <path d="M75.4168 63.228L74.423 60.8055C74.2918 60.4905 73.9468 60.3255 73.6243 60.4155C73.2943 59.7968 72.8405 59.2943 72.3268 58.9418C71.7868 58.5705 71.1755 58.3643 70.5755 58.3643C70.2605 58.3643 69.9418 58.4243 69.6418 58.548C68.228 59.1255 67.5943 60.9105 68.1155 62.6655L68.0368 62.6955C68.0368 62.6955 67.7968 62.6805 67.3918 62.6805C66.113 62.6805 63.203 62.8493 61.163 64.2668C61.163 64.2668 61.0355 64.4018 61.028 64.6118C61.0243 64.6793 61.0355 64.758 61.073 64.8405C61.073 64.8405 64.3468 62.718 67.3768 64.9005C67.5643 65.0355 67.7443 65.1593 67.9205 65.2718L68.1905 65.9355C68.6405 67.0343 69.908 67.5668 71.0105 67.1168L73.7855 65.9805L74.363 65.7443C75.3455 65.3393 75.818 64.2068 75.4168 63.228ZM70.0355 61.263L68.9068 61.728C68.5993 61.8518 68.438 62.1893 68.5168 62.5005L68.3968 62.5493C67.9355 60.9518 68.498 59.343 69.758 58.8255C69.9343 58.7543 70.118 58.7055 70.3018 58.683C70.883 58.608 71.4868 58.7618 72.0305 59.103C72.548 59.4255 73.0093 59.913 73.3393 60.5243L73.1743 60.5918C73.0093 60.3143 72.6605 60.1905 72.353 60.3143L71.2205 60.7793C71.1305 60.5618 70.9243 60.4343 70.703 60.4343C70.6318 60.4343 70.5605 60.4493 70.493 60.4755L70.3355 60.5393C70.058 60.6518 69.9193 60.9818 70.0355 61.263Z"
          fill="#3E7F63"/>
    <path d="M67.9238 65.2719C67.7475 65.1556 67.5675 65.0319 67.38 64.9006C64.35 62.7219 61.0762 64.8406 61.0762 64.8406C61.0425 64.7581 61.0312 64.6794 61.0312 64.6119C61.4888 64.3081 63.21 63.3069 65.3363 63.6481C67.8375 64.0494 68.2875 64.3981 67.9238 65.2719Z"
          fill="#2A5E4D"/>
    <path d="M74.3661 65.7404L73.7886 65.9767C74.6548 65.5042 73.5823 63.5054 72.9523 62.1854C72.3261 60.8654 71.3736 61.4691 71.3736 61.4691C71.1561 61.0266 70.6911 61.0492 70.6911 61.0492C70.6648 60.6217 70.3423 60.5354 70.3423 60.5354L70.4998 60.4716C70.5673 60.4454 70.6386 60.4304 70.7098 60.4304C70.9311 60.4304 71.1411 60.5616 71.2273 60.7754L72.3598 60.3104C72.6673 60.1867 73.0161 60.3104 73.1811 60.5879L73.3461 60.5204C73.0123 59.9092 72.5511 59.4217 72.0373 59.0992C71.4936 58.7617 70.8861 58.6042 70.3086 58.6792C70.3986 58.6042 70.4961 58.5029 70.5861 58.3604C71.1861 58.3567 71.7936 58.5629 72.3373 58.9379C72.8511 59.2904 73.3048 59.7929 73.6348 60.4116C73.9573 60.3217 74.3023 60.4867 74.4336 60.8017L75.4273 63.2242C75.8211 64.2067 75.3486 65.3391 74.3661 65.7404Z"
          fill="#2A5E4D"/>
    <path d="M73.065 60.2812C73.4662 60.45 74.0325 61.0425 74.9362 60.6825C75.585 60.4312 76.2675 60.255 76.6012 60.1725C76.7325 60.1462 76.8075 60.1275 76.8075 60.1275L76.4512 59.085C76.4512 59.085 76.44 59.0925 76.4062 59.0962C76.1737 59.145 74.9925 59.3962 74.4412 59.2725C73.8187 59.1262 72.7762 59.8762 72.7762 59.8762C72.7762 59.8762 72.6637 60.12 73.065 60.2812Z"
          fill="#F3C9B2"/>
    <path d="M61.2586 65.6662C61.2586 65.5425 61.0336 65.1562 61.0336 65.1562C61.0336 65.1562 60.8086 65.5425 60.8086 65.6662C60.8086 65.79 60.9098 65.8912 61.0336 65.8912C61.1573 65.8912 61.2586 65.7937 61.2586 65.6662Z"
          fill="#E1F1E3"/>
    <path d="M61.2586 67.1399C61.2586 67.0161 61.0336 66.6299 61.0336 66.6299C61.0336 66.6299 60.8086 67.0161 60.8086 67.1399C60.8086 67.2636 60.9098 67.3649 61.0336 67.3649C61.1573 67.3649 61.2586 67.2636 61.2586 67.1399Z"
          fill="#E1F1E3"/>
    <path d="M51.8208 80.5761C51.622 80.5761 51.457 80.4149 51.457 80.2124C51.457 80.0136 51.6183 79.8486 51.8208 79.8486H72.982C73.1808 79.8486 73.3458 80.0099 73.3458 80.2124C73.3458 80.4111 73.1845 80.5761 72.982 80.5761H51.8208Z"
          fill="#2A4E96"/>
    <path d="M53.7767 87.0374H53.4805L54.5417 80.5762H55.2505L53.7767 87.0374Z" fill="#2A4E96"/>
    <path d="M70.9152 87.0374H71.2114L70.1502 80.5762H69.4414L70.9152 87.0374Z" fill="#2A4E96"/>
    <path d="M70.3272 82.3945H54.3672V82.8483H70.3272V82.3945Z" fill="#2A4E96"/>
    <path d="M66.3736 74.9805C66.3736 77.6055 64.2473 79.7317 61.6223 79.7317C58.9973 79.7317 56.8711 77.6055 56.8711 74.9805H66.3736Z"
          fill="#F7CB78"/>
    <path d="M66.4727 75.09H56.7677C56.6927 75.09 56.6289 75.03 56.6289 74.9512C56.6289 74.8762 56.6889 74.8125 56.7677 74.8125H66.4727C66.5477 74.8125 66.6114 74.8725 66.6114 74.9512C66.6077 75.03 66.5477 75.09 66.4727 75.09Z"
          fill="#FFA412"/>
    <path d="M63.3408 79.8521H59.8945L60.0033 79.4434H63.2395L63.3408 79.8521Z" fill="#FFA412"/>
    <path d="M59.3981 74.8163C59.3981 74.8163 57.7819 70.605 57.1594 70.305C56.5369 70.005 55.1081 69.4913 53.9419 70.1813C52.7756 70.8713 52.0781 72.5363 52.0781 72.5363C52.0781 72.5363 52.9256 72.8775 54.8419 72.39C56.7619 71.9025 57.0806 70.755 57.2494 70.8675C57.4181 70.98 59.1131 74.8125 59.1131 74.8125L59.3981 74.8163Z"
          fill="#3E7F63"/>
    <path d="M64.1367 74.816C64.1367 74.816 64.463 68.756 66.218 67.9385C67.973 67.121 69.428 68.246 69.7055 69.3372C69.983 70.4285 69.908 72.9072 70.3092 73.676C70.3092 73.676 67.6992 73.4847 67.4517 71.6435C67.2005 69.8022 66.248 68.4297 66.023 68.5497C65.798 68.6697 64.5192 70.496 64.4667 74.8122L64.1367 74.816Z"
          fill="#2A5E4D"/>
    <path d="M60.9297 74.8158C60.9297 74.8158 59.9247 67.5108 58.2447 66.4683C56.5647 65.4258 53.7297 65.4258 53.6284 65.4258C53.5272 65.4258 54.4797 66.9783 56.1597 68.0658C57.8397 69.1533 59.2984 68.962 59.3959 69.202C60.3147 71.4708 60.5247 74.8158 60.5247 74.8158H60.9297Z"
          fill="#3E7F63"/>
    <path d="M61.6202 74.8159C61.6202 74.8159 61.5789 70.1171 60.4239 69.7834C59.2689 69.4496 57.5814 70.7396 57.2739 72.3896C57.2739 72.3896 57.0002 73.4846 56.6289 73.8746C56.6289 73.8746 57.4652 74.2384 58.3427 74.0659C59.2202 73.8896 59.9589 72.8996 60.0114 72.0484C60.0602 71.1971 60.3864 70.0496 60.5364 70.1209C60.6864 70.1921 60.9002 70.6196 61.0502 71.3096C61.2002 71.9996 61.3127 74.8159 61.3127 74.8159H61.6202Z"
          fill="#2A5E4D"/>
    <path d="M62.2559 74.8158C62.2559 74.8158 61.5771 69.3783 61.9296 68.1971C62.2821 67.0196 63.9846 66.0146 65.2409 65.9658C65.2409 65.9658 65.1171 67.4696 64.7909 68.4221C64.4646 69.3746 62.2596 69.5921 62.2071 70.0346C62.1584 70.4771 62.5221 74.8121 62.5221 74.8121L62.2559 74.8158Z"
          fill="#3E7F63"/>
    <path d="M63.0479 74.8161C63.0479 74.8161 62.7179 72.9373 62.7666 72.4873C62.8154 72.0373 63.3104 71.2836 63.6966 71.0586C63.6966 71.0586 63.6666 72.1011 63.8466 72.5248C64.0266 72.9486 63.0366 73.8598 63.0554 73.9911C63.0741 74.1223 63.2054 74.8161 63.2054 74.8161H63.0479Z"
          fill="#2A5E4D"/>
    <path d="M79.8416 40.8409C79.8416 40.8409 80.1791 39.8509 81.5966 40.0459C83.0141 40.2447 83.3028 41.5759 84.2028 42.0859C85.1816 42.6447 85.7216 43.6497 85.5303 44.9697C85.3841 45.9934 83.3666 46.6947 82.6316 46.2634C81.7391 45.7384 82.0016 45.2922 82.3128 44.4034C82.9391 42.6259 81.2178 40.9572 80.3028 41.3097C79.3916 41.6584 79.8416 40.8409 79.8416 40.8409Z"
          fill="#0C2934"/>
    <path d="M32.2689 76.8452C32.1077 76.8452 31.9502 76.7552 31.8752 76.6014C31.8114 76.4739 31.7702 76.3839 31.6277 73.8002C31.5602 72.5439 31.6277 71.2539 31.6277 71.2427C31.6277 70.9989 31.8114 70.7177 32.2727 70.7589C32.7077 70.7964 32.8877 71.0627 32.8839 71.3064C32.8689 73.1327 32.6814 75.9977 32.7002 76.3314C32.7339 76.5189 32.6402 76.7102 32.4639 76.8002C32.4002 76.8302 32.3327 76.8452 32.2689 76.8452Z"
          fill="#E1F1E3"/>
    <path d="M32.267 73.5751H31.3895C30.7033 73.5751 30.1445 73.0164 30.1445 72.3301V71.6513C30.1445 71.4076 30.347 71.2538 30.5833 71.2126C30.9883 71.1413 31.127 71.3663 31.127 71.6101L31.022 72.3301C31.022 72.5326 31.187 72.6976 31.3895 72.6976H32.267C32.5108 72.6976 32.7058 72.8964 32.7058 73.1364C32.7058 73.3764 32.507 73.5751 32.267 73.5751Z"
          fill="#E1F1E3"/>
    <path d="M29.2381 77.5318C29.1181 77.4718 29.0544 77.3406 29.0769 77.2131C29.0919 76.9881 28.9644 75.0418 28.9531 73.8043C28.9531 73.6393 29.0731 73.4593 29.3694 73.4331C29.6806 73.4068 29.8044 73.5981 29.8081 73.7631C29.8081 73.7706 29.8531 74.6481 29.8081 75.4994C29.7106 77.2506 29.6844 77.3143 29.6394 77.4006C29.5869 77.5056 29.4819 77.5656 29.3731 77.5656C29.3281 77.5618 29.2831 77.5506 29.2381 77.5318ZM29.1031 77.1306C29.1031 77.1306 29.1069 77.1306 29.1031 77.1306C29.1069 77.1306 29.1031 77.1306 29.1031 77.1306Z"
          fill="#E1F1E3"/>
    <path d="M29.3742 75.3416H29.9705C30.4355 75.3416 30.818 74.9628 30.818 74.4941V74.0328C30.818 73.8678 30.683 73.7628 30.518 73.7328C30.2442 73.6841 30.1467 73.8378 30.1467 74.0028L30.218 74.4903C30.218 74.6291 30.1055 74.7378 29.9705 74.7378H29.3742C29.2092 74.7378 29.0742 74.8728 29.0742 75.0378C29.0742 75.2066 29.2092 75.3416 29.3742 75.3416Z"
          fill="#E1F1E3"/>
    <path d="M32.8588 75.4163H32.2513C32.0075 75.4163 31.8125 75.2175 31.8125 74.9775C31.8125 74.7338 32.0113 74.5388 32.2513 74.5388H32.8588C33.0988 74.5388 33.2937 74.3438 33.2937 74.1038L33.185 73.0575C33.185 72.8138 33.3912 72.6338 33.7362 72.6975C33.9762 72.7425 34.175 72.8963 34.175 73.1363V74.1038C34.175 74.8275 33.5863 75.4163 32.8588 75.4163Z"
          fill="#E1F1E3"/>
    <path d="M34.3755 79.1894H27.9967C27.6405 79.1894 27.3555 78.9006 27.3555 78.5481V76.3281H35.0205V78.5481C35.0167 78.9006 34.7317 79.1894 34.3755 79.1894Z"
          fill="#E1F1E3"/>
    <path d="M32.3142 47.2164C32.2355 47.2164 32.1567 47.1714 32.1192 47.0964C32.0892 47.0327 32.0667 46.9914 31.9955 45.7164C31.9617 45.0976 31.9955 44.4602 31.9955 44.4527C31.9955 44.3327 32.0855 44.1939 32.3142 44.2127C32.528 44.2314 32.618 44.3626 32.618 44.4826C32.6105 45.3826 32.5167 46.7964 32.528 46.9614C32.543 47.0552 32.498 47.1489 32.4117 47.1939C32.3817 47.2089 32.348 47.2164 32.3142 47.2164Z"
          fill="#E1F1E3"/>
    <path d="M32.3158 45.6002H31.8845C31.547 45.6002 31.2695 45.3227 31.2695 44.9852V44.6515C31.2695 44.5315 31.367 44.4565 31.487 44.434C31.6858 44.4002 31.757 44.509 31.757 44.629L31.7045 44.9852C31.7045 45.0865 31.787 45.1652 31.8845 45.1652H32.3158C32.4358 45.1652 32.5333 45.2627 32.5333 45.3827C32.5333 45.5027 32.4358 45.6002 32.3158 45.6002Z"
          fill="#E1F1E3"/>
    <path d="M30.8223 47.5534C30.7623 47.5234 30.7323 47.4597 30.7436 47.3959C30.7511 47.2834 30.6873 46.3272 30.6836 45.7159C30.6836 45.6334 30.7436 45.5434 30.8898 45.5322C31.0436 45.5209 31.1036 45.6147 31.1073 45.6934C31.1073 45.6972 31.1298 46.1284 31.1073 46.5484C31.0586 47.4147 31.0473 47.4447 31.0248 47.4859C30.9986 47.5384 30.9461 47.5684 30.8936 47.5684C30.8636 47.5684 30.8411 47.5609 30.8223 47.5534Z"
          fill="#E1F1E3"/>
    <path d="M30.8844 46.474H31.1769C31.4056 46.474 31.5931 46.2865 31.5931 46.0578V45.829C31.5931 45.7465 31.5256 45.694 31.4469 45.6828C31.3119 45.6603 31.2631 45.7353 31.2631 45.8178L31.2969 46.0578C31.2969 46.1253 31.2406 46.1815 31.1731 46.1815H30.8806C30.7981 46.1815 30.7344 46.249 30.7344 46.3278C30.7381 46.4065 30.8056 46.474 30.8844 46.474Z"
          fill="#E1F1E3"/>
    <path d="M32.6073 46.5118H32.3073C32.1873 46.5118 32.0898 46.4143 32.0898 46.2943C32.0898 46.1743 32.1873 46.0768 32.3073 46.0768H32.6073C32.7273 46.0768 32.8211 45.9793 32.8211 45.863L32.7686 45.3455C32.7686 45.2255 32.8698 45.1355 33.0386 45.1693C33.1548 45.1918 33.2561 45.2668 33.2561 45.3868V45.863C33.2561 46.2193 32.9636 46.5118 32.6073 46.5118Z"
          fill="#E1F1E3"/>
    <path d="M33.3556 48.3718H30.2094C30.0331 48.3718 29.8906 48.2293 29.8906 48.053V46.958H33.6706V48.053C33.6706 48.2293 33.5281 48.3718 33.3556 48.3718Z"
          fill="#E1F1E3"/>
    <path opacity="0.5"
          d="M33.8198 62.6172V65.1184C33.8198 65.4184 33.5723 65.6659 33.2723 65.6659H31.6373C31.3373 65.6659 31.0898 65.4184 31.0898 65.1184V62.6172H33.8198Z"
          fill="#E1F1E3"/>
    <path d="M31.9898 62.6171C31.9898 62.6171 31.7386 60.6633 30.7148 59.6846L31.9898 62.6171Z" fill="#E1F1E3"/>
    <path d="M32.4528 62.6175C32.4116 61.3725 32.7378 58.7812 32.7378 58.7812L32.4528 62.6175Z" fill="#E1F1E3"/>
    <path d="M34.4223 61.2412C34.4223 61.2412 33.1323 61.4812 33.0273 62.6212L34.4223 61.2412Z" fill="#E1F1E3"/>
    <path d="M30.8405 59.8157C30.8405 59.8157 30.758 59.0807 30.383 59.0695C30.008 59.0582 29.6367 59.137 29.6367 59.137C29.6367 59.137 29.9105 59.2832 30.038 59.4407C30.1655 59.602 30.8405 59.8157 30.8405 59.8157Z"
          fill="#E1F1E3"/>
    <path d="M31.0851 60.1233C31.0851 60.1233 30.6164 60.0558 30.4401 60.1908C30.2639 60.3258 30.3276 60.7458 30.3276 60.7458C30.3276 60.7458 30.5564 60.6858 30.7139 60.5771C30.8714 60.4721 30.9501 60.4121 31.0176 60.2658C31.0851 60.1233 31.0851 60.1233 31.0851 60.1233Z"
          fill="#E1F1E3"/>
    <path d="M31.9875 62.5647C31.9875 62.5647 31.3537 62.2085 31.0312 62.306C30.7087 62.4035 30.5625 63.0335 30.5625 63.0335C30.5625 63.0335 30.9187 63.071 31.2037 63.011C31.4887 62.9472 31.6313 62.9022 31.8075 62.7372C31.9875 62.5647 31.9875 62.5647 31.9875 62.5647Z"
          fill="#E1F1E3"/>
    <path d="M32.7377 58.7962C32.7527 58.8074 32.5314 58.4137 32.2989 58.4587C32.0664 58.5037 31.7852 58.7249 31.7852 58.7249C31.7852 58.7249 32.1152 58.7699 32.2614 58.8149C32.4077 58.8637 32.6552 58.7287 32.7377 58.7962Z"
          fill="#E1F1E3"/>
    <path d="M34.3429 61.2669C34.3429 61.2819 34.1779 60.8507 34.3429 60.7719C34.5079 60.6932 34.8266 60.7344 34.8266 60.7344C34.8266 60.7344 34.6766 60.9369 34.6279 61.0457C34.5754 61.1544 34.3391 61.1657 34.3429 61.2669Z"
          fill="#E1F1E3"/>
    <path d="M32.7383 58.792C32.7383 58.792 32.7345 58.6232 32.9295 58.5332C32.9295 58.5332 32.9708 58.642 32.9295 58.7245C32.8883 58.8032 32.7383 58.792 32.7383 58.792Z"
          fill="#E1F1E3"/>
    <path d="M33.3902 61.7882C33.3902 61.7882 33.2252 61.747 33.1914 61.537C33.1914 61.537 33.3077 61.5257 33.3752 61.5857C33.4389 61.6457 33.3902 61.7882 33.3902 61.7882Z"
          fill="#E1F1E3"/>
    <path d="M32.7227 58.9316C32.7227 58.9316 32.8952 58.8641 33.0039 58.8791C33.1127 58.8941 33.2252 59.1754 33.2252 59.1754C33.2252 59.1754 32.9964 59.1716 32.9214 59.1416C32.8464 59.1079 32.7939 58.9241 32.7227 58.9316Z"
          fill="#E1F1E3"/>
    <path d="M33.7812 61.5073C33.7812 61.5073 33.935 61.4061 34.0438 61.3986C34.1562 61.3911 34.3213 61.6424 34.3213 61.6424C34.3213 61.6424 34.0962 61.6873 34.0175 61.6723C33.9387 61.6573 33.8488 61.4848 33.7812 61.5073Z"
          fill="#E1F1E3"/>
    <path d="M32.6695 59.3629C32.6695 59.3629 32.3733 59.1416 32.137 59.1754C31.9008 59.2091 31.6758 59.5129 31.6758 59.5129C31.6758 59.5129 31.942 59.5954 32.0883 59.5729C32.2345 59.5504 32.4295 59.4529 32.482 59.4004C32.5345 59.3479 32.6695 59.3629 32.6695 59.3629Z"
          fill="#E1F1E3"/>
    <path d="M32.6262 59.3027C32.6262 59.3027 32.6712 59.1714 32.5849 59.0852C32.4987 58.9989 32.4687 58.9727 32.4687 58.9727C32.4687 58.9727 32.4424 59.0702 32.4687 59.1527C32.4949 59.2352 32.6262 59.3027 32.6262 59.3027Z"
          fill="#E1F1E3"/>
    <path d="M32.6172 59.8652C32.6172 59.8652 33.0934 59.614 33.4084 59.7902C33.7197 59.9665 33.8247 60.3827 33.8247 60.3827C33.8247 60.3827 33.2734 60.3715 33.0897 60.229C32.9059 60.0865 32.9209 59.8802 32.8422 59.869C32.7597 59.8577 32.6172 59.8652 32.6172 59.8652Z"
          fill="#E1F1E3"/>
    <path d="M32.5273 60.8885C32.5273 60.8885 32.6698 60.5585 32.9061 60.521C33.1423 60.4798 33.3673 60.6523 33.3673 60.6523C33.3673 60.6523 33.0786 60.8773 32.9248 60.881C32.7711 60.8848 32.6923 60.7723 32.6473 60.7985C32.5986 60.8248 32.5273 60.8885 32.5273 60.8885Z"
          fill="#E1F1E3"/>
    <path d="M33.1914 62.0395C33.1914 62.0395 33.8252 61.7057 34.2414 61.942C34.6577 62.1745 34.7927 62.7257 34.7927 62.7257C34.7927 62.7257 34.0614 62.7107 33.8177 62.5232C33.5739 62.3357 33.5964 62.062 33.4877 62.047C33.3789 62.0282 33.1914 62.0395 33.1914 62.0395Z"
          fill="#E1F1E3"/>
    <path d="M34.1992 61.2901C34.1992 61.2901 34.6755 61.0388 34.9905 61.2151C35.3017 61.3913 35.4067 61.8075 35.4067 61.8075C35.4067 61.8075 34.8555 61.7963 34.6717 61.6538C34.488 61.5113 34.503 61.3051 34.4242 61.2938C34.3417 61.2826 34.1992 61.2901 34.1992 61.2901Z"
          fill="#E1F1E3"/>
    <path d="M32.5778 60.1084C32.5778 60.1084 32.5328 59.8497 32.2966 59.8159C32.0566 59.7822 31.8203 60.1084 31.8203 60.1084C31.8203 60.1084 32.0416 60.1834 32.1691 60.1834C32.2928 60.1834 32.4203 59.9884 32.4841 60.0297C32.5441 60.0709 32.5778 60.1084 32.5778 60.1084Z"
          fill="#E1F1E3"/>
    <path d="M32.5414 61.2072C32.5414 61.2072 32.1739 60.7647 31.6827 60.9634C31.1914 61.1622 31.0977 62.0434 31.0977 62.0434C31.0977 62.0434 31.6039 61.9384 31.8402 61.8034C32.0802 61.6647 32.1064 61.1509 32.2714 61.1659C32.4327 61.1772 32.5414 61.2072 32.5414 61.2072Z"
          fill="#E1F1E3"/>
    <path d="M33.2272 62.0507C33.2272 62.0507 33.2647 61.7732 33.0734 61.6795C32.8822 61.5857 32.5859 61.8632 32.5859 61.8632C32.5859 61.8632 32.7509 61.9945 32.8559 62.0245C32.9609 62.0545 33.1297 61.882 33.1672 61.942C33.2084 62.0057 33.2272 62.0507 33.2272 62.0507Z"
          fill="#E1F1E3"/>
    <path d="M101.516 78.0781V85.3906C101.516 86.2681 100.796 86.9881 99.9181 86.9881H95.1444C94.2669 86.9881 93.5469 86.2681 93.5469 85.3906V78.0781H101.516Z"
          fill="#F7CB78"/>
    <path d="M96.1111 78.0861C96.1036 78.0298 95.3461 72.3598 92.4023 69.5473L92.4811 69.4648C95.4548 72.3073 96.2161 78.0148 96.2236 78.0748L96.1111 78.0861Z"
          fill="#3E7F63"/>
    <path d="M97.4721 78.0821C97.3483 74.4784 98.2971 66.9371 98.3046 66.8584L98.4171 66.8734C98.4058 66.9484 97.4608 74.4822 97.5846 78.0784L97.4721 78.0821Z"
          fill="#3E7F63"/>
    <path d="M99.2647 78.0864L99.1484 78.0751C99.3097 76.3314 100.427 75.3114 101.331 74.7676C102.31 74.1789 103.266 73.9951 103.273 73.9951L103.296 74.1076C103.288 74.1076 102.351 74.2876 101.387 74.8689C100.506 75.4014 99.4222 76.3914 99.2647 78.0864Z"
          fill="#3E7F63"/>
    <path d="M92.8181 69.8919C92.8181 69.8919 92.5781 67.7432 91.4794 67.7094C90.3806 67.6757 89.2969 67.9082 89.2969 67.9082C89.2969 67.9082 90.0956 68.3357 90.4706 68.7969C90.8494 69.2619 92.8181 69.8919 92.8181 69.8919Z"
          fill="#3E7F63"/>
    <path d="M93.5307 70.7924C93.5307 70.7924 92.1544 70.5936 91.6444 70.9949C91.1344 71.3924 91.3107 72.6149 91.3107 72.6149C91.3107 72.6149 91.9744 72.4386 92.4432 72.1274C92.9082 71.8161 93.1294 71.6399 93.3319 71.2199C93.5307 70.7924 93.5307 70.7924 93.5307 70.7924Z"
          fill="#3E7F63"/>
    <path d="M96.1705 77.9283C96.1705 77.9283 94.3217 76.8895 93.3767 77.1745C92.4317 77.4632 92.0117 79.297 92.0117 79.297C92.0117 79.297 93.058 79.4095 93.8905 79.2257C94.723 79.042 95.1355 78.9107 95.653 78.4195C96.1705 77.9282 96.1705 77.9283 96.1705 77.9283Z"
          fill="#2A5E4D"/>
    <path d="M98.3648 66.911C98.4023 66.941 97.7648 65.7972 97.0861 65.9285C96.4036 66.0597 95.5898 66.7085 95.5898 66.7085C95.5898 66.7085 96.5536 66.8397 96.9773 66.9747C97.4011 67.1135 98.1136 66.7122 98.3648 66.911Z"
          fill="#2A5E4D"/>
    <path d="M103.048 74.1263C103.048 74.1713 102.564 72.915 103.044 72.6825C103.524 72.45 104.454 72.57 104.454 72.57C104.454 72.57 104.012 73.1625 103.873 73.485C103.734 73.8075 103.041 73.8375 103.048 74.1263Z"
          fill="#3E7F63"/>
    <path d="M98.3633 66.8999C98.3633 66.8999 98.352 66.4049 98.9183 66.1387C98.9183 66.1387 99.042 66.4612 98.9183 66.6937C98.7945 66.9299 98.3633 66.8999 98.3633 66.8999Z"
          fill="#2A5E4D"/>
    <path d="M100.269 75.652C100.269 75.652 99.7886 75.532 99.6836 74.917C99.6836 74.917 100.025 74.887 100.216 75.0632C100.411 75.2432 100.269 75.652 100.269 75.652Z"
          fill="#3E7F63"/>
    <path d="M98.3203 67.3049C98.3203 67.3049 98.8191 67.1062 99.1416 67.1512C99.4641 67.1962 99.7828 68.0174 99.7828 68.0174C99.7828 68.0174 99.1191 68.0062 98.8941 67.9162C98.6766 67.8224 98.5191 67.2824 98.3203 67.3049Z"
          fill="#2A5E4D"/>
    <path d="M101.41 74.8308C101.41 74.8308 101.856 74.5308 102.179 74.5083C102.501 74.4858 102.989 75.2208 102.989 75.2208C102.989 75.2208 102.336 75.3483 102.1 75.3071C101.868 75.2658 101.601 74.7671 101.41 74.8308Z"
          fill="#3E7F63"/>
    <path d="M98.1641 68.5651C98.1641 68.5651 97.2978 67.9164 96.6116 68.0139C95.9253 68.1114 95.2578 68.9964 95.2578 68.9964C95.2578 68.9964 96.0341 69.2401 96.4653 69.1726C96.8966 69.1051 97.4628 68.8239 97.6128 68.6739C97.7628 68.5239 98.1641 68.5651 98.1641 68.5651Z"
          fill="#3E7F63"/>
    <path d="M98.029 68.3964C98.029 68.3964 98.1677 68.0101 97.909 67.7589C97.6502 67.5076 97.5752 67.4326 97.5752 67.4326C97.5752 67.4326 97.5002 67.7214 97.579 67.9539C97.6502 68.1901 98.029 68.3964 98.029 68.3964Z"
          fill="#2A5E4D"/>
    <path d="M98.0156 70.0349C98.0156 70.0349 99.4106 69.2999 100.326 69.8174C101.241 70.3311 101.541 71.5461 101.541 71.5461C101.541 71.5461 99.9281 71.5124 99.3956 71.0961C98.8631 70.6799 98.9081 70.0836 98.6681 70.0499C98.4319 70.0161 98.0156 70.0349 98.0156 70.0349Z"
          fill="#3E7F63"/>
    <path d="M97.7461 73.0232C97.7461 73.0232 98.1623 72.0595 98.8523 71.9432C99.5423 71.827 100.202 72.3295 100.202 72.3295C100.202 72.3295 99.3548 72.9857 98.9048 72.9932C98.4548 73.0007 98.2261 72.6745 98.0911 72.757C97.9523 72.8395 97.7461 73.0232 97.7461 73.0232Z"
          fill="#3E7F63"/>
    <path d="M99.6875 76.3873C99.6875 76.3873 101.54 75.4161 102.755 76.0986C103.97 76.7811 104.368 78.3936 104.368 78.3936C104.368 78.3936 102.226 78.3486 101.521 77.7973C100.816 77.2461 100.872 76.4511 100.557 76.4061C100.239 76.3611 99.6875 76.3873 99.6875 76.3873Z"
          fill="#3E7F63"/>
    <path d="M102.641 74.1931C102.641 74.1931 104.036 73.4581 104.951 73.9756C105.866 74.4893 106.166 75.7043 106.166 75.7043C106.166 75.7043 104.553 75.6706 104.021 75.2543C103.488 74.8381 103.533 74.2381 103.293 74.2081C103.057 74.1743 102.641 74.1931 102.641 74.1931Z"
          fill="#3E7F63"/>
    <path d="M97.8919 70.7401C97.8919 70.7401 97.7606 69.9864 97.0631 69.8889C96.3656 69.7914 95.6719 70.7401 95.6719 70.7401C95.6719 70.7401 96.3206 70.9576 96.6881 70.9576C97.0556 70.9576 97.4269 70.3876 97.6069 70.5114C97.7869 70.6389 97.8919 70.7401 97.8919 70.7401Z"
          fill="#2A5E4D"/>
    <path d="M97.785 73.9569C97.785 73.9569 96.705 72.6669 95.2725 73.2481C93.84 73.8294 93.5625 76.3981 93.5625 76.3981C93.5625 76.3981 95.0362 76.0981 95.7337 75.6931C96.4312 75.2881 96.51 73.7919 96.99 73.8294C97.47 73.8744 97.785 73.9569 97.785 73.9569Z"
          fill="#3E7F63"/>
    <path d="M99.7852 76.4212C99.7852 76.4212 99.8977 75.6112 99.3389 75.3412C98.7802 75.0712 97.9102 75.8812 97.9102 75.8812C97.9102 75.8812 98.3939 76.2637 98.7052 76.3537C99.0164 76.4437 99.5002 75.9412 99.6164 76.1137C99.7252 76.2862 99.7852 76.4212 99.7852 76.4212Z"
          fill="#2A5E4D"/>
    <path d="M25.9627 78.1463C25.9627 78.1463 27.3989 76.4701 26.0527 75.4051C26.0527 75.4051 25.0664 74.8088 24.2639 74.8576C24.2639 74.8576 25.4002 76.7663 25.0327 76.9538C24.6652 77.1451 23.9189 74.7376 23.9189 74.7376C23.9189 74.7376 21.6802 74.5201 20.9564 74.8651C20.9564 74.8651 22.8727 76.4326 22.4677 76.5263C22.0627 76.6201 19.9964 75.0826 19.9964 75.0826C19.9964 75.0826 17.9114 75.4388 18.0239 76.7101C18.1364 77.9813 18.8527 78.3751 19.1677 78.3413C19.4827 78.3076 21.3314 77.6026 21.3727 77.8613C21.4139 78.1201 20.3002 78.9638 19.5239 79.0051C19.5239 79.0051 20.9939 80.6251 21.9727 80.1601C22.9514 79.6913 23.0339 78.9488 23.6414 78.6713C24.2489 78.3938 24.7702 78.3938 24.5189 78.6788C24.2677 78.9638 23.1652 79.2376 22.8164 79.8526C22.4677 80.4676 22.1564 80.8838 23.1652 80.7338C24.1777 80.5801 25.8202 79.8413 25.8914 78.9938C25.9627 78.1463 25.9627 78.1463 25.9627 78.1463Z"
          fill="#2A5E4D"/>
    <path d="M19.0469 76.748C19.0469 76.748 24.7094 76.5305 25.9619 78.1505C25.9619 78.1505 26.2394 78.9793 27.0906 79.733L27.2219 80.093C27.2219 80.093 26.2394 79.058 25.8906 78.9943C25.8906 78.9943 26.4381 76.988 19.0469 76.748Z"
          fill="#0C2934"/>
    <path d="M27.0896 79.7297C27.0896 79.7297 28.3046 80.6297 28.3908 82.2347L28.1696 82.2534C28.1696 82.2534 27.7796 80.5922 27.0783 79.9434C26.3771 79.2947 27.0896 79.7297 27.0896 79.7297Z"
          fill="#0C2934"/>
    <path d="M30.5664 77.5913C30.5664 77.5913 28.9201 76.6687 29.6889 75.42C29.6889 75.42 30.3039 74.6512 30.9601 74.4562C30.9601 74.4562 30.6076 76.32 30.9601 76.365C31.3126 76.41 31.2001 74.2575 31.2001 74.2575C31.2001 74.2575 32.9326 73.425 33.6151 73.4887C33.6151 73.4887 32.5389 75.3112 32.8914 75.2662C33.2439 75.2212 34.4476 73.38 34.4476 73.38C34.4476 73.38 36.2251 73.05 36.5101 74.1037C36.7951 75.1575 36.3339 75.6825 36.0714 75.75C35.8089 75.8175 34.1176 75.795 34.1626 76.0125C34.2076 76.2337 35.3476 76.5825 35.9851 76.3837C35.9851 76.3837 35.2839 78.1163 34.3614 78.03C33.4389 77.9438 33.1539 77.37 32.5839 77.3288C32.0139 77.2838 31.5976 77.4375 31.8826 77.5913C32.1676 77.745 33.1351 77.64 33.5926 78.0337C34.0539 78.4237 34.4251 78.6675 33.5701 78.8437C32.7151 79.02 31.1776 78.9112 30.8701 78.2512C30.5664 77.5912 30.5664 77.5913 30.5664 77.5913Z"
          fill="#2A5E4D"/>
    <path d="M35.7014 74.4336C35.7014 74.4336 31.0927 75.9261 30.5677 77.5948C30.5677 77.5948 30.5902 78.3411 30.1289 79.1961V79.5261C30.1289 79.5261 30.6127 78.4086 30.8752 78.2548C30.8752 78.2511 29.8439 76.7998 35.7014 74.4336Z"
          fill="#0C2934"/>
    <path d="M30.128 79.1923C30.128 79.1923 29.4192 80.2723 29.8242 81.5848L30.008 81.536C30.008 81.536 29.8317 80.0885 30.203 79.361C30.5705 78.6335 30.128 79.1923 30.128 79.1923Z"
          fill="#0C2934"/>
    <path d="M27.3513 74.2761C27.3513 74.2761 30.3625 72.5886 28.9563 70.3011C28.9563 70.3011 27.8313 68.8949 26.6275 68.5349C26.6275 68.5349 27.2688 71.9474 26.6275 72.0299C25.9863 72.1086 26.185 68.1749 26.185 68.1749C26.185 68.1749 23.0125 66.6486 21.7675 66.7686C21.7675 66.7686 23.7363 70.1024 23.0913 70.0199C22.45 69.9411 20.2413 66.5661 20.2413 66.5661C20.2413 66.5661 16.99 65.9624 16.465 67.8899C15.9438 69.8174 16.7875 70.7811 17.2675 70.9011C17.7513 71.0211 20.8413 70.9799 20.7625 71.3849C20.6838 71.7861 18.595 72.4274 17.4288 72.0674C17.4288 72.0674 18.715 75.2399 20.3988 75.0786C22.0863 74.9174 22.6075 73.8749 23.65 73.7924C24.6925 73.7136 25.4575 73.9949 24.9363 74.2761C24.415 74.5574 22.6488 74.3699 21.805 75.0861C20.9613 75.8024 20.2788 76.2449 21.8463 76.5674C23.4138 76.8899 26.2225 76.6874 26.785 75.4836C27.3513 74.2761 27.3513 74.2761 27.3513 74.2761Z"
          fill="#3E7F63"/>
    <path d="M17.9531 68.4932C17.9531 68.4932 26.3869 71.2232 27.3506 74.2757C27.3506 74.2757 27.3094 75.6407 28.1531 77.2082V77.8119C28.1531 77.8119 27.2681 75.7644 26.7881 75.4832C26.7881 75.4794 28.6744 72.8282 17.9531 68.4932Z"
          fill="#2A5E4D"/>
    <path d="M28.1523 77.2081C28.1523 77.2081 29.4535 79.1844 28.711 81.5881L28.3773 81.4981C28.3773 81.4981 28.7035 78.8506 28.021 77.5194C27.3423 76.1844 28.1523 77.2081 28.1523 77.2081Z"
          fill="#2A5E4D"/>
    <path d="M21.5547 80.8984C21.5547 84.1572 24.1947 86.7972 27.4534 86.7972C28.1322 86.7972 28.7884 86.6809 29.3959 86.4709C31.7022 85.6684 33.3559 83.4747 33.3559 80.8984H21.5547Z"
          fill="#FFA412"/>
    <path d="M25.4336 80.8984C25.4336 83.1072 25.9623 85.3609 27.7623 86.3697C28.0623 86.5384 29.0636 86.3547 29.3898 86.4709C31.6961 85.6684 33.3498 83.4747 33.3498 80.8984H25.4336Z"
          fill="#F7CB78"/>
    <path d="M21.4727 87.1015H33.4352C33.4352 86.899 33.3527 86.719 33.2214 86.5878C33.0902 86.4565 32.9064 86.374 32.7077 86.374H22.2002C21.7989 86.374 21.4727 86.6965 21.4727 87.1015Z"
          fill="#FFA412"/>
    <path d="M27.0781 87.1015H33.4344C33.4344 86.899 33.3519 86.719 33.2206 86.5878C33.0894 86.4565 32.9056 86.374 32.7069 86.374H27.8056C27.4044 86.374 27.0781 86.6965 27.0781 87.1015Z"
          fill="#F7CB78"/>
    <path d="M21.4194 81.0811H33.5469V80.9011H21.4194V81.0811Z" fill="#D5823F"/>
    <path d="M50.8716 54.5546C50.8716 54.5546 50.5679 51.8433 51.7379 49.5596C51.8616 49.3158 52.1729 49.3796 52.2216 49.6571C52.4054 50.6508 52.5854 52.6383 51.7454 54.7458C50.5491 57.7458 50.8716 54.5546 50.8716 54.5546Z"
          fill="#3E7F63"/>
    <path d="M52.2709 55.0905C52.2709 55.0905 52.4621 52.368 54.0296 50.3355C54.1946 50.118 54.4871 50.2342 54.4871 50.5192C54.4871 51.5317 54.3034 53.5155 53.0959 55.4392C51.3784 58.173 52.2709 55.0905 52.2709 55.0905Z"
          fill="#3E7F63"/>
    <path d="M51.4916 54.5509C51.4916 54.5509 51.4953 51.8209 52.9241 49.6872C53.0741 49.4622 53.3741 49.5559 53.3928 49.8372C53.4603 50.8459 53.4153 52.8409 52.3391 54.8397C50.8091 57.6859 51.4916 54.5509 51.4916 54.5509Z"
          fill="#2A5E4D"/>
    <path d="M52.4155 54.6894C52.4155 54.6894 52.9555 52.6269 54.4518 51.2919C54.6093 51.1494 54.8193 51.2807 54.778 51.4982C54.6318 52.2744 54.208 53.7707 53.0005 55.0719C51.2868 56.9244 52.4155 54.6894 52.4155 54.6894Z"
          fill="#2A5E4D"/>
    <path d="M38.4075 83.6809C38.4075 83.6809 37.6687 84.3559 37.8112 84.8359C37.9537 85.3159 38.6212 85.6347 38.7112 86.2197C38.8012 86.8047 39.1612 87.1234 39.4875 87.1234C39.8137 87.1234 41.0362 87.1234 41.0362 87.1234C41.0362 87.1234 41.2762 86.7109 40.6987 86.5872C40.1212 86.4634 39.9037 85.7734 39.9412 85.1359C39.9787 84.4984 39.8887 83.6434 39.8887 83.6434L38.6625 83.3584L38.4075 83.6809Z"
          fill="#0C2934"/>
    <path d="M44.6649 84.0342C44.6649 84.0342 44.3986 86.8917 44.7249 87.0529L48.8799 87.0454C48.8799 87.0454 48.8799 86.5654 48.2124 86.4604C47.5449 86.3554 46.3749 85.9617 46.1761 85.0917C45.9736 84.2217 44.6649 84.0342 44.6649 84.0342Z"
          fill="#0C2934"/>
    <path d="M48.0565 60.5098C48.0565 60.5098 49.2527 64.2373 49.3315 65.5085C49.4102 66.776 47.044 83.5385 46.9465 84.1235C46.8565 84.6748 46.174 85.0273 46.174 85.0273C46.174 85.0273 45.859 85.2148 45.409 85.0873C44.7865 84.911 44.5877 84.701 44.5877 84.701C44.5877 84.701 43.654 72.746 44.2315 68.4785C44.809 64.2073 44.8165 60.5173 44.8165 60.5173H48.0565V60.5098Z"
          fill="#D5823F"/>
    <path d="M42.9839 60.3975C42.9839 60.3975 41.1577 62.85 40.9852 64.5075C40.8164 66.165 40.7189 71.985 40.3552 73.6012C39.9914 75.2175 38.6602 78.3262 38.6602 83.3625C38.6602 83.3625 38.7989 83.6512 39.2264 83.805C39.3614 83.8537 39.5452 83.9025 39.7252 83.9437C40.0777 84.0262 40.4414 83.8537 40.6027 83.5275C41.5027 81.7125 44.3752 75.8587 44.5214 74.6437C44.6264 73.785 45.5339 68.0925 47.5102 64.755C47.9864 63.9525 47.2177 60.765 47.2177 60.765L42.9839 60.3975Z"
          fill="#FFA412"/>
    <path d="M42.7161 42.6595C42.6711 42.5545 42.1611 41.4258 40.4211 42.0408C40.4211 42.0408 41.3023 41.812 41.5911 42.1383C41.5911 42.1383 40.8411 41.8908 40.4286 42.2283C40.0161 42.5658 40.0573 43.5183 40.1548 43.7958C40.2561 44.0733 40.8486 44.8683 41.1748 44.827C41.2986 44.812 41.4261 44.752 41.5348 44.6845C41.5048 44.842 41.4786 45.0145 41.4636 45.1983C41.3173 46.9158 42.5473 48.0558 43.0723 47.6695C43.4061 47.422 43.7548 48.0333 43.7548 48.0333L46.2486 43.5933C46.2448 43.597 43.8673 41.2908 42.7161 42.6595Z"
          fill="#0C2934"/>
    <path d="M47.3941 53.1105C45.0316 54.198 43.2579 50.358 43.4116 50.3205C43.6479 50.0468 43.8916 49.0643 43.7191 47.6543L43.8429 47.6618L45.8979 47.8193C45.8979 47.8193 45.9316 48.4755 45.9991 49.0868C46.0479 49.488 46.1116 49.8743 46.1941 50.0393C46.2204 50.088 46.6629 50.1555 46.6629 50.1555C46.6966 50.1968 48.0241 52.8218 47.3941 53.1105Z"
          fill="#F3C9B2"/>
    <path d="M49.0661 54.3075C49.2198 54.885 49.3435 55.4025 49.4073 55.7512C49.6923 57.3562 49.5498 65.52 49.5498 65.52C45.3836 67.11 40.396 65.0625 40.396 65.0625C40.2423 63.54 40.8348 60.1575 41.1948 57.1425C41.2848 56.4037 41.356 55.6875 41.4048 55.0275C41.446 54.4537 41.5098 53.94 41.596 53.4862C42.196 50.2687 43.7335 49.9125 43.7335 49.9125C44.4535 51.3525 46.726 51.7425 46.726 51.7425C46.756 50.9325 46.501 49.8975 46.501 49.8975C46.7898 49.9312 47.7573 50.055 48.0198 50.1862C48.7961 50.5725 50.6411 53.8275 50.6411 53.8275C50.6411 53.8275 51.1136 53.61 49.0661 54.3075Z"
          fill="#3E7F63"/>
    <path d="M45.8909 47.8196C45.8909 47.8196 45.9209 48.4759 45.9922 49.0871C44.8672 49.1959 44.1472 48.2171 43.8359 47.6621L45.8909 47.8196Z"
          fill="#EABA9F"/>
    <path d="M46.3366 48.3525C46.3366 48.3525 43.6891 48.7313 43.4829 47.0288C43.2804 45.3263 42.8004 44.2275 44.4841 43.9125C46.1679 43.5975 46.5729 44.205 46.7754 44.76C46.9779 45.3113 47.0191 48.21 46.3366 48.3525Z"
          fill="#F3C9B2"/>
    <path d="M46.5844 43.8225C46.1119 43.3612 45.8156 43.515 45.6619 43.6875C44.1131 43.05 43.3219 44.3812 43.3219 44.3812C43.2881 45.6262 42.5156 46.4362 42.5156 46.4362C42.5156 46.4362 43.0369 46.6837 44.1169 46.2487C44.4469 46.1137 44.7206 45.8287 44.9456 45.4912C44.5856 46.3275 44.0381 46.9687 44.0381 46.9687C45.2944 46.1662 45.6019 44.19 45.6319 43.98C45.8119 44.1112 46.1681 44.3962 46.3069 44.7037C46.4906 45.12 46.6556 46.0087 46.9069 45.945C46.9031 45.9412 47.2894 44.5125 46.5844 43.8225Z"
          fill="#0C2934"/>
    <path d="M43.7175 49.4092C43.7175 49.4092 43.4062 49.6717 43.4062 50.0617C43.4062 50.0617 43.89 51.4267 46.7213 51.7454C46.7213 51.7417 44.0175 50.4217 43.7175 49.4092Z"
          fill="#2A5E4D"/>
    <path d="M46.1206 49.9648C46.1206 49.9648 46.7394 51.086 46.7206 51.746C46.7206 51.746 46.7694 50.2498 46.6681 49.901C46.5669 49.5523 46.0156 49.2598 46.0156 49.2598L46.1206 49.9648Z"
          fill="#2A5E4D"/>
    <path d="M45.5039 47.4599C45.5264 47.4599 45.7552 47.6699 46.0552 47.6099C46.3552 47.5499 46.3514 47.3099 46.3514 47.3099C46.3514 47.3099 46.1489 47.2762 45.9689 47.3099C45.7852 47.3437 45.5039 47.4599 45.5039 47.4599Z"
          fill="white"/>
    <path d="M50.3988 54.8729C50.3988 54.8729 50.7025 52.1617 49.5325 49.8779C49.4088 49.6342 49.0975 49.6979 49.0488 49.9754C48.865 50.9692 48.685 52.9567 49.525 55.0642C50.7213 58.0642 50.3988 54.8729 50.3988 54.8729Z"
          fill="#3E7F63"/>
    <path d="M49.0014 55.4098C49.0014 55.4098 48.8102 52.6873 47.2427 50.6548C47.0777 50.4373 46.7852 50.5536 46.7852 50.8386C46.7852 51.8511 46.9689 53.8348 48.1764 55.7586C49.8939 58.4923 49.0014 55.4098 49.0014 55.4098Z"
          fill="#3E7F63"/>
    <path d="M49.7808 54.8693C49.7808 54.8693 49.7771 52.1393 48.3483 50.0055C48.1983 49.7805 47.8983 49.8743 47.8796 50.1555C47.8121 51.1643 47.8571 53.1593 48.9333 55.158C50.4633 58.0005 49.7808 54.8693 49.7808 54.8693Z"
          fill="#2A5E4D"/>
    <path d="M51.3682 55.0159C51.3682 55.0159 51.882 52.3346 50.8882 49.9684C50.7832 49.7171 50.472 49.7546 50.397 50.0284C50.1382 51.0071 49.8045 52.9721 50.4795 55.1396C51.4432 58.2221 51.3682 55.0159 51.3682 55.0159Z"
          fill="#2A5E4D"/>
    <path d="M48.8599 55.0048C48.8599 55.0048 48.3199 52.9423 46.8237 51.6073C46.6662 51.4648 46.4562 51.5961 46.4974 51.8136C46.6437 52.5898 47.0674 54.0861 48.2749 55.3873C49.9887 57.2398 48.8599 55.0048 48.8599 55.0048Z"
          fill="#2A5E4D"/>
    <path d="M52.6961 59.4968H48.6761C47.7498 59.4968 46.9961 58.7393 46.9961 57.8168V54.5656C46.9961 54.5168 47.0373 54.4756 47.0861 54.4756H54.3836V57.8131C54.3798 58.7393 53.6223 59.4968 52.6961 59.4968Z"
          fill="#FFA412"/>
    <path d="M43.2181 53.1779C42.3781 52.8029 41.7819 53.5754 41.9394 54.4829C42.3744 56.9954 43.4094 60.6029 44.2531 60.8617C45.5244 61.2479 50.0956 58.3192 50.0956 58.3192L49.5706 57.5579C49.5706 57.5579 45.6594 58.7167 45.5881 58.5367C45.5206 58.3567 44.1294 53.5867 44.1294 53.5867L43.2181 53.1779Z"
          fill="#F3C9B2"/>
    <path d="M49.5748 57.555C49.5748 57.555 49.5673 57.3225 49.8411 57.195C50.1148 57.0675 50.3811 57.015 50.6061 56.8575C50.8273 56.7 50.8348 56.8987 50.7373 57.0525C50.6398 57.2062 50.4411 57.2662 50.5761 57.3112C50.7111 57.3562 51.2548 57.03 51.6823 56.8875C51.9111 56.8087 51.8323 57.6975 51.6073 57.87C51.4123 58.02 50.8836 58.3012 50.4411 58.3462C49.8936 58.4025 49.4961 58.6875 49.4961 58.6875L49.5748 57.555Z"
          fill="#F3C9B2"/>
    <path d="M43.5978 51.255C43.5978 51.255 42.4728 51.6825 42.079 52.2712C41.6853 52.86 41.6365 54.735 42.2478 57.1725C42.2478 57.1725 44.569 56.4375 45.769 55.1887C45.769 55.1887 44.8353 50.9025 43.5978 51.255Z"
          fill="#3E7F63"/>
    <path d="M32.587 55.0389C32.587 55.0389 32.6207 54.7914 32.5232 54.5327C32.4257 54.2739 32.347 53.7902 32.7595 53.7114C33.1682 53.6364 33.457 53.9177 33.352 54.2739C33.247 54.6302 33.1945 55.0352 33.1945 55.0352H32.587V55.0389Z"
          fill="#E1F1E3"/>
    <path d="M33.515 55.0387C33.515 55.0387 33.5375 54.885 33.4738 54.7275C33.4138 54.57 33.365 54.27 33.62 54.225C33.8713 54.18 34.0513 54.3525 33.9838 54.57C33.92 54.7912 33.8863 55.0387 33.8863 55.0387H33.515Z"
          fill="#E1F1E3"/>
    <path d="M31.8258 55.1852C31.8258 55.1852 31.8258 54.9827 31.7171 54.7877C31.6083 54.5927 31.4958 54.2102 31.8146 54.1052C32.1333 54.0002 32.3958 54.1915 32.3508 54.4915C32.3058 54.7877 32.3058 55.1215 32.3058 55.1215L31.8258 55.1852Z"
          fill="#E1F1E3"/>
    <path d="M31.3778 54.2803L31.3711 54.3057L31.6538 54.3809L31.6605 54.3555L31.3778 54.2803Z" fill="#E1F1E3"/>
    <path d="M31.6674 53.946L31.6445 53.959L31.7722 54.184L31.7951 54.1711L31.6674 53.946Z" fill="#E1F1E3"/>
    <path d="M32.1083 54.0264H32.082V54.1801H32.1083V54.0264Z" fill="#E1F1E3"/>
    <path d="M32.3592 53.8157L32.3516 53.8408L32.5919 53.914L32.5996 53.8889L32.3592 53.8157Z" fill="#E1F1E3"/>
    <path d="M32.6519 53.663L32.6289 53.6758L32.72 53.8397L32.7429 53.8269L32.6519 53.663Z" fill="#E1F1E3"/>
    <path d="M33.1356 53.666H33.1094V53.8085H33.1356V53.666Z" fill="#E1F1E3"/>
    <path d="M32.8802 53.6084L32.8555 53.6172L32.9232 53.808L32.9479 53.7992L32.8802 53.6084Z" fill="#E1F1E3"/>
    <path d="M33.4528 53.8956L33.2461 54.0176L33.2594 54.0402L33.4661 53.9182L33.4528 53.8956Z" fill="#E1F1E3"/>
    <path d="M33.5367 54.0975L33.5117 54.1055L33.5847 54.3341L33.6097 54.3261L33.5367 54.0975Z" fill="#E1F1E3"/>
    <path d="M33.8348 54.1797H33.8086V54.3709H33.8348V54.1797Z" fill="#E1F1E3"/>
    <path d="M34.0349 54.2678L33.8945 54.4531L33.9155 54.469L34.0558 54.2836L34.0349 54.2678Z" fill="#E1F1E3"/>
    <path d="M34.4023 57.3893H31.2598C31.0273 57.3893 30.8398 57.2018 30.8398 56.9693V55.0381H34.8223V56.9693C34.8223 57.2018 34.6348 57.3893 34.4023 57.3893Z"
          fill="#E1F1E3"/>
    <path d="M24.712 46.0877C24.712 46.0877 24.7457 45.8402 24.6482 45.5815C24.5507 45.3227 24.472 44.839 24.8845 44.7602C25.2932 44.6852 25.582 44.9665 25.477 45.3227C25.372 45.679 25.3195 46.084 25.3195 46.084H24.712V46.0877Z"
          fill="#E1F1E3"/>
    <path d="M25.64 46.0875C25.64 46.0875 25.6625 45.9338 25.5988 45.7763C25.5388 45.6188 25.49 45.3188 25.745 45.2738C25.9963 45.2288 26.1763 45.4013 26.1088 45.6188C26.045 45.84 26.0113 46.0875 26.0113 46.0875H25.64Z"
          fill="#E1F1E3"/>
    <path d="M23.9508 46.2301C23.9508 46.2301 23.9508 46.0276 23.8421 45.8326C23.7333 45.6376 23.6208 45.2551 23.9396 45.1501C24.2583 45.0451 24.5208 45.2364 24.4758 45.5364C24.4308 45.8326 24.4308 46.1664 24.4308 46.1664L23.9508 46.2301Z"
          fill="#E1F1E3"/>
    <path d="M23.5107 45.3281L23.5039 45.3535L23.7866 45.4287L23.7933 45.4034L23.5107 45.3281Z" fill="#E1F1E3"/>
    <path d="M23.9009 45.2332L23.7734 45.0082L23.7959 44.9932L23.9234 45.2219L23.9009 45.2332Z" fill="#E1F1E3"/>
    <path d="M24.2411 45.0752H24.2148V45.2289H24.2411V45.0752Z" fill="#E1F1E3"/>
    <path d="M24.492 44.8626L24.4844 44.8877L24.7247 44.9609L24.7324 44.9358L24.492 44.8626Z" fill="#E1F1E3"/>
    <path d="M24.7808 44.705L24.7578 44.7178L24.8489 44.8817L24.8718 44.8689L24.7808 44.705Z" fill="#E1F1E3"/>
    <path d="M25.2684 44.7119H25.2422V44.8544H25.2684V44.7119Z" fill="#E1F1E3"/>
    <path d="M25.0052 44.6592L24.9805 44.668L25.0482 44.8588L25.0729 44.85L25.0052 44.6592Z" fill="#E1F1E3"/>
    <path d="M25.5817 44.9435L25.375 45.0654L25.3883 45.088L25.5951 44.9661L25.5817 44.9435Z" fill="#E1F1E3"/>
    <path d="M25.6656 45.1434L25.6406 45.1514L25.7136 45.38L25.7386 45.372L25.6656 45.1434Z" fill="#E1F1E3"/>
    <path d="M25.9638 45.2256H25.9375V45.4168H25.9638V45.2256Z" fill="#E1F1E3"/>
    <path d="M26.1638 45.3127L26.0234 45.498L26.0444 45.5139L26.1847 45.3285L26.1638 45.3127Z" fill="#E1F1E3"/>
    <path d="M26.5313 48.4391H23.3888C23.1563 48.4391 22.9688 48.2516 22.9688 48.0191V46.0879H26.9513V48.0191C26.9513 48.2479 26.7638 48.4391 26.5313 48.4391Z"
          fill="#E1F1E3"/>
    <path d="M74.7598 38.6085C75.6459 38.5839 76.3442 37.8457 76.3197 36.9596C76.2951 36.0736 75.5568 35.3752 74.6708 35.3998C73.7847 35.4244 73.0863 36.1626 73.1109 37.0487C73.1355 37.9348 73.8738 38.6331 74.7598 38.6085Z"
          fill="#F7CB78"/>
    <path d="M74.9995 26.5166V32.2729C74.9995 32.5316 74.992 32.7754 74.9845 33.0041C74.9845 33.0116 74.9845 33.0116 74.9845 33.0191C74.9845 33.0791 74.977 33.1391 74.977 33.2029C74.932 33.9866 74.842 34.5341 74.737 34.5341H74.6995C74.5795 34.5341 74.482 33.9041 74.4408 33.0266C74.4333 32.7904 74.4258 32.5391 74.4258 32.2729V26.5804L74.9995 26.5166Z"
          fill="#F7CB78"/>
    <path d="M74.7136 33.0078C72.6248 33.0078 70.9336 34.7966 70.9336 37.0053H78.4898C78.4898 34.7966 76.7986 33.0078 74.7136 33.0078Z"
          fill="#FFA412"/>
    <path d="M75.0123 33.057C74.9036 33.0345 74.7948 33.0195 74.6786 33.0195C73.3173 33.0195 72.2148 34.8045 72.2148 37.002H72.8786C72.8823 34.9883 73.8086 33.3195 75.0123 33.057Z"
          fill="#F7CB78"/>
    <path d="M88.7433 36.5808H82.3158C82.102 36.5808 81.9258 36.4046 81.9258 36.1908V29.9808C81.9258 29.7671 82.102 29.5908 82.3158 29.5908H88.7433C88.957 29.5908 89.1333 29.7671 89.1333 29.9808V36.1908C89.1333 36.4046 88.9608 36.5808 88.7433 36.5808Z"
          fill="#F7CB78"/>
    <path d="M88.4672 36.277H82.5984C82.4034 36.277 82.2422 36.1158 82.2422 35.9208V30.2508C82.2422 30.0558 82.4034 29.8945 82.5984 29.8945H88.4672C88.6622 29.8945 88.8234 30.0558 88.8234 30.2508V35.9245C88.8234 36.1195 88.6622 36.277 88.4672 36.277Z"
          fill="#FBEAC6"/>
    <path d="M85.3828 30.5318C85.3828 30.4493 85.4503 30.3818 85.5328 30.3818C85.6153 30.3818 85.6828 30.4493 85.6828 30.5318C85.6828 30.6143 85.6153 30.6818 85.5328 30.6818C85.4466 30.6818 85.3828 30.6143 85.3828 30.5318Z"
          fill="#F7CB78"/>
    <path d="M86.586 30.7419C86.6273 30.6706 86.7173 30.6444 86.7885 30.6856C86.8598 30.7269 86.886 30.8169 86.8448 30.8881C86.8035 30.9594 86.7135 30.9856 86.6423 30.9444C86.571 30.9031 86.5448 30.8131 86.586 30.7419Z"
          fill="#F7CB78"/>
    <path d="M87.6192 31.5634C87.6867 31.5184 87.7804 31.5372 87.8254 31.6084C87.8704 31.6759 87.8517 31.7697 87.7804 31.8147C87.7129 31.8597 87.6192 31.8409 87.5742 31.7697C87.5292 31.6984 87.5517 31.6084 87.6192 31.5634Z"
          fill="#F7CB78"/>
    <path d="M88.1266 32.8311C88.2091 32.8311 88.2766 32.8986 88.2766 32.9811C88.2766 33.0636 88.2091 33.1311 88.1266 33.1311C88.0441 33.1311 87.9766 33.0636 87.9766 32.9811C87.9803 32.8986 88.0441 32.8311 88.1266 32.8311Z"
          fill="#F7CB78"/>
    <path d="M87.8683 34.3048C87.9283 34.3648 87.9283 34.4585 87.8683 34.5148C87.8083 34.5748 87.7145 34.5748 87.6583 34.5148C87.5983 34.4548 87.5983 34.361 87.6583 34.3048C87.7145 34.2448 87.8083 34.2448 87.8683 34.3048Z"
          fill="#F7CB78"/>
    <path d="M86.9308 35.2414C86.9908 35.3014 86.9908 35.3952 86.9308 35.4514C86.8708 35.5114 86.777 35.5114 86.7208 35.4514C86.6608 35.3914 86.6608 35.2977 86.7208 35.2414C86.777 35.1852 86.8708 35.1852 86.9308 35.2414Z"
          fill="#F7CB78"/>
    <path d="M85.3828 35.7291C85.3828 35.6466 85.4503 35.5791 85.5328 35.5791C85.6153 35.5791 85.6828 35.6466 85.6828 35.7291C85.6828 35.8116 85.6153 35.8791 85.5328 35.8791C85.4466 35.8754 85.3828 35.8116 85.3828 35.7291Z"
          fill="#F7CB78"/>
    <path d="M84.4737 30.7419C84.4324 30.6706 84.3424 30.6444 84.2712 30.6856C84.1999 30.7269 84.1737 30.8169 84.2149 30.8881C84.2562 30.9594 84.3462 30.9856 84.4174 30.9444C84.4887 30.9031 84.5112 30.8131 84.4737 30.7419Z"
          fill="#F7CB78"/>
    <path d="M83.4415 31.5634C83.374 31.5184 83.2803 31.5372 83.2353 31.6084C83.1903 31.6759 83.209 31.7697 83.2803 31.8147C83.3478 31.8597 83.4415 31.8409 83.4865 31.7697C83.5278 31.6984 83.509 31.6084 83.4415 31.5634Z"
          fill="#F7CB78"/>
    <path d="M82.9273 32.8311C82.8448 32.8311 82.7773 32.8986 82.7773 32.9811C82.7773 33.0636 82.8448 33.1311 82.9273 33.1311C83.0098 33.1311 83.0773 33.0636 83.0773 32.9811C83.0773 32.8986 83.0098 32.8311 82.9273 32.8311Z"
          fill="#F7CB78"/>
    <path d="M83.1895 34.3048C83.1295 34.3648 83.1295 34.4585 83.1895 34.5148C83.2495 34.5748 83.3433 34.5748 83.3995 34.5148C83.4595 34.4548 83.4595 34.361 83.3995 34.3048C83.3433 34.2448 83.2458 34.2448 83.1895 34.3048Z"
          fill="#F7CB78"/>
    <path d="M84.127 35.2414C84.067 35.3014 84.067 35.3952 84.127 35.4514C84.187 35.5114 84.2808 35.5114 84.337 35.4514C84.397 35.3914 84.397 35.2977 84.337 35.2414C84.2808 35.1852 84.1833 35.1852 84.127 35.2414Z"
          fill="#F7CB78"/>
    <path d="M85.4922 32.9811C85.4922 32.8986 85.5597 32.8311 85.6422 32.8311C85.7247 32.8311 85.7922 32.8986 85.7922 32.9811C85.7922 33.0636 85.7247 33.1311 85.6422 33.1311C85.5597 33.1311 85.4922 33.0636 85.4922 32.9811Z"
          fill="#F7CB78"/>
    <path d="M85.6623 31.1172H85.6211V32.9809H85.6623V31.1172Z" fill="#F7CB78"/>
    <path d="M86.5702 32.156L85.582 32.9316L85.6584 33.029L86.6466 32.2534L86.5702 32.156Z" fill="#F7CB78"/>
</svg>
