<svg width="100%" height="100%" viewBox="0 0 120 120" fill="none" xmlns="http://www.w3.org/2000/svg">
    <path d="M0 4C0 1.79086 1.79086 0 4 0H116C118.209 0 120 1.79086 120 4V116C120 118.209 118.209 120 116 120H4C1.79086 120 0 118.209 0 116V4Z"
          fill="#F5FAFF"/>
    <path d="M94.392 33.6727C95.5875 32.0737 94.7857 29.4534 92.6012 27.8201C90.4166 26.1868 87.6766 26.1591 86.4811 27.7581C85.2856 29.3571 86.0873 31.9774 88.2718 33.6106C90.4564 35.2439 93.1965 35.2717 94.392 33.6727Z"
          fill="#E1F1E3"/>
    <path d="M81.8438 35.944C81.9638 35.809 81.9826 35.599 81.9113 35.434C81.8401 35.269 81.6938 35.1415 81.5326 35.0628C81.3676 34.9878 81.1876 34.954 81.0076 34.9353C80.7113 34.9053 80.4001 34.9128 80.1188 35.014C80.3138 34.6203 80.5388 34.2415 80.7901 33.8815C80.8126 33.8478 80.8351 33.8178 80.8613 33.784C81.1051 33.9828 81.3488 34.1815 81.5926 34.3765C81.7538 34.5078 81.9226 34.6428 82.1213 34.7065C82.3201 34.7703 82.5638 34.7403 82.7026 34.5828C82.8226 34.4478 82.8413 34.2378 82.7701 34.0728C82.6988 33.9078 82.5526 33.7803 82.3913 33.7015C82.2301 33.6228 82.0463 33.5928 81.8663 33.574C81.5588 33.544 81.2363 33.5515 80.9513 33.664C81.2438 33.274 81.5701 32.9065 81.9226 32.569C82.1776 32.7603 82.4326 32.9515 82.6838 33.1428C82.8526 33.2703 83.0251 33.3978 83.2276 33.4503C83.4301 33.5028 83.6701 33.469 83.8051 33.304C83.9213 33.1653 83.9288 32.9553 83.8538 32.7903C83.7788 32.6253 83.6251 32.5053 83.4601 32.434C83.2951 32.3628 83.1113 32.3403 82.9313 32.329C82.6426 32.3103 82.3426 32.329 82.0726 32.4303C82.3351 32.194 82.6088 31.969 82.8976 31.7665C82.9838 31.7065 83.0701 31.6465 83.1563 31.5903C83.4226 31.7778 83.6926 31.9653 83.9588 32.1528C84.1313 32.2728 84.3076 32.3965 84.5101 32.4415C84.7126 32.4903 84.9526 32.4453 85.0801 32.2765C85.1888 32.134 85.1926 31.924 85.1101 31.7628C85.0276 31.6015 84.8738 31.4853 84.7051 31.4215C84.5363 31.3578 84.3526 31.339 84.1726 31.3315C83.9138 31.324 83.6476 31.3465 83.4038 31.429C83.7076 31.2453 84.0226 31.084 84.3488 30.9415C84.6676 30.979 84.9826 31.0165 85.3013 31.0503C85.5076 31.0728 85.7251 31.099 85.9238 31.0428C86.1263 30.9865 86.3176 30.8328 86.3476 30.6265C86.3776 30.4465 86.2801 30.2628 86.1301 30.1615C85.9801 30.0603 85.7888 30.0303 85.6088 30.0528C85.4288 30.0753 85.2601 30.1465 85.0988 30.229C84.7988 30.379 84.5138 30.5778 84.3301 30.8553H84.3263C83.9813 31.0053 83.6438 31.1815 83.3213 31.3765C83.4901 31.1665 83.6026 30.9078 83.6776 30.649C83.7301 30.4765 83.7713 30.2965 83.7601 30.1165C83.7526 29.9365 83.6926 29.7528 83.5651 29.6253C83.4376 29.4978 83.2388 29.434 83.0663 29.4903C82.8676 29.5578 82.7513 29.7715 82.7288 29.9815C82.7101 30.1915 82.7701 30.3978 82.8301 30.5965C82.9201 30.9003 83.0138 31.2078 83.1038 31.5115C82.7176 31.7628 82.3501 32.0478 82.0051 32.3553C82.1288 32.1003 82.1776 31.8078 82.1888 31.5228C82.1963 31.3428 82.1888 31.159 82.1363 30.9865C82.0838 30.814 81.9788 30.6528 81.8251 30.559C81.6713 30.4653 81.4613 30.454 81.3113 30.5515C81.1351 30.6678 81.0751 30.904 81.1088 31.1103C81.1426 31.3165 81.2513 31.5003 81.3601 31.6803C81.5251 31.954 81.6901 32.2278 81.8513 32.4978C81.8401 32.509 81.8288 32.5165 81.8213 32.5278C81.4763 32.8578 81.1613 33.2178 80.8726 33.6003C80.9738 33.3003 80.9663 32.9665 80.9138 32.6515C80.8838 32.4715 80.8426 32.2953 80.7563 32.134C80.6701 31.9765 80.5351 31.8378 80.3626 31.7778C80.1901 31.7178 79.9838 31.7478 79.8563 31.8753C79.7101 32.0253 79.6951 32.269 79.7701 32.464C79.8451 32.659 79.9913 32.8203 80.1301 32.974C80.3513 33.214 80.5763 33.4578 80.7976 33.6978C80.7938 33.7015 80.7901 33.709 80.7863 33.7128H80.7788C80.7826 33.7128 80.7826 33.7165 80.7863 33.7165C80.5126 34.0915 80.2726 34.489 80.0626 34.9053C80.0401 34.6203 79.9351 34.3428 79.8001 34.0878C79.7138 33.9228 79.6163 33.7653 79.4813 33.6415C79.3463 33.5178 79.1701 33.4278 78.9863 33.424C78.8026 33.4203 78.6113 33.514 78.5288 33.679C78.4351 33.8703 78.4988 34.1103 78.6338 34.2753C78.7688 34.4403 78.9601 34.549 79.1476 34.6503C79.4138 34.7965 79.6763 34.9428 79.9426 35.089C79.9501 35.0965 79.9576 35.1003 79.9651 35.1078C79.7476 35.569 79.5713 36.0528 79.4401 36.5478C79.4251 36.6003 79.5038 36.6303 79.5188 36.5778C79.6463 36.0903 79.8188 35.6178 80.0326 35.164C80.2651 35.3515 80.4938 35.539 80.7263 35.7265C80.8876 35.8578 81.0563 35.9928 81.2551 36.0565C81.4613 36.1278 81.7051 36.1015 81.8438 35.944Z"
          fill="#1E8161"/>
    <path d="M26.7201 80.4333C26.6001 80.2983 26.5814 80.0883 26.6526 79.9233C26.7239 79.7583 26.8701 79.6308 27.0314 79.552C27.1964 79.4733 27.3764 79.4433 27.5564 79.4245C27.8526 79.3945 28.1639 79.4021 28.4451 79.5033C28.2501 79.1096 28.0251 78.7308 27.7739 78.3708C27.7514 78.337 27.7289 78.3071 27.7026 78.2733C27.4589 78.4721 27.2151 78.6708 26.9714 78.8658C26.8101 78.9971 26.6414 79.132 26.4426 79.1958C26.2439 79.2595 26.0001 79.2296 25.8614 79.0721C25.7414 78.9371 25.7226 78.727 25.7939 78.562C25.8651 78.397 26.0114 78.2696 26.1726 78.1908C26.3376 78.1121 26.5176 78.082 26.6976 78.0633C27.0051 78.0333 27.3276 78.0408 27.6126 78.1533C27.3201 77.7633 26.9939 77.3958 26.6414 77.0583C26.3864 77.2495 26.1314 77.4408 25.8801 77.632C25.7114 77.7595 25.5389 77.887 25.3364 77.9395C25.1339 77.992 24.8939 77.9583 24.7589 77.7933C24.6426 77.6545 24.6351 77.4446 24.7101 77.2796C24.7851 77.1146 24.9389 76.9946 25.1039 76.9233C25.2689 76.8521 25.4526 76.8295 25.6326 76.8183C25.9214 76.7995 26.2214 76.8183 26.4914 76.9195C26.2289 76.6833 25.9551 76.4583 25.6664 76.2558C25.5801 76.1958 25.4939 76.1358 25.4076 76.0796C25.1414 76.2671 24.8714 76.4546 24.6051 76.6421C24.4326 76.7621 24.2564 76.8858 24.0539 76.9308C23.8514 76.9795 23.6114 76.9345 23.4839 76.7658C23.3751 76.6233 23.3714 76.4133 23.4539 76.2521C23.5364 76.0908 23.6901 75.9746 23.8589 75.9108C24.0276 75.8471 24.2114 75.8283 24.3914 75.8208C24.6501 75.8133 24.9164 75.8358 25.1601 75.9183C24.8564 75.7345 24.5414 75.5733 24.2151 75.4308C23.8964 75.4683 23.5814 75.5058 23.2626 75.5396C23.0564 75.5621 22.8389 75.5883 22.6401 75.532C22.4376 75.4758 22.2464 75.322 22.2164 75.1158C22.1864 74.9358 22.2839 74.752 22.4339 74.6508C22.5839 74.5495 22.7751 74.5196 22.9551 74.5421C23.1351 74.5646 23.3039 74.6358 23.4651 74.7183C23.7651 74.8683 24.0501 75.067 24.2339 75.3445H24.2376C24.5826 75.4945 24.9201 75.6708 25.2426 75.8658C25.0739 75.6558 24.9614 75.397 24.8864 75.1383C24.8339 74.9658 24.7926 74.7858 24.8039 74.6058C24.8114 74.4258 24.8714 74.2421 24.9989 74.1146C25.1264 73.9871 25.3251 73.9233 25.4976 73.9796C25.6964 74.0471 25.8126 74.2608 25.8351 74.4708C25.8576 74.6808 25.7939 74.8871 25.7339 75.0858C25.6439 75.3896 25.5501 75.697 25.4601 76.0008C25.8464 76.252 26.2139 76.537 26.5589 76.8445C26.4351 76.5895 26.3864 76.297 26.3751 76.012C26.3676 75.832 26.3751 75.6483 26.4276 75.4758C26.4801 75.3033 26.5851 75.1421 26.7389 75.0483C26.8926 74.9546 27.1026 74.9433 27.2526 75.0408C27.4289 75.157 27.4889 75.3933 27.4551 75.5995C27.4214 75.8058 27.3126 75.9895 27.2039 76.1695C27.0389 76.4433 26.8739 76.717 26.7126 76.987C26.7239 76.9983 26.7351 77.0058 26.7426 77.0171C27.0876 77.3471 27.4026 77.707 27.6914 78.0895C27.5901 77.7895 27.5976 77.4558 27.6501 77.1408C27.6801 76.9608 27.7214 76.7846 27.8076 76.6233C27.8939 76.4658 28.0289 76.3271 28.2014 76.2671C28.3739 76.2071 28.5801 76.2371 28.7076 76.3646C28.8539 76.5146 28.8689 76.7583 28.7939 76.9533C28.7189 77.1483 28.5726 77.3095 28.4339 77.4633C28.2126 77.7033 27.9876 77.947 27.7664 78.187C27.7701 78.1908 27.7739 78.1983 27.7776 78.202H27.7851C27.7814 78.202 27.7814 78.2058 27.7776 78.2058C28.0514 78.5808 28.2914 78.9783 28.5014 79.3945C28.5239 79.1095 28.6289 78.832 28.7639 78.577C28.8501 78.412 28.9476 78.2545 29.0826 78.1308C29.2176 78.007 29.3939 77.917 29.5776 77.9133C29.7614 77.9095 29.9526 78.0033 30.0351 78.1683C30.1289 78.3595 30.0651 78.5995 29.9301 78.7645C29.7951 78.9295 29.6039 79.0383 29.4164 79.1395C29.1501 79.2858 28.8876 79.4321 28.6214 79.5783C28.6139 79.5858 28.6064 79.5896 28.5989 79.5971C28.8164 80.0583 28.9926 80.542 29.1239 81.037C29.1389 81.0895 29.0601 81.1196 29.0451 81.0671C28.9176 80.5796 28.7451 80.1071 28.5314 79.6533C28.2989 79.8408 28.0701 80.0283 27.8376 80.2158C27.6764 80.3471 27.5076 80.482 27.3089 80.5458C27.1026 80.617 26.8589 80.5908 26.7201 80.4333Z"
          fill="#1E8161"/>
    <path d="M25.5807 51.7685C26.4594 48.4577 25.6918 45.3811 23.8662 44.8966C22.0407 44.4121 19.8485 46.7033 18.9698 50.0141C18.0912 53.3249 18.8588 56.4015 20.6843 56.886C22.5099 57.3705 24.7021 55.0793 25.5807 51.7685Z"
          fill="#E1F1E3"/>
    <path d="M36.6491 74.88C29.4041 73.0913 27.3828 70.7663 27.3828 65.6588C27.3828 60.9113 31.4778 58.6688 33.3041 52.695C34.8941 47.4938 30.6003 42.8213 33.5178 36.8438C37.3991 28.8938 43.5903 31.4663 49.3803 30.7238C54.1128 30.1163 55.6278 28.23 60.4128 26.1638C69.9491 22.0463 75.1091 28.0688 77.9853 36.66C79.8191 42.135 90.7278 39.45 91.6766 49.29C92.1303 54.0038 88.4928 56.3363 90.0078 60.975C91.3391 65.0438 92.7641 68.8725 88.2453 72.2888C84.0003 75.4988 78.7878 71.0925 73.0203 71.2538C66.8816 71.4225 61.7478 78.15 54.9603 75.8625C45.3941 72.645 42.0266 76.2075 36.6491 74.88Z"
          fill="#E1F1E3"/>
    <path d="M84.2093 62.3956C84.1755 62.3993 84.1455 62.3806 84.138 62.3506C84.1305 62.3206 84.1568 62.2906 84.1943 62.2831C84.393 62.2493 84.5955 62.2118 84.798 62.1706C84.8355 62.1631 84.8692 62.1818 84.8767 62.2156C84.8842 62.2456 84.8618 62.2793 84.8243 62.2831C84.6218 62.3243 84.4155 62.3618 84.213 62.3956C84.213 62.3918 84.2093 62.3918 84.2093 62.3956Z"
          fill="#2E3552"/>
    <path d="M86.0145 62.002C85.9845 62.0058 85.9545 61.987 85.947 61.9608C85.9358 61.9308 85.9583 61.897 85.992 61.8895C86.3783 61.7883 86.772 61.6683 87.162 61.5445C87.1958 61.5333 87.2333 61.5483 87.2445 61.5783C87.2558 61.6083 87.237 61.642 87.2033 61.6533C86.8095 61.7808 86.412 61.897 86.0258 62.002C86.022 61.9983 86.0183 62.002 86.0145 62.002ZM88.3395 61.2445C88.3133 61.2483 88.2833 61.2333 88.272 61.2108C88.257 61.1808 88.2758 61.147 88.3095 61.1358C88.6845 60.9895 89.0633 60.8358 89.4308 60.6708C89.4645 60.6558 89.502 60.667 89.5208 60.697C89.5358 60.727 89.5245 60.7608 89.4908 60.7758C89.1195 60.9408 88.7408 61.0983 88.362 61.2408C88.3545 61.2408 88.347 61.2445 88.3395 61.2445ZM90.5558 60.2583C90.5295 60.262 90.507 60.2508 90.492 60.232C90.4733 60.2058 90.4845 60.1683 90.5183 60.1533C90.8783 59.9695 91.2345 59.7783 91.572 59.5833C91.602 59.5645 91.6433 59.572 91.662 59.5983C91.6808 59.6245 91.6733 59.662 91.6433 59.677C91.302 59.8758 90.942 60.067 90.582 60.2508C90.5745 60.2545 90.567 60.2583 90.5558 60.2583ZM92.6333 59.0583C92.6108 59.062 92.5883 59.0545 92.5733 59.0358C92.5508 59.0095 92.5583 58.9758 92.5883 58.9533C92.9258 58.732 93.2483 58.5033 93.552 58.2708C93.5783 58.2483 93.6233 58.252 93.6458 58.2745C93.6683 58.297 93.6645 58.3345 93.6383 58.357C93.3308 58.5895 93.0045 58.822 92.667 59.0433C92.6558 59.0545 92.6445 59.0583 92.6333 59.0583ZM94.5083 57.6258C94.4895 57.6258 94.4708 57.622 94.4558 57.6108C94.4295 57.5883 94.4295 57.5508 94.4558 57.5283C94.752 57.262 95.0295 56.992 95.2808 56.722C95.3033 56.6958 95.3445 56.692 95.3745 56.7108C95.4045 56.7295 95.4083 56.767 95.382 56.7933C95.1308 57.067 94.8495 57.3408 94.5495 57.6108C94.5383 57.6183 94.5233 57.6258 94.5083 57.6258ZM96.0645 55.9308C96.0495 55.9308 96.0345 55.9308 96.0233 55.9233C95.9933 55.9083 95.982 55.8708 96.0045 55.8445C96.2295 55.5295 96.4245 55.207 96.582 54.8958C96.597 54.8658 96.6345 54.8508 96.6683 54.8658C96.702 54.877 96.717 54.9108 96.702 54.9408C96.5445 55.2595 96.3458 55.5858 96.117 55.9083C96.102 55.9195 96.0833 55.9308 96.0645 55.9308ZM97.0245 53.947C97.017 53.947 97.0133 53.947 97.0058 53.947C96.9683 53.9395 96.9458 53.9095 96.9533 53.8795C97.0395 53.5233 97.0808 53.1708 97.0695 52.8258C97.0695 52.7958 97.0958 52.7658 97.1333 52.7658C97.1708 52.7658 97.2008 52.7883 97.2008 52.822C97.212 53.1745 97.1708 53.5383 97.0808 53.902C97.077 53.9245 97.0545 53.9433 97.0245 53.947ZM96.9533 51.8283C96.9233 51.832 96.8933 51.8133 96.8858 51.787C96.777 51.4608 96.6158 51.1345 96.4095 50.827C96.3908 50.8008 96.402 50.7633 96.4358 50.7483C96.4658 50.7333 96.507 50.7408 96.5258 50.767C96.7358 51.0858 96.9008 51.4158 97.0133 51.7533C97.0245 51.7833 97.002 51.817 96.9683 51.8245C96.9645 51.8245 96.957 51.8283 96.9533 51.8283ZM95.7645 49.9945C95.7458 49.9983 95.7233 49.9908 95.7083 49.9758C95.6258 49.8933 95.5395 49.8108 95.4495 49.732C95.2695 49.567 95.0633 49.4095 94.842 49.2595C94.812 49.2408 94.8083 49.2033 94.8308 49.177C94.8533 49.1508 94.8945 49.147 94.9245 49.1658C95.1495 49.3195 95.3595 49.4808 95.5433 49.6495C95.6333 49.732 95.7233 49.8145 95.8058 49.9008C95.8283 49.9233 95.8245 49.9608 95.7983 49.9833C95.7908 49.987 95.7758 49.9945 95.7645 49.9945ZM93.8745 48.6933C93.8633 48.6933 93.8483 48.6933 93.837 48.6858C93.5033 48.5283 93.1358 48.3745 92.7458 48.2358C92.712 48.2245 92.697 48.1908 92.712 48.1608C92.727 48.1308 92.7645 48.1158 92.7983 48.127C93.1958 48.2695 93.567 48.4195 93.9045 48.5808C93.9345 48.5958 93.9458 48.6295 93.9308 48.6595C93.9158 48.682 93.897 48.6933 93.8745 48.6933ZM91.6283 47.887C91.6208 47.887 91.6095 47.887 91.602 47.8833C91.2345 47.782 90.837 47.6883 90.4283 47.602C90.3945 47.5945 90.372 47.5645 90.3833 47.5308C90.3945 47.5008 90.4283 47.482 90.4658 47.4895C90.8783 47.5758 91.2758 47.6733 91.647 47.7745C91.6808 47.7858 91.6995 47.8158 91.6883 47.8458C91.677 47.8683 91.6545 47.8833 91.6283 47.887ZM89.2508 47.377C89.2433 47.377 89.2395 47.377 89.232 47.377C88.8458 47.3133 88.4408 47.2533 88.0245 47.197C87.987 47.1933 87.9645 47.1633 87.972 47.1295C87.9795 47.0995 88.0133 47.077 88.047 47.0808C88.4633 47.137 88.872 47.197 89.2583 47.2608C89.2958 47.2683 89.3183 47.2983 89.3108 47.3283C89.3033 47.3545 89.2808 47.3733 89.2508 47.377ZM86.8245 47.0583C86.8208 47.0583 86.8133 47.0583 86.8095 47.0583C86.4158 47.017 86.0033 46.9795 85.587 46.9495C85.5495 46.9458 85.5233 46.9195 85.527 46.8858C85.5308 46.8558 85.5645 46.8295 85.602 46.8333C86.0183 46.867 86.4308 46.9045 86.8245 46.942C86.862 46.9458 86.8845 46.9758 86.8808 47.0058C86.8808 47.032 86.8545 47.0545 86.8245 47.0583ZM84.3758 46.8633C84.372 46.8633 84.3683 46.8633 84.3645 46.8633C83.9708 46.8408 83.5583 46.8183 83.1383 46.8033C83.1008 46.8033 83.0745 46.7733 83.0783 46.7433C83.082 46.7095 83.112 46.687 83.1495 46.687C83.5695 46.7058 83.982 46.7245 84.3795 46.747C84.417 46.7508 84.4433 46.777 84.4395 46.807C84.432 46.837 84.4095 46.8595 84.3758 46.8633ZM81.9195 46.7583C81.9158 46.7583 81.912 46.7583 81.912 46.7583C81.5108 46.747 81.0983 46.7395 80.682 46.732C80.6445 46.732 80.6183 46.7058 80.6183 46.672C80.6183 46.6383 80.652 46.6158 80.6858 46.6158C81.102 46.6233 81.5183 46.6308 81.9195 46.642C81.957 46.642 81.9833 46.6683 81.9833 46.702C81.9758 46.732 81.9495 46.7545 81.9195 46.7583ZM79.4558 46.7208C79.452 46.7208 79.452 46.7208 79.4483 46.7208C79.0433 46.7208 78.6308 46.7208 78.2183 46.7208C78.1808 46.7208 78.1508 46.6945 78.1545 46.6645C78.1545 46.6308 78.1845 46.6045 78.222 46.6083C78.6383 46.6045 79.0508 46.6045 79.4558 46.6083C79.4933 46.6083 79.5195 46.6345 79.5195 46.6645C79.5158 46.6945 79.4895 46.717 79.4558 46.7208ZM76.9883 46.732C76.9845 46.732 76.9845 46.732 76.9808 46.732C76.572 46.7358 76.1633 46.7433 75.747 46.7545C75.7095 46.7545 75.6795 46.7283 75.6795 46.6983C75.6795 46.6645 75.7095 46.6383 75.747 46.6383C76.1595 46.6308 76.572 46.6233 76.9808 46.6158C77.0183 46.6158 77.0483 46.642 77.0445 46.672C77.052 46.7058 77.022 46.7283 76.9883 46.732ZM74.5245 46.7845C74.112 46.7958 73.7033 46.807 73.287 46.822C73.2495 46.822 73.2195 46.7995 73.2195 46.7658C73.2195 46.732 73.2495 46.7095 73.2833 46.7058C73.6958 46.6908 74.1083 46.6795 74.517 46.6683C74.5545 46.6683 74.5845 46.6908 74.5845 46.7245C74.5845 46.7545 74.5583 46.7808 74.5245 46.7845ZM72.0608 46.867C71.6483 46.882 71.2358 46.9008 70.8233 46.9158C70.7858 46.9158 70.7558 46.8933 70.7558 46.8595C70.7558 46.8295 70.7858 46.7995 70.8195 46.7995C71.232 46.7808 71.6445 46.7658 72.0533 46.7508C72.0908 46.7508 72.1208 46.7733 72.1208 46.807C72.1208 46.837 72.0945 46.8633 72.0608 46.867ZM69.597 46.972C69.5933 46.972 69.5933 46.972 69.597 46.972C69.1845 46.9908 68.772 47.0095 68.3633 47.032C68.3258 47.032 68.2958 47.0095 68.2958 46.9758C68.2958 46.942 68.322 46.9158 68.3595 46.9158C68.772 46.897 69.1808 46.8745 69.5933 46.8558C69.6308 46.8558 69.6608 46.8783 69.6608 46.912C69.657 46.942 69.6308 46.9683 69.597 46.972ZM67.1333 47.092C67.1295 47.092 67.1295 47.092 67.1333 47.092C66.7208 47.1145 66.3083 47.137 65.8995 47.1595C65.862 47.1633 65.832 47.137 65.832 47.107C65.832 47.077 65.8583 47.047 65.8958 47.047C66.3083 47.0245 66.717 47.002 67.1258 46.9795C67.1633 46.9758 67.1933 47.002 67.1933 47.032C67.1933 47.062 67.167 47.0883 67.1333 47.092ZM64.6695 47.227C64.257 47.2495 63.8445 47.2758 63.4358 47.2983C63.3983 47.302 63.3683 47.2758 63.3683 47.2458C63.3683 47.2158 63.3945 47.1858 63.432 47.1858C63.8445 47.1633 64.2533 47.137 64.662 47.1145C64.6995 47.1108 64.7295 47.137 64.7295 47.167C64.7333 47.197 64.707 47.2233 64.6695 47.227ZM62.2058 47.3695C61.7933 47.3958 61.3808 47.4183 60.972 47.4445C60.9345 47.4483 60.9045 47.422 60.9045 47.392C60.9045 47.362 60.9308 47.332 60.9683 47.332C61.377 47.3058 61.7895 47.2833 62.1983 47.257C62.2358 47.2533 62.2658 47.2795 62.2658 47.3095C62.2695 47.3395 62.2395 47.3658 62.2058 47.3695ZM59.742 47.5195L58.5083 47.5945C58.4708 47.5983 58.4408 47.572 58.4408 47.542C58.4408 47.512 58.467 47.482 58.5045 47.482L59.7345 47.407C59.772 47.4033 59.802 47.4295 59.802 47.4595C59.8058 47.4895 59.7795 47.5158 59.742 47.5195ZM57.282 47.6658C57.2783 47.6658 57.2783 47.6658 57.282 47.6658C56.8695 47.692 56.457 47.7145 56.0483 47.737C56.0108 47.7408 55.9808 47.7145 55.9808 47.6845C55.9808 47.6545 56.007 47.6208 56.0445 47.6245C56.4533 47.602 56.8658 47.5758 57.2745 47.5533C57.312 47.5495 57.342 47.5758 57.342 47.6058C57.342 47.6358 57.3158 47.662 57.282 47.6658ZM54.8183 47.8083C54.8183 47.812 54.8145 47.812 54.8183 47.8083C54.402 47.8308 53.9933 47.857 53.5845 47.8795C53.547 47.8833 53.517 47.857 53.517 47.827C53.517 47.797 53.5433 47.767 53.5808 47.767C53.9895 47.7445 54.402 47.722 54.8108 47.6995C54.8483 47.6958 54.8783 47.722 54.8783 47.752C54.8783 47.7783 54.852 47.8083 54.8183 47.8083ZM52.3545 47.947C52.3545 47.947 52.3508 47.947 52.3545 47.947C51.9383 47.9695 51.5295 47.992 51.1208 48.0108C51.0833 48.0108 51.0533 47.9883 51.0533 47.9583C51.0533 47.9245 51.0795 47.8983 51.117 47.8983C51.5258 47.8795 51.9345 47.857 52.347 47.8345C52.3845 47.8308 52.4145 47.857 52.4145 47.887C52.4145 47.917 52.3883 47.9433 52.3545 47.947ZM49.8908 48.0708C49.8908 48.0708 49.887 48.0708 49.8908 48.0708C49.4745 48.0895 49.062 48.1083 48.6533 48.127C48.6158 48.127 48.5858 48.1045 48.5858 48.0708C48.5858 48.0408 48.612 48.0108 48.6495 48.0108C49.0583 47.992 49.467 47.9733 49.8833 47.9545C49.9208 47.9545 49.9508 47.977 49.9508 48.0108C49.9508 48.0408 49.9245 48.067 49.8908 48.0708ZM47.427 48.1758C47.0108 48.1908 46.5983 48.2058 46.1895 48.2208C46.152 48.2208 46.122 48.1983 46.122 48.1645C46.122 48.1308 46.152 48.1045 46.1858 48.1045C46.5945 48.0895 47.0033 48.0783 47.4195 48.0595C47.457 48.0595 47.487 48.082 47.487 48.1158C47.487 48.1458 47.4608 48.172 47.427 48.1758ZM44.9595 48.2545C44.5395 48.2658 44.1308 48.2733 43.722 48.2808C43.6845 48.2808 43.6545 48.2545 43.6545 48.2245C43.6545 48.1908 43.6845 48.1645 43.722 48.1645C44.127 48.157 44.5395 48.1495 44.9558 48.1383C44.9933 48.1383 45.0233 48.1608 45.0233 48.1945C45.0195 48.2245 44.9933 48.2508 44.9595 48.2545ZM42.4958 48.2995C42.492 48.2995 42.492 48.2995 42.4883 48.2995C42.0683 48.3033 41.652 48.307 41.2545 48.307C41.217 48.307 41.1908 48.2808 41.1908 48.2508C41.1908 48.217 41.2208 48.1908 41.2583 48.1945C41.6558 48.1945 42.0683 48.1908 42.4883 48.187C42.5258 48.187 42.5558 48.2133 42.552 48.2433C42.5558 48.2695 42.5295 48.2958 42.4958 48.2995ZM40.032 48.2958C40.0283 48.2958 40.0283 48.2958 40.0245 48.2958C39.6045 48.292 39.1883 48.2845 38.7908 48.2733C38.7533 48.2733 38.727 48.247 38.727 48.2133C38.7308 48.1795 38.7608 48.157 38.7983 48.157C39.1958 48.1683 39.6083 48.1758 40.0283 48.1795C40.0658 48.1795 40.092 48.2058 40.092 48.2395C40.0883 48.2695 40.062 48.2958 40.032 48.2958ZM37.5683 48.232C37.5645 48.232 37.5608 48.232 37.557 48.232C37.137 48.2133 36.7245 48.1908 36.327 48.1683C36.2895 48.1645 36.2633 48.1383 36.267 48.1083C36.2708 48.0783 36.3045 48.052 36.3383 48.0558C36.732 48.082 37.1445 48.1008 37.5645 48.1195C37.602 48.1195 37.6283 48.1495 37.6245 48.1795C37.6283 48.2058 37.602 48.2283 37.5683 48.232ZM35.1158 48.0745C35.112 48.0745 35.1083 48.0745 35.1008 48.0745C34.677 48.037 34.2683 47.9958 33.8783 47.9508C33.8408 47.947 33.8183 47.917 33.822 47.887C33.8295 47.857 33.8633 47.8345 33.897 47.8383C34.2833 47.8833 34.692 47.9283 35.1158 47.962C35.1533 47.9658 35.1795 47.992 35.172 48.0258C35.172 48.052 35.1458 48.0745 35.1158 48.0745ZM32.6858 47.782C32.6783 47.782 32.6745 47.782 32.667 47.782C32.247 47.7145 31.842 47.6395 31.467 47.557C31.4333 47.5495 31.4108 47.5195 31.422 47.4858C31.4333 47.4558 31.467 47.437 31.5045 47.4445C31.8795 47.5233 32.2808 47.5983 32.697 47.6658C32.7345 47.6733 32.757 47.7033 32.7495 47.7333C32.7383 47.7633 32.712 47.782 32.6858 47.782ZM30.3158 47.2645C30.3083 47.2645 30.297 47.2645 30.2895 47.2608C29.8808 47.1408 29.4983 47.0058 29.157 46.8633C29.1233 46.8483 29.112 46.8145 29.127 46.7845C29.142 46.7545 29.1833 46.7433 29.217 46.7583C29.5545 46.9008 29.9295 47.032 30.3345 47.152C30.3683 47.1633 30.387 47.1933 30.3758 47.227C30.3645 47.2458 30.342 47.2608 30.3158 47.2645ZM28.1595 46.3345C28.1445 46.3345 28.1258 46.3308 28.1145 46.3233C27.7695 46.102 27.477 45.8545 27.252 45.592C27.2295 45.5658 27.237 45.532 27.267 45.5095C27.297 45.4908 27.3383 45.4945 27.3608 45.5208C27.582 45.7758 27.8633 46.012 28.197 46.2295C28.227 46.2483 28.2308 46.2858 28.2083 46.312C28.1933 46.3233 28.1783 46.3308 28.1595 46.3345ZM26.757 44.677C26.727 44.6808 26.7008 44.6658 26.6895 44.6395C26.5508 44.302 26.4458 43.9495 26.3745 43.6008C26.367 43.5708 26.3933 43.5408 26.427 43.5333C26.4645 43.5258 26.4983 43.5483 26.502 43.5783C26.5695 43.9233 26.6745 44.2645 26.8095 44.5983C26.8208 44.6283 26.802 44.662 26.7683 44.6733C26.7683 44.6733 26.7608 44.6733 26.757 44.677ZM26.3445 42.5808C26.3408 42.5808 26.3408 42.5808 26.337 42.5808C26.2995 42.5808 26.2695 42.5545 26.2695 42.5245C26.2733 42.1683 26.3108 41.8083 26.382 41.4483C26.3895 41.4183 26.4233 41.3958 26.457 41.3995C26.4945 41.4033 26.517 41.4333 26.5095 41.4633C26.4383 41.8195 26.4008 42.1758 26.4008 42.5208C26.4045 42.5545 26.3783 42.577 26.3445 42.5808ZM26.757 40.4695C26.7495 40.4695 26.7383 40.4695 26.7308 40.4658C26.697 40.4583 26.6783 40.4245 26.6895 40.3945C26.817 40.0608 26.9745 39.7195 27.1583 39.3858C27.1733 39.3558 27.2145 39.3445 27.2483 39.3558C27.282 39.367 27.2933 39.4045 27.2783 39.4308C27.0983 39.7608 26.9408 40.0945 26.817 40.4283C26.8058 40.4508 26.7833 40.4658 26.757 40.4695ZM27.8183 38.5158C27.8033 38.5158 27.792 38.5158 27.777 38.5083C27.747 38.4933 27.7358 38.4558 27.7545 38.4295C27.9683 38.1295 28.2083 37.8258 28.4633 37.5295C28.4858 37.5033 28.527 37.4995 28.557 37.5183C28.587 37.537 28.5908 37.5745 28.5683 37.6008C28.3133 37.8933 28.077 38.1933 27.867 38.4895C27.8595 38.5045 27.8408 38.512 27.8183 38.5158ZM29.3183 36.7833C29.2995 36.7833 29.2808 36.7795 29.2695 36.7683C29.2433 36.7458 29.2395 36.712 29.2658 36.6858C29.5358 36.4195 29.8283 36.157 30.132 35.8983C30.1583 35.8758 30.1995 35.8758 30.2258 35.8983C30.252 35.9208 30.2483 35.9583 30.222 35.9808C29.9183 36.2358 29.6295 36.4983 29.3595 36.7608C29.352 36.7758 29.3333 36.7795 29.3183 36.7833ZM31.107 35.2683C31.0845 35.272 31.0658 35.2645 31.0508 35.2495C31.0283 35.227 31.032 35.1895 31.0583 35.167C31.3695 34.9345 31.6958 34.7058 32.0333 34.4845C32.0633 34.4658 32.1045 34.4695 32.127 34.4958C32.1495 34.522 32.142 34.5558 32.112 34.5783C31.7783 34.7995 31.452 35.0283 31.1445 35.257C31.1295 35.2608 31.1183 35.2645 31.107 35.2683ZM33.087 33.9483C33.0645 33.952 33.0383 33.9408 33.027 33.922C33.0083 33.8958 33.0158 33.8583 33.0458 33.8433C33.3833 33.6408 33.7358 33.442 34.092 33.2508C34.122 33.232 34.1633 33.2433 34.182 33.2695C34.2008 33.2958 34.1895 33.3333 34.1595 33.3483C33.8033 33.5395 33.4545 33.7383 33.117 33.937C33.1095 33.9445 33.0983 33.9483 33.087 33.9483ZM35.2058 32.812C35.1795 32.8158 35.1533 32.8045 35.142 32.782C35.1233 32.7558 35.1383 32.7183 35.1683 32.7033C35.5245 32.5308 35.8958 32.3583 36.2708 32.1933C36.3045 32.1783 36.342 32.1895 36.3608 32.2195C36.3758 32.2495 36.3608 32.2833 36.3308 32.2983C35.9595 32.4633 35.5883 32.632 35.2358 32.8045C35.2245 32.8083 35.217 32.8083 35.2058 32.812ZM37.4258 31.8333C37.3995 31.837 37.3695 31.822 37.3583 31.7995C37.3433 31.7695 37.3583 31.7358 37.392 31.7245C37.7633 31.5745 38.1495 31.4283 38.532 31.2895C38.5658 31.2783 38.6033 31.2895 38.6183 31.3195C38.6333 31.3495 38.6145 31.3833 38.5808 31.3945C38.1983 31.5333 37.8158 31.6795 37.4445 31.8258C37.4408 31.8295 37.4333 31.8333 37.4258 31.8333ZM39.7208 31.0045C39.6908 31.0083 39.6645 30.9933 39.6533 30.967C39.642 30.937 39.6608 30.9033 39.6945 30.892C40.0808 30.7683 40.4745 30.6445 40.8645 30.5283C40.8983 30.517 40.9358 30.5358 40.947 30.5658C40.9583 30.5958 40.9395 30.6295 40.902 30.6408C40.512 30.757 40.1183 30.877 39.7358 31.0008C39.732 31.0008 39.7283 31.0008 39.7208 31.0045ZM42.072 30.3108C42.042 30.3145 42.012 30.2958 42.0045 30.2695C41.9933 30.2395 42.0158 30.2058 42.0495 30.1983C42.4433 30.0933 42.8445 29.9958 43.242 29.902C43.2795 29.8945 43.3133 29.9133 43.3208 29.9433C43.3283 29.9733 43.3058 30.007 43.272 30.0145C42.8745 30.1083 42.4733 30.2058 42.0833 30.3108C42.0795 30.3108 42.0758 30.3108 42.072 30.3108ZM44.4645 29.752C44.4308 29.7558 44.4008 29.737 44.3933 29.707C44.3858 29.677 44.4083 29.6433 44.4458 29.6358C44.8433 29.5533 45.252 29.4745 45.657 29.4033C45.6908 29.3958 45.7283 29.4183 45.7358 29.4483C45.7433 29.4783 45.717 29.512 45.6833 29.5158C45.2783 29.587 44.8733 29.6658 44.4758 29.7483C44.472 29.7483 44.4683 29.752 44.4645 29.752ZM46.9658 29.2983C46.932 29.302 46.902 29.2833 46.8945 29.2533C46.887 29.2233 46.9095 29.1895 46.947 29.182C47.3445 29.0995 47.7533 29.0208 48.1583 28.9495C48.192 28.942 48.2295 28.9645 48.237 28.9945C48.2445 29.0245 48.2183 29.0583 48.1845 29.062C47.7795 29.1333 47.3745 29.212 46.977 29.2945C46.9695 29.2983 46.9658 29.2983 46.9658 29.2983ZM49.6845 28.9608C49.6508 28.9608 49.6245 28.9383 49.6208 28.9083C49.617 28.8783 49.6433 28.8483 49.6808 28.8483C50.0858 28.822 50.502 28.7995 50.9108 28.7845C50.9483 28.7808 50.9783 28.807 50.982 28.8408C50.9858 28.8708 50.9558 28.9008 50.9183 28.9008C50.5095 28.9158 50.097 28.9383 49.692 28.9645C49.692 28.9608 49.6883 28.9608 49.6845 28.9608Z"
          fill="#2E3552"/>
    <path d="M38.6308 53.4524L38.9271 57.7312C38.5183 57.4499 38.0758 57.2099 37.6483 56.9662C37.2283 56.7224 36.8121 56.4712 36.4371 56.1562C36.0583 55.8374 35.7621 55.4587 35.5033 55.0387C35.2521 54.6337 35.0196 54.2099 34.6896 53.8612C34.4308 53.5874 34.1121 53.3737 33.7746 53.2049C33.0771 52.8487 32.3083 52.6649 31.6033 52.3312C31.2471 52.1624 30.9096 51.9562 30.6283 51.6824C30.2871 51.3524 30.0358 50.9399 29.7996 50.5312C29.5633 50.1224 29.3383 49.7062 29.0533 49.3312C28.8096 49.0124 28.5171 48.7274 28.1908 48.4912C27.5383 48.0149 26.7696 47.7149 25.9783 47.5649C24.0433 47.1937 22.1008 47.7524 20.2858 48.3824C20.1771 48.4199 20.0721 48.4574 19.9633 48.4949C19.7833 47.3849 21.3696 46.4587 22.3783 46.2412C23.0683 46.0912 23.7883 46.3087 24.4933 46.2637C28.0671 46.0462 30.3583 44.7524 32.1621 48.8137C32.3646 49.2674 32.5408 49.7549 32.9008 50.0999C34.5171 51.4387 38.462 50.3699 38.6308 53.4524Z"
          fill="#1E8161"/>
    <path d="M36.1241 62.2692C33.2553 63.4129 30.2291 60.9829 32.0103 57.6754C33.2666 55.9617 31.5453 54.9679 30.0228 54.6342C29.2653 54.4692 28.3466 54.4579 27.9303 53.8054C27.1916 52.3167 29.1041 50.3179 25.8378 49.6467C23.9966 49.2642 20.6403 50.9779 19.9841 48.6229C19.9803 48.6117 19.9766 48.6004 19.9766 48.5892C21.7016 47.9779 23.5091 47.3854 25.3578 47.5692C26.1678 47.6479 26.9741 47.8729 27.6866 48.2779C28.0353 48.4767 28.3578 48.7167 28.6391 49.0017C28.9541 49.3167 29.2016 49.6879 29.4266 50.0704C29.6666 50.4754 29.8841 50.8954 30.1616 51.2779C30.4053 51.6154 30.6978 51.9042 31.0466 52.1329C31.6766 52.5417 32.4116 52.7479 33.1053 53.0142C33.4578 53.1529 33.8103 53.3067 34.1291 53.5167C34.4928 53.7567 34.7778 54.0717 35.0216 54.4354C35.2841 54.8329 35.5016 55.2567 35.7941 55.6317C36.0791 55.9954 36.4316 56.2954 36.8103 56.5542C37.4928 57.0267 38.2541 57.3717 38.9328 57.8479C38.9291 57.8442 39.3528 60.9829 36.1241 62.2692Z"
          fill="#004C40"/>
    <path d="M38.9284 57.7307L38.9359 57.8395C38.2572 57.3632 37.4959 57.0182 36.8134 56.5457C36.4347 56.287 36.0822 55.987 35.7972 55.6232C35.5047 55.2482 35.2872 54.8207 35.0247 54.427C34.7847 54.0632 34.4959 53.752 34.1322 53.5082C33.8134 53.2982 33.4609 53.1445 33.1084 53.0057C32.4109 52.7357 31.6797 52.5332 31.0497 52.1245C30.7009 51.8957 30.4084 51.607 30.1647 51.2695C29.8872 50.887 29.6697 50.467 29.4297 50.062C29.2047 49.6795 28.9572 49.312 28.6422 48.9932C28.3609 48.7082 28.0347 48.4682 27.6897 48.2695C26.9772 47.8645 26.1709 47.6432 25.3609 47.5607C23.5122 47.377 21.7047 47.9695 19.9797 48.5807C19.9722 48.5507 19.9647 48.5245 19.9609 48.4945C20.0697 48.457 20.1747 48.4195 20.2834 48.382C22.0984 47.752 24.0447 47.1932 25.9759 47.5645C26.7672 47.7145 27.5359 48.0145 28.1884 48.4907C28.5147 48.727 28.8072 49.0082 29.0509 49.3307C29.3397 49.7057 29.5609 50.1257 29.7972 50.5307C30.0334 50.9395 30.2847 51.3482 30.6259 51.682C30.9072 51.9557 31.2447 52.1657 31.6009 52.3307C32.3059 52.6645 33.0747 52.8482 33.7722 53.2045C34.1097 53.3732 34.4247 53.587 34.6872 53.8607C35.0172 54.2095 35.2497 54.6332 35.5009 55.0382C35.7597 55.4582 36.0522 55.837 36.4347 56.1557C36.8097 56.467 37.2259 56.722 37.6459 56.9657C38.0772 57.2132 38.5159 57.4532 38.9284 57.7307Z"
          fill="#035875"/>
    <path d="M38.9284 57.7307L38.9359 57.8395C38.2572 57.3632 37.4959 57.0182 36.8134 56.5457C36.4347 56.287 36.0822 55.987 35.7972 55.6232C35.5047 55.2482 35.2872 54.8207 35.0247 54.427C34.7847 54.0632 34.4959 53.752 34.1322 53.5082C33.8134 53.2982 33.4609 53.1445 33.1084 53.0057C32.4109 52.7357 31.6797 52.5332 31.0497 52.1245C30.7009 51.8957 30.4084 51.607 30.1647 51.2695C29.8872 50.887 29.6697 50.467 29.4297 50.062C29.2047 49.6795 28.9572 49.312 28.6422 48.9932C28.3609 48.7082 28.0347 48.4682 27.6897 48.2695C26.9772 47.8645 26.1709 47.6432 25.3609 47.5607C23.5122 47.377 21.7047 47.9695 19.9797 48.5807C19.9722 48.5507 19.9647 48.5245 19.9609 48.4945C20.0697 48.457 20.1747 48.4195 20.2834 48.382C22.0984 47.752 24.0447 47.1932 25.9759 47.5645C26.7672 47.7145 27.5359 48.0145 28.1884 48.4907C28.5147 48.727 28.8072 49.0082 29.0509 49.3307C29.3397 49.7057 29.5609 50.1257 29.7972 50.5307C30.0334 50.9395 30.2847 51.3482 30.6259 51.682C30.9072 51.9557 31.2447 52.1657 31.6009 52.3307C32.3059 52.6645 33.0747 52.8482 33.7722 53.2045C34.1097 53.3732 34.4247 53.587 34.6872 53.8607C35.0172 54.2095 35.2497 54.6332 35.5009 55.0382C35.7597 55.4582 36.0522 55.837 36.4347 56.1557C36.8097 56.467 37.2259 56.722 37.6459 56.9657C38.0772 57.2132 38.5159 57.4532 38.9284 57.7307Z"
          fill="#2E3552"/>
    <path d="M79.3236 37.9915L79.0273 42.2702C79.4361 41.989 79.8786 41.749 80.3061 41.5052C80.7261 41.2615 81.1423 41.0102 81.5173 40.6952C81.8961 40.3765 82.1923 39.9977 82.4511 39.5777C82.7023 39.1727 82.9348 38.749 83.2648 38.4002C83.5236 38.1265 83.8423 37.9127 84.1798 37.744C84.8773 37.3877 85.6461 37.204 86.3511 36.8702C86.7073 36.7015 87.0448 36.4952 87.3261 36.2215C87.6673 35.8915 87.9186 35.479 88.1548 35.0702C88.3911 34.6615 88.6161 34.2452 88.9011 33.8702C89.1448 33.5515 89.4373 33.2665 89.7636 33.0302C90.4161 32.554 91.1848 32.254 91.9761 32.104C93.9111 31.7327 95.8536 32.2915 97.6686 32.9215C97.7773 32.959 97.8823 32.9965 97.9911 33.034C98.1711 31.924 96.5848 30.9977 95.5761 30.7802C94.8861 30.6302 94.1661 30.8477 93.4611 30.8027C89.8873 30.5852 87.5961 29.2915 85.7923 33.3527C85.5898 33.8065 85.4136 34.294 85.0536 34.639C83.4336 35.9777 79.4886 34.909 79.3236 37.9915Z"
          fill="#1E8161"/>
    <path d="M81.8266 46.8082C84.6954 47.952 87.7216 45.522 85.9404 42.2145C84.6841 40.5007 86.4054 39.507 87.9279 39.1732C88.6854 39.0082 89.6041 38.997 90.0204 38.3445C90.7591 36.8557 88.8466 34.857 92.1129 34.1857C93.9541 33.8032 97.3104 35.517 97.9666 33.162C97.9704 33.1507 97.9742 33.1395 97.9742 33.1282C96.2492 32.517 94.4417 31.9245 92.5929 32.1082C91.7829 32.187 90.9766 32.412 90.2641 32.817C89.9154 33.0157 89.5929 33.2557 89.3117 33.5407C88.9967 33.8557 88.7492 34.227 88.5242 34.6095C88.2842 35.0145 88.0666 35.4345 87.7891 35.817C87.5454 36.1545 87.2529 36.4432 86.9041 36.672C86.2741 37.0807 85.5391 37.287 84.8454 37.5532C84.4929 37.692 84.1404 37.8457 83.8216 38.0557C83.4579 38.2957 83.1729 38.6107 82.9291 38.9745C82.6666 39.372 82.4491 39.7957 82.1566 40.1707C81.8716 40.5345 81.5191 40.8345 81.1404 41.0932C80.4579 41.5657 79.6967 41.9107 79.0179 42.387C79.0179 42.3795 78.5979 45.522 81.8266 46.8082Z"
          fill="#004C40"/>
    <path d="M79.027 42.2698L79.0195 42.3785C79.6983 41.9023 80.4595 41.5573 81.142 41.0848C81.5208 40.826 81.8733 40.526 82.1583 40.1623C82.4508 39.7873 82.6683 39.3598 82.9308 38.966C83.1708 38.6023 83.4595 38.291 83.8233 38.0473C84.142 37.8373 84.4945 37.6835 84.847 37.5448C85.5445 37.2748 86.2758 37.0723 86.9058 36.6635C87.2545 36.4348 87.547 36.146 87.7908 35.8085C88.0683 35.426 88.2858 35.006 88.5258 34.601C88.7508 34.2185 88.9983 33.851 89.3133 33.5323C89.5945 33.2473 89.9208 33.0073 90.2658 32.8085C90.9783 32.4035 91.7845 32.1823 92.5945 32.0998C94.4433 31.916 96.2508 32.5085 97.9758 33.1198C97.9833 33.0898 97.9908 33.0635 97.9945 33.0335C97.8858 32.996 97.7808 32.9585 97.672 32.921C95.857 32.291 93.9108 31.7323 91.9795 32.1035C91.1883 32.2535 90.4195 32.5535 89.767 33.0298C89.4408 33.266 89.1483 33.5473 88.9045 33.8698C88.6158 34.2448 88.3945 34.6648 88.1583 35.0698C87.922 35.4785 87.6708 35.8873 87.3295 36.221C87.0483 36.4948 86.7108 36.7048 86.3545 36.8698C85.6495 37.2035 84.8808 37.3873 84.1833 37.7435C83.8458 37.9123 83.5308 38.126 83.2683 38.3998C82.9383 38.7485 82.7058 39.1723 82.4545 39.5773C82.1958 39.9973 81.9033 40.376 81.5208 40.6948C81.1458 41.006 80.7295 41.261 80.3095 41.5048C79.8783 41.7485 79.4358 41.9885 79.027 42.2698Z"
          fill="#035875"/>
    <path d="M79.027 42.2698L79.0195 42.3785C79.6983 41.9023 80.4595 41.5573 81.142 41.0848C81.5208 40.826 81.8733 40.526 82.1583 40.1623C82.4508 39.7873 82.6683 39.3598 82.9308 38.966C83.1708 38.6023 83.4595 38.291 83.8233 38.0473C84.142 37.8373 84.4945 37.6835 84.847 37.5448C85.5445 37.2748 86.2758 37.0723 86.9058 36.6635C87.2545 36.4348 87.547 36.146 87.7908 35.8085C88.0683 35.426 88.2858 35.006 88.5258 34.601C88.7508 34.2185 88.9983 33.851 89.3133 33.5323C89.5945 33.2473 89.9208 33.0073 90.2658 32.8085C90.9783 32.4035 91.7845 32.1823 92.5945 32.0998C94.4433 31.916 96.2508 32.5085 97.9758 33.1198C97.9833 33.0898 97.9908 33.0635 97.9945 33.0335C97.8858 32.996 97.7808 32.9585 97.672 32.921C95.857 32.291 93.9108 31.7323 91.9795 32.1035C91.1883 32.2535 90.4195 32.5535 89.767 33.0298C89.4408 33.266 89.1483 33.5473 88.9045 33.8698C88.6158 34.2448 88.3945 34.6648 88.1583 35.0698C87.922 35.4785 87.6708 35.8873 87.3295 36.221C87.0483 36.4948 86.7108 36.7048 86.3545 36.8698C85.6495 37.2035 84.8808 37.3873 84.1833 37.7435C83.8458 37.9123 83.5308 38.126 83.2683 38.3998C82.9383 38.7485 82.7058 39.1723 82.4545 39.5773C82.1958 39.9973 81.9033 40.376 81.5208 40.6948C81.1458 41.006 80.7295 41.261 80.3095 41.5048C79.8783 41.7485 79.4358 41.9885 79.027 42.2698Z"
          fill="#2E3552"/>
    <path d="M34.7483 50.4188C34.6133 50.2725 34.6658 50.0213 34.812 49.89C34.9583 49.7588 35.1683 49.7175 35.367 49.7138C35.6895 49.7063 35.982 49.77 36.2858 49.8488C36.0533 49.6613 35.8283 49.4663 35.6108 49.26C35.4645 49.125 35.3258 48.99 35.187 48.8475C34.857 49.1475 34.4333 49.3463 33.9908 49.41C33.822 49.4325 33.627 49.4288 33.5145 49.305C33.3795 49.1588 33.432 48.9075 33.5783 48.7763C33.7245 48.645 33.9345 48.6038 34.1333 48.6C34.467 48.5925 34.767 48.66 35.082 48.7463C34.6583 48.3075 34.2683 47.8425 33.9195 47.3438C33.5483 47.58 33.1058 47.7075 32.667 47.6963C32.4983 47.6925 32.307 47.6588 32.2133 47.5163C32.1045 47.3513 32.1945 47.1113 32.3633 47.0025C32.5283 46.8938 32.742 46.89 32.937 46.9163C33.2558 46.9613 33.5333 47.07 33.822 47.1975C33.462 46.665 33.1395 46.0838 33.0008 45.4575C32.997 45.4463 32.997 45.4313 32.9933 45.42C32.5883 45.6075 32.127 45.6675 31.6883 45.5963C31.5195 45.57 31.3358 45.5063 31.2645 45.3525C31.182 45.1725 31.3058 44.9475 31.4858 44.865C31.6658 44.7825 31.8758 44.8088 32.067 44.8613C32.4008 44.9588 32.682 45.1238 32.9708 45.3075C32.8283 44.58 32.8245 43.8225 32.6558 43.0988C32.247 43.2938 31.7783 43.3575 31.3283 43.2863C31.1595 43.26 30.9758 43.1963 30.9045 43.0425C30.822 42.8625 30.9458 42.6375 31.1258 42.555C31.3058 42.4725 31.5158 42.4988 31.707 42.5513C32.052 42.6525 32.337 42.825 32.637 43.0125C32.592 42.8325 32.5358 42.6563 32.4683 42.48C32.3258 42.1275 32.1083 41.8088 31.842 41.5313C31.4933 41.835 31.047 42.03 30.5858 42.075C30.417 42.09 30.222 42.0788 30.1133 41.9475C29.9858 41.7975 30.0495 41.5463 30.1995 41.4188C30.3533 41.2913 30.5633 41.2613 30.762 41.2688C31.1258 41.2763 31.4483 41.3738 31.7933 41.4788C31.3545 41.04 30.7958 40.7138 30.2183 40.53C29.8695 40.7663 29.4533 40.9013 29.0333 40.9163C28.8645 40.9238 28.6695 40.8975 28.572 40.7588C28.4558 40.5975 28.5308 40.3538 28.692 40.2375C28.8533 40.1213 29.0633 40.1063 29.262 40.1213C29.577 40.1475 29.8583 40.2375 30.147 40.3463C30.1583 40.3425 30.1695 40.3463 30.1845 40.35C30.6795 40.4963 31.1408 40.74 31.5458 41.0588C31.6358 41.13 31.722 41.2013 31.8083 41.28C31.632 40.9125 31.557 40.4925 31.5945 40.0875C31.6095 39.9188 31.662 39.7313 31.8083 39.6488C31.9808 39.555 32.2133 39.6638 32.307 39.8363C32.4008 40.0088 32.3895 40.2225 32.3483 40.4175C32.2695 40.7775 32.1083 41.0813 31.932 41.4038C32.1008 41.5725 32.2583 41.7563 32.382 41.9588C32.5733 42.2663 32.697 42.6 32.7833 42.9413C32.787 42.5175 32.9108 42.0975 33.1395 41.745C33.2295 41.6025 33.3608 41.46 33.5295 41.4525C33.7283 41.445 33.8858 41.6513 33.8895 41.8463C33.8933 42.045 33.7883 42.2288 33.6608 42.3788C33.4208 42.6713 33.1283 42.87 32.817 43.0838C32.9445 43.6538 32.9783 44.2538 33.0533 44.8238C33.0758 45.0038 33.1058 45.1838 33.1433 45.36C33.1245 44.9025 33.2483 44.4375 33.4958 44.055C33.5858 43.9125 33.717 43.77 33.8858 43.7625C34.0845 43.755 34.242 43.9575 34.2458 44.1563C34.2495 44.355 34.1445 44.5388 34.017 44.6925C33.7695 44.9925 33.4733 45.195 33.1508 45.4125C33.192 45.6 33.2483 45.7838 33.3233 45.9638C33.4583 46.2938 33.6308 46.6088 33.8183 46.9088C33.867 46.9875 33.9195 47.0663 33.972 47.145C33.9158 46.7325 33.9758 46.305 34.1408 45.9263C34.2083 45.7725 34.317 45.6075 34.482 45.5775C34.677 45.54 34.8645 45.7163 34.8983 45.9113C34.932 46.1063 34.857 46.305 34.7558 46.4738C34.5683 46.7888 34.3245 47.025 34.0583 47.2725C34.3995 47.76 34.7858 48.2138 35.1983 48.6413C35.037 48.24 34.992 47.79 35.0745 47.3625C35.1083 47.1975 35.1758 47.0138 35.3295 46.9463C35.5095 46.8675 35.7308 46.9988 35.8095 47.1825C35.8883 47.3663 35.8545 47.5763 35.7945 47.7638C35.6783 48.12 35.487 48.4125 35.277 48.72C35.3333 48.7763 35.3895 48.8325 35.442 48.8888C35.7495 49.1925 36.072 49.4813 36.4095 49.7513C36.2558 49.3575 36.2183 48.9188 36.297 48.5063C36.3308 48.3413 36.3983 48.1575 36.552 48.09C36.732 48.0113 36.9533 48.1425 37.032 48.3263C37.1108 48.51 37.077 48.72 37.017 48.9075C36.9045 49.2563 36.717 49.5413 36.5145 49.8375C36.9008 50.1413 37.3095 50.4188 37.737 50.6625C37.827 50.715 37.7408 50.8463 37.6508 50.7975C37.2195 50.55 36.807 50.2688 36.417 49.9613C36.0833 50.2613 35.6595 50.46 35.2133 50.5238C35.0595 50.5463 34.8645 50.5425 34.7483 50.4188Z"
          fill="#1E8161"/>
    <path d="M88.4115 74.9515C88.5353 74.674 88.9215 74.5953 89.1953 74.7228C89.469 74.8503 89.649 75.124 89.7728 75.3978C89.9753 75.8478 90.0615 76.2978 90.1328 76.7703C90.2565 76.3315 90.399 75.8965 90.5528 75.469C90.654 75.1878 90.7628 74.9065 90.8753 74.6253C90.2565 74.3403 89.724 73.8678 89.3715 73.2828C89.2365 73.0615 89.1278 72.7878 89.2365 72.5515C89.3603 72.2778 89.7465 72.199 90.0203 72.3228C90.294 72.4503 90.474 72.7203 90.5978 72.994C90.8078 73.4553 90.894 73.9203 90.9653 74.4153C91.3253 73.5603 91.7453 72.7315 92.2365 71.944C91.6815 71.5653 91.239 71.0215 90.9878 70.3953C90.8903 70.1553 90.8265 69.8665 90.969 69.649C91.1378 69.3978 91.5278 69.3828 91.779 69.5478C92.0303 69.7165 92.1653 70.0128 92.244 70.3015C92.3715 70.774 92.3865 71.2315 92.3828 71.7078C92.9115 70.8865 93.5378 70.084 94.3328 69.5103C94.3478 69.499 94.3665 69.4878 94.3815 69.4765C93.879 69.019 93.5115 68.4115 93.3503 67.7515C93.2903 67.5003 93.264 67.204 93.4365 67.0128C93.639 66.7878 94.0253 66.8253 94.2503 67.0278C94.4753 67.2303 94.5653 67.5415 94.6028 67.8415C94.6665 68.3703 94.6028 68.8615 94.5203 69.379C95.4578 68.7453 96.519 68.2803 97.434 67.6128C96.9165 67.1553 96.5415 66.5365 96.3765 65.8653C96.3165 65.614 96.2903 65.3178 96.4628 65.1265C96.6653 64.9015 97.0515 64.939 97.2765 65.1415C97.5015 65.344 97.5915 65.6553 97.629 65.9553C97.6965 66.499 97.6253 67.0015 97.539 67.534C97.764 67.3653 97.9815 67.1815 98.184 66.9753C98.5928 66.5628 98.9115 66.0678 99.1403 65.5278C98.5028 65.2203 97.9665 64.7103 97.6253 64.0915C97.5015 63.8665 97.404 63.5853 97.5203 63.3528C97.6553 63.0828 98.0415 63.0228 98.3115 63.1578C98.5815 63.2965 98.7465 63.574 98.8628 63.8553C99.069 64.369 99.129 64.879 99.1853 65.4265C99.5378 64.549 99.6615 63.5665 99.5715 62.6478C99.0315 62.299 98.5928 61.8003 98.319 61.219C98.2103 60.9865 98.1278 60.6978 98.259 60.4765C98.4128 60.2178 98.8028 60.1803 99.0615 60.334C99.3203 60.4878 99.4703 60.7765 99.564 61.0653C99.714 61.5228 99.7553 61.9728 99.7778 62.4415C99.789 62.4565 99.7928 62.4753 99.7965 62.494C99.8903 63.274 99.8228 64.069 99.6203 64.8303C99.5753 64.999 99.5265 65.164 99.4703 65.329C99.8828 64.8603 100.423 64.504 101.019 64.3128C101.267 64.234 101.559 64.1928 101.762 64.3503C101.998 64.5378 101.987 64.9278 101.799 65.164C101.612 65.4003 101.308 65.5128 101.012 65.569C100.457 65.674 99.9353 65.6328 99.3803 65.5765C99.2453 65.9178 99.0803 66.244 98.8703 66.544C98.5515 66.9978 98.1615 67.369 97.7303 67.6953C98.3265 67.4478 98.9903 67.369 99.624 67.4778C99.879 67.5228 100.16 67.6165 100.269 67.8528C100.397 68.1265 100.205 68.4678 99.9315 68.5953C99.6578 68.7228 99.3353 68.6815 99.0465 68.5953C98.4915 68.4303 98.0378 68.1453 97.5503 67.834C96.8265 68.3515 96.0053 68.7603 95.2478 69.214C95.0078 69.3565 94.7753 69.5028 94.554 69.664C95.184 69.364 95.9078 69.259 96.5978 69.3753C96.8528 69.4165 97.134 69.514 97.2428 69.7503C97.3703 70.024 97.179 70.3653 96.9053 70.4928C96.6315 70.6203 96.309 70.579 96.0203 70.4928C95.4503 70.3278 94.989 70.0315 94.4903 69.709C94.254 69.8815 94.029 70.069 93.819 70.279C93.4365 70.6653 93.099 71.0928 92.7915 71.539C92.709 71.659 92.6303 71.779 92.5515 71.899C93.0953 71.5728 93.729 71.4003 94.3665 71.4078C94.6253 71.4115 94.9178 71.464 95.0603 71.6778C95.229 71.929 95.0903 72.2965 94.839 72.4615C94.5878 72.6265 94.2615 72.6378 93.9615 72.5965C93.4065 72.5215 92.9303 72.3228 92.424 72.0978C91.944 72.8665 91.539 73.684 91.1865 74.5165C91.6515 74.0478 92.2553 73.714 92.904 73.5753C93.1553 73.5228 93.4515 73.5078 93.639 73.684C93.8565 73.8903 93.8078 74.2803 93.5978 74.4978C93.3878 74.7153 93.0728 74.7978 92.7728 74.824C92.2028 74.8765 91.6778 74.779 91.119 74.6703C91.074 74.7828 91.029 74.8915 90.984 75.004C90.744 75.6153 90.5303 76.2415 90.354 76.879C90.8153 76.429 91.404 76.1103 92.034 75.9753C92.2853 75.9228 92.5815 75.9078 92.769 76.084C92.9865 76.2903 92.9378 76.6803 92.7278 76.8978C92.5178 77.1153 92.2028 77.1978 91.9028 77.224C91.3478 77.2765 90.8378 77.1865 90.294 77.0778C90.099 77.8053 89.9528 78.544 89.8703 79.2903C89.8515 79.444 89.6115 79.4065 89.6303 79.2528C89.7165 78.499 89.8665 77.7528 90.0615 77.0178C89.439 76.729 88.9028 76.2528 88.5503 75.664C88.4115 75.4653 88.3028 75.1878 88.4115 74.9515Z"
          fill="#1E8161"/>
    <path d="M37.9926 68.0509C38.1351 67.9384 34.4714 65.1409 32.8326 64.7509C32.1276 64.5859 31.3851 64.7021 30.7139 64.9759L29.9976 65.2646C29.2514 65.5684 28.6214 66.0934 28.1901 66.7721L28.0101 67.0534V67.0496L27.5864 67.2221L27.5639 67.1659C27.5526 67.1396 27.5226 67.1246 27.4964 67.1359L27.1139 67.2896L26.9639 66.9184C26.9151 66.7984 26.7764 66.7384 26.6564 66.7871L25.7264 67.1659C25.6064 67.2146 25.5464 67.3534 25.5951 67.4734C25.8951 68.4071 26.2551 69.3034 26.6789 70.1471C26.7276 70.2671 26.8664 70.3271 26.9864 70.2784L27.9164 69.8996C28.0364 69.8509 28.0964 69.7121 28.0476 69.5921L27.9576 69.3746L28.3401 69.2209C28.3664 69.2096 28.3814 69.1796 28.3701 69.1534L28.3064 68.9959L28.7301 68.8234L29.0189 68.8909C29.7951 69.0746 30.4364 69.6259 30.7364 70.3646L30.7739 70.4584L33.6614 69.2884L33.3914 68.6246C33.3839 68.6059 33.3764 68.5871 33.3689 68.5646C33.0951 67.7809 33.4814 67.1246 34.4039 67.1246C35.3301 67.1246 37.8276 68.7109 37.8276 68.7109C38.0901 68.7446 38.2926 68.4859 38.1914 68.2384C38.1576 68.1559 38.0826 68.0884 37.9926 68.0509Z"
          fill="#9FA4AB"/>
    <path d="M34.1324 69.2807L30.6974 70.672C30.5924 70.7132 30.5437 70.8332 30.5849 70.9382L34.4549 80.4857C34.4962 80.5907 34.6162 80.6395 34.7212 80.5982L38.1562 79.207C38.2612 79.1657 38.3099 79.0457 38.2687 78.9407L34.3987 69.3932C34.3537 69.292 34.2337 69.2395 34.1324 69.2807Z"
          fill="#1E8161"/>
    <path d="M34.1348 69.2807L33.9136 69.3707L35.7736 73.957C35.9986 74.5082 35.7323 75.1345 35.1811 75.3595L32.7773 76.3345L34.4611 80.4857C34.5023 80.5907 34.6223 80.6395 34.7273 80.5982L38.1623 79.207C38.2673 79.1657 38.3161 79.0457 38.2748 78.9407L34.4048 69.3932C34.3561 69.292 34.2361 69.2395 34.1348 69.2807Z"
          fill="#004C40"/>
    <path d="M41.5149 84.2879C39.9024 81.6104 38.5637 78.6367 37.4162 75.4679C37.2662 75.1454 36.8499 75.0067 36.4749 75.1604L33.0174 76.5629C32.6424 76.7167 32.4399 77.1029 32.5562 77.4404C33.8162 80.3842 34.8737 83.4479 35.7549 86.6242C35.9049 87.0592 36.3587 87.3142 36.8087 87.2129C38.3574 86.8567 39.8087 86.2679 41.1699 85.4467C41.5599 85.2067 41.7062 84.7079 41.5149 84.2879Z"
          fill="#1E8161"/>
    <path d="M41.5147 84.2883C39.9022 81.6108 38.5634 78.6371 37.4159 75.4683C37.2734 75.1571 36.8872 75.0221 36.5234 75.1421C36.5384 75.1646 36.5497 75.1833 36.5609 75.2096C37.7084 78.3783 39.0472 81.3521 40.6597 84.0296C40.8547 84.4458 40.7084 84.9483 40.3147 85.1846C38.9572 86.0058 37.5059 86.5946 35.9609 86.9508C36.1747 87.1758 36.4934 87.2846 36.8122 87.2096C38.3609 86.8533 39.8122 86.2646 41.1734 85.4433C41.5597 85.2071 41.7059 84.7083 41.5147 84.2883Z"
          fill="#004C40"/>
    <path d="M33.7267 68.9809L30.7117 70.2034C30.6105 70.2446 30.5655 70.3571 30.603 70.4584L30.693 70.6759L34.068 69.3071L33.978 69.0896C33.9405 68.9884 33.8242 68.9434 33.7267 68.9809Z"
          fill="#004C40"/>
    <path d="M79.6103 24.1875H71.2891V43.2675H79.6103V24.1875Z" fill="#FFEBC2"/>
    <path d="M79.2573 25.8183H71.6411C70.9211 25.8183 70.3398 25.2371 70.3398 24.5171C70.3398 23.7971 70.9211 23.2158 71.6411 23.2158H79.2573C79.9773 23.2158 80.5586 23.7971 80.5586 24.5171C80.5623 25.2371 79.9773 25.8183 79.2573 25.8183Z"
          fill="#FFA412"/>
    <path d="M80.5942 39.183V51.7642H36.8242V39.1905L58.788 23.9805L80.5942 39.183Z" fill="#FFEBC2"/>
    <path d="M62.4316 26.8574C62.5254 26.9399 56.7728 33.4762 61.2728 33.9637C64.8241 34.3499 63.5266 36.5362 65.1016 37.4249C66.3991 38.1599 67.8653 35.0962 68.1653 37.8674C68.4878 40.8449 70.3516 43.7099 70.9703 41.6812C71.7316 39.1762 73.1941 38.6849 73.7978 39.8624C74.4429 41.1224 74.2553 44.4974 75.3841 44.2574C76.4828 44.0249 78.0278 39.0749 78.0278 39.0749L62.4316 26.8574Z"
          fill="white"/>
    <path d="M80.5942 52.293H36.8242V87.3367H80.5942V52.293Z" fill="#FFEBC2"/>
    <path d="M83.2189 41.013L82.1839 42.498L80.5902 41.388L58.7839 26.1892L36.8202 41.3955L35.2264 42.5017L34.1914 41.0092L36.8202 39.1905L58.7877 23.9805L80.5902 39.183L83.2189 41.013Z"
          fill="#FFA412"/>
    <path d="M86.7636 63.3745H30.6523L31.1848 62.2645L31.2786 62.0657L31.7511 61.0795L32.4073 59.7032L32.8761 58.717L32.9698 58.5182L33.4423 57.5357L33.5361 57.337L34.0086 56.3507L34.1023 56.1557L34.5711 55.1695L34.6648 54.9745L35.1373 53.9882L35.2311 53.7932L35.6998 52.807L35.7936 52.6082L36.1986 51.7607H81.2173L81.6186 52.6082L81.7123 52.807L82.1848 53.7932L82.2786 53.9882L82.7511 54.9745L82.8448 55.1695L83.4073 56.3507L83.8798 57.337L83.9736 57.5357L84.4423 58.5182L84.5361 58.717L85.0086 59.7032L85.1023 59.8982L85.5711 60.8845L85.6648 61.0795L86.1373 62.0657L86.2311 62.2645L86.7636 63.3745Z"
          fill="#FFA412"/>
    <path d="M81.7117 52.8071H35.6992L35.793 52.6084H81.618L81.7117 52.8071Z" fill="#F5F5F5"/>
    <path d="M82.278 53.988H35.1367L35.2305 53.793H82.1842L82.278 53.988Z" fill="#F5F5F5"/>
    <path d="M82.8441 55.1696H34.5703L34.6641 54.9746H82.7503L82.8441 55.1696Z" fill="#F5F5F5"/>
    <path d="M83.4066 56.3503H34.0078L34.1016 56.1553H83.3128L83.4066 56.3503Z" fill="#F5F5F5"/>
    <path d="M83.9727 57.5357H33.4414L33.5352 57.3369H83.8789L83.9727 57.5357Z" fill="#F5F5F5"/>
    <path d="M84.535 58.7173H32.875L32.9688 58.5186H84.4413L84.535 58.7173Z" fill="#F5F5F5"/>
    <path d="M85.1012 59.8981H32.3125L32.4062 59.7031H85.0075L85.1012 59.8981Z" fill="#F5F5F5"/>
    <path d="M85.6637 61.0798H31.75L31.8438 60.8848H85.57L85.6637 61.0798Z" fill="#F5F5F5"/>
    <path d="M86.2298 62.2642H31.1836L31.2773 62.0654H86.1361L86.2298 62.2642Z" fill="#F5F5F5"/>
    <path d="M63.6759 68.7373H53.7422V87.3373H63.6759V68.7373Z" fill="#FFA412"/>
    <path d="M62.9333 78.8252H54.4883V86.7377H62.9333V78.8252Z" fill="#FFEBC2"/>
    <path d="M62.9333 69.5361H54.4883V77.8761H62.9333V69.5361Z" fill="#FFEBC2"/>
    <path d="M76.0925 67.6943H67.9062V79.6568H76.0925V67.6943Z" fill="#FFA412"/>
    <path d="M71.8602 67.998H68.2227V71.658H71.8602V67.998Z" fill="white"/>
    <path d="M75.7781 67.998H72.1406V71.658H75.7781V67.998Z" fill="white"/>
    <path d="M71.868 72.0107H68.2305V79.3307H71.868V72.0107Z" fill="white"/>
    <path d="M75.7859 72.0107H72.1484V79.3307H75.7859V72.0107Z" fill="white"/>
    <path d="M76.3942 79.6572H67.668V80.4297H76.3942V79.6572Z" fill="#FFA412"/>
    <path d="M49.4441 67.6943H41.2578V79.6568H49.4441V67.6943Z" fill="#FFA412"/>
    <path d="M45.2117 67.998H41.5742V71.658H45.2117V67.998Z" fill="white"/>
    <path d="M49.1297 67.998H45.4922V71.658H49.1297V67.998Z" fill="white"/>
    <path d="M45.2195 72.0107H41.582V79.3307H45.2195V72.0107Z" fill="white"/>
    <path d="M49.1375 72.0107H45.5V79.3307H49.1375V72.0107Z" fill="white"/>
    <path d="M49.7458 79.6572H41.0195V80.4297H49.7458V79.6572Z" fill="#FFA412"/>
    <path d="M69.5078 85.1582V84.7495C69.5078 84.652 69.5866 84.5732 69.6841 84.5732H71.1091C71.2066 84.5732 71.2853 84.652 71.2853 84.7495V85.1582C71.2853 85.2557 71.2066 85.3345 71.1091 85.3345H69.6841C69.5866 85.3345 69.5078 85.2557 69.5078 85.1582Z"
          fill="#FFA412"/>
    <path d="M69.9567 84.3482H68.5317C68.4342 84.3482 68.3555 84.2694 68.3555 84.1719V83.7632C68.3555 83.6657 68.4342 83.5869 68.5317 83.5869H69.9567C70.0542 83.5869 70.133 83.6657 70.133 83.7632V84.1719C70.133 84.2694 70.0542 84.3482 69.9567 84.3482Z"
          fill="#FFA412"/>
    <path d="M69.1994 84.7495V85.1582C69.1994 85.2557 69.1206 85.3345 69.0231 85.3345H67.5981C67.5006 85.3345 67.4219 85.2557 67.4219 85.1582V84.7495C67.4219 84.652 67.5006 84.5732 67.5981 84.5732H69.0231C69.1206 84.5732 69.1994 84.652 69.1994 84.7495Z"
          fill="#FFA412"/>
    <path d="M55.9844 66.6075V66.1987C55.9844 66.1012 56.0631 66.0225 56.1606 66.0225H57.5856C57.6831 66.0225 57.7619 66.1012 57.7619 66.1987V66.6075C57.7619 66.705 57.6831 66.7837 57.5856 66.7837H56.1606C56.0631 66.7837 55.9844 66.705 55.9844 66.6075Z"
          fill="#FFA412"/>
    <path d="M56.4294 65.7974H55.0044C54.9069 65.7974 54.8281 65.7186 54.8281 65.6211V65.2124C54.8281 65.1149 54.9069 65.0361 55.0044 65.0361H56.4294C56.5269 65.0361 56.6056 65.1149 56.6056 65.2124V65.6211C56.6056 65.7186 56.5269 65.7974 56.4294 65.7974Z"
          fill="#FFA412"/>
    <path d="M55.672 66.1948V66.6036C55.672 66.7011 55.5933 66.7798 55.4958 66.7798H54.0708C53.9733 66.7798 53.8945 66.7011 53.8945 66.6036V66.1948C53.8945 66.0973 53.9733 66.0186 54.0708 66.0186H55.4958C55.5933 66.0186 55.672 66.0973 55.672 66.1948Z"
          fill="#FFA412"/>
    <path d="M44.9336 44.5606V44.1518C44.9336 44.0543 45.0123 43.9756 45.1098 43.9756H46.5348C46.6323 43.9756 46.7111 44.0543 46.7111 44.1518V44.5606C46.7111 44.6581 46.6323 44.7368 46.5348 44.7368H45.1098C45.0123 44.7368 44.9336 44.6581 44.9336 44.5606Z"
          fill="#FFA412"/>
    <path d="M45.3786 43.7544H43.9536C43.8561 43.7544 43.7773 43.6757 43.7773 43.5782V43.1694C43.7773 43.0719 43.8561 42.9932 43.9536 42.9932H45.3786C45.4761 42.9932 45.5548 43.0719 45.5548 43.1694V43.5782C45.5548 43.6757 45.4761 43.7544 45.3786 43.7544Z"
          fill="#FFA412"/>
    <path d="M44.6252 44.1518V44.5606C44.6252 44.6581 44.5464 44.7368 44.4489 44.7368H43.0239C42.9264 44.7368 42.8477 44.6581 42.8477 44.5606V44.1518C42.8477 44.0543 42.9264 43.9756 43.0239 43.9756H44.4489C44.5464 43.9756 44.6252 44.0543 44.6252 44.1518Z"
          fill="#FFA412"/>
    <path d="M69.1953 49.8594V49.4507C69.1953 49.3532 69.2741 49.2744 69.3716 49.2744H70.7966C70.8941 49.2744 70.9728 49.3532 70.9728 49.4507V49.8594C70.9728 49.9569 70.8941 50.0357 70.7966 50.0357H69.3716C69.2741 50.0357 69.1953 49.9569 69.1953 49.8594Z"
          fill="#FFA412"/>
    <path d="M69.6442 49.0493H68.2192C68.1217 49.0493 68.043 48.9706 68.043 48.8731V48.4643C68.043 48.3668 68.1217 48.2881 68.2192 48.2881H69.6442C69.7417 48.2881 69.8205 48.3668 69.8205 48.4643V48.8731C69.8205 48.9706 69.738 49.0493 69.6442 49.0493Z"
          fill="#FFA412"/>
    <path d="M68.8869 49.4507V49.8594C68.8869 49.9569 68.8081 50.0357 68.7106 50.0357H67.2856C67.1881 50.0357 67.1094 49.9569 67.1094 49.8594V49.4507C67.1094 49.3532 67.1881 49.2744 67.2856 49.2744H68.7106C68.8081 49.2744 68.8869 49.3532 68.8869 49.4507Z"
          fill="#FFA412"/>
    <path d="M39.2227 73.0049V72.5962C39.2227 72.4987 39.3014 72.4199 39.3989 72.4199H40.8239C40.9214 72.4199 41.0002 72.4987 41.0002 72.5962V73.0049C41.0002 73.1024 40.9214 73.1812 40.8239 73.1812H39.3989C39.3014 73.1812 39.2227 73.1024 39.2227 73.0049Z"
          fill="#FFA412"/>
    <path d="M39.6677 72.1948H38.2427C38.1452 72.1948 38.0664 72.1161 38.0664 72.0186V71.6098C38.0664 71.5123 38.1452 71.4336 38.2427 71.4336H39.6677C39.7652 71.4336 39.8439 71.5123 39.8439 71.6098V72.0186C39.8439 72.1161 39.7652 72.1948 39.6677 72.1948Z"
          fill="#FFA412"/>
    <path d="M38.9103 72.5923V73.001C38.9103 73.0985 38.8316 73.1773 38.7341 73.1773H37.3091C37.2116 73.1773 37.1328 73.0985 37.1328 73.001V72.5923C37.1328 72.4948 37.2116 72.416 37.3091 72.416H38.7341C38.8316 72.416 38.9103 72.4948 38.9103 72.5923Z"
          fill="#FFA412"/>
    <path d="M58.0369 28.3945C58.0369 28.3945 57.0957 29.8758 57.2569 30.4158C57.2569 30.4158 57.3619 30.5133 57.3019 30.7983C57.2419 31.0833 57.4332 30.6933 57.7182 31.2858C58.0032 31.8783 59.0607 32.0995 59.0607 32.0995C59.0607 32.0995 57.7632 31.8258 57.2907 31.1133C57.2907 31.1133 57.2794 30.982 57.0469 31.2033C56.8182 31.4245 56.5894 31.462 56.4994 31.6008C56.4094 31.7358 56.4169 31.3345 55.8507 31.9383C55.8507 31.9383 55.5207 31.7208 55.2657 31.9233C55.2657 31.9233 55.2507 31.5145 55.7007 31.5895C55.7007 31.5895 55.9219 31.3758 56.3307 31.2633C56.7394 31.147 56.7619 31.3008 56.8819 30.502C56.8819 30.502 57.1294 30.382 57.1819 29.902C57.2344 29.4145 58.0369 28.3945 58.0369 28.3945Z"
          fill="#FFCB68"/>
    <path d="M54.4312 31.5449C54.4312 31.5449 55.0688 31.8224 55.4925 32.0699C55.9163 32.3174 55.6613 32.7374 55.6613 32.7374C55.6613 32.7374 55.8075 33.0149 56.685 33.5399C56.685 33.5399 56.0362 33.2249 55.5562 33.1949C55.0762 33.1649 55.185 32.9662 54.8738 33.4499L54.5175 33.6674C54.5175 33.6674 54.2512 33.4349 53.9437 33.4912C53.6362 33.5474 53.9775 33.5362 53.3325 33.9224C52.6912 34.3087 51.75 34.3687 51.75 34.3687C51.75 34.3687 53.2913 33.7462 53.5238 33.5137C53.7563 33.2812 53.805 33.2399 54.0262 33.2437C54.2475 33.2474 54.6038 33.4499 54.84 33.1387C55.0763 32.8274 54.975 32.5049 55.1175 32.4674C55.2563 32.4299 55.2938 32.3812 55.0275 32.0774C54.7575 31.7737 54.5812 31.5787 54.4312 31.5449Z"
          fill="#FFCB68"/>
    <path d="M56.8452 35.8911C56.8452 35.8911 55.4839 34.2599 54.0964 34.6986C54.0964 34.6986 54.4152 35.6061 54.4564 35.8236L53.8977 34.7099L53.5977 34.9536C53.5977 34.9536 52.6452 34.4661 51.7339 35.3211C51.7339 35.3211 52.6752 34.1924 53.5827 34.5824C53.5827 34.5824 54.0814 34.5599 52.7389 34.0836C52.7389 34.0836 52.4427 33.8361 52.2102 33.9261C51.9777 34.0161 51.2089 33.9899 50.9727 34.0274C50.9727 34.0274 51.7189 33.9524 52.0377 33.8249C52.3564 33.6974 53.4327 34.0274 53.7664 34.3649C54.1039 34.7024 54.6552 34.1099 55.3864 34.5861C56.1139 35.0586 56.8452 35.8911 56.8452 35.8911Z"
          fill="#FFCB68"/>
    <path d="M66.6656 36.8467H50.8594V46.3492H66.6656V36.8467Z" fill="#D98E71"/>
    <path d="M58.4102 37.3418H51.3789V41.2718H58.4102V37.3418Z" fill="white"/>
    <path d="M66.0898 37.3418H59.0586V41.2718H66.0898V37.3418Z" fill="white"/>
    <path d="M58.4102 41.8975H51.3789V45.8275H58.4102V41.8975Z" fill="white"/>
    <path d="M66.0898 41.8975H59.0586V45.8275H66.0898V41.8975Z" fill="white"/>
    <path d="M66.9752 46.3496H50.4414V46.9496H66.9752V46.3496Z" fill="#D98E71"/>
    <path d="M75.6055 29.583V29.1743C75.6055 29.0768 75.6842 28.998 75.7817 28.998H77.2067C77.3042 28.998 77.383 29.0768 77.383 29.1743V29.583C77.383 29.6805 77.3042 29.7593 77.2067 29.7593H75.7817C75.6842 29.7593 75.6055 29.6805 75.6055 29.583Z"
          fill="#FFA412"/>
    <path d="M76.0505 28.773H74.6255C74.528 28.773 74.4492 28.6942 74.4492 28.5967V28.188C74.4492 28.0905 74.528 28.0117 74.6255 28.0117H76.0505C76.148 28.0117 76.2267 28.0905 76.2267 28.188V28.5967C76.2267 28.6942 76.148 28.773 76.0505 28.773Z"
          fill="#FFA412"/>
    <path d="M75.297 29.1743V29.583C75.297 29.6805 75.2183 29.7593 75.1208 29.7593H73.6958C73.5983 29.7593 73.5195 29.6805 73.5195 29.583V29.1743C73.5195 29.0768 73.5983 28.998 73.6958 28.998H75.1208C75.2183 28.998 75.297 29.0768 75.297 29.1743Z"
          fill="#FFA412"/>
    <path d="M34.9494 78.7197L34.2294 82.886L31.5781 87.4535H31.6381L32.2381 86.8235L32.5681 87.371L33.0894 86.8235L33.4194 87.371L33.9406 86.8235L34.2706 87.371L34.7881 86.8235L35.1181 87.371L35.6356 86.8235L35.9656 87.371L36.4831 86.8235L36.8131 87.371L37.3344 86.8235L37.6644 87.371L38.1856 86.8235L38.5156 87.371L39.0369 86.8235L39.3669 87.371L39.8881 86.8235L40.2181 87.371L40.7394 86.8235L41.0694 87.371L41.5906 86.8235L41.9206 87.371L42.4419 86.8235L42.7719 87.371L43.2931 86.8235L43.6231 87.371L44.1444 86.8235L44.4744 87.371L44.9919 86.8235L45.3219 87.371L45.8394 86.8235L46.1694 87.371L46.6869 86.8235L47.0169 87.371L47.5381 86.8235L47.8681 87.371L48.3894 86.8235L48.7194 87.371L49.2406 86.8235L49.5706 87.371L50.0919 86.8235L50.4219 87.371L50.9431 86.8235L51.2956 87.4122L51.6894 86.3885C51.9219 85.7847 51.7606 85.1585 51.3219 84.9897L34.9494 78.7197Z"
          fill="#9FA4AB"/>
    <path d="M32.9664 86.6025L33.2964 87.15L33.8139 86.6063L34.1439 87.1538L34.6614 86.6063L34.9952 87.1538L35.5127 86.61L35.8427 87.1575L36.3602 86.61L36.6902 87.1613L37.2077 86.6138L37.5377 87.1613L38.0589 86.6138L38.3889 87.1613L38.9064 86.6175L39.2364 87.165L39.7577 86.6175L40.0839 87.1688L40.6052 86.6213L40.9352 87.1688L41.4527 86.6213L41.7827 87.1725L42.3039 86.625L42.6302 87.1725L43.1514 86.6288L43.4814 87.1763L43.9989 86.6288L44.3289 87.18L44.8502 86.6325L45.1802 87.18L45.6977 86.6325L46.0277 87.1838L46.5452 86.6363L46.8752 87.1838L47.3927 86.64L47.7264 87.1875L48.2439 86.64L48.5739 87.1875L49.0914 86.6438L49.4214 87.1913L49.9427 86.6438L50.2689 87.1913L50.7902 86.6438L51.1202 87.195L51.5364 86.7563L51.2664 87.4538L50.9139 86.865L50.3927 87.4125L50.0627 86.865L49.5452 87.4125L49.2152 86.865L48.6939 87.4088L48.3677 86.8613L47.8464 87.4088L47.5164 86.8575L46.9989 87.405L46.6689 86.8575L46.1477 87.405L45.8177 86.8538L45.3002 87.4013L44.9702 86.8538L44.4527 87.3975L44.1227 86.85L43.6014 87.3975L43.2714 86.85L42.7539 87.3938L42.4239 86.8463L41.9064 87.3938L41.5764 86.8425L41.0552 87.39L40.7289 86.8425L40.2077 87.39L39.8777 86.8388L39.3602 87.3863L39.0302 86.8388L38.5089 87.3825L38.1827 86.835L37.6614 87.3825L37.3314 86.8313L36.8139 87.3825L36.4839 86.8313L35.9627 87.3788L35.6327 86.8275L35.1152 87.375L34.7852 86.8275L34.2677 87.375L33.9377 86.8275L33.4164 87.3713L33.0864 86.8238L32.5689 87.3713L32.4414 87.1538L32.9664 86.6025Z"
          fill="#F5F5F5"/>
    <path d="M34.2294 82.886L34.9494 78.7197L35.5944 78.971L34.9569 82.6685L32.3919 87.0785L32.2381 86.8197L31.6381 87.4535H31.5781L34.2294 82.886Z"
          fill="#D5D4E6"/>
    <path d="M33.2769 82.961C33.2769 82.9685 33.2806 82.976 33.2806 82.9835C33.2881 83.0247 33.2956 83.0697 33.3031 83.111C33.3069 83.126 33.3069 83.1447 33.3106 83.1597C33.3181 83.2122 33.3256 83.2647 33.3331 83.3135L34.1581 82.3272C34.1694 82.3122 34.1806 82.301 34.1881 82.286C34.1956 82.2747 34.2031 82.2635 34.2106 82.2522C34.2144 82.2447 34.2219 82.2372 34.2256 82.226C34.2294 82.2222 34.2294 82.2185 34.2331 82.2147C34.2406 82.2035 34.2444 82.1922 34.2481 82.181C34.1319 81.941 34.0156 81.7085 33.8994 81.491C33.8544 81.461 33.8056 81.4272 33.7606 81.3935L33.8506 81.9147C33.8806 82.1022 33.8319 82.2972 33.7081 82.4472L33.2769 82.961ZM26.1406 83.8835C26.1406 83.9022 26.1406 83.921 26.1406 83.936C26.1406 83.9435 26.1406 83.951 26.1406 83.9585C26.1406 83.9697 26.1406 83.9847 26.1406 83.996C26.1406 84.0147 26.1406 84.0297 26.1406 84.0485C26.1406 84.0522 26.1406 84.0522 26.1406 84.056C26.1406 84.0785 26.1406 84.101 26.1444 84.1235C26.1444 84.1422 26.1444 84.161 26.1481 84.1797C26.1481 84.191 26.1481 84.206 26.1519 84.2172C26.1556 84.2397 26.1556 84.2622 26.1594 84.2847C26.1631 84.311 26.1669 84.3372 26.1669 84.3597C26.1744 84.4047 26.1819 84.4535 26.1894 84.4985C26.1931 84.5172 26.1969 84.536 26.2006 84.5547C26.2044 84.5772 26.2119 84.596 26.2156 84.6185C26.2194 84.6372 26.2231 84.6522 26.2306 84.671C26.2344 84.6785 26.2381 84.6897 26.2381 84.701C26.2419 84.716 26.2456 84.731 26.2531 84.746C26.2794 84.8285 26.3094 84.9035 26.3469 84.9822C26.3544 84.9972 26.3619 85.016 26.3731 85.031C26.3731 85.0347 26.3769 85.0385 26.3806 85.0422C26.3881 85.0572 26.3956 85.0685 26.4031 85.0835C26.4069 85.0872 26.4069 85.091 26.4106 85.0947C26.4181 85.1097 26.4294 85.1247 26.4369 85.1397C26.4969 85.2335 26.5644 85.3235 26.6394 85.4022C26.6506 85.4172 26.6656 85.4285 26.6769 85.4397C26.6806 85.4435 26.6806 85.4435 26.6844 85.4472C26.6956 85.4585 26.7069 85.4697 26.7181 85.4772C26.7256 85.4847 26.7369 85.4922 26.7444 85.4997C26.7481 85.5035 26.7556 85.5072 26.7594 85.511C26.7706 85.5185 26.7819 85.5297 26.7931 85.5372C26.8269 85.5635 26.8606 85.586 26.8981 85.6085C26.9769 85.6572 27.0594 85.7022 27.1494 85.736L31.5819 87.4497L31.5931 87.4535L31.6006 87.4497L31.6681 87.4197L31.9531 87.2997L32.4144 87.1047L32.5306 87.056L33.0856 86.8235L33.0894 86.8197L33.0969 86.816L35.7894 85.6835C36.6744 85.3122 37.3644 84.3972 37.5556 83.3435L38.1669 79.961L35.5944 78.9672L34.9494 78.716L33.8319 78.2847L29.8344 76.7397C29.6544 76.6685 29.4631 76.706 29.2981 76.811C29.2981 76.811 29.2944 76.811 29.2944 76.8147C29.2756 76.826 29.2606 76.8372 29.2419 76.8522C29.2306 76.8597 29.2231 76.8672 29.2119 76.8747C29.2044 76.8785 29.1969 76.886 29.1931 76.8935L29.1894 76.8972L29.1856 76.901C29.1781 76.9085 29.1706 76.916 29.1631 76.9235C29.1519 76.9347 29.1406 76.946 29.1331 76.9572C29.1144 76.976 29.0994 76.9985 29.0844 77.0172C29.0769 77.0285 29.0694 77.0397 29.0619 77.051C29.0544 77.0622 29.0469 77.0735 29.0394 77.0847C29.0319 77.096 29.0244 77.1072 29.0169 77.1185C29.0094 77.1297 29.0056 77.141 28.9981 77.1522C28.9831 77.1785 28.9719 77.2047 28.9644 77.231C28.9606 77.2422 28.9569 77.2535 28.9531 77.261C28.9456 77.2797 28.9419 77.2947 28.9344 77.3135C28.9306 77.3247 28.9269 77.336 28.9231 77.3472C28.9044 77.4147 28.8931 77.4897 28.8931 77.5647C28.8931 77.5797 28.8931 77.591 28.8969 77.606C28.8969 77.6172 28.8969 77.6247 28.9006 77.636C28.9006 77.6435 28.9044 77.651 28.9044 77.6622C28.9044 77.6735 28.9081 77.681 28.9119 77.6922C28.9156 77.7035 28.9156 77.7147 28.9194 77.7222C28.9231 77.7372 28.9306 77.7522 28.9344 77.7672C28.9381 77.7822 28.9456 77.7972 28.9531 77.8122V77.816C28.9569 77.8235 28.9569 77.8272 28.9606 77.8347C28.9756 77.8722 28.9944 77.9097 29.0056 77.951C29.0094 77.9622 29.0169 77.9772 29.0206 77.9922C29.0281 78.011 29.0319 78.0297 29.0394 78.0447C29.0469 78.0635 29.0506 78.0822 29.0544 78.101C29.0694 78.1497 29.0806 78.2022 29.0881 78.2547C29.0919 78.266 29.0919 78.281 29.0956 78.2922C29.0994 78.311 29.0994 78.326 29.1031 78.3447C29.1069 78.3635 29.1069 78.3822 29.1106 78.3972C29.1144 78.416 29.1144 78.4347 29.1144 78.4535C29.1144 78.4685 29.1181 78.4835 29.1181 78.4985C29.1219 78.5435 29.1219 78.5885 29.1219 78.6297C29.1219 78.6447 29.1219 78.6597 29.1219 78.671C29.1219 78.6897 29.1219 78.7085 29.1181 78.7272C29.1144 78.776 29.1106 78.8247 29.1069 78.8697C29.1031 78.8922 29.1031 78.9147 29.0994 78.9335C29.0956 78.956 29.0919 78.9747 29.0881 78.9972C29.0881 79.001 29.0881 79.001 29.0881 79.001C29.0844 79.0197 29.0806 79.0422 29.0769 79.061C29.0731 79.0797 29.0694 79.1022 29.0656 79.121C29.0656 79.1247 29.0619 79.1322 29.0619 79.136C29.0544 79.1697 29.0431 79.2035 29.0356 79.2372C29.0319 79.2447 29.0319 79.2522 29.0281 79.2597C29.0244 79.2785 29.0169 79.2972 29.0094 79.316C29.0019 79.3385 28.9944 79.3572 28.9869 79.3797C28.9794 79.3985 28.9719 79.4172 28.9681 79.436C28.9681 79.4397 28.9681 79.4397 28.9644 79.4435C28.9569 79.4622 28.9494 79.481 28.9419 79.4997C28.9344 79.5222 28.9231 79.5447 28.9119 79.5635C28.9044 79.5822 28.8969 79.601 28.8856 79.6197C28.8669 79.661 28.8444 79.7022 28.8219 79.7435C28.8106 79.7622 28.7994 79.781 28.7919 79.7997C28.7806 79.8222 28.7694 79.841 28.7544 79.8597C28.7431 79.8747 28.7356 79.8897 28.7244 79.9047C28.7131 79.9197 28.7056 79.9347 28.6944 79.9497C28.6869 79.961 28.6794 79.9685 28.6719 79.9797C28.6606 79.9947 28.6494 80.0097 28.6381 80.0247C28.6344 80.0322 28.6269 80.0397 28.6231 80.0472C28.6081 80.066 28.5931 80.0847 28.5781 80.1035C28.5294 80.1635 28.4769 80.2197 28.4169 80.276C28.3756 80.3135 28.3344 80.3547 28.2969 80.396C28.2556 80.4372 28.2144 80.4785 28.1731 80.516C28.0381 80.6472 27.9069 80.786 27.7756 80.9285C27.7456 80.9622 27.7156 80.9922 27.6856 81.026C27.3856 81.356 27.0969 81.6935 26.8644 82.0122C26.8494 82.031 26.8381 82.0497 26.8231 82.0685C26.8081 82.091 26.7931 82.1097 26.7781 82.1322C26.7331 82.196 26.6919 82.256 26.6544 82.316C26.6431 82.3347 26.6281 82.3535 26.6169 82.3722C26.5869 82.4247 26.5569 82.4735 26.5269 82.5222C26.5119 82.5447 26.5006 82.571 26.4856 82.5935C26.4706 82.6235 26.4556 82.6535 26.4406 82.6797C26.4331 82.6985 26.4219 82.7172 26.4144 82.7322C26.4031 82.7585 26.3881 82.7847 26.3769 82.811C26.3656 82.8335 26.3581 82.856 26.3506 82.8785C26.3431 82.8972 26.3356 82.916 26.3281 82.9347C26.3131 82.9722 26.3019 83.0135 26.2869 83.051C26.2756 83.0885 26.2606 83.126 26.2531 83.1672C26.2381 83.2235 26.2231 83.2835 26.2081 83.3397C26.2006 83.3772 26.1931 83.4185 26.1856 83.456C26.1631 83.6097 26.1481 83.7447 26.1406 83.8835ZM29.5381 84.236C29.4331 84.071 29.4069 83.8572 29.4856 83.6547C29.6806 83.3172 29.8606 82.9797 30.0256 82.646C30.2581 82.1772 30.4569 81.7085 30.6219 81.2472C30.6519 81.1685 30.6781 81.0897 30.7044 81.0072C30.7494 80.8722 30.7906 80.7372 30.8281 80.6022C30.9181 80.276 30.9931 79.9497 31.0419 79.631C31.0419 79.6272 31.0419 79.6235 31.0419 79.6197C31.0794 79.5222 31.1356 79.4397 31.2069 79.376C31.3419 79.2522 31.5219 79.1885 31.7056 79.2072C31.7094 79.2072 31.7131 79.2072 31.7169 79.211C31.7281 79.211 31.7394 79.2147 31.7544 79.2185C31.7806 79.2222 31.8031 79.2297 31.8294 79.2372C31.8406 79.241 31.8519 79.2447 31.8669 79.2485L31.9756 79.2897L33.0069 79.6872L33.1719 79.751C33.3781 79.8297 33.5244 80.0135 33.5619 80.2347L33.7194 81.1535L33.7456 81.2997L33.7606 81.3972L33.8506 81.9185C33.8806 82.106 33.8319 82.301 33.7081 82.451L33.2806 82.9647L32.9881 83.3172L32.1219 84.356L32.0994 84.3822L31.7769 84.7685C31.7469 84.806 31.7131 84.836 31.6756 84.866C31.6719 84.8697 31.6719 84.8697 31.6681 84.8697C31.6644 84.8735 31.6644 84.8735 31.6606 84.8735C31.6006 84.9185 31.5331 84.9522 31.4619 84.971C31.3344 85.0085 31.1919 85.0047 31.0644 84.956L29.8456 84.4872C29.7106 84.4347 29.6094 84.3447 29.5381 84.236ZM33.2769 82.961C33.2769 82.9685 33.2806 82.976 33.2806 82.9835C33.2881 83.0247 33.2956 83.0697 33.3031 83.111C33.3069 83.126 33.3069 83.1447 33.3106 83.1597C33.3181 83.2122 33.3256 83.2647 33.3331 83.3135L34.1581 82.3272C34.1694 82.3122 34.1806 82.301 34.1881 82.286C34.1956 82.2747 34.2031 82.2635 34.2106 82.2522C34.2144 82.2447 34.2219 82.2372 34.2256 82.226C34.2294 82.2222 34.2294 82.2185 34.2331 82.2147C34.2406 82.2035 34.2444 82.1922 34.2481 82.181C34.1319 81.941 34.0156 81.7085 33.8994 81.491C33.8544 81.461 33.8056 81.4272 33.7606 81.3935L33.8506 81.9147C33.8806 82.1022 33.8319 82.2972 33.7081 82.4472L33.2769 82.961Z"
          fill="#1E8161"/>
    <path d="M32.1211 84.7428C31.9861 84.8478 31.8211 84.8928 31.6523 84.8703C31.6561 84.8666 31.6636 84.8628 31.6673 84.8591C31.7048 84.8328 31.7386 84.7991 31.7686 84.7616L33.7036 82.4441C33.8273 82.2978 33.8798 82.1028 33.8461 81.9116L33.5573 80.2278C33.5198 80.0066 33.3736 79.8228 33.1673 79.7441L31.8623 79.2416C31.8136 79.2228 31.7648 79.2116 31.7161 79.2041C31.8436 79.1103 31.9973 79.0691 32.1548 79.0841C32.2073 79.0878 32.2598 79.1028 32.3123 79.1216L33.6173 79.6241C33.8236 79.7028 33.9698 79.8866 34.0073 80.1078L34.2961 81.7916C34.3261 81.9791 34.2773 82.1741 34.1536 82.3241L32.2186 84.6416C32.1923 84.6828 32.1586 84.7166 32.1211 84.7428Z"
          fill="#004C40"/>
    <path d="M28.4164 80.2839C29.0727 79.6502 29.3014 78.6114 28.9527 77.8389C28.9077 77.7377 28.8814 77.6439 28.8814 77.5652C28.8927 77.0589 29.3127 76.6539 29.7139 76.7139C29.5002 76.8639 29.3389 77.1377 29.3314 77.4489C29.3277 77.5277 29.3539 77.6177 29.4027 77.7227C29.7514 78.4952 29.5227 79.5339 28.8664 80.1677C28.0189 80.9852 27.0777 82.0577 26.8039 82.7739C26.3427 83.9664 26.6202 85.2489 27.5914 85.6239L31.9452 87.3039L31.5814 87.4577L27.1377 85.7402C26.1664 85.3652 25.8889 84.0827 26.3502 82.8902C26.6314 82.1777 27.5689 81.1052 28.4164 80.2839Z"
          fill="#004C40"/>
    <path d="M80.2167 53.4339C81.0229 53.4114 80.7379 54.6077 80.7079 54.6114L79.8379 55.0164C78.8779 54.3714 78.9379 53.4677 80.2167 53.4339Z"
          fill="#FFCB68"/>
    <path d="M80.9164 54.5137L79.9114 54.9674L79.6602 55.0799C80.3802 56.8762 81.2014 58.5974 81.8389 58.9874C82.0377 59.1074 82.2702 59.2162 82.5252 59.3099L82.9114 59.3962C82.9114 59.3962 83.5827 59.9212 84.8764 60.4574C87.4527 60.6562 88.6264 57.5437 87.6177 57.3374C84.6514 57.8362 82.7202 57.0712 82.7202 57.0712L81.9252 55.9499L80.9164 54.5137Z"
          fill="#FFCB68"/>
    <path d="M81.9336 55.9463C82.3573 56.6963 82.1473 57.0188 82.3686 57.5513C82.6611 57.1275 82.7248 57.0713 82.7248 57.0713L81.9336 55.9463Z"
          fill="#FFCB68"/>
    <path d="M79.9153 54.9678L79.6641 55.0803C80.3841 56.8765 81.2053 58.5978 81.8428 58.9878C82.0416 59.1078 82.2741 59.2165 82.5291 59.3103L82.9153 59.3965C82.4916 59.209 82.1578 59.029 81.8503 58.759C80.9503 57.9828 80.2866 55.5828 79.9153 54.9678Z"
          fill="#FFCB68"/>
    <path d="M81.5642 77.4299C81.9805 79.9649 82.2505 82.4699 82.9255 84.9036C81.7892 85.4774 81.2455 86.0849 80.1055 86.6511C81.5642 86.9474 82.8317 86.5086 84.283 86.8499C84.3842 85.6124 84.1592 86.3849 84.3317 84.8099C84.5042 83.2349 84.0655 79.9161 83.9005 77.9774C83.7917 76.6949 84.4405 75.5736 84.0542 74.4149C87.1705 73.3274 89.038 71.3061 89.878 67.5524C89.9192 67.3649 89.9192 67.1174 89.9492 66.9186C88.6855 66.7949 87.4367 66.6749 86.1655 66.5361C84.3655 69.6861 82.2092 70.5674 81.3317 73.4436C80.9755 74.6136 81.3692 76.2336 81.5642 77.4299Z"
          fill="#F9CBCB"/>
    <path d="M82.0159 83.8872C82.4809 84.1647 84.2847 84.116 84.6034 83.801C83.8309 79.3122 84.9597 78.191 83.6809 75.1085C84.4947 74.3585 87.3447 72.6147 87.8022 72.1122C88.8784 70.931 89.5684 69.3147 89.8684 67.5522C89.8984 67.3685 89.9209 67.106 89.9397 66.9185C88.6759 66.7872 87.4234 66.6822 86.1597 66.5322C84.3109 68.6172 81.8097 71.1372 80.8947 74.1635C80.5272 75.3935 81.7909 82.5672 82.0159 83.8872Z"
          fill="#1E8161"/>
    <path d="M83.9313 84.0224C84.2275 83.9624 84.4188 83.9549 84.6025 83.8011C84.3363 81.7874 84.565 79.5786 84.4863 78.0749C84.4038 76.4624 84.3025 75.9636 84.4863 75.6711C85.12 74.6511 86.4812 73.6124 87.0325 72.9974C87.0287 71.5574 86.6387 71.9586 86.6387 71.9586C86.6387 71.9586 86.2488 72.7124 85.105 73.8861C84.46 74.5499 83.0312 75.2999 83.0312 75.2999C84.355 76.1924 83.6875 82.7699 83.9313 84.0224Z"
          fill="#004C40"/>
    <path d="M88.6376 77.1297C89.2564 78.1235 90.1939 80.096 90.7751 80.4897C92.3951 81.5847 93.8764 82.046 95.5189 82.8597C95.7139 82.5072 95.9389 82.136 96.1414 81.7947C95.0389 80.291 91.3976 77.1822 90.8914 76.8372C91.1726 73.2297 91.3601 69.986 90.2614 66.5322C89.7139 66.5697 89.0464 66.6297 88.5251 66.6672C88.0039 66.7047 87.6326 66.7347 87.1414 66.761C87.0664 67.0385 87.0214 67.0385 86.9951 67.4022C86.7626 70.976 86.8826 74.3022 88.6376 77.1297Z"
          fill="#F9CBCB"/>
    <path d="M87.7131 78.3485C88.1294 78.7347 89.1419 79.3197 90.2669 80.1972C91.6469 81.2772 93.4394 82.3497 93.8519 82.4772C94.1519 82.481 94.0731 82.5597 94.5381 82.0047C94.7369 81.7685 95.2019 81.1572 95.3556 80.7522C93.8256 79.3685 93.3419 78.5022 92.1419 77.4522C90.5331 76.0722 91.0919 74.8985 91.1181 73.991C91.1369 73.286 91.1931 72.4835 91.1631 71.7972C91.1294 71.006 91.0581 70.2222 90.9381 69.431C90.9306 69.386 90.9231 69.3372 90.9156 69.2922C90.9081 69.236 90.8969 69.1835 90.8894 69.1272C90.8781 69.056 90.8669 68.9885 90.8519 68.921C90.8444 68.876 90.8369 68.8272 90.8256 68.7822C90.6869 68.0435 90.5031 67.2972 90.2631 66.5322C89.9331 66.5547 89.6444 66.581 89.3106 66.6035C88.9769 66.626 88.8944 66.6447 88.4706 66.671C88.0431 66.6972 87.2144 66.7085 86.7156 66.7572C86.6894 67.2485 86.6706 67.7922 86.6519 68.3697C86.6519 68.4185 86.6481 68.4672 86.6481 68.5122C86.6444 68.6322 86.6406 68.756 86.6406 68.8797C86.6406 68.9022 86.6406 68.9247 86.6406 68.9472C86.6406 68.9735 86.6406 68.9997 86.6406 69.026C87.5031 76.5035 87.0456 77.7335 87.7131 78.3485Z"
          fill="#1E8161"/>
    <path d="M90.375 80.2803C91.755 81.3603 93.555 82.4328 93.9675 82.5603C94.2675 82.564 94.5225 81.9565 94.9875 81.4015C93.7013 81.3978 91.8563 80.9103 90.375 80.2803Z"
          fill="#004C40"/>
    <path d="M92.6322 77.9141C91.9309 77.2729 91.5859 76.9016 91.3272 76.4741C91.0047 75.6904 91.2297 73.3691 91.1622 71.7979C91.1622 71.7979 91.0572 75.1016 90.2734 76.7891C90.2772 76.7891 91.2334 77.4529 92.6322 77.9141Z"
          fill="#004C40"/>
    <path d="M84.2906 84.994C84.5419 85.8115 84.6356 86.194 84.4406 87.0265C84.1781 87.0152 79.8506 87.0265 79.8506 87.0265C79.6669 85.129 81.8794 85.6765 82.9256 84.904C83.3419 84.7727 83.7544 85.4927 84.2906 84.994Z"
          fill="#2E3552"/>
    <path d="M95.9983 81.6152C96.8458 81.7427 97.097 81.8402 97.7645 82.3765C97.8245 82.4815 98.3045 82.8115 98.1245 83.1827C97.8583 83.734 97.5583 83.7265 96.992 85.2265C96.6845 86.0365 94.7908 86.779 94.607 86.5915C93.7333 85.6915 95.6308 84.094 95.327 82.8077C95.3908 82.3765 96.2158 82.3127 95.9983 81.6152Z"
          fill="#2E3552"/>
    <path d="M84.6562 67.8153C86.0438 69.2403 89.0963 68.6215 90.7688 68.554C90.87 67.7778 91.095 66.0678 91.305 64.4178C91.47 63.1128 91.6275 61.8453 91.7063 61.1065C91.89 59.929 91.425 58.8303 90.6262 58.1103C90.5925 58.0765 90.555 58.0465 90.5175 58.0165C90.51 58.009 90.4988 58.0015 90.4913 57.994C90.4763 57.979 90.4575 57.9678 90.4425 57.9565C89.9138 57.544 89.265 57.2853 88.5712 57.2628C88.2562 57.2365 87.5438 57.2178 87.5438 57.2178C87.5438 57.2178 87.2138 57.2478 86.8313 57.3228C86.6288 57.364 86.4112 57.4165 86.22 57.4878C86.0287 57.559 85.8638 57.6453 85.7625 57.7503C85.0688 59.1378 84.7875 61.924 84.9 63.0228C84.9038 63.0603 84.9075 63.1015 84.9113 63.1428C85.02 64.5228 85.2488 67.0015 84.6562 67.8153Z"
          fill="#FFCB68"/>
    <path d="M87.5039 62.467C87.5039 62.467 88.5989 65.2233 88.6777 65.3433C88.7564 65.4633 90.0839 66.1195 90.1364 66.1195C90.1627 66.1195 90.6727 65.9808 91.1527 65.617C91.2014 65.2345 91.2539 64.837 91.3027 64.4395C91.4564 63.2095 91.6102 61.9645 91.7077 61.1095C91.6102 60.607 91.5277 60.2695 91.5277 60.2695L87.5039 62.467Z"
          fill="#FFA412"/>
    <path d="M84.2148 68.7262L84.5898 68.7599L86.2923 68.9137L86.6411 68.9474L86.6673 68.9512L86.9223 68.9737L86.9973 68.9812L89.4011 69.2024L89.4648 69.2062L90.8936 69.1912C90.8936 69.1687 90.8936 69.1499 90.8898 69.1274C90.8861 69.0599 90.8861 68.9887 90.8861 68.9174C90.8861 68.8724 90.8861 68.8237 90.8861 68.7787C90.8973 67.4587 91.1636 65.9399 91.3023 64.4362V64.4174L91.3286 64.1174C91.3286 64.1174 90.8936 64.0874 90.3311 63.9674H90.3273C89.7648 63.8512 89.0786 63.6449 88.5761 63.2962C87.5711 62.6024 87.7736 61.4324 88.3886 60.0112C88.9923 58.6274 90.4173 58.1699 90.6273 58.1099C90.5936 58.0799 90.5561 58.0499 90.5186 58.0199C90.5111 58.0124 90.4998 58.0049 90.4923 57.9974C90.4773 57.9824 90.4586 57.9712 90.4436 57.9599C90.3348 57.8774 90.2223 57.7987 90.1023 57.7274C88.9848 57.9674 88.1973 58.9612 87.7998 59.5874C87.6011 59.8987 87.2261 60.0487 86.8661 59.9624C86.4648 59.8649 86.2023 59.5087 86.2023 59.1224C86.2023 59.0174 86.2211 58.9124 86.2623 58.8112C86.5061 58.1662 86.6298 57.6862 86.8286 57.3262C86.6261 57.3674 86.4086 57.4199 86.2173 57.4912C86.0373 57.6824 85.6398 58.7962 85.4598 59.7637C85.2198 61.0237 84.9948 61.7962 84.9086 63.1499C84.8898 63.4349 84.8786 63.7424 84.8711 64.0874C84.8636 64.6687 84.9798 65.5649 84.9086 66.4912C84.8823 66.8512 84.8261 67.2149 84.7211 67.5674C84.7136 67.5937 84.7061 67.6199 84.6986 67.6462C84.6836 67.6912 84.6686 67.7362 84.6536 67.7812C84.6198 67.8824 84.5823 67.9874 84.5373 68.0887C84.5186 68.1299 84.4998 68.1749 84.4811 68.2199C84.4098 68.3887 84.3198 68.5612 84.2148 68.7262Z"
          fill="#1E8161"/>
    <path d="M88.8709 57.2813C88.7546 57.5363 88.6121 57.72 88.4659 57.8363C88.4621 57.8363 88.4621 57.8363 88.4621 57.8363C88.0121 58.2 86.8421 57.9263 87.2546 57.2813C87.2546 57.2813 87.3896 56.7488 87.3146 56.22C87.5884 56.16 88.9496 55.3838 88.9496 55.3838L88.8709 57.2813Z"
          fill="#FCC8AF"/>
    <path d="M88.8705 57.2811C88.7542 57.5361 88.6117 57.7199 88.4655 57.8361C88.4617 57.8361 88.4617 57.8361 88.4617 57.8361C88.4167 57.8511 88.878 57.1649 88.5742 56.8124C88.4242 56.6361 87.6592 57.0524 87.543 56.8124L87.5655 56.5011L87.5842 56.2724L88.9492 55.3799L88.8705 57.2811Z"
          fill="#F3B99C"/>
    <path d="M89.026 55.5526C89.026 55.5526 88.951 55.6013 88.9097 55.5451C88.786 55.9763 88.3172 57.3676 87.091 57.0601C86.7985 56.9926 86.5435 56.6626 86.341 56.2276C86.2172 55.9613 86.2097 55.2976 86.0297 55.0276C85.7785 54.6488 85.9097 54.1688 85.906 53.7938C86.581 52.8188 89.0897 53.3476 88.8947 54.4351C88.8947 54.4351 89.2022 54.1688 89.3747 54.5101C89.656 55.0726 89.026 55.5526 89.026 55.5526Z"
          fill="#FCC8AF"/>
    <path d="M85.793 54.6976C85.793 54.6976 85.6543 54.4163 85.718 53.8651C85.6655 53.9401 85.6205 53.9963 85.5793 54.1426C85.4443 53.7001 85.5868 53.1301 86.0968 52.8863C86.0368 52.8601 85.8643 52.8938 85.7705 52.9351C86.5618 52.2563 87.833 52.1326 88.2493 52.5188C88.2493 52.5188 88.373 52.3426 88.2455 52.1738C88.2455 52.1738 88.6205 52.4851 88.5793 52.6238C88.5793 52.6238 88.6543 52.4513 88.8905 52.5376C88.793 52.5713 88.688 52.6313 88.7068 52.7363C89.018 52.7626 89.588 53.3738 89.4493 54.1538C89.4493 54.1538 89.4005 54.0526 89.3143 53.9476C89.3143 53.9476 89.4943 54.6076 88.8755 55.1288C88.8755 55.1288 89.0593 54.7726 88.7218 54.2288C88.3843 53.6851 87.863 54.4763 86.873 53.9251C85.988 53.4338 85.793 54.6976 85.793 54.6976Z"
          fill="#30334D"/>
    <path d="M84.6562 67.7738C85.1737 68.0063 85.8112 68.2538 86.595 68.4976C86.6137 68.5013 86.6288 68.5088 86.6475 68.5126C87.75 68.8426 89.0213 68.9326 90.0863 68.9326C90.3563 68.9326 90.6112 68.9288 90.8512 68.9176C90.8625 68.9176 90.8738 68.9176 90.885 68.9176C90.885 68.8726 90.885 68.8238 90.885 68.7788C90.8663 68.7788 90.8475 68.7788 90.8288 68.7826C89.6513 68.8276 88.0163 68.7863 86.655 68.3701C86.6513 68.3701 86.6437 68.3663 86.64 68.3663C85.8562 68.1263 85.2188 67.8751 84.705 67.6426C84.6863 67.6876 84.675 67.7326 84.6562 67.7738Z"
          fill="#004C40"/>
    <path d="M84.4883 68.2125C84.9683 68.4412 85.5608 68.6812 86.292 68.9175C86.3895 68.9512 86.4945 68.9812 86.5958 69.015C86.6108 69.0187 86.622 69.0225 86.637 69.0262C87.252 69.21 87.9195 69.3225 88.5758 69.3825H88.5795C88.602 69.3862 88.6208 69.3862 88.6395 69.39C89.112 69.4312 89.577 69.45 90.012 69.45C90.0383 69.45 90.0645 69.45 90.0908 69.45C90.1133 69.45 90.132 69.45 90.1508 69.45C90.432 69.45 90.6945 69.4425 90.9383 69.4312C90.9308 69.3862 90.9233 69.3375 90.9158 69.2925C89.8283 69.3375 88.317 69.315 86.9933 68.9812C86.8733 68.9512 86.7533 68.9175 86.637 68.8837H86.6333C85.767 68.6175 85.0808 68.34 84.5408 68.085C84.5258 68.1262 84.507 68.1675 84.4883 68.2125Z"
          fill="#004C40"/>
    <path d="M90.2814 71.7786C90.3827 73.1736 90.4127 75.0111 90.1352 76.8073L90.1276 76.8486L90.1614 76.8748C90.1989 76.9048 93.8889 79.7998 95.0739 81.2848C95.1002 81.2436 95.1264 81.1986 95.1526 81.1573C93.9751 79.7136 90.6676 77.0961 90.2776 76.7886C90.7839 73.4661 90.2477 70.0123 90.1539 69.4498C90.1464 69.4011 90.1389 69.3748 90.1389 69.3711L90.0039 69.3973C90.0039 69.4011 90.0076 69.4198 90.0151 69.4498C90.0526 69.6636 90.1839 70.4773 90.2702 71.6173C90.2739 71.6698 90.2777 71.7223 90.2814 71.7786Z"
          fill="#004C40"/>
    <path d="M90.3188 71.7978L90.375 71.6703C88.6612 70.9016 88.6387 69.3978 88.6387 69.3828H88.5C88.5 69.4016 88.5263 70.9953 90.3188 71.7978Z"
          fill="#004C40"/>
    <path d="M86.0107 63.6716C86.1532 63.7204 86.2844 63.7466 86.4044 63.7466C86.5732 63.7466 86.7232 63.6979 86.8544 63.6004C87.4319 63.1654 87.3682 61.9166 87.3644 61.8641L87.3607 61.7891L87.2857 61.7966C87.2744 61.7966 86.2019 61.9241 85.6132 61.3579L85.5307 61.2754L85.5007 61.3879C85.4782 61.4741 84.9869 63.3116 86.0107 63.6716ZM85.6094 61.5416C86.1607 61.9879 86.9782 61.9654 87.2294 61.9466C87.2332 62.2166 87.2182 63.1579 86.7719 63.4916C86.5882 63.6266 86.3482 63.6454 86.0594 63.5441C85.2869 63.2704 85.5194 61.9354 85.6094 61.5416Z"
          fill="#004C40"/>
    <path d="M83.1479 47.3884L73.7429 49.7659L70.9041 43.1509L70.8366 42.9934C70.6604 42.5847 70.8929 42.1159 71.3241 42.0072L81.5766 39.4159C82.0079 39.3072 82.4316 39.6072 82.4729 40.0497L82.6641 42.1234L83.1479 47.3884Z"
          fill="#F5F5F5"/>
    <path d="M73.3133 46.496C73.1858 46.1848 73.0621 45.8773 72.9346 45.566C72.9083 45.5023 72.8183 45.5548 72.8446 45.6185C73.2908 46.7098 73.7371 47.801 74.1833 48.8923C74.3108 49.2035 74.4346 49.511 74.5621 49.8223C74.5883 49.886 74.6783 49.8335 74.6521 49.7698C74.2058 48.6785 73.7596 47.5873 73.3133 46.496Z"
          fill="#9FA4AB"/>
    <path d="M74.5907 47.4596C74.2795 46.6308 73.972 45.8058 73.6607 44.9771C73.4845 44.5083 73.3082 44.0396 73.1357 43.5708C73.1132 43.5071 73.012 43.5333 73.0345 43.5971C73.3457 44.4258 73.6532 45.2508 73.9645 46.0796C74.2757 46.9083 74.5832 47.7333 74.8945 48.5621L75.4195 49.9683C75.442 50.0321 75.5432 50.0058 75.5207 49.9421C75.2095 49.1133 74.902 48.2846 74.5907 47.4596Z"
          fill="#9FA4AB"/>
    <path d="M74.9785 45.7083C74.8547 45.3183 74.7272 44.9283 74.5997 44.5383C74.5772 44.4745 74.4797 44.5046 74.4985 44.5683C74.9447 45.9483 75.3872 47.3283 75.8335 48.7046C75.9572 49.0946 76.0847 49.4846 76.2122 49.8746C76.2347 49.9383 76.3322 49.9083 76.3135 49.8445C75.8672 48.4645 75.4247 47.0846 74.9785 45.7083Z"
          fill="#9FA4AB"/>
    <path d="M76.3664 46.2824C76.1339 45.3861 75.8976 44.4936 75.6651 43.5974C75.5339 43.0911 75.3989 42.5849 75.2676 42.0749C75.2489 42.0111 75.1476 42.0336 75.1664 42.1011C75.4026 43.0011 75.6389 43.8974 75.8714 44.7974C76.1076 45.6936 76.3401 46.5861 76.5726 47.4824C76.7039 47.9886 76.8389 48.4949 76.9701 49.0049C76.9889 49.0686 77.0901 49.0461 77.0714 48.9786C76.8389 48.0786 76.6026 47.1786 76.3664 46.2824Z"
          fill="#9FA4AB"/>
    <path d="M77.2172 45.3861C77.1272 45.0336 77.0372 44.6811 76.9472 44.3249C76.9322 44.2611 76.8272 44.2836 76.846 44.3511C77.161 45.5999 77.4797 46.8449 77.7947 48.0936C77.8847 48.4461 77.9747 48.7986 78.0647 49.1549C78.0797 49.2186 78.1847 49.1961 78.166 49.1286L77.2172 45.3861Z"
          fill="#9FA4AB"/>
    <path d="M77.5101 42.9037L78.9764 48.7087C78.9914 48.7725 79.0964 48.75 79.0776 48.6825L77.6114 42.8775C77.5926 42.8137 77.4914 42.84 77.5101 42.9037Z"
          fill="#9FA4AB"/>
    <path d="M79.3617 44.9807L80.1792 48.2169C80.1942 48.2807 80.2992 48.2582 80.2804 48.1907L79.4629 44.9544C79.4442 44.8869 79.3429 44.9132 79.3617 44.9807Z"
          fill="#9FA4AB"/>
    <path d="M79.5601 40.9908L81.4051 48.2958C81.4201 48.3595 81.5251 48.337 81.5064 48.2695L79.6614 40.9645C79.6464 40.9008 79.5451 40.9233 79.5601 40.9908Z"
          fill="#9FA4AB"/>
    <path d="M81.3524 42.6594C81.6487 44.2044 81.9487 45.7531 82.2449 47.2981C82.3312 47.7369 82.4137 48.1794 82.4999 48.6181C82.5112 48.6856 82.6162 48.6594 82.6012 48.5919C82.3049 47.0469 82.0049 45.4981 81.7087 43.9531C81.6224 43.5144 81.5399 43.0719 81.4537 42.6331C81.4424 42.5656 81.3412 42.5919 81.3524 42.6594Z"
          fill="#9FA4AB"/>
    <path d="M73.7539 49.7623L74.3952 52.2973C74.5752 53.006 75.0552 53.5948 75.7152 53.9098L76.2327 54.1573C77.2489 54.641 77.9314 55.5448 78.4714 56.531C79.4914 58.3948 79.9789 60.3935 80.0652 62.4935C80.1139 63.7198 81.2727 64.5973 82.4652 64.2973C83.5152 64.031 84.1227 62.9698 83.8639 61.9573C83.8414 61.8635 83.8077 61.7698 83.7702 61.676C82.9639 59.7598 82.3864 57.7798 82.3039 55.7323C82.2552 54.5023 82.4052 53.276 83.1402 52.2898L83.3764 51.9748C83.8189 51.3823 83.9689 50.6248 83.7889 49.9085L83.1514 47.3848L73.7539 49.7623ZM82.1389 63.1835C81.6177 63.3148 81.0889 62.9998 80.9577 62.4785C80.8264 61.9573 81.1414 61.4285 81.6627 61.2973C82.1839 61.166 82.7127 61.481 82.8439 62.0023C82.9752 62.5235 82.6602 63.0523 82.1389 63.1835Z"
          fill="#004C40"/>
    <path d="M83.1369 47.3837L73.7461 49.7559L74.3136 52.0027L83.7045 49.6305L83.1369 47.3837Z" fill="#1E8161"/>
    <path d="M81.6101 61.0874C80.9726 61.2487 80.5863 61.8937 80.7476 62.5312C80.9088 63.1687 81.5538 63.5549 82.1913 63.3937C82.8288 63.2324 83.2151 62.5874 83.0538 61.9499C82.8926 61.3124 82.2476 60.9262 81.6101 61.0874ZM82.1388 63.1837C81.6176 63.3149 81.0888 62.9999 80.9576 62.4787C80.8263 61.9574 81.1413 61.4287 81.6626 61.2974C82.1838 61.1662 82.7126 61.4812 82.8438 62.0024C82.9751 62.5237 82.6601 63.0524 82.1388 63.1837Z"
          fill="#1E8161"/>
    <path d="M83.2268 47.7323L73.8359 50.1045L73.8635 50.2136L83.2543 47.8414L83.2268 47.7323Z" fill="white"/>
    <path d="M83.6135 49.2665L74.2227 51.6387L74.2502 51.7477L83.641 49.3756L83.6135 49.2665Z" fill="white"/>
    <path d="M82.664 42.1234C82.5927 42.1572 82.5215 42.1834 82.4502 42.1984C81.7377 42.3372 81.0027 40.0947 80.8227 40.1884C80.6427 40.2822 80.669 41.2347 80.3765 41.2609C80.0877 41.2872 79.9527 40.3797 79.619 40.4472C79.289 40.5147 80.144 42.9334 79.5102 42.9859C78.8765 43.0384 78.3927 41.3734 78.164 41.4297C77.9352 41.4897 78.3065 42.6484 77.8302 42.8172C77.3577 42.9859 76.6377 41.1897 76.2852 41.4334C75.9365 41.6772 76.934 44.0359 76.079 44.1072C75.224 44.1784 74.699 41.6059 74.3502 41.8534C74.0015 42.0972 74.7515 42.8847 74.384 43.1922C73.9902 43.5222 73.4727 42.3372 73.2327 42.4947C72.9927 42.6522 73.424 43.9159 72.974 44.2759C72.5577 44.6059 71.969 42.6072 71.6652 42.7309C71.3615 42.8547 71.9427 43.8222 71.2602 43.9909L70.8327 42.9934C70.6565 42.5847 70.889 42.1159 71.3202 42.0072L81.5727 39.4159C82.004 39.3072 82.4277 39.6072 82.469 40.0497L82.664 42.1234Z"
          fill="white"/>
    <path d="M80.5256 59.9997C80.4244 59.7785 80.1806 58.8597 79.9631 58.8897C79.8506 58.9235 80.2706 59.8497 80.0231 59.756C79.7756 59.6622 79.4494 58.7022 79.3294 58.4735C79.2094 58.2447 78.3056 60.4685 80.0456 61.0797L80.5556 61.2672L80.8819 60.4085C80.8819 60.4085 80.5969 60.1572 80.5256 59.9997Z"
          fill="#FCC8AF"/>
    <path d="M80.7242 60.2473C80.5555 60.881 80.1055 61.3198 80.1055 61.3198C81.6917 62.9023 85.2655 65.066 86.128 65.0698C86.908 65.0698 88.7567 63.8173 89.4655 63.206C91.468 61.4735 92.1017 59.5573 90.8867 59.2798C88.873 58.8335 86.7655 62.981 85.8092 62.396C84.8792 61.7735 83.1505 61.6798 80.7242 60.2473Z"
          fill="#FFCB68"/>
    <path d="M77.1172 79.7664L78.0922 79.7702C78.1222 79.7702 78.1447 79.7477 78.1447 79.7177V79.1627C78.1447 79.1327 78.1222 79.1102 78.0922 79.1102L77.1172 79.1064V79.7664Z"
          fill="#2E3552"/>
    <path d="M70.8127 79.7477L69.8377 79.744C69.8077 79.744 69.7852 79.7215 69.7852 79.6915V79.1365C69.7852 79.1065 69.8077 79.084 69.8377 79.084L70.8127 79.0877V79.7477Z"
          fill="#2E3552"/>
    <path d="M70.3086 78.0749L70.3536 78.6561L70.3948 79.2036L70.9086 86.1074C71.5198 86.3624 72.5623 86.7149 73.8973 86.7261C75.2923 86.7411 76.3836 86.3811 77.0023 86.1224L77.5498 79.2186L77.5948 78.6711L77.6398 78.0899C77.0323 77.5274 75.4686 77.2274 73.9798 77.2236C72.4836 77.2236 70.9198 77.5161 70.3086 78.0749Z"
          fill="white"/>
    <path d="M77.7011 78.6748L77.6636 79.1173L77.5698 80.3248L77.0598 86.7298C77.0373 87.0073 76.8236 87.2248 76.5498 87.2586C74.7723 87.4761 73.0773 87.5173 71.5098 87.2998C71.1386 87.2473 70.8573 86.9398 70.8311 86.5686L70.2761 79.0986L70.2461 78.6523H70.3548H70.5986C70.6586 78.7498 70.8686 78.9373 71.4386 79.1211C72.1098 79.3348 73.0098 79.4548 73.9736 79.4586C74.9373 79.4623 75.8373 79.3461 76.5123 79.1323C77.0823 78.9561 77.2923 78.7686 77.3523 78.6711L77.7011 78.6748Z"
          fill="#004C40"/>
    <path d="M77.7011 78.675L77.6636 79.1175L77.5698 80.325C77.5323 80.34 77.4986 80.3588 77.4536 80.3738C77.3748 80.4075 77.2811 80.4412 77.1798 80.4712C76.5086 80.685 75.6048 80.7975 74.6448 80.7975C73.6811 80.7938 72.7811 80.6738 72.1098 80.46C72.1061 80.4563 72.0986 80.4563 72.0948 80.4563C71.5361 80.2763 70.9736 80.715 71.0148 81.3L71.3861 86.295L71.4986 87.3038C71.1348 87.2438 70.8611 86.9437 70.8311 86.5762L70.2761 79.1025L70.2461 78.6562H70.3548H70.5986C70.6586 78.7538 70.8686 78.9412 71.4386 79.125C72.1098 79.3388 73.0098 79.4588 73.9736 79.4625C74.9373 79.4663 75.8373 79.35 76.5123 79.1363C77.0823 78.96 77.2923 78.7725 77.3523 78.675H77.7011Z"
          fill="#1E8161"/>
    <path d="M70.0391 78.6C70.0391 78.7837 70.1216 78.9487 70.2716 79.0987C70.3091 79.1325 70.3466 79.17 70.3916 79.2037C70.9241 79.6162 71.9928 79.8787 73.1328 79.965C73.4066 79.9875 73.6878 79.9987 73.9653 79.9987C75.3903 80.0025 76.8791 79.7362 77.5428 79.2225C77.5503 79.2187 77.5541 79.2112 77.5616 79.2075C77.5991 79.1775 77.6328 79.1475 77.6628 79.1175C77.8128 78.9675 77.8991 78.8025 77.8991 78.6187C77.8991 78.4237 77.8053 78.2475 77.6328 78.09C77.4228 77.895 77.0966 77.7337 76.7028 77.6025C76.5453 77.55 76.3766 77.505 76.2003 77.4637C76.0541 77.43 75.9003 77.3962 75.7391 77.37C75.1841 77.2725 74.5728 77.2237 73.9728 77.2237C73.0466 77.22 72.0903 77.3325 71.3516 77.5537C71.2953 77.5687 71.2391 77.5875 71.1866 77.6062C71.1603 77.6137 71.1341 77.625 71.1116 77.6325C70.7741 77.7525 70.4966 77.8987 70.3091 78.0712C70.1366 78.2287 70.0428 78.405 70.0391 78.6ZM71.4341 79.125C70.8678 78.945 70.6541 78.7575 70.5941 78.6562C70.5791 78.6337 70.5753 78.615 70.5753 78.6037C70.5753 78.54 70.7291 78.3187 71.3928 78.1012C71.4078 78.0975 71.4228 78.0937 71.4378 78.0862C71.4978 78.0675 71.5616 78.0487 71.6291 78.03C72.2778 77.8537 73.0991 77.76 73.9766 77.76C74.5203 77.76 75.0453 77.8012 75.5178 77.8725C75.6528 77.8912 75.7841 77.9175 75.9078 77.9437C75.9153 77.9437 75.9228 77.9475 75.9303 77.9475C76.1291 77.9887 76.3203 78.0375 76.4928 78.0937C76.4966 78.0937 76.5041 78.0975 76.5078 78.0975C77.2091 78.3225 77.3666 78.555 77.3666 78.6187C77.3666 78.63 77.3591 78.6487 77.3478 78.6712C77.2878 78.7687 77.0741 78.9562 76.5078 79.1362C75.8366 79.35 74.9366 79.4175 73.9766 79.4175C73.0091 79.4137 72.1053 79.3387 71.4341 79.125Z"
          fill="#004C40"/>
    <path d="M70.2745 79.0986C70.2745 79.0986 70.2333 80.5161 70.6645 80.5611C70.957 80.5911 70.9383 79.9949 71.1408 79.9949C71.3433 79.9949 71.1558 81.9749 71.6995 82.0199C72.1608 82.0574 72.112 80.8049 72.4045 80.7374C72.6932 80.6699 72.6445 81.5211 72.9445 81.5361C73.2407 81.5511 73.2145 80.0324 73.7058 79.9911C74.197 79.9499 74.0845 81.5999 74.4895 81.5886C74.8945 81.5774 74.9883 80.5911 75.2995 80.4036C75.6108 80.2161 75.7157 81.2399 75.9857 81.1724C76.2557 81.1049 76.4432 80.1336 76.7545 80.0811C77.0657 80.0286 76.732 82.3011 77.0958 82.1961C77.4558 82.0874 77.6695 79.1211 77.6695 79.1211C75.187 79.7586 72.7233 79.7211 70.2745 79.0986Z"
          fill="white"/>
    <path d="M73.9692 84.375C75.5517 84.3787 76.7667 83.505 77.4792 81.8475C78.0117 80.6138 78.0755 79.4025 78.0792 79.35L77.7642 79.3312C77.7642 79.3425 77.6967 80.5388 77.1905 81.7163C76.523 83.2613 75.4392 84.045 73.973 84.0413C73.973 84.0413 73.973 84.0413 73.9692 84.0413C72.4992 84.0375 71.4117 83.25 70.7442 81.7012C70.2342 80.5237 70.1705 79.3237 70.1705 79.3125L69.8555 79.3312C69.8592 79.3837 69.923 80.595 70.4555 81.8325C71.168 83.49 72.383 84.3712 73.9692 84.375Z"
          fill="#2E3552"/>
    <path d="M72.9788 84.4383L74.6026 84.442C74.6288 84.442 74.6513 84.4195 74.6513 84.3933V83.8533C74.6513 83.827 74.6288 83.8045 74.6026 83.8045L72.9788 83.8008C72.9526 83.8008 72.9301 83.8233 72.9301 83.8495V84.3895C72.9263 84.4158 72.9488 84.4383 72.9788 84.4383Z"
          fill="white"/>
    <path d="M46.9138 85.5977C46.8576 85.5902 46.8126 85.5414 46.8088 85.4852C46.8051 85.4252 46.8463 85.3764 46.9026 85.3614L47.7651 85.1664L55.4338 84.8252L55.4601 85.3764L47.7913 85.7177L46.9138 85.5977Z"
          fill="#F5F5F5"/>
    <path d="M46.914 85.5981C46.8577 85.5906 46.8127 85.5418 46.8089 85.4856C46.8052 85.4406 46.8315 85.3993 46.869 85.3768C46.8802 85.3806 46.8915 85.3843 46.9065 85.3881L47.784 85.5043L55.4527 85.1631L55.464 85.3768L47.7952 85.7181L46.914 85.5981Z"
          fill="white"/>
    <path d="M55.5145 86.6028L55.387 83.7153C55.3795 83.5503 55.507 83.4078 55.6758 83.4003L56.2383 83.374L56.3958 86.8653L55.8333 86.8915C55.6645 86.899 55.522 86.7678 55.5145 86.6028Z"
          fill="#1E8161"/>
    <path d="M55.5195 86.6289L55.5833 86.6251C55.8533 86.6139 56.0633 86.3851 56.052 86.1114L55.932 83.3851L56.2395 83.3701L56.397 86.8614L55.8345 86.8876C55.6733 86.8989 55.5383 86.7826 55.5195 86.6289Z"
          fill="#004C40"/>
    <path d="M60.16 86.854C59.095 86.4902 58.18 86.3252 57.2312 86.9852C57.2087 85.6952 57.13 84.439 57.0625 83.209C58.3637 83.9177 59.9912 83.0815 59.9912 83.0815C61.9787 82.3127 64.0975 82.174 66.1525 82.6652C66.445 82.7365 66.6813 83.0027 66.7638 83.3515C66.9625 84.214 66.9737 85.084 66.8687 85.9577C66.8237 86.3252 66.61 86.6252 66.3175 86.7227C64.3188 87.394 61.6525 87.3602 60.16 86.854Z"
          fill="#1E8161"/>
    <path d="M60.16 86.854C59.095 86.4902 58.18 86.3252 57.2312 86.9852C57.2087 85.6952 57.13 84.439 57.0625 83.209C57.1825 83.2765 57.31 83.329 57.4338 83.3702C57.4713 84.0452 57.5087 84.7315 57.535 85.4252C57.55 85.819 57.9288 86.0965 58.3113 85.9915C59.005 85.7965 59.7063 85.9577 60.49 86.224C61.9825 86.7302 64.6487 86.764 66.6475 86.0927C66.7262 86.0665 66.8012 86.0215 66.8687 85.969C66.8237 86.3327 66.61 86.629 66.3212 86.7265C64.3188 87.394 61.6525 87.3602 60.16 86.854Z"
          fill="#004C40"/>
    <path d="M56.3025 86.8578L56.145 83.3516C56.1337 83.0741 56.3475 82.8378 56.625 82.8266C56.9025 82.8153 57.1387 83.0291 57.15 83.3066L57.3075 86.8128C57.3187 87.0903 57.105 87.3266 56.8275 87.3378C56.55 87.3491 56.3137 87.1353 56.3025 86.8578Z"
          fill="#1E8161"/>
    <path d="M55.4745 85.6538L55.4257 84.54L54.762 84.57C54.657 84.5738 54.5745 84.6638 54.5782 84.7725L54.612 85.5C54.6157 85.605 54.7057 85.6875 54.8145 85.6838L55.4745 85.6538Z"
          fill="#8684C7"/>
    <path d="M54.5976 85.3088L54.5826 84.9638C54.5713 84.75 54.7363 84.57 54.9501 84.5625L55.4226 84.54L55.4713 85.6538L54.9988 85.6763C54.7888 85.6838 54.6088 85.5188 54.5976 85.3088Z"
          fill="#1E8161"/>
    <path d="M54.6211 85.4175C54.6811 85.4513 54.7523 85.47 54.8236 85.4663L55.0636 85.455C55.1911 85.4475 55.2923 85.3388 55.2886 85.2113L55.2586 84.5475L55.4273 84.54L55.4761 85.6538L55.0036 85.6763C54.8273 85.6838 54.6736 85.575 54.6211 85.4175Z"
          fill="#004C40"/>
    <path d="M100.578 87.4578H17.7477C17.6652 87.4578 17.5977 87.3903 17.5977 87.3078V87.1803C17.5977 87.0978 17.6652 87.0303 17.7477 87.0303H100.578C100.66 87.0303 100.578 87.0978 100.578 87.1803V87.3078C100.574 87.394 100.656 87.4578 100.578 87.4578Z"
          fill="#2E3552"/>
</svg>
