<svg width="100%" height="100%" viewBox="0 0 120 120" fill="none" xmlns="http://www.w3.org/2000/svg">
    <path d="M0 4C0 1.79086 1.79086 0 4 0H116C118.209 0 120 1.79086 120 4V116C120 118.209 118.209 120 116 120H4C1.79086 120 0 118.209 0 116V4Z"
          fill="#F5FAFF"/>
    <path d="M86.2387 87.1233C90.6336 87.1233 94.1962 86.7153 94.1962 86.212C94.1962 85.7088 90.6336 85.3008 86.2387 85.3008C81.8439 85.3008 78.2812 85.7088 78.2812 86.212C78.2812 86.7153 81.8439 87.1233 86.2387 87.1233Z"
          fill="#F0CEAC"/>
    <path d="M101.11 47.3586C93.0252 44.9248 82.5177 51.7723 75.5727 45.2436C73.2514 42.9298 72.5239 39.5098 71.0427 36.5886C64.5664 23.7448 46.0414 23.4411 36.6739 33.3223C25.4502 44.0473 30.0214 54.2136 24.1639 62.3998C23.1289 63.4948 21.8127 64.2823 20.6727 65.2648C13.4802 71.1598 15.4864 83.5836 24.1489 86.9361L103.356 86.5648C110.875 76.1811 116.579 53.1936 101.11 47.3586Z"
          fill="#FFEBC2"/>
    <path d="M29.048 59.5835C29.048 59.5835 32.8317 62.0322 33.263 62.1035C35.4605 62.471 40.7892 60.3635 40.7892 60.3635C42.4692 61.2072 43.0167 59.9022 42.938 59.2047C42.8105 58.0797 42.263 58.7735 41.7042 58.9272C41.7042 58.9272 42.4317 58.0797 41.8992 57.8735C41.5767 57.7497 40.7255 59.0622 40.7255 59.0622C39.4467 59.2085 36.3455 59.1972 34.3467 59.0697C34.1367 58.8972 33.8292 58.6347 33.6155 58.466C32.078 57.2547 30.6005 56.471 28.5642 56.0322C27.998 57.4047 28.328 58.5447 29.048 59.5835Z"
          fill="#FCC8AF"/>
    <path d="M32.6309 62.2835L34.2922 58.7885C33.1372 57.401 29.6047 53.6998 28.5172 54.8773C26.8034 56.7373 30.9397 61.6235 32.6309 62.2835Z"
          fill="white"/>
    <path d="M96.442 80.5083C95.6358 80.6658 94.3795 80.7934 92.3058 80.3171C91.0345 80.0208 89.2683 79.6158 87.367 78.3333C87.2845 78.2771 87.1383 78.1796 86.9583 78.0446C86.947 78.0371 86.9395 78.0333 86.9283 78.0258C86.9095 78.0146 86.8945 78.0033 86.8758 77.9921C86.812 77.9471 86.7483 77.8983 86.677 77.8496C85.3195 76.8108 82.6345 74.4033 82.6683 71.3546C82.6683 71.1783 82.7095 68.9621 83.8158 68.5683C85.1995 68.0883 87.2583 70.7771 87.7908 70.3796C88.0608 70.1771 87.622 69.4608 87.4158 68.4671C86.932 66.2434 87.697 63.1871 89.587 62.4896C90.4795 62.1521 91.6608 62.3396 92.467 63.0258C93.7945 64.1208 93.1683 66.5546 93.3745 66.5846C93.6745 66.6146 93.4833 61.7321 95.9658 60.4758C96.8395 60.0371 98.1145 60.0108 98.7258 60.6071C99.622 61.4808 98.6883 63.3408 99.2245 63.6108C99.7908 63.8958 100.728 61.7921 103.136 60.9483C103.747 60.7383 105.187 60.2358 106.308 60.9633C107.287 61.5858 107.76 62.9058 107.501 63.9933C107.257 64.9946 106.451 65.5421 106.226 65.6883C104.775 66.6446 103.586 65.8046 100.833 66.5246C99.8733 66.7721 98.8458 67.1808 98.8758 67.5146C98.9133 67.7583 99.517 67.7396 100.248 68.2571C100.263 68.2646 100.29 68.2796 100.316 68.3058C100.537 68.4671 101.317 69.0408 101.46 69.9371C101.471 69.9746 101.602 70.9458 101.017 71.3996C100.721 71.6396 100.35 71.6321 100.188 71.6358C98.5795 71.6471 96.592 72.1496 96.5883 72.4083C96.5733 72.7083 99.1645 72.6671 99.4645 73.6271C99.712 74.4258 98.2383 75.4608 98.0508 75.5921C96.4608 76.6946 94.5595 76.6383 94.5745 76.7846C94.5933 76.9046 96.0933 76.5708 97.4658 77.3246C98.107 77.6696 99.0633 78.4346 98.9508 79.1508C98.8158 80.0208 97.1433 80.3658 96.442 80.5083Z"
          fill="#0C604C"/>
    <path d="M95.9306 74.8833C95.8181 74.5458 95.4356 74.4408 95.1168 74.4333C94.7118 74.4258 94.3143 74.5233 93.9393 74.6583C93.1443 74.9433 92.4056 75.4233 91.5581 75.5321C91.1268 75.5846 90.6881 75.5396 90.3056 75.3258C91.1718 74.3208 91.9181 73.2108 92.6456 72.1008C92.9156 71.6846 93.1893 71.2683 93.4631 70.8521C94.6781 70.3008 96.0468 70.9421 97.3031 70.6046C97.6368 70.5146 97.9443 70.3533 98.1918 70.1058C98.2331 70.0646 98.1656 70.0046 98.1243 70.0458C97.6518 70.5183 96.9656 70.6271 96.3243 70.6271C95.6906 70.6233 95.0606 70.5071 94.4268 70.5408C94.1268 70.5558 93.8343 70.6121 93.5531 70.7208C94.2993 69.6033 95.0906 68.5121 96.0431 67.5596C97.1981 66.4046 98.5968 65.4371 100.198 65.0433C100.401 64.9946 100.603 64.9533 100.806 64.9233C100.862 64.9121 100.858 64.8221 100.798 64.8296C99.2193 65.0658 97.7943 65.8721 96.6018 66.9071C96.3993 67.0833 96.2043 67.2671 96.0131 67.4583C96.0168 67.4471 96.0168 67.4358 96.0093 67.4246C95.5856 66.7346 95.9606 65.9283 96.3281 65.3096C96.5306 64.9721 96.7443 64.6383 96.8868 64.2708C97.0068 63.9633 97.0893 63.6183 96.9656 63.2996C96.9431 63.2433 96.8568 63.2733 96.8793 63.3296C97.0256 63.7008 96.8681 64.1208 96.7068 64.4583C96.5306 64.8258 96.2981 65.1633 96.0993 65.5233C95.7768 66.1121 95.5518 66.8546 95.9306 67.4733C95.9418 67.4921 95.9606 67.4958 95.9793 67.4883C94.9143 68.5571 94.0368 69.8021 93.2081 71.0621C92.7468 71.7596 92.2968 72.4646 91.8243 73.1583C91.0631 72.5171 90.5643 71.5533 90.4593 70.5671C90.4031 70.0271 90.4893 69.5171 90.6543 69.0033C90.8343 68.4446 91.0668 67.8971 91.1118 67.3083C91.1568 66.7271 90.9881 66.0971 90.4931 65.7408C90.4443 65.7071 90.3843 65.7746 90.4331 65.8083C90.9318 66.1646 91.0781 66.8021 91.0143 67.3833C90.9468 67.9796 90.7031 68.5308 90.5306 69.1008C90.3806 69.5921 90.3168 70.0908 90.3768 70.6046C90.4331 71.0808 90.5756 71.5458 90.7931 71.9733C91.0331 72.4533 91.3631 72.8883 91.7756 73.2333C91.1981 74.0733 90.5906 74.8908 89.9006 75.6408C89.4206 76.1621 88.8956 76.6496 88.3293 77.0808C88.3668 75.6071 87.0956 74.5608 86.6081 73.2596C86.4656 72.8808 86.3906 72.4758 86.4393 72.0708C86.4468 72.0146 86.3568 71.9958 86.3493 72.0521C86.1693 73.5408 87.4406 74.6433 87.9881 75.9071C88.1531 76.2896 88.2543 76.6946 88.2393 77.1108C88.2393 77.1221 88.2431 77.1296 88.2506 77.1371C87.8193 77.4558 87.3618 77.7446 86.8818 77.9771C86.9006 77.9883 86.9193 78.0033 86.9343 78.0108C86.9418 78.0183 86.9531 78.0258 86.9643 78.0296C87.7856 77.6246 88.5431 77.0771 89.2218 76.4508C89.5856 76.1133 89.9268 75.7571 90.2493 75.3858C90.8906 75.7533 91.6631 75.6596 92.3343 75.4233C93.1106 75.1496 93.8231 74.6921 94.6443 74.5533C95.0231 74.4896 95.7056 74.4371 95.8556 74.9021C95.8631 74.9658 95.9493 74.9358 95.9306 74.8833Z"
          fill="#002A35"/>
    <path d="M80.1585 73.8374C80.2335 73.2336 79.881 72.6224 79.3673 72.2961C78.8535 71.9699 78.2085 71.8949 77.6048 71.9961C77.0048 72.0974 76.4385 72.3524 75.906 72.6486C75.021 73.1324 74.1735 73.7511 73.5923 74.5649C73.3785 73.0986 73.281 71.6174 73.296 70.1361C73.296 70.0011 73.2998 69.8661 73.3035 69.7311C74.3573 69.8174 75.4073 69.8999 76.461 69.9861C77.1623 70.0424 77.886 70.0986 78.5573 69.8886C79.2285 69.6786 79.851 69.1386 79.9373 68.4374C80.0123 67.8336 79.6598 67.2224 79.146 66.8961C78.6323 66.5699 77.9873 66.4949 77.3835 66.5961C76.7835 66.6974 76.2173 66.9524 75.6848 67.2486C74.7735 67.7511 73.8998 68.3886 73.3148 69.2399C73.3823 67.5974 73.5848 65.9586 73.9223 64.3499C74.991 64.3949 76.0635 64.4399 77.1323 64.4849C77.8373 64.5149 78.561 64.5411 79.2248 64.3049C79.8885 64.0686 80.4885 63.5061 80.5485 62.8011C80.601 62.1936 80.226 61.5974 79.701 61.2899C79.176 60.9824 78.5273 60.9336 77.931 61.0574C77.3348 61.1811 76.7798 61.4586 76.2585 61.7736C75.4223 62.2761 74.6235 62.8986 74.0723 63.6936C74.346 62.5349 74.6873 61.3911 75.0998 60.2774C75.2235 59.9474 75.351 59.6211 75.486 59.2949C76.5885 59.3061 77.691 59.3136 78.7898 59.3249C79.4948 59.3324 80.2185 59.3324 80.8748 59.0774C81.531 58.8186 82.1123 58.2374 82.146 57.5324C82.176 56.9249 81.7823 56.3399 81.2498 56.0511C80.7135 55.7624 80.0648 55.7361 79.4723 55.8786C78.8798 56.0211 78.336 56.3174 77.826 56.6474C77.0948 57.1199 76.3973 57.6861 75.8835 58.3836C76.3785 57.2961 76.9448 56.2424 77.5748 55.2261C78.5235 54.7236 79.4723 54.2211 80.421 53.7149C81.0435 53.3849 81.681 53.0399 82.1385 52.5036C82.5923 51.9636 82.8285 51.1761 82.5248 50.5386C82.2623 49.9874 81.6398 49.6649 81.0285 49.6611C80.421 49.6611 79.836 49.9499 79.3823 50.3549C78.9285 50.7636 78.591 51.2811 78.2985 51.8174C77.7585 52.8036 77.3423 53.8986 77.3648 55.0161C77.361 55.0199 77.361 55.0199 77.3573 55.0236C76.6823 56.1036 76.0823 57.2286 75.561 58.3874C75.6285 57.4836 75.4448 56.5574 75.1635 55.6874C74.976 55.1061 74.7435 54.5324 74.376 54.0449C74.0085 53.5611 73.4873 53.1674 72.891 53.0511C72.291 52.9349 71.6198 53.1374 71.256 53.6286C70.836 54.1949 70.9185 55.0161 71.2598 55.6311C71.6048 56.2461 72.1673 56.7036 72.7148 57.1461C73.551 57.8174 74.3873 58.4924 75.2235 59.1636C74.6273 60.6036 74.151 62.0886 73.791 63.6036C73.6523 62.6586 73.2285 61.7586 72.7148 60.9411C72.3885 60.4236 72.0248 59.9249 71.5448 59.5461C71.0685 59.1674 70.4685 58.9161 69.861 58.9536C69.2535 58.9911 68.6498 59.3549 68.421 59.9211C68.1548 60.5736 68.436 61.3499 68.9235 61.8599C69.411 62.3699 70.0673 62.6736 70.7085 62.9661C71.6835 63.4086 72.6623 63.8549 73.6373 64.2974C73.626 64.3461 73.6148 64.3949 73.6073 64.4399C73.2848 66.0149 73.0898 67.6124 73.026 69.2174C72.7373 68.1861 72.0735 67.2824 71.331 66.5061C70.9073 66.0674 70.4498 65.6511 69.906 65.3774C69.3623 65.1036 68.7248 64.9799 68.136 65.1411C67.5473 65.3024 67.0298 65.7786 66.921 66.3786C66.7935 67.0724 67.2248 67.7736 67.8023 68.1749C68.3835 68.5761 69.0885 68.7374 69.7748 68.8949C70.8548 69.1386 71.9348 69.3824 73.0148 69.6261C73.0148 69.6486 73.0148 69.6711 73.0148 69.6936L72.9885 69.7086C72.996 69.7086 73.0073 69.7086 73.0148 69.7124C72.9773 71.2761 73.0635 72.8399 73.2735 74.3886C72.6735 73.6386 71.8448 73.0686 70.986 72.6186C70.4348 72.3299 69.8573 72.0786 69.2423 71.9886C68.6273 71.8986 67.971 71.9849 67.4535 72.3261C66.936 72.6674 66.591 73.2974 66.6773 73.9124C66.7785 74.6249 67.4198 75.1611 68.106 75.3636C68.796 75.5661 69.531 75.4949 70.2435 75.4274C71.2598 75.3261 72.2723 75.2286 73.2885 75.1274C73.3185 75.1311 73.3485 75.1311 73.3823 75.1349C73.6598 76.8336 74.091 78.5061 74.6798 80.1261C74.7398 80.2986 75.021 80.2349 74.9573 80.0586C74.3798 78.4649 73.956 76.8224 73.6785 75.1574C74.676 75.2361 75.6773 75.3186 76.6748 75.3974C77.376 75.4536 78.0998 75.5099 78.771 75.2999C79.4535 75.0786 80.0723 74.5386 80.1585 73.8374Z"
          fill="#1E8161"/>
    <path d="M47.8779 52.0797C47.6041 51.9147 53.3266 46.1547 56.0941 45.0859C57.2829 44.6247 58.6104 44.6584 59.8441 44.9697L61.1641 45.3034C62.5366 45.6522 63.7666 46.4209 64.6816 47.5009L65.0604 47.9472V47.9434L65.8404 48.1422L65.8666 48.0334C65.8779 47.9847 65.9304 47.9547 65.9791 47.9659L66.6804 48.1459L66.8529 47.4634C66.9091 47.2422 67.1379 47.1072 67.3591 47.1634L69.0766 47.5984C69.2979 47.6547 69.4329 47.8834 69.3766 48.1047C69.0804 49.8109 68.6641 51.4534 68.1241 53.0359C68.0679 53.2572 67.8391 53.3922 67.6179 53.3359L65.9004 52.9009C65.6791 52.8447 65.5441 52.6159 65.6004 52.3947L65.7016 51.9897L65.0004 51.8097C64.9516 51.7984 64.9216 51.7459 64.9329 51.6972L65.0079 51.4047L64.2279 51.2059L63.7404 51.3934C62.4279 51.9034 61.4454 53.0134 61.0966 54.3784L61.0516 54.5547L55.7304 53.2047L56.0416 51.9822C56.0491 51.9447 56.0604 51.9109 56.0679 51.8734C56.3566 50.4372 55.5279 49.3834 53.9154 49.6084C52.2991 49.8297 48.3166 53.2009 48.3166 53.2009C47.8666 53.3247 47.4504 52.9159 47.5666 52.4659C47.6154 52.3009 47.7316 52.1622 47.8779 52.0797Z"
          fill="#9FA4AB"/>
    <path d="M54.9122 53.3021L61.2422 54.9109C61.4335 54.9596 61.5497 55.1546 61.501 55.3459L57.031 72.9409C56.9822 73.1321 56.7872 73.2484 56.596 73.1996L50.266 71.5909C50.0747 71.5421 49.9585 71.3471 50.0072 71.1559L54.4772 53.5609C54.5222 53.3696 54.721 53.2534 54.9122 53.3021Z"
          fill="#1E8161"/>
    <path d="M54.9124 53.3021L55.3211 53.4071L53.1724 61.8596C52.9136 62.8759 53.5286 63.9071 54.5449 64.1659L58.9774 65.2909L57.0349 72.9446C56.9861 73.1359 56.7911 73.2521 56.5999 73.2034L50.2699 71.5946C50.0786 71.5459 49.9624 71.3509 50.0111 71.1596L54.4811 53.5646C54.5224 53.3696 54.7211 53.2534 54.9124 53.3021Z"
          fill="#0C604C"/>
    <path d="M45.6251 81.2693C47.8001 76.2068 49.4238 70.6981 50.6688 64.8893C50.8526 64.2856 51.5463 63.9518 52.2363 64.1281L58.6038 65.7443C59.2938 65.9206 59.7438 66.5468 59.6163 67.1618C58.1238 72.5993 57.0101 78.2056 56.2338 83.9618C56.0726 84.7568 55.3451 85.3156 54.5351 85.2406C51.7488 84.9931 49.0676 84.3143 46.5026 83.2006C45.7638 82.8818 45.3888 82.0456 45.6251 81.2693Z"
          fill="#1E8161"/>
    <path d="M45.625 81.2693C47.8 76.2068 49.4238 70.698 50.6688 64.8893C50.845 64.3118 51.4863 63.9818 52.15 64.1093C52.1313 64.1505 52.1163 64.1918 52.1013 64.233C50.8563 70.0418 49.2325 75.5468 47.0575 80.613C46.8175 81.3893 47.1925 82.2255 47.9388 82.548C50.5038 83.658 53.1775 84.3405 55.9638 84.588C55.645 85.0305 55.1125 85.2968 54.5388 85.2443C51.7525 84.9968 49.0713 84.318 46.5063 83.2043C45.7638 82.8818 45.3888 82.0455 45.625 81.2693Z"
          fill="#0C604C"/>
    <path d="M55.5564 52.6833L61.1102 54.0933C61.2939 54.1383 61.4064 54.3258 61.3577 54.5095L61.2564 54.9145L55.0352 53.3358L55.1364 52.9308C55.1852 52.747 55.3727 52.6345 55.5564 52.6833Z"
          fill="#0C604C"/>
    <path d="M92.0567 76.8379H31.2617V87.0191H92.0567V76.8379Z" fill="#FFCB68"/>
    <path d="M85.4211 76.8379H92.0623V87.0191H67.4023C68.2911 86.4604 69.2436 85.9991 70.2936 85.7554C72.0373 85.3504 73.9836 85.5641 75.5511 84.7879C76.9348 84.1054 77.7411 82.8079 78.7348 81.7204C80.0923 80.2354 81.8623 79.1029 83.6098 77.9891C84.2173 77.6066 84.8173 77.2204 85.4211 76.8379Z"
          fill="#FFA412"/>
    <path d="M31.2617 76.8379H59.638C58.8542 77.0929 58.1005 77.3929 57.4255 77.8054C55.9555 78.7054 54.9542 80.0966 53.5367 81.0566C50.6005 83.0479 46.5017 82.8866 43.0555 84.0829C41.0867 84.7654 39.388 85.8716 37.7117 87.0229H31.2617V76.8379Z"
          fill="#FFA412"/>
    <path d="M69.1695 76.8379H77.7083C76.932 77.6104 75.8595 78.2329 74.7945 78.6641C72.6908 79.5041 70.302 80.0441 68.7908 81.5816C68.277 82.1066 67.887 82.7254 67.3583 83.2316C65.9483 84.5666 63.7508 84.9454 61.9133 85.7891C61.1333 86.1529 60.402 86.6029 59.6595 87.0229H50.5508C51.597 86.3591 52.677 85.7329 53.8658 85.2941C56.1533 84.4466 58.767 84.3079 60.882 83.1641C63.2595 81.8816 64.6358 79.5304 66.8483 78.0379C67.557 77.5504 68.3483 77.1679 69.1695 76.8379Z"
          fill="#FFA412"/>
    <path d="M92.9473 76.8379H92.0586V87.0191H92.9473V76.8379Z" fill="#E27F2B"/>
    <path d="M45.8302 37.5635H35.7539V87.0185H45.8302V37.5635Z" fill="#FFA412"/>
    <path d="M41.5628 86.4743C41.4766 86.6543 41.3716 86.8418 41.1916 86.9431C41.1016 86.9956 41.0041 87.0181 40.9103 87.0181C40.4866 87.0181 40.0741 86.5456 39.9241 86.1143C39.4066 84.6256 39.7478 83.0093 39.5603 81.4606C39.2153 78.6406 37.1866 76.2931 35.8778 73.7318C35.8366 73.6493 35.7953 73.5706 35.7578 73.4881V65.4443C36.1928 66.1043 36.6616 66.7493 37.0628 67.4281C38.8516 70.4506 39.2453 74.0056 40.4903 77.2606C41.1278 78.9256 41.9941 80.5381 42.2378 82.2931C42.4253 83.7068 42.1928 85.1731 41.5628 86.4743Z"
          fill="#FFCB68"/>
    <path d="M45.8339 53.3546V59.6508C45.0052 58.8333 44.5514 57.7533 44.0939 56.7146C41.9339 51.8208 39.1252 47.1821 35.7539 42.9221V37.5596H39.2377C40.8352 38.8271 42.2227 40.3346 43.3252 42.0033C43.6889 42.5508 44.0227 43.1283 44.1727 43.7546C44.4052 44.7371 44.1652 45.7533 44.0977 46.7546C43.9589 48.8883 44.6039 51.0183 45.6089 52.9346C45.6802 53.0808 45.7552 53.2233 45.8339 53.3546Z"
          fill="#FFCB68"/>
    <path d="M41.1764 66.4979C41.1539 66.6254 41.1202 66.7566 40.9964 66.8616C40.8502 66.9891 40.5989 67.0566 40.3514 67.0941C39.0914 67.2891 37.7452 66.8654 36.9277 66.2504C36.3952 65.8454 36.0389 65.3654 35.7539 64.8704V45.4941C35.9639 45.5991 36.1777 45.7041 36.3914 45.8091C36.9727 46.0941 37.5652 46.3904 37.9252 46.7916C38.3339 47.2454 38.3977 47.7779 38.3939 48.2916C38.3864 49.5516 38.0227 50.8379 38.4989 52.0679C39.0014 53.3616 40.4077 54.4829 40.8127 55.7879C41.1877 56.9804 40.7039 58.2029 40.1489 59.3691C39.8302 60.0479 39.4814 60.7304 39.4702 61.4354C39.4477 63.1754 41.4614 64.7729 41.1764 66.4979Z"
          fill="#FFCB68"/>
    <path d="M46.6608 37.5635H45.832V87.0185H46.6608V37.5635Z" fill="#E27F2B"/>
    <path d="M17.2332 70.8336C17.0232 70.3649 17.1582 69.7911 17.4882 69.4011C17.8182 69.0111 18.3207 68.7936 18.827 68.7261C19.3332 68.6586 19.8507 68.7261 20.3495 68.8311C21.1782 69.0036 22.0107 69.2886 22.6782 69.7986C22.4907 68.5686 22.2057 67.3574 21.8307 66.1686C21.797 66.0599 21.7595 65.9549 21.7257 65.8461C20.9007 66.1724 20.0757 66.4986 19.2545 66.8249C18.7032 67.0424 18.137 67.2636 17.5445 67.2599C16.952 67.2561 16.322 66.9749 16.082 66.4349C15.872 65.9661 16.007 65.3924 16.337 65.0024C16.667 64.6124 17.1695 64.3949 17.6757 64.3274C18.182 64.2599 18.6995 64.3274 19.1982 64.4324C20.0532 64.6086 20.912 64.9086 21.5907 65.4486C21.1332 64.1436 20.567 62.8799 19.8995 61.6724C19.052 61.9724 18.2045 62.2686 17.357 62.5686C16.7982 62.7636 16.2245 62.9661 15.632 62.9399C15.0395 62.9136 14.4207 62.6099 14.1995 62.0586C14.0082 61.5824 14.162 61.0124 14.5107 60.6374C14.8557 60.2624 15.3657 60.0636 15.8757 60.0149C16.3857 59.9661 16.8995 60.0561 17.3945 60.1799C18.1895 60.3786 18.9845 60.6824 19.622 61.1849C19.1195 60.3224 18.5645 59.4899 17.957 58.6949C17.777 58.4586 17.5932 58.2299 17.4057 58.0011C16.5245 58.2786 15.6395 58.5599 14.7582 58.8374C14.1957 59.0136 13.6145 59.1974 13.022 59.1486C12.4332 59.1036 11.822 58.7774 11.6195 58.2224C11.4432 57.7424 11.6157 57.1761 11.9757 56.8124C12.3357 56.4486 12.8495 56.2686 13.3595 56.2349C13.8695 56.2049 14.3795 56.3099 14.8707 56.4486C15.5757 56.6474 16.2732 56.9324 16.8582 57.3636C16.1945 56.6136 15.482 55.9049 14.7245 55.2449C13.8395 55.0724 12.9545 54.9036 12.0657 54.7311C11.4845 54.6186 10.8882 54.5024 10.3895 54.1799C9.89073 53.8574 9.51198 53.2836 9.59823 52.6986C9.67323 52.1924 10.0932 51.7799 10.5845 51.6299C11.072 51.4799 11.612 51.5661 12.077 51.7836C12.542 51.9974 12.9395 52.3349 13.307 52.6911C13.982 53.3511 14.5895 54.1274 14.8407 55.0311C14.8445 55.0349 14.8445 55.0349 14.8482 55.0349C15.6545 55.7361 16.412 56.4936 17.117 57.2961C16.8395 56.5874 16.7607 55.7961 16.772 55.0311C16.7795 54.5211 16.8245 53.9999 17.0007 53.5199C17.177 53.0399 17.4957 52.5974 17.9495 52.3574C18.4032 52.1174 18.992 52.1136 19.4045 52.4211C19.8807 52.7736 20.0157 53.4524 19.892 54.0299C19.7682 54.6074 19.427 55.1136 19.097 55.6049C18.5907 56.3511 18.0845 57.0974 17.5782 57.8436C18.4107 58.8524 19.1607 59.9286 19.817 61.0574C19.697 60.2661 19.817 59.4374 20.027 58.6574C20.162 58.1624 20.3345 57.6711 20.6232 57.2511C20.912 56.8311 21.332 56.4824 21.8307 56.3624C22.3295 56.2424 22.8995 56.3849 23.2257 56.7824C23.6007 57.2436 23.5632 57.9336 23.3007 58.4624C23.0345 58.9911 22.5807 59.3961 22.1382 59.7899C21.4632 60.3861 20.7882 60.9824 20.1132 61.5786C20.132 61.6161 20.1545 61.6499 20.1732 61.6874C20.8182 62.8724 21.3657 64.1099 21.8157 65.3811C21.7932 64.4849 22.1045 63.5924 22.5132 62.7861C22.7457 62.3286 23.012 61.8824 23.3832 61.5299C23.7545 61.1774 24.2345 60.9186 24.7445 60.9036C25.2545 60.8886 25.787 61.1436 26.0232 61.5974C26.297 62.1224 26.1207 62.7899 25.757 63.2549C25.3895 63.7199 24.8645 64.0236 24.3507 64.3161C23.5445 64.7774 22.7382 65.2386 21.9282 65.6999C21.9357 65.7186 21.9395 65.7374 21.947 65.7524L21.9732 65.7599C21.9657 65.7636 21.9582 65.7636 21.9545 65.7674C22.367 67.0124 22.6857 68.2911 22.8957 69.5849C23.1957 68.8349 23.7207 68.1749 24.2982 67.6011C24.6695 67.2336 25.0707 66.8886 25.5432 66.6674C26.0157 66.4424 26.5632 66.3524 27.062 66.4986C27.5607 66.6486 27.9957 67.0649 28.0745 67.5786C28.1682 68.1749 27.7857 68.7636 27.2832 69.0936C26.7807 69.4236 26.1732 69.5511 25.5807 69.6711C24.7407 69.8399 23.9007 70.0086 23.0607 70.1774C23.0382 70.1886 23.012 70.1961 22.9895 70.2074C23.1845 71.6399 23.2482 73.0911 23.177 74.5349C23.1695 74.6886 22.9295 74.7036 22.937 74.5499C23.0082 73.1286 22.9482 71.7074 22.7607 70.3011C21.977 70.6124 21.197 70.9199 20.4132 71.2311C19.862 71.4486 19.2957 71.6699 18.7032 71.6661C18.1032 71.6549 17.4732 71.3736 17.2332 70.8336Z"
          fill="#1E8161"/>
    <path d="M36.676 86.7033L37.1072 84.7008C37.0097 84.277 36.8972 82.1433 36.8185 81.7645C36.151 78.6258 36.1135 76.9345 36.5147 74.1783C36.5147 74.1783 22.9172 76.5633 23.8247 68.1445H29.5097C29.5097 68.1445 39.0422 68.152 40.471 70.9608C41.8285 73.6233 39.7472 76.3983 38.9072 81.8208C38.851 82.1695 38.8022 84.2433 38.761 84.6145L42.9347 86.707H36.676V86.7033Z"
          fill="#F1CCCD"/>
    <path d="M38.8099 83.7334L36.6274 83.8497C35.9599 80.7072 36.1136 76.9347 36.5111 74.1784C36.5111 74.1784 33.5749 74.6922 30.5224 74.3997C27.0049 74.0622 23.3336 72.6522 23.8211 68.1447L27.1736 67.8672C27.1736 67.8672 39.0386 68.1522 40.4711 70.9609C41.8286 73.6234 39.6499 78.3072 38.8099 83.7334Z"
          fill="#1E8161"/>
    <path d="M28.668 70.8527L30.5205 74.4002C33.573 74.6927 36.5092 74.179 36.5092 74.179C36.498 74.2465 36.4905 74.3102 36.4792 74.3777C36.1042 77.1115 35.973 80.779 36.6255 83.8465L37.713 83.7902C36.6742 81.4427 36.8355 76.909 37.8892 73.564C37.9755 73.2902 37.728 73.0015 37.443 73.039C32.118 73.714 32.1367 70.6577 28.668 70.8527Z"
          fill="#0C604C"/>
    <path d="M31.1553 86.1042C29.4041 87.6904 22.7028 84.0154 19.0766 83.1079C18.7691 83.0329 18.4803 82.9842 18.2141 82.9767L18.0078 80.8879C18.3716 80.8917 18.7278 80.8917 19.0728 80.8992C23.1378 80.9667 27.0603 81.4017 29.0966 83.0367C28.6991 82.6654 20.8653 75.4692 23.2803 69.4092H28.2753C28.2828 69.4092 34.5641 83.0254 31.1553 86.1042Z"
          fill="#F1CCCD"/>
    <path d="M30.8269 86.9667C27.8981 88.1142 22.7044 84.023 19.0781 83.108V80.8992C23.1319 80.9667 25.3069 80.2842 27.9056 82.2717C25.4569 77.348 20.6906 74.8205 23.0981 68.903C23.1469 68.7792 23.2181 68.663 23.2856 68.5467L28.1119 68.3555C28.1119 68.3555 29.6606 72.233 31.1569 76.5267C32.7319 81.0455 33.0581 86.093 30.8269 86.9667Z"
          fill="#1E8161"/>
    <path d="M37.0853 84.5367C36.594 85.0017 36.414 85.8979 36.489 87.0192H43.1753C42.9353 84.9529 41.0903 86.0217 38.769 84.5029C38.3453 84.7692 37.614 84.8554 37.0853 84.5367Z"
          fill="#002A35"/>
    <path d="M18.4389 80.8877C17.7301 80.4302 16.3801 80.3439 15.6714 80.4639C14.9626 80.5877 14.9814 81.4877 15.0526 81.9864C15.1239 82.4852 15.3751 82.6539 15.2514 85.2377C15.1914 86.4377 16.3539 87.2252 17.2726 87.2439C18.1951 87.2627 17.3439 84.9039 18.2964 82.9802C18.0151 82.5564 18.0976 81.4164 18.4389 80.8877Z"
          fill="#002A35"/>
    <path d="M22.5881 57.7346C22.5881 54.5133 24.1181 54.8171 26.0981 53.5908C26.0981 53.5908 26.0981 53.5908 26.0981 53.5946C26.8181 55.3533 29.0156 55.3271 28.0257 53.7296C29.6869 54.2883 31.7344 57.0108 30.9094 59.4671C29.6606 63.1758 29.7206 65.6396 29.7806 67.8783C29.7919 68.2833 30.0581 68.5421 29.6419 68.5608C23.8556 69.0858 23.1806 69.6408 22.8206 68.2721C22.5469 67.2258 22.5881 61.9121 22.5881 57.7346Z"
          fill="white"/>
    <path d="M28.1882 53.8239V54.1577C28.1882 54.1577 28.2782 55.1927 27.007 55.3427C25.732 55.4927 24.7757 55.0314 24.8095 54.2364C24.9257 53.6177 25.042 53.1002 25.0532 52.5902C25.057 52.3989 25.0457 52.2002 25.0082 51.9677L27.4757 51.9189L28.2032 52.0389L28.1882 53.8239Z"
          fill="#FCC8AF"/>
    <path d="M28.203 52.035L28.1955 53.8238C27.933 53.9475 27.6367 54.0225 27.3067 54.0225C26.1705 54.0225 25.4392 53.1938 25.0567 52.5863C25.0605 52.395 25.0492 52.1963 25.0117 51.9638L27.4792 51.915L28.203 52.035Z"
          fill="#F3B99C"/>
    <path d="M28.3123 53.4149C28.3123 53.4149 25.1848 53.5424 24.8173 51.5699C24.4498 49.5974 23.7936 48.3486 25.7998 47.8574C27.8023 47.3661 28.3798 48.0261 28.6198 48.6749C28.9273 49.5036 28.7473 49.5711 28.8561 50.3249C29.0511 51.6486 28.8298 53.2761 28.3123 53.4149Z"
          fill="#FCC8AF"/>
    <path d="M24.8829 52.1362C24.8829 52.1362 24.2754 50.8312 23.7654 50.2537C23.2554 49.6762 23.5329 46.7812 25.7341 46.8712C27.9316 46.9612 28.7229 48.5399 28.7416 48.8399C28.7641 49.1399 26.9829 48.9112 26.4954 49.3012C26.0079 49.6949 26.4729 50.3437 25.9179 50.5762C25.3591 50.8087 24.9204 50.8087 25.0179 51.3149C25.1116 51.8249 24.8829 52.1362 24.8829 52.1362Z"
          fill="#002A35"/>
    <path d="M25.4779 46.1212C24.9004 46.2675 24.4654 46.4962 24.1429 46.7775C24.1129 46.8037 24.0792 46.8337 24.0492 46.86C22.8492 48.0037 23.3292 49.8225 23.3292 49.8225C23.3292 49.8225 23.4867 50.28 23.5992 50.46C23.7117 50.6362 25.2979 50.4337 25.3842 50.0887C25.4667 49.7437 25.7854 49.3875 25.7854 49.3875C25.7854 49.3875 27.4617 49.2712 27.5742 49.2637C27.9529 49.2375 29.0329 48.8587 29.0329 48.8587C29.0142 48.7612 28.4029 45.3862 25.4779 46.1212Z"
          fill="#FFA412"/>
    <path d="M30.0198 48.5058C29.8173 48.457 29.4723 48.4045 28.9136 48.3783C28.9136 48.3783 28.4373 48.7683 27.4923 49.072C27.0498 48.5133 25.7898 47.167 24.1436 46.7733C24.1398 46.7733 24.1361 46.7695 24.1286 46.7695C24.0948 46.8145 24.0723 46.8295 24.0498 46.8558C24.0423 46.8633 24.0348 46.8745 24.0273 46.8858C25.3661 47.1183 26.6373 48.622 27.0761 49.1845C26.7011 49.2745 26.2698 49.3495 25.7823 49.3833C25.7823 49.3833 28.7111 49.4395 30.0536 48.7345C30.1473 48.6895 30.1323 48.5358 30.0198 48.5058Z"
          fill="#E27F2B"/>
    <path d="M22.5908 73.4105C22.5908 73.4105 30.5633 68.8167 30.2895 68.0442C30.0158 67.2717 29.5245 65.303 31.0358 60.1992C31.0358 60.1992 31.302 59.0517 31.0433 57.6305C31.0133 57.473 30.9795 57.308 30.9345 57.143C30.927 57.1205 30.9233 57.098 30.9158 57.0755C30.912 57.068 30.912 57.0605 30.9083 57.053C30.432 55.4592 29.3033 54.1992 28.1858 53.8242C28.2045 54.023 28.1483 54.023 28.1858 54.158C28.6208 54.5442 29.8808 55.823 30.0195 57.8405C30.1883 60.308 27.6533 59.213 27.2745 57.3605C26.9295 55.673 25.9883 54.4992 24.7995 54.2667C24.4808 54.413 24.1883 54.548 23.9258 54.7017C24.7208 54.7767 26.6033 55.4292 26.8283 59.8167C26.8283 59.8167 26.9633 63.9305 22.6058 64.3355C22.6058 64.3355 22.6058 64.3355 22.6058 64.343C22.6058 64.343 22.6058 64.343 22.6058 64.3467C22.5683 64.5867 21.6495 70.5867 22.5908 73.4105Z"
          fill="#1E8161"/>
    <path d="M19.0781 80.8984V81.2209C22.6631 81.1384 25.9481 82.1396 29.0756 83.6921C29.2706 83.7896 29.4919 83.6096 29.4356 83.3996C28.8056 81.0709 25.4569 77.1934 24.3431 74.5834C24.1144 74.0471 23.9269 73.4846 23.7806 72.9146C23.3869 71.4109 23.2706 69.8471 23.4094 68.5421C23.5481 67.2259 23.9494 66.1684 24.5906 65.6996C25.8056 64.8146 31.1044 67.1696 31.1606 66.2621V66.2434C31.1606 66.2134 31.1531 66.1796 31.1344 66.1384C31.1344 66.1384 31.1344 66.1384 31.1344 66.1346C30.8006 65.3134 27.3881 62.5646 26.9119 61.7396C26.8331 61.6009 26.7094 61.5034 26.5519 61.4434C26.1356 62.6509 25.1156 64.1209 22.6106 64.3571C22.6106 64.3571 22.6106 64.3571 22.6106 64.3646C22.6106 64.3646 22.6106 64.3646 22.6106 64.3684C22.5731 64.6121 21.9544 70.2146 22.7419 73.1734C23.2781 75.9521 24.6094 76.5409 27.6769 82.0309C27.6881 82.0421 27.6956 82.0496 27.7031 82.0571C25.6669 80.4184 23.1319 80.9659 19.0781 80.8984Z"
          fill="#0C604C"/>
    <path d="M37.6983 67.8672L36.6633 70.0797L34.4883 72.2209L34.522 72.2284L34.9533 71.9659L35.0545 72.3222L35.4258 72.0972L35.527 72.4534L35.8983 72.2284L35.9995 72.5847L36.3708 72.3597L36.472 72.7159L36.8433 72.4909L36.9445 72.8472L37.3158 72.6222L37.417 72.9784L37.792 72.7534L37.8933 73.1097L38.2645 72.8847L38.3658 73.2409L38.737 73.0159L38.8383 73.3722L39.2095 73.1472L39.3108 73.5034L39.6858 73.2784L39.787 73.6347L40.1583 73.4097L40.2595 73.7659L40.6308 73.5409L40.732 73.8972L41.1033 73.6722L41.2045 74.0284L41.5795 73.8034L41.6808 74.1597L42.052 73.9347L42.1533 74.2909L42.5245 74.0659L42.6258 74.4222L42.997 74.1972L43.0983 74.5534L43.4695 74.3284L43.5708 74.6847L43.942 74.4597L44.0433 74.8159L44.4145 74.5909L44.5158 74.9472L44.8908 74.7222L44.992 75.0784L45.3633 74.8534L45.472 75.2359L45.847 74.7259C46.0683 74.4259 46.072 74.0509 45.8545 73.8897L37.6983 67.8672Z"
          fill="#9FA4AB"/>
    <path d="M35.3905 71.9619L35.488 72.3182L35.863 72.0894L35.9605 72.4457L36.3355 72.2207L36.4367 72.5769L36.808 72.3519L36.9092 72.7082L37.2805 72.4832L37.3817 72.8394L37.753 72.6144L37.8542 72.9707L38.2292 72.7419L38.3267 73.0982L38.7017 72.8732L38.7992 73.2294L39.1742 73.0044L39.2755 73.3607L39.6467 73.1357L39.748 73.4919L40.1192 73.2632L40.2205 73.6194L40.5917 73.3944L40.693 73.7507L41.0642 73.5257L41.1655 73.8819L41.5367 73.6569L41.638 74.0132L42.013 73.7844L42.1105 74.1444L42.4855 73.9157L42.5867 74.2719L42.958 74.0469L43.0592 74.4032L43.4305 74.1782L43.5317 74.5344L43.903 74.3094L44.0042 74.6657L44.3755 74.4407L44.4767 74.7932L44.848 74.5682L44.9492 74.9244L45.3242 74.6994L45.4217 75.0557L45.7217 74.8757L45.463 75.2244L45.358 74.8419L44.983 75.0669L44.8855 74.7107L44.5105 74.9357L44.4092 74.5794L44.038 74.8044L43.9367 74.4519L43.5655 74.6769L43.4642 74.3207L43.093 74.5457L42.9917 74.1894L42.6205 74.4144L42.5192 74.0582L42.148 74.2832L42.0467 73.9269L41.6717 74.1557L41.5742 73.7957L41.1992 74.0244L41.098 73.6682L40.7267 73.8932L40.6255 73.5369L40.2542 73.7619L40.153 73.4057L39.7817 73.6307L39.6805 73.2744L39.3092 73.5032L39.208 73.1469L38.8367 73.3719L38.7355 73.0157L38.3605 73.2407L38.263 72.8844L37.888 73.1094L37.7905 72.7532L37.4155 72.9819L37.3142 72.6257L36.943 72.8507L36.8417 72.4944L36.4705 72.7194L36.3692 72.3632L35.998 72.5882L35.8967 72.2319L35.5255 72.4569L35.4242 72.1007L35.0492 72.3294L35.0117 72.1869L35.3905 71.9619Z"
          fill="#B4BBDB"/>
    <path d="M36.6633 70.0834L37.6983 67.8672L38.0208 68.1072L37.102 70.0722L34.9983 72.1384L34.9533 71.9734L34.522 72.2322L34.4883 72.2247L36.6633 70.0834Z"
          fill="#D5D4E6"/>
    <path d="M36.1181 69.9786C36.1181 69.9823 36.1181 69.9861 36.1181 69.9898C36.1144 70.0161 36.1144 70.0386 36.1106 70.0648C36.1106 70.0761 36.1069 70.0836 36.1069 70.0948C36.1031 70.1248 36.0994 70.1548 36.0956 70.1848L36.7069 69.7611C36.7144 69.7536 36.7219 69.7498 36.7294 69.7423C36.7369 69.7386 36.7406 69.7311 36.7481 69.7273C36.7519 69.7236 36.7556 69.7198 36.7594 69.7161C36.7631 69.7123 36.7631 69.7123 36.7669 69.7086C36.7706 69.7048 36.7781 69.6973 36.7819 69.6936C36.7556 69.5436 36.7219 69.3936 36.6919 69.2548C36.6694 69.2323 36.6506 69.2061 36.6281 69.1798L36.5981 69.4836C36.5869 69.5923 36.5269 69.6936 36.4369 69.7573L36.1181 69.9786ZM31.9969 69.4048C31.9931 69.4161 31.9894 69.4236 31.9894 69.4348C31.9894 69.4386 31.9856 69.4423 31.9856 69.4461C31.9819 69.4536 31.9819 69.4611 31.9781 69.4686C31.9744 69.4798 31.9744 69.4873 31.9706 69.4986V69.5023C31.9669 69.5136 31.9631 69.5286 31.9594 69.5398C31.9556 69.5511 31.9556 69.5623 31.9519 69.5736C31.9519 69.5811 31.9481 69.5886 31.9481 69.5961C31.9444 69.6073 31.9444 69.6223 31.9406 69.6336C31.9369 69.6486 31.9369 69.6636 31.9331 69.6786C31.9294 69.7048 31.9256 69.7311 31.9256 69.7573C31.9256 69.7686 31.9256 69.7798 31.9219 69.7911C31.9219 69.8023 31.9219 69.8173 31.9219 69.8286C31.9219 69.8398 31.9219 69.8511 31.9219 69.8586C31.9219 69.8623 31.9219 69.8698 31.9219 69.8773C31.9219 69.8848 31.9219 69.8961 31.9219 69.9036C31.9256 69.9523 31.9294 70.0011 31.9369 70.0498C31.9369 70.0611 31.9406 70.0723 31.9444 70.0798C31.9444 70.0836 31.9444 70.0836 31.9444 70.0873C31.9444 70.0948 31.9481 70.1061 31.9519 70.1136C31.9519 70.1173 31.9519 70.1211 31.9556 70.1211C31.9594 70.1323 31.9594 70.1398 31.9631 70.1511C31.9819 70.2111 32.0044 70.2711 32.0381 70.3273C32.0419 70.3386 32.0494 70.3461 32.0531 70.3536C32.0531 70.3536 32.0531 70.3573 32.0569 70.3573C32.0606 70.3648 32.0644 70.3723 32.0719 70.3798C32.0756 70.3873 32.0794 70.3911 32.0831 70.3986C32.0869 70.4023 32.0869 70.4061 32.0906 70.4061C32.0944 70.4136 32.1019 70.4173 32.1056 70.4248C32.1206 70.4436 32.1356 70.4623 32.1506 70.4811C32.1881 70.5223 32.2256 70.5561 32.2706 70.5898L34.4831 72.2211L34.4869 72.2248H34.4944L34.5356 72.2173L34.7119 72.1948L35.0006 72.1573L35.0719 72.1461L35.4169 72.1011H35.4206H35.4244L37.1006 71.8798C37.6519 71.8086 38.1731 71.4036 38.4431 70.8448L39.2981 69.0523L38.0156 68.1073L37.6931 67.8711L37.1344 67.4586L35.1394 65.9886C35.0494 65.9211 34.9369 65.9136 34.8281 65.9473C34.8281 65.9473 34.8281 65.9473 34.8244 65.9473C34.8131 65.9511 34.8019 65.9548 34.7906 65.9586C34.7831 65.9623 34.7756 65.9623 34.7719 65.9661C34.7681 65.9661 34.7644 65.9698 34.7569 65.9736C34.7569 65.9736 34.7569 65.9736 34.7531 65.9736H34.7494C34.7456 65.9773 34.7381 65.9773 34.7344 65.9811C34.7269 65.9848 34.7194 65.9886 34.7119 65.9961C34.7006 66.0036 34.6856 66.0111 34.6744 66.0223C34.6669 66.0261 34.6631 66.0336 34.6556 66.0373C34.6481 66.0411 34.6444 66.0486 34.6369 66.0523C34.6294 66.0561 34.6256 66.0636 34.6181 66.0673C34.6144 66.0711 34.6069 66.0786 34.6031 66.0823C34.5919 66.0936 34.5806 66.1086 34.5731 66.1198C34.5694 66.1236 34.5656 66.1311 34.5619 66.1348C34.5544 66.1423 34.5506 66.1536 34.5431 66.1611C34.5394 66.1686 34.5356 66.1723 34.5319 66.1798C34.5094 66.2173 34.4944 66.2548 34.4831 66.2961C34.4794 66.3036 34.4794 66.3111 34.4794 66.3186C34.4794 66.3223 34.4756 66.3298 34.4756 66.3336C34.4756 66.3373 34.4756 66.3448 34.4756 66.3486C34.4756 66.3561 34.4756 66.3598 34.4756 66.3673C34.4756 66.3748 34.4756 66.3786 34.4756 66.3861C34.4756 66.3936 34.4756 66.4048 34.4794 66.4123C34.4794 66.4198 34.4831 66.4311 34.4831 66.4386C34.4831 66.4386 34.4831 66.4386 34.4831 66.4423C34.4831 66.4461 34.4831 66.4498 34.4831 66.4536C34.4869 66.4761 34.4906 66.5023 34.4906 66.5248C34.4906 66.5323 34.4906 66.5398 34.4906 66.5473C34.4906 66.5586 34.4906 66.5698 34.4906 66.5811C34.4906 66.5923 34.4906 66.6036 34.4906 66.6148C34.4906 66.6448 34.4906 66.6748 34.4869 66.7048C34.4869 66.7123 34.4869 66.7198 34.4831 66.7273C34.4831 66.7386 34.4794 66.7461 34.4794 66.7573C34.4794 66.7686 34.4756 66.7798 34.4756 66.7873C34.4756 66.7948 34.4719 66.8098 34.4719 66.8173C34.4719 66.8248 34.4681 66.8361 34.4681 66.8436C34.4644 66.8698 34.4569 66.8923 34.4494 66.9186C34.4456 66.9261 34.4456 66.9336 34.4419 66.9411C34.4381 66.9523 34.4344 66.9598 34.4306 66.9711C34.4231 66.9973 34.4119 67.0236 34.4006 67.0498C34.3969 67.0611 34.3894 67.0723 34.3856 67.0836C34.3819 67.0948 34.3744 67.1061 34.3706 67.1173V67.1211C34.3669 67.1323 34.3594 67.1436 34.3556 67.1548C34.3519 67.1661 34.3444 67.1773 34.3406 67.1848C34.3406 67.1886 34.3369 67.1886 34.3369 67.1923C34.3256 67.2111 34.3181 67.2261 34.3069 67.2448C34.3031 67.2486 34.3031 67.2523 34.2994 67.2561C34.2919 67.2673 34.2881 67.2748 34.2806 67.2861C34.2731 67.2973 34.2656 67.3086 34.2581 67.3198C34.2506 67.3311 34.2431 67.3386 34.2394 67.3498C34.2394 67.3498 34.2394 67.3536 34.2356 67.3536C34.2281 67.3648 34.2206 67.3723 34.2131 67.3836C34.2056 67.3948 34.1981 67.4061 34.1869 67.4173C34.1794 67.4248 34.1719 67.4361 34.1644 67.4436C34.1456 67.4661 34.1269 67.4848 34.1081 67.5036C34.1006 67.5111 34.0894 67.5223 34.0819 67.5298C34.0706 67.5411 34.0631 67.5486 34.0519 67.5561C34.0444 67.5636 34.0369 67.5711 34.0294 67.5786C34.0219 67.5861 34.0144 67.5936 34.0069 67.5973C34.0031 67.6011 33.9956 67.6048 33.9919 67.6123C33.9844 67.6198 33.9769 67.6273 33.9656 67.6311C33.9619 67.6348 33.9581 67.6386 33.9544 67.6423C33.9431 67.6498 33.9319 67.6573 33.9206 67.6686C33.8831 67.6948 33.8456 67.7173 33.8044 67.7398C33.7744 67.7548 33.7481 67.7698 33.7181 67.7886C33.6881 67.8036 33.6619 67.8223 33.6319 67.8373C33.5381 67.8898 33.4406 67.9461 33.3469 68.0061C33.3244 68.0211 33.3019 68.0323 33.2831 68.0473C33.0656 68.1861 32.8556 68.3286 32.6756 68.4711C32.6644 68.4786 32.6531 68.4861 32.6456 68.4973C32.6344 68.5048 32.6231 68.5161 32.6119 68.5273C32.5781 68.5536 32.5444 68.5836 32.5144 68.6098C32.5031 68.6173 32.4956 68.6286 32.4844 68.6361C32.4581 68.6586 32.4356 68.6811 32.4131 68.7073C32.4019 68.7186 32.3906 68.7298 32.3794 68.7411C32.3644 68.7561 32.3531 68.7673 32.3419 68.7823C32.3344 68.7898 32.3269 68.8011 32.3194 68.8086C32.3081 68.8198 32.2969 68.8348 32.2856 68.8461C32.2781 68.8573 32.2669 68.8686 32.2594 68.8798C32.2519 68.8911 32.2444 68.8986 32.2369 68.9098C32.2219 68.9286 32.2106 68.9473 32.1956 68.9698C32.1844 68.9886 32.1694 69.0073 32.1581 69.0298C32.1394 69.0598 32.1244 69.0898 32.1056 69.1198C32.0944 69.1386 32.0831 69.1611 32.0756 69.1798C32.0531 69.2548 32.0231 69.3298 31.9969 69.4048ZM33.8381 70.1173C33.8044 70.0086 33.8231 69.8848 33.8944 69.7873C34.0556 69.6298 34.2056 69.4686 34.3481 69.3073C34.5506 69.0786 34.7306 68.8498 34.8919 68.6173C34.9181 68.5761 34.9481 68.5386 34.9744 68.4973C35.0194 68.4298 35.0644 68.3586 35.1056 68.2911C35.2069 68.1223 35.2969 67.9536 35.3719 67.7811C35.3719 67.7811 35.3719 67.7773 35.3756 67.7736C35.4094 67.7248 35.4544 67.6873 35.5031 67.6611C35.5969 67.6123 35.7094 67.6048 35.8069 67.6423C35.8106 67.6423 35.8106 67.6461 35.8144 67.6461C35.8219 67.6498 35.8256 67.6498 35.8331 67.6536C35.8481 67.6611 35.8594 67.6686 35.8706 67.6761C35.8781 67.6798 35.8819 67.6836 35.8894 67.6873L35.9419 67.7286L36.4556 68.1073L36.5381 68.1673C36.6394 68.2423 36.6956 68.3661 36.6844 68.4973L36.6319 69.0336L36.6244 69.1161L36.6206 69.1723L36.5906 69.4761C36.5794 69.5848 36.5194 69.6861 36.4294 69.7498L36.1106 69.9711L35.8931 70.1211L35.2519 70.5673L35.2331 70.5786L34.9931 70.7436C34.9706 70.7586 34.9481 70.7736 34.9219 70.7811H34.9181C34.9181 70.7811 34.9144 70.7811 34.9144 70.7848C34.8731 70.7998 34.8319 70.8073 34.7906 70.8111C34.7119 70.8111 34.6369 70.7886 34.5694 70.7398L33.9619 70.2936C33.9056 70.2561 33.8606 70.1886 33.8381 70.1173ZM36.1181 69.9786C36.1181 69.9823 36.1181 69.9861 36.1181 69.9898C36.1144 70.0161 36.1144 70.0386 36.1106 70.0648C36.1106 70.0761 36.1069 70.0836 36.1069 70.0948C36.1031 70.1248 36.0994 70.1548 36.0956 70.1848L36.7069 69.7611C36.7144 69.7536 36.7219 69.7498 36.7294 69.7423C36.7369 69.7386 36.7406 69.7311 36.7481 69.7273C36.7519 69.7236 36.7556 69.7198 36.7594 69.7161C36.7631 69.7123 36.7631 69.7123 36.7669 69.7086C36.7706 69.7048 36.7781 69.6973 36.7819 69.6936C36.7556 69.5436 36.7219 69.3936 36.6919 69.2548C36.6694 69.2323 36.6506 69.2061 36.6281 69.1798L36.5981 69.4836C36.5869 69.5923 36.5269 69.6936 36.4369 69.7573L36.1181 69.9786Z"
          fill="#0C604C"/>
    <path d="M35.2031 70.7956C35.1131 70.8331 35.0119 70.8331 34.9219 70.7956C34.9256 70.7956 34.9294 70.7918 34.9331 70.7918C34.9594 70.7806 34.9819 70.7693 35.0044 70.7543L36.4369 69.7568C36.5269 69.6931 36.5869 69.5918 36.5981 69.4831L36.6956 68.5006C36.7069 68.3731 36.6544 68.2456 36.5494 68.1706L35.8969 67.6906C35.8744 67.6718 35.8481 67.6606 35.8219 67.6493C35.9044 67.6156 35.9981 67.6156 36.0844 67.6493C36.1144 67.6606 36.1406 67.6756 36.1669 67.6943L36.8194 68.1743C36.9206 68.2493 36.9769 68.3731 36.9656 68.5043L36.8681 69.4868C36.8569 69.5956 36.7969 69.6968 36.7069 69.7606L35.2744 70.7581C35.2519 70.7731 35.2256 70.7843 35.2031 70.7956Z"
          fill="#002A35"/>
    <path d="M33.8168 67.747C34.2781 67.4957 34.5668 66.952 34.4881 66.4645C34.4768 66.4007 34.4768 66.3445 34.4918 66.3032C34.5743 66.022 34.8706 65.8607 35.0881 65.9545C34.9456 66.007 34.8143 66.1345 34.7618 66.307C34.7506 66.352 34.7506 66.4045 34.7581 66.4682C34.8368 66.952 34.5481 67.4957 34.0868 67.7507C33.4868 68.077 32.8006 68.5345 32.5381 68.8907C32.0993 69.487 32.0581 70.2445 32.5456 70.6007L34.7168 72.202L34.4918 72.232L32.2756 70.597C31.7918 70.2407 31.8293 69.4832 32.2681 68.887C32.5343 68.527 33.2206 68.0732 33.8168 67.747Z"
          fill="#002A35"/>
    <path d="M22.832 58.3239C22.832 58.3239 23.912 63.2439 24.2645 63.6152C24.947 64.3352 26.027 65.2427 27.0845 65.8014C30.5158 67.6202 31.9258 67.9577 32.0233 68.7677C32.1245 69.6377 34.5508 70.2377 35.0908 69.2777C36.1408 67.4064 33.9358 68.3402 34.0145 67.5602C34.0145 67.5602 34.8508 66.9977 34.187 66.9414C33.737 66.9039 33.1858 67.0202 33.1858 67.0202C29.147 64.7777 29.2145 63.5814 27.1895 62.6364C27.1445 62.3214 27.2308 61.6802 27.1783 61.3652C26.7845 59.1114 26.1658 57.1014 24.7333 55.1289C23.162 55.8752 23.0158 56.8577 22.832 58.3239Z"
          fill="#FCC8AF"/>
    <path d="M23.1339 62.4038L27.5439 61.3501C27.1502 59.0963 26.6964 54.9001 24.2589 54.9151C21.2927 54.9338 22.1739 60.5063 23.1339 62.4038Z"
          fill="white"/>
    <path d="M100.745 74.7408H90.1211V73.7958C90.1211 71.5983 91.9098 69.8096 94.1073 69.8096H96.7623C98.9598 69.8096 100.749 71.5983 100.749 73.7958V74.7408H100.745ZM91.4448 73.4808H99.4211C99.3536 71.9771 98.1536 70.7771 96.6836 70.7771H94.1786C92.7123 70.7771 91.5123 71.9771 91.4448 73.4808Z"
          fill="#002A35"/>
    <path d="M102.808 87.018H88.1983C87.6583 87.018 87.2083 86.6167 87.1445 86.0805L86.1133 77.3242H104.897L103.866 86.0805C103.798 86.6167 103.345 87.018 102.808 87.018Z"
          fill="#1E8161"/>
    <path d="M86.1094 77.3242L86.2744 78.7192H101.297C102.609 78.7192 103.551 79.893 103.404 81.2917L102.808 87.0217C103.348 87.0217 103.798 86.6205 103.862 86.0842L104.893 77.328H86.1094V77.3242Z"
          fill="#1E8161"/>
    <path d="M104.893 77.3243H86.1094V74.0356C86.1094 73.6906 86.3869 73.4131 86.7319 73.4131H104.271C104.616 73.4131 104.893 73.6906 104.893 74.0356V77.3243Z"
          fill="#1E8161"/>
    <path d="M96.5227 79.6604H94.3627C94.2502 79.6604 94.1602 79.5703 94.1602 79.4578V76.7503C94.1602 76.6378 94.2502 76.5479 94.3627 76.5479H96.5227C96.6352 76.5479 96.7252 76.6378 96.7252 76.7503V79.4578C96.7252 79.5703 96.6352 79.6604 96.5227 79.6604Z"
          fill="white"/>
    <path d="M95.443 79.1844C95.0005 79.1844 94.6367 78.8244 94.6367 78.3782V77.8307C94.6367 77.3882 94.9967 77.0244 95.443 77.0244C95.8855 77.0244 96.2492 77.3844 96.2492 77.8307V78.3782C96.2492 78.8207 95.8855 79.1844 95.443 79.1844Z"
          fill="#1E8161"/>
    <path d="M95.082 78.1041C95.082 77.9054 95.2433 77.7441 95.442 77.7441C95.6408 77.7441 95.802 77.9054 95.802 78.1041C95.802 78.3029 95.6408 78.4641 95.442 78.4641C95.2433 78.4641 95.082 78.3029 95.082 78.1041Z"
          fill="white"/>
    <path d="M80.7656 51.0264C84.2347 51.0264 87.0469 48.2142 87.0469 44.7451C87.0469 41.2761 84.2347 38.4639 80.7656 38.4639C77.2966 38.4639 74.4844 41.2761 74.4844 44.7451C74.4844 48.2142 77.2966 51.0264 80.7656 51.0264Z"
          fill="#FFA412"/>
    <path d="M85.9098 38.7942C85.171 38.0517 84.241 37.4892 83.2398 37.1892C82.231 36.8854 81.151 36.8592 80.1198 37.0692C79.831 37.1292 79.5385 37.2004 79.2648 37.3092C78.9948 37.4142 78.7285 37.5454 78.4773 37.6804C78.4173 37.7142 78.4623 37.8229 78.5298 37.7929C78.991 37.5904 79.4823 37.4517 79.9773 37.3579C80.4723 37.2642 80.986 37.2304 81.4885 37.2604C82.4748 37.3204 83.446 37.6317 84.2973 38.1342C84.7698 38.4117 85.201 38.7567 85.5873 39.1504C85.801 39.3717 86.1273 39.0117 85.9098 38.7942Z"
          fill="#FFA412"/>
    <path d="M87.4629 40.5606C87.3767 40.4331 87.2829 40.3131 87.1817 40.1968C87.0879 40.0881 86.9904 39.9793 86.8742 39.8968C86.7579 39.8143 86.6342 39.7431 86.5179 39.6606C86.4542 39.6193 86.3679 39.7131 86.4167 39.7731C86.4992 39.8743 86.5667 39.9868 86.6342 40.0993C86.7054 40.2156 86.7954 40.3243 86.8704 40.4406C86.9454 40.5531 87.0167 40.6656 87.0879 40.7781C87.1592 40.8981 87.2154 41.0293 87.2942 41.1418C87.3542 41.2356 87.4742 41.2731 87.5754 41.2243C87.6692 41.1793 87.7404 41.0631 87.6992 40.9581C87.6392 40.8156 87.5492 40.6843 87.4629 40.5606Z"
          fill="#FFA412"/>
    <path d="M82.7708 43.3427C82.7633 43.3465 82.7558 43.3502 82.752 43.354L82.6058 43.4365L82.572 43.3802C82.5533 43.3465 82.5083 43.3315 82.4708 43.354L82.392 43.399L83.067 44.584L83.1458 44.539C83.1758 44.524 83.187 44.4902 83.1795 44.4565C83.4308 44.3327 83.7233 44.329 83.9745 44.4452L84.0758 44.4902L84.162 44.6402L84.1058 44.674C84.0945 44.6777 84.0945 44.6927 84.0983 44.7002L84.1733 44.8352L84.0945 44.8802C84.0533 44.9027 84.0383 44.959 84.0608 45.0002L84.2483 45.3265C84.2708 45.3677 84.327 45.3827 84.3683 45.3602C84.6908 45.2102 85.002 45.0302 85.3095 44.824C85.3508 44.8015 85.3658 44.7452 85.3433 44.704L85.1558 44.3777C85.1333 44.3365 85.077 44.3215 85.0358 44.344L84.9045 44.419L84.8295 44.284C84.8258 44.2727 84.8108 44.2727 84.8033 44.2765L84.7845 44.2877L84.6983 44.1377L84.7095 44.014C84.7395 43.714 84.6758 43.414 84.5258 43.1515L84.3833 42.9002C84.2483 42.664 84.057 42.4577 83.8133 42.3415C83.2433 42.0752 81.5145 42.049 81.5295 42.1165C81.4958 42.1052 81.4583 42.109 81.4245 42.1277C81.3383 42.1765 81.3383 42.3002 81.4208 42.3527C81.4208 42.3527 82.5233 42.4652 82.797 42.679C83.0708 42.8927 83.0333 43.174 82.7708 43.3427Z"
          fill="white"/>
    <path d="M77.6556 48.1498C77.6593 48.1498 77.6631 48.1498 77.6706 48.1498C77.6931 48.1535 77.7156 48.1498 77.7381 48.1498C77.7418 48.1498 77.7456 48.1498 77.7493 48.1498C77.7981 48.1423 77.8431 48.1273 77.8843 48.101C78.8818 47.3698 79.9018 46.7135 80.9556 46.1398C81.0568 46.076 81.0906 45.9448 81.0456 45.8248L81.1468 45.7648L83.0406 44.6848C83.0781 44.6623 83.0893 44.6173 83.0706 44.5798L82.3843 43.3723C82.3806 43.3648 82.3731 43.3573 82.3656 43.3498C82.3431 43.331 82.3093 43.3273 82.2831 43.3423L80.2768 44.486C80.2693 44.4785 80.2656 44.4748 80.2581 44.471C80.2543 44.4673 80.2468 44.4635 80.2393 44.4598C80.2318 44.4523 80.2243 44.4485 80.2131 44.4448C80.2056 44.441 80.2018 44.4373 80.1943 44.4373C80.1868 44.4335 80.1793 44.4298 80.1681 44.426C80.1606 44.4223 80.1531 44.4223 80.1456 44.4185C80.1381 44.4148 80.1306 44.4148 80.1231 44.411C80.1156 44.411 80.1043 44.411 80.0968 44.411C80.0893 44.411 80.0818 44.411 80.0743 44.411C80.0631 44.411 80.0556 44.4148 80.0443 44.4148C80.0406 44.4148 80.0331 44.4148 80.0293 44.4185C80.0143 44.4223 79.9993 44.4298 79.9843 44.4373C78.9118 45.1048 77.8281 45.6673 76.7331 46.0835C76.5793 46.1623 76.5081 46.3423 76.5681 46.5035C76.7781 47.0623 77.0668 47.5723 77.4418 48.0335C77.4606 48.056 77.4793 48.071 77.4981 48.0898C77.5018 48.0935 77.5093 48.0973 77.5168 48.101C77.5356 48.1123 77.5543 48.1235 77.5731 48.131C77.5768 48.131 77.5806 48.1348 77.5843 48.1348C77.6068 48.1423 77.6293 48.1498 77.6556 48.1498Z"
          fill="white"/>
    <path d="M103.465 42.7022C105.918 40.2493 105.918 36.2722 103.465 33.8193C101.012 31.3663 97.0351 31.3663 94.5821 33.8193C92.1291 36.2722 92.1291 40.2493 94.5821 42.7022C97.0351 45.1552 101.012 45.1552 103.465 42.7022Z"
          fill="#1E8161"/>
    <path d="M103.244 31.6242C102.404 30.9979 101.403 30.5779 100.368 30.4279C99.325 30.2779 98.2525 30.4054 97.2663 30.7654C96.9888 30.8667 96.7113 30.9792 96.4563 31.1254C96.205 31.2679 95.9613 31.4367 95.7288 31.6092C95.6725 31.6504 95.7363 31.7517 95.7963 31.7142C96.22 31.4442 96.6888 31.2379 97.165 31.0729C97.6413 30.9042 98.1438 30.7992 98.6463 30.7579C99.6288 30.6754 100.638 30.8404 101.553 31.2117C102.063 31.4179 102.539 31.6954 102.978 32.0292C103.218 32.2092 103.491 31.8079 103.244 31.6242Z"
          fill="#1E8161"/>
    <path d="M105.038 33.1431C104.933 33.0306 104.824 32.9256 104.708 32.8244C104.599 32.7306 104.487 32.6406 104.359 32.5731C104.232 32.5056 104.101 32.4569 103.969 32.3931C103.902 32.3594 103.827 32.4681 103.883 32.5169C103.981 32.6031 104.063 32.7081 104.146 32.8056C104.236 32.9106 104.337 33.0044 104.431 33.1094C104.521 33.2069 104.611 33.3081 104.697 33.4131C104.787 33.5181 104.862 33.6419 104.952 33.7431C105.027 33.8256 105.151 33.8444 105.241 33.7844C105.327 33.7281 105.379 33.6006 105.323 33.5031C105.248 33.3719 105.143 33.2556 105.038 33.1431Z"
          fill="#1E8161"/>
    <path d="M105.173 59.3154C107.873 56.6149 107.873 52.2366 105.173 49.5362C102.472 46.8357 98.0939 46.8357 95.3935 49.5362C92.6931 52.2366 92.6931 56.6149 95.3935 59.3154C98.094 62.0158 102.472 62.0158 105.173 59.3154Z"
          fill="#9FA4AB"/>
    <path d="M91.7746 52.834C91.4783 53.9478 91.4596 55.1403 91.7296 56.2653C91.9996 57.3903 92.5733 58.4366 93.3458 59.299C93.5596 59.5391 93.7921 59.779 94.0471 59.9778C94.2946 60.1765 94.5683 60.3565 94.8383 60.5215C94.9021 60.5628 94.9808 60.454 94.9171 60.409C94.4671 60.0828 94.0621 59.6928 93.6983 59.2728C93.3308 58.8528 93.0158 58.384 92.7683 57.889C92.2808 56.9178 92.0371 55.819 92.0408 54.7353C92.0446 54.1315 92.1308 53.5278 92.2921 52.9465C92.3821 52.6165 91.8608 52.504 91.7746 52.834Z"
          fill="#9FA4AB"/>
    <path d="M92.5922 50.3779C92.5172 50.5317 92.4572 50.6854 92.4047 50.8467C92.3559 50.9967 92.3072 51.1504 92.2922 51.3079C92.2772 51.4654 92.2772 51.6229 92.2659 51.7767C92.2584 51.8592 92.4009 51.8929 92.4272 51.8142C92.4759 51.6792 92.5472 51.5517 92.6147 51.4242C92.6859 51.2892 92.7422 51.1467 92.8059 51.0117C92.8697 50.8804 92.9372 50.7454 93.0084 50.6179C93.0797 50.4829 93.1734 50.3592 93.2409 50.2204C93.2934 50.1117 93.2634 49.9767 93.1622 49.9092C93.0684 49.8454 92.9184 49.8417 92.8397 49.9392C92.7384 50.0704 92.6634 50.2279 92.5922 50.3779Z"
          fill="#9FA4AB"/>
    <path d="M96.09 37.1816C96.1762 37.0091 96.2513 36.8404 96.3113 36.6716C96.3225 36.6416 96.3338 36.6154 96.3413 36.5854C96.36 36.5366 96.375 36.4879 96.3863 36.4391C96.42 36.3191 96.4462 36.2029 96.4687 36.0866V36.0829C96.4837 36.0491 96.5025 36.0191 96.5288 35.9929C96.5775 35.9479 96.645 35.9254 96.7125 35.9329H96.7163C96.735 35.9366 96.7537 35.9404 96.7687 35.9479L96.8025 35.9629H96.8062L96.87 35.9891L97.215 36.1241L97.2413 36.1354C97.26 36.1429 97.275 36.1504 97.29 36.1616C97.3125 36.1766 97.3312 36.1991 97.3462 36.2216C97.365 36.2479 97.38 36.2816 97.3837 36.3154L97.44 36.6529L97.4475 36.7054L97.455 36.7391L97.4625 36.7729L97.4887 36.9266C97.4925 36.9454 97.4925 36.9604 97.4925 36.9791C97.4925 37.0091 97.4812 37.0391 97.47 37.0654C97.47 37.0691 97.4663 37.0729 97.4663 37.0766C97.4588 37.0916 97.4475 37.1066 97.4363 37.1179L97.2788 37.3054L96.7238 37.9579C96.7238 37.9579 96.72 37.9579 96.72 37.9616C96.7087 37.9729 96.6975 37.9841 96.6863 37.9954C96.6863 37.9954 96.6862 37.9954 96.6825 37.9954C96.6825 37.9954 96.6788 37.9954 96.6788 37.9991C96.6563 38.0141 96.6337 38.0254 96.6075 38.0329C96.5587 38.0479 96.51 38.0441 96.4613 38.0254L96.0187 37.8491C95.97 37.8304 95.9325 37.7966 95.91 37.7554C95.8725 37.6954 95.8613 37.6166 95.8913 37.5454C95.9625 37.4254 96.03 37.3016 96.09 37.1816ZM98.13 35.8579L97.8937 35.7641L97.485 35.6029L96.03 35.0291C96.015 35.0216 96 35.0216 95.9887 35.0179C95.9362 35.0104 95.8838 35.0216 95.835 35.0516C95.835 35.0516 95.835 35.0516 95.8312 35.0516C95.8312 35.0516 95.8312 35.0516 95.8275 35.0516C95.8237 35.0554 95.82 35.0591 95.8163 35.0629C95.8125 35.0666 95.8088 35.0704 95.805 35.0704C95.8013 35.0741 95.8013 35.0741 95.7975 35.0779C95.7938 35.0816 95.7937 35.0854 95.79 35.0854C95.7862 35.0891 95.7825 35.0929 95.7788 35.0966C95.7713 35.1041 95.7675 35.1116 95.76 35.1191C95.7563 35.1229 95.7525 35.1266 95.7525 35.1304C95.7525 35.1304 95.7525 35.1304 95.7525 35.1341C95.7525 35.1379 95.7488 35.1416 95.7488 35.1454C95.745 35.1491 95.7413 35.1529 95.7413 35.1566C95.7413 35.1604 95.7375 35.1641 95.7337 35.1679C95.73 35.1716 95.73 35.1791 95.7262 35.1866C95.7262 35.1866 95.7225 35.1904 95.7225 35.1941L95.7187 35.2091C95.715 35.2166 95.7113 35.2204 95.7113 35.2279L95.7075 35.2391V35.2429C95.7 35.2654 95.6962 35.2916 95.6962 35.3141V35.3179C95.6962 35.3216 95.6962 35.3291 95.6962 35.3329C95.6962 35.3366 95.6962 35.3404 95.6962 35.3441C95.6962 35.3479 95.6962 35.3516 95.6962 35.3516C95.6962 35.3554 95.6962 35.3591 95.7 35.3629C95.7 35.3666 95.7 35.3704 95.7038 35.3741C95.7075 35.3779 95.7075 35.3854 95.7075 35.3891C95.7112 35.3929 95.7112 35.4004 95.715 35.4041C95.7187 35.4079 95.7187 35.4079 95.7187 35.4116C95.7337 35.4454 95.745 35.4829 95.7562 35.5204C95.7562 35.5241 95.76 35.5279 95.76 35.5316C95.7675 35.5654 95.775 35.6029 95.7788 35.6404V35.6441C95.7825 35.6816 95.7788 35.7191 95.7788 35.7566C95.7788 35.7604 95.7788 35.7641 95.7788 35.7679C95.775 35.8054 95.7712 35.8429 95.7637 35.8766V35.8804C95.7525 35.9179 95.7412 35.9554 95.7262 35.9966C95.7112 36.0341 95.6962 36.0679 95.6775 36.1054C95.6775 36.1054 95.6775 36.1091 95.6738 36.1129C95.655 36.1466 95.6325 36.1804 95.61 36.2141C95.61 36.2141 95.61 36.2179 95.6062 36.2179C95.58 36.2479 95.5537 36.2779 95.5275 36.3079C95.5125 36.3229 95.4975 36.3341 95.4825 36.3491C95.4675 36.3641 95.4525 36.3791 95.4375 36.3941C95.4337 36.3979 95.43 36.4016 95.4262 36.4016C95.3812 36.4504 95.3325 36.4954 95.2875 36.5441C95.2762 36.5554 95.2687 36.5666 95.2575 36.5779C95.25 36.5854 95.2462 36.5929 95.2387 36.6004C95.2012 36.6416 95.16 36.6866 95.1262 36.7279C95.115 36.7429 95.1 36.7579 95.0887 36.7691C95.0437 36.8216 95.0025 36.8741 94.965 36.9266C94.965 36.9304 94.9612 36.9341 94.9575 36.9341C94.9537 36.9416 94.9463 36.9491 94.9425 36.9566C94.935 36.9641 94.9313 36.9716 94.9238 36.9791C94.9125 36.9941 94.9012 37.0091 94.8937 37.0241C94.89 37.0279 94.8862 37.0316 94.8825 37.0391C94.8787 37.0429 94.8788 37.0429 94.8788 37.0466C94.875 37.0541 94.8713 37.0616 94.8675 37.0654C94.8563 37.0841 94.845 37.1029 94.8337 37.1216C94.83 37.1291 94.8225 37.1404 94.8187 37.1479C94.8187 37.1479 94.8187 37.1479 94.815 37.1516C94.8112 37.1629 94.8037 37.1704 94.8 37.1816C94.7962 37.1891 94.7925 37.1929 94.7887 37.2004C94.785 37.2079 94.7775 37.2191 94.7738 37.2304C94.77 37.2379 94.7662 37.2454 94.7625 37.2529L94.74 37.3166C94.7362 37.3316 94.7325 37.3429 94.7288 37.3579C94.7213 37.3766 94.7175 37.3954 94.7137 37.4179V37.4216C94.71 37.4366 94.7062 37.4516 94.7062 37.4629C94.7025 37.4854 94.7025 37.5079 94.6988 37.5304C94.695 37.5529 94.6913 37.5716 94.6913 37.5941C94.6913 37.6016 94.6875 37.6091 94.6875 37.6129C94.6875 37.6204 94.6875 37.6241 94.6875 37.6316C94.6875 37.6354 94.6875 37.6354 94.6875 37.6391C94.6875 37.6429 94.6875 37.6466 94.6875 37.6504C94.6875 37.6579 94.6875 37.6616 94.6875 37.6691V37.6729C94.6875 37.6804 94.6875 37.6916 94.6875 37.6991C94.6875 37.7066 94.6875 37.7141 94.6875 37.7216C94.6875 37.7254 94.6875 37.7291 94.6875 37.7366C94.6875 37.7441 94.6875 37.7516 94.6913 37.7629C94.6913 37.7704 94.695 37.7816 94.695 37.7891L94.7025 37.8379C94.7062 37.8454 94.7062 37.8529 94.7062 37.8604C94.7062 37.8679 94.71 37.8754 94.71 37.8829C94.7138 37.8904 94.7137 37.8941 94.7137 37.9016C94.7137 37.9054 94.7175 37.9091 94.7175 37.9129C94.7213 37.9166 94.7212 37.9241 94.7212 37.9279C94.7287 37.9579 94.74 37.9841 94.755 38.0141C94.755 38.0141 94.755 38.0141 94.755 38.0179L94.7625 38.0329C94.7625 38.0329 94.7662 38.0366 94.7625 38.0366C94.7662 38.0404 94.77 38.0479 94.77 38.0516C94.77 38.0516 94.77 38.0554 94.7738 38.0554C94.7775 38.0591 94.7813 38.0666 94.785 38.0704C94.7925 38.0816 94.8038 38.0929 94.8113 38.1041C94.8225 38.1191 94.8337 38.1341 94.845 38.1454C94.8525 38.1529 94.8562 38.1604 94.8637 38.1679C94.8675 38.1754 94.8713 38.1791 94.8788 38.1829C94.8788 38.1829 94.8787 38.1829 94.8825 38.1866C94.8862 38.1904 94.89 38.1941 94.8937 38.1979C94.8975 38.2016 94.9013 38.2054 94.905 38.2054C94.9088 38.2091 94.9087 38.2091 94.9087 38.2091C94.9125 38.2129 94.9162 38.2166 94.92 38.2166C94.9237 38.2204 94.9237 38.2204 94.9275 38.2204C94.9275 38.2204 94.9313 38.2241 94.935 38.2241C94.9425 38.2316 94.95 38.2354 94.9575 38.2429C94.9875 38.2616 95.0175 38.2766 95.0512 38.2916H95.055L96.6637 38.9254H96.6675H96.6712H96.6863L96.6937 38.9141L96.7988 38.8691L96.9675 38.7979L98.5425 36.2029C98.595 36.1129 98.5538 35.9966 98.46 35.9591L98.13 35.8579ZM103.987 38.2129L99.1425 36.3041C99.0375 36.2629 98.9175 36.3041 98.8613 36.4016L97.395 38.9029L97.4625 39.0191L97.6538 38.8204L97.7738 39.0191L97.965 38.8204L98.0812 39.0229L98.2725 38.8241L98.3925 39.0266L98.5837 38.8279L98.7038 39.0304L98.895 38.8316L99.015 39.0341L99.2062 38.8354L99.3225 39.0379L99.5137 38.8391L99.63 39.0416L99.8212 38.8429L99.9413 39.0454L100.132 38.8466L100.252 39.0454L100.444 38.8466L100.56 39.0491L100.751 38.8504L100.871 39.0529L100.969 38.9516L101.062 38.8541L101.182 39.0529L101.374 38.8541L101.494 39.0566L101.685 38.8579L101.801 39.0604L101.993 38.8616L102.112 39.0641L102.304 38.8654L102.424 39.0679L102.615 38.8691L102.731 39.0716L102.923 38.8729L103.043 39.0754L103.234 38.8766L103.35 39.0791L103.541 38.8804L103.661 39.0791L103.852 38.8804L103.98 39.0979L104.126 38.7266C104.205 38.5054 104.145 38.2766 103.987 38.2129Z"
          fill="white"/>
    <path d="M96.6016 50.3666C96.5866 50.3403 96.5941 50.3028 96.6166 50.2841C96.6428 50.2616 96.6766 50.2653 96.7028 50.2841L97.0666 50.5991L99.6803 53.8578L99.4478 54.0453L96.8341 50.7866L96.6016 50.3666Z"
          fill="white"/>
    <path d="M98.9285 54.4694L100.155 53.4869C100.226 53.4306 100.327 53.4419 100.387 53.5131L100.578 53.7531L99.0972 54.9456L98.906 54.7056C98.846 54.6306 98.8572 54.5256 98.9285 54.4694Z"
          fill="white"/>
    <path d="M100.306 56.5918C100.122 56.0068 99.9011 55.553 99.3086 55.3468C99.8673 54.923 100.396 54.4843 100.914 54.0605C101.022 54.8593 101.911 55.3055 101.911 55.3055C102.886 55.9318 103.629 56.8168 104.075 57.878C104.139 58.028 104.097 58.2193 103.97 58.3655C103.655 58.7293 103.276 59.0143 102.86 59.2505C102.684 59.348 102.485 59.3518 102.346 59.2543C101.409 58.5905 100.565 57.4093 100.306 56.5918Z"
          fill="white"/>
    <path d="M99.0658 54.8966L100.555 53.7004C100.675 53.6066 100.847 53.6254 100.941 53.7416C101.035 53.8616 101.016 54.0341 100.9 54.1279L99.4108 55.3241C99.2908 55.4179 99.1183 55.3991 99.0246 55.2829C98.9308 55.1629 98.9496 54.9904 99.0658 54.8966Z"
          fill="white"/>
    <path d="M99.3273 54.1463L99.7998 53.7675L99.5748 53.4863C99.541 53.4413 99.4735 53.4338 99.4285 53.4713L99.121 53.7188C99.076 53.7525 99.0685 53.82 99.106 53.865L99.3273 54.1463Z"
          fill="#8684C7"/>
    <path d="M99.1991 53.6513L99.3454 53.535C99.4354 53.46 99.5666 53.475 99.6416 53.5688L99.8029 53.7675L99.3304 54.1463L99.1691 53.9475C99.0941 53.8538 99.1091 53.7225 99.1991 53.6513Z"
          fill="white"/>
    <path d="M113.652 87.4578H6.35313C6.27063 87.4578 6.20312 87.3903 6.20312 87.3078V87.1803C6.20312 87.0978 6.27063 87.0303 6.35313 87.0303H113.652C113.734 87.0303 113.802 87.0978 113.802 87.1803V87.3078C113.798 87.394 113.731 87.4578 113.652 87.4578Z"
          fill="#2E3552"/>
</svg>
