<svg width="100%" height="100%" viewBox="0 0 120 120" fill="none" xmlns="http://www.w3.org/2000/svg">
    <path d="M0 4C0 1.79086 1.79086 0 4 0H116C118.209 0 120 1.79086 120 4V116C120 118.209 118.209 120 116 120H4C1.79086 120 0 118.209 0 116V4Z"
          fill="#F5FAFF"/>
    <path d="M14.4644 87.1833C14.4644 87.1833 4.63939 72.9333 10.5981 58.2596C14.4831 48.6971 29.0556 43.4546 37.2794 48.6971C40.7819 50.9283 52.0206 48.7721 58.0206 39.5321C69.6794 21.5771 110.374 32.4821 102.968 60.0483C99.3831 73.3908 113.881 73.8746 106.493 87.2096L14.4644 87.1833Z"
          fill="#FFEBC2"/>
    <path d="M113.652 87.4578H6.35313C6.27063 87.4578 6.20312 87.3903 6.20312 87.3078V87.1803C6.20312 87.0978 6.27063 87.0303 6.35313 87.0303H113.652C113.734 87.0303 113.802 87.0978 113.802 87.1803V87.3078C113.798 87.394 113.731 87.4578 113.652 87.4578Z"
          fill="#2E3552"/>
    <path d="M78.4155 43.9122H71.0055C70.6642 43.9122 70.3867 43.6347 70.3867 43.2934V36.1422C70.3867 35.8009 70.6642 35.5234 71.0055 35.5234H78.4155C78.7567 35.5234 79.0342 35.8009 79.0342 36.1422V43.2934C79.0342 43.6347 78.7567 43.9122 78.4155 43.9122Z"
          fill="#FFCB68"/>
    <path d="M78.093 43.548H71.328C71.0167 43.548 70.7617 43.293 70.7617 42.9817V36.453C70.7617 36.1417 71.0167 35.8867 71.328 35.8867H78.093C78.4042 35.8867 78.6592 36.1417 78.6592 36.453V42.9855C78.6592 43.293 78.4042 43.548 78.093 43.548Z"
          fill="#FFEBC2"/>
    <path d="M74.5312 36.6556C74.5312 36.5581 74.61 36.4756 74.7113 36.4756C74.8125 36.4756 74.8912 36.5543 74.8912 36.6556C74.8912 36.7531 74.8125 36.8356 74.7113 36.8356C74.61 36.8356 74.5312 36.7531 74.5312 36.6556Z"
          fill="#FFCB68"/>
    <path d="M75.9803 36.9065C76.029 36.8202 76.1378 36.7902 76.224 36.8352C76.3103 36.884 76.3403 36.9927 76.2953 37.079C76.2465 37.1652 76.1378 37.1952 76.0515 37.1502C75.9615 37.1015 75.9315 36.9927 75.9803 36.9065Z"
          fill="#FFCB68"/>
    <path d="M77.2175 37.8896C77.3 37.8371 77.4125 37.8596 77.465 37.9421C77.5175 38.0246 77.495 38.1371 77.4125 38.1896C77.33 38.2421 77.2175 38.2196 77.165 38.1371C77.1125 38.0546 77.135 37.9458 77.2175 37.8896Z"
          fill="#FFCB68"/>
    <path d="M77.8284 39.4121C77.9259 39.4121 78.0084 39.4909 78.0084 39.5921C78.0084 39.6896 77.9297 39.7721 77.8284 39.7721C77.7272 39.7721 77.6484 39.6934 77.6484 39.5921C77.6522 39.4946 77.7309 39.4121 77.8284 39.4121Z"
          fill="#FFCB68"/>
    <path d="M77.5155 41.1786C77.5867 41.2498 77.5867 41.3623 77.5155 41.4336C77.4442 41.5048 77.3317 41.5048 77.2605 41.4336C77.1892 41.3623 77.1892 41.2498 77.2605 41.1786C77.3317 41.1111 77.4442 41.1111 77.5155 41.1786Z"
          fill="#FFCB68"/>
    <path d="M76.3905 42.3064C76.4617 42.3776 76.4617 42.4901 76.3905 42.5614C76.3192 42.6326 76.2067 42.6326 76.1355 42.5614C76.0642 42.4901 76.0642 42.3776 76.1355 42.3064C76.2067 42.2351 76.3192 42.2351 76.3905 42.3064Z"
          fill="#FFCB68"/>
    <path d="M74.5312 42.888C74.5312 42.7905 74.61 42.708 74.7113 42.708C74.8125 42.708 74.8912 42.7868 74.8912 42.888C74.8912 42.9855 74.8125 43.068 74.7113 43.068C74.61 43.068 74.5312 42.9855 74.5312 42.888Z"
          fill="#FFCB68"/>
    <path d="M73.4374 36.9065C73.3886 36.8202 73.2799 36.7902 73.1936 36.8352C73.1074 36.884 73.0773 36.9927 73.1223 37.079C73.1711 37.1652 73.2798 37.1952 73.3661 37.1502C73.4523 37.1015 73.4861 36.9927 73.4374 36.9065Z"
          fill="#FFCB68"/>
    <path d="M72.2015 37.8886C72.119 37.8361 72.0065 37.8586 71.954 37.9411C71.9015 38.0236 71.924 38.1361 72.0065 38.1886C72.089 38.2411 72.2015 38.2186 72.254 38.1361C72.3065 38.0536 72.284 37.9448 72.2015 37.8886Z"
          fill="#FFCB68"/>
    <path d="M71.5863 39.4111C71.4888 39.4111 71.4062 39.4899 71.4062 39.5911C71.4062 39.6886 71.485 39.7711 71.5863 39.7711C71.6838 39.7711 71.7663 39.6924 71.7663 39.5911C71.7663 39.4936 71.6875 39.4111 71.5863 39.4111Z"
          fill="#FFCB68"/>
    <path d="M71.9011 41.1776C71.8298 41.2488 71.8298 41.3613 71.9011 41.4326C71.9723 41.5038 72.0848 41.5038 72.1561 41.4326C72.2273 41.3613 72.2273 41.2488 72.1561 41.1776C72.0848 41.1101 71.9686 41.1101 71.9011 41.1776Z"
          fill="#FFCB68"/>
    <path d="M73.0261 42.3064C72.9548 42.3776 72.9548 42.4901 73.0261 42.5614C73.0973 42.6326 73.2098 42.6326 73.2811 42.5614C73.3523 42.4901 73.3523 42.3776 73.2811 42.3064C73.2098 42.2351 73.0936 42.2351 73.0261 42.3064Z"
          fill="#FFCB68"/>
    <path d="M74.8402 39.7721C74.9396 39.7721 75.0202 39.6915 75.0202 39.5921C75.0202 39.4927 74.9396 39.4121 74.8402 39.4121C74.7407 39.4121 74.6602 39.4927 74.6602 39.5921C74.6602 39.6915 74.7407 39.7721 74.8402 39.7721Z"
          fill="#FFCB68"/>
    <path d="M74.8613 37.3535H74.8125V39.5923H74.8613V37.3535Z" fill="#FFCB68"/>
    <path d="M75.9592 38.5955L74.7734 39.5264L74.8637 39.6414L76.0495 38.7105L75.9592 38.5955Z" fill="#FFCB68"/>
    <path d="M84.1658 66.4984C84.1658 66.4984 82.8046 62.7522 85.7596 61.8109C85.7596 61.8109 87.8033 61.4284 89.1271 62.0209C89.1271 62.0209 85.9921 64.5222 86.4908 65.0734C86.9933 65.6284 89.7833 62.0359 89.7833 62.0359C89.7833 62.0359 93.7058 63.0934 94.7033 64.1397C94.7033 64.1397 90.4696 65.5684 91.0921 65.9847C91.7146 66.3972 96.1883 65.1147 96.1883 65.1147C96.1883 65.1147 99.4846 67.0422 98.4908 69.1197C97.4933 71.1972 96.0308 71.4034 95.5171 71.1484C95.0033 70.8934 92.3333 68.5234 92.1008 68.9359C91.8683 69.3484 93.2108 71.4822 94.5008 72.0447C94.5008 72.0447 90.9871 73.8484 89.6333 72.4384C88.2796 71.0284 88.6096 69.7197 87.7583 68.8609C86.9071 68.0022 86.0258 67.6722 86.2733 68.3134C86.5171 68.9509 88.2046 70.1209 88.4033 71.3809C88.5983 72.6447 88.8646 73.5447 87.2521 72.6447C85.6396 71.7447 83.3333 69.4497 83.7533 67.9722C84.1658 66.4984 84.1658 66.4984 84.1658 66.4984Z"
          fill="#004C40"/>
    <path d="M96.7381 68.5267C96.7381 68.5267 87.3069 64.5555 84.1644 66.498C84.1644 66.498 83.1706 67.7205 81.2506 68.4555L80.7969 68.9805C80.7969 68.9805 83.1144 67.8555 83.7481 67.9755C83.7481 67.9755 84.0969 64.233 96.7381 68.5267Z"
          fill="#002A35"/>
    <path d="M81.2522 68.4555C81.2522 68.4555 78.6272 69.2018 77.4609 71.8605L77.8209 72.033C77.8209 72.033 79.5347 69.4718 81.1322 68.823C82.7334 68.1705 81.2522 68.4555 81.2522 68.4555Z"
          fill="#002A35"/>
    <path d="M77.1073 64.579C77.1073 64.579 80.5498 62.6515 78.941 60.0377C78.941 60.0377 77.6548 58.4327 76.2785 58.0202C76.2785 58.0202 77.0135 61.9202 76.2785 62.0102C75.5435 62.1002 75.7723 57.604 75.7723 57.604C75.7723 57.604 72.146 55.8602 70.7248 55.999C70.7248 55.999 72.9748 59.809 72.2398 59.7152C71.5048 59.6252 68.981 55.7702 68.981 55.7702C68.981 55.7702 65.2648 55.0802 64.6685 57.2852C64.0723 59.4902 65.036 60.589 65.5873 60.7277C66.1385 60.8665 69.671 60.8177 69.5773 61.279C69.4835 61.7402 67.0985 62.4715 65.7673 62.059C65.7673 62.059 67.2373 65.6852 69.161 65.5015C71.0885 65.3177 71.6848 64.1252 72.8773 64.0315C74.0698 63.9415 74.9435 64.2602 74.3473 64.5827C73.751 64.9052 71.7335 64.6877 70.7698 65.509C69.806 66.3302 69.026 66.8327 70.8148 67.2002C72.6035 67.5677 75.8173 67.339 76.4585 65.9627C77.1073 64.579 77.1073 64.579 77.1073 64.579Z"
          fill="#004C40"/>
    <path d="M66.3672 57.9717C66.3672 57.9717 76.0009 61.0917 77.1034 64.5792C77.1034 64.5792 77.0584 66.1392 78.0222 67.9279V68.6179C78.0222 68.6179 77.0134 66.2779 76.4622 65.9554C76.4622 65.9554 78.6184 62.9292 66.3672 57.9717Z"
          fill="#002A35"/>
    <path d="M78.0225 67.9314C78.0225 67.9314 79.5075 70.1889 78.66 72.9339L78.2775 72.8326C78.2775 72.8326 78.6487 69.8064 77.8725 68.2839C77.0962 66.7614 78.0225 67.9314 78.0225 67.9314Z"
          fill="#002A35"/>
    <path d="M81.0884 59.6548C81.0884 59.6548 76.0709 56.8461 78.4109 53.0323C78.4109 53.0323 80.2822 50.6923 82.2922 50.0886C82.2922 50.0886 81.2234 55.7736 82.2922 55.9086C83.3609 56.0436 83.0272 49.4886 83.0272 49.4886C83.0272 49.4886 88.3109 46.9461 90.3847 47.1486C90.3847 47.1486 87.1072 52.7023 88.1759 52.5673C89.2447 52.4323 92.9234 46.8148 92.9234 46.8148C92.9234 46.8148 98.3422 45.8098 99.2122 49.0236C100.082 52.2373 98.6759 53.8386 97.8734 54.0411C97.0709 54.2436 91.9184 54.1761 92.0534 54.8436C92.1884 55.5111 95.6647 56.5836 97.6072 55.9798C97.6072 55.9798 95.4659 61.2636 92.6572 60.9973C89.8484 60.7311 88.9784 58.9911 87.2384 58.8561C85.4984 58.7211 84.2272 59.1898 85.0972 59.6586C85.9672 60.1273 88.9109 59.8123 90.3134 61.0048C91.7197 62.1973 92.8559 62.9361 90.2459 63.4686C87.6359 64.0011 82.9559 63.6711 82.0184 61.6611C81.0809 59.6511 81.0884 59.6548 81.0884 59.6548Z"
          fill="#1E8161"/>
    <path d="M96.7413 50.0244C96.7413 50.0244 82.6937 54.5732 81.0887 59.6582C81.0887 59.6582 81.1562 61.9307 79.75 64.5407V65.5457C79.75 65.5457 81.22 62.1332 82.0225 61.6644C82.0225 61.6644 78.88 57.2469 96.7413 50.0244Z"
          fill="#002A35"/>
    <path d="M79.7492 64.5407C79.7492 64.5407 77.5817 67.8294 78.8192 71.8344L79.378 71.6844C79.378 71.6844 78.838 67.2744 79.9705 65.0544C81.0992 62.8382 79.7492 64.5407 79.7492 64.5407Z"
          fill="#002A35"/>
    <path d="M74.1461 68.1748C74.1461 68.1748 70.3623 53.681 70.0886 52.4623C69.9686 51.9185 69.5936 51.7235 69.2148 51.671C69.8786 51.6073 70.3623 51.6035 70.3623 51.6035C71.6711 51.6035 72.8336 52.4848 73.2536 53.7935C74.1686 56.651 75.9911 62.1373 77.7011 67.4998C77.6186 67.4998 74.1461 68.1748 74.1461 68.1748Z"
          fill="white"/>
    <path d="M77.5587 70.8898C77.3712 71.3323 75.5862 71.741 72.9387 72.101C72.47 72.1648 71.9787 72.2285 71.4613 72.2885C62.4425 73.3498 37.7487 73.9423 36.2263 73.631C34.1225 73.1998 29.9375 52.046 29.9375 52.046C29.9375 52.046 42.2638 51.8323 52.0512 51.7273C55.4 51.6935 67.0475 51.6035 69.2075 51.6035C72.5487 51.6035 77.8587 70.1735 77.5587 70.8898Z"
          fill="#F5F5F5"/>
    <path d="M97.0812 81.0825C96.4775 84.72 92.5325 87.0338 88.4863 87.0338H80.4688L81.0912 66.03C81.0912 66.03 88.745 63.5363 90.665 65.73C92.3487 67.6538 96.9125 75.27 97.1525 79.7738C97.175 80.2275 97.1487 80.6663 97.0812 81.0825Z"
          fill="white"/>
    <path d="M97.0795 81.0826C96.4758 84.7201 92.5308 87.0338 88.4845 87.0338H84.5508C87.172 85.3651 89.542 80.2126 97.0795 81.0826Z"
          fill="#1E8161"/>
    <path d="M75.7969 68.0888C75.7969 68.0888 86.6119 62.8988 88.6594 66.2888C89.7469 68.0888 92.7394 75.27 92.9606 79.7775C93.1744 84.1575 89.1394 87.0375 84.9881 87.0375H77.6156L75.7969 68.0888Z"
          fill="#BDE4E2"/>
    <path d="M90.0487 83.4191C89.9287 83.5166 89.805 83.6104 89.6812 83.7004C88.1175 84.8516 86.0812 85.7666 83.7525 86.3366C81.99 86.7641 80.0625 86.9966 78.045 86.9779H74.5387H74.49L57.8962 86.9816L48.3863 86.9854H48.2475V86.9816L47.9175 85.2566L44.9062 67.8491C44.9062 67.8491 86.5837 66.9116 89.9737 68.8466C91.5487 69.7429 92.4412 73.4666 92.9362 77.5654C93.195 79.7441 92.0812 81.7954 90.0487 83.4191Z"
          fill="#BDE4E2"/>
    <path d="M90.0491 83.4183C89.9291 83.5158 89.8053 83.6096 89.6816 83.6996C88.1178 84.8508 86.0816 85.7658 83.7528 86.3358C81.9903 86.7633 80.0628 86.9958 78.0453 86.9771H74.5391H74.4903L57.8966 86.9808L48.3866 86.9846L48.2441 86.9808L47.9141 85.2558C53.7453 84.1308 61.8116 82.9833 70.2266 83.0733C78.2628 83.1596 84.9941 83.1483 90.0491 83.4183Z"
          fill="#1E8161"/>
    <path d="M67.0305 51.9081C66.948 51.8819 66.8317 51.8144 66.7305 51.7544H68.9242C68.9242 51.7544 68.0805 51.2781 67.533 51.0344C66.9855 50.7906 65.643 51.0344 65.643 51.0344C65.643 51.0344 60.678 50.2956 57.8917 50.3631C57.1455 50.3819 51.8317 49.5156 50.3017 49.8231C49.4955 49.9844 48.7642 50.1119 48.2955 50.1906C48.0067 50.2356 47.7405 50.0294 47.718 49.7406V49.7369C47.6317 48.7319 47.5042 48.1694 47.5042 48.1694L45.6367 47.2656C45.2505 47.4719 44.8905 47.6631 44.6992 47.7644C44.7067 47.8694 44.7142 47.9706 44.718 48.0681C44.7367 48.5819 44.6805 49.0394 44.5905 49.4406C44.4217 50.1794 43.848 50.7606 43.113 50.9556L43.1055 50.9594C44.5042 52.1669 51.633 54.2669 51.753 53.6519C51.9142 52.8231 65.643 51.7544 65.643 51.7544C65.643 51.7544 66.0255 51.9006 66.1192 52.0356C66.213 52.1706 66.9817 52.1519 67.1242 52.1744C67.2667 52.1969 67.1992 51.9644 67.0305 51.9081Z"
          fill="#FCC8AF"/>
    <path d="M71.9008 82.3838C71.9008 82.3838 73.3483 84.9938 73.9896 85.29C74.4996 85.5225 75.8796 85.755 76.6446 86.3475C77.5371 87.0338 75.9921 86.9963 75.6546 86.9963C75.6546 86.9963 73.9296 86.79 73.1121 86.8088C72.6396 86.82 71.2371 86.9963 71.2371 86.9963C70.1308 86.9963 69.2871 85.9913 69.4971 84.9038C69.5008 84.8925 69.5008 84.885 69.5046 84.8738C69.7033 83.865 69.8608 82.5638 69.8608 82.5638L71.9008 82.3838Z"
          fill="#002A35"/>
    <path d="M53.8595 51.364C53.8295 52.0427 53.6383 52.789 53.0345 53.179C52.0783 53.7977 52.322 55.414 52.3258 56.0515L48.2383 50.1977C48.2383 50.1977 49.3708 49.909 50.7283 49.759C51.5533 49.669 53.7245 49.9165 53.7245 49.9165C53.7245 49.9165 53.8933 50.599 53.8595 51.364Z"
          fill="#BDE4E2"/>
    <path d="M65.58 83.4077C65.58 83.4077 67.0238 84.9977 67.665 85.2902C68.1225 85.5002 69.3563 85.624 70.0913 86.1565C70.8675 86.719 70.2713 86.9965 69.8213 86.9965C69.8213 86.9965 67.7588 87.1615 66.4463 86.7902C66.09 86.689 65.1075 86.8915 64.7588 86.9665C64.6538 86.989 63.9788 87.0452 63.87 87.0302C63.0675 86.929 63.0338 86.1602 63.1088 85.3352C63.1238 85.1815 63.1425 85.0277 63.1725 84.874C63.3713 83.8652 63.495 82.9277 63.495 82.9277L65.58 83.4077Z"
          fill="#004C40"/>
    <path d="M72.6874 82.5343C72.6874 82.5343 72.1661 82.8981 71.7086 83.0518C70.9886 83.2918 69.6424 83.1793 69.6424 83.1793C69.6424 83.1793 66.2074 76.5156 65.4836 74.8318C64.7974 73.2343 64.2199 69.7318 64.2199 69.7318C63.6949 69.7018 59.7724 70.2606 56.3261 69.8856C54.4924 69.6868 52.9399 69.2331 52.4149 68.3068C50.8999 65.6406 55.7374 62.6631 55.7374 62.6631C55.7374 62.6631 65.1986 64.3693 67.2761 65.8768C69.2486 67.3093 72.6874 82.5343 72.6874 82.5343Z"
          fill="#004C40"/>
    <path d="M66.092 83.3291C66.092 83.3291 65.357 83.7154 64.8807 83.7941C64.0145 83.9404 63.0845 83.6516 63.0845 83.6516C63.0845 83.6516 62.5557 80.4604 60.392 75.3529C59.8482 74.0704 59.9307 71.4454 59.8595 71.4116C59.8595 71.4116 48.0245 71.5129 46.652 68.8541C46.4307 68.4229 46.1795 67.2079 46.2095 66.8141C46.352 64.7141 49.082 63.9004 49.082 63.9004C49.082 63.9004 61.4195 66.0829 63.5345 67.5379C65.6495 68.9929 66.092 83.3291 66.092 83.3291Z"
          fill="#1E8161"/>
    <path d="M56.7364 62.7532C56.0164 64.0357 55.2701 65.052 52.5176 65.5282C49.0489 66.1282 47.1514 66.8632 46.1876 67.152C45.4526 67.3732 43.3414 64.6845 42.3364 62.2807C41.3614 59.9557 40.5326 56.3332 40.5251 56.052C40.4389 51.7357 43.7201 50.7007 43.7201 50.6895C43.7201 50.6895 46.1576 52.347 47.4851 51.7695C48.7939 51.2032 48.2539 50.2245 48.2389 50.1982L51.7564 53.652C51.7564 53.652 52.5476 56.682 53.5039 58.8832C54.9476 62.217 56.9314 62.4007 56.7364 62.7532Z"
          fill="#BDE4E2"/>
    <path d="M47.5073 48.1694C47.5073 48.1694 47.6311 48.7319 47.7211 49.7369C46.1348 49.6844 44.8786 48.0419 44.8711 47.9369C45.0623 47.8356 45.2536 47.4719 45.6398 47.2656L47.5073 48.1694Z"
          fill="#F3B99C"/>
    <path d="M47.8785 49.1817C47.8785 49.1817 44.541 49.088 44.6348 47.0105C44.7248 44.933 44.3573 43.523 46.491 43.4967C48.6248 43.4705 49.0035 44.2805 49.1423 44.9817C49.2773 45.6792 48.7485 49.1517 47.8785 49.1817Z"
          fill="#FCC8AF"/>
    <path d="M44.814 47.8466C44.814 47.8466 44.6827 47.1566 45.054 46.6991C45.054 46.6991 44.8102 46.0241 45.069 45.8704C45.3277 45.7166 45.4665 46.2941 45.579 46.1854C45.6915 46.0766 46.194 45.5629 46.3477 44.8841C46.5015 44.2091 48.8152 44.6816 49.089 44.7641C49.134 44.7791 49.194 44.7754 49.2615 44.7566C49.8427 44.6066 50.0152 43.8566 49.5652 43.4591C49.539 43.4366 49.5127 43.4104 49.4902 43.3879C49.2465 43.1404 47.5402 41.4791 45.594 42.2854C43.644 43.0916 43.5015 44.0966 43.7302 44.9066C43.959 45.7204 43.9477 47.6854 44.814 47.8466Z"
          fill="#002A35"/>
    <path d="M47.1758 47.9029C47.1758 47.9029 47.3933 48.2029 47.8433 48.2816C48.2933 48.3604 48.3945 48.0079 48.3945 48.0079C48.3945 48.0079 47.9783 47.8766 47.1758 47.9029Z"
          fill="white"/>
    <path d="M41.3524 53.0816C41.3524 53.0816 40.7787 54.2216 41.3149 56.3066C42.3724 60.4166 46.6174 63.7579 47.2324 63.4466C47.8474 63.1354 49.4562 63.1841 48.5862 61.3166C47.7162 59.4491 44.1912 52.5566 44.1912 52.5566L41.3524 53.0816Z"
          fill="#FCC8AF"/>
    <path d="M46.5094 57.0943C45.3994 57.713 44.5819 58.2118 42.8794 58.2043C41.5969 58.2005 40.5431 57.953 40.5431 57.953C40.5431 57.953 39.2269 52.6018 41.6869 51.4993C42.5344 51.1205 43.7231 50.6855 43.7231 50.6855C43.7231 50.6855 48.5006 55.9843 46.5094 57.0943Z"
          fill="#BDE4E2"/>
    <path d="M55.2421 61.7737C55.2421 61.7737 49.3096 61.14 48.5108 61.17C47.7158 61.2 46.9058 63.3412 47.0183 63.4537C47.1308 63.5662 49.5196 63.6825 50.9933 63.5775C52.6133 63.465 54.6796 62.94 54.6796 62.94L55.2421 61.7737Z"
          fill="#FCC8AF"/>
    <path d="M56.4741 81.1991C55.8253 84.7241 52.2553 86.9591 48.5991 86.9591H41.2266L41.8041 65.7679C41.8041 65.7679 48.8391 63.4579 50.6053 65.6554C52.1541 67.5791 56.3503 75.1954 56.5716 79.6991C56.5941 80.2204 56.5603 80.7229 56.4741 81.1991Z"
          fill="white"/>
    <path d="M56.4769 81.1992C55.8281 84.7242 52.2581 86.9592 48.6019 86.9592H42.7031C45.4631 85.2005 49.1831 80.3367 56.4769 81.1992Z"
          fill="#1E8161"/>
    <path d="M32.0401 87.0334C30.1914 87.0221 28.2039 86.6246 26.7001 85.4959C25.2376 84.3971 24.3714 82.7284 23.8426 81.0109C22.7176 77.3434 22.7476 73.3234 22.8714 69.5246C23.0026 65.4146 23.3739 61.3009 23.8501 57.2171C24.0076 55.8671 24.0526 54.1234 24.7501 52.9084C25.2976 51.9596 27.3451 51.6446 28.3314 51.6671C29.1526 51.6896 29.9476 52.3984 30.6414 52.8034C31.1064 53.0771 31.5714 53.3509 32.0364 53.6246C32.4901 53.8909 32.5051 54.3559 32.6626 54.8509C33.9901 59.0059 35.2951 63.1684 36.6376 67.3196C38.2164 66.6559 39.8214 66.0596 41.4751 65.6059C43.0276 65.1821 44.8051 64.7659 46.4176 65.1034C48.0939 65.4521 48.6039 67.0684 49.2151 68.4784C50.0251 70.3459 50.7264 72.2621 51.3039 74.2159C51.8664 76.1134 52.4289 78.1721 52.3839 80.1709C52.3426 81.9709 51.5176 83.6396 50.1826 84.8321C48.4801 86.3584 46.2414 87.0296 43.9989 87.0296C40.0164 87.0334 36.0264 87.0334 32.0401 87.0334Z"
          fill="#BDE4E2"/>
    <path d="M33.2164 68.1748C33.2164 68.1748 29.4327 53.681 29.1589 52.4623C29.0389 51.9185 28.6639 51.7235 28.2852 51.671C28.9489 51.6073 29.4327 51.6035 29.4327 51.6035C30.7414 51.6035 31.9039 52.4848 32.3239 53.7935C33.2389 56.651 34.9264 61.916 36.6364 67.2823C36.5539 67.2785 33.2164 68.1748 33.2164 68.1748Z"
          fill="white"/>
    <path d="M55.7184 64.6091H48.0234C48.0234 64.2716 48.2972 63.9941 48.6384 63.9941H55.7184V64.6091Z" fill="black"/>
    <path d="M55.6981 56.2275H67.5894L64.7394 64.6088H52.7656L55.6981 56.2275Z" fill="black"/>
    <path d="M67.7691 56.2275L64.9153 64.6088H52.9453L55.8741 56.2275H67.7691Z" fill="#002A35"/>
    <path d="M61.3541 60.341C61.2791 60.6598 60.9603 60.9223 60.6416 60.9223C60.3228 60.9223 60.1203 60.6635 60.1953 60.341C60.2703 60.0223 60.5891 59.7598 60.9078 59.7598C61.2303 59.7598 61.4291 60.0185 61.3541 60.341Z"
          fill="white"/>
    <path d="M36.2866 67.4027V67.9015C36.2866 68.0777 36.2303 68.2202 36.1628 68.2202H17.9753C17.9078 68.2202 17.8516 68.0777 17.8516 67.9015V67.4027C17.8516 67.2302 17.9078 67.084 17.9753 67.084H36.1591C36.2303 67.0877 36.2866 67.2302 36.2866 67.4027Z"
          fill="#002A35"/>
    <path d="M36.2872 67.4027V67.9015C36.2872 68.0777 36.2347 68.2202 36.1709 68.2202H21.7334C21.6697 68.2202 21.6172 68.0777 21.6172 67.9015V67.4027C21.6172 67.2302 21.6697 67.084 21.7334 67.084H36.1709C36.2347 67.0877 36.2872 67.2302 36.2872 67.4027Z"
          fill="#F5F5F5"/>
    <path d="M31.6847 68.2168H18.7734V87.0343H31.6847V68.2168Z" fill="#002A35"/>
    <path d="M35.3019 68.2168H22.3906V87.0343H35.3019V68.2168Z" fill="#F3F8FF"/>
    <path d="M34.6058 85.9953H23.082V68.749H34.6058V85.9953ZM23.2095 85.8715H34.482V68.8728H23.2095V85.8715Z"
          fill="#1E8161"/>
    <path d="M34.5445 74.4561H23.1445V74.5798H34.5445V74.4561Z" fill="#1E8161"/>
    <path d="M34.5445 80.2725H23.1445V80.3962H34.5445V80.2725Z" fill="#1E8161"/>
    <path d="M30.0134 69.8623H27.8984C27.7972 69.8623 27.7109 69.7798 27.7109 69.6748C27.7109 69.5736 27.7934 69.4873 27.8984 69.4873H30.0134C30.1147 69.4873 30.2009 69.5698 30.2009 69.6748C30.2009 69.7761 30.1184 69.8623 30.0134 69.8623Z"
          fill="#1E8161"/>
    <path d="M30.0134 75.5518H27.8984C27.7972 75.5518 27.7109 75.4693 27.7109 75.3643C27.7109 75.263 27.7934 75.1768 27.8984 75.1768H30.0134C30.1147 75.1768 30.2009 75.2593 30.2009 75.3643C30.2009 75.4655 30.1184 75.5518 30.0134 75.5518Z"
          fill="#1E8161"/>
    <path d="M30.0134 81.4805H27.8984C27.7972 81.4805 27.7109 81.398 27.7109 81.293C27.7109 81.1917 27.7934 81.1055 27.8984 81.1055H30.0134C30.1147 81.1055 30.2009 81.188 30.2009 81.293C30.2009 81.3942 30.1184 81.4805 30.0134 81.4805Z"
          fill="#1E8161"/>
    <path d="M65.9192 41.602L66.7629 44.5495C66.7742 44.5945 66.7779 44.6358 66.7779 44.6808C66.7667 44.8345 66.6617 44.9733 66.5042 45.0183L61.3892 46.4808C61.2317 46.5258 61.0667 46.462 60.9767 46.3345C60.9504 46.3008 60.9317 46.2633 60.9204 46.2183L60.0767 43.2745C60.0204 43.072 60.1367 42.862 60.3354 42.8058L65.4504 41.3433C65.6529 41.287 65.8629 41.4033 65.9192 41.602Z"
          fill="#BDE4E2"/>
    <path d="M66.7778 44.677C66.7666 44.8308 66.6616 44.9695 66.5041 45.0145L61.3891 46.477C61.2316 46.522 61.0666 46.4583 60.9766 46.3308L63.5828 43.957L66.7778 44.677Z"
          fill="#1E8161"/>
    <path d="M65.919 41.602L63.6278 44.4445L60.1178 43.4245L60.0728 43.2745C60.0165 43.072 60.1328 42.862 60.3315 42.8058L65.4465 41.3433C65.6528 41.287 65.8628 41.4033 65.919 41.602Z"
          fill="#F3F8FF"/>
    <path d="M23.4603 67.0881H19.6953V65.7568H23.4753C23.7678 65.7568 24.0078 65.9968 24.0078 66.2893V66.5443C24.0041 66.8443 23.7603 67.0881 23.4603 67.0881Z"
          fill="#F5F5F5"/>
    <path d="M27.2209 66.3039V66.5026C27.2209 66.6114 27.1909 66.7089 27.1422 66.7951C27.0409 66.9676 26.8534 67.0839 26.6397 67.0839H19.5784C19.5334 67.0839 19.4922 67.0464 19.4922 66.9976V66.9676C19.4922 66.9226 19.5297 66.8814 19.5784 66.8814H23.8834C23.9059 66.8551 23.9284 66.8214 23.9434 66.7914C23.9847 66.7164 24.0072 66.6301 24.0072 66.5364V66.2814C24.0072 66.2364 23.9997 66.1876 23.9884 66.1464C23.9697 66.0714 23.9359 66.0076 23.8872 65.9476H19.5784C19.5334 65.9476 19.4922 65.9101 19.4922 65.8614V65.8314C19.4922 65.7864 19.5297 65.7451 19.5784 65.7451H26.6734C26.9247 65.7451 27.1347 65.9139 27.1984 66.1426C27.2134 66.1989 27.2209 66.2514 27.2209 66.3039Z"
          fill="#1E8161"/>
    <path d="M27.1984 66.1503H23.9884C23.9697 66.0753 23.9359 66.0115 23.8872 65.9515H19.5784C19.5334 65.9515 19.4922 65.914 19.4922 65.8653V65.8353C19.4922 65.7903 19.5297 65.749 19.5784 65.749H26.6734C26.9209 65.7565 27.1347 65.9215 27.1984 66.1503Z"
          fill="#004C40"/>
    <path d="M19.6953 66.4199L20.2166 66.4424L19.6953 66.4574V66.4199Z" fill="#F4D2B8"/>
    <path d="M19.6953 66.6299L20.9366 66.6524L19.6953 66.6636V66.6299Z" fill="#F4D2B8"/>
    <path d="M23.9083 65.757H28.007V64.2383H23.8933C23.5633 64.2383 23.3008 64.5045 23.3008 64.8308V65.1495C23.3008 65.487 23.5708 65.757 23.9083 65.757Z"
          fill="#FFEBC2"/>
    <path d="M23.3931 64.8267V65.153C23.3931 65.2917 23.4719 65.4155 23.5844 65.4792C23.6406 65.5092 23.7044 65.528 23.7756 65.528H28.2269C28.2794 65.528 28.3206 65.5692 28.3206 65.6217V65.6592C28.3206 65.7117 28.2794 65.753 28.2269 65.753H20.5394C20.3181 65.753 20.1231 65.6442 20.0069 65.4755C19.9319 65.3705 19.8906 65.2392 19.8906 65.1005V64.8417C19.8906 64.748 19.9131 64.658 19.9506 64.5755C20.0481 64.3692 20.2581 64.2305 20.5019 64.2305H28.2269C28.2794 64.2305 28.3206 64.2717 28.3206 64.3242V64.3617C28.3206 64.4142 28.2794 64.4555 28.2269 64.4555H23.7644C23.6594 64.4555 23.5619 64.5005 23.4944 64.5717C23.4306 64.6467 23.3969 64.733 23.3931 64.8267Z"
          fill="#FFCB68"/>
    <path d="M28.0036 64.999L27.4336 65.0253L28.0036 65.0403V64.999Z" fill="#F4D2B8"/>
    <path d="M28.0022 64.6465L26.6484 64.6727L28.0022 64.6877V64.6465Z" fill="#F4D2B8"/>
    <path d="M26.6602 64.6689C26.6602 64.6689 26.7502 64.7177 26.7802 64.7964C26.7839 64.8114 26.7877 64.8264 26.7877 64.8414C26.7914 64.9464 26.7877 65.1864 26.7877 65.1864L27.0539 65.0664L27.3164 65.1864V64.8639C27.3164 64.8039 27.2939 64.7439 27.2527 64.7064C27.2339 64.6877 27.2077 64.6727 27.1814 64.6727L26.6602 64.6689Z"
          fill="white"/>
    <path d="M26.6602 64.6689C26.6602 64.6689 26.7502 64.7177 26.7802 64.7964L27.3089 64.8002C27.3089 64.8002 27.2864 64.6877 27.1777 64.6689H26.6602Z"
          fill="#FFCB68"/>
    <path d="M35.1067 63.8213H30.9292C30.918 63.9075 30.9105 63.9938 30.9105 64.0838V64.4888C30.633 64.4288 30.2467 64.3838 30.0517 64.5038C29.7217 64.71 29.823 65.31 30.1342 65.6775C30.4455 66.0488 31.4392 66.2925 31.4392 66.2925C31.7542 66.6488 32.1892 66.9 32.6805 66.9825C32.7892 67.0013 32.9017 67.0088 33.018 67.0088C34.1767 67.0088 35.1255 66.06 35.1255 64.9013V64.0875C35.1217 63.9975 35.118 63.9075 35.1067 63.8213ZM30.273 65.2613C30.138 64.9163 30.228 64.7888 30.378 64.7625C30.543 64.7325 30.7717 64.8488 30.918 65.0438C30.933 65.2875 30.993 65.52 31.0867 65.7375C30.8505 65.6813 30.378 65.535 30.273 65.2613Z"
          fill="#FFEBC2"/>
    <path d="M32.0039 67.0871H33.9164L33.8077 66.8284L32.0864 66.7646L32.0039 67.0871Z" fill="#FFEBC2"/>
    <path d="M32.7067 66.7875C31.443 65.325 31.7167 64.6163 31.9417 63.8213H30.9292C30.918 63.9075 30.9105 63.9938 30.9105 64.0838V64.4888C30.633 64.4288 30.2467 64.3838 30.0517 64.5038C29.7217 64.71 29.823 65.31 30.1342 65.6775C30.4455 66.0488 31.4392 66.2925 31.4392 66.2925C31.6192 66.495 31.8367 66.6638 32.0842 66.7875L32.0055 67.0838H32.6542L32.673 66.9788C32.6767 66.9788 32.6767 66.9788 32.6805 66.9788L32.7067 66.7875ZM30.273 65.2613C30.138 64.9163 30.228 64.7888 30.378 64.7625C30.543 64.7325 30.7717 64.8488 30.918 65.0438C30.933 65.2875 30.993 65.52 31.0867 65.7375C30.8505 65.6813 30.378 65.535 30.273 65.2613Z"
          fill="#FFCB68"/>
    <path d="M25.112 37.0234H34.472C35.2183 37.0234 35.8295 37.6347 35.8295 38.3809V42.4872C35.8295 43.1734 35.267 43.7322 34.5845 43.7322H34.3445L34.7945 45.6372L31.9633 43.7322H25.0295C24.2833 43.7322 23.6758 43.1209 23.6758 42.3784V38.4597C23.6758 37.6684 24.3208 37.0234 25.112 37.0234Z"
          fill="#FFCB68"/>
    <path d="M25.2295 40.6537H33.7607C33.877 40.6537 33.9745 40.5563 33.9745 40.44V40.4325C33.9745 40.3162 33.877 40.2188 33.7607 40.2188H25.2295C25.1132 40.2188 25.0157 40.3162 25.0157 40.4325V40.44C25.012 40.56 25.1095 40.6537 25.2295 40.6537Z"
          fill="white"/>
    <path d="M25.158 41.6331H28.9717C29.0505 41.6331 29.118 41.5693 29.118 41.4868V41.3406C29.118 41.2618 29.0542 41.1943 28.9717 41.1943H25.158C25.0792 41.1943 25.0117 41.2581 25.0117 41.3406V41.4868C25.0117 41.5656 25.0792 41.6331 25.158 41.6331Z"
          fill="white"/>
    <path d="M29.6625 41.6332H32.985C33.06 41.6332 33.12 41.5732 33.12 41.4982V41.3332C33.12 41.2582 33.06 41.1982 32.985 41.1982H29.6625C29.5875 41.1982 29.5275 41.2582 29.5275 41.3332V41.4982C29.5238 41.5695 29.5875 41.6332 29.6625 41.6332Z"
          fill="white"/>
    <path d="M27.8114 38.8953H30.8714C30.9877 38.8953 31.0852 38.7978 31.0852 38.6815C31.0852 38.5653 30.9877 38.4678 30.8714 38.4678H27.8114C27.6952 38.4678 27.5977 38.5653 27.5977 38.6815C27.5977 38.8015 27.6952 38.8953 27.8114 38.8953Z"
          fill="white"/>
    <path d="M25.1805 38.8953H27.0217C27.1155 38.8953 27.1905 38.8203 27.1905 38.7265V38.6365C27.1905 38.5428 27.1155 38.4678 27.0217 38.4678H25.1805C25.0867 38.4678 25.0117 38.5428 25.0117 38.6365V38.7265C25.0117 38.8203 25.0867 38.8953 25.1805 38.8953Z"
          fill="white"/>
</svg>
