<svg width="100%" height="100%" viewBox="0 0 99 25" fill="none" xmlns="http://www.w3.org/2000/svg">
    <path d="M11.18 5.818C11.8907 5.818 12.506 5.95667 13.026 6.234C13.546 6.494 13.9273 6.89267 14.17 7.43C14.4127 7.96733 14.482 8.64333 14.378 9.458L13.026 19H9.152L10.348 10.628C10.4347 10.0387 10.4 9.63133 10.244 9.406C10.1053 9.16333 9.79333 9.05067 9.308 9.068C8.736 9.08533 8.12933 9.26733 7.488 9.614C6.864 9.96067 6.10133 10.498 5.2 11.226L4.758 9.276C5.78067 8.184 6.838 7.33467 7.93 6.728C9.03933 6.12133 10.1227 5.818 11.18 5.818ZM5.304 6.156V9.536L5.616 9.9L4.342 19H0.494L2.288 6.156H5.304ZM24.0145 5.818C25.5918 5.818 26.8051 5.99133 27.6545 6.338C28.5211 6.66733 29.1018 7.17 29.3965 7.846C29.6911 8.50467 29.7605 9.31933 29.6045 10.29C29.4831 11.0873 29.2145 11.72 28.7985 12.188C28.3998 12.6387 27.8451 12.9767 27.1345 13.202C26.4238 13.4273 25.5225 13.5833 24.4305 13.67L17.8785 14.216L18.1645 12.084L23.6765 11.538C24.1445 11.486 24.5258 11.4167 24.8205 11.33C25.1325 11.226 25.3751 11.07 25.5485 10.862C25.7218 10.6367 25.8345 10.3247 25.8865 9.926C25.9558 9.51 25.9298 9.198 25.8085 8.99C25.6871 8.782 25.4705 8.652 25.1585 8.6C24.8465 8.53067 24.4305 8.50467 23.9105 8.522C23.3731 8.522 22.9225 8.574 22.5585 8.678C22.1945 8.782 21.8911 8.97267 21.6485 9.25C21.4058 9.51 21.2065 9.89133 21.0505 10.394C20.8945 10.8793 20.7471 11.512 20.6085 12.292C20.4351 13.4187 20.4091 14.268 20.5305 14.84C20.6518 15.412 20.9205 15.7933 21.3365 15.984C21.7525 16.1747 22.3331 16.27 23.0785 16.27C23.4945 16.27 23.9971 16.2613 24.5865 16.244C25.1758 16.2093 25.7738 16.1747 26.3805 16.14C27.0045 16.088 27.5678 16.036 28.0705 15.984L28.3305 18.376C27.8105 18.6013 27.2211 18.7833 26.5625 18.922C25.9038 19.0607 25.2365 19.156 24.5605 19.208C23.8845 19.2773 23.2518 19.312 22.6625 19.312C20.9465 19.312 19.6118 19.052 18.6585 18.532C17.7225 18.012 17.0985 17.2407 16.7865 16.218C16.4745 15.178 16.4051 13.904 16.5785 12.396C16.7345 11.0613 16.9945 9.96933 17.3585 9.12C17.7398 8.27067 18.2251 7.612 18.8145 7.144C19.4211 6.65867 20.1578 6.32067 21.0245 6.13C21.8911 5.922 22.8878 5.818 24.0145 5.818ZM37.2602 5.818C38.4389 5.818 39.5916 5.896 40.7182 6.052C41.8449 6.208 42.7722 6.45067 43.5002 6.78L42.9542 8.444C42.1742 8.42667 41.4636 8.418 40.8222 8.418C40.1809 8.40067 39.5309 8.392 38.8722 8.392C38.2656 8.392 37.7542 8.444 37.3382 8.548C36.9396 8.63467 36.6189 8.81667 36.3762 9.094C36.1336 9.354 35.9342 9.744 35.7782 10.264C35.6222 10.784 35.4836 11.4773 35.3622 12.344C35.2409 13.2627 35.1802 13.9993 35.1802 14.554C35.1802 15.0913 35.2756 15.4813 35.4662 15.724C35.6569 15.9667 35.9776 16.088 36.4282 16.088C37.1736 16.0707 37.8756 15.8453 38.5342 15.412C39.2102 14.9787 39.9382 14.398 40.7182 13.67L41.4202 15.334C41.1602 15.6807 40.8136 16.0793 40.3802 16.53C39.9642 16.9807 39.4702 17.4227 38.8982 17.856C38.3436 18.272 37.7369 18.6187 37.0782 18.896C36.4196 19.1733 35.7176 19.312 34.9722 19.312C34.0016 19.312 33.2129 19.078 32.6062 18.61C32.0169 18.1247 31.6182 17.3707 31.4102 16.348C31.2196 15.308 31.2369 13.9647 31.4622 12.318C31.6529 10.966 31.9129 9.86533 32.2422 9.016C32.5889 8.14933 33.0049 7.49067 33.4902 7.04C33.9929 6.572 34.5562 6.25133 35.1802 6.078C35.8042 5.90467 36.4976 5.818 37.2602 5.818ZM45.8922 0.799999L43.3442 19H40.3022V15.828L39.9642 15.594L41.1602 6.702L41.3942 6.286C41.3942 5.83533 41.4116 5.39333 41.4462 4.96C41.4809 4.52667 41.5329 4.06733 41.6022 3.582L42.0442 0.799999H45.8922ZM60.7831 6.156C60.6618 6.91867 60.4971 7.69 60.2891 8.47C60.0811 9.25 59.8645 9.99533 59.6391 10.706C59.4138 11.3993 59.1798 12.0407 58.9371 12.63C58.5731 13.618 58.1918 14.4933 57.7931 15.256C57.4118 16.0187 57.0911 16.5907 56.8311 16.972C56.5191 17.5093 56.1811 17.9253 55.8171 18.22C55.4705 18.5147 55.0805 18.7227 54.6471 18.844C54.2138 18.948 53.6851 19 53.0611 19H50.1491C49.8545 19 49.5945 18.9047 49.3691 18.714C49.1611 18.5233 49.0398 18.2893 49.0051 18.012L47.0811 6.156H51.2411L52.1771 16.478H52.4891C52.8358 16.478 53.0958 16.4 53.2691 16.244C53.4598 16.088 53.6765 15.7673 53.9191 15.282C54.1271 14.8833 54.3525 14.398 54.5951 13.826C54.8551 13.254 55.1151 12.5607 55.3751 11.746C55.7045 10.7407 55.9645 9.77867 56.1551 8.86C56.3458 7.94133 56.5105 7.04 56.6491 6.156H60.7831ZM67.2399 6.156L65.4459 19H61.6239L63.4179 6.156H67.2399ZM66.8499 0.488C67.2659 0.488 67.5605 0.591999 67.7339 0.799999C67.9245 1.008 67.9939 1.32 67.9419 1.736L67.7599 3.114C67.6559 3.842 67.2312 4.206 66.4859 4.206H64.9259C64.0939 4.206 63.7212 3.79 63.8079 2.958L64.0159 1.58C64.0852 0.852 64.5012 0.488 65.2639 0.488H66.8499ZM79.184 6.312L82.98 6.546L81.394 17.7C81.2207 18.9827 80.9174 20.0487 80.484 20.898C80.0507 21.7647 79.496 22.4493 78.82 22.952C78.1614 23.472 77.39 23.836 76.506 24.044C75.6394 24.252 74.686 24.3647 73.646 24.382C73.3514 24.382 72.9007 24.3733 72.294 24.356C71.7047 24.3387 71.072 24.278 70.396 24.174C69.72 24.07 69.1134 23.9227 68.576 23.732L68.81 21.522C69.122 21.522 69.434 21.522 69.746 21.522C70.0754 21.5393 70.4567 21.548 70.89 21.548C71.3234 21.548 71.8607 21.5393 72.502 21.522C73.7327 21.5047 74.79 21.314 75.674 20.95C76.5754 20.586 77.1907 19.936 77.52 19C77.728 18.4627 77.884 17.9427 77.988 17.44C78.1094 16.9373 78.3 16.4607 78.56 16.01L77.832 15.724L79.184 6.312ZM75.934 5.818C76.8354 5.818 77.728 5.85267 78.612 5.922C79.5134 5.99133 80.3367 6.08667 81.082 6.208C81.8447 6.312 82.4687 6.42467 82.954 6.546L80.354 8.626C79.6434 8.59133 78.9934 8.574 78.404 8.574C77.832 8.55667 77.286 8.548 76.766 8.548C76.1247 8.548 75.596 8.6 75.18 8.704C74.7814 8.808 74.4607 8.99867 74.218 9.276C73.9754 9.536 73.776 9.91733 73.62 10.42C73.4814 10.9053 73.3514 11.5467 73.23 12.344C73.0567 13.4013 72.97 14.2247 72.97 14.814C72.9874 15.386 73.1 15.776 73.308 15.984C73.5334 16.192 73.8627 16.2787 74.296 16.244C74.7814 16.2093 75.2754 16.0533 75.778 15.776C76.2807 15.4813 76.7834 15.0827 77.286 14.58C77.7887 14.0773 78.2827 13.4967 78.768 12.838L79.444 14.06C79.0974 15.0653 78.6034 15.9493 77.962 16.712C77.3207 17.4573 76.5667 18.0467 75.7 18.48C74.8334 18.9133 73.88 19.1473 72.84 19.182C71.7654 19.1993 70.9247 18.974 70.318 18.506C69.7287 18.0207 69.356 17.2667 69.2 16.244C69.044 15.204 69.0874 13.8953 69.33 12.318C69.5554 10.8273 69.8587 9.64867 70.24 8.782C70.6214 7.91533 71.0807 7.274 71.618 6.858C72.1727 6.42467 72.8054 6.14733 73.516 6.026C74.244 5.88733 75.05 5.818 75.934 5.818ZM92.3837 5.818C92.8344 5.818 93.337 5.844 93.8917 5.896C94.4637 5.93067 95.0357 5.98267 95.6077 6.052C96.197 6.12133 96.743 6.19933 97.2457 6.286C97.7657 6.37267 98.1904 6.45933 98.5197 6.546L95.8937 8.626C95.2004 8.59133 94.5677 8.574 93.9957 8.574C93.4237 8.55667 92.8864 8.548 92.3837 8.548C91.8117 8.548 91.3264 8.59133 90.9277 8.678C90.529 8.76467 90.1997 8.938 89.9397 9.198C89.6797 9.44067 89.463 9.81333 89.2897 10.316C89.1164 10.8187 88.969 11.4947 88.8477 12.344C88.6917 13.4187 88.605 14.242 88.5877 14.814C88.5877 15.3687 88.6917 15.75 88.8997 15.958C89.1077 16.166 89.437 16.2613 89.8877 16.244C90.3557 16.2267 90.841 16.0707 91.3437 15.776C91.8637 15.4813 92.375 15.0827 92.8777 14.58C93.3804 14.06 93.8657 13.4793 94.3337 12.838L95.0097 14.086C94.663 15.1087 94.169 16.01 93.5277 16.79C92.9037 17.5527 92.167 18.1507 91.3177 18.584C90.4684 19.0173 89.5237 19.26 88.4837 19.312C87.357 19.364 86.4904 19.1387 85.8837 18.636C85.2944 18.1333 84.9304 17.3533 84.7917 16.296C84.653 15.2387 84.705 13.9127 84.9477 12.318C85.173 10.8447 85.485 9.67467 85.8837 8.808C86.2997 7.924 86.8197 7.274 87.4437 6.858C88.0677 6.42467 88.787 6.14733 89.6017 6.026C90.4337 5.88733 91.361 5.818 92.3837 5.818ZM94.7237 6.312L98.5197 6.546L96.7777 19H93.7877L93.8397 16.088L93.3717 15.776L94.7237 6.312Z" fill="black"/>
</svg>