<svg width="100%" height="100%" viewBox="0 0 147 26" fill="none" xmlns="http://www.w3.org/2000/svg">
    <path d="M12.04 5.804C12.8053 5.804 13.468 5.95333 14.028 6.252C14.588 6.532 14.9987 6.96133 15.26 7.54C15.5213 8.11867 15.596 8.84667 15.484 9.724L14.028 20H9.856L11.144 10.984C11.2373 10.3493 11.2 9.91067 11.032 9.668C10.8827 9.40667 10.5467 9.28533 10.024 9.304C9.408 9.32267 8.75467 9.51867 8.064 9.892C7.392 10.2653 6.57067 10.844 5.6 11.628L5.124 9.528C6.22533 8.352 7.364 7.43733 8.54 6.784C9.73467 6.13067 10.9013 5.804 12.04 5.804ZM5.712 6.168V9.808L6.048 10.2L4.676 20H0.532L2.464 6.168H5.712ZM25.8617 5.804C27.5604 5.804 28.8671 5.99067 29.7817 6.364C30.7151 6.71867 31.3404 7.26 31.6577 7.988C31.9751 8.69733 32.0497 9.57467 31.8817 10.62C31.7511 11.4787 31.4617 12.16 31.0137 12.664C30.5844 13.1493 29.9871 13.5133 29.2217 13.756C28.4564 13.9987 27.4857 14.1667 26.3097 14.26L19.2537 14.848L19.5617 12.552L25.4977 11.964C26.0017 11.908 26.4124 11.8333 26.7297 11.74C27.0657 11.628 27.3271 11.46 27.5137 11.236C27.7004 10.9933 27.8217 10.6573 27.8777 10.228C27.9524 9.78 27.9244 9.444 27.7937 9.22C27.6631 8.996 27.4297 8.856 27.0937 8.8C26.7577 8.72533 26.3097 8.69733 25.7497 8.716C25.1711 8.716 24.6857 8.772 24.2937 8.884C23.9017 8.996 23.5751 9.20133 23.3137 9.5C23.0524 9.78 22.8377 10.1907 22.6697 10.732C22.5017 11.2547 22.3431 11.936 22.1937 12.776C22.0071 13.9893 21.9791 14.904 22.1097 15.52C22.2404 16.136 22.5297 16.5467 22.9777 16.752C23.4257 16.9573 24.0511 17.06 24.8537 17.06C25.3017 17.06 25.8431 17.0507 26.4777 17.032C27.1124 16.9947 27.7564 16.9573 28.4097 16.92C29.0817 16.864 29.6884 16.808 30.2297 16.752L30.5097 19.328C29.9497 19.5707 29.3151 19.7667 28.6057 19.916C27.8964 20.0653 27.1777 20.168 26.4497 20.224C25.7217 20.2987 25.0404 20.336 24.4057 20.336C22.5577 20.336 21.1204 20.056 20.0937 19.496C19.0857 18.936 18.4137 18.1053 18.0777 17.004C17.7417 15.884 17.6671 14.512 17.8537 12.888C18.0217 11.4507 18.3017 10.2747 18.6937 9.36C19.1044 8.44533 19.6271 7.736 20.2617 7.232C20.9151 6.70933 21.7084 6.34533 22.6417 6.14C23.5751 5.916 24.6484 5.804 25.8617 5.804ZM40.1264 5.804C41.3957 5.804 42.6371 5.888 43.8504 6.056C45.0637 6.224 46.0624 6.48533 46.8464 6.84L46.2584 8.632C45.4184 8.61333 44.6531 8.604 43.9624 8.604C43.2717 8.58533 42.5717 8.576 41.8624 8.576C41.2091 8.576 40.6584 8.632 40.2104 8.744C39.7811 8.83733 39.4357 9.03333 39.1744 9.332C38.9131 9.612 38.6984 10.032 38.5304 10.592C38.3624 11.152 38.2131 11.8987 38.0824 12.832C37.9517 13.8213 37.8864 14.6147 37.8864 15.212C37.8864 15.7907 37.9891 16.2107 38.1944 16.472C38.3997 16.7333 38.7451 16.864 39.2304 16.864C40.0331 16.8453 40.7891 16.6027 41.4984 16.136C42.2264 15.6693 43.0104 15.044 43.8504 14.26L44.6064 16.052C44.3264 16.4253 43.9531 16.8547 43.4864 17.34C43.0384 17.8253 42.5064 18.3013 41.8904 18.768C41.2931 19.216 40.6397 19.5893 39.9304 19.888C39.2211 20.1867 38.4651 20.336 37.6624 20.336C36.6171 20.336 35.7677 20.084 35.1144 19.58C34.4797 19.0573 34.0504 18.2453 33.8264 17.144C33.6211 16.024 33.6397 14.5773 33.8824 12.804C34.0877 11.348 34.3677 10.1627 34.7224 9.248C35.0957 8.31467 35.5437 7.60533 36.0664 7.12C36.6077 6.616 37.2144 6.27067 37.8864 6.084C38.5584 5.89733 39.3051 5.804 40.1264 5.804ZM49.4224 0.399999L46.6784 20H43.4024V16.584L43.0384 16.332L44.3264 6.756L44.5784 6.308C44.5784 5.82267 44.5971 5.34667 44.6344 4.88C44.6717 4.41333 44.7277 3.91867 44.8024 3.396L45.2784 0.399999H49.4224ZM65.4587 6.168C65.3281 6.98933 65.1507 7.82 64.9267 8.66C64.7027 9.5 64.4694 10.3027 64.2267 11.068C63.9841 11.8147 63.7321 12.5053 63.4707 13.14C63.0787 14.204 62.6681 15.1467 62.2387 15.968C61.8281 16.7893 61.4827 17.4053 61.2027 17.816C60.8667 18.3947 60.5027 18.8427 60.1107 19.16C59.7374 19.4773 59.3174 19.7013 58.8507 19.832C58.3841 19.944 57.8147 20 57.1427 20H54.0067C53.6894 20 53.4094 19.8973 53.1667 19.692C52.9427 19.4867 52.8121 19.2347 52.7747 18.936L50.7027 6.168H55.1827L56.1907 17.284H56.5267C56.9001 17.284 57.1801 17.2 57.3667 17.032C57.5721 16.864 57.8054 16.5187 58.0667 15.996C58.2907 15.5667 58.5334 15.044 58.7947 14.428C59.0747 13.812 59.3547 13.0653 59.6347 12.188C59.9894 11.1053 60.2694 10.0693 60.4747 9.08C60.6801 8.09067 60.8574 7.12 61.0067 6.168H65.4587ZM72.4122 6.168L70.4802 20H66.3642L68.2962 6.168H72.4122ZM71.9922 0.0639997C72.4402 0.0639997 72.7575 0.175999 72.9442 0.399999C73.1495 0.623999 73.2242 0.959999 73.1682 1.408L72.9722 2.892C72.8602 3.676 72.4028 4.068 71.6002 4.068H69.9202C69.0242 4.068 68.6228 3.62 68.7162 2.724L68.9402 1.24C69.0148 0.456 69.4628 0.0639997 70.2842 0.0639997H71.9922ZM85.2751 6.336L89.3631 6.588L87.6551 18.6C87.4684 19.9813 87.1418 21.1293 86.6751 22.044C86.2084 22.9773 85.6111 23.7147 84.8831 24.256C84.1738 24.816 83.3431 25.208 82.3911 25.432C81.4578 25.656 80.4311 25.7773 79.3111 25.796C78.9938 25.796 78.5084 25.7867 77.8551 25.768C77.2204 25.7493 76.5391 25.684 75.8111 25.572C75.0831 25.46 74.4298 25.3013 73.8511 25.096L74.1031 22.716C74.4391 22.716 74.7751 22.716 75.1111 22.716C75.4658 22.7347 75.8764 22.744 76.3431 22.744C76.8098 22.744 77.3884 22.7347 78.0791 22.716C79.4044 22.6973 80.5431 22.492 81.4951 22.1C82.4658 21.708 83.1284 21.008 83.4831 20C83.7071 19.4213 83.8751 18.8613 83.9871 18.32C84.1178 17.7787 84.3231 17.2653 84.6031 16.78L83.8191 16.472L85.2751 6.336ZM81.7751 5.804C82.7458 5.804 83.7071 5.84133 84.6591 5.916C85.6298 5.99067 86.5164 6.09333 87.3191 6.224C88.1404 6.336 88.8124 6.45733 89.3351 6.588L86.5351 8.828C85.7698 8.79067 85.0698 8.772 84.4351 8.772C83.8191 8.75333 83.2311 8.744 82.6711 8.744C81.9804 8.744 81.4111 8.8 80.9631 8.912C80.5338 9.024 80.1884 9.22933 79.9271 9.528C79.6658 9.808 79.4511 10.2187 79.2831 10.76C79.1338 11.2827 78.9938 11.9733 78.8631 12.832C78.6764 13.9707 78.5831 14.8573 78.5831 15.492C78.6018 16.108 78.7231 16.528 78.9471 16.752C79.1898 16.976 79.5444 17.0693 80.0111 17.032C80.5338 16.9947 81.0658 16.8267 81.6071 16.528C82.1484 16.2107 82.6898 15.7813 83.2311 15.24C83.7724 14.6987 84.3044 14.0733 84.8271 13.364L85.5551 14.68C85.1818 15.7627 84.6498 16.7147 83.9591 17.536C83.2684 18.3387 82.4564 18.9733 81.5231 19.44C80.5898 19.9067 79.5631 20.1587 78.4431 20.196C77.2858 20.2147 76.3804 19.972 75.7271 19.468C75.0924 18.9453 74.6911 18.1333 74.5231 17.032C74.3551 15.912 74.4018 14.5027 74.6631 12.804C74.9058 11.1987 75.2324 9.92933 75.6431 8.996C76.0538 8.06267 76.5484 7.372 77.1271 6.924C77.7244 6.45733 78.4058 6.15867 79.1711 6.028C79.9551 5.87867 80.8231 5.804 81.7751 5.804ZM99.4901 5.804C99.9755 5.804 100.517 5.832 101.114 5.888C101.73 5.92533 102.346 5.98133 102.962 6.056C103.597 6.13067 104.185 6.21467 104.726 6.308C105.286 6.40133 105.743 6.49467 106.098 6.588L103.27 8.828C102.523 8.79067 101.842 8.772 101.226 8.772C100.61 8.75333 100.031 8.744 99.4901 8.744C98.8741 8.744 98.3515 8.79067 97.9221 8.884C97.4928 8.97733 97.1381 9.164 96.8581 9.444C96.5781 9.70533 96.3448 10.1067 96.1581 10.648C95.9715 11.1893 95.8128 11.9173 95.6821 12.832C95.5141 13.9893 95.4208 14.876 95.4021 15.492C95.4021 16.0893 95.5141 16.5 95.7381 16.724C95.9621 16.948 96.3168 17.0507 96.8021 17.032C97.3061 17.0133 97.8288 16.8453 98.3701 16.528C98.9301 16.2107 99.4808 15.7813 100.022 15.24C100.563 14.68 101.086 14.0547 101.59 13.364L102.318 14.708C101.945 15.8093 101.413 16.78 100.722 17.62C100.05 18.4413 99.2568 19.0853 98.3421 19.552C97.4275 20.0187 96.4101 20.28 95.2901 20.336C94.0768 20.392 93.1435 20.1493 92.4901 19.608C91.8555 19.0667 91.4635 18.2267 91.3141 17.088C91.1648 15.9493 91.2208 14.5213 91.4821 12.804C91.7248 11.2173 92.0608 9.95733 92.4901 9.024C92.9381 8.072 93.4981 7.372 94.1701 6.924C94.8421 6.45733 95.6168 6.15867 96.4941 6.028C97.3901 5.87867 98.3888 5.804 99.4901 5.804ZM102.01 6.336L106.098 6.588L104.222 20H101.002L101.058 16.864L100.554 16.528L102.01 6.336ZM110.376 15.744C110.88 15.744 111.253 15.8747 111.496 16.136C111.738 16.3787 111.822 16.7613 111.748 17.284L111.58 18.628C111.524 19.0947 111.365 19.44 111.104 19.664C110.861 19.888 110.488 20 109.984 20H109.032C107.968 20 107.501 19.4867 107.632 18.46L107.8 17.116C107.93 16.2013 108.472 15.744 109.424 15.744H110.376ZM125.502 5.804C126.604 5.804 127.472 6.04667 128.106 6.532C128.76 7.01733 129.189 7.80133 129.394 8.884C129.6 9.96667 129.572 11.404 129.31 13.196C129.124 14.428 128.862 15.492 128.526 16.388C128.19 17.284 127.733 18.0307 127.154 18.628C126.594 19.2067 125.885 19.636 125.026 19.916C124.186 20.196 123.16 20.336 121.946 20.336C121.424 20.336 120.826 20.308 120.154 20.252C119.501 20.2147 118.829 20.1493 118.138 20.056C117.448 19.9627 116.794 19.8507 116.178 19.72C115.581 19.5893 115.058 19.4307 114.61 19.244L117.634 17.088C118.045 17.144 118.484 17.2 118.95 17.256C119.436 17.2933 119.893 17.3307 120.322 17.368C120.752 17.3867 121.097 17.3867 121.358 17.368C122.012 17.368 122.544 17.312 122.954 17.2C123.365 17.0693 123.701 16.8453 123.962 16.528C124.242 16.2107 124.466 15.7627 124.634 15.184C124.802 14.5867 124.952 13.8213 125.082 12.888C125.25 11.8613 125.316 11.0773 125.278 10.536C125.26 9.99467 125.138 9.63067 124.914 9.444C124.69 9.23867 124.345 9.136 123.878 9.136C123.206 9.136 122.478 9.36933 121.694 9.836C120.929 10.284 120.098 10.8907 119.202 11.656L118.586 10.2C118.941 9.65867 119.37 9.12667 119.874 8.604C120.397 8.08133 120.957 7.61467 121.554 7.204C122.152 6.77467 122.786 6.43867 123.458 6.196C124.13 5.93467 124.812 5.804 125.502 5.804ZM121.414 0.399999L120.798 4.936C120.724 5.608 120.612 6.24267 120.462 6.84C120.332 7.43733 120.145 8.05333 119.902 8.688L120.238 8.968L118.754 19.44L114.61 19.244L117.27 0.399999H121.414ZM146.779 6.168C146.629 7.08267 146.424 8.016 146.163 8.968C145.92 9.92 145.64 10.8627 145.323 11.796C145.005 12.7293 144.669 13.6253 144.315 14.484C143.979 15.324 143.633 16.108 143.279 16.836C142.943 17.564 142.607 18.208 142.271 18.768C141.337 20.3733 140.367 21.68 139.359 22.688C138.351 23.696 137.268 24.4427 136.111 24.928C134.953 25.4133 133.684 25.6933 132.303 25.768L131.883 23.332C132.573 23.1267 133.227 22.8933 133.843 22.632C134.459 22.3893 135.047 22.0627 135.607 21.652C136.185 21.2413 136.745 20.6907 137.287 20C137.828 19.2907 138.369 18.3853 138.911 17.284C139.471 16.1827 139.956 15.0813 140.367 13.98C140.796 12.8787 141.169 11.6933 141.487 10.424C141.823 9.15467 142.121 7.736 142.383 6.168H146.779ZM136.167 6.168L137.343 16.808C137.399 17.1253 137.585 17.284 137.903 17.284H139.471L138.351 20H135.523C135.093 20 134.729 19.8693 134.431 19.608C134.132 19.3467 133.945 19.02 133.871 18.628L131.687 6.168H136.167Z" fill="white"/>
</svg>