<svg width="100%" height="100%" viewBox="0 0 21 22" fill="none" xmlns="http://www.w3.org/2000/svg">
    <g clipPath="url(#clip0_3643_21063-431456)">
        <path d="M19.1598 21.5H1.84021C1.35232 21.4995 0.884568 21.3054 0.539579 20.9604C0.19459 20.6154 0.000538653 20.1477 0 19.6598L0 2.34021C0.000538653 1.85232 0.19459 1.38457 0.539579 1.03958C0.884568 0.69459 1.35232 0.500539 1.84021 0.5L12.232 0.5C12.3755 0.5 12.5132 0.557023 12.6147 0.658525C12.7162 0.760026 12.7732 0.897692 12.7732 1.04124C12.7732 1.18478 12.7162 1.32245 12.6147 1.42395C12.5132 1.52545 12.3755 1.58247 12.232 1.58247H1.84021C1.63932 1.58273 1.44673 1.66264 1.30469 1.80469C1.16264 1.94673 1.08273 2.13932 1.08247 2.34021V19.6598C1.08273 19.8607 1.16264 20.0533 1.30469 20.1953C1.44673 20.3374 1.63932 20.4173 1.84021 20.4175H19.1598C19.3607 20.4173 19.5533 20.3374 19.6953 20.1953C19.8374 20.0533 19.9173 19.8607 19.9175 19.6598V9.70103C19.9175 9.55749 19.9745 9.41982 20.076 9.31832C20.1776 9.21682 20.3152 9.15979 20.4588 9.15979C20.6023 9.15979 20.74 9.21682 20.8415 9.31832C20.943 9.41982 21 9.55749 21 9.70103V19.6598C20.9995 20.1477 20.8054 20.6154 20.4604 20.9604C20.1154 21.3054 19.6477 21.4995 19.1598 21.5Z"
              fill="#1C7F62"/>
        <path d="M3.57246 18.0361C3.53956 18.0361 3.50673 18.0332 3.47434 18.0274C3.34982 18.0045 3.23727 17.9387 3.15627 17.8414C3.07527 17.7441 3.03094 17.6214 3.03101 17.4948C3.03101 4.56602 13.1158 2.90741 15.5877 2.69581V1.04123C15.5877 0.93419 15.6195 0.829561 15.6789 0.740569C15.7384 0.651576 15.8229 0.582215 15.9218 0.541256C16.0207 0.500297 16.1295 0.489579 16.2345 0.510457C16.3395 0.531335 16.4359 0.582871 16.5116 0.65855L20.8415 4.98845C20.943 5.08995 21 5.2276 21 5.37112C21 5.51465 20.943 5.6523 20.8415 5.7538L16.5116 10.0837C16.4359 10.1594 16.3395 10.2109 16.2345 10.2318C16.1295 10.2527 16.0207 10.2419 15.9218 10.201C15.8229 10.16 15.7384 10.0907 15.6789 10.0017C15.6195 9.91269 15.5877 9.80806 15.5877 9.70102V8.16824C13.5589 8.55174 6.87292 10.3509 4.07798 17.6876C4.03892 17.7901 3.96967 17.8783 3.8794 17.9405C3.78913 18.0027 3.68209 18.036 3.57246 18.0361ZM16.6702 2.34782V3.20617C16.67 3.34955 16.613 3.48702 16.5117 3.58847C16.4104 3.68991 16.273 3.74707 16.1296 3.74741C15.6744 3.74867 5.72052 3.90554 4.28538 14.7603C8.38653 7.81388 15.9928 7.00549 16.0775 6.99739C16.1526 6.99023 16.2283 6.99883 16.2999 7.02264C16.3714 7.04646 16.4372 7.08496 16.493 7.13567C16.5488 7.18639 16.5934 7.2482 16.6239 7.31715C16.6544 7.38611 16.6702 7.46067 16.6702 7.53607V8.39443L19.6935 5.37112L16.6702 2.34782Z"
              fill="#1C7F62"/>
    </g>
    <defs>
        <clipPath id="clip0_3643_21063-431456">
            <rect width="21" height="21" fill="white" transform="translate(0 0.5)"/>
        </clipPath>
    </defs>
</svg>
