<svg width="100%" height="100%" viewBox="0 0 403 284" fill="none" xmlns="http://www.w3.org/2000/svg">
    <g clipPath="url(#clip0_3643_21398-140363)">
        <path d="M296.473 33.7082C276.477 28.1294 256.527 22.3938 236.62 16.5016C217.266 22.3523 197.88 28.0879 178.462 33.7082C159.605 28.085 140.784 22.3495 121.999 16.5016C101.528 22.3967 81.0119 28.1322 60.4505 33.7082C45.007 96.3895 29.5642 159.071 14.1224 221.753C40.8364 216.11 67.5299 210.375 94.2029 204.546C119.179 210.38 144.177 216.115 169.196 221.753C194.787 216.143 220.35 210.407 245.886 204.546C271.986 210.409 298.114 216.145 324.271 221.753C348.726 216.114 373.159 210.378 397.568 204.546C382.125 141.865 366.683 79.1832 351.24 16.5015C333.02 22.3584 314.764 28.0939 296.473 33.7082Z"
              fill="#D8DEE8"/>
        <path opacity="0.8"
              d="M296.473 33.7082C276.477 28.1294 256.527 22.3938 236.62 16.5016C217.266 22.3523 197.88 28.0879 178.462 33.7082C159.605 28.085 140.784 22.3495 121.999 16.5016C101.528 22.3967 81.0119 28.1322 60.4505 33.7082C45.007 96.3895 29.5642 159.071 14.1224 221.753C40.8364 216.11 67.5299 210.375 94.2029 204.546C119.179 210.38 144.177 216.115 169.196 221.753C194.787 216.143 220.35 210.407 245.886 204.546C271.986 210.409 298.114 216.145 324.271 221.753C348.726 216.114 373.159 210.378 397.568 204.546C382.125 141.865 366.683 79.1832 351.24 16.5015C333.02 22.3584 314.764 28.0939 296.473 33.7082Z"
              fill="#D8DEE8"/>
        <path d="M169.735 210.825C194.967 205.217 220.172 199.481 245.347 193.619C271.088 199.484 296.857 205.219 322.655 210.825C343.047 206.073 363.419 201.237 383.771 196.318C370.98 140.921 358.188 85.5245 345.396 30.1277C329.662 35.0782 313.893 39.9141 298.088 44.6355C277.735 39.0545 257.425 33.319 237.159 27.429C217.445 33.2777 197.7 39.0133 177.924 44.6355C158.709 39.0106 139.529 33.275 120.384 27.429C102.886 32.3695 85.3603 37.2054 67.8059 41.9366C55.0139 97.3331 42.2226 152.73 29.4319 208.127C51.5746 203.355 73.7034 198.519 95.8184 193.619C120.435 199.454 145.073 205.189 169.735 210.825Z"
              fill="#47B384"/>
        <path opacity="0.4"
              d="M169.735 210.825C194.967 205.217 220.172 199.481 245.347 193.619C271.088 199.484 296.857 205.219 322.655 210.825C343.047 206.073 363.419 201.237 383.771 196.318C370.98 140.921 358.188 85.5245 345.396 30.1277C329.662 35.0782 313.893 39.9141 298.088 44.6355C277.735 39.0545 257.425 33.319 237.159 27.429C217.445 33.2777 197.7 39.0133 177.924 44.6355C158.709 39.0106 139.529 33.275 120.384 27.429C102.886 32.3695 85.3603 37.2054 67.8059 41.9366C55.0139 97.3331 42.2226 152.73 29.4319 208.127C51.5746 203.355 73.7034 198.519 95.8184 193.619C120.435 199.454 145.073 205.189 169.735 210.825Z"
              fill="#47B384"/>
        <path d="M226.909 161.344C225.909 150.711 225.11 141.126 220.95 135.576C211.732 123.278 189.558 125.894 175.655 128.442C174.102 125.838 170.131 118.416 165.783 100.606C161.639 83.635 142.443 75.4339 127.631 70.6748C123.461 69.3349 118.287 67.5817 117.431 66.3673C116.2 60.7569 110.764 60.5043 105.495 60.2606C101.243 60.0635 96.4132 59.8405 92.5469 57.2664C89.0968 54.9693 93.059 44.0951 98.2325 33.6223C96.4971 34.1028 95.6272 34.3431 93.885 34.8237C93.5077 35.6235 93.1323 36.431 92.7653 37.2505C86.6099 50.9943 83.4382 59.6893 88.5895 63.0933C93.5754 66.3886 99.4517 66.6567 104.156 66.8727C108.857 67.0879 111.105 67.3522 111.395 68.8419C112.162 72.783 117.072 74.5648 125.082 77.0251C138.744 81.2216 155.342 87.6695 159.53 102.699C166.547 127.88 170.859 133.794 171.683 134.555C172.173 135.007 172.419 135.233 172.91 135.686C173.594 135.543 173.935 135.472 174.618 135.329C187.06 132.969 207.276 130.126 215.325 139.203C218.483 142.763 219.349 152.293 219.912 161.767C220.613 173.555 220.183 186.921 223.774 198.608C227.966 197.645 230.056 197.163 234.222 196.2C229.058 184.288 227.898 171.876 226.909 161.344Z"
              fill="#007CFF"/>
        <path d="M226.909 161.344C225.909 150.711 225.11 141.126 220.95 135.576C211.732 123.278 189.558 125.894 175.655 128.442C174.102 125.838 170.131 118.416 165.783 100.606C161.639 83.635 142.443 75.4339 127.631 70.6748C123.461 69.3349 118.287 67.5817 117.431 66.3673C116.2 60.7569 110.764 60.5043 105.495 60.2606C101.243 60.0635 96.4132 59.8405 92.5469 57.2664C89.0968 54.9693 93.059 44.0951 98.2325 33.6223C96.4971 34.1028 95.6272 34.3431 93.885 34.8237C93.5077 35.6235 93.1323 36.431 92.7653 37.2505C86.6099 50.9943 83.4382 59.6893 88.5895 63.0933C93.5754 66.3886 99.4517 66.6567 104.156 66.8727C108.857 67.0879 111.105 67.3522 111.395 68.8419C112.162 72.783 117.072 74.5648 125.082 77.0251C138.744 81.2216 155.342 87.6695 159.53 102.699C166.547 127.88 170.859 133.794 171.683 134.555C172.173 135.007 172.419 135.233 172.91 135.686C173.594 135.543 173.935 135.472 174.618 135.329C187.06 132.969 207.276 130.126 215.325 139.203C218.483 142.763 219.349 152.293 219.912 161.767C220.613 173.555 220.183 186.921 223.774 198.608C227.966 197.645 230.056 197.163 234.222 196.2C229.058 184.288 227.898 171.876 226.909 161.344Z"
              fill="#1E8161"/>
        <g opacity="0.5">
            <path opacity="0.5"
                  d="M247.193 95.4755C261.854 96.7163 276.516 97.9528 291.178 99.1848C292.432 109.199 293.059 114.206 294.314 124.219C282.479 123.108 276.585 122.553 264.845 121.442C264.399 116.062 264.176 113.372 263.73 107.993C257.346 107.19 254.164 106.788 247.817 105.986C247.567 101.782 247.443 99.6794 247.193 95.4755Z"
                  fill="white"/>
            <path opacity="0.5"
                  d="M245.458 109.847C251.35 110.652 254.305 111.054 260.233 111.859C260.683 117.701 260.909 120.622 261.36 126.465C255.333 126.001 252.324 125.769 246.316 125.306C245.973 119.122 245.801 116.031 245.458 109.847Z"
                  fill="white"/>
        </g>
        <path opacity="0.5"
              d="M316.91 65.6948C312.208 67.5595 309.838 68.4918 305.062 70.3565C305.883 75.7275 306.293 78.4129 307.114 83.7837C312.045 82.2325 314.495 81.4569 319.364 79.9055C318.382 74.2212 317.892 71.3791 316.91 65.6948Z"
              fill="white"/>
        <path opacity="0.5"
              d="M96.5914 149.963C87.3207 152.851 82.641 154.295 73.1921 157.183C71.6401 165.501 70.8638 169.661 69.3116 177.979C78.9263 175.576 83.6967 174.375 93.1634 171.972C94.5347 163.169 95.2203 158.767 96.5914 149.963Z"
              fill="white"/>
        <path d="M240.151 90.2151C261.759 91.9787 283.367 93.7292 304.977 95.4667C305.145 95.4805 305.229 95.4874 305.397 95.501C322.69 90.8404 339.956 86.0795 357.194 81.2183C356.69 79.0352 356.438 77.9437 355.934 75.7607C338.712 80.6646 321.461 85.4627 304.181 90.155C294.733 89.3896 290.024 89.007 280.631 88.2416C274.195 70.4303 268.007 52.5429 262.066 34.5791C259.423 33.8293 258.106 33.4543 255.479 32.7045C261.362 51.1306 267.503 69.4601 273.901 87.6928C259.981 86.5565 253.051 85.9884 239.251 84.8522C229.998 88.2192 225.311 89.9025 215.814 93.2694H175.717C155.609 90.0874 135.507 86.8715 115.41 83.6217C123.095 66.754 130.516 49.7824 137.673 32.707C135.939 32.1825 135.074 31.9201 133.347 31.3954C125.911 48.8551 118.206 66.1826 110.233 83.3779C92.3044 86.0084 74.3718 88.6091 56.435 91.1799C55.9412 93.3187 55.6942 94.3881 55.2004 96.527C73.4769 93.9194 91.7499 91.2901 110.019 88.6389C117.012 105.526 124.755 122.022 132.772 138.44C121.018 137.472 115.16 136.988 103.488 136.02C83.1677 141.391 62.8183 146.649 42.4394 151.794C41.6774 155.094 41.2965 156.744 40.5345 160.044C61.4098 154.812 82.26 149.482 103.085 144.053C116.358 145.141 123.02 145.685 136.395 146.774C142.424 167.279 148.983 187.644 156.251 207.745C159.035 208.383 160.43 208.703 163.225 209.341C155.622 188.885 148.75 168.15 142.424 147.264C154.405 148.237 160.417 148.724 172.48 149.698C196.527 156.07 220.605 162.322 244.713 168.453C261.846 162.926 278.941 157.278 295.995 151.51C302.967 161.948 306.557 167.166 313.944 177.604C328.56 186.086 343.283 194.377 358.115 202.478C362.498 201.434 364.682 200.913 369.034 199.869C352.512 190.803 336.089 181.572 319.764 172.176C313.136 162.875 309.905 158.225 303.606 148.924C307.44 147.616 309.347 146.962 313.144 145.654C331.997 142.238 350.842 138.785 369.681 135.295C368.935 132.067 368.562 130.452 367.817 127.223C348.535 130.838 329.246 134.413 309.949 137.947C288.033 145.519 266.061 152.92 244.034 160.15C230.709 156.744 217.397 153.288 204.097 149.78C209.201 132.607 213.967 115.339 218.396 97.9744C227.202 94.8707 231.553 93.3188 240.151 90.2151ZM198.787 148.379C188.905 145.765 184.01 144.459 174.309 141.845C160.255 140.699 153.258 140.126 139.318 138.979C131.159 122.575 123.271 106.091 116.126 89.2138C135.708 92.353 155.295 95.4599 174.886 98.5347C187.564 98.5435 200.242 98.5524 212.921 98.5614C208.524 115.254 203.812 131.86 198.787 148.379Z"
              fill="white"/>
        <path opacity="0.1"
              d="M94.2029 204.547C67.5296 210.378 40.8361 216.114 14.1224 221.753C29.5658 159.072 45.0085 96.39 60.4505 33.7082C81.0036 28.1082 101.52 22.3726 121.999 16.5016C112.733 79.1832 103.468 141.865 94.2029 204.547Z"
              fill="black"/>
        <path opacity="0.1"
              d="M245.886 204.547C220.351 210.405 194.787 216.141 169.196 221.753C172.285 159.071 175.374 96.3898 178.462 33.7082C197.882 28.0824 217.268 22.3469 236.62 16.5016C239.708 79.1832 242.797 141.865 245.886 204.547Z"
              fill="black"/>
        <path opacity="0.1"
              d="M397.568 204.547C373.159 210.382 348.726 216.117 324.271 221.753C315.004 159.071 305.738 96.3898 296.473 33.7082C314.767 28.0878 333.022 22.3523 351.24 16.5016C366.683 79.1832 382.125 141.865 397.568 204.547Z"
              fill="black"/>
        <path opacity="0.1"
              d="M321.441 81.1366C321.441 82.5986 317.775 83.7837 313.252 83.7837C308.728 83.7837 305.062 82.5986 305.062 81.1366C305.062 79.6745 308.728 78.4894 313.252 78.4894C317.775 78.4894 321.441 79.6747 321.441 81.1366Z"
              fill="black"/>
        <path d="M313.93 80.2403C318.078 80.2403 321.441 72.1231 321.441 67.9695C321.441 65.9749 320.65 64.0619 319.241 62.6515C317.833 61.2411 315.922 60.4487 313.93 60.4487H312.574C311.587 60.4487 310.611 60.6432 309.699 61.0212C308.788 61.3991 307.96 61.9531 307.262 62.6515C306.565 63.3499 306.011 64.1789 305.634 65.0914C305.256 66.0039 305.062 66.9819 305.062 67.9695C305.062 72.1231 308.425 80.2404 312.574 80.2404L313.93 80.2403ZM310.935 67.9695C311.036 67.5332 311.257 67.134 311.574 66.8179C311.89 66.5019 312.29 66.2816 312.726 66.1826C313.162 66.0836 313.617 66.1098 314.039 66.2581C314.461 66.4065 314.833 66.6711 315.111 67.0214C315.39 67.3717 315.564 67.7936 315.614 68.2385C315.664 68.6835 315.587 69.1335 315.393 69.5368C315.198 69.9402 314.895 70.2805 314.516 70.5186C314.137 70.7568 313.699 70.8831 313.252 70.8831C312.594 70.7307 312.007 70.3598 311.586 69.8308C311.165 69.3017 310.936 68.6457 310.935 67.9695L310.935 67.9695Z"
              fill="#1A2E35"/>
        <path d="M312.574 60.4487C311.587 60.4487 310.611 60.6432 309.699 61.0212C308.788 61.3991 307.96 61.9531 307.262 62.6515C306.564 63.3499 306.011 64.1789 305.634 65.0914C305.256 66.0039 305.062 66.9819 305.062 67.9695C305.062 72.1231 308.425 80.2404 312.574 80.2404C316.723 80.2404 320.086 72.1231 320.086 67.9695C320.086 65.9749 319.294 64.062 317.886 62.6515C316.477 61.2411 314.566 60.4487 312.574 60.4487ZM312.574 70.9672C311.982 70.9672 311.403 70.7914 310.91 70.4621C310.418 70.1327 310.034 69.6645 309.808 69.1168C309.581 68.569 309.522 67.9663 309.637 67.3848C309.753 66.8033 310.038 66.2692 310.457 65.8499C310.875 65.4307 311.409 65.1452 311.99 65.0295C312.57 64.9138 313.172 64.9732 313.72 65.2001C314.267 65.4269 314.734 65.8112 315.063 66.3041C315.392 66.7971 315.568 67.3767 315.568 67.9695C315.568 68.7646 315.252 69.527 314.691 70.0892C314.129 70.6513 313.368 70.9672 312.574 70.9672Z"
              fill="#007CFF"/>
        <path d="M312.574 60.4487C311.587 60.4487 310.611 60.6432 309.699 61.0212C308.788 61.3991 307.96 61.9531 307.262 62.6515C306.564 63.3499 306.011 64.1789 305.634 65.0914C305.256 66.0039 305.062 66.9819 305.062 67.9695C305.062 72.1231 308.425 80.2404 312.574 80.2404C316.723 80.2404 320.086 72.1231 320.086 67.9695C320.086 65.9749 319.294 64.062 317.886 62.6515C316.477 61.2411 314.566 60.4487 312.574 60.4487ZM312.574 70.9672C311.982 70.9672 311.403 70.7914 310.91 70.4621C310.418 70.1327 310.034 69.6645 309.808 69.1168C309.581 68.569 309.522 67.9663 309.637 67.3848C309.753 66.8033 310.038 66.2692 310.457 65.8499C310.875 65.4307 311.409 65.1452 311.99 65.0295C312.57 64.9138 313.172 64.9732 313.72 65.2001C314.267 65.4269 314.734 65.8112 315.063 66.3041C315.392 66.7971 315.568 67.3767 315.568 67.9695C315.568 68.7646 315.252 69.527 314.691 70.0892C314.129 70.6513 313.368 70.9672 312.574 70.9672Z"
              fill="#FFCB68"/>
        <path opacity="0.1"
              d="M261.599 149.467C261.599 150.929 257.932 152.114 253.409 152.114C248.886 152.114 245.219 150.929 245.219 149.467C245.219 148.005 248.886 146.82 253.409 146.82C257.932 146.82 261.599 148.005 261.599 149.467Z"
              fill="black"/>
        <path d="M254.087 148.571C258.236 148.571 261.599 140.454 261.599 136.3C261.599 135.312 261.405 134.334 261.027 133.422C260.65 132.509 260.096 131.68 259.399 130.982C258.701 130.283 257.873 129.73 256.962 129.352C256.05 128.974 255.073 128.779 254.087 128.779H252.731C251.745 128.779 250.768 128.974 249.857 129.352C248.945 129.729 248.117 130.283 247.42 130.982C246.722 131.68 246.169 132.509 245.791 133.422C245.414 134.334 245.219 135.312 245.219 136.3C245.219 140.454 248.582 148.571 252.731 148.571H254.087ZM251.093 136.3C251.193 135.864 251.414 135.464 251.731 135.148C252.048 134.832 252.447 134.612 252.884 134.513C253.32 134.414 253.775 134.44 254.197 134.589C254.619 134.737 254.99 135.002 255.269 135.352C255.547 135.702 255.722 136.124 255.771 136.569C255.821 137.014 255.744 137.464 255.55 137.867C255.356 138.271 255.052 138.611 254.673 138.849C254.294 139.087 253.856 139.214 253.409 139.214C252.751 139.061 252.164 138.69 251.743 138.161C251.323 137.632 251.093 136.976 251.093 136.3Z"
              fill="#1A2E35"/>
        <path d="M252.731 128.779C251.745 128.779 250.768 128.974 249.857 129.352C248.945 129.729 248.117 130.283 247.42 130.982C246.722 131.68 246.169 132.509 245.791 133.422C245.414 134.334 245.219 135.312 245.219 136.3C245.219 140.454 248.582 148.571 252.731 148.571C256.88 148.571 260.243 140.454 260.243 136.3C260.243 135.312 260.049 134.334 259.672 133.422C259.294 132.509 258.741 131.68 258.043 130.982C257.346 130.284 256.517 129.73 255.606 129.352C254.695 128.974 253.718 128.779 252.731 128.779ZM252.731 139.298C252.139 139.298 251.56 139.122 251.068 138.792C250.576 138.463 250.192 137.995 249.965 137.447C249.738 136.899 249.679 136.297 249.795 135.715C249.91 135.134 250.195 134.599 250.614 134.18C251.033 133.761 251.566 133.475 252.147 133.36C252.728 133.244 253.33 133.303 253.877 133.53C254.424 133.757 254.892 134.141 255.221 134.634C255.55 135.127 255.725 135.707 255.725 136.3C255.725 137.095 255.41 137.857 254.848 138.419C254.287 138.982 253.525 139.297 252.731 139.297V139.298Z"
              fill="#007CFF"/>
        <path opacity="0.3"
              d="M252.731 128.779C251.745 128.779 250.768 128.974 249.857 129.352C248.945 129.729 248.117 130.283 247.42 130.982C246.722 131.68 246.169 132.509 245.791 133.422C245.414 134.334 245.219 135.312 245.219 136.3C245.219 140.454 248.582 148.571 252.731 148.571C256.88 148.571 260.243 140.454 260.243 136.3C260.243 135.312 260.049 134.334 259.672 133.422C259.294 132.509 258.741 131.68 258.043 130.982C257.346 130.284 256.517 129.73 255.606 129.352C254.695 128.974 253.718 128.779 252.731 128.779ZM252.731 139.298C252.139 139.298 251.56 139.122 251.068 138.792C250.576 138.463 250.192 137.995 249.965 137.447C249.738 136.899 249.679 136.297 249.795 135.715C249.91 135.134 250.195 134.599 250.614 134.18C251.033 133.761 251.566 133.475 252.147 133.36C252.728 133.244 253.33 133.303 253.877 133.53C254.424 133.757 254.892 134.141 255.221 134.634C255.55 135.127 255.725 135.707 255.725 136.3C255.725 137.095 255.41 137.857 254.848 138.419C254.287 138.982 253.525 139.297 252.731 139.297V139.298Z"
              fill="black"/>
        <path opacity="0.1"
              d="M136.409 155.84C136.409 157.302 132.742 158.487 128.219 158.487C123.696 158.487 120.029 157.302 120.029 155.84C120.029 154.378 123.696 153.193 128.219 153.193C132.742 153.193 136.409 154.378 136.409 155.84Z"
              fill="black"/>
        <path d="M128.897 154.944C133.046 154.944 136.409 146.827 136.409 142.673C136.409 141.685 136.215 140.707 135.837 139.795C135.46 138.883 134.906 138.053 134.209 137.355C133.511 136.657 132.683 136.103 131.772 135.725C130.86 135.347 129.883 135.152 128.897 135.152H127.541C126.555 135.152 125.578 135.347 124.667 135.725C123.755 136.103 122.927 136.657 122.23 137.355C121.532 138.053 120.979 138.882 120.601 139.795C120.224 140.707 120.029 141.685 120.029 142.673C120.029 146.827 123.393 154.944 127.541 154.944H128.897ZM125.903 142.673C125.903 141.997 126.133 141.341 126.553 140.812C126.974 140.283 127.561 139.912 128.219 139.759C128.878 139.911 129.465 140.282 129.886 140.811C130.306 141.34 130.536 141.997 130.536 142.673C130.536 143.349 130.306 144.006 129.886 144.535C129.465 145.064 128.878 145.435 128.219 145.587C127.561 145.434 126.974 145.063 126.553 144.534C126.133 144.005 125.904 143.349 125.903 142.673Z"
              fill="#1A2E35"/>
        <path d="M127.541 135.152C126.555 135.152 125.578 135.347 124.667 135.725C123.755 136.103 122.927 136.657 122.23 137.355C121.532 138.053 120.979 138.882 120.601 139.795C120.224 140.707 120.029 141.685 120.029 142.673C120.029 146.827 123.393 154.944 127.541 154.944C131.69 154.944 135.053 146.827 135.053 142.673C135.053 141.685 134.859 140.707 134.482 139.795C134.104 138.882 133.551 138.053 132.853 137.355C132.156 136.657 131.327 136.103 130.416 135.725C129.505 135.347 128.528 135.152 127.541 135.152ZM127.541 145.671C126.949 145.671 126.37 145.495 125.878 145.165C125.386 144.836 125.002 144.368 124.775 143.82C124.549 143.272 124.489 142.67 124.605 142.088C124.72 141.507 125.005 140.973 125.424 140.553C125.843 140.134 126.376 139.849 126.957 139.733C127.538 139.617 128.14 139.677 128.687 139.904C129.234 140.13 129.702 140.515 130.031 141.008C130.36 141.501 130.536 142.08 130.536 142.673C130.536 143.067 130.458 143.456 130.308 143.82C130.157 144.184 129.937 144.514 129.659 144.793C129.381 145.071 129.05 145.292 128.687 145.443C128.324 145.593 127.935 145.671 127.541 145.671Z"
              fill="#007CFF"/>
        <path d="M127.541 135.152C126.555 135.152 125.578 135.347 124.667 135.725C123.755 136.103 122.927 136.657 122.23 137.355C121.532 138.053 120.979 138.882 120.601 139.795C120.224 140.707 120.029 141.685 120.029 142.673C120.029 146.827 123.393 154.944 127.541 154.944C131.69 154.944 135.053 146.827 135.053 142.673C135.053 141.685 134.859 140.707 134.482 139.795C134.104 138.882 133.551 138.053 132.853 137.355C132.156 136.657 131.327 136.103 130.416 135.725C129.505 135.347 128.528 135.152 127.541 135.152ZM127.541 145.671C126.949 145.671 126.37 145.495 125.878 145.165C125.386 144.836 125.002 144.368 124.775 143.82C124.549 143.272 124.489 142.67 124.605 142.088C124.72 141.507 125.005 140.973 125.424 140.553C125.843 140.134 126.376 139.849 126.957 139.733C127.538 139.617 128.14 139.677 128.687 139.904C129.234 140.13 129.702 140.515 130.031 141.008C130.36 141.501 130.536 142.08 130.536 142.673C130.536 143.067 130.458 143.456 130.308 143.82C130.157 144.184 129.937 144.514 129.659 144.793C129.381 145.071 129.05 145.292 128.687 145.443C128.324 145.593 127.935 145.671 127.541 145.671Z"
              fill="#FFCB68"/>
        <path opacity="0.1"
              d="M109.528 79.3649C109.528 80.8268 105.861 82.0121 101.338 82.0121C96.8148 82.0121 93.1481 80.8268 93.1481 79.3649C93.1481 77.903 96.8148 76.7178 101.338 76.7178C105.861 76.7178 109.528 77.9029 109.528 79.3649Z"
              fill="black"/>
        <path d="M102.016 78.4686C106.164 78.4686 109.528 70.3514 109.528 66.1978C109.528 65.2101 109.333 64.2322 108.956 63.3197C108.578 62.4072 108.025 61.5782 107.328 60.8798C106.63 60.1814 105.802 59.6275 104.89 59.2495C103.979 58.8716 103.002 58.677 102.016 58.677H100.66C99.6737 58.677 98.6968 58.8715 97.7854 59.2495C96.874 59.6274 96.0459 60.1814 95.3483 60.8797C94.6508 61.5781 94.0975 62.4072 93.7199 63.3197C93.3424 64.2321 93.1481 65.2101 93.1481 66.1978C93.1481 70.3514 96.5112 78.4686 100.66 78.4686H102.016ZM99.0215 66.1978C99.0222 65.5216 99.2516 64.8656 99.6722 64.3365C100.093 63.8075 100.68 63.4365 101.338 63.2842C101.996 63.436 102.584 63.8067 103.004 64.3359C103.425 64.8651 103.654 65.5215 103.654 66.1978C103.654 66.8742 103.425 67.5305 103.004 68.0597C102.584 68.5889 101.996 68.9597 101.338 69.1115C100.68 68.9591 100.093 68.5881 99.6722 68.0591C99.2516 67.53 99.0223 66.874 99.0215 66.1978Z"
              fill="#1A2E35"/>
        <path d="M100.66 58.677C99.6737 58.677 98.6968 58.8715 97.7854 59.2495C96.874 59.6274 96.0459 60.1814 95.3483 60.8797C94.6508 61.5781 94.0975 62.4072 93.7199 63.3197C93.3424 64.2321 93.1481 65.2101 93.1481 66.1978C93.1481 70.3514 96.5112 78.4686 100.66 78.4686C104.809 78.4686 108.172 70.3514 108.172 66.1978C108.172 65.2101 107.978 64.2322 107.6 63.3197C107.223 62.4072 106.669 61.5782 105.972 60.8798C105.274 60.1814 104.446 59.6275 103.535 59.2495C102.623 58.8716 101.647 58.677 100.66 58.677ZM100.66 69.1954C100.068 69.1955 99.4891 69.0197 98.9967 68.6903C98.5043 68.3609 98.1205 67.8928 97.8938 67.345C97.6672 66.7973 97.6079 66.1945 97.7234 65.613C97.8389 65.0315 98.1241 64.4974 98.5428 64.0782C98.9615 63.6589 99.495 63.3734 100.076 63.2577C100.657 63.142 101.259 63.2014 101.806 63.4283C102.353 63.6552 102.821 64.0394 103.15 64.5323C103.479 65.0253 103.654 65.6049 103.654 66.1978C103.654 66.9928 103.339 67.7552 102.777 68.3174C102.216 68.8795 101.454 69.1953 100.66 69.1954V69.1954Z"
              fill="#007CFF"/>
        <path d="M100.66 58.677C99.6737 58.677 98.6968 58.8715 97.7854 59.2495C96.874 59.6274 96.0459 60.1814 95.3483 60.8797C94.6508 61.5781 94.0975 62.4072 93.7199 63.3197C93.3424 64.2321 93.1481 65.2101 93.1481 66.1978C93.1481 70.3514 96.5112 78.4686 100.66 78.4686C104.809 78.4686 108.172 70.3514 108.172 66.1978C108.172 65.2101 107.978 64.2322 107.6 63.3197C107.223 62.4072 106.669 61.5782 105.972 60.8798C105.274 60.1814 104.446 59.6275 103.535 59.2495C102.623 58.8716 101.647 58.677 100.66 58.677ZM100.66 69.1954C100.068 69.1955 99.4891 69.0197 98.9967 68.6903C98.5043 68.3609 98.1205 67.8928 97.8938 67.345C97.6672 66.7973 97.6079 66.1945 97.7234 65.613C97.8389 65.0315 98.1241 64.4974 98.5428 64.0782C98.9615 63.6589 99.495 63.3734 100.076 63.2577C100.657 63.142 101.259 63.2014 101.806 63.4283C102.353 63.6552 102.821 64.0394 103.15 64.5323C103.479 65.0253 103.654 65.6049 103.654 66.1978C103.654 66.9928 103.339 67.7552 102.777 68.3174C102.216 68.8795 101.454 69.1953 100.66 69.1954V69.1954Z"
              fill="#FFCB68"/>
        <path opacity="0.1"
              d="M237.765 83.7596C237.765 85.2217 234.098 86.4068 229.575 86.4068C225.052 86.4068 221.385 85.2217 221.385 83.7596C221.385 82.2976 225.052 81.1125 229.575 81.1125C234.098 81.1125 237.765 82.2976 237.765 83.7596Z"
              fill="black"/>
        <path d="M230.253 82.8633C234.401 82.8633 237.765 74.7461 237.765 70.5925C237.765 68.5979 236.973 66.6849 235.564 65.2745C234.156 63.8641 232.245 63.0718 230.253 63.0717H228.897C227.911 63.0717 226.934 63.2662 226.022 63.6442C225.111 64.0221 224.283 64.5761 223.585 65.2745C222.888 65.9728 222.334 66.8019 221.957 67.7144C221.579 68.6269 221.385 69.6048 221.385 70.5925C221.385 74.7461 224.748 82.8633 228.897 82.8633H230.253ZM227.258 70.5925C227.359 70.1561 227.58 69.757 227.897 69.4409C228.214 69.1249 228.613 68.9047 229.049 68.8057C229.485 68.7067 229.94 68.7328 230.362 68.8812C230.784 69.0296 231.156 69.2942 231.434 69.6445C231.713 69.9948 231.887 70.4167 231.937 70.8617C231.987 71.3066 231.91 71.7566 231.716 72.16C231.522 72.5633 231.218 72.9036 230.839 73.1417C230.46 73.3799 230.022 73.5062 229.575 73.5062C228.917 73.3538 228.33 72.9829 227.909 72.4538C227.488 71.9247 227.259 71.2687 227.258 70.5925Z"
              fill="#1A2E35"/>
        <path d="M228.897 63.0717C227.911 63.0717 226.934 63.2662 226.022 63.6442C225.111 64.0221 224.283 64.5761 223.585 65.2745C222.888 65.9728 222.334 66.8019 221.957 67.7144C221.579 68.6269 221.385 69.6048 221.385 70.5925C221.385 74.7461 224.748 82.8633 228.897 82.8633C233.046 82.8633 236.409 74.7461 236.409 70.5925C236.409 68.5979 235.618 66.6849 234.209 65.2745C232.8 63.8641 230.889 63.0718 228.897 63.0717ZM228.897 73.5903C228.305 73.5903 227.726 73.4145 227.234 73.0852C226.741 72.7558 226.357 72.2876 226.131 71.7399C225.904 71.1921 225.845 70.5894 225.96 70.0079C226.076 69.4264 226.361 68.8922 226.78 68.4729C227.198 68.0537 227.732 67.7681 228.313 67.6524C228.893 67.5368 229.495 67.5961 230.043 67.823C230.59 68.0499 231.057 68.4341 231.386 68.927C231.715 69.42 231.891 69.9996 231.891 70.5925C231.891 71.3875 231.576 72.15 231.014 72.7122C230.453 73.2743 229.691 73.5902 228.897 73.5903Z"
              fill="#007CFF"/>
        <path d="M228.897 63.0717C227.911 63.0717 226.934 63.2662 226.022 63.6442C225.111 64.0221 224.283 64.5761 223.585 65.2745C222.888 65.9728 222.334 66.8019 221.957 67.7144C221.579 68.6269 221.385 69.6048 221.385 70.5925C221.385 74.7461 224.748 82.8633 228.897 82.8633C233.046 82.8633 236.409 74.7461 236.409 70.5925C236.409 68.5979 235.618 66.6849 234.209 65.2745C232.8 63.8641 230.889 63.0718 228.897 63.0717ZM228.897 73.5903C228.305 73.5903 227.726 73.4145 227.234 73.0852C226.741 72.7558 226.357 72.2876 226.131 71.7399C225.904 71.1921 225.845 70.5894 225.96 70.0079C226.076 69.4264 226.361 68.8922 226.78 68.4729C227.198 68.0537 227.732 67.7681 228.313 67.6524C228.893 67.5368 229.495 67.5961 230.043 67.823C230.59 68.0499 231.057 68.4341 231.386 68.927C231.715 69.42 231.891 69.9996 231.891 70.5925C231.891 71.3875 231.576 72.15 231.014 72.7122C230.453 73.2743 229.691 73.5902 228.897 73.5903Z"
              fill="#FFCB68"/>
        <path d="M253.282 212.227L243.59 209.249C241.143 208.497 238.294 211.728 238.033 214.277C237.386 220.586 238.033 229.747 234.856 231.17C232.23 232.347 220.878 217.676 216.603 211.989C216.589 211.97 216.577 211.951 216.563 211.932L208.282 215.651C214.085 228.933 237.472 259.697 244.441 251.617C256.153 238.04 251.309 223.357 256.144 216.386C257.219 214.835 255.084 212.781 253.282 212.227Z"
              fill="#FCC8AF"/>
        <path d="M233.305 161.236C233.305 161.236 212.662 145.229 231.128 129.422C231.128 129.422 251.63 106.214 264.38 123.15C266.605 126.105 276.268 123.018 277.787 134.942C279.166 145.756 286.684 139.897 285.932 152.119C285.296 162.46 293.076 159.978 292.949 166.43C292.785 174.779 272.9 170.695 263.261 175.964C252.476 181.86 243.107 192.022 240.811 180.982C238.34 169.101 233.305 161.236 233.305 161.236Z"
              fill="#002A35"/>
        <path d="M247.334 188.094C239.41 195.93 238.111 206.95 235.453 222.365L255.964 225.015C255.964 225.015 260.243 175.328 247.334 188.094Z"
              fill="#47B384"/>
        <path opacity="0.1"
              d="M246.461 191.92C246.461 191.92 238.263 206.131 244.583 229.086C246.908 237.533 247.776 242.819 247.947 246.135C252.061 239.967 254.899 230.659 255.527 224.045L256.376 222.936C256.376 222.936 258.121 205.897 256.133 194.634L250.049 191.04L246.461 191.92Z"
              fill="black"/>
        <path d="M315.051 266.887C315.051 266.887 315.265 269.614 317.106 273.898C324.556 291.237 335.518 334.076 241.19 324.788L235.204 356.866L177.689 339.957C177.689 339.957 175.378 295.415 185.164 286.811C197.236 276.196 261.084 276.623 261.084 276.623L260.746 268.938L315.051 266.887Z"
              fill="#47B384"/>
        <path opacity="0.1"
              d="M208.412 296.647C197.014 304.837 195.374 326.949 196.246 345.413L205.016 347.991C204.861 339.991 205.011 319.679 210.049 309.442C216.407 296.522 234.582 283.696 257.739 280.825C257.739 280.825 229.361 281.593 208.412 296.647Z"
              fill="black"/>
        <path d="M279.56 270.622C289.33 270.989 313.695 274.413 312.634 266.288C310.454 249.59 313.724 245.556 309.485 226.28C304.658 204.323 311.95 184.022 305.121 176.184C301.13 171.602 288.336 173.6 276.017 176.027C261.413 178.904 246.539 183.751 245.926 191.85C244.489 210.825 242.642 208.408 241.862 216.214C240.136 233.495 250.077 228.402 254.154 243.859C257.413 256.212 253.212 262.605 255.258 268.92C256.887 273.945 274.287 270.424 279.56 270.622Z"
              fill="#0C604C"/>
        <path opacity="0.1"
              d="M317.106 273.898C315.265 269.614 315.051 266.887 315.051 266.887L260.746 268.937L261.067 276.251C263.906 277.023 268.751 277.567 276.365 276.196C289.047 273.911 303.716 279.962 317.766 275.484C317.545 274.936 317.324 274.405 317.106 273.898Z"
              fill="black"/>
        <path opacity="0.6"
              d="M282.755 258.205C282.755 258.205 302.208 255.305 311.803 250.756C311.783 242.51 312.616 236.201 312.055 228.314C310.84 211.227 311.967 194.231 309.032 183.809L293.092 186.999C293.092 186.999 291.84 198.169 307.628 235.804L302.866 247.094L282.755 258.205Z"
              fill="black"/>
        <path d="M302.017 203.247C301.516 203.457 301.111 203.845 300.879 204.336C300.647 204.828 300.606 205.388 300.762 205.908C302.546 211.847 307.746 229.892 305.937 232.715C304.02 235.705 279.907 248.536 273.842 251.735C273.083 252.135 270.371 252.913 269.604 252.53C261.442 248.463 253.623 240.837 248.191 243.733C244.769 245.557 238.485 252.594 237.557 256.516C237.251 257.808 238.129 256.764 239.238 257.178C239.458 257.264 239.69 257.316 239.925 257.333L240.971 257.391C241.214 257.407 241.454 257.461 241.68 257.551C242.667 257.93 244.251 257.697 245.635 256.902C245.734 256.844 245.836 256.794 245.942 256.752L250.382 255.007C250.549 254.941 250.724 254.895 250.903 254.872C251.907 254.749 252.921 255.008 253.744 255.598C257.108 258.009 263.223 261.407 270.064 261.41C270.199 261.41 274.935 260.528 275.066 260.498C278.439 259.705 320.548 249.655 322.979 237.704C325.058 227.487 319.744 206.433 317.804 199.32C317.722 199.018 317.576 198.738 317.377 198.497C317.177 198.256 316.929 198.061 316.648 197.924C316.367 197.787 316.06 197.711 315.748 197.702C315.436 197.693 315.125 197.751 314.837 197.872L302.017 203.247Z"
              fill="#FCC8AF"/>
        <path d="M299.553 173.899C295.319 174.083 283.131 179.226 302.49 212.345L319.97 203.877C319.97 203.877 311.136 173.395 299.553 173.899Z"
              fill="#47B384"/>
        <path d="M266.268 153.175C268.002 163.817 267.789 174.108 276.017 176.027C276.017 176.027 279.664 183.345 265.068 201.475C252.715 195.64 255.536 182.178 255.536 182.178C258.136 180.532 259.195 178.849 255.536 174.941L266.268 153.175Z"
              fill="#FCC8AF"/>
        <path d="M235.453 132.684C235.453 132.684 229.453 137.901 230.752 144.121C232.051 150.342 229.717 151.143 231.212 157.106C232.706 163.069 237.152 162.735 237.626 167.844C238.101 172.952 242.669 173.893 238.836 178.097C236.58 180.571 233.43 174.584 233.179 169.692C232.929 164.799 227.04 164.573 226.288 158.163C225.536 151.752 228.919 148.741 227.917 143.096C226.914 137.451 226.201 129.408 236.958 129.917C247.714 130.426 235.453 132.684 235.453 132.684Z"
              fill="#002A35"/>
        <path opacity="0.1"
              d="M259.19 164.736L255.536 174.941C256.961 176.463 257.631 177.725 257.774 178.799C264.856 176.25 264.533 163.247 264.533 163.247L259.19 164.736Z"
              fill="black"/>
        <path d="M264.181 140.374C266.268 146.849 267.466 161.54 264.197 167.957C257.913 180.565 247.001 180.331 235.462 169.099C233.027 166.642 232.325 161.846 229.926 156.775C224.841 146.021 230.265 140.95 236.796 135.5C244.261 129.139 254.106 125.618 260.46 133.092C262.249 135.197 263.523 137.69 264.181 140.374Z"
              fill="#FCC8AF"/>
        <path d="M270.635 148.794C270.577 151.262 269.55 153.608 267.775 155.322C265.382 157.563 262.668 155.795 262.05 152.729C261.52 149.967 262.111 145.476 265.1 144.348C265.77 144.119 266.487 144.063 267.184 144.186C267.881 144.308 268.536 144.605 269.088 145.049C269.64 145.492 270.071 146.068 270.342 146.723C270.612 147.377 270.713 148.09 270.635 148.794Z"
              fill="#FCC8AF"/>
        <path d="M234.432 134.315C234.432 134.315 234.514 141.465 242.116 142.971C249.719 144.476 249.697 152.614 255.096 152.81C260.495 153.007 258.852 159.152 263.127 158.025C267.401 156.898 265.091 150.7 267.405 148.322C270.66 144.978 264.38 130.426 256.736 127.415C249.093 124.404 232.929 124.53 234.432 134.315Z"
              fill="#002A35"/>
        <path d="M235.112 128.392C235.112 128.392 228.242 140.657 235.127 145.637C242.012 150.617 232.171 139.33 235.112 128.392Z"
              fill="#002A35"/>
        <path d="M233.121 129.726C233.121 129.726 220.24 130.879 219.91 140.546C219.579 150.213 222.44 133.462 233.121 129.726Z"
              fill="#002A35"/>
        <path opacity="0.1"
              d="M241.154 258.312C241.154 258.312 242.545 256.94 243.582 255.898C245.616 253.851 249.294 250.934 249.294 250.934C249.294 250.934 245.392 252.979 243.65 254.803C242.682 255.816 241.396 257.414 241.396 257.414L239.102 257.509C239.102 257.509 240.416 255.218 241.191 254.328C241.966 253.439 243.621 252.158 244.2 251.626C245.683 250.263 247.813 248.278 247.813 248.278C247.813 248.278 243.009 251.411 242.563 251.947C242.117 252.482 239.795 254.665 239.293 255.73C238.998 256.361 238.608 256.942 238.137 257.454L239.285 258.981L241.154 258.312Z"
              fill="black"/>
        <path d="M208.694 192.507C208.694 196.553 211.629 200.768 216.401 200.768C216.541 200.768 216.678 200.756 216.817 200.75C217.584 204.288 220.725 204.653 224.488 204.653H226.114C230.452 204.653 233.969 203.419 233.969 199.076V185.235C233.969 184.642 233.733 184.073 233.314 183.653C232.895 183.234 232.327 182.998 231.735 182.998H218.868C218.276 182.998 217.708 183.234 217.288 183.653C216.869 184.073 216.634 184.641 216.634 185.235V186.126C216.556 186.124 216.479 186.116 216.401 186.116C211.629 186.116 208.694 188.46 208.694 192.507ZM211.535 192.832C211.535 190.192 213.45 188.662 216.563 188.662C216.587 188.662 216.61 188.665 216.634 188.665V198.218C216.61 198.219 216.587 198.222 216.563 198.222C213.45 198.222 211.535 195.471 211.535 192.832H211.535Z"
              fill="#FFCB68"/>
        <path opacity="0.1"
              d="M216.598 198.221C216.622 198.221 216.645 198.216 216.669 198.216V199.076C216.67 199.638 216.731 200.198 216.851 200.746C216.712 200.752 216.576 200.768 216.435 200.768C215.778 200.767 215.124 200.68 214.489 200.508V197.745C215.147 198.063 215.868 198.226 216.598 198.221Z"
              fill="#0C604C"/>
        <path opacity="0.1"
              d="M216.435 186.115C216.515 186.115 216.591 186.126 216.669 186.128V188.668C216.645 188.668 216.622 188.662 216.598 188.662C215.885 188.653 215.175 188.749 214.489 188.946V186.266C215.133 186.165 215.784 186.115 216.435 186.115Z"
              fill="#0C604C"/>
        <g opacity="0.5">
            <path opacity="0.5"
                  d="M120.345 220.637C120.345 220.637 110.805 231.525 107.694 218.814C104.584 206.104 101.618 195.03 101.618 195.03C101.618 195.03 153.223 209.879 120.345 220.637Z"
                  fill="#1E8161"/>
            <path opacity="0.3"
                  d="M120.345 220.637C120.345 220.637 110.805 231.525 107.694 218.814C104.584 206.104 101.618 195.03 101.618 195.03C101.618 195.03 153.223 209.879 120.345 220.637Z"
                  fill="#1E8161"/>
        </g>
        <path d="M121.63 237.076C121.63 237.076 124.925 211.506 110.952 203.029C110.952 203.029 123.008 214.271 119.397 236.755L121.63 237.076Z"
              fill="#47B384"/>
        <path opacity="0.5"
              d="M121.63 237.076C121.63 237.076 124.925 211.506 110.952 203.029C110.952 203.029 123.008 214.271 119.397 236.755L121.63 237.076Z"
              fill="#47B384"/>
        <path d="M127.58 221.945C127.58 221.945 116.554 211.219 129.147 205.198C141.74 199.176 155.272 210.843 155.272 210.843C155.272 210.843 128.456 240.763 127.58 221.945Z"
              fill="#0C604C"/>
        <g opacity="0.5">
            <path opacity="0.5"
                  d="M123.132 235.87C123.132 235.87 123.32 211.596 141.74 210.843C141.74 210.843 126.328 214.042 124.824 235.87H123.132Z"
                  fill="#1E8161"/>
            <path opacity="0.5"
                  d="M123.132 235.87C123.132 235.87 123.32 211.596 141.74 210.843C141.74 210.843 126.328 214.042 124.824 235.87H123.132Z"
                  fill="#1E8161"/>
        </g>
        <path d="M113.139 225.176C113.139 225.176 121.284 215.171 110.367 212.725C99.4501 210.278 90.0524 225.176 90.0524 225.176C90.0524 225.176 117.43 236.686 113.139 225.176Z"
              fill="#47B384"/>
        <path opacity="0.2"
              d="M113.139 225.176C113.139 225.176 121.284 215.171 110.367 212.725C99.4501 210.278 90.0524 225.176 90.0524 225.176C90.0524 225.176 117.43 236.686 113.139 225.176Z"
              fill="#47B384"/>
        <path d="M118.809 235.87C118.809 235.87 114.298 209.714 96.0669 221.757C96.0669 221.757 111.855 214.042 116.554 235.87H118.809Z"
              fill="#0C604C"/>
        <path opacity="0.5"
              d="M118.809 235.87C118.809 235.87 114.298 209.714 96.0669 221.757C96.0669 221.757 111.855 214.042 116.554 235.87H118.809Z"
              fill="#0C604C"/>
        <path d="M136.853 234.134H106.068L106.832 240.386H108.829L111.33 260.855H131.59L134.092 240.386H136.089L136.853 234.134Z"
              fill="#002A35"/>
        <path opacity="0.6" d="M133.555 244.777L134.058 240.666H108.863L109.366 244.777H133.555Z" fill="black"/>
        <path d="M338.75 275.768H333.69H262.985H257.925L241.385 458.51H246.445H248.385H253.445L273.262 285.554H323.413L343.23 458.51H348.29H350.23H355.29L338.75 275.768Z"
              fill="#1A2E35"/>
        <path opacity="0.6"
              d="M338.75 275.768H333.69H262.985H257.925L241.385 458.51H246.445H248.385H253.445L273.262 285.554H323.413L343.23 458.51H348.29H350.23H355.29L338.75 275.768Z"
              fill="black"/>
        <path d="M273.262 285.554H328.474L348.29 458.51H355.29L338.75 275.768H262.985L246.445 458.51H253.445L273.262 285.554Z"
              fill="#002A35"/>
        <path d="M147.37 275.768H142.31H71.6056H66.5452L50.0052 458.51H55.0656H57.0053H62.0657L81.882 285.554H132.034L151.85 458.51H156.911H158.85H163.91L147.37 275.768Z"
              fill="#1A2E35"/>
        <path opacity="0.6"
              d="M147.37 275.768H142.31H71.6056H66.5452L50.0052 458.51H55.0656H57.0053H62.0657L81.882 285.554H132.034L151.85 458.51H156.911H158.85H163.91L147.37 275.768Z"
              fill="black"/>
        <path d="M81.882 285.554H137.094L156.911 458.51H163.91L147.37 275.768H71.6056L55.0656 458.51H62.0659L81.882 285.554Z"
              fill="#002A35"/>
        <path d="M360.363 261.475H43.9907V268.92H360.363V261.475Z" fill="#1E8161"/>
        <path opacity="0.5" d="M360.363 261.475H43.9907V268.92H360.363V261.475Z" fill="#1E8161"/>
        <path opacity="0.2" d="M360.363 261.475H244.936V268.92H360.363V261.475Z" fill="#1E8161"/>
        <path d="M354.348 268.519H50.0052V275.964H354.348V268.519Z" fill="#0C604C"/>
        <path opacity="0.2" d="M354.348 268.519H50.0052V275.964H354.348V268.519Z" fill="#0C604C"/>
        <path opacity="0.2" d="M354.348 268.519H244.936V275.964H354.348V268.519Z" fill="#0C604C"/>
        <path d="M267.557 256.804H171.622C171.003 256.804 170.41 257.05 169.972 257.488C169.535 257.926 169.289 258.52 169.289 259.139C169.289 259.759 169.535 260.353 169.972 260.791C170.41 261.229 171.003 261.475 171.622 261.475H267.557C267.864 261.476 268.168 261.416 268.452 261.299C268.735 261.182 268.993 261.01 269.21 260.793C269.427 260.576 269.6 260.318 269.717 260.034C269.835 259.751 269.895 259.447 269.895 259.139C269.895 258.832 269.835 258.528 269.717 258.245C269.6 257.961 269.427 257.703 269.21 257.486C268.993 257.269 268.735 257.097 268.452 256.98C268.168 256.863 267.864 256.803 267.557 256.804Z"
              fill="#002A32"/>
        <path d="M267.557 256.804H171.622C171.003 256.804 170.41 257.05 169.972 257.488C169.535 257.926 169.289 258.52 169.289 259.139C169.289 259.759 169.535 260.353 169.972 260.791C170.41 261.229 171.003 261.475 171.622 261.475H267.557C267.864 261.476 268.168 261.416 268.452 261.299C268.735 261.182 268.993 261.01 269.21 260.793C269.427 260.576 269.6 260.318 269.717 260.034C269.835 259.751 269.895 259.447 269.895 259.139C269.895 258.832 269.835 258.528 269.717 258.245C269.6 257.961 269.427 257.703 269.21 257.486C268.993 257.269 268.735 257.097 268.452 256.98C268.168 256.863 267.864 256.803 267.557 256.804Z"
              fill="#A2A7AE"/>
        <path d="M172.89 260.047H212.611C212.787 260.047 212.961 260.005 213.118 259.924C213.274 259.843 213.409 259.725 213.511 259.581C213.614 259.437 213.68 259.271 213.704 259.096C213.729 258.921 213.711 258.743 213.653 258.576L197.643 212.785C197.428 212.17 197.027 211.636 196.496 211.259C195.965 210.882 195.329 210.679 194.678 210.679H154.958C154.781 210.679 154.607 210.721 154.451 210.802C154.294 210.884 154.159 211.001 154.057 211.145C153.955 211.289 153.888 211.456 153.864 211.631C153.839 211.806 153.857 211.984 153.915 212.151L169.925 257.941C170.14 258.557 170.541 259.09 171.072 259.467C171.604 259.845 172.239 260.047 172.89 260.047Z"
              fill="#A2A7AE"/>
        <path opacity="0.5"
              d="M172.89 260.047H212.611C212.787 260.047 212.961 260.005 213.118 259.924C213.274 259.843 213.409 259.725 213.511 259.581C213.614 259.437 213.68 259.271 213.704 259.096C213.729 258.921 213.711 258.743 213.653 258.576L197.643 212.785C197.428 212.17 197.027 211.636 196.496 211.259C195.965 210.882 195.329 210.679 194.678 210.679H154.958C154.781 210.679 154.607 210.721 154.451 210.802C154.294 210.884 154.159 211.001 154.057 211.145C153.955 211.289 153.888 211.456 153.864 211.631C153.839 211.806 153.857 211.984 153.915 212.151L169.925 257.941C170.14 258.557 170.541 259.09 171.072 259.467C171.604 259.845 172.239 260.047 172.89 260.047Z"
              fill="#A2A7AE"/>
        <path d="M171.482 260.047H211.202C211.378 260.047 211.552 260.005 211.709 259.924C211.866 259.843 212.001 259.725 212.103 259.581C212.205 259.437 212.271 259.271 212.296 259.096C212.32 258.921 212.303 258.743 212.245 258.576L196.235 212.785C196.019 212.17 195.618 211.636 195.087 211.259C194.556 210.882 193.921 210.679 193.269 210.679H153.549C153.372 210.679 153.199 210.721 153.042 210.803C152.885 210.884 152.75 211.001 152.648 211.145C152.546 211.289 152.48 211.456 152.455 211.631C152.431 211.806 152.448 211.984 152.506 212.151L168.516 257.941C168.731 258.557 169.132 259.09 169.664 259.467C170.195 259.845 170.83 260.047 171.482 260.047Z"
              fill="#002A32"/>
        <path d="M171.482 260.047H211.202C211.378 260.047 211.552 260.005 211.709 259.924C211.866 259.843 212.001 259.725 212.103 259.581C212.205 259.437 212.271 259.271 212.296 259.096C212.32 258.921 212.303 258.743 212.245 258.576L196.235 212.785C196.019 212.17 195.618 211.636 195.087 211.259C194.556 210.882 193.921 210.679 193.269 210.679H153.549C153.372 210.679 153.199 210.721 153.042 210.803C152.885 210.884 152.75 211.001 152.648 211.145C152.546 211.289 152.48 211.456 152.455 211.631C152.431 211.806 152.448 211.984 152.506 212.151L168.516 257.941C168.731 258.557 169.132 259.09 169.664 259.467C170.195 259.845 170.83 260.047 171.482 260.047Z"
              fill="#D8DEE8"/>
        <path d="M185.038 235.363C185.545 237.531 184.765 239.289 183.294 239.289C181.824 239.289 180.221 237.531 179.713 235.363C179.206 233.195 179.986 231.437 181.456 231.437C182.927 231.437 184.53 233.195 185.038 235.363Z"
              fill="white"/>
        <path d="M216.362 261.475C215.744 261.474 215.152 261.227 214.715 260.789C214.278 260.352 214.033 259.758 214.033 259.139C214.033 258.521 214.278 257.927 214.715 257.489C215.152 257.052 215.744 256.805 216.362 256.804H267.558C268.176 256.805 268.768 257.052 269.204 257.489C269.641 257.927 269.886 258.521 269.886 259.139C269.886 259.758 269.641 260.352 269.204 260.789C268.768 261.227 268.176 261.474 267.558 261.475H216.362Z"
              fill="#A2A7AE"/>
        <path d="M215.162 208.636C214.771 207.981 215.598 205.968 215.878 205.764C217.163 204.826 217.76 203.911 217.346 202.8C216.933 201.69 216.716 201.594 216.716 201.594C216.933 201.406 217.118 201.183 217.263 200.935C217.479 200.582 217.598 200.177 217.609 199.763C217.629 198.63 217.378 198.296 216.816 197.745C216.254 197.195 215.91 196.987 216.122 195.931C216.334 194.875 216.733 194.205 216.337 193.442C216.124 193.03 215.501 192.678 215.088 192.455C214.753 192.273 214.986 192.361 215.018 191.986C215.042 191.634 215.03 191.281 214.982 190.932C214.829 189.696 214.032 189.303 213.008 188.66C211.985 188.017 210.099 187.68 209.203 187.552C208.307 187.425 206.818 187.851 205.014 189.077C203.21 190.303 199.666 193.187 199.288 194.861C198.91 196.535 199.695 195.449 199.41 197.205C199.125 198.961 199.553 198.781 199.95 199.573C200.347 200.365 200.182 200.385 200.476 202.632C200.569 203.337 201.347 204.036 201.779 205.437C202.723 208.499 204.125 208.24 206.723 212.703C207.789 214.535 210.002 219.176 210.002 219.176L220.175 216.78C220.175 216.78 217.423 212.417 215.162 208.636Z"
              fill="#FCC8AF"/>
        <path opacity="0.1"
              d="M213.286 204.48C212.569 204.484 210.505 204.849 209.489 205.076C209.182 205.144 209.219 205.535 209.534 205.553C210.562 205.61 212.574 205.682 213.025 206.341C213.686 207.307 215.037 207.043 215.037 207.043L215.878 205.764L216.816 204.946C216.816 204.946 214.892 204.469 213.286 204.48Z"
              fill="black"/>
        <path opacity="0.1"
              d="M217.263 200.935C217.263 200.935 215.351 199.961 213.795 199.899C212.05 199.831 211.067 199.686 208.408 200.225C205.674 200.78 207.947 201.143 213.126 200.844C214.881 200.742 216.783 201.509 216.783 201.509L217.263 200.935Z"
              fill="black"/>
        <path opacity="0.1"
              d="M216.195 195.624C216.195 195.624 211.556 195.083 208.971 195.72C207.901 195.984 207.06 196.241 206.441 196.451C206.243 196.518 206.316 196.767 206.525 196.736C207.715 196.561 209.429 196.339 210.667 196.298C212.756 196.23 216.098 196.942 216.098 196.942L215.975 196.259L216.195 195.624Z"
              fill="black"/>
        <path opacity="0.1"
              d="M215.009 191.174C215.009 191.174 212.647 190.42 210.903 190.669C209.16 190.918 206.644 191.599 205.962 192.151C205.28 192.704 208.233 191.6 209.658 191.644C211.082 191.689 214.913 192.281 214.913 192.281C214.974 192.086 215.006 191.883 215.009 191.679C214.995 191.426 215.009 191.174 215.009 191.174Z"
              fill="black"/>
    </g>
    <defs>
        <clipPath id="clip0_3643_21398-140363">
            <rect width="403" height="297" fill="white" transform="translate(0 -13)"/>
        </clipPath>
    </defs>
</svg>