<svg width="100%" height="100%" viewBox="0 0 429 284" fill="none" xmlns="http://www.w3.org/2000/svg">
    <g clip-path="url(#clip0_3643_21327-917935)">
        <path d="M359.612 239.734C351.669 246.45 344.563 250.398 339.122 253.378C286.056 282.446 225.396 274.068 206.642 271.205C176.384 266.585 150.842 263.325 128.897 247.06C79.0307 210.101 81.4561 133.001 119.56 85.2408C124.078 79.5779 162.124 33.3122 222.915 26.793C224.402 26.6335 225.511 26.5427 226.483 26.4583C235.887 25.6415 294.163 21.3303 341.682 53.9901C348.484 58.6652 359.43 67.0979 369.581 79.959C406.697 126.985 406.815 199.819 359.612 239.734Z"
              fill="#F4F7FA"/>
        <path d="M267.522 214.81C207.645 223.245 189.232 216.707 183.795 208.858C180.634 204.294 180.308 197.048 171.29 187.9C163.691 180.19 159.319 180.666 156.064 174.755C150.417 164.501 161.187 158.736 156.798 148.806C151.993 137.933 136.875 139.847 130.321 126.862C126.737 119.759 130.945 118.561 127.754 111.483C121.249 97.0536 102.086 98.307 95.7196 85.2931C92.0132 77.7168 93.9207 67.915 100.018 62.1418C112.249 50.562 141.533 55.003 158.096 65.7408C160.23 67.124 176.289 77.8377 177.843 93.7025C178.782 103.275 173.755 107.738 177.897 113.566C183.74 121.788 196.971 117.447 202.782 124.751C210.656 134.648 191.979 149.677 200.977 160.815C204.46 165.126 208.142 163.968 211.624 168.919C217.35 177.061 210.677 184.863 211.994 191.64C213.409 198.918 224.579 207.805 267.522 214.81Z"
              fill="#0B4D41"/>
        <g style="mix-blend-mode:soft-light" opacity="0.28">
            <path d="M156.762 88.3595C164.531 103.068 151.866 112.363 160.964 123.965C168.352 133.387 180.003 131.461 183.189 140.234C186.242 148.641 176.373 152.702 179.073 162.305C181.298 170.221 188.79 170.261 196.273 180.498C203.806 190.803 200.76 196.98 204.629 203.275C208.782 210.032 220.565 216.369 252.279 216.739C257.036 216.211 262.107 215.572 267.522 214.81C224.579 207.805 213.409 198.918 211.994 191.64C210.677 184.863 217.35 177.061 211.624 168.919C208.142 163.968 204.46 165.126 200.977 160.815C191.979 149.677 210.655 134.648 202.782 124.751C196.971 117.447 183.74 121.788 177.897 113.566C173.755 107.738 178.782 103.275 177.843 93.7025C176.289 77.8376 160.23 67.124 158.096 65.7407C141.533 55.0029 112.249 50.562 100.018 62.1417C99.9596 62.1973 99.9039 62.2558 99.8459 62.3122C108.025 62.5505 118.053 63.9175 128.435 67.9791C136.498 71.1333 150.57 76.6377 156.762 88.3595Z"
                  fill="white"/>
        </g>
        <path d="M248.262 219.882C228.011 215.656 222.261 210.533 221.372 206.234C219.916 199.197 231.587 194.86 230.025 186.841C228.225 177.603 211.241 175.686 211.764 169.613C212.33 163.049 232.325 163.518 236.452 154.068C240.193 145.5 225.769 140.515 225.88 128.071C226.013 113.213 246.666 109.726 250.296 92.8125C252.775 81.2631 245.6 71.4456 239.97 63.7414C227.302 46.4063 201.276 29.5513 171.824 31.2597C167.807 31.4927 144.36 32.8528 138.553 44.1312C132.665 55.5642 146.719 73.6667 161.097 83.2603C171.518 90.2139 180.251 91.4577 180.712 96.9324C181.333 104.313 165.878 107.011 164.411 117.766C163.635 123.452 167.19 128.31 170.687 133.088C178.612 143.918 186.342 143.515 187.476 149.516C189.027 157.728 175.047 161.082 171.943 173.368C169.732 182.122 174.472 189.75 177.143 194.049C187.554 210.805 215.595 220.402 248.262 219.882Z"
              fill="#004C40"/>
        <g style="mix-blend-mode:soft-light" opacity="0.7">
            <path d="M131.103 38.403C143.846 43.1968 156.566 48.0344 169.264 52.9157C175.624 55.3364 181.957 57.8024 188.239 60.3612C191.383 61.6369 194.518 62.9273 197.631 64.2589C200.742 65.5924 203.836 66.9608 206.848 68.4659C208.352 69.2206 209.836 70.011 211.258 70.8867C211.974 71.3184 212.659 71.7905 213.331 72.2769C213.992 72.7691 214.617 73.306 215.204 73.8837C215.773 74.454 216.272 75.0911 216.688 75.781C217.083 76.4482 217.384 77.1669 217.583 77.9166C217.959 79.3774 217.985 80.9064 217.66 82.3793C217.331 83.8521 216.656 85.2508 215.804 86.5459C214.952 87.8449 213.911 89.0366 212.824 90.1835C210.637 92.4743 208.198 94.5531 205.863 96.6869C203.526 98.8155 201.262 100.994 199.393 103.382C198.475 104.581 197.636 105.819 196.975 107.12C196.332 108.425 195.824 109.773 195.533 111.157C194.976 113.942 195.225 116.828 196.25 119.477C196.779 120.811 197.532 122.08 198.426 123.284C199.322 124.489 200.372 125.623 201.451 126.747C202.532 127.872 203.656 128.984 204.686 130.171C205.208 130.759 205.689 131.377 206.152 132.004C206.602 132.631 207.009 133.288 207.37 133.97C208.082 135.297 208.556 136.739 208.771 138.23C208.978 139.689 208.973 141.17 208.757 142.628C208.54 144.11 208.098 145.549 207.446 146.897C206.756 148.279 205.91 149.577 204.924 150.766C202.967 153.199 200.536 155.309 198.838 157.759C197.986 158.977 197.369 160.294 197.091 161.665C196.833 163.045 196.871 164.464 197.204 165.828C197.552 167.232 198.155 168.561 198.983 169.747C199.837 170.965 200.885 172.096 202.045 173.154C204.347 175.283 207.035 177.171 209.215 179.486C210.304 180.638 211.238 181.913 211.872 183.293C212.484 184.654 212.801 186.129 212.802 187.621C212.801 189.114 212.472 190.589 211.838 191.941C211.187 193.316 210.221 194.557 209.27 195.759C208.334 196.959 207.4 198.18 207.14 199.55C206.826 200.912 207.217 202.329 207.991 203.565C208.793 204.8 209.92 205.894 211.193 206.854C212.5 207.826 213.878 208.697 215.317 209.46C218.242 211.016 221.362 212.328 224.553 213.499C227.745 214.673 231.008 215.718 234.303 216.688C237.6 217.655 240.926 218.555 244.281 219.387C250.983 221.065 257.763 222.531 264.571 223.898L264.56 223.936C257.737 222.619 250.939 221.202 244.214 219.571C240.849 218.763 237.509 217.887 234.194 216.942C230.882 215.994 227.6 214.97 224.383 213.814C221.165 212.661 218.013 211.366 215.037 209.813C213.565 209.048 212.153 208.171 210.814 207.192C209.498 206.219 208.316 205.095 207.462 203.791C206.632 202.487 206.193 200.952 206.525 199.466C206.65 198.721 206.996 198.02 207.382 197.358C207.775 196.693 208.257 196.083 208.723 195.471C209.671 194.262 210.594 193.057 211.208 191.743C211.803 190.451 212.108 189.044 212.1 187.621C212.09 186.2 211.781 184.796 211.191 183.503C210.58 182.194 209.683 180.978 208.619 179.865C206.492 177.626 203.808 175.756 201.444 173.596C200.255 172.522 199.161 171.356 198.259 170.085C197.38 168.839 196.736 167.442 196.361 165.964C196 164.519 195.951 163.014 196.217 161.549C196.505 160.081 197.161 158.67 198.044 157.393C198.915 156.106 199.981 154.937 201.039 153.789C202.104 152.643 203.17 151.513 204.127 150.331C205.074 149.187 205.887 147.936 206.548 146.606C207.168 145.32 207.587 143.946 207.79 142.533C208.182 139.743 207.857 136.856 206.46 134.293C205.117 131.702 202.84 129.513 200.66 127.261C199.57 126.129 198.492 124.97 197.559 123.721C196.629 122.472 195.834 121.14 195.275 119.739C194.168 116.93 193.945 113.921 194.504 111.014C194.807 109.561 195.336 108.149 196.004 106.789C196.69 105.432 197.556 104.149 198.499 102.914C200.417 100.455 202.716 98.2395 205.062 96.0956C207.404 93.9485 209.829 91.8732 211.961 89.6307C213.021 88.5088 214.026 87.352 214.833 86.115C215.641 84.881 216.266 83.572 216.565 82.2145C216.876 80.8582 216.82 79.4637 216.489 78.1128C216.148 76.7644 215.409 75.5238 214.349 74.4496C213.8 73.9063 213.215 73.4009 212.598 72.9369C211.958 72.4708 211.303 72.0147 210.608 71.5927C209.231 70.7381 207.776 69.9553 206.294 69.2055C203.326 67.709 200.253 66.3365 197.159 64.9979C194.062 63.6609 190.938 62.3626 187.805 61.0785L178.387 57.25C175.252 55.9659 172.08 54.7439 168.927 53.4897C156.292 48.511 143.677 43.4941 131.083 38.4388L131.103 38.403Z"
                  fill="#004C40"/>
        </g>
        <path d="M236.677 215.429C229.187 218.62 221.435 221.154 213.507 223.004C192.274 227.981 155.748 231.447 143.196 217.987C141.653 216.332 137.576 211.96 138.116 206.56C138.678 200.945 143.732 199.211 142.979 195.701C141.95 190.901 131.887 191.265 121.882 185.756C113.385 181.077 103.16 171.187 104.148 159.554C105.231 146.798 119.149 139.545 120.663 138.783C130.95 133.606 146.804 131.734 156.716 138.273C165.486 144.059 166.307 154.255 166.849 160.983C168.075 176.208 160.312 183.056 165.903 188.387C170.995 193.242 179.632 189.66 185.821 196.137C188.466 198.906 187.711 200.42 191.845 205.837C194.973 209.935 198.351 212.928 199.74 213.99C210.491 222.208 234.545 215.999 236.677 215.429Z"
              fill="#FFCB68"/>
        <g style="mix-blend-mode:soft-light" opacity="0.5">
            <path d="M223.37 220.485C213.358 220.49 203.353 219.949 193.4 218.863C163.655 215.597 160.293 210.132 159.189 208.337C157.472 205.546 157.784 203.198 158.114 200.713C158.485 197.92 158.868 195.032 156.636 191.023C154.6 187.366 151.946 185.668 149.379 184.026C146.876 182.424 144.287 180.768 142.383 177.32C139.93 172.877 140.673 169.271 141.46 165.454C141.892 163.361 142.338 161.197 142.291 158.773C142.104 149.197 134.052 139.391 118.359 129.627L118.585 129.383C134.374 139.207 142.476 149.093 142.664 158.768C142.712 161.22 142.263 163.399 141.829 165.505C141.051 169.275 140.317 172.835 142.724 177.194C144.589 180.573 147.027 182.133 149.608 183.784C152.211 185.449 154.902 187.171 156.976 190.895C159.251 194.981 158.844 198.044 158.485 200.746C158.161 203.185 157.855 205.489 159.522 208.199C160.605 209.959 163.899 215.315 193.45 218.559C208.068 220.164 223.119 220.579 238.186 219.791L238.21 220.096C233.257 220.355 228.311 220.485 223.37 220.485Z"
                  fill="#FFCB68"/>
        </g>
        <path d="M235.337 252.857L159.756 248.14V73.6602L235.337 69.068V252.857Z" fill="#47B384"/>
        <path d="M225.482 101.108C225.447 115.253 225.389 129.457 225.353 137.447L235.337 137.302V77.4507L225.511 77.9043C225.514 84.2493 225.504 92.0185 225.482 101.108Z"
              fill="white"/>
        <path d="M235.337 160.029V150.429L186.403 150.713L185.45 146.054C181.196 125.263 175.584 97.8709 171.985 80.375L166.159 80.6439V200.723L207.372 201.929L235.337 160.029Z"
              fill="white"/>
        <path d="M220.069 137.524C220.158 118.081 220.233 94.5233 220.226 78.1482L181.679 79.9275C185.462 98.2022 190.736 123.783 193.647 137.91L220.069 137.524Z"
              fill="white"/>
        <path d="M211.829 214.981L166.159 213.242V239.862L235.337 244.442V180.074L211.829 214.981Z" fill="white"/>
        <path d="M186.403 150.713L235.337 150.429V137.302L225.353 137.447C225.389 129.457 225.447 115.253 225.482 101.108C225.504 92.0185 225.514 84.2493 225.511 77.9043L220.226 78.1482C220.233 94.5233 220.158 118.081 220.069 137.524L193.647 137.91C190.736 123.783 185.462 98.2022 181.679 79.9275L171.985 80.375C175.584 97.8709 181.196 125.263 185.45 146.054L186.403 150.713Z"
              fill="#D8DEE8"/>
        <path d="M235.337 180.074V160.029L207.372 201.93L166.159 200.723V213.242L211.829 214.981L235.337 180.074Z"
              fill="#D8DEE8"/>
        <path d="M286.701 242.831H374.85V79.336H286.701V242.831Z" fill="#47B384"/>
        <path d="M367.703 127.935V86.6914H332.504C332.542 99.828 332.641 115.15 332.749 127.935H367.703Z" fill="white"/>
        <path d="M345.674 180.661V139.625H321.657L321.604 133.836C321.602 133.645 321.426 114.482 321.339 95.4294C321.325 92.3461 321.314 89.4334 321.306 86.6914H286.701V162.517L299.731 180.661L345.674 180.661Z"
              fill="white"/>
        <path d="M286.701 186.879V235.362H325.019L290.201 186.879H286.701Z" fill="white"/>
        <path d="M351.63 139.625V186.879H304.196L339.014 235.362H367.703V139.625H351.63Z" fill="white"/>
        <path d="M351.63 186.879V139.625H367.703V127.935H332.749C332.641 115.15 332.542 99.828 332.504 86.6914H321.306C321.314 89.4323 321.325 92.345 321.339 95.4294C321.426 114.482 321.602 133.645 321.604 133.836L321.657 139.625H345.674V180.661H299.731L286.701 162.517V186.879H290.201L325.019 235.362H339.014L304.196 186.879H351.63Z"
              fill="#D8DEE8"/>
        <path d="M286.701 242.831L235.15 252.857V69.068L286.701 79.336V242.831Z" fill="#1E8161"/>
        <path d="M258.871 188.064V240.287L286.701 235.374V186.398L258.871 188.064Z" fill="#D8DEE8"/>
        <path d="M271.78 84.0889L235.15 77.4506V137.424L245.549 137.961L271.78 84.0889Z" fill="#D8DEE8"/>
        <path d="M286.199 180.207L275.271 151.5L248.74 150.876L235.15 179.371V244.475L255.315 240.915V181.593L286.199 180.207Z"
              fill="#D8DEE8"/>
        <path d="M235.15 150.557V159.319L239.368 150.656L235.15 150.557Z" fill="#D8DEE8"/>
        <path d="M278.325 139.654L286.701 162.051V86.793L279.892 85.5591L254.675 138.432L278.325 139.654Z"
              fill="#D8DEE8"/>
        <path d="M286.701 186.398V162.051L278.325 139.654L254.675 138.432L279.892 85.559L271.78 84.0889L245.549 137.961L235.15 137.424V150.557L239.368 150.656L235.15 159.319V179.371L248.74 150.876L275.271 151.5L286.199 180.207L255.315 181.593V240.915L258.871 240.287V188.064L286.701 186.398Z"
              fill="#A2A7AE"/>
        <path d="M347.093 181.885H346.05V185.363H347.093V181.885Z" fill="#0C604C"/>
        <path d="M344.015 185.363H341.98V181.885H344.015V185.363ZM339.945 185.363H337.91V181.885H339.945V185.363ZM335.876 185.363H333.841V181.885H335.876V185.363ZM331.806 185.363H329.771V181.885H331.806V185.363ZM327.736 185.363H325.701V181.885H327.736V185.363ZM323.666 185.363H321.631V181.885H323.666V185.363ZM319.596 185.363H317.561V181.885H319.596V185.363ZM315.526 185.363H313.492V181.885H315.526V185.363ZM311.457 185.363H309.422V181.885H311.457V185.363ZM307.387 185.363H305.352V181.885H307.387V185.363ZM303.317 185.363H301.282V181.885H303.317V185.363ZM299.247 185.363H297.212V181.885H299.247L299.247 185.363Z"
              fill="#0C604C"/>
        <path d="M295.177 185.363H293.087L292.112 183.512L294.135 182.445V181.885H295.177V181.895L295.186 181.89L295.672 182.813L295.177 183.074V185.363Z"
              fill="#0C604C"/>
        <path d="M291.125 181.639L290.138 179.766L293.212 178.144L294.199 180.017L291.125 181.639ZM289.151 177.893L288.164 176.02L291.238 174.398L292.225 176.271L289.151 177.893ZM287.177 174.147L286.19 172.274L289.264 170.652L290.251 172.525L287.177 174.147ZM285.203 170.401L285.125 170.249L284.269 168.404L287.421 166.939L288.277 168.779L288.275 168.779L288.277 168.784L288.197 168.821L285.203 170.401ZM283.378 166.484L282.486 164.563L285.638 163.098L286.529 165.018L283.378 166.484ZM281.595 162.643L280.703 160.722L283.855 159.257L284.747 161.178L281.595 162.643ZM279.812 158.802L278.921 156.882L282.072 155.416L282.964 157.337L279.812 158.802ZM278.029 154.961L277.138 153.041L280.29 151.576L281.181 153.496L278.029 154.961ZM276.247 151.12L275.355 149.2L278.507 147.735L279.398 149.655L276.247 151.12Z"
              fill="#0C604C"/>
        <path d="M275.508 147.337L274.467 147.281L274.467 147.278L274.464 147.279L274.025 146.333L274.53 146.098L274.652 143.809L276.736 143.92L277.616 145.815L275.538 146.781L275.508 147.337Z"
              fill="#0C604C"/>
        <path d="M272.378 147.17L270.29 147.058L270.476 143.585L272.564 143.697L272.378 147.17ZM268.202 146.946L266.114 146.835L266.299 143.362L268.387 143.474L268.202 146.946ZM264.025 146.723L261.937 146.611L262.123 143.138L264.211 143.25L264.025 146.723ZM259.849 146.5L257.761 146.388L257.946 142.915L260.034 143.027L259.849 146.5ZM255.672 146.276L253.584 146.164L253.769 142.692L255.858 142.803L255.672 146.276ZM251.496 146.053L249.408 145.941L249.593 142.468L251.681 142.58L251.496 146.053ZM247.319 145.829L245.231 145.718L245.416 142.245L247.505 142.357L247.319 145.829ZM243.143 145.606L241.055 145.494L241.24 142.021L243.328 142.133L243.143 145.606ZM238.966 145.383L236.878 145.271L237.063 141.798L239.152 141.91L238.966 145.383ZM234.829 145.167L232.739 145.103L232.845 141.627L234.935 141.691L234.829 145.167ZM230.648 145.039L228.558 144.975L228.665 141.499L230.755 141.563L230.648 145.039ZM226.468 144.911L224.378 144.847L224.484 141.371L226.574 141.435L226.468 144.911ZM222.287 144.783L220.197 144.719L220.303 141.243L222.394 141.307L222.287 144.783ZM218.107 144.655L216.016 144.59L216.123 141.114L218.213 141.179L218.107 144.655ZM213.926 144.526L211.836 144.462L211.942 140.986L214.033 141.05L213.926 144.526Z"
              fill="#0C604C"/>
        <path d="M209.746 144.398L207.089 144.317L206.977 141.66L208.789 141.583L208.81 140.89L209.852 140.922L209.833 141.539L210.449 141.512L210.493 142.555L209.801 142.584L209.746 144.398Z"
              fill="#0C604C"/>
        <path d="M206.892 139.652L206.807 137.646L210.279 137.498L210.364 139.505L206.892 139.652ZM206.722 135.639L206.637 133.632L210.109 133.484L210.194 135.491L206.722 135.639ZM206.552 131.625L206.467 129.618L209.939 129.47L210.024 131.477L206.552 131.625ZM206.382 127.611L206.297 125.604L209.769 125.456L209.854 127.463L206.382 127.611ZM206.212 123.597L206.127 121.59L209.599 121.442L209.684 123.449L206.212 123.597ZM206.042 119.583L205.957 117.576L209.429 117.428L209.514 119.435L206.042 119.583ZM205.872 115.569L205.787 113.562L209.26 113.414L209.345 115.421L205.872 115.569ZM205.702 111.555L205.618 109.548L209.09 109.401L209.175 111.408L205.702 111.555ZM205.533 107.541L205.448 105.534L208.92 105.386L209.005 107.393L205.533 107.541ZM205.363 103.527L205.278 101.52L208.75 101.373L208.835 103.38L205.363 103.527ZM205.193 99.5127L205.108 97.5058L208.58 97.3586L208.665 99.3656L205.193 99.5127Z"
              fill="#0C604C"/>
        <path d="M208.451 94.3093L204.979 94.4565L205.023 95.4989L208.495 95.3517L208.451 94.3093Z" fill="#0C604C"/>
        <path d="M347.093 10.0968C315.437 10.0968 289.774 35.7779 289.774 67.4571C289.774 91.968 324.088 136.695 339.616 155.681C343.481 160.406 350.704 160.406 354.569 155.681C370.097 136.695 404.411 91.968 404.411 67.4571C404.411 35.7779 378.748 10.0968 347.093 10.0968ZM347.093 99.4477C329.438 99.4477 315.125 85.125 315.125 67.4571C315.125 49.7891 329.438 35.4664 347.093 35.4664C364.748 35.4664 379.06 49.7891 379.06 67.4571C379.06 85.125 364.748 99.4477 347.093 99.4477Z"
              fill="#FFEBC2"/>
        <path d="M346.839 132.13C349.312 115.837 357.413 107.075 361.493 96.0237C357.029 98.2816 352.095 99.4546 347.093 99.4477C329.438 99.4477 315.125 85.125 315.125 67.457C315.125 52.0229 326.048 39.1424 340.579 36.1319C338.396 31.905 336.933 27.2258 336.797 21.5874C336.72 17.9396 337.184 14.3004 338.175 10.789C310.755 15.0759 289.774 38.8137 289.774 67.457C289.774 91.9679 324.088 136.695 339.616 155.681C340.679 156.984 342.064 157.986 343.633 158.588C345.202 159.189 346.901 159.37 348.561 159.112C345.782 148.615 345.698 139.651 346.839 132.13Z"
              fill="#FFCB68"/>
        <path d="M347.093 195.312C353.563 195.312 358.808 190.063 358.808 183.588C358.808 177.113 353.563 171.864 347.093 171.864C340.622 171.864 335.377 177.113 335.377 183.588C335.377 190.063 340.622 195.312 347.093 195.312Z"
              fill="url(#paint0_linear_3643_21327-159482)"/>
        <path d="M206.715 106.107C213.185 106.107 218.431 100.858 218.431 94.3828C218.431 87.9076 213.185 82.6585 206.715 82.6585C200.245 82.6585 194.999 87.9076 194.999 94.3828C194.999 100.858 200.245 106.107 206.715 106.107Z"
              fill="#FFEBC2"/>
        <path d="M199.787 125.704C198.537 123.765 196.255 119.638 196.109 114.097C195.826 103.328 204.532 92.1881 205.604 92.6703C206.182 92.9303 206.099 93.2765 205.688 94.6745C204.833 97.586 202.539 103.416 202.617 104.753C202.775 107.506 206.746 107.613 208.841 111.265C210.349 113.896 212.067 115.985 207.994 121.876C204.803 126.492 200.044 125.701 199.787 125.704Z"
              fill="#FCC8AF"/>
        <path d="M71.8953 286.566L74.9629 276.002L62.1557 266.505L54.1724 263.518L58.8991 278.299L71.8953 286.566Z"
              fill="#FCC8AF"/>
        <path d="M53.3378 252.779C44.158 219.215 58.8961 207.798 63.0795 192.723C67.0983 178.241 72.6224 200.294 74.6779 199.722C87.1904 196.242 93.3647 200.385 97.3598 196.43C104.139 189.717 96.9532 167.299 82.412 163.002C66.0204 158.158 42.7557 174.896 36.732 194.758C30.886 214.034 29.2412 224.697 29.7925 228.139C31.2251 237.081 34.7858 243.865 37.4387 248.024C40.3891 248.974 50.3874 251.829 53.3378 252.779Z"
              fill="#1E8161"/>
        <path d="M138.953 346.361C138.245 343.022 137.978 338.43 138.939 331.875C140.652 317.303 122.795 304.285 122.151 290.73C118.382 211.375 136.171 211.442 128.119 195.755C115.536 171.24 145.736 178.493 135.836 168.592C126.462 159.218 109.868 158.877 88.3503 159.738C86.5807 159.808 94.8425 149.575 79.2699 154.487C69.0594 157.707 60.9361 162.349 59.282 170.332C57.5208 178.832 56.3616 183.807 56.193 184.943C55.4207 190.145 55.8841 195.908 59.8998 203.482C69.812 222.177 70.8914 243.178 65.9614 282.844C63.3683 303.709 20.188 297.274 5.20888 316.543C-2.9765 327.073 -1.47996 336.679 -7.08929 346.361L138.953 346.361Z"
              fill="#0C604C"/>
        <path d="M106.189 159.547L100.832 158.763C100.832 158.763 100.836 163.99 87.1902 164.709C79.6169 164.709 74.7203 160.462 74.7203 160.462L71.8206 162.578C71.8206 162.578 78.1823 170.53 88.3 170.328C101.358 170.067 106.189 159.547 106.189 159.547Z"
              fill="#FFCB68"/>
        <path d="M196.162 118.998C189.533 131.334 183.48 146.444 173.162 151.615C155.434 160.5 148.267 163.142 144.382 163.73C125.588 166.572 116.981 154.667 112.225 161.811C103.911 174.297 110.774 190.531 126.161 191.295C139.23 191.944 154.692 185.848 164.711 181.414C168.975 179.526 182.359 170.49 187.591 163.586C192.941 156.526 204.505 140.074 207.256 126.865C205.844 122.908 204.785 122.264 203.084 120.646C201.256 118.908 197.346 118.567 196.162 118.998Z"
              fill="#1E8161"/>
        <path d="M60.5235 263.518C60.5235 263.518 55.3941 254.24 51.9679 247.122C48.5417 240.005 42.7777 233.699 42.7777 233.699H31.0084C31.0084 233.699 32.7275 242.677 37.2958 250.874C41.864 259.072 50.2895 273.097 54.1725 276.755C58.0555 280.412 60.137 277.297 61.279 275.042C62.4211 272.787 62.5423 266.337 60.5235 263.518Z"
              fill="#1E8161"/>
        <path style="mix-blend-mode:multiply" opacity="0.3"
              d="M122.292 346.361C123.597 340.982 125.155 332.435 124.695 322.07C123.931 304.845 118.127 294.638 112.532 283.987C112.376 290.153 111.204 297.052 108.023 303.991C100.538 320.321 85.3857 329.459 72.9448 332.021C60.4827 334.588 56.7155 329.325 48.6989 334.22C43.5091 337.388 41.4324 341.825 39.5175 346.361H122.292Z"
              fill="url(#paint1_linear_3643_21327-981177)"/>
        <path d="M103.693 136.259C104.968 128.191 100.291 121.408 99.2638 119.948C94.965 113.838 93.9555 113.053 92.1367 112.12L89.6233 110.948C89.6233 110.948 89.4807 110.91 89.3323 110.876C87.7649 110.516 82.6202 110.962 81.6074 111.306C78.3728 112.404 76.4251 126.345 79.6739 145.351C79.5805 146.853 79.487 148.354 79.3934 149.855C71.9443 149.018 69.8146 149.781 69.4591 150.786C68.6892 152.962 75.4087 158.906 82.5426 161.203C91.4885 164.083 100.954 161.956 101.622 159.005C94.5749 154.453 96.0285 154.33 94.1762 150.567C93.3634 148.916 93.7045 147.812 94.1384 147.519C95.3996 146.669 102.754 142.201 103.693 136.259Z"
              fill="#FCC8AF"/>
        <path d="M93.4096 130.057C92.8732 127.63 89.3947 130.405 89.6826 132.989C89.9701 135.572 93.0609 138.535 95.1491 137.168C98.9406 134.686 94.747 136.106 93.4096 130.057Z"
              fill="#F0B196"/>
        <path d="M21.0551 131.173C33.3341 125.521 29.0094 105.28 42.3695 110.743C51.158 114.336 47.2347 122.107 52.1 123.653C58.8469 125.796 60.8554 125.261 68.1587 118.905C72.0068 115.556 72.4342 111.86 78.1707 108.226C80.6996 106.624 88.6869 104.94 91.7427 105.34C92.519 105.442 94.2289 106.957 95.0263 110.434C95.2751 111.519 94.9468 114.36 94.5486 117.037C94.2569 118.998 95.0837 119.556 93.6107 121.604C93.0043 122.448 91.717 123.851 91.8148 125.823C91.9071 127.682 94.4285 129.37 93.9845 130.214C93.6674 130.818 92.1764 130.202 91.521 130.806C89.3293 132.829 89.7258 134.302 91.4403 136.309C92.6567 137.733 96.0233 137.437 94.7527 139.232C93.7956 144.266 92.2535 143.499 90.4478 146.221C81.7538 159.329 75.5348 168.704 66.1214 172.193C53.6581 176.812 48.2775 161.659 42.6012 158.763C30.8508 152.77 25.6162 177.885 15.2419 165.857C2.28798 150.839 2.79368 139.58 21.0551 131.173Z"
              fill="#002A35"/>
        <path d="M95.1155 111.73C95.1155 111.73 97.5735 115.444 99.1085 117.243C100.643 119.042 100.648 119.518 100.821 121.128C100.995 122.738 103.265 124.125 103.593 124.797C103.92 125.469 104.814 127.324 104.247 128.91C103.68 130.495 103.884 135.152 104.084 137.589C104.284 140.027 103.55 142.139 101.13 143.586C98.71 145.033 95.7864 146.409 95.7864 146.409L95.3894 138.217L97.0257 136.803L94.7064 116.206L95.1155 111.73Z"
              fill="#FCC8AF"/>
        <path d="M93.5932 131.272C94.3759 131.672 94.8265 132.035 95.2129 133.112C95.5993 134.19 96.142 134.325 97.063 134.466C97.9839 134.606 97.6549 136.018 95.9445 136.175C94.234 136.331 93.1486 136.479 92.0057 134.972C90.8629 133.466 90.6245 132.881 91.1837 132.235C91.7429 131.589 92.9003 130.917 93.5932 131.272Z"
              fill="#FCC8AF"/>
        <path d="M94.1384 147.519C94.1384 147.519 92.9127 147.863 92.0645 147.599C91.2162 147.336 90.2162 147.069 90.2162 147.069C90.2162 147.069 90.3665 148.893 91.5507 150.03C92.7349 151.166 94.7343 151.812 94.7343 151.812C94.7343 151.812 93.6675 149.625 94.1384 147.519Z"
              fill="#F0B196"/>
    </g>
    <defs>
        <linearGradient id="paint0_linear_3643_21327-159482" x1="362.116" y1="160.767" x2="324.588" y2="217.688"
                        gradientUnits="userSpaceOnUse">
            <stop stop-color="#FCB148"/>
            <stop offset="0.0521" stop-color="#FDBA46"/>
            <stop offset="0.1424" stop-color="#FFC244"/>
            <stop offset="0.3183" stop-color="#FFC444"/>
            <stop offset="0.4849" stop-color="#FDB946"/>
            <stop offset="0.7754" stop-color="#F99C4D"/>
            <stop offset="0.8658" stop-color="#F8924F"/>
            <stop offset="1" stop-color="#F8924F"/>
        </linearGradient>
        <linearGradient id="paint1_linear_3643_21327-981177" x1="60.3725" y1="282.699" x2="90.3987" y2="344.398"
                        gradientUnits="userSpaceOnUse">
            <stop stop-color="#FFC444"/>
            <stop offset="0.9964" stop-color="#F36F56"/>
        </linearGradient>
        <clipPath id="clip0_3643_21327-917935">
            <rect width="429" height="284" fill="white"/>
        </clipPath>
    </defs>
</svg>