<svg width="100%" height="100%" viewBox="0 0 24 26" fill="none" xmlns="http://www.w3.org/2000/svg">
    <g clipPath="url(#clip0_3643_21044-668798)">
        <path d="M5.53114 18.1063C5.41605 18.1064 5.3043 18.0677 5.214 17.9963C5.12369 17.925 5.06014 17.8252 5.03364 17.7132C5.00715 17.6012 5.01926 17.4836 5.06802 17.3793C5.11678 17.2751 5.19933 17.1904 5.30227 17.1389C5.66076 17.0063 5.97521 16.7764 6.21038 16.4751C6.44555 16.1738 6.59214 15.8129 6.63371 15.433C6.6941 14.9633 6.89583 14.5232 7.21216 14.1708L8.74407 12.6389C9.16249 12.1986 9.1964 11.9458 9.19088 11.858C9.18838 11.8223 9.18291 11.7264 9.01885 11.5912C8.81143 11.4186 8.19105 11.3618 6.36864 12.8818L4.30495 14.4297C4.25143 14.4716 4.1901 14.5023 4.12455 14.5202C4.059 14.538 3.99055 14.5426 3.9232 14.5337C3.85585 14.5247 3.79096 14.5025 3.73234 14.4681C3.67371 14.4338 3.62253 14.3881 3.58178 14.3338C3.54103 14.2794 3.51154 14.2174 3.49503 14.1515C3.47853 14.0856 3.47534 14.0171 3.48566 13.95C3.49597 13.8828 3.51958 13.8184 3.55511 13.7605C3.59063 13.7026 3.63736 13.6523 3.69254 13.6127L5.73509 12.0808C7.07296 10.9648 8.60594 9.92656 9.66909 10.8032C9.82438 10.921 9.95293 11.0704 10.0462 11.2416C10.1395 11.4127 10.1955 11.6017 10.2104 11.7961C10.2029 12.0923 10.1337 12.3838 10.0071 12.6518C9.88048 12.9198 9.6993 13.1584 9.47515 13.3523L7.93476 14.8927C7.76156 15.1101 7.65612 15.3737 7.63155 15.6506C7.55695 16.1798 7.34475 16.6802 7.01615 17.1018C6.68756 17.5233 6.25408 17.8512 5.75904 18.0527C5.68825 18.088 5.61023 18.1063 5.53114 18.1063Z"
              fill="#1C7F62"/>
        <path d="M1.53198 22.1914C1.46491 22.1915 1.39849 22.1783 1.33652 22.1526C1.27455 22.127 1.21824 22.0894 1.17082 22.0419C1.12339 21.9945 1.08578 21.9382 1.06013 21.8762C1.03448 21.8143 1.0213 21.7479 1.02134 21.6808V13.8913C1.01986 12.5948 1.01884 11.2538 2.19821 10.5233C2.79862 10.1518 3.4697 9.69051 3.47679 9.6855C3.58841 9.6088 3.72594 9.57957 3.8591 9.60426C3.99227 9.62895 4.11018 9.70553 4.18689 9.81715C4.26359 9.92877 4.29282 10.0663 4.26813 10.1995C4.24344 10.3326 4.16686 10.4505 4.05524 10.5272C4.02731 10.5467 3.35761 11.0065 2.73576 11.392C2.07402 11.8018 2.04129 12.6082 2.04262 13.8903V21.6808C2.04266 21.7479 2.02948 21.8143 2.00383 21.8762C1.97818 21.9382 1.94057 21.9945 1.89315 22.0419C1.84572 22.0894 1.78941 22.127 1.72744 22.1526C1.66547 22.1783 1.59905 22.1915 1.53198 22.1914Z"
              fill="#1C7F62"/>
        <path d="M1.02127 25.2552C0.322621 25.2552 0.0364084 24.9762 0.000510637 24.2595L0 22.1914C9.18086e-05 22.1659 0.00191728 22.1404 0.00546382 22.1151C0.0250003 21.8588 0.14038 21.6192 0.328626 21.444C0.516871 21.2689 0.76417 21.1711 1.02127 21.1701H8.68083C8.81783 21.1578 8.95588 21.1756 9.08524 21.2224C9.21459 21.2692 9.33211 21.3438 9.4295 21.4409C9.52688 21.5381 9.60177 21.6554 9.64887 21.7846C9.69597 21.9139 9.71415 22.0519 9.70211 22.1889L9.68214 24.218C9.69086 24.3567 9.66987 24.4957 9.62059 24.6256C9.5713 24.7556 9.49485 24.8735 9.39635 24.9716C9.29784 25.0696 9.17955 25.1455 9.04937 25.1941C8.91919 25.2428 8.78012 25.2631 8.64146 25.2538L1.02127 25.2552ZM1.02127 22.2365V24.234L8.64146 24.2325C8.64841 24.2325 8.65489 24.2325 8.66087 24.232V24.2155L8.68083 22.1914H1.03026C1.02849 22.2067 1.02548 22.2217 1.02127 22.2365Z"
              fill="#1C7F62"/>
        <path d="M8.17016 22.1914C8.10309 22.1914 8.03667 22.1782 7.9747 22.1526C7.91273 22.1269 7.85642 22.0893 7.809 22.0419C7.76157 21.9945 7.72396 21.9382 7.69831 21.8762C7.67267 21.8142 7.65949 21.7478 7.65953 21.6807V20.1488C7.64006 19.744 7.70756 19.3396 7.85748 18.963C8.00741 18.5864 8.23628 18.2463 8.52868 17.9656C8.72407 17.7927 8.87753 17.5776 8.97741 17.3365C9.0773 17.0954 9.121 16.8348 9.10519 16.5744V15.3957C9.10519 15.2603 9.15899 15.1304 9.25475 15.0346C9.35052 14.9389 9.4804 14.8851 9.61583 14.8851C9.75126 14.8851 9.88114 14.9389 9.9769 15.0346C10.0727 15.1304 10.1265 15.2603 10.1265 15.3957V16.5744C10.1419 16.9607 10.0748 17.3459 9.92967 17.7043C9.78452 18.0626 9.56463 18.386 9.28468 18.6527C9.07759 18.8403 8.91568 19.0723 8.8111 19.3315C8.70651 19.5906 8.66196 19.87 8.6808 20.1488V21.6807C8.68084 21.7478 8.66766 21.8142 8.64201 21.8762C8.61636 21.9382 8.57875 21.9945 8.53133 22.0419C8.4839 22.0893 8.42759 22.1269 8.36562 22.1526C8.30365 22.1782 8.23723 22.1914 8.17016 22.1914Z"
              fill="#1C7F62"/>
        <path d="M7.6596 23.7233H6.63832C6.50289 23.7233 6.37301 23.6695 6.27725 23.5737C6.18148 23.478 6.12769 23.3481 6.12769 23.2127C6.12769 23.0772 6.18148 22.9474 6.27725 22.8516C6.37301 22.7558 6.50289 22.702 6.63832 22.702H7.6596C7.79503 22.702 7.92491 22.7558 8.02067 22.8516C8.11644 22.9474 8.17023 23.0772 8.17023 23.2127C8.17023 23.3481 8.11644 23.478 8.02067 23.5737C7.92491 23.6695 7.79503 23.7233 7.6596 23.7233Z"
              fill="#1C7F62"/>
        <path d="M9.5529 17.7061C9.43048 17.7059 9.31219 17.6619 9.21956 17.5818C9.12693 17.5018 9.06613 17.3912 9.04825 17.2701C9.03036 17.149 9.05656 17.0255 9.1221 16.9221C9.18763 16.8187 9.28812 16.7423 9.40527 16.7067L22.6109 12.7214C22.7431 12.6797 22.8535 12.5876 22.9182 12.465C22.9829 12.3424 22.9966 12.1993 22.9565 12.0666L20.0475 2.13965C20.0288 2.07348 19.997 2.01174 19.954 1.95804C19.911 1.90435 19.8577 1.85979 19.7973 1.82699C19.7394 1.79544 19.6758 1.77571 19.6103 1.76894C19.5447 1.76217 19.4784 1.7685 19.4153 1.78756L3.75139 6.50647C3.61933 6.54829 3.50907 6.64046 3.44448 6.76301C3.37989 6.88556 3.36617 7.02862 3.40631 7.1612L4.59262 10.8698C4.61491 10.9341 4.62411 11.0023 4.61968 11.0702C4.61525 11.1382 4.59728 11.2045 4.56683 11.2654C4.53637 11.3263 4.49405 11.3805 4.44235 11.4248C4.39064 11.4691 4.3306 11.5026 4.26576 11.5233C4.20092 11.5441 4.13258 11.5517 4.06477 11.5456C3.99695 11.5396 3.93103 11.52 3.87089 11.4881C3.81074 11.4562 3.75758 11.4126 3.71453 11.3599C3.67148 11.3071 3.63941 11.2463 3.62021 11.181L2.42992 7.46044C2.31158 7.06804 2.35315 6.64477 2.54558 6.2829C2.738 5.92103 3.06567 5.64989 3.45717 5.52859L19.1209 0.810154C19.3129 0.751674 19.5146 0.732053 19.7143 0.752438C19.9139 0.772823 20.1076 0.832805 20.2838 0.928877C20.4629 1.02576 20.6209 1.15732 20.7487 1.31587C20.8764 1.47442 20.9714 1.65681 21.0279 1.85242L23.937 11.7795C24.0522 12.1709 24.0085 12.5919 23.8154 12.9512C23.6223 13.3106 23.2954 13.5795 22.9055 13.6995L9.70047 17.6844C9.65262 17.6988 9.60289 17.7062 9.5529 17.7061Z"
              fill="#1C7F62"/>
        <path d="M11.1173 14.0774C10.9944 14.0776 10.8756 14.0335 10.7826 13.9533C10.6897 13.873 10.6287 13.7619 10.611 13.6403C10.5933 13.5188 10.6201 13.3949 10.6863 13.2914C10.7525 13.188 10.8538 13.1119 10.9716 13.077L12.9294 12.4949C12.9937 12.4758 13.0612 12.4696 13.1279 12.4765C13.1946 12.4835 13.2593 12.5035 13.3183 12.5354C13.3773 12.5674 13.4294 12.6107 13.4717 12.6628C13.5139 12.7149 13.5455 12.7748 13.5646 12.8391C13.5837 12.9034 13.59 12.9708 13.583 13.0375C13.5761 13.1043 13.5561 13.169 13.5241 13.2279C13.4922 13.2869 13.4489 13.339 13.3968 13.3813C13.3447 13.4236 13.2848 13.4552 13.2205 13.4743L11.2627 14.0564C11.2154 14.0701 11.1665 14.0772 11.1173 14.0774Z"
              fill="#1C7F62"/>
        <path d="M15.0332 12.9139C14.9104 12.9141 14.7916 12.87 14.6986 12.7897C14.6057 12.7094 14.5447 12.5983 14.5271 12.4768C14.5094 12.3552 14.5361 12.2314 14.6023 12.1279C14.6685 12.0245 14.7699 11.9483 14.8877 11.9135L16.8454 11.3314C16.9753 11.2928 17.1152 11.3074 17.2343 11.3719C17.3535 11.4365 17.4421 11.5457 17.4807 11.6756C17.5193 11.8055 17.5047 11.9453 17.4401 12.0645C17.3756 12.1836 17.2664 12.2722 17.1365 12.3108L15.1787 12.8929C15.1314 12.9066 15.0825 12.9137 15.0332 12.9139Z"
              fill="#1C7F62"/>
        <path d="M15.4775 8.99089C15.0567 8.99057 14.6471 8.85454 14.3097 8.60301C13.9723 8.35147 13.725 7.99784 13.6045 7.5946L13.5534 7.42303C13.4063 6.92648 13.4622 6.39186 13.7089 5.93648C13.9555 5.4811 14.3727 5.14216 14.8689 4.99403L16.9988 4.36119C17.4952 4.21387 18.0299 4.26966 18.4853 4.51633C18.9406 4.763 19.2794 5.18036 19.4272 5.6767L19.4783 5.84827C19.6254 6.34481 19.5695 6.87942 19.3229 7.33479C19.0763 7.79017 18.6591 8.12912 18.1629 8.27727L16.033 8.9101C15.8527 8.96364 15.6656 8.99085 15.4775 8.99089ZM17.5549 5.30169C17.4652 5.30162 17.3759 5.31466 17.29 5.34039L15.1602 5.97358C14.9234 6.04392 14.7242 6.2054 14.6064 6.42253C14.4886 6.63966 14.4619 6.89467 14.5321 7.1315L14.5831 7.30303C14.6535 7.53987 14.8151 7.73906 15.0323 7.8568C15.2496 7.97453 15.5046 8.00117 15.7415 7.93086L17.8713 7.29802C18.1081 7.22768 18.3073 7.0662 18.4251 6.84908C18.5428 6.63195 18.5696 6.37694 18.4994 6.1401L18.4483 5.96858C18.3909 5.77609 18.273 5.60725 18.112 5.48711C17.951 5.36698 17.7556 5.30195 17.5547 5.30169H17.5549Z"
              fill="#1C7F62"/>
        <path d="M18.9488 11.7505C18.826 11.7507 18.7072 11.7066 18.6142 11.6264C18.5212 11.5461 18.4603 11.435 18.4426 11.3134C18.4249 11.1919 18.4516 11.068 18.5178 10.9645C18.5841 10.8611 18.6854 10.785 18.8032 10.7501L20.7615 10.168C20.8914 10.1294 21.0312 10.144 21.1504 10.2085C21.2695 10.2731 21.3581 10.3823 21.3967 10.5122C21.4353 10.6421 21.4207 10.782 21.3562 10.9011C21.2916 11.0202 21.1824 11.1088 21.0525 11.1474L19.0943 11.7295C19.047 11.7433 18.998 11.7503 18.9488 11.7505Z"
              fill="#1C7F62"/>
        <path d="M20.24 20.6595C20.194 20.6595 20.1478 20.657 20.1013 20.6525L10.1654 19.726C10.0986 19.7198 10.0337 19.7005 9.97432 19.6691C9.91499 19.6378 9.86241 19.5951 9.81958 19.5435C9.73308 19.4392 9.69154 19.3049 9.70411 19.17C9.71668 19.0351 9.78232 18.9107 9.88659 18.8242C9.99087 18.7377 10.1252 18.6961 10.2601 18.7087L20.1996 19.6357C20.2481 19.6412 20.2972 19.6366 20.3439 19.6223C20.3906 19.608 20.4338 19.5842 20.4709 19.5524C20.5152 19.5152 20.5517 19.4694 20.5782 19.4179C20.6046 19.3663 20.6205 19.31 20.625 19.2523L20.9376 15.4489C20.9487 15.3139 21.013 15.1888 21.1164 15.1011C21.2197 15.0135 21.3536 14.9705 21.4887 14.9816C21.6237 14.9928 21.7488 15.0571 21.8364 15.1604C21.9241 15.2637 21.967 15.3977 21.9559 15.5327L21.6428 19.341C21.6266 19.534 21.5721 19.7217 21.4824 19.8933C21.3928 20.0649 21.2698 20.2169 21.1206 20.3403C20.8733 20.5462 20.5618 20.6591 20.24 20.6595Z"
              fill="#1C7F62"/>
        <path d="M19.1337 18.3299C19.1172 18.3299 19.1008 18.329 19.0838 18.3274L17.3973 18.1634C17.2651 18.1472 17.1444 18.0799 17.061 17.976C16.9777 17.8721 16.9382 17.7397 16.9511 17.6071C16.964 17.4745 17.0282 17.3522 17.13 17.2663C17.2318 17.1804 17.3632 17.1376 17.4961 17.1472L19.1825 17.3113C19.3128 17.3242 19.4331 17.3867 19.5187 17.4858C19.6042 17.5849 19.6484 17.7131 19.6421 17.8439C19.6358 17.9746 19.5796 18.098 19.485 18.1885C19.3903 18.2789 19.2646 18.3296 19.1337 18.33V18.3299Z"
              fill="#1C7F62"/>
        <path d="M15.6228 17.8672C15.6038 17.8672 15.5848 17.8662 15.5659 17.8642L14.5606 17.7525C14.426 17.7375 14.3028 17.6697 14.2181 17.5639C14.1335 17.4582 14.0944 17.3231 14.1093 17.1885C14.1243 17.0538 14.1921 16.9306 14.2979 16.846C14.4036 16.7614 14.5387 16.7222 14.6733 16.7372L15.6786 16.8489C15.8086 16.8629 15.9283 16.9263 16.0129 17.026C16.0976 17.1256 16.1408 17.254 16.1336 17.3845C16.1264 17.5151 16.0695 17.6379 15.9744 17.7277C15.8794 17.8175 15.7535 17.8674 15.6228 17.8672Z"
              fill="#1C7F62"/>
    </g>
    <defs>
        <clipPath id="clip0_3643_21044-668798">
            <rect width="24" height="24.5108" fill="white" transform="translate(0 0.744629)"/>
        </clipPath>
    </defs>
</svg>
