<svg width="100%" height="100%" viewBox="0 0 37 37" fill="none" xmlns="http://www.w3.org/2000/svg">
    <path d="M18.5 36.9273C8.29917 36.9273 0.00732422 28.6517 0.00732422 18.4709C0.00732422 8.29009 8.29917 0 18.5 0C28.7009 0 36.9928 8.27555 36.9928 18.4564C37.0073 28.6517 28.7009 36.9273 18.5 36.9273ZM18.5 1.74528C9.27554 1.74528 1.75604 9.25 1.75604 18.4709C1.75604 27.6918 9.27554 35.182 18.5 35.182C27.7391 35.182 35.244 27.6773 35.244 18.4709C35.244 9.26454 27.7391 1.74528 18.5 1.74528Z"
          fill="#1C7F62"/>
    <path d="M28.4677 28.5208C27.9868 28.5208 27.5934 28.1281 27.5934 27.6481V24.6812C27.3456 22.7177 22.9593 20.8852 18.5 20.8852C13.9971 20.8852 9.40668 22.7614 9.40668 24.6084V27.6627C9.40668 28.1426 9.01322 28.5353 8.53232 28.5353C8.05142 28.5353 7.65796 28.1426 7.65796 27.6627V24.6084C7.65796 21.0452 13.9534 19.1399 18.5 19.1399C23.4547 19.1399 28.9923 21.2051 29.3275 24.5503C29.3275 24.5794 29.3275 24.6084 29.3275 24.6375V27.6627C29.3421 28.1281 28.9486 28.5208 28.4677 28.5208Z"
          fill="#1C7F62"/>
    <path d="M19.4036 20.8706H17.6112C15.7167 20.8706 14.0409 19.9398 13.0354 18.3109C12.5253 17.4964 12.2776 16.6238 12.2776 15.693V10.5298C12.2776 7.62104 14.6238 5.35217 17.6258 5.35217H19.4182C22.4202 5.35217 24.7664 7.62104 24.7664 10.5298V15.693C24.7664 16.6093 24.5186 17.4819 24.0086 18.2964C22.9739 19.9398 21.3126 20.8706 19.4036 20.8706ZM17.6112 7.112C15.5564 7.112 14.0117 8.58095 14.0117 10.5444V15.7075C14.0117 16.3038 14.172 16.8565 14.5072 17.4092C15.2067 18.5291 16.2996 19.1399 17.5966 19.1399H19.389C20.7006 19.1399 21.7935 18.5145 22.493 17.3946C22.8282 16.8565 22.9885 16.3038 22.9885 15.7075V10.5298C22.9885 8.58095 21.4438 7.09746 19.389 7.09746H17.6112V7.112Z"
          fill="#1C7F62"/>
    <path d="M18.5145 26.2228C18.3105 26.2228 18.1065 26.1501 17.9316 26.0047L12.6854 21.4088C12.3211 21.0888 12.292 20.5361 12.598 20.1725C12.9186 19.8089 13.4723 19.7798 13.8367 20.0852L18.5145 24.1721L23.1632 20.1143C23.5275 19.7944 24.0812 19.838 24.4018 20.2016C24.7224 20.5652 24.6787 21.1179 24.3144 21.4378L19.0828 26.0047C18.9225 26.1501 18.7185 26.2228 18.5145 26.2228Z"
          fill="#1C7F62"/>
    <path d="M21.6769 12.6533C20.2925 12.6533 18.5729 12.4352 17.2468 11.548C15.4835 10.3699 13.691 11.5043 13.6182 11.548C13.2101 11.8098 12.671 11.6934 12.4087 11.3007C12.1463 10.8935 12.2484 10.3699 12.6564 10.0936C12.773 10.0208 15.4689 8.26102 18.2231 10.0936C19.8553 11.1844 22.7261 10.9226 23.7025 10.7335C24.1688 10.6317 24.6351 10.9517 24.7371 11.4171C24.8246 11.8825 24.5185 12.3479 24.0522 12.4497C23.9648 12.4642 22.9738 12.6533 21.6769 12.6533Z"
          fill="#1C7F62"/>
</svg>

