<svg width="100%" height="100%" viewBox="0 0 37 37" fill="none" xmlns="http://www.w3.org/2000/svg">
    <g clip-path="url(#clip0_3814_28968-872328)">
        <path d="M18.4927 37C8.29185 37 0 28.7245 0 18.5437C0 8.36285 8.29185 0.0727539 18.4927 0.0727539C28.6936 0.0727539 36.9854 8.3483 36.9854 18.5291C37 28.7245 28.6936 37 18.4927 37ZM18.4927 1.81804C9.26822 1.81804 1.74872 9.32275 1.74872 18.5437C1.74872 27.7646 9.26822 35.2547 18.4927 35.2547C27.7318 35.2547 35.2367 27.75 35.2367 18.5437C35.2367 9.3373 27.7318 1.81804 18.4927 1.81804Z"
              fill="#A2A2BA"/>
        <path d="M28.4604 28.5935C27.9795 28.5935 27.586 28.2009 27.586 27.7209V24.7539C27.3383 22.7905 22.9519 20.9579 18.4927 20.9579C13.9897 20.9579 9.39935 22.8341 9.39935 24.6812V27.7354C9.39935 28.2154 9.00589 28.6081 8.52499 28.6081C8.0441 28.6081 7.65063 28.2154 7.65063 27.7354V24.6812C7.65063 21.1179 13.946 19.2126 18.4927 19.2126C23.4474 19.2126 28.985 21.2779 29.3202 24.623C29.3202 24.6521 29.3202 24.6812 29.3202 24.7103V27.7354C29.3348 28.2009 28.9413 28.5935 28.4604 28.5935Z"
              fill="#A2A2BA"/>
        <path d="M19.3963 20.9434H17.6039C15.7094 20.9434 14.0336 20.0126 13.028 18.3837C12.518 17.5692 12.2703 16.6965 12.2703 15.7657V10.6026C12.2703 7.6938 14.6165 5.42493 17.6184 5.42493H19.4109C22.4128 5.42493 24.759 7.6938 24.759 10.6026V15.7657C24.759 16.682 24.5113 17.5546 24.0013 18.3691C22.9666 20.0126 21.3053 20.9434 19.3963 20.9434ZM17.6039 7.18475C15.5491 7.18475 14.0044 8.6537 14.0044 10.6171V15.7803C14.0044 16.3766 14.1647 16.9293 14.4999 17.4819C15.1994 18.6018 16.2923 19.2127 17.5893 19.2127H19.3817C20.6933 19.2127 21.7862 18.5873 22.4857 17.4674C22.8209 16.9293 22.9812 16.3766 22.9812 15.7803V10.6026C22.9812 8.6537 21.4365 7.17021 19.3817 7.17021H17.6039V7.18475Z"
              fill="#A2A2BA"/>
        <path d="M18.5072 26.2956C18.3032 26.2956 18.0991 26.2229 17.9243 26.0774L12.6781 21.4815C12.3138 21.1615 12.2846 20.6089 12.5907 20.2453C12.9113 19.8817 13.465 19.8526 13.8293 20.158L18.5072 24.2449L23.1558 20.1871C23.5202 19.8671 24.0739 19.9108 24.3945 20.2744C24.7151 20.638 24.6714 21.1906 24.3071 21.5106L19.0755 26.0774C18.9152 26.2229 18.7112 26.2956 18.5072 26.2956Z"
              fill="#A2A2BA"/>
        <path d="M21.6695 12.7261C20.2851 12.7261 18.5656 12.5079 17.2395 11.6207C15.4762 10.4427 13.6837 11.5771 13.6109 11.6207C13.2028 11.8825 12.6636 11.7662 12.4013 11.3735C12.139 10.9662 12.241 10.4427 12.6491 10.1663C12.7656 10.0936 15.4616 8.33377 18.2158 10.1663C19.848 11.2571 22.7188 10.9953 23.6951 10.8063C24.1615 10.7044 24.6278 11.0244 24.7298 11.4898C24.8172 11.9552 24.5112 12.4206 24.0449 12.5224C23.9575 12.537 22.9665 12.7261 21.6695 12.7261Z"
              fill="#A2A2BA"/>
    </g>
    <defs>
        <clipPath id="clip0_3814_28968-872328">
            <rect width="37" height="37" fill="white"/>
        </clipPath>
    </defs>
</svg>
