<svg width="100%" height="100%" viewBox="0 0 120 120" fill="none" xmlns="http://www.w3.org/2000/svg">
    <path d="M0 4C0 1.79086 1.79086 0 4 0H116C118.209 0 120 1.79086 120 4V116C120 118.209 118.209 120 116 120H4C1.79086 120 0 118.209 0 116V4Z"
          fill="#F5FAFF"/>
    <path d="M108.046 58.0459C106.932 56.1371 105.676 54.3334 104.292 52.6646C93.031 39.1346 72.9722 34.4284 48.3347 51.7609C45.9535 53.4409 43.711 54.3334 41.566 54.6859C40.9285 54.7909 40.306 54.8509 39.6872 54.8696C39.0497 54.8884 38.4272 54.8621 37.8085 54.8021C26.896 53.7334 18.631 41.4146 8.95973 56.6471C2.14223 67.3759 7.45973 86.1559 7.38098 87.5809L39.6872 87.4421V87.2396H88.486L110.326 87.1459C110.375 86.7446 113.873 87.2171 113.918 86.8121C114.998 76.5109 112.835 66.2696 108.046 58.0459Z"
          fill="#DCF1E1"/>
    <path opacity="0.6"
          d="M114.193 82.7246C114.196 84.1909 114.11 85.6609 113.923 87.1384C113.878 87.4721 110.379 87.0859 110.33 87.4159L88.4902 87.4909H39.6914V87.4684L88.4902 87.2996L110.33 87.2246C110.379 86.8946 113.878 87.2846 113.923 86.9471C114.099 85.5371 114.193 84.1234 114.193 82.7246Z"
          fill="#EBF3FA"/>
    <path d="M104.589 60.7833V87.2996H41.5703V64.2258H46.4003V57.9258H51.2303V66.4346H55.1416V64.5333H61.9553V67.7471H64.9178V60.5283H72.8566V48.1533H79.1303V54.7533H80.5628V49.2221H86.8366V57.7421H92.5253V52.5146H98.6078V57.7421H99.7403V60.7833H104.589Z"
          fill="white"/>
    <path d="M56.4234 41.7371H43.0547C42.7959 41.7371 42.5859 41.5271 42.5859 41.2684V28.3271C42.5859 28.0684 42.7959 27.8584 43.0547 27.8584H56.4234C56.6822 27.8584 56.8922 28.0684 56.8922 28.3271V41.2684C56.8922 41.5271 56.6822 41.7371 56.4234 41.7371Z"
          fill="#FF9F00"/>
    <path d="M55.8445 41.1369H43.6345C43.3983 41.1369 43.207 40.9457 43.207 40.7094V28.8894C43.207 28.6532 43.3983 28.4619 43.6345 28.4619H55.8445C56.0808 28.4619 56.272 28.6532 56.272 28.8894V40.7094C56.272 40.9419 56.077 41.1369 55.8445 41.1369Z"
          fill="#FDC969"/>
    <path d="M49.7416 30.0261C49.9052 30.0261 50.0378 29.8935 50.0378 29.7298C50.0378 29.5662 49.9052 29.4336 49.7416 29.4336C49.5779 29.4336 49.4453 29.5662 49.4453 29.7298C49.4453 29.8935 49.5779 30.0261 49.7416 30.0261Z"
          fill="#FF9F00"/>
    <path d="M51.8335 30.1461C51.9123 30.0036 52.0923 29.9511 52.2348 30.0298C52.3773 30.1086 52.4298 30.2886 52.351 30.4311C52.2723 30.5736 52.0923 30.6261 51.9498 30.5473C51.8073 30.4686 51.7548 30.2886 51.8335 30.1461Z"
          fill="#FF9F00"/>
    <path d="M53.8813 31.7733C54.02 31.6833 54.2038 31.7246 54.29 31.8633C54.38 32.0021 54.3388 32.1858 54.2 32.2721C54.0613 32.3621 53.8775 32.3208 53.7913 32.1821C53.705 32.0471 53.7463 31.8633 53.8813 31.7733Z"
          fill="#FF9F00"/>
    <path d="M55.1724 34.6997C55.2347 34.5484 55.1625 34.3752 55.0112 34.3129C54.8599 34.2507 54.6868 34.3228 54.6245 34.4741C54.5622 34.6254 54.6344 34.7985 54.7857 34.8608C54.937 34.9231 55.1101 34.851 55.1724 34.6997Z"
          fill="#FF9F00"/>
    <path d="M54.3822 37.2151C54.4984 37.3314 54.4984 37.5189 54.3822 37.6351C54.2659 37.7514 54.0784 37.7514 53.9622 37.6351C53.8459 37.5189 53.8459 37.3314 53.9622 37.2151C54.0784 37.0989 54.2659 37.0989 54.3822 37.2151Z"
          fill="#FF9F00"/>
    <path d="M52.3119 39.5886C52.4755 39.5886 52.6081 39.456 52.6081 39.2923C52.6081 39.1287 52.4755 38.9961 52.3119 38.9961C52.1483 38.9961 52.0156 39.1287 52.0156 39.2923C52.0156 39.456 52.1483 39.5886 52.3119 39.5886Z"
          fill="#FF9F00"/>
    <path d="M49.7416 40.3386C49.9052 40.3386 50.0378 40.206 50.0378 40.0423C50.0378 39.8787 49.9052 39.7461 49.7416 39.7461C49.5779 39.7461 49.4453 39.8787 49.4453 40.0423C49.4453 40.206 49.5779 40.3386 49.7416 40.3386Z"
          fill="#FF9F00"/>
    <path d="M47.6362 30.1461C47.5574 30.0036 47.3774 29.9511 47.2349 30.0298C47.0924 30.1086 47.0399 30.2886 47.1187 30.4311C47.1974 30.5736 47.3774 30.6261 47.5199 30.5473C47.6624 30.4686 47.7149 30.2886 47.6362 30.1461Z"
          fill="#FF9F00"/>
    <path d="M45.5854 31.7733C45.4467 31.6833 45.2629 31.7246 45.1767 31.8633C45.0867 32.0021 45.1279 32.1858 45.2667 32.2721C45.4054 32.3621 45.5892 32.3208 45.6754 32.1821C45.7654 32.0471 45.7242 31.8633 45.5854 31.7733Z"
          fill="#FF9F00"/>
    <path d="M44.5736 34.8864C44.7372 34.8864 44.8698 34.7538 44.8698 34.5902C44.8698 34.4266 44.7372 34.2939 44.5736 34.2939C44.41 34.2939 44.2773 34.4266 44.2773 34.5902C44.2773 34.7538 44.41 34.8864 44.5736 34.8864Z"
          fill="#FF9F00"/>
    <path d="M45.0911 37.2151C44.9748 37.3314 44.9748 37.5189 45.0911 37.6351C45.2073 37.7514 45.3948 37.7514 45.5111 37.6351C45.6273 37.5189 45.6273 37.3314 45.5111 37.2151C45.3948 37.0989 45.2073 37.0989 45.0911 37.2151Z"
          fill="#FF9F00"/>
    <path d="M47.1595 39.5886C47.3231 39.5886 47.4558 39.456 47.4558 39.2923C47.4558 39.1287 47.3231 38.9961 47.1595 38.9961C46.9959 38.9961 46.8633 39.1287 46.8633 39.2923C46.8633 39.456 46.9959 39.5886 47.1595 39.5886Z"
          fill="#FF9F00"/>
    <path d="M49.9564 34.8864C50.12 34.8864 50.2527 34.7538 50.2527 34.5902C50.2527 34.4266 50.12 34.2939 49.9564 34.2939C49.7928 34.2939 49.6602 34.4266 49.6602 34.5902C49.6602 34.7538 49.7928 34.8864 49.9564 34.8864Z"
          fill="#FF9F00"/>
    <path d="M50.0005 30.8887H49.918V34.5899H50.0005V30.8887Z" fill="#FF9F00"/>
    <path d="M51.8012 32.9523L49.8398 34.4922L49.9904 34.6839L51.9517 33.144L51.8012 32.9523Z" fill="#FF9F00"/>
    <path d="M41.5702 54.375V87.1613H37.8164V54.4912C39.0314 54.615 40.2802 54.5925 41.5702 54.375Z" fill="#DEEDFF"/>
    <path d="M108.047 63.2321V87.1571H104.293V58.7959C105.68 60.1721 106.933 61.6571 108.047 63.2321Z" fill="white"/>
    <path d="M116.721 87.544H3.88375C3.79375 87.544 3.71875 87.469 3.71875 87.379V87.2177C3.71875 87.1277 3.79375 87.0527 3.88375 87.0527H116.721C116.811 87.0527 116.886 87.1277 116.886 87.2177V87.379C116.886 87.469 116.811 87.544 116.721 87.544Z"
          fill="#2E3552"/>
    <path d="M112.05 78.7462C111.788 81.7312 110.104 82.6537 109.361 82.5712C108.619 82.4924 104.284 80.8387 104.19 81.4462C104.096 82.0537 106.706 84.0374 108.533 84.1312C108.533 84.1312 105.083 87.9337 102.791 86.8387C100.5 85.7399 100.305 83.9999 98.8725 83.3474C97.4438 82.6949 96.225 82.6949 96.8138 83.3624C97.4025 84.0262 99.99 84.6749 100.808 86.1224C100.999 86.4637 101.19 86.7787 101.333 87.0562L96.5063 87.0449C94.9763 86.2837 93.6863 85.2337 93.5888 84.1049C93.5813 84.0187 93.5738 83.9362 93.5663 83.8574C93.4163 82.1174 93.4163 82.1174 93.4163 82.1174C93.4163 82.1174 90.9375 79.2262 92.2275 76.8262C92.4413 76.4287 92.76 76.0424 93.21 75.6862C93.21 75.6862 95.52 74.2874 97.4025 74.3999C97.4025 74.3999 95.9438 76.8487 95.5313 78.3037C95.385 78.8174 95.37 79.2074 95.595 79.3199C95.8425 79.4474 96.1613 79.0762 96.4875 78.4874C97.3125 77.0062 98.2088 74.1187 98.2088 74.1187C98.2088 74.1187 99.5963 73.9837 101.179 73.9649C101.888 73.9574 102.634 73.9687 103.313 74.0287C104.063 74.0962 104.726 74.2162 105.158 74.4224C105.158 74.4224 105.064 74.5012 104.906 74.6324C104.67 74.8312 104.291 75.1499 103.871 75.5212C102.626 76.6237 101.006 78.1799 101.61 78.3187C102.101 78.4312 103.639 77.5162 105.008 76.6124C106.283 75.7687 107.411 74.9287 107.411 74.9287C107.411 74.9287 112.309 75.7612 112.05 78.7462Z"
          fill="#0C604C"/>
    <path d="M109.646 78.825C109.646 78.825 96.3561 78.3113 93.4236 82.1138C93.4236 82.1138 92.7748 84.0563 90.7761 85.8263L90.4648 86.6738C90.4648 86.6738 92.7673 84.2475 93.5923 84.0975C93.5886 84.1013 92.3023 79.395 109.646 78.825Z"
          fill="#002A35"/>
    <path d="M91.3331 85.8075C91.2206 85.9312 91.0481 86.1037 90.8044 86.3287L90.8006 86.3325C90.7144 86.4112 90.6319 86.4937 90.5531 86.5837C90.4294 86.7187 90.3131 86.8687 90.2006 87.03H89.5781C90.2156 86.2425 90.7744 85.83 90.7744 85.83C90.8231 85.7962 91.9669 85.1062 91.3331 85.8075Z"
          fill="#002A35"/>
    <path d="M78.9119 77.1708C78.9119 77.1708 84.2744 74.1671 81.7731 70.0946C81.7731 70.0946 79.7706 67.5933 77.6256 66.9483C77.6256 66.9483 78.7694 73.0233 77.6256 73.1658C76.4819 73.3083 76.8381 66.3033 76.8381 66.3033C76.8381 66.3033 71.1906 63.5883 68.9744 63.8021C68.9744 63.8021 72.4769 69.7346 71.3331 69.5921C70.1894 69.4496 66.2594 63.4458 66.2594 63.4458C66.2594 63.4458 60.4694 62.3733 59.5394 65.8046C58.6094 69.2358 60.1131 70.9496 60.9681 71.1671C61.8269 71.3808 67.3319 71.3096 67.1856 72.0258C67.0431 72.7421 63.3269 73.8858 61.2531 73.2408C61.2531 73.2408 63.5406 78.8883 66.5444 78.6033C69.5481 78.3183 70.4744 76.4583 72.3344 76.3158C74.1944 76.1733 75.5519 76.6721 74.6219 77.1746C73.6919 77.6733 70.5456 77.3396 69.0456 78.6146C67.5456 79.8896 66.3306 80.6771 69.1169 81.2508C71.9031 81.8208 76.9094 81.4646 77.9106 79.3196C78.9119 77.1708 78.9119 77.1708 78.9119 77.1708Z"
          fill="#0C604C"/>
    <path d="M62.1836 66.877C62.1836 66.877 77.1948 71.7369 78.9123 77.1707C78.9123 77.1707 78.8411 79.6007 80.3411 82.3907V83.4632C80.3411 83.4632 78.7698 79.8182 77.9111 79.3157C77.9111 79.3157 81.2711 74.5945 62.1836 66.877Z"
          fill="#002A35"/>
    <path d="M81.7309 87.0183H80.8722C80.8459 85.777 80.7034 84.3858 80.2797 83.3245C80.2272 83.1933 80.1709 83.0658 80.1072 82.942V82.9383C79.9309 82.5895 79.8072 82.3345 79.7322 82.147C79.2934 81.0708 80.3434 82.3908 80.3434 82.3908C80.3434 82.3908 81.5997 84.2995 81.7309 87.0183Z"
          fill="#002A35"/>
    <path d="M87.4394 73.0276C87.4394 73.0276 80.3706 69.0713 83.6706 63.6976C83.6706 63.6976 86.3106 60.4013 89.1344 59.5501C89.1344 59.5501 87.6269 67.5601 89.1344 67.7476C90.6419 67.9351 90.1694 58.7026 90.1694 58.7026C90.1694 58.7026 97.6131 55.1213 100.534 55.4063C100.534 55.4063 95.9181 63.2288 97.4257 63.0376C98.9331 62.8501 104.116 54.9338 104.116 54.9338C104.116 54.9338 111.747 53.5201 112.973 58.0426C114.199 62.5651 112.219 64.8263 111.087 65.1113C109.954 65.3926 102.702 65.2988 102.889 66.2438C103.077 67.1851 107.978 68.6926 110.712 67.8451C110.712 67.8451 107.697 75.2888 103.741 74.9138C99.7844 74.5388 98.5581 72.0863 96.1094 71.8988C93.6606 71.7113 91.8682 72.3713 93.0944 73.0313C94.3207 73.6913 98.4644 73.2488 100.444 74.9288C102.424 76.6126 104.026 77.6476 100.351 78.4013C96.6757 79.1551 90.0794 78.6826 88.7594 75.8588C87.4394 73.0276 87.4394 73.0276 87.4394 73.0276Z"
          fill="#1C8061"/>
    <path d="M109.491 59.46C109.491 59.46 89.7022 65.8687 87.4409 73.0275C87.4409 73.0275 87.5347 76.23 85.5547 79.905V81.3187C85.5547 81.3187 87.6284 76.5112 88.7572 75.855C88.7609 75.855 84.3322 69.6375 109.491 59.46Z"
          fill="#0C604C"/>
    <path d="M86.3613 79.5821C86.3613 79.5821 86.3613 79.5859 86.3613 79.5821C86.2601 79.8296 86.1026 80.1709 85.8663 80.6321C85.8663 80.6321 85.8663 80.6321 85.8663 80.6359C85.7838 80.7971 85.7088 80.9621 85.6413 81.1384C84.9626 82.8371 84.8313 85.1809 84.8538 87.0259L83.7176 87.0221C83.5826 82.9084 85.5588 79.9084 85.5588 79.9084C85.5888 79.8709 86.9351 78.1834 86.3613 79.5821Z"
          fill="#0C604C"/>
    <path d="M35.0321 49.0689L34.6608 49.1214C33.0146 49.3502 31.4808 48.1914 31.2521 46.5414L30.9858 44.6102C30.7571 42.9639 31.9158 41.4302 33.5658 41.2014L33.9371 41.1489C35.5833 40.9202 37.1171 42.0789 37.3458 43.7289L37.6158 45.6602C37.8408 47.3064 36.6783 48.8402 35.0321 49.0689Z"
          fill="#FDC969"/>
    <path d="M28.4406 43.9995C28.4406 43.9995 23.8206 46.362 27.1881 51.432C27.1881 51.432 23.2206 51.8895 22.2231 50.7495C22.2231 50.7495 22.3731 51.2483 22.5494 51.492C22.5494 51.492 18.7056 50.9895 17.3294 49.5308C15.9494 48.0758 20.2431 28.6958 30.4844 32.6633C30.4844 32.6633 39.5856 33.492 37.0056 43.7558C34.4219 54.0158 37.8156 54.5858 37.8156 54.5858C37.8156 54.5858 36.7919 54.8933 36.3381 54.8145C36.3381 54.8145 35.7156 54.447 35.6444 54.057C35.6444 54.057 35.6781 54.657 35.8169 54.8708C35.8169 54.8708 32.0969 54.6045 30.4994 52.9133C28.9019 51.222 27.5594 46.0583 28.4406 43.9995Z"
          fill="#002A35"/>
    <path d="M36.0867 64.5607C34.7105 65.6257 33.8367 69.4657 31.613 70.0995C23.288 72.477 18.818 62.5882 17.3555 57.7582C18.473 57.042 19.5455 56.8432 20.168 56.7345C20.7717 56.6332 21.413 56.5507 21.9417 56.4982C22.853 55.7257 24.1092 52.6882 24.188 48.0645L24.5892 48.1507L31.3242 49.6282C31.3242 49.6282 31.1292 51.7545 31.0805 53.757C31.043 55.3245 30.9942 55.6995 31.1142 55.887C31.6392 55.9732 32.2542 57.312 32.2542 57.312C32.2542 57.312 32.2542 57.3157 32.258 57.3195C32.3517 57.462 34.4405 60.5332 36.0867 64.5607Z"
          fill="#FAC6AD"/>
    <path d="M31.317 49.6316C31.317 49.6316 31.1183 51.7579 31.0733 53.7604C27.2895 53.5766 25.362 50.0816 24.582 48.1504L31.317 49.6316Z"
          fill="#F1B79A"/>
    <path d="M65.5752 84.5626C65.5752 84.5626 61.6152 84.7088 57.3139 84.7238C56.8039 84.7276 56.2902 84.7276 55.7764 84.7238C52.2739 84.7088 48.8314 84.5851 47.3652 84.2101C45.9327 83.8426 40.4277 80.1113 36.0252 75.5888V75.5851C35.6839 76.3988 35.4252 77.0213 35.4177 77.0701C35.2864 78.0863 35.0727 79.1026 34.8102 80.0776C33.8127 83.8013 32.1477 86.9288 32.0914 87.0376L29.7327 87.0338L11.3164 87.0076C11.3164 87.0076 14.7964 81.6488 13.8589 67.9238C13.8364 67.5751 17.0652 56.5013 17.0652 56.5013C17.0652 56.5013 19.5739 56.0626 22.4764 55.8301C22.7502 56.0813 23.3127 63.3638 26.9427 63.7876C27.5314 63.8551 31.3189 69.6376 31.3189 69.6376L32.4664 63.7313L31.1089 55.8938C32.8489 56.4038 33.8052 56.5876 35.2527 57.1651C36.2389 57.5588 37.0527 58.2863 37.5627 59.2163C40.0977 63.8476 48.3252 78.7913 49.1652 79.1401C49.9527 79.4663 52.9152 80.0588 56.0502 80.6326H56.0539C60.2502 81.3976 64.7539 82.1251 64.7539 82.1251L65.5752 84.5626Z"
          fill="#FDC969"/>
    <path d="M33.4059 87.0371L32.0859 87.0409L32.0897 87.0371H33.4059Z" fill="#FDC969"/>
    <path d="M32.4389 51.6567C32.4389 51.6567 23.4839 51.4804 23.6789 45.9042C23.8739 40.3279 22.8502 36.5517 28.5764 36.4279C34.3027 36.3042 35.3377 38.4717 35.7277 40.3467C36.1139 42.2254 34.7752 51.5592 32.4389 51.6567Z"
          fill="#FAC6AD"/>
    <path d="M57.3122 84.7244C56.8022 84.7282 56.2884 84.7282 55.7747 84.7244C52.2722 84.7094 48.8297 84.5857 47.3634 84.2107C45.9309 83.8432 40.4259 80.1119 36.0234 75.5894V75.5857C36.0234 75.5857 36.9534 72.0269 37.3547 71.4344C37.7559 70.8382 39.3347 76.6244 43.0284 78.9794C46.7222 81.3344 52.5009 82.9844 55.3059 82.3169C57.1922 81.8669 57.3872 83.5657 57.3122 84.7244Z"
          fill="#FF9F00"/>
    <path d="M30.6797 48.552C30.6797 48.552 30.7359 49.2195 32.2059 49.3245C32.2059 49.3245 33.4397 49.4145 33.4884 48.6945C33.4922 48.6982 32.3672 48.0232 30.6797 48.552Z"
          fill="white"/>
    <path d="M31.1652 50.8087C26.0764 49.1999 24.8277 44.3849 24.8164 44.3362L25.3602 44.2012L25.0902 44.2687L25.3602 44.2012C25.3714 44.2462 26.5527 48.7649 31.3339 50.2762C31.3677 50.2874 31.3977 50.2949 31.4314 50.3062L31.2702 50.8424C31.2364 50.8274 31.2027 50.8162 31.1652 50.8087Z"
          fill="#002A35"/>
    <path d="M31.7434 51.1839L31.2634 51.0339C31.0196 50.9552 30.8809 50.6927 30.9596 50.4489C31.0384 50.2052 31.3009 50.0664 31.5446 50.1452L32.0246 50.2952C32.2684 50.3739 32.4071 50.6364 32.3284 50.8802C32.2534 51.1239 31.9871 51.2627 31.7434 51.1839Z"
          fill="#FF9F00"/>
    <path d="M32.9492 35.6887C32.9492 35.6887 30.658 42.48 27.2155 43.6312C23.7767 44.7825 22.6367 43.4212 22.6367 43.4212C22.6367 43.4212 25.1717 41.0925 25.4605 37.3275C25.4605 37.3237 31.018 32.91 32.9492 35.6887Z"
          fill="#002A35"/>
    <path d="M28.668 37.6876C28.668 37.6876 33.3367 37.4251 34.7317 38.7564C35.7367 39.7164 35.7142 40.2151 35.793 41.4939C35.793 41.4939 37.8367 38.3439 35.733 36.1389C33.5055 33.7989 28.668 37.6876 28.668 37.6876Z"
          fill="#002A35"/>
    <path d="M32.7497 36.4049C32.7497 36.4049 31.5797 42.9037 27.3047 45.2624C27.3047 45.2624 31.4447 41.0249 31.5197 36.7837C31.5909 32.5462 32.7497 36.4049 32.7497 36.4049Z"
          fill="#002A35"/>
    <path d="M17.3243 49.5306C18.7005 50.9894 22.5443 51.4919 22.5443 51.4919C22.368 51.2481 22.218 50.7494 22.218 50.7494C24.1943 52.3506 29.0468 51.1881 29.0468 51.1881C25.1768 50.3331 26.4293 44.7494 27.7455 44.5094C28.5143 40.2981 30.033 35.0519 30.7455 32.6969C30.573 32.6706 30.4755 32.6594 30.4755 32.6594C20.2418 28.6956 15.948 48.0756 17.3243 49.5306Z"
          fill="#002A35"/>
    <path d="M25.7312 48.4956L25.3599 48.5481C23.7137 48.7769 22.1799 47.6181 21.9512 45.9681L21.6812 44.0369C21.4524 42.3906 22.6112 40.8569 24.2612 40.6281L24.6324 40.5756C26.2787 40.3469 27.8124 41.5094 28.0412 43.1556L28.3112 45.0869C28.5399 46.7331 27.3774 48.2669 25.7312 48.4956Z"
          fill="#FDC969"/>
    <path d="M23.3113 41.4453C23.0901 41.0328 23.8626 37.8303 24.9951 35.3478C25.5426 34.1478 26.9263 32.5428 27.9126 32.1265C28.2688 31.9765 28.7413 32.0365 29.1276 32.1265C29.4088 32.1903 30.1963 32.5578 30.1963 32.5578C26.9526 33.5703 24.1326 40.3653 24.3388 41.0703C24.3313 41.0478 24.3238 41.0328 24.3163 41.0215L23.3113 41.4453Z"
          fill="#FDC969"/>
    <path d="M24.9885 46.5751L24.8048 46.6013C23.9835 46.7138 23.2185 46.1363 23.106 45.3151L22.971 44.3513C22.8585 43.5301 23.436 42.7651 24.2573 42.6526L24.441 42.6263C25.2623 42.5138 26.0273 43.0913 26.1398 43.9126L26.2748 44.8763C26.3873 45.6938 25.8098 46.4588 24.9885 46.5751Z"
          fill="#FF9F00"/>
    <path d="M46.7188 81.3336C46.7188 81.3336 50.5588 81.1124 50.9338 81.3149C51.5413 81.6411 53.6037 82.9686 53.9262 83.3549C54.2487 83.7411 55.0963 85.2899 55.0963 85.2899C55.0963 85.2899 54.7287 85.3911 54.5637 85.2411C54.3987 85.0911 53.1463 83.7599 53.1463 83.7599L54.4325 85.7136C54.4325 85.7136 53.9862 85.6949 53.81 85.4999C53.6337 85.3049 52.43 84.0824 52.43 84.0824L52.0213 83.9999C52.0213 83.9999 52.4375 84.3336 52.6662 84.6374C52.8912 84.9411 53.0412 85.2674 53.0412 85.2674C53.0412 85.2674 52.6737 85.2036 52.5612 85.1511C52.4487 85.0949 51.3687 84.1536 51.3687 84.1536L51.9387 84.9336C51.9387 84.9336 51.5525 84.9149 51.425 84.8286C51.2975 84.7424 50.4575 83.9699 50.3075 83.9699C50.1575 83.9699 49.085 83.9286 48.6237 83.6811C48.1625 83.4374 46.7188 82.8786 46.7188 82.8786V81.3336Z"
          fill="#FAC6AD"/>
    <path d="M23.0053 54.7578C23.0053 54.7578 20.4366 55.5078 19.8516 56.0966C19.8516 56.0966 22.5366 62.9591 26.4066 66.1653L27.4416 65.4303V67.0991L31.3153 69.6341C31.3191 69.6341 22.8066 56.8316 23.0053 54.7578Z"
          fill="#FF9F00"/>
    <path d="M34.8113 80.0777C33.8138 83.8014 32.1488 86.9289 32.0925 87.0377H33.4088L32.0888 87.0414H19.8525C19.8525 87.0414 21.2738 87.0377 21.27 87.0339C21.2363 86.9102 23.34 81.2102 19.8525 78.8739C16.3613 76.5339 15.0938 70.7814 15.0938 70.7814L26.205 68.0664C26.205 68.0664 30.7837 74.7489 32.085 76.0202C33.0863 76.9989 35.4188 77.0702 35.4188 77.0702L34.8113 80.0777Z"
          fill="#FF9F00"/>
    <path d="M31.1106 55.8902C31.1106 55.8902 32.2919 65.2277 31.3206 69.6339C31.3206 69.6339 32.9069 66.7202 33.1281 66.1839L32.8619 64.5827L33.8856 64.9389C33.8856 64.9389 32.9819 57.4914 32.1644 56.1864C31.3469 54.8814 31.0469 54.7539 31.0469 54.7539L31.1106 55.8902Z"
          fill="#FF9F00"/>
    <path d="M65.5748 84.5627C65.5748 84.5627 60.621 84.7464 55.776 84.7239C54.576 82.8602 56.046 80.6289 56.046 80.6289H56.0498C60.246 81.3939 64.7498 82.1214 64.7498 82.1214L65.5748 84.5627Z"
          fill="#FAC6AD"/>
    <path d="M66.0456 87.0418H47.7344C47.7344 86.2355 48.3869 85.583 49.1931 85.583H66.0456V87.0418Z" fill="black"/>
    <path d="M94.3033 67.0986L87.5158 87.0411H59.0195L65.9945 67.0986H94.3033Z" fill="black"/>
    <path d="M94.305 67.0986L87.5775 86.8574L87.5175 87.0411H59.4375L66.4125 67.0986H94.305Z" fill="#002A35"/>
    <path opacity="0.3"
          d="M79.4568 76.8868C79.2806 77.6481 78.5193 78.2668 77.7581 78.2668C76.9968 78.2668 76.5206 77.6481 76.6968 76.8868C76.8731 76.1256 77.6343 75.5068 78.3956 75.5068C79.1568 75.5068 79.6331 76.1256 79.4568 76.8868Z"
          fill="#FDE9C0"/>
    <path d="M94.3033 67.0986L87.5758 86.8574H74.6758L90.407 67.0986H94.3033Z" fill="black"/>
    <path d="M46.7222 82.8827C46.7222 82.8827 37.2947 83.7077 32.0859 83.4752V78.3564C35.4984 79.2977 46.7184 81.3339 46.7184 81.3339L46.7222 82.8827Z"
          fill="#FAC6AD"/>
    <path d="M19.85 56.0967C19.85 56.0967 14.4575 56.2204 12.7887 58.0204C11.12 59.8242 14.4462 70.0092 14.4462 70.0092C14.4462 70.0092 24.4962 82.3167 29.5212 83.1829C29.5212 83.1829 31.7187 83.4829 32.7425 83.4979C32.7425 83.4979 31.7375 80.5692 33.6087 78.7317C33.6087 78.7317 31.4562 78.1279 31.3662 77.8617C31.28 77.5992 19.85 56.0967 19.85 56.0967Z"
          fill="#FDC969"/>
</svg>
