<svg width="100%" height="100%" viewBox="0 0 22 22" fill="none" xmlns="http://www.w3.org/2000/svg">
    <path d="M12.8144 22H9.18557C9.05449 22 8.92748 21.9546 8.82612 21.8715C8.72476 21.7884 8.65533 21.6727 8.62963 21.5442L8.24179 19.6057C7.78379 19.4389 7.34711 19.2185 6.9408 18.9492L5.4433 20.0722C5.33408 20.154 5.19904 20.1937 5.06292 20.184C4.9268 20.1743 4.79873 20.1159 4.70219 20.0195L1.98054 17.2978C1.88404 17.2013 1.82558 17.0732 1.81589 16.9371C1.80621 16.801 1.84596 16.6659 1.92783 16.5567L3.06186 15.0448C2.80764 14.6363 2.5889 14.2067 2.40802 13.7608L0.455831 13.3704C0.327303 13.3447 0.211649 13.2752 0.128543 13.1739C0.0454378 13.0725 1.41431e-05 12.9455 0 12.8144L0 9.18557C1.41431e-05 9.05449 0.0454378 8.92748 0.128543 8.82612C0.211649 8.72476 0.327303 8.65533 0.455831 8.62963L2.40335 8.24002C2.55544 7.87111 2.73715 7.51512 2.94668 7.17554C2.98718 7.10598 3.02785 7.03571 3.06871 6.9647L1.92783 5.4433C1.84596 5.33411 1.80621 5.19905 1.81589 5.06291C1.82558 4.92677 1.88404 4.7987 1.98054 4.70219L4.70219 1.98054C4.79873 1.8841 4.9268 1.82568 5.06292 1.816C5.19904 1.80632 5.33408 1.84602 5.4433 1.92783L6.95341 3.06031L6.97024 3.05011C7.37067 2.78978 7.79659 2.57091 8.24138 2.39691L8.62963 0.456012C8.65529 0.327451 8.72471 0.211755 8.82607 0.128614C8.92743 0.045472 9.05447 2.25276e-05 9.18557 0L12.8144 0C12.9455 1.41431e-05 13.0725 0.0454378 13.1739 0.128543C13.2752 0.211649 13.3447 0.327303 13.3704 0.455831L13.7586 2.39673C14.2034 2.57073 14.6293 2.7896 15.0298 3.04993L15.0466 3.06013L16.5567 1.92783C16.6659 1.84602 16.801 1.80632 16.9371 1.816C17.0732 1.82568 17.2013 1.8841 17.2978 1.98054L20.0195 4.70219C20.116 4.7987 20.1744 4.92677 20.1841 5.06291C20.1938 5.19905 20.154 5.33411 20.0722 5.4433L18.9397 6.95341L18.9499 6.97024C19.2102 7.37067 19.4291 7.79659 19.6031 8.24138L21.544 8.62963C21.6726 8.65529 21.7882 8.72471 21.8714 8.82607C21.9545 8.92743 22 9.05447 22 9.18557V12.8144C22 12.9455 21.9546 13.0725 21.8715 13.1739C21.7884 13.2752 21.6727 13.3447 21.5442 13.3704L19.6033 13.7586C19.4293 14.2034 19.2104 14.6293 18.9501 15.0298L18.9399 15.0466L20.0722 16.5567C20.154 16.6659 20.1938 16.801 20.1841 16.9371C20.1744 17.0732 20.116 17.2013 20.0195 17.2978L17.2978 20.0195C17.2013 20.1159 17.0732 20.1743 16.9371 20.184C16.801 20.1937 16.6659 20.154 16.5567 20.0722L15.0466 18.9397L15.0298 18.9499C14.6293 19.2102 14.2034 19.4291 13.7586 19.6031L13.3704 21.544C13.3447 21.6726 13.2753 21.7882 13.1739 21.8714C13.0726 21.9545 12.9455 22 12.8144 22ZM9.65047 20.866H12.3494L12.712 19.0538C12.7327 18.9507 12.7815 18.8554 12.8532 18.7785C12.9248 18.7017 13.0164 18.6462 13.1178 18.6183C13.5878 18.4705 14.034 18.2555 14.4425 17.98C14.5572 17.9104 14.6744 17.8394 14.7963 17.7682C14.8927 17.7121 15.0035 17.6856 15.1148 17.6921C15.2261 17.6985 15.3331 17.7376 15.4223 17.8045L16.8434 18.8705L18.8701 16.8437L17.8041 15.4227C17.7372 15.3335 17.698 15.2265 17.6916 15.1152C17.6851 15.0038 17.7116 14.893 17.7678 14.7967C17.8391 14.6747 17.91 14.5575 17.9796 14.4429C18.2551 14.0344 18.4701 13.5882 18.6179 13.1181C18.6458 13.0168 18.7013 12.9252 18.7781 12.8535C18.855 12.7819 18.9503 12.733 19.0534 12.7124L20.866 12.3495V9.65056L19.0538 9.28799C18.9507 9.26733 18.8554 9.21846 18.7785 9.14681C18.7017 9.07517 18.6462 8.98357 18.6183 8.88224C18.4705 8.41221 18.2555 7.96601 17.98 7.55748C17.9104 7.44276 17.8394 7.32559 17.7682 7.20366C17.7121 7.10732 17.6855 6.99654 17.692 6.8852C17.6984 6.77386 17.7376 6.66689 17.8045 6.57768L18.8705 5.15662L16.8437 3.1299L15.4227 4.19588C15.3335 4.26295 15.2266 4.30218 15.1152 4.30864C15.0038 4.3151 14.893 4.28849 14.7967 4.23216C14.6747 4.16086 14.5575 4.08996 14.4429 4.02042C14.0344 3.74494 13.5882 3.52995 13.1181 3.3821C13.0168 3.35423 12.9252 3.29875 12.8535 3.22186C12.7819 3.14497 12.733 3.04969 12.7124 2.94664L12.3495 1.13402H9.65056L9.28799 2.94623C9.26733 3.04928 9.21846 3.14456 9.14681 3.22145C9.07517 3.29834 8.98357 3.35382 8.88224 3.38169C8.41221 3.52954 7.96601 3.74453 7.55748 4.02001C7.44276 4.08955 7.32559 4.16063 7.20366 4.23176C7.10736 4.28807 6.99656 4.31467 6.88519 4.30821C6.77382 4.30176 6.66683 4.26253 6.57768 4.19547L5.15626 3.1299L3.1299 5.15626L4.19588 6.57732C4.26022 6.66312 4.2989 6.76541 4.30745 6.87232C4.31599 6.97923 4.29404 7.08637 4.24414 7.1813C4.14026 7.37912 4.0324 7.56473 3.92661 7.74631C3.69697 8.10292 3.51325 8.48707 3.37979 8.88968C3.35091 8.98937 3.29521 9.07922 3.21878 9.14944C3.14234 9.21966 3.0481 9.26756 2.94632 9.2879L1.13402 9.65047V12.3494L2.94623 12.712C3.04527 12.7318 3.13723 12.7777 3.21258 12.8449C3.28793 12.9122 3.34393 12.9984 3.3748 13.0945C3.55226 13.6048 3.79037 14.0918 4.08402 14.5453L4.23216 14.7967C4.28835 14.893 4.31488 15.0038 4.30842 15.1152C4.30197 15.2265 4.26282 15.3335 4.19588 15.4227L3.1299 16.8437L5.15626 18.8701L6.57732 17.8041C6.67093 17.734 6.78393 17.6945 6.90086 17.691C7.01779 17.6876 7.13293 17.7203 7.23052 17.7848C7.72955 18.1548 8.28824 18.4366 8.88238 18.6181C8.98371 18.646 9.0753 18.7014 9.14695 18.7783C9.21859 18.8552 9.26747 18.9505 9.28813 19.0535L9.65047 20.866Z"
          fill="#1C7F62"/>
    <path d="M10.9999 15.5414C10.1017 15.5414 9.22365 15.2751 8.47683 14.776C7.73 14.277 7.14792 13.5678 6.80419 12.7379C6.46046 11.9081 6.37053 10.995 6.54576 10.114C6.72099 9.23309 7.15352 8.42389 7.78864 7.78876C8.42376 7.15364 9.23296 6.72111 10.1139 6.54588C10.9948 6.37065 11.908 6.46059 12.7378 6.80431C13.5676 7.14804 14.2769 7.73012 14.7759 8.47695C15.2749 9.22378 15.5413 10.1018 15.5413 11C15.5399 12.204 15.061 13.3584 14.2096 14.2098C13.3583 15.0611 12.2039 15.54 10.9999 15.5414ZM10.9999 7.59264C10.326 7.59264 9.66719 7.79248 9.10686 8.16689C8.54652 8.54129 8.10979 9.07345 7.85189 9.69607C7.59399 10.3187 7.52652 11.0038 7.65799 11.6648C7.78946 12.3257 8.11398 12.9329 8.59051 13.4094C9.06704 13.8859 9.67418 14.2104 10.3351 14.3419C10.9961 14.4734 11.6812 14.4059 12.3038 14.148C12.9264 13.8901 13.4586 13.4534 13.833 12.893C14.2074 12.3327 14.4073 11.6739 14.4073 11C14.4063 10.0966 14.047 9.23053 13.4082 8.59174C12.7694 7.95295 11.9033 7.59364 10.9999 7.59264Z"
          fill="#1C7F62"/>
</svg>
