<svg width="100%" height="100%" viewBox="0 0 200 200" fill="none" xmlns="http://www.w3.org/2000/svg">
    <rect width="200" height="200" rx="8" fill="#F5FAFF"/>
    <path d="M100 186.58C139.239 186.58 171.048 182.449 171.048 177.352C171.048 172.256 139.239 168.124 100 168.124C60.7613 168.124 28.952 172.256 28.952 177.352C28.952 182.449 60.7613 186.58 100 186.58Z"
          fill="#EBEBEB"/>
    <path d="M40.304 49.6836H56.588L49.592 152.976H33.308L40.304 49.6836Z" fill="#9DDCA0"/>
    <path opacity="0.1" d="M40.304 49.6836H56.588L49.592 152.976H33.308L40.304 49.6836Z" fill="black"/>
    <path d="M56.5879 49.6836H59.9839L52.9879 152.976H49.5919L56.5879 49.6836Z" fill="#9DDCA0"/>
    <path opacity="0.3" d="M56.5879 49.6836H59.9839L52.9879 152.976H49.5919L56.5879 49.6836Z" fill="black"/>
    <g opacity="0.1">
        <path opacity="0.1"
              d="M44.9479 49.6836C44.7399 54.3236 44.4839 58.9636 44.2239 63.5996L43.3959 77.5116L42.4759 91.4156L41.9999 98.3676L41.4639 105.312L41.8079 98.3516L42.2079 91.3956L43.0399 77.4876L43.9599 63.5796C44.2479 58.9476 44.5759 54.3156 44.9479 49.6836Z"
              fill="black"/>
        <path opacity="0.1"
              d="M45.5079 71.9038C45.3719 75.0438 45.1879 78.1758 44.9999 81.3118L44.3999 90.7078L43.6919 100.1L43.2919 104.796L42.8679 109.484L43.0999 104.78L43.3759 100.08L43.9999 90.6798L44.7079 81.2878C44.9519 78.1598 45.1999 75.0318 45.5079 71.9038Z"
              fill="black"/>
        <path opacity="0.1"
              d="M49.5999 56C49.5039 58.688 49.3679 61.372 49.1999 64.056L48.7199 72.108L48.1439 80.152L47.8239 84.172C47.7039 85.512 47.5959 86.852 47.4639 88.172C47.5079 86.824 47.5759 85.484 47.6319 84.14L47.8399 80.112L48.3239 72.06L48.8999 64.016C49.1199 61.356 49.3359 58.676 49.5999 56Z"
              fill="black"/>
        <path opacity="0.1"
              d="M51.2 49.6519C51.2 51.1439 51.124 52.6319 51.06 54.1199C50.996 55.6079 50.892 57.0959 50.812 58.5839C50.732 60.0719 50.6 61.5598 50.472 63.0438L50.272 65.2678C50.188 66.0118 50.12 66.7518 50.028 67.4918C50.028 66.7478 50.06 66.0038 50.08 65.2558L50.172 63.0238C50.236 61.5358 50.336 60.0478 50.42 58.5598C50.504 57.0718 50.628 55.5879 50.756 54.0999C50.884 52.6119 51.02 51.1319 51.2 49.6519Z"
              fill="black"/>
        <path opacity="0.1"
              d="M50.5318 86.9839C50.3438 90.3879 50.1318 93.7839 49.8758 97.1999L49.1118 107.42L48.2598 117.636L47.7998 122.744L47.2998 127.844L47.6078 122.728L47.9558 117.62L48.7198 107.404L49.5718 97.1999C49.8718 93.7919 50.1798 90.3999 50.5318 86.9839Z"
              fill="black"/>
        <path opacity="0.1"
              d="M44.948 123.3C44.928 125.184 44.864 127.064 44.792 128.944C44.72 130.824 44.616 132.7 44.532 134.576C44.448 136.452 44.312 138.332 44.18 140.208L43.968 143.008C43.888 143.944 43.816 144.884 43.72 145.808C43.72 144.864 43.76 143.928 43.776 142.984L43.876 140.184C43.948 138.304 44.052 136.424 44.136 134.548C44.22 132.672 44.356 130.792 44.492 128.92C44.628 127.048 44.764 125.176 44.948 123.3Z"
              fill="black"/>
        <path opacity="0.1"
              d="M37.5199 129.6C37.4559 131.556 37.3479 133.508 37.2319 135.46C37.1159 137.412 36.9719 139.36 36.8319 141.308C36.6919 143.256 36.5279 145.208 36.3479 147.152L36.0759 150.072C35.9719 151.044 35.8799 152.016 35.7599 152.988C35.7879 152.012 35.8439 151.036 35.8839 150.056L36.0479 147.132C36.1599 145.18 36.3079 143.232 36.4479 141.28C36.5879 139.328 36.7519 137.384 36.9279 135.436C37.1039 133.488 37.2919 131.532 37.5199 129.6Z"
              fill="black"/>
        <path opacity="0.1"
              d="M41.4479 112.476C41.3559 115.404 41.2199 118.332 41.0759 121.276L40.5999 130.052L40.0279 138.8L39.7119 143.2L39.3519 147.58L39.5199 143.18L39.7279 138.78L40.2039 129.98L40.7759 121.208C40.9799 118.316 41.1999 115.396 41.4479 112.476Z"
              fill="black"/>
        <path opacity="0.1"
              d="M53.1999 49.6836C53.1119 52.4836 52.9799 55.3236 52.8439 58.1396L52.3999 66.5916L51.8479 75.0356L51.5439 79.2556C51.4239 80.6636 51.3239 82.0556 51.1919 83.4756C51.2319 82.0636 51.2999 80.6556 51.3479 79.2436L51.5479 75.0196L51.9999 66.5676L52.5519 58.1236C52.7599 55.3076 52.9639 52.4956 53.1999 49.6836Z"
              fill="black"/>
        <path opacity="0.1"
              d="M39.7399 93.6797C39.6359 96.0797 39.4919 98.5117 39.3399 100.924C39.1879 103.336 38.9999 105.744 38.8319 108.156C38.6639 110.568 38.4319 112.976 38.2319 115.384L37.8999 118.984C37.7719 120.184 37.6599 121.384 37.5239 122.584C37.5719 121.384 37.6439 120.184 37.7039 118.96L37.9279 115.34C38.0839 112.94 38.2679 110.54 38.4399 108.108C38.6119 105.676 38.8399 103.288 39.0399 100.88C39.2399 98.4717 39.4759 96.0837 39.7399 93.6797Z"
              fill="black"/>
    </g>
    <path d="M33.308 92.8438H46.704L42.976 152.976H29.58L33.308 92.8438Z" fill="#9DDCA0"/>
    <path d="M46.7038 92.8438H49.4958L45.7678 152.976H42.9758L46.7038 92.8438Z" fill="#9DDCA0"/>
    <path opacity="0.3" d="M46.7038 92.8438H49.4958L45.7678 152.976H42.9758L46.7038 92.8438Z" fill="black"/>
    <g opacity="0.1">
        <path opacity="0.1"
              d="M39.1039 92.8799C39.0199 95.5399 38.8879 98.1959 38.7519 100.852C38.6159 103.508 38.4479 106.16 38.2999 108.8L37.7519 116.756L37.4479 120.732C37.3319 122.06 37.2279 123.384 37.0999 124.708C37.1399 123.38 37.2039 122.052 37.2559 120.708L37.4519 116.708L37.9079 108.8C38.0879 106.144 38.2519 103.492 38.4519 100.84C38.6519 98.1879 38.8559 95.5279 39.1039 92.8799Z"
              fill="black"/>
        <path opacity="0.1"
              d="M39.4239 105.6C39.3799 107.4 39.2919 109.2 39.1959 110.988C39.0999 112.776 38.9759 114.588 38.8639 116.368C38.7519 118.148 38.5999 119.968 38.4639 121.744L38.2199 124.428C38.1239 125.324 38.0399 126.22 37.9359 127.112C37.9359 126.212 37.9959 125.316 38.0279 124.416L38.1599 121.724C38.2559 119.928 38.3839 118.124 38.4919 116.344C38.5999 114.564 38.7599 112.744 38.9159 110.968C39.0719 109.192 39.1999 107.388 39.4239 105.6Z"
              fill="black"/>
        <path opacity="0.1"
              d="M41.7639 96.4956C41.7639 98.0356 41.6799 99.5756 41.6079 101.112C41.5359 102.648 41.4359 104.184 41.3519 105.724C41.2679 107.264 41.1359 108.792 41.0039 110.324L40.7959 112.624C40.7159 113.392 40.6439 114.156 40.5479 114.924C40.5479 114.152 40.5879 113.384 40.6039 112.612L40.6999 110.304C40.7719 108.768 40.8759 107.232 40.9599 105.696C41.0439 104.16 41.1759 102.624 41.3079 101.092C41.4399 99.5596 41.5999 98.0236 41.7639 96.4956Z"
              fill="black"/>
        <path opacity="0.1"
              d="M42.6799 92.8638C42.7039 93.7198 42.6799 94.5718 42.6799 95.4238C42.6799 96.2758 42.6079 97.1318 42.5559 97.9838C42.5039 98.8358 42.4359 99.6838 42.3439 100.532L42.2039 101.804C42.1439 102.228 42.0959 102.652 42.0239 103.076C42.0239 102.648 42.0239 102.22 42.0239 101.792L42.0519 100.512C42.0759 99.6598 42.1239 98.8078 42.1759 97.9558C42.2279 97.1038 42.2999 96.2558 42.3919 95.4078C42.4839 94.5598 42.5439 93.7078 42.6799 92.8638Z"
              fill="black"/>
        <path opacity="0.1"
              d="M42.2999 114.231C42.2279 116.179 42.1119 118.131 41.9879 120.079C41.8639 122.027 41.7079 123.983 41.5879 125.931C41.4679 127.879 41.2639 129.831 41.0799 131.779L40.7919 134.703C40.6839 135.675 40.5879 136.647 40.4639 137.619C40.4999 136.639 40.5559 135.663 40.5999 134.687L40.7759 131.763C40.8999 129.811 41.0559 127.867 41.1759 125.915C41.2959 123.963 41.4959 122.023 41.6839 120.075C41.8719 118.127 42.0639 116.179 42.2999 114.231Z"
              fill="black"/>
        <path opacity="0.1"
              d="M34.7758 94.9678C34.6478 98.7798 34.4758 102.596 34.2998 106.412L33.7158 117.86L33.0398 129.308L32.6719 135.028L32.2719 140.744L32.4879 135.016L32.7479 129.292L33.3318 117.848L33.9998 106.4C34.2358 102.596 34.4838 98.7998 34.7758 94.9678Z"
              fill="black"/>
        <path opacity="0.1"
              d="M39.1038 135.02C39.0838 136.52 39.0238 138.02 38.9558 139.52C38.8878 141.02 38.7998 142.512 38.7038 144C38.6078 145.488 38.4918 146.992 38.3638 148.484L38.1598 150.724C38.0758 151.472 38.0078 152.22 37.9158 152.964C37.9158 152.212 37.9478 151.464 37.9678 150.712L38.0598 148.464C38.1278 146.968 38.2278 145.472 38.3118 143.972C38.3958 142.472 38.5238 140.98 38.6558 139.488C38.7878 137.996 38.9238 136.512 39.1038 135.02Z"
              fill="black"/>
        <path opacity="0.1"
              d="M34.8519 138.62C34.8519 139.82 34.7919 141.02 34.7319 142.22C34.6719 143.42 34.5959 144.62 34.5119 145.82C34.4279 147.02 34.3239 148.22 34.1959 149.42L33.9999 151.2C33.9239 151.8 33.8599 152.4 33.7719 152.992C33.7719 152.388 33.7958 151.792 33.8078 151.188L33.8879 149.388C33.9399 148.188 34.0239 146.988 34.1119 145.788C34.1999 144.588 34.2999 143.388 34.4239 142.188C34.5479 140.988 34.6799 139.812 34.8519 138.62Z"
              fill="black"/>
        <path opacity="0.1"
              d="M37.0998 128.824C37.0998 130.5 37.0198 132.18 36.9518 133.856C36.8838 135.532 36.7998 137.2 36.6958 138.88C36.5918 140.56 36.4838 142.228 36.3518 143.9L36.1478 146.4C36.0638 147.236 35.9958 148.072 35.8998 148.908C35.8998 148.068 35.9358 147.228 35.9558 146.392L36.0518 143.876C36.1198 142.2 36.2198 140.524 36.3038 138.848C36.3878 137.172 36.5198 135.5 36.6518 133.828C36.7838 132.156 36.9198 130.492 37.0998 128.824Z"
              fill="black"/>
        <path opacity="0.1"
              d="M43.8358 92.8799C43.8358 94.4999 43.7638 96.1119 43.6958 97.7239C43.6278 99.3359 43.5358 100.952 43.4558 102.564C43.3758 104.176 43.2478 105.788 43.1198 107.396L42.9198 109.796C42.8398 110.596 42.7718 111.396 42.6798 112.196C42.6798 111.396 42.7118 110.596 42.7278 109.772L42.8198 107.352C42.8838 105.752 42.9798 104.124 43.0598 102.512C43.1398 100.9 43.2678 99.2879 43.3958 97.6799C43.5238 96.0719 43.6598 94.4879 43.8358 92.8799Z"
              fill="black"/>
        <path opacity="0.1"
              d="M36.1239 118.063C36.0999 119.451 36.0319 120.831 35.9559 122.215C35.8799 123.599 35.7839 124.975 35.6839 126.355C35.5839 127.735 35.4639 129.115 35.3199 130.491L35.1079 132.559C35.0199 133.243 34.9479 133.935 34.8519 134.619C34.8519 133.927 34.8959 133.235 34.9159 132.543L35.0199 130.471C35.0879 129.087 35.1879 127.707 35.2919 126.327C35.3959 124.947 35.5119 123.567 35.6559 122.191C35.7999 120.815 35.9359 119.439 36.1239 118.063Z"
              fill="black"/>
        <path opacity="0.1"
              d="M43.4918 122.604C43.3758 125.024 43.2157 127.44 43.0517 129.86C42.8877 132.28 42.6838 134.688 42.5038 137.104C42.3238 139.52 42.1037 141.932 41.8677 144.344L41.5198 147.944C41.3878 149.144 41.2678 150.344 41.1198 151.544C41.1718 150.344 41.2518 149.124 41.3158 147.916L41.5598 144.288C41.7238 141.888 41.9238 139.456 42.1038 137.04C42.2838 134.624 42.5037 132.212 42.7398 129.804C42.9758 127.396 43.1998 125.012 43.4918 122.604Z"
              fill="black"/>
    </g>
    <path d="M34.2159 68.8838H45.9279L24.9439 152.976H13.2279L34.2159 68.8838Z" fill="#9DDCA0"/>
    <path d="M45.9278 68.8838H48.3718L27.3878 152.976H24.9438L45.9278 68.8838Z" fill="#9DDCA0"/>
    <path opacity="0.3" d="M45.9278 68.8838H48.3718L27.3878 152.976H24.9438L45.9278 68.8838Z" fill="black"/>
    <g opacity="0.1">
        <path opacity="0.1"
              d="M37.156 70.3159C36.356 73.9999 35.512 77.6679 34.66 81.3399L32.064 92.3359L29.38 103.312L28 108.8L26.588 114.272L27.812 108.756L29.08 103.248L31.676 92.2519L34.364 81.2759C35.28 77.5999 36.196 73.9599 37.156 70.3159Z"
              fill="black"/>
        <path opacity="0.1"
              d="M34.4999 88.144C33.9639 90.636 33.3879 93.116 32.7999 95.6C32.2119 98.084 31.5999 100.548 31.0039 103.024L29.1279 110.4L28.1559 114.096C27.8199 115.324 27.4919 116.552 27.1439 117.776C27.4079 116.532 27.6959 115.292 27.9679 114.048L28.8359 110.328L30.6319 102.904C31.2599 100.44 31.8679 97.968 32.5119 95.504C33.1559 93.04 33.8079 90.596 34.4999 88.144Z"
              fill="black"/>
        <path opacity="0.1"
              d="M40.0001 76C39.5601 78.14 39.0841 80.264 38.6001 82.4C38.1161 84.536 37.6001 86.644 37.0801 88.764C36.5601 90.884 36.0361 92.996 35.4801 95.108L34.6561 98.272C34.3641 99.324 34.0881 100.38 33.7881 101.428C34.0001 100.356 34.2401 99.292 34.4681 98.228L35.1881 95.028C35.6721 92.904 36.1881 90.784 36.6881 88.664C37.1881 86.544 37.7321 84.432 38.2881 82.32C38.8441 80.208 39.3881 78.108 40.0001 76Z"
              fill="black"/>
        <path opacity="0.1"
              d="M42.1519 71.1641C41.9439 72.3641 41.6959 73.5401 41.4399 74.7201C41.1839 75.9001 40.9079 77.0801 40.6399 78.2521C40.3719 79.4241 40.0599 80.6001 39.7359 81.7641L39.2559 83.5121C39.0799 84.0921 38.9199 84.6761 38.7319 85.2521C38.8319 84.6521 38.9559 84.0521 39.0679 83.4681L39.4439 81.6921C39.6959 80.5121 39.9759 79.3361 40.2439 78.1601C40.5119 76.9841 40.8279 75.8161 41.1479 74.6481C41.4679 73.4801 41.7879 72.3201 42.1519 71.1641Z"
              fill="black"/>
        <path opacity="0.1"
              d="M36.4 100.892C35.792 103.588 35.136 106.276 34.476 108.964L32.448 117.024L30.332 125.064L29.244 129.064C28.868 130.396 28.504 131.732 28.116 133.064C28.416 131.712 28.744 130.364 29.056 129.016L30.04 124.984L32.064 116.928L34.18 108.896C34.908 106.232 35.636 103.56 36.4 100.892Z"
              fill="black"/>
        <path opacity="0.1"
              d="M26.8759 129.12C26.6079 130.624 26.3039 132.116 25.9879 133.612C25.6719 135.108 25.3279 136.588 24.9999 138.076C24.6719 139.564 24.2999 141.044 23.9239 142.524L23.3559 144.736C23.1519 145.472 22.9559 146.212 22.7479 146.944C22.8759 146.192 23.0279 145.444 23.1679 144.696L23.6319 142.452C23.9439 140.96 24.2879 139.476 24.6199 137.988C24.9519 136.5 25.3199 135.02 25.6959 133.544C26.0719 132.068 26.4519 130.588 26.8759 129.12Z"
              fill="black"/>
        <path opacity="0.1"
              d="M20.064 133.104C19.752 134.66 19.4 136.208 19.044 137.752C18.688 139.296 18.296 140.832 17.924 142.372C17.552 143.912 17.124 145.44 16.724 146.968L16.088 149.26C15.864 150.02 15.652 150.784 15.412 151.54C15.564 150.764 15.74 149.988 15.904 149.212L16.432 146.896C16.788 145.352 17.18 143.816 17.552 142.276C17.924 140.736 18.352 139.204 18.752 137.676C19.152 136.148 19.6 134.62 20.064 133.104Z"
              fill="black"/>
        <path opacity="0.1"
              d="M25.5999 120C25.1319 122.328 24.6199 124.652 24.0999 126.972C23.5799 129.292 23.0359 131.6 22.4999 133.916C21.9639 136.232 21.3839 138.524 20.7999 140.828L19.9239 144.284C19.6159 145.432 19.3239 146.584 19.0079 147.728C19.2359 146.564 19.4919 145.404 19.7359 144.24L20.5039 140.756C21.0199 138.44 21.5719 136.128 22.1039 133.812C22.6359 131.496 23.2199 129.2 23.7999 126.884C24.3799 124.568 24.9639 122.276 25.5999 120Z"
              fill="black"/>
        <path opacity="0.1"
              d="M43.756 71.4722C43.308 73.7162 42.82 75.9522 42.32 78.1842C41.82 80.4162 41.296 82.6402 40.784 84.8722C40.272 87.1042 39.716 89.3202 39.156 91.5402L38.312 94.8642C38.016 95.9682 37.736 97.0762 37.428 98.1802C37.648 97.0562 37.892 95.9402 38.124 94.8202L38.864 91.4682C39.36 89.2362 39.888 87.0082 40.4 84.7802C40.912 82.5522 41.468 80.3322 42.028 78.1122C42.588 75.8922 43.152 73.6802 43.756 71.4722Z"
              fill="black"/>
        <path opacity="0.1"
              d="M26.852 104.732C26.452 106.652 25.996 108.56 25.544 110.468C25.092 112.376 24.604 114.276 24.136 116.176C23.668 118.076 23.152 119.972 22.64 121.864L21.84 124.7C21.564 125.64 21.304 126.588 21.016 127.524C21.216 126.564 21.44 125.608 21.652 124.652L22.324 121.788C22.78 119.884 23.264 117.984 23.732 116.08C24.2 114.176 24.716 112.284 25.232 110.392C25.748 108.5 26.288 106.612 26.852 104.732Z"
              fill="black"/>
    </g>
    <path d="M11.884 152.992L33.912 152.896L55.94 152.86L100 152.792L144.06 152.86L166.088 152.892L188.116 152.992L166.088 153.088L144.06 153.124L100 153.192L55.94 153.124L33.912 153.088L11.884 152.992Z"
          fill="#263238"/>
    <path d="M111.656 177.74C110.728 178.04 84.268 177.696 83.256 177.044C82.856 176.804 82.696 172.944 82.62 168.276V168.128C82.6 167.168 82.588 166.176 82.588 165.172C82.588 165.036 82.588 164.896 82.588 164.772L99.828 164.82L99.808 165.356L99.7 168.156V168.444C99.7 168.444 109.768 173.108 110.792 173.94C111.816 174.772 112.584 177.444 111.656 177.74Z"
          fill="#EBEBEB"/>
    <path d="M111.656 177.74C111.18 177.892 103.992 177.876 96.9639 177.74C95.5519 177.712 94.1639 177.68 92.8079 177.64C87.7959 177.504 83.6559 177.296 83.2719 177.048C82.8879 176.8 82.7159 173.048 82.6399 168.472C82.6399 168.408 82.6399 168.344 82.6399 168.28C82.6399 168.216 82.6399 168.18 82.6399 168.128L99.6919 168.164V168.452C99.6919 168.452 109.764 173.112 110.784 173.948C111.804 174.784 112.584 177.444 111.656 177.74Z"
          fill="#9DDCA0"/>
    <path d="M111.368 176.712C106.908 176.544 88.9079 176.288 84.4879 176.464C84.4519 176.464 84.4519 176.488 84.4879 176.492C88.8879 176.752 106.888 176.86 111.368 176.784C111.464 176.8 111.464 176.716 111.368 176.712Z"
          fill="#263238"/>
    <path d="M101.6 168.232C99.8479 167.884 97.6999 168.124 96.3399 169.356C96.2879 169.404 96.3399 169.48 96.4159 169.464C98.1025 168.941 99.8406 168.604 101.6 168.456C101.63 168.456 101.658 168.444 101.679 168.423C101.7 168.402 101.712 168.373 101.712 168.344C101.712 168.314 101.7 168.286 101.679 168.265C101.658 168.244 101.63 168.232 101.6 168.232Z"
          fill="#263238"/>
    <path d="M102.86 169.012C101.112 168.664 98.9601 168.904 97.6041 170.136C97.5481 170.184 97.6041 170.26 97.6761 170.244C99.3601 169.723 101.096 169.385 102.852 169.236C102.882 169.237 102.911 169.226 102.932 169.206C102.954 169.186 102.967 169.158 102.968 169.128C102.969 169.098 102.958 169.069 102.938 169.048C102.918 169.026 102.89 169.013 102.86 169.012Z"
          fill="#263238"/>
    <path d="M104.12 169.792C102.368 169.444 100.216 169.684 98.8599 170.916C98.8079 170.964 98.8599 171.04 98.9319 171.024C100.615 170.497 102.351 170.154 104.108 170C104.129 169.993 104.148 169.979 104.162 169.962C104.175 169.944 104.183 169.922 104.185 169.9C104.186 169.877 104.18 169.855 104.169 169.836C104.157 169.817 104.14 169.801 104.12 169.792Z"
          fill="#263238"/>
    <path d="M96.9639 177.736C95.5519 177.708 94.1639 177.676 92.8079 177.636C87.7959 177.5 83.6559 177.292 83.2719 177.044C82.8879 176.796 82.7159 173.044 82.6399 168.468C82.6399 168.404 82.6399 168.34 82.6399 168.276C82.6399 168.212 82.6399 168.176 82.6399 168.124C84.9879 169.764 93.2199 175.244 96.9639 177.736Z"
          fill="#263238"/>
    <path d="M100.864 168.22H81.808C81.808 168.22 85.648 123.708 85.4959 122.932C85.308 121.936 78.196 94.0918 76.832 88.8238L73.2 74.7998H89.3479C89.3479 74.7998 91.1999 80.7758 93.5999 88.5358C97.4639 101.156 102.632 118.536 103.14 122.74C103.956 129.56 100.864 168.22 100.864 168.22Z"
          fill="#455A64"/>
    <path d="M100.02 164.968C97.1119 164.908 97.9479 164.884 95.0359 164.856C93.6119 164.856 84.2359 164.76 82.9199 164.98C82.8919 164.98 82.8919 165.036 82.9199 165.04C84.2519 165.26 93.6119 165.18 95.0359 165.164C97.9479 165.136 97.1119 165.112 100.02 165.052C100.031 165.052 100.042 165.047 100.05 165.039C100.058 165.032 100.062 165.021 100.062 165.01C100.062 164.999 100.058 164.988 100.05 164.98C100.042 164.972 100.031 164.968 100.02 164.968Z"
          fill="#263238"/>
    <path d="M89.0839 120.212C88.4559 117.456 87.5239 114.756 86.7119 112.052C85.0613 106.559 83.3986 101.068 81.7239 95.5799C80.8919 92.8359 80.0546 90.0919 79.2119 87.3479C78.7839 85.9639 78.3599 84.5799 77.9279 83.1959C77.4959 81.8119 77.0199 80.5039 76.6359 79.1399C76.4799 78.5839 76.3959 78.8879 76.5959 79.5959C76.9959 81.0159 77.3959 82.4399 77.7959 83.8559C78.6199 86.6639 79.4466 89.4706 80.2759 92.2759C81.9266 97.8599 83.5933 103.439 85.2759 109.012C86.1133 111.809 86.9533 114.609 87.7959 117.412C88.2233 118.741 88.5679 120.096 88.8279 121.468C89.0518 122.903 89.1082 124.36 88.9959 125.808C88.8119 128.724 88.4759 131.636 88.1959 134.544C87.9159 137.452 87.6599 140.372 87.3959 143.288C86.8626 149.088 86.3293 154.889 85.7959 160.692C85.7279 161.428 85.6639 162.164 85.6079 162.9C85.6079 163.144 85.9639 163.128 85.9879 162.9C86.6159 157.164 87.0959 151.408 87.6359 145.66L89.2359 128.512C89.3679 127.076 89.5199 125.64 89.5239 124.196C89.5272 122.856 89.3796 121.519 89.0839 120.212Z"
          fill="#263238"/>
    <path d="M91.756 177.74C90.828 178.04 64.368 177.696 63.356 177.044C62.956 176.804 62.796 172.944 62.72 168.276C62.72 168.228 62.72 168.176 62.72 168.128C62.72 167.168 62.692 166.176 62.688 165.172C62.688 165.036 62.688 164.896 62.688 164.772L79.928 164.82L79.904 165.356L79.8 168.156V168.444C79.8 168.444 89.872 173.108 90.892 173.94C91.912 174.772 92.688 177.444 91.756 177.74Z"
          fill="#EBEBEB"/>
    <path d="M91.76 177.74C91.284 177.892 84.092 177.876 77.068 177.74C75.652 177.712 74.268 177.68 72.908 177.64C67.9 177.504 63.756 177.296 63.372 177.048C62.988 176.8 62.82 173.048 62.74 168.472C62.74 168.408 62.74 168.344 62.74 168.28C62.74 168.216 62.74 168.18 62.74 168.128L79.796 168.164V168.452C79.796 168.452 89.864 173.112 90.884 173.948C91.904 174.784 92.688 177.444 91.76 177.74Z"
          fill="#9DDCA0"/>
    <path d="M91.4719 176.712C87.0119 176.544 69.0119 176.288 64.5919 176.464C64.5559 176.464 64.5559 176.488 64.5919 176.492C68.9919 176.752 86.9919 176.86 91.4719 176.784C91.5639 176.8 91.5639 176.716 91.4719 176.712Z"
          fill="#263238"/>
    <path d="M81.7079 168.232C79.9559 167.884 77.8039 168.124 76.4479 169.356C76.3959 169.404 76.4479 169.48 76.5199 169.464C78.204 168.942 79.9393 168.604 81.6959 168.456C81.7256 168.457 81.7548 168.447 81.7769 168.427C81.799 168.407 81.8123 168.379 81.8139 168.35C81.8155 168.32 81.8052 168.291 81.7854 168.269C81.7655 168.247 81.7376 168.233 81.7079 168.232Z"
          fill="#263238"/>
    <path d="M82.9641 169.012C81.2121 168.664 79.0641 168.904 77.7041 170.136C77.6521 170.184 77.7041 170.26 77.7801 170.244C79.4627 169.723 81.1968 169.385 82.9521 169.236C82.9818 169.238 83.0109 169.227 83.033 169.207C83.0552 169.188 83.0685 169.16 83.0701 169.13C83.0717 169.1 83.0614 169.071 83.0415 169.049C83.0216 169.027 82.9938 169.014 82.9641 169.012Z"
          fill="#263238"/>
    <path d="M84.22 169.792C82.468 169.444 80.32 169.684 78.964 170.916C78.908 170.964 78.964 171.04 79.036 171.024C80.7194 170.497 82.4548 170.154 84.212 170C84.2331 169.992 84.2515 169.979 84.2648 169.961C84.2781 169.943 84.2857 169.921 84.2865 169.899C84.2874 169.876 84.2815 169.854 84.2697 169.835C84.2578 169.816 84.2405 169.801 84.22 169.792Z"
          fill="#263238"/>
    <path d="M88.8 74.7998C88.8 74.7998 88.428 82.5278 86.66 88.6478C86.516 89.1518 86.364 89.6518 86.196 90.1278C86.196 90.1278 86.44 89.9318 83.628 91.6558C83.628 91.6558 84.716 122.384 84.76 124.216C84.924 131.08 79.936 168.492 79.936 168.492L60.88 168.568C60.88 168.568 67.68 126.144 67.68 123.632C67.644 119.592 65.24 102.032 65.98 89.0078C66.299 84.0596 67.6146 79.2268 69.848 74.7998H88.8Z"
          fill="#455A64"/>
    <path d="M79.2961 165.108C76.3841 165.06 77.2201 165.032 74.3081 165.016C72.8841 165.016 63.5081 164.968 62.1921 165.196C62.1846 165.196 62.1775 165.199 62.1723 165.204C62.167 165.209 62.1641 165.217 62.1641 165.224C62.1641 165.231 62.167 165.238 62.1723 165.244C62.1775 165.249 62.1846 165.252 62.1921 165.252C63.5241 165.468 72.8841 165.348 74.3081 165.328C77.2201 165.288 76.3841 165.268 79.2961 165.192C79.305 165.189 79.3128 165.184 79.3184 165.176C79.324 165.168 79.3269 165.159 79.3269 165.15C79.3269 165.141 79.324 165.131 79.3184 165.124C79.3128 165.116 79.305 165.111 79.2961 165.108Z"
          fill="#263238"/>
    <path d="M70.984 75.9602C68.584 80.5922 67.676 85.8642 67.48 91.0322C67.268 96.6322 67.94 102.232 68.532 107.832C69.152 113.692 69.692 119.56 69.244 125.432C68.792 131.384 67.736 137.292 66.884 143.196C66.032 149.1 65.132 155.004 64.4 160.924C64.308 161.672 64.212 162.42 64.124 163.172C64.124 163.208 64.176 163.228 64.184 163.172C65.228 157.34 66.088 151.472 66.984 145.612C67.88 139.752 68.876 133.94 69.476 128.072C70.076 122.204 69.824 116.376 69.236 110.52C68.672 104.884 67.924 99.2482 67.904 93.5722C67.904 88.2962 68.42 82.8962 70.304 77.9202C70.552 77.2562 70.824 76.6002 71.104 75.9482C71.12 75.8682 71.036 75.8642 70.984 75.9602Z"
          fill="#263238"/>
    <path d="M87.0001 89.6761C85.1053 90.4681 83.2826 91.4223 81.5521 92.5281C81.5393 92.5371 81.5302 92.5505 81.5266 92.5657C81.523 92.5809 81.5251 92.5969 81.5325 92.6107C81.5399 92.6245 81.552 92.6351 81.5667 92.6405C81.5814 92.6459 81.5975 92.6458 81.6121 92.6401C83.4481 91.7481 85.3241 90.8881 87.1121 89.8961C87.1381 89.8796 87.157 89.8539 87.1651 89.8242C87.1733 89.7944 87.17 89.7627 87.156 89.7352C87.142 89.7077 87.1183 89.6865 87.0895 89.6755C87.0606 89.6646 87.0288 89.6648 87.0001 89.6761Z"
          fill="#263238"/>
    <path d="M87.108 83.1203C86.98 83.7963 86.816 84.4683 86.672 85.1203C86.5279 85.7723 86.4319 86.3963 86.2719 87.0203C86.138 87.6287 85.8294 88.1848 85.384 88.6203C85.136 88.8523 84.864 89.0563 84.584 89.2683C84.444 89.3803 84.288 89.4883 84.14 89.6043C84.16 89.5163 84.1759 89.4243 84.1919 89.3323L84.3239 88.5603C84.4199 87.9923 84.508 87.4203 84.596 86.8483C84.768 85.7243 84.9279 84.5883 85.1599 83.4763C85.1618 83.4709 85.1624 83.4651 85.1616 83.4594C85.1608 83.4537 85.1586 83.4483 85.1553 83.4437C85.152 83.439 85.1476 83.4352 85.1425 83.4325C85.1374 83.4299 85.1317 83.4285 85.126 83.4285C85.1202 83.4285 85.1145 83.4299 85.1094 83.4325C85.1043 83.4352 85.0999 83.439 85.0966 83.4437C85.0933 83.4483 85.0911 83.4537 85.0903 83.4594C85.0895 83.4651 85.0901 83.4709 85.0919 83.4763C84.8119 84.5763 84.5039 85.6683 84.2599 86.7803C84.1399 87.3243 83.7119 90.0163 83.6919 90.2083C83.6719 90.4003 83.6559 90.6083 83.6519 90.8003C83.6259 91.0008 83.6259 91.2038 83.6519 91.4043C83.6519 91.4523 83.7239 91.4443 83.7439 91.4043C83.8282 91.2186 83.8861 91.0221 83.9159 90.8203C83.9639 90.6283 84.0079 90.4203 84.0439 90.2403C84.0439 90.1683 84.0639 90.0963 84.0759 90.0243C84.3399 89.8643 84.5879 89.6483 84.8359 89.4683C85.0839 89.2883 85.3759 89.0683 85.6359 88.8763C86.1024 88.4811 86.4384 87.954 86.6 87.3643C86.7648 86.73 86.8719 86.082 86.92 85.4283C87.004 84.6643 87.068 83.8963 87.172 83.1323C87.2 83.0923 87.116 83.0723 87.108 83.1203Z"
          fill="#263238"/>
    <path d="M116.012 175.552H111.8L125.608 97.4399H129.82L116.012 175.552Z" fill="#A6A6A6"/>
    <path d="M144 175.552H148.212L134.404 97.4399H130.196L144 175.552Z" fill="#A6A6A6"/>
    <path d="M142.532 154.512V150.164H116.692V154.512H142.532Z" fill="#A6A6A6"/>
    <path d="M92.2041 99.2964H58.3721V103.272H92.2041V99.2964Z" fill="#70CB75"/>
    <path opacity="0.3" d="M92.2041 99.2964H58.3721V103.272H92.2041V99.2964Z" fill="black"/>
    <path d="M147.964 94.0601H114.136L58.3761 99.2961H92.2041L147.964 94.0601Z" fill="#70CB75"/>
    <path d="M147.964 97.8521V94.0601L92.204 99.2961V103.272L147.964 97.8521Z" fill="#70CB75"/>
    <path opacity="0.1" d="M147.964 97.8521V94.0601L92.204 99.2961V103.272L147.964 97.8521Z" fill="black"/>
    <path d="M75.2881 99.296L87.6121 98.064L82.0681 99.296H75.2881Z" fill="#70CB75"/>
    <path opacity="0.3" d="M75.2881 99.296L87.6121 98.064L82.0681 99.296H75.2881Z" fill="black"/>
    <path d="M67.1 99.2962L71.16 98.6802L69.128 99.2962H67.1Z" fill="#70CB75"/>
    <path opacity="0.3" d="M67.1 99.2962L71.16 98.6802L69.128 99.2962H67.1Z" fill="black"/>
    <path d="M61.844 181.38H57.632L71.44 103.272H75.652L61.844 181.38Z" fill="#A6A6A6"/>
    <path d="M89.8319 181.38H94.0439L80.2359 103.272H76.0239L89.8319 181.38Z" fill="#A6A6A6"/>
    <path d="M88.364 160.34V155.992H62.524V160.34H88.364Z" fill="#A6A6A6"/>
    <path d="M91.3481 54.2123C99.0561 62.1443 110.344 82.2763 111.748 85.1683C112.696 87.1283 102.448 92.3683 102.004 90.9403C101.436 89.1123 92.3521 66.5643 89.9241 58.0483C88.5801 53.3523 89.7561 52.5763 91.3481 54.2123Z"
          fill="#FFBDA7"/>
    <path d="M101.504 89.5998C101.868 90.5758 103.104 94.7278 103.972 95.2438C104.84 95.7598 109.304 95.6198 111.572 95.6038C113.84 95.5878 114.268 94.9598 114.228 94.1838C114.188 93.4078 109.448 93.2878 109.448 93.2878C109.448 93.2878 115.784 95.0638 117.38 95.3518C118.976 95.6398 122.644 96.5518 123.168 95.2198C123.4 94.6238 122.396 94.0198 122.396 94.0198C122.396 94.0198 123.936 94.4598 124.176 93.6918C124.448 92.8198 123.224 92.3478 123.224 92.3478C123.224 92.3478 124.188 92.5358 124.204 91.8278C124.244 90.2278 118.224 89.4958 118.224 89.4958C118.224 89.4958 122.844 91.7118 122.984 90.4198C123.176 88.6278 113.724 86.7158 112.736 85.9398C112.085 85.4036 111.541 84.7478 111.136 84.0078L101.504 89.5998Z"
          fill="#FFBDA7"/>
    <path d="M114.188 94.5721C114.203 94.4614 114.192 94.3487 114.154 94.2435C114.117 94.1384 114.054 94.0439 113.972 93.9681C113.807 93.8204 113.619 93.7002 113.416 93.6121C112.997 93.4407 112.563 93.3068 112.12 93.2121C111.232 92.9921 110.316 92.8401 109.408 92.6081C110.35 92.5875 111.291 92.6883 112.208 92.9081C112.673 93.0126 113.121 93.1809 113.54 93.4081C113.756 93.5257 113.945 93.6864 114.096 93.8801C114.169 93.978 114.216 94.093 114.232 94.2141C114.248 94.3352 114.233 94.4585 114.188 94.5721Z"
          fill="#263238"/>
    <path d="M122.4 94.0199C121.748 93.8639 121.104 93.6839 120.464 93.4999C119.824 93.3159 119.184 93.1279 118.544 92.9399L116.636 92.3519C116 92.1559 115.364 91.9519 114.72 91.7759C115.393 91.8445 116.062 91.958 116.72 92.1159C117.372 92.2639 118.016 92.4439 118.656 92.6359C119.296 92.8279 119.932 93.0359 120.556 93.2719C121.18 93.5079 121.776 93.7399 122.4 94.0199Z"
          fill="#263238"/>
    <path d="M116.224 90.188C116.838 90.2239 117.449 90.3041 118.052 90.428C118.656 90.5453 119.252 90.6948 119.84 90.876C120.429 91.0557 121.007 91.2681 121.572 91.512C122.139 91.752 122.688 92.0313 123.216 92.348C122.632 92.152 122.064 91.948 121.484 91.74C120.904 91.532 120.332 91.34 119.748 91.18C119.164 91.02 118.584 90.832 117.996 90.664C117.408 90.496 116.82 90.344 116.224 90.188Z"
          fill="#263238"/>
    <path d="M117.148 88.6719C118.139 88.7417 119.117 88.9421 120.056 89.2679C121.003 89.5723 121.904 90.0029 122.736 90.5479C121.8 90.2199 120.888 89.8719 119.956 89.5679C119.024 89.2639 118.092 88.9679 117.148 88.6719Z"
          fill="#263238"/>
    <path d="M90.0241 60.2561C92.3881 67.9281 97.9601 82.8921 97.9601 82.8921L108.36 77.7961C108.36 77.7961 98.7601 62.8801 93.3521 55.9761C89.5441 51.1081 87.8681 53.2441 90.0241 60.2561Z"
          fill="#70CB75"/>
    <path d="M96.412 81.7202L108.244 76.4722L109.6 79.2442L97.768 84.6922L96.412 81.7202Z" fill="#70CB75"/>
    <path opacity="0.1" d="M96.412 81.7202L108.244 76.4722L109.6 79.2442L97.768 84.6922L96.412 81.7202Z" fill="black"/>
    <path d="M67.092 82.2279L92.3321 84.5239C92.3321 84.5239 92.4721 66.3559 92.1681 61.8239C91.8641 57.2919 91.5841 52.6239 90.7681 51.4639C89.9521 50.3039 86.844 49.3399 84.916 50.0039C82.988 50.6679 79.316 53.7519 74.852 62.8039C70.388 71.8559 67.092 82.2279 67.092 82.2279Z"
          fill="#70CB75"/>
    <path d="M84.208 50.3081C84.208 50.3081 84.684 58.7361 84.728 58.8521C84.772 58.9681 91.36 58.9001 91.44 58.8521C91.52 58.8041 90.424 51.1081 90.424 51.1081L91.024 51.7041C91.024 51.7041 92.528 59.3441 92.796 64.6361C93.064 69.9281 92.42 84.7401 92.42 84.7401L67.02 82.3761C68.4488 76.5894 70.5218 70.981 73.2 65.6561C73.2 65.6561 78.668 64.8001 80.156 64.0001C81.644 63.2001 83.42 50.6841 83.42 50.6841L84.208 50.3081Z"
          fill="#455A64"/>
    <path d="M67.304 83.2002C67.16 83.3362 65.992 91.7882 66.524 92.1442C67.056 92.5002 74.312 93.8722 74.852 93.6082C75.392 93.3442 76.2119 84.8762 76.1679 84.7642C76.1239 84.6522 67.576 82.9242 67.304 83.2002Z"
          fill="#70CB75"/>
    <path opacity="0.1"
          d="M75.7999 88.5159C75.5239 90.8559 75.1479 93.4439 74.8519 93.5879C74.3119 93.8519 67.0559 92.4799 66.5239 92.1239C66.2319 91.9279 66.4519 89.3239 66.7319 86.9759C66.8586 85.7015 67.0509 84.4345 67.3079 83.1799C67.5759 82.9239 76.1079 84.6319 76.1679 84.7439C76.1879 84.7999 76.0279 86.5679 75.7999 88.5159Z"
          fill="black"/>
    <path d="M66.4 82.892C66.276 82.776 67.2 79.6361 67.684 78.8521C67.684 78.8521 75.48 80.452 82.14 81.172C87.12 81.7 92.824 81.6001 92.844 81.7401C92.864 81.8801 92.996 85.284 92.872 85.5601C92.748 85.8361 85.184 85.6961 80.892 85.3401C76.6 84.9841 66.8 83.284 66.4 82.892Z"
          fill="#70CB75"/>
    <path d="M89.072 81.352C88.772 81.204 83.984 81.02 83.728 81.156C83.296 81.388 83.212 85.584 83.328 85.708C83.444 85.832 88.86 85.924 89.02 85.812C89.18 85.7 89.376 81.504 89.072 81.352ZM88.484 85.28C86.9451 85.3457 85.4036 85.319 83.868 85.2C83.788 85.108 83.868 81.864 84.204 81.684C85.6511 81.6253 87.1005 81.6761 88.54 81.836C88.8 81.952 88.616 85.2 88.484 85.28Z"
          fill="#DBDBDB"/>
    <path d="M88.8853 83.2794L87.3658 83.2388L87.3504 83.8186L88.8698 83.8591L88.8853 83.2794Z" fill="#DBDBDB"/>
    <path d="M81.976 83.3163C81.9759 83.3608 81.9627 83.4042 81.9379 83.4412C81.9131 83.4781 81.8779 83.5068 81.8367 83.5236C81.7956 83.5404 81.7503 83.5446 81.7068 83.5357C81.6632 83.5267 81.6233 83.505 81.5921 83.4732C81.561 83.4415 81.54 83.4012 81.5318 83.3575C81.5236 83.3138 81.5286 83.2686 81.5462 83.2278C81.5637 83.1869 81.5931 83.1522 81.6304 83.1281C81.6678 83.104 81.7115 83.0915 81.756 83.0923C81.7852 83.0923 81.8141 83.0981 81.8411 83.1094C81.868 83.1207 81.8925 83.1373 81.9129 83.1582C81.9334 83.179 81.9496 83.2037 81.9604 83.2309C81.9712 83.2581 81.9765 83.2871 81.976 83.3163Z"
          fill="#263238"/>
    <path d="M79.6721 83.0921C79.6729 83.1367 79.6603 83.1806 79.636 83.218C79.6117 83.2555 79.5767 83.2848 79.5357 83.3023C79.4946 83.3197 79.4492 83.3245 79.4054 83.316C79.3616 83.3074 79.3213 83.286 79.2897 83.2545C79.2582 83.2229 79.2367 83.1826 79.2282 83.1388C79.2197 83.095 79.2245 83.0496 79.2419 83.0085C79.2594 82.9674 79.2887 82.9325 79.3262 82.9082C79.3636 82.8839 79.4074 82.8713 79.4521 82.8721C79.5101 82.8731 79.5655 82.8966 79.6065 82.9377C79.6475 82.9787 79.671 83.0341 79.6721 83.0921Z"
          fill="#263238"/>
    <path d="M69.9686 74.0973L70.6654 74.1977C70.9279 74.2355 71.1646 74.3761 71.3235 74.5885C71.4824 74.8008 71.5504 75.0676 71.5125 75.3301L70.5364 82.1042L67.8561 81.7179L68.8322 74.9439C68.8701 74.6814 69.0106 74.4446 69.223 74.2858C69.4353 74.1269 69.7021 74.0589 69.9646 74.0967L69.9686 74.0973Z"
          fill="#37474F"/>
    <path d="M70.1053 82.0395L68.2999 81.7793L68.1967 82.4959L70.002 82.756L70.1053 82.0395Z" fill="#37474F"/>
    <path d="M69.3849 82.6692L68.8108 82.5864L67.7011 90.2869L68.2752 90.3696L69.3849 82.6692Z" fill="#EBEBEB"/>
    <path d="M68.464 91.092C68.464 91.092 67.944 92.224 67.904 92.22L67.716 92.192L67.528 92.164C67.488 92.164 67.308 90.924 67.308 90.924L67.708 90.292L68.276 90.372L68.464 91.092Z"
          fill="#EBEBEB"/>
    <path d="M69.5555 75.0683L69.0884 75.001L68.2235 81.003L68.6906 81.0703L69.5555 75.0683Z" fill="#263238"/>
    <path d="M70.421 75.1909L69.9539 75.1235L69.089 81.1255L69.5561 81.1929L70.421 75.1909Z" fill="#263238"/>
    <path d="M71.2904 75.3173L70.8232 75.25L69.9583 81.252L70.4255 81.3193L71.2904 75.3173Z" fill="#263238"/>
    <path d="M72.0897 77.0836L70.5453 76.834L70.1555 79.2456L71.6999 79.4952L72.0897 77.0836Z" fill="#EBEBEB"/>
    <path d="M71.8321 77.5402L72.8761 77.7082C73.0361 77.7322 73.7641 77.1122 74.2521 77.1922L74.7921 77.2802C75.2561 77.3522 77.1361 78.1442 76.9401 79.3522C76.7441 80.5602 76.8241 80.0762 76.8241 80.0762C76.8241 80.0762 76.6601 79.3962 76.2361 79.2042C76.0378 79.1161 75.8129 79.1086 75.6091 79.1832C75.4054 79.2578 75.2386 79.4088 75.1441 79.6042C74.9972 79.9473 74.8742 80.3001 74.7761 80.6602L72.8641 80.3522C72.8441 79.9143 72.7838 79.4791 72.6841 79.0522C72.5601 78.7242 71.6521 78.6522 71.6521 78.6522L71.8321 77.5402Z"
          fill="#EBEBEB"/>
    <path d="M74.4117 80.6008L73.223 80.4092L72.5309 84.7017L73.7195 84.8934L74.4117 80.6008Z" fill="#EBEBEB"/>
    <path d="M74.3316 82.9327L72.5625 82.6475L71.0222 92.2001L72.7913 92.4854L74.3316 82.9327Z" fill="#263238"/>
    <path d="M75.7999 88.5161C75.5239 90.8561 75.1479 93.4441 74.8519 93.5881C74.3119 93.8521 67.0559 92.4801 66.5239 92.1241C66.2319 91.9281 66.4519 89.3241 66.7319 86.9761L75.7999 88.5161Z"
          fill="#70CB75"/>
    <path d="M91.496 60.7199C91.3 60.4919 84.352 60.6839 84.268 60.9199C84.184 61.1559 84.028 65.7519 84.224 65.9319C84.708 66.3959 87.784 67.1319 88.444 67.0559C89.6347 66.7619 90.7577 66.2418 91.752 65.5239C91.968 65.3279 91.936 61.2239 91.496 60.7199ZM91.524 65.3799C91.196 65.6359 89.264 66.6399 88.4 66.7679C87.812 66.8559 84.6 65.8679 84.48 65.7319C84.36 65.5959 84.416 62.0879 84.456 61.1399C84.944 60.7759 91.112 60.7919 91.344 60.9879C91.5 61.1199 91.748 65.1999 91.524 65.3799Z"
          fill="#263238"/>
    <path d="M88.5841 55.3962C87.1681 55.1322 85.6241 51.9162 85.4601 49.9442C85.4601 49.8082 86.1201 48.7442 86.8801 47.3922C87.3361 46.5922 87.8241 45.6562 88.2081 44.7842C88.2881 44.6042 88.7521 45.2042 88.7521 45.2042L89.7601 45.9722L93.0881 48.5282C92.2978 49.4821 91.6262 50.5284 91.0881 51.6442C91.0384 51.7649 90.9983 51.8892 90.9681 52.0162C90.9695 52.0375 90.9695 52.0589 90.9681 52.0802C90.7521 52.8002 89.9521 55.6482 88.5841 55.3962Z"
          fill="#EB9481"/>
    <path d="M90.9599 52C90.9613 52.0213 90.9613 52.0426 90.9599 52.064C90.762 52.0072 90.5693 51.9336 90.3839 51.844C86.7399 50.136 88.3479 45.252 88.3479 45.252L89.7759 45.956L93.1039 48.512C92.3136 49.4659 91.642 50.5122 91.1039 51.628C91.0461 51.7479 90.9979 51.8723 90.9599 52Z"
          fill="#263238"/>
    <path d="M90.7281 38.1163C89.1761 39.7163 87.3401 45.6483 88.0481 47.5563C89.0721 50.3203 92.16 52.1403 94.848 50.5843C97.468 49.0803 99.724 41.2843 98.804 39.4083C97.464 36.6403 93.0201 35.7803 90.7281 38.1163Z"
          fill="#EB9481"/>
    <path d="M94.1999 44.356C94.1999 44.356 94.1639 44.356 94.1599 44.38C94.0399 44.78 93.8359 45.224 93.4359 45.236C93.4359 45.236 93.4159 45.26 93.4359 45.26C93.8919 45.344 94.1559 44.756 94.1999 44.356Z"
          fill="#263238"/>
    <path d="M94 43.824C93.372 43.564 92.9 44.832 93.48 45.072C94.06 45.312 94.508 44.04 94 43.824Z" fill="#263238"/>
    <path d="M96.3201 45.0962C96.3201 45.0962 96.3441 45.1282 96.3201 45.1442C96.1641 45.5442 96.0481 46.0042 96.3521 46.2642C96.3521 46.2642 96.3521 46.2922 96.3521 46.2882C95.9481 46.0642 96.1081 45.4402 96.3201 45.0962Z"
          fill="#263238"/>
    <path d="M96.8239 44.7999C97.4719 44.9879 97.0519 46.2759 96.4479 46.0999C95.8439 45.9239 96.2799 44.6599 96.8239 44.7999Z"
          fill="#263238"/>
    <path d="M93.672 43.02C93.8372 43.1037 94.0068 43.1785 94.18 43.244C94.3478 43.3501 94.5465 43.3966 94.744 43.376C94.8044 43.3576 94.8572 43.3198 94.894 43.2685C94.9309 43.2172 94.9498 43.1551 94.948 43.092C94.9244 42.9677 94.8683 42.8519 94.7854 42.7563C94.7025 42.6608 94.5957 42.5889 94.476 42.548C94.2468 42.4293 93.9819 42.3994 93.732 42.464C93.675 42.4814 93.6244 42.5151 93.5864 42.561C93.5484 42.6069 93.5247 42.6629 93.5184 42.7222C93.512 42.7814 93.5231 42.8412 93.5504 42.8942C93.5777 42.9471 93.62 42.9909 93.672 43.02Z"
          fill="#263238"/>
    <path d="M97.552 44.3602C97.388 44.2682 97.252 44.1522 97.096 44.0442C96.94 43.9362 96.772 43.8402 96.696 43.6442C96.68 43.5833 96.6847 43.5189 96.7093 43.461C96.7339 43.403 96.777 43.3549 96.832 43.3242C96.95 43.2793 97.0778 43.2667 97.2023 43.2878C97.3268 43.3089 97.4434 43.3629 97.54 43.4442C97.7596 43.5806 97.9217 43.7926 97.996 44.0402C98.0058 44.0965 97.9997 44.1544 97.9781 44.2073C97.9566 44.2602 97.9206 44.306 97.8743 44.3394C97.8279 44.3728 97.7731 44.3925 97.7161 44.3962C97.6591 44.3998 97.6022 44.3874 97.552 44.3602Z"
          fill="#263238"/>
    <path d="M88.8999 43.0721C89.9279 43.5481 91.1439 41.0721 91.1439 41.0721C91.1439 41.0721 92.8119 41.6201 94.6839 39.9361C94.6839 39.9361 95.9759 42.2201 97.7759 42.8081C100.6 43.7281 102.332 40.3521 101.736 39.1521C100.896 37.4521 97.7079 37.5521 97.7079 37.5521C97.7079 37.5521 94.5839 34.5441 92.1479 36.4401C91.6537 36.2172 91.0934 36.1899 90.5798 36.3635C90.0662 36.5372 89.6375 36.899 89.3799 37.3761C88.2919 39.1081 88.1319 42.7121 88.8999 43.0721Z"
          fill="#263238"/>
    <path d="M90.6361 41.156C91.4414 41.43 92.3148 41.43 93.1201 41.156C93.555 40.9982 93.9456 40.7382 94.2589 40.3977C94.5722 40.0573 94.799 39.6465 94.9201 39.2C94.9201 39.152 95.0081 39.176 94.9961 39.224C94.8887 39.6977 94.6781 40.1418 94.3794 40.5249C94.0808 40.9079 93.7013 41.2203 93.2681 41.44C92.8438 41.6422 92.3736 41.7287 91.905 41.6908C91.4365 41.6529 90.9864 41.4918 90.6001 41.224C90.5641 41.2 90.5881 41.14 90.6361 41.156Z"
          fill="#263238"/>
    <path d="M89.824 36.2241C90.676 35.8561 91.504 36.1761 92.252 36.6241C92.296 36.6521 92.252 36.7201 92.212 36.6921C91.8406 36.4709 91.4163 36.3541 90.984 36.3541C90.5517 36.3541 90.1274 36.4709 89.756 36.6921C89.044 37.0921 88.72 37.8921 88.516 38.6441C88.1108 40.088 88.2533 41.6307 88.916 42.9761C88.916 42.9761 88.896 43.0161 88.88 42.9761C88.4819 42.2558 88.2341 41.4621 88.1516 40.6433C88.0691 39.8244 88.1536 38.9973 88.4 38.2121C88.632 37.4401 89.036 36.5641 89.824 36.2241Z"
          fill="#263238"/>
    <path d="M92.4601 46.2843C92.1601 46.1284 91.9098 45.8915 91.7377 45.6006C91.5656 45.3096 91.4785 44.9762 91.4863 44.6382C91.4942 44.3002 91.5966 43.9712 91.782 43.6885C91.9674 43.4058 92.2283 43.1808 92.5352 43.0389C92.8421 42.8971 93.1826 42.8441 93.518 42.886C93.8535 42.928 94.1705 43.0631 94.433 43.2761C94.6955 43.4891 94.8931 43.7715 95.0032 44.0911C95.1133 44.4107 95.1316 44.7548 95.0561 45.0843C95.002 45.3158 94.9027 45.5342 94.7639 45.7272C94.6251 45.9201 94.4496 46.0837 94.2474 46.2086C94.0452 46.3335 93.8203 46.4172 93.5857 46.4549C93.351 46.4926 93.1112 46.4836 92.8801 46.4283C92.7342 46.3995 92.5929 46.351 92.4601 46.2843ZM94.0201 43.2923C93.9055 43.2305 93.783 43.1848 93.6561 43.1563C93.2679 43.0641 92.8591 43.1233 92.513 43.3219C92.167 43.5205 91.9096 43.8436 91.7934 44.2253C91.6773 44.607 91.711 45.0187 91.8877 45.3764C92.0645 45.7341 92.3709 46.011 92.7447 46.1507C93.1185 46.2903 93.5314 46.2822 93.8994 46.128C94.2675 45.9738 94.5628 45.6851 94.7254 45.3208C94.888 44.9564 94.9056 44.5437 94.7745 44.1668C94.6434 43.79 94.3736 43.4772 94.0201 43.2923Z"
          fill="#70CB75"/>
    <path d="M96.3479 47.7441C95.7319 47.4241 95.504 46.5041 95.84 45.6201C95.9904 45.1967 96.2703 44.8315 96.64 44.5761C96.7924 44.4555 96.9735 44.3764 97.1656 44.3467C97.3576 44.317 97.5542 44.3376 97.7359 44.4065C97.9177 44.4754 98.0784 44.5903 98.2025 44.7399C98.3266 44.8895 98.4098 45.0687 98.4439 45.2601C98.5502 45.699 98.5181 46.1601 98.3519 46.5801C97.9959 47.5121 97.1519 48.0561 96.4479 47.7801L96.3479 47.7441ZM97.7399 44.6721C97.7134 44.6569 97.6852 44.6448 97.6559 44.6361C97.5094 44.5876 97.3533 44.575 97.2009 44.5993C97.0484 44.6237 96.9041 44.6843 96.7799 44.7761C96.4518 45.0055 96.203 45.3311 96.0679 45.7081C95.7599 46.5081 95.972 47.3481 96.54 47.5641C97.1079 47.7801 97.8239 47.3001 98.1399 46.4921C98.2905 46.1215 98.3213 45.713 98.2279 45.3241C98.1962 45.1875 98.1364 45.0591 98.0524 44.9468C97.9684 44.8346 97.862 44.741 97.7399 44.6721Z"
          fill="#70CB75"/>
    <path d="M94.924 45.2679L94.848 45.0399C95.184 44.9239 95.888 44.8599 96.132 45.4599L95.908 45.5519C95.692 45.0119 94.956 45.2599 94.924 45.2679Z"
          fill="#70CB75"/>
    <path d="M87.2241 42.836L87.0641 42.656C87.1481 42.58 87.9001 41.924 88.4361 42.032C88.9721 42.14 91.8601 43.576 91.9841 43.632L91.8761 43.852C91.0401 43.452 88.7761 42.348 88.3881 42.252C88.0001 42.156 87.4281 42.652 87.2241 42.836Z"
          fill="#70CB75"/>
    <path d="M89.6 43.1482C89.6 43.1482 89.24 40.7482 88.216 40.8042C87.192 40.8602 86.848 43.8802 87.62 44.7002C87.7114 44.8124 87.8246 44.905 87.9527 44.9723C88.0808 45.0397 88.2213 45.0804 88.3655 45.0919C88.5098 45.1035 88.6549 45.0858 88.7922 45.0398C88.9294 44.9937 89.0559 44.9204 89.164 44.8242L89.6 43.1482Z"
          fill="#EB9481"/>
    <path d="M88.1241 41.6763H88.1041C88.6361 42.2763 88.6801 43.0643 88.6081 43.8203C88.6021 43.7347 88.5777 43.6515 88.5366 43.5763C88.4955 43.501 88.4387 43.4356 88.3699 43.3843C88.3012 43.333 88.2222 43.2972 88.1384 43.2792C88.0545 43.2613 87.9678 43.2616 87.8841 43.2803C87.8641 43.2803 87.8641 43.3203 87.8841 43.3283C88.0195 43.3482 88.1454 43.4097 88.2443 43.5043C88.3432 43.5989 88.4102 43.7219 88.4361 43.8563C88.4763 44.0806 88.4924 44.3085 88.4841 44.5363C88.4841 44.6123 88.6081 44.6323 88.6201 44.5363C89.0601 43.7163 88.9881 42.2083 88.1241 41.6763Z"
          fill="#263238"/>
    <path d="M91.0001 52.0001L88.4281 54.8001L85.9121 49.0801L84.2441 49.9801C84.2441 49.9801 85.7401 58.1201 85.8801 57.8321L88.3121 55.5041L89.5121 58.2241L91.2321 53.2041L91.0001 52.0001Z"
          fill="#70CB75"/>
    <path d="M90.5161 55.7762C90.7721 54.9362 91.0561 54.0962 91.2721 53.2481C91.2721 53.2201 91.2401 53.1882 91.2201 53.2202C90.7561 53.9482 89.7921 57.1602 89.5041 57.9082C89.4561 57.7922 88.3441 55.4802 88.3041 55.5082C87.8401 55.8482 86.0601 57.5402 85.9041 57.7042C85.6681 56.4122 84.7041 51.6641 84.3041 50.3841C84.3019 50.378 84.2978 50.3727 84.2924 50.369C84.2871 50.3653 84.2807 50.3633 84.2741 50.3633C84.2676 50.3633 84.2612 50.3653 84.2559 50.369C84.2505 50.3727 84.2464 50.378 84.2441 50.3841C84.3841 51.7081 85.6481 58.0762 85.7001 58.0802C86.5953 57.3034 87.4498 56.481 88.2601 55.6162C88.4161 56.0882 89.4601 58.6162 89.5121 58.4962C89.8947 57.6079 90.2298 56.6999 90.5161 55.7762Z"
          fill="#263238"/>
    <path d="M81.352 66.2881L72.264 73.9281L80.464 83.6761L89.548 76.0361L81.352 66.2881ZM79.2 79.5441L74.576 74.0441L81.084 68.5721L85.708 74.0721L79.2 79.5441Z"
          fill="#263238"/>
    <path d="M104.328 105.312L104.336 105.292L103.588 105.628L103.556 105.6V105.596L103.888 104.872L103.14 105.204L103.108 105.172L103.444 104.444L102.692 104.78L102.66 104.748L102.996 104.024L102.248 104.352L102.216 104.324L102.552 103.596L101.8 103.932L101.768 103.9L102.1 103.172L101.348 103.504L101.32 103.476H101.316L101.652 102.748L100.904 103.08L100.876 103.052L101.208 102.324L100.456 102.656L100.428 102.628H100.424L100.76 101.9L100.012 102.232L99.9841 102.204L99.9801 102.2L100.316 101.476L99.5641 101.808L99.5361 101.78L99.8681 101.052L99.1161 101.384L99.0841 101.356L99.4241 100.624L98.6721 100.96L98.6401 100.928L98.9761 100.204L98.2241 100.536L98.1921 100.508L98.5281 99.7761L97.7761 100.108L97.7481 100.08L98.0801 99.3521L97.3281 99.6841L97.3001 99.6601L97.6321 98.9281L96.8841 99.2601L96.8521 99.2321L97.1881 98.5041L96.4361 98.8361L96.4041 98.8081L96.7401 98.0801L95.9881 98.4161L95.9561 98.3881L96.2921 97.6561L95.5441 97.9881L95.5121 97.9601L95.8441 97.2321L95.0921 97.5641L95.0641 97.5361L95.4001 96.8041L94.6481 97.1361L94.6161 97.1081L94.9521 96.3801L94.2001 96.7161L94.1681 96.6881L94.5041 95.9561L93.7521 96.2921L93.7201 96.2641L94.0561 95.5321L93.3041 95.8681L93.2761 95.8401L93.6121 95.1081L92.8561 95.4441L92.8281 95.4161L93.1641 94.6841L92.4121 95.0161L92.3841 94.9881L92.7161 94.2601L91.9641 94.5961L91.9361 94.5681L92.2721 93.8361L91.5201 94.1681H91.5161L91.4881 94.1401L91.8201 93.4081L91.0681 93.7441L91.0401 93.7161L91.3761 92.9841L90.6201 93.3201L90.5921 93.2921L90.9281 92.5601L90.1761 92.8961L90.1481 92.8681L90.4841 92.1361L89.7281 92.4721L89.7001 92.4441L90.0361 91.7121L89.2841 92.0481L89.2561 92.0201L89.5921 91.2881L88.8321 91.6201L88.8081 91.5961L89.1441 90.8641L88.3841 91.1961L88.3601 91.1681L88.6961 90.4401L87.9401 90.7721L87.9121 90.7441L88.2481 90.0121L87.4921 90.3481L87.4641 90.3201L87.8001 89.5881L87.0481 89.9241L87.0161 89.8961L87.3561 89.1641L86.6001 89.5001L86.5681 89.4721L86.9041 88.7401L86.1561 89.0761L86.1241 89.0481L86.4601 88.3161L85.7041 88.6481L85.6761 88.6241L86.0121 87.8921L85.2561 88.2281L85.2281 88.2041L85.5681 87.4681L84.8121 87.8001L84.7801 87.7721L85.1161 87.0401L84.3641 87.3801L84.3321 87.3521L84.6721 86.6161L83.9161 86.9521L83.8881 86.9241L84.2241 86.1921L83.4681 86.5281L83.4401 86.5041L83.7761 85.7721L83.0201 86.1081L82.9961 86.0761L83.3321 85.3441L82.5761 85.6801L82.5481 85.6521L82.8841 84.9201L82.1281 85.2561L82.1001 85.2321L82.4401 84.4961L81.6801 84.8321L81.6561 84.8041L81.9921 84.0721L81.2321 84.4081L81.2041 84.3801L81.5441 83.6441L80.7881 83.9801L80.4641 83.6761L89.5481 76.0361L108.896 101.4L104.328 105.312Z"
          fill="#C7C7C7"/>
    <g opacity="0.3">
        <path opacity="0.3"
              d="M95.8481 84.2959L84.5921 86.7879L83.9761 86.9239L83.9041 86.9399L83.8881 86.9239L84.2241 86.1919L83.4681 86.5279L83.4401 86.5039L83.7761 85.7719L83.0201 86.1079L82.9961 86.0759L83.3321 85.3439L82.5761 85.6799L82.5481 85.6519L82.7801 85.1479L94.5161 82.5479L95.8481 84.2959Z"
              fill="white"/>
        <path opacity="0.3"
              d="M107.968 102.196L104.748 104.952L103.752 105.172L103.888 104.872L103.14 105.204L103.108 105.172L103.444 104.444L102.692 104.78L102.66 104.748L102.996 104.024L102.248 104.352L102.216 104.324L102.552 103.596L101.8 103.932L101.768 103.9L101.936 103.532L107.968 102.196Z"
              fill="white"/>
        <path opacity="0.3" d="M96.884 98.6396L96.4361 98.8356L96.4041 98.8077L96.4361 98.7356L96.884 98.6396Z"
              fill="white"/>
        <path opacity="0.3"
              d="M106.692 98.5078L98.9682 100.22L98.9082 100.232L98.2522 100.38L98.5282 99.7758L97.7762 100.108L97.7482 100.08L98.0802 99.3518L97.3282 99.6838L97.3002 99.6598L97.6322 98.9278L96.8842 99.2598L96.8522 99.2318L97.1522 98.5798L105.356 96.7598L106.692 98.5078Z"
              fill="white"/>
        <path opacity="0.3"
              d="M93.4201 81.1118L81.4921 83.7518L81.1041 83.8398L80.7281 83.9238L80.4641 83.6758L81.6241 82.6998L92.7521 80.2358L93.4201 81.1118Z"
              fill="white"/>
        <path opacity="0.3"
              d="M94.8321 96.6396L94.9521 96.3796L94.2001 96.7156L94.1681 96.6876L94.3801 96.2276L103.42 94.2236L103.756 94.6596L94.8321 96.6396Z"
              fill="white"/>
        <path opacity="0.3" d="M92.2922 79.6319L82.7642 81.7399L83.5922 81.0479L91.9562 79.1919L92.2922 79.6319Z"
              fill="white"/>
    </g>
    <path d="M84.3559 71.54C84.2402 71.886 84.0215 72.1883 83.7291 72.4064C83.4366 72.6244 83.0845 72.7478 82.7199 72.76C82.8861 73.3575 82.838 73.9943 82.5839 74.56C82.0919 75.532 80.3479 75.188 80.3479 75.188C80.3906 75.8424 80.2359 76.4945 79.9039 77.06C79.3359 77.944 77.5279 77.86 77.5279 77.86C77.235 78.4827 76.7283 78.9795 76.0999 79.26C74.3919 79.944 72.1239 78.28 70.6719 77.236C69.2199 76.192 66.1039 71.84 65.4199 71.076L71.9999 61.728C71.9999 61.728 79.8439 64.548 81.3759 66.016C82.6679 67.252 84.7439 70.2 84.3559 71.54Z"
          fill="#FFBDA7"/>
    <path d="M82.76 72.5643C81.704 70.9203 80.216 69.6763 78.804 68.3563C78.772 68.3243 78.724 68.3763 78.756 68.4043C80.18 69.7043 81.324 71.2683 82.688 72.6243C82.6967 72.6309 82.7073 72.6345 82.7183 72.6343C82.7292 72.6341 82.7397 72.6301 82.7481 72.6231C82.7565 72.6162 82.7623 72.6065 82.7644 72.5958C82.7666 72.5851 82.765 72.574 82.76 72.5643Z"
          fill="#263238"/>
    <path d="M80.4 75.0438C80.1242 74.692 79.8027 74.3785 79.444 74.1118C79.084 73.8078 78.72 73.5078 78.348 73.2158C77.6093 72.6265 76.8533 72.0585 76.08 71.5118C76.048 71.4878 76 71.5318 76.036 71.5598C76.772 72.1478 77.504 72.7598 78.216 73.3598C78.572 73.6678 78.924 73.9798 79.276 74.2958C79.5888 74.6137 79.9363 74.8955 80.312 75.1358C80.3247 75.1412 80.3388 75.1427 80.3524 75.1399C80.3659 75.1371 80.3783 75.1303 80.3879 75.1203C80.3974 75.1103 80.4037 75.0976 80.4059 75.0839C80.4081 75.0703 80.406 75.0563 80.4 75.0438Z"
          fill="#263238"/>
    <path d="M77.496 77.8203C77.2418 77.5046 76.9362 77.2342 76.592 77.0203L75.568 76.2203C74.888 75.6923 74.208 75.1603 73.544 74.6203C73.512 74.5963 73.464 74.6443 73.5 74.6723C74.168 75.2363 74.832 75.8083 75.5 76.3683L76.5 77.1683C76.7818 77.4429 77.1094 77.6663 77.468 77.8283C77.468 77.8283 77.508 77.8363 77.496 77.8203Z"
          fill="#263238"/>
    <path d="M77.7801 51.2002C64.5801 51.2002 49.7441 54.8442 52.4361 59.1802C54.7601 62.9242 64.9041 70.7802 67.2361 72.3802C68.5481 73.2802 75.0801 62.9122 73.5001 62.2762C71.4875 61.3155 69.5358 60.2321 67.6561 59.0322C67.3881 58.6802 73.5441 58.1802 78.5041 56.2962C83.8561 54.2642 84.0361 51.2002 77.7801 51.2002Z"
          fill="#FFBDA7"/>
    <path d="M70.284 60.1719L56.748 67.0599C56.748 67.0599 52.188 62.4639 51.8 58.5479C51.412 54.6319 60.2 50.9479 78.972 50.7319C80.284 50.7319 83.292 50.8079 83.26 51.1999C83.06 53.5119 82.516 55.7399 78.984 56.9559C75.5986 58.0989 72.0997 58.8727 68.548 59.2639L70.284 60.1719Z"
          fill="#70CB75"/>
    <path d="M55.632 67.06L69.788 59.688L72.264 61.152C72.264 61.152 59.344 70.296 59.18 70.164C59.016 70.032 55.632 67.06 55.632 67.06Z"
          fill="#70CB75"/>
    <path opacity="0.1"
          d="M55.632 67.06L69.788 59.688L72.264 61.152C72.264 61.152 59.344 70.296 59.18 70.164C59.016 70.032 55.632 67.06 55.632 67.06Z"
          fill="black"/>
    <path d="M132.868 158.604H131.404V181.464H132.868V158.604Z" fill="#70CB75"/>
    <path d="M151.188 171.2L149.984 170.776L150.612 170.492L150.3 169.872L150.928 169.584L150.616 168.968L151.248 168.676L150.932 168.064L151.564 167.772L151.252 167.152L151.88 166.868L151.568 166.248L152.196 165.96L151.884 165.344L152.512 165.052L152.2 164.436L152.828 164.148L152.516 163.528L153.148 163.24L152.832 162.624L153.464 162.336L153.148 161.72L153.78 161.428L153.468 160.812L154.096 160.524L153.784 159.904L154.412 159.616L154.1 159L154.728 158.712L154.416 158.092L155.048 157.804L154.732 157.188L155.364 156.896L155.052 156.28L155.68 155.992L155.368 155.372L155.996 155.088L155.684 154.468L156.312 154.18L156 153.564L156.628 153.272L156.316 152.656L156.948 152.368L156.632 151.748L157.264 151.464L156.952 150.844L157.58 150.556L157.268 149.94L157.896 149.648L157.584 149.032L158.212 148.744L157.9 148.124L158.528 147.84L158.216 147.22L159.424 147.64L151.188 171.2Z"
          fill="#C7C7C7"/>
    <path d="M159.44 147.657L161.195 142.635L159.982 142.211L158.228 147.233L159.44 147.657Z" fill="#37474F"/>
    <path d="M151.2 171.2L151.52 170.284L156 171.856C156.213 171.929 156.446 171.914 156.648 171.816C156.85 171.718 157.006 171.544 157.08 171.332L164.28 150.752C164.354 150.539 164.341 150.305 164.244 150.102C164.146 149.899 163.972 149.743 163.76 149.668L159.276 148.104L159.6 147.2L164.084 148.768C164.31 148.846 164.517 148.969 164.696 149.128C164.874 149.287 165.019 149.479 165.122 149.694C165.226 149.909 165.286 150.143 165.3 150.381C165.313 150.62 165.279 150.858 165.2 151.084L158 171.664C157.84 172.118 157.507 172.491 157.073 172.701C156.639 172.91 156.139 172.938 155.684 172.78L151.2 171.2Z"
          fill="#263238"/>
    <path d="M164.104 158.604H162.64V181.464H164.104V158.604Z" fill="#70CB75"/>
    <path d="M162.716 160.424H132.864V161.6H162.716V160.424Z" fill="#70CB75"/>
    <path d="M132.472 156.204L140.364 154.492L138.528 146.024L130.636 147.736L132.472 156.204ZM133.02 153.316L131.984 148.516L137.636 147.292L138.672 152.068L133.02 153.316Z"
          fill="#263238"/>
    <path d="M142.084 176.34L142.072 176.336L142.564 176.072L142.56 176.044V176.04L142.032 175.92L142.52 175.652L142.516 175.624L141.984 175.5L142.48 175.236L142.476 175.204L141.944 175.084L142.432 174.82V174.792L141.9 174.668L142.392 174.404L142.388 174.372L141.86 174.248L142.352 173.984L142.348 173.956V173.952L141.816 173.832L142.308 173.568L142.304 173.54L141.776 173.416L142.264 173.148L142.26 173.124L142.264 173.12L141.732 173L142.224 172.732L142.22 172.708V172.704L141.688 172.584L142.18 172.316L142.176 172.292L141.648 172.164L142.14 171.9L142.136 171.872L141.6 171.748L142.096 171.484L142.092 171.452L141.56 171.332L142.052 171.068V171.036L141.516 170.912L142.008 170.648L142.004 170.62L141.476 170.496L141.968 170.228L141.964 170.204L141.432 170.08L141.924 169.816L141.92 169.784L141.392 169.664L141.88 169.396V169.368L141.348 169.248L141.844 168.98L141.84 168.952L141.308 168.828L141.796 168.564V168.536L141.264 168.412L141.756 168.144L141.752 168.116L141.22 167.996L141.712 167.728L141.708 167.7L141.176 167.576L141.672 167.312L141.668 167.284L141.136 167.16L141.628 166.892V166.864L141.092 166.74L141.588 166.476L141.584 166.448L141.048 166.324L141.544 166.06L141.54 166.032L141.008 165.908L141.5 165.64L141.496 165.616L140.968 165.492L141.46 165.224L141.456 165.2L140.924 165.076L141.416 164.808L141.412 164.78L140.88 164.656L141.372 164.388V164.364L140.836 164.24L141.332 163.972L141.328 163.944L140.796 163.82L141.288 163.556L141.284 163.528L140.752 163.404L141.248 163.14L141.244 163.112L140.708 162.988L141.204 162.724L141.2 162.696L140.664 162.572L141.16 162.3L141.156 162.28L140.624 162.156L141.12 161.884L141.112 161.86L140.58 161.74L141.076 161.468L141.072 161.444L140.54 161.32L141.032 161.052L141.028 161.024L140.496 160.9L140.988 160.636V160.608L140.452 160.484L140.948 160.22V160.192L140.412 160.068L140.904 159.804V159.776L140.368 159.652L140.86 159.384V159.356L140.328 159.232L140.824 158.968L140.82 158.94L140.284 158.82L140.776 158.548V158.52L140.24 158.396L140.736 158.132V158.104L140.196 157.98L140.692 157.716L140.688 157.688L140.156 157.564L140.652 157.296L140.648 157.272L140.116 157.148L140.612 156.88L140.604 156.856L140.072 156.732L140.564 156.464L140.56 156.436L140.028 156.312L140.524 156.048V156.02L139.984 155.9L140.48 155.628L140.476 155.604L139.944 155.48L140.44 155.212L140.436 155.184L139.9 155.06L140.396 154.796L140.364 154.492L132.476 156.204L138.076 177.168L142.084 176.34Z"
          fill="#C7C7C7"/>
    <g opacity="0.3">
        <path opacity="0.3"
              d="M134.3 163.032L140.324 158.008L140.652 157.736L140.692 157.704L140.688 157.688L140.156 157.564L140.652 157.296L140.648 157.272L140.116 157.148L140.612 156.88L140.604 156.856L140.072 156.732L140.564 156.464L140.56 156.436L140.196 156.352L133.912 161.588L134.3 163.032Z"
              fill="white"/>
        <path opacity="0.3"
              d="M138.892 177L141.716 176.416L142.248 175.972L142.032 175.92L142.52 175.652L142.516 175.624L141.984 175.5L142.48 175.236L142.476 175.204L141.944 175.084L142.432 174.82V174.792L141.9 174.668L142.392 174.404L142.388 174.372L142.12 174.312L138.892 177Z"
              fill="white"/>
        <path opacity="0.3" d="M141.588 169.555L141.88 169.395V169.367L141.828 169.355L141.588 169.555Z" fill="white"/>
        <path opacity="0.3"
              d="M137.44 174.78L141.572 171.336L141.604 171.308L141.956 171.016L141.516 170.912L142.008 170.648L142.004 170.62L141.476 170.496L141.968 170.228L141.964 170.204L141.432 170.08L141.924 169.816L141.92 169.784L141.448 169.676L137.052 173.336L137.44 174.78Z"
              fill="white"/>
        <path opacity="0.3"
              d="M133.596 160.4L139.98 155.08L140.188 154.908L140.388 154.74L140.364 154.492L139.356 154.712L133.404 159.676L133.596 160.4Z"
              fill="white"/>
        <path opacity="0.3"
              d="M141.368 167.62L141.176 167.576L141.672 167.312L141.668 167.284L141.332 167.204L136.496 171.236L136.588 171.6L141.368 167.62Z"
              fill="white"/>
        <path opacity="0.3" d="M133.268 159.176L138.368 154.928L137.648 155.084L133.172 158.816L133.268 159.176Z"
              fill="white"/>
    </g>
    <path d="M141.394 176.096L139.587 176.602C139.332 176.674 139.059 176.641 138.827 176.511C138.596 176.382 138.426 176.165 138.354 175.91L135.586 166.043L139.318 164.996L142.086 174.863C142.158 175.118 142.125 175.392 141.995 175.623C141.865 175.854 141.649 176.024 141.394 176.096Z"
          fill="#37474F"/>
    <path d="M136.193 165.875L138.708 165.17L138.429 164.172L135.914 164.878L136.193 165.875Z" fill="#37474F"/>
    <path d="M136.772 164.631L137.569 164.408L134.555 153.662L133.758 153.886L136.772 164.631Z" fill="#EBEBEB"/>
    <path d="M133.076 153.068C133.076 153.068 133.104 151.28 133.156 151.264L133.42 151.192L133.688 151.12C133.74 151.12 134.692 152.62 134.692 152.62L134.544 153.676L133.744 153.9L133.076 153.068Z"
          fill="#EBEBEB"/>
    <path d="M140.951 174.704L141.602 174.521L139.254 166.153L138.603 166.335L140.951 174.704Z" fill="#263238"/>
    <path d="M139.742 175.041L140.393 174.858L138.045 166.489L137.394 166.672L139.742 175.041Z" fill="#263238"/>
    <path d="M138.53 175.383L139.181 175.201L136.833 166.832L136.182 167.014L138.53 175.383Z" fill="#263238"/>
    <path d="M141.893 153.043L143.767 153.136C144.031 153.149 144.28 153.267 144.458 153.464C144.636 153.66 144.729 153.92 144.716 154.185L144.206 164.42L140.335 164.227L140.844 153.992C140.858 153.727 140.976 153.478 141.172 153.3C141.369 153.122 141.628 153.03 141.893 153.043Z"
          fill="#37474F"/>
    <path d="M143.58 164.39L140.971 164.26L140.919 165.294L143.528 165.424L143.58 164.39Z" fill="#37474F"/>
    <path d="M142.638 165.377L141.811 165.336L141.256 176.482L142.083 176.523L142.638 165.377Z" fill="#EBEBEB"/>
    <path d="M142.444 177.532C142.444 177.532 141.852 179.224 141.796 179.22H141.52H141.248C141.192 179.22 140.768 177.476 140.768 177.476L141.244 176.524L142.068 176.564L142.444 177.532Z"
          fill="#EBEBEB"/>
    <path d="M141.871 154.499L141.196 154.466L140.764 163.147L141.439 163.181L141.871 154.499Z" fill="#263238"/>
    <path d="M143.26 154.796L142.584 154.763L142.15 163.455L142.826 163.488L143.26 154.796Z" fill="#263238"/>
    <path d="M144.374 154.632L143.699 154.599L143.267 163.28L143.942 163.313L144.374 154.632Z" fill="#263238"/>
    <path d="M147.821 175.66L151.137 175.26L148.656 154.693L145.34 155.093L147.821 175.66Z" fill="#263238"/>
    <path d="M145.186 157.3L149.32 156.801L148.821 152.667L144.687 153.166L145.186 157.3Z" fill="#C7C7C7"/>
    <path d="M148.848 152.86C148.848 152.86 152.784 150.028 154.848 149.78L155.708 156.912L149.308 156.596L148.848 152.86Z"
          fill="#C7C7C7"/>
    <g opacity="0.2">
        <path opacity="0.2" d="M155.236 153.075L152.568 156.755H152.564L150.944 156.675L155 151.099L155.236 153.075Z"
              fill="white"/>
        <path opacity="0.2"
              d="M154.536 149.835L149.6 156.611H149.288L149.216 156.003L153.424 150.207C153.782 150.049 154.155 149.924 154.536 149.835Z"
              fill="white"/>
        <path opacity="0.2"
              d="M152.568 150.591L149.144 155.303L149.084 154.807L151.884 150.947C152.112 150.823 152.34 150.703 152.568 150.591Z"
              fill="white"/>
    </g>
    <path d="M155.866 153.457L153.347 153.051L152.713 156.984L155.232 157.39L155.866 153.457Z" fill="#EBEBEB"/>
    <path d="M155.664 154.64L157.372 154.916C157.632 154.956 158.82 153.944 159.62 154.072L160.496 154.216C161.256 154.336 164.332 155.628 164.012 157.608C163.692 159.588 163.82 158.784 163.82 158.784C163.82 158.784 163.548 157.676 162.86 157.364C162.536 157.217 162.168 157.203 161.835 157.325C161.501 157.447 161.229 157.695 161.076 158.016C160.834 158.576 160.634 159.154 160.476 159.744L157.348 159.24C157.315 158.524 157.217 157.813 157.056 157.116C156.856 156.576 155.372 156.46 155.372 156.46L155.664 154.64Z"
          fill="#EBEBEB"/>
    <path d="M159.878 159.637L157.935 159.323L156.804 166.337L158.747 166.65L159.878 159.637Z" fill="#EBEBEB"/>
    <path d="M159.746 163.454L156.855 162.988L154.338 178.599L157.229 179.065L159.746 163.454Z" fill="#263238"/>
    <path d="M162.64 165.692H132.864V181.464H162.64V165.692Z" fill="#70CB75"/>
    <g opacity="0.1">
        <path opacity="0.1"
              d="M132.864 167.516C134.308 167.456 135.752 167.428 137.196 167.404C138.64 167.38 140.084 167.38 141.528 167.368L145.864 167.4C147.308 167.424 148.752 167.456 150.196 167.516C148.752 167.58 147.308 167.608 145.864 167.632L141.528 167.668C140.084 167.668 138.64 167.668 137.196 167.632C135.752 167.596 134.308 167.6 132.864 167.516Z"
              fill="black"/>
        <path opacity="0.1"
              d="M139.924 168.952C141.82 168.888 143.712 168.86 145.604 168.836L151.284 168.8L156.96 168.836C158.856 168.86 160.748 168.888 162.64 168.952C160.748 169.012 158.856 169.04 156.96 169.064L151.284 169.1L145.604 169.064C143.712 169.04 141.82 169.012 139.924 168.952Z"
              fill="black"/>
        <path opacity="0.1"
              d="M157.6 171.107C155.856 171.171 154.116 171.199 152.372 171.223L147.144 171.259L141.916 171.223C140.172 171.199 138.428 171.171 136.688 171.107C138.428 171.047 140.172 171.015 141.916 170.991L147.144 170.959L152.372 170.991C154.104 171.015 155.844 171.047 157.6 171.107Z"
              fill="black"/>
        <path opacity="0.1"
              d="M132.864 171.972C133.972 171.912 135.08 171.884 136.188 171.86C137.296 171.836 138.404 171.836 139.512 171.824C140.62 171.812 141.728 171.824 142.832 171.856C143.936 171.888 145.048 171.912 146.156 171.972C145.048 172.036 143.94 172.064 142.832 172.088C141.724 172.112 140.62 172.112 139.512 172.124C138.404 172.136 137.296 172.124 136.188 172.088C135.08 172.052 133.972 172.036 132.864 171.972Z"
              fill="black"/>
        <path opacity="0.1"
              d="M132.864 173.016L136.188 172.94L139.512 172.9L146.16 172.864L152.808 172.9L156.132 172.94L159.456 173.016L156.132 173.088L152.808 173.128L146.16 173.164L139.512 173.128L136.188 173.088L132.864 173.016Z"
              fill="black"/>
        <path opacity="0.1"
              d="M162.64 173.836C161.44 173.896 160.212 173.928 158.996 173.952C157.78 173.976 156.564 173.972 155.352 173.984C154.14 173.996 152.92 173.984 151.704 173.952C150.488 173.92 149.276 173.896 148.06 173.836C149.26 173.772 150.488 173.744 151.704 173.72C152.92 173.696 154.136 173.696 155.352 173.684C156.568 173.672 157.78 173.684 158.996 173.72C160.212 173.756 161.424 173.772 162.64 173.836Z"
              fill="black"/>
        <path opacity="0.1"
              d="M144.124 175.099C145.244 175.035 146.368 175.007 147.488 174.983C148.608 174.959 149.732 174.959 150.856 174.947C151.98 174.935 153.1 174.947 154.22 174.983C155.34 175.019 156.468 175.035 157.588 175.099C156.468 175.159 155.344 175.191 154.22 175.215C153.096 175.239 151.976 175.215 150.856 175.247C149.736 175.279 148.612 175.247 147.488 175.211C146.364 175.175 145.244 175.159 144.124 175.099Z"
              fill="black"/>
        <path opacity="0.1"
              d="M132.864 177.436C134.716 177.376 136.564 177.348 138.412 177.324L143.964 177.288L149.512 177.32C151.36 177.344 153.212 177.376 155.06 177.436C153.212 177.5 151.36 177.528 149.512 177.552L143.964 177.588L138.4 177.552C136.564 177.528 134.716 177.5 132.864 177.436Z"
              fill="black"/>
        <path opacity="0.1"
              d="M162.64 179.024C161.4 179.084 160.16 179.112 158.92 179.136C157.68 179.16 156.436 179.16 155.196 179.172C153.956 179.184 152.716 179.172 151.476 179.14C150.236 179.108 148.992 179.084 147.752 179.024C148.992 178.96 150.232 178.932 151.476 178.908C152.72 178.884 153.956 178.884 155.196 178.872C156.436 178.86 157.676 178.872 158.92 178.908C160.164 178.944 161.4 178.96 162.64 179.024Z"
              fill="black"/>
        <path opacity="0.1"
              d="M132.864 180.352C133.904 180.292 134.94 180.264 135.976 180.24C137.012 180.216 138.052 180.216 139.088 180.204C140.124 180.192 141.164 180.204 142.2 180.236C143.236 180.268 144.276 180.292 145.312 180.352C144.276 180.416 143.24 180.444 142.2 180.468C141.16 180.492 140.128 180.492 139.088 180.504C138.048 180.516 137.016 180.504 135.976 180.468C134.936 180.432 133.904 180.4 132.864 180.352Z"
              fill="black"/>
    </g>
</svg>
