<svg width="100%" height="100%" viewBox="0 0 121 120" fill="none" xmlns="http://www.w3.org/2000/svg">
    <path d="M0.5 4C0.5 1.79086 2.29086 0 4.5 0H116.5C118.709 0 120.5 1.79086 120.5 4V116C120.5 118.209 118.709 120 116.5 120H4.5C2.29086 120 0.5 118.209 0.5 116V4Z"
          fill="#F5FAFF"/>
    <path fill-rule="evenodd" clip-rule="evenodd"
          d="M55.7574 30.1018C50.7361 31.8268 45.9624 35.5168 42.2049 38.9593C34.3786 46.1293 33.2124 47.6368 23.5524 53.6555C17.9274 57.1655 13.4836 60.1318 11.3011 64.0955C5.15861 75.2405 12.4749 87.2818 27.8049 87.2818C28.4311 87.2818 90.1186 87.2818 90.1186 87.2818C90.1186 87.2818 97.4499 87.4355 102.797 81.4768C120.929 61.283 90.8574 18.0418 55.7574 30.1018Z"
          fill="#FFEBC2"/>
    <path fill-rule="evenodd" clip-rule="evenodd"
          d="M47.5134 26.4004H22.7184C20.4459 26.4004 18.5859 28.2904 18.5859 30.6041V82.8116C18.5859 85.1216 20.4459 87.0154 22.7184 87.0154H47.5097C49.7822 87.0154 51.6422 85.1254 51.6422 82.8116V30.6079C51.6459 28.2979 49.7859 26.4004 47.5134 26.4004Z"
          fill="#FFCB68"/>
    <path d="M106.469 74.2393H26.3203V80.573H106.469V74.2393Z" fill="#002A35"/>
    <path fill-rule="evenodd" clip-rule="evenodd"
          d="M108.494 80.5689H105.734C104.838 80.5689 104.44 78.9489 103.893 78.0377C103.57 76.4777 102.198 75.3564 100.604 75.3564H95.4103C93.8203 75.3564 92.4441 76.4777 92.1216 78.0377L91.8703 79.2752C91.7166 80.0289 91.0528 80.5727 90.2841 80.5727H74.6016V74.2389V71.9627V68.7639V50.9102H82.4953C82.6978 50.9102 82.9041 50.9214 83.1103 50.9402H83.1141C85.1916 51.1539 87.3591 52.4177 88.4316 54.1727L88.4353 54.1764L96.7641 64.6502L106.297 67.5902C107.118 67.7664 107.838 68.1902 108.378 68.7714C108.712 69.6977 108.982 70.7814 109.162 71.9702C109.203 72.2327 109.237 72.4989 109.27 72.7689L110.088 78.8364C110.129 79.2827 109.972 79.7289 109.672 80.0589C109.368 80.3814 108.94 80.5689 108.494 80.5689Z"
          fill="#0C604C"/>
    <path d="M44.7113 81.424C44.7113 84.5815 42.1538 87.139 38.9963 87.139C35.8388 87.139 33.2812 84.5815 33.2812 81.424C33.2812 78.2665 35.8388 75.709 38.9963 75.709C42.1538 75.709 44.7113 78.2665 44.7113 81.424Z"
          fill="#171212"/>
    <path d="M41.7834 81.424C41.7834 82.9615 40.5347 84.2102 38.9972 84.2102C37.4597 84.2102 36.2109 82.9615 36.2109 81.424C36.2109 79.8865 37.4597 78.6377 38.9972 78.6377C40.5347 78.634 41.7834 79.8865 41.7834 81.424Z"
          fill="#C8C9CA"/>
    <path d="M103.743 81.424C103.743 84.5815 101.185 87.139 98.0275 87.139C94.87 87.139 92.3125 84.5815 92.3125 81.424C92.3125 78.2665 94.87 75.709 98.0275 75.709C101.185 75.709 103.743 78.2665 103.743 81.424Z"
          fill="black"/>
    <path d="M108.932 70.71C109.16 71.7525 109.284 72.5475 109.408 73.7812C106.119 73.8225 104.432 74.1487 102.98 70.71H108.932Z"
          fill="#E1F1E3"/>
    <path d="M111.878 79.4929C111.878 80.4791 111.173 81.2816 110.303 81.2816H104.764L103.23 76.5566H110.303C111.173 76.5566 111.878 77.3591 111.878 78.3454V79.4929Z"
          fill="black"/>
    <path d="M97.3298 75.3604H96.9023V75.3791H97.3298V75.3604Z" fill="#262423"/>
    <path d="M100.815 81.4239C100.815 82.9614 99.5659 84.2102 98.0284 84.2102C96.4909 84.2102 95.2422 82.9614 95.2422 81.4239C95.2422 79.8864 96.4909 78.6377 98.0284 78.6377C99.5659 78.6377 100.815 79.8864 100.815 81.4239Z"
          fill="#606060"/>
    <path d="M86.8845 65.6705H78.3008C77.3708 65.6705 76.6133 64.913 76.6133 63.983V59.0818V58.0205C76.6133 57.1243 77.3145 56.3893 78.1958 56.3368C78.2333 56.333 78.267 56.333 78.3045 56.333H79.692H82.1708H86.9145C87.3458 56.333 87.7545 56.5355 88.0208 56.8768L93.3683 63.7655C93.6458 64.1218 93.6983 64.6055 93.4958 65.0105L93.4883 65.0218C93.3308 65.3443 93.0308 65.5693 92.6895 65.648C92.6033 65.663 92.5208 65.6743 92.427 65.6743H91.2083H86.8845V65.6705Z"
          fill="#E1F1E3"/>
    <path fill-rule="evenodd" clip-rule="evenodd"
          d="M37.9394 79.5342C38.6894 79.5342 39.3006 80.1454 39.3006 80.8954C39.3006 81.6454 38.6894 82.2567 37.9394 82.2567C37.1894 82.2567 36.5781 81.6454 36.5781 80.8954C36.5781 80.1454 37.1856 79.5342 37.9394 79.5342Z"
          fill="white"/>
    <path fill-rule="evenodd" clip-rule="evenodd"
          d="M97.2402 79.5342C97.9902 79.5342 98.6014 80.1454 98.6014 80.8954C98.6014 81.6454 97.9902 82.2567 97.2402 82.2567C96.4902 82.2567 95.8789 81.6454 95.8789 80.8954C95.8789 80.1454 96.4902 79.5342 97.2402 79.5342Z"
          fill="white"/>
    <path fill-rule="evenodd" clip-rule="evenodd"
          d="M74.6853 74.1412H23.3516V44.6249C23.3516 44.2349 23.6591 43.9199 24.0378 43.9199H73.8303C74.3028 43.9199 74.6853 44.3174 74.6853 44.8012V74.1412Z"
          fill="#E1F1E3"/>
    <path fill-rule="evenodd" clip-rule="evenodd"
          d="M44.6583 80.5691L44.5083 79.2266L44.4595 78.9379C44.152 77.0104 42.8133 75.6229 41.2683 75.6229H36.4833C34.9683 75.6229 33.6558 76.9466 33.3108 78.8141L33.0933 80.5691H22.3945V74.2354H74.5983V80.5691H44.6583Z"
          fill="black"/>
    <path fill-rule="evenodd" clip-rule="evenodd"
          d="M89.8484 55.9395C89.8484 55.9395 89.1434 56.1982 89.1134 56.4607C89.0834 56.7232 95.2784 64.377 95.2784 64.377L96.7596 64.647C95.8784 62.9295 90.6996 56.6482 89.8484 55.9395Z"
          fill="#E1F1E3"/>
    <path d="M93.1992 62.2578C93.9455 62.2578 94.553 62.8653 94.553 63.6116V65.3178C94.553 66.0641 93.9455 66.6716 93.1992 66.6716V62.2578Z"
          fill="black"/>
    <path fill-rule="evenodd" clip-rule="evenodd"
          d="M98.6397 69.4463H101.478C101.696 69.4463 101.876 69.6263 101.876 69.8438C101.876 70.0613 101.696 70.2413 101.478 70.2413H98.6397C98.4222 70.2413 98.2422 70.0613 98.2422 69.8438C98.2459 69.6263 98.4259 69.4463 98.6397 69.4463Z"
          fill="#FFCB68"/>
    <path fill-rule="evenodd" clip-rule="evenodd" d="M78.5352 56.333L85.2439 65.6705H87.2314L80.5002 56.333H78.5352Z"
          fill="white"/>
    <path fill-rule="evenodd" clip-rule="evenodd" d="M81.7812 56.333L88.49 65.6705H90.4738L83.7462 56.333H81.7812Z"
          fill="white"/>
    <path fill-rule="evenodd" clip-rule="evenodd"
          d="M73.1517 72.9074L24.7992 72.9487V45.3562C24.7992 45.3524 24.803 45.3412 24.8067 45.3374L72.9867 45.2962C73.0842 45.2962 73.1517 45.3937 73.1517 45.4874V72.9074ZM24.878 74.2387H31.1442H74.5955V50.9062V44.8949C74.5955 44.4112 74.2092 44.0137 73.7405 44.0137H23.948C23.573 44.0137 23.2617 44.3324 23.2617 44.7187V74.2349H23.5317L24.878 74.2387Z"
          fill="#0C604C"/>
    <path fill-rule="evenodd" clip-rule="evenodd"
          d="M78.6128 66.5029C79.3478 66.5029 79.9366 66.8592 79.9366 67.3054C79.9366 67.7479 79.3403 68.1079 78.6128 68.1079C77.8778 68.1079 77.2891 67.7517 77.2891 67.3054C77.2853 66.8629 77.8778 66.5029 78.6128 66.5029Z"
          fill="#E1F1E3"/>
    <path fill-rule="evenodd" clip-rule="evenodd"
          d="M77.1963 66.9453H80.0351C80.2338 66.9453 80.3913 67.1066 80.3913 67.3016C80.3913 67.5003 80.2301 67.6578 80.0351 67.6578H77.1963C76.9976 67.6578 76.8401 67.4966 76.8401 67.3016C76.8326 67.1103 76.9976 66.9453 77.1963 66.9453Z"
          fill="#004C40"/>
    <path d="M93.1369 62.7155L88.0031 56.0517L87.7519 55.7705H75.5869V80.5692H75.4219V55.688V55.6055H75.5044H87.7894H87.8269L87.8531 55.6317L88.1306 55.9392L88.1344 55.9467L93.2681 62.618L93.1369 62.7155Z"
          fill="#004C40"/>
    <path d="M92.7744 65.6406V76.6319L92.6094 76.8681V65.6406H92.7744Z" fill="#004C40"/>
    <path fill-rule="evenodd" clip-rule="evenodd"
          d="M83.0572 48.5143L88.3334 39.3756C88.8659 38.4568 89.1847 37.3956 89.1847 36.2593C89.1847 32.8731 86.4397 30.1318 83.0572 30.1318C79.6709 30.1318 76.9297 32.8768 76.9297 36.2593C76.9297 37.3956 77.2522 38.4568 77.7809 39.3756L83.0572 48.5143Z"
          fill="#FFCB68"/>
    <path fill-rule="evenodd" clip-rule="evenodd"
          d="M83.0577 40.5899C80.6689 40.5899 78.7227 38.6437 78.7227 36.2549C78.7227 33.8662 80.6689 31.9199 83.0577 31.9199C85.4464 31.9199 87.3927 33.8662 87.3927 36.2549C87.3927 38.6437 85.4464 40.5899 83.0577 40.5899Z"
          fill="white"/>
    <path fill-rule="evenodd" clip-rule="evenodd"
          d="M83.0564 33.1094C81.3202 33.1094 79.9102 34.5156 79.9102 36.2556C79.9102 37.9956 81.3164 39.4019 83.0564 39.4019C84.7927 39.4019 86.2026 37.9956 86.2026 36.2556C86.2064 34.5194 84.7964 33.1094 83.0564 33.1094Z"
          fill="#FFCB68"/>
    <path fill-rule="evenodd" clip-rule="evenodd"
          d="M82.2938 33.8555C81.5288 33.8555 80.9062 34.478 80.9062 35.243C80.9062 36.008 81.5288 36.6305 82.2938 36.6305C83.0588 36.6305 83.6813 36.008 83.6813 35.243C83.6813 34.4742 83.0588 33.8555 82.2938 33.8555Z"
          fill="#FFEBC2"/>
    <path fill-rule="evenodd" clip-rule="evenodd"
          d="M48.4822 26.4004H23.6872C21.4147 26.4004 19.5547 28.2904 19.5547 30.6041V82.8116C19.5547 85.1216 21.4147 87.0154 23.6872 87.0154H48.4784C50.7509 87.0154 52.6109 85.1254 52.6109 82.8116V30.6079C52.6147 28.2979 50.7547 26.4004 48.4822 26.4004Z"
          fill="#9FA4AB"/>
    <path fill-rule="evenodd" clip-rule="evenodd"
          d="M48.6755 28.3164C49.8792 28.3164 50.873 29.3064 50.873 30.5139V82.5489C50.873 83.7527 49.883 84.7464 48.6755 84.7464H23.4905C22.2867 84.7464 21.293 83.7564 21.293 82.5489V30.5139C21.293 29.3102 22.283 28.3164 23.4905 28.3164H28.8042C28.8042 29.0477 29.4005 29.6402 30.128 29.6402H42.533C43.2642 29.6402 43.8567 29.0439 43.8567 28.3164H48.6755Z"
          fill="#FFEBC2"/>
    <path fill-rule="evenodd" clip-rule="evenodd" d="M22.7578 78.8588L49.2928 78.78V33.915L22.7578 33.9938V78.8588Z"
          fill="#003D51"/>
    <path fill-rule="evenodd" clip-rule="evenodd" d="M49.2928 78.78L22.7578 78.8588V33.9938L49.2928 33.915V78.78Z"
          fill="white"/>
    <path fill-rule="evenodd" clip-rule="evenodd" d="M49.2928 78.78L22.7578 78.8588V33.9938L49.2928 33.915V78.78Z"
          fill="#9FA4AB"/>
    <path fill-rule="evenodd" clip-rule="evenodd"
          d="M22.7577 53.6963C24.7452 55.2 26.7664 56.6963 28.8252 58.185C35.3239 62.8763 42.1827 67.4625 49.2927 72.0525V74.0963C41.6389 69.1725 34.2589 64.26 27.2877 59.2313C25.7577 58.125 24.2464 57.015 22.7539 55.9013V53.6963H22.7577Z"
          fill="white"/>
    <path fill-rule="evenodd" clip-rule="evenodd"
          d="M22.7578 33.994L24.2391 33.9902C23.7478 40.5415 23.2528 47.0852 22.7578 53.629V33.994Z" fill="white"/>
    <path fill-rule="evenodd" clip-rule="evenodd" d="M22.7578 53.2995L49.2928 53.2207V54.8445L22.7578 54.9232V53.2995Z"
          fill="white"/>
    <path fill-rule="evenodd" clip-rule="evenodd"
          d="M22.7578 58.7512C25.1916 58.2299 27.0891 56.3399 27.2166 54.0974C27.3553 51.6337 25.4016 49.6087 22.7578 49.3574V58.7512Z"
          fill="white"/>
    <path fill-rule="evenodd" clip-rule="evenodd"
          d="M22.7578 57.1576C24.2316 56.7188 25.3566 55.5151 25.4466 54.1051C25.5441 52.5376 24.3928 51.2438 22.7578 50.9551V57.1576Z"
          fill="#1E8161"/>
    <path fill-rule="evenodd" clip-rule="evenodd"
          d="M23.7366 69.8969L22.7578 68.5994V68.5431L49.2928 55.0469V56.8169L23.7366 69.8969Z" fill="white"/>
    <path fill-rule="evenodd" clip-rule="evenodd"
          d="M49.2909 43.7291C48.6159 43.0616 47.9409 42.3978 47.2734 41.7303C47.4797 41.2316 47.6784 40.7328 47.8772 40.2266C48.3459 40.6953 48.8184 41.1678 49.2872 41.6328V43.7253H49.2909V43.7291Z"
          fill="white"/>
    <path fill-rule="evenodd" clip-rule="evenodd"
          d="M42.6216 41.9483C42.1378 42.207 41.6503 42.4583 41.1666 42.7095C38.3653 39.7958 35.6391 36.882 32.9766 33.9645L35.0878 33.957C37.5441 36.6233 40.0491 39.2895 42.6216 41.9483Z"
          fill="white"/>
    <path fill-rule="evenodd" clip-rule="evenodd"
          d="M41.0938 47.7452C41.1538 47.1414 41.2062 46.5414 41.2512 45.9414L49.2875 45.9189V47.7227L41.0938 47.7452Z"
          fill="white"/>
    <path fill-rule="evenodd" clip-rule="evenodd"
          d="M22.7575 46.4334C25.855 46.3546 28.9488 46.2684 32.035 46.1859C35.4363 46.0996 38.8375 46.0021 42.235 45.9121C42.3063 46.5234 42.3925 47.1346 42.4638 47.7459C39.0325 47.8396 35.605 47.9334 32.185 48.0196C29.035 48.0984 25.8963 48.1846 22.75 48.2709V46.4334H22.7575Z"
          fill="white"/>
    <path fill-rule="evenodd" clip-rule="evenodd"
          d="M37.7716 54.3981C37.1003 54.2893 36.4216 54.1881 35.7578 54.0793C35.8291 51.8181 35.9003 49.5568 35.9791 47.2881C36.6278 47.4643 37.2841 47.6331 37.9328 47.7981C37.8766 50.0068 37.8241 52.2006 37.7716 54.3981Z"
          fill="white"/>
    <path fill-rule="evenodd" clip-rule="evenodd"
          d="M31.2683 54.2291C30.6045 54.1204 29.9408 54.0191 29.2695 53.9104C29.4008 51.6491 29.5433 49.3879 29.6745 47.1191C30.3158 47.2954 30.9608 47.4641 31.6133 47.6291C31.497 49.8379 31.392 52.0316 31.2683 54.2291Z"
          fill="white"/>
    <path fill-rule="evenodd" clip-rule="evenodd"
          d="M37.7703 38.3888C37.3691 37.9163 36.9678 37.4363 36.5703 36.9563C40.0616 36.3938 43.5228 35.8275 46.9578 35.2612C47.7378 35.1337 48.5216 35.0025 49.2978 34.875V36.5138C48.9378 36.5738 48.5778 36.6338 48.2103 36.6938C44.7528 37.2525 41.2766 37.8263 37.7703 38.3888Z"
          fill="white"/>
    <path fill-rule="evenodd" clip-rule="evenodd"
          d="M45.0102 36.0569C44.4177 36.2632 43.8214 36.4732 43.2327 36.6757C42.6889 35.7644 42.1414 34.8532 41.5977 33.9382L43.7314 33.9307C44.1552 34.6432 44.5789 35.3519 45.0102 36.0569Z"
          fill="white"/>
    <path fill-rule="evenodd" clip-rule="evenodd"
          d="M22.7578 74.6515C26.4291 74.2428 30.0966 73.834 33.7416 73.4253C38.4291 72.9003 43.1091 72.3715 47.7591 71.8428C47.7441 72.3865 47.7291 72.9303 47.7103 73.4703C43.0303 73.999 38.3203 74.5315 33.6178 75.0528C30.0103 75.454 26.3878 75.8553 22.7616 76.249V74.6515H22.7578Z"
          fill="white"/>
    <path fill-rule="evenodd" clip-rule="evenodd"
          d="M49.2906 66.4508C45.7206 64.4033 42.7656 62.6746 39.2969 60.6196C39.5406 60.1208 40.0806 60.1246 40.8644 59.6221C44.1006 61.5496 45.9869 62.6483 49.2906 64.5533V66.4508Z"
          fill="white"/>
    <path fill-rule="evenodd" clip-rule="evenodd"
          d="M41.3816 78.8024C40.8041 77.1937 40.2266 75.5812 39.6641 73.9687C40.3241 73.7399 40.9728 73.4999 41.6291 73.2637C42.2891 75.1087 42.9566 76.9499 43.6428 78.7949L41.3816 78.8024Z"
          fill="white"/>
    <path fill-rule="evenodd" clip-rule="evenodd"
          d="M49.2906 53.2204L48.5256 53.2242C44.9556 53.2354 41.3706 53.2429 37.7969 53.2542C37.8456 51.4579 37.8906 49.6617 37.9356 47.8692C41.7231 47.8317 45.5069 47.7942 49.2906 47.7529V53.2204Z"
          fill="#1E8161"/>
    <path fill-rule="evenodd" clip-rule="evenodd"
          d="M35.9556 47.918C35.8994 49.6992 35.8431 51.4805 35.7794 53.258C34.3056 53.2617 32.8094 53.2655 31.3281 53.2692C31.4181 51.5255 31.5119 49.7742 31.5906 48.0305C33.0419 47.993 34.5044 47.9555 35.9556 47.918Z"
          fill="#9FA4AB"/>
    <path fill-rule="evenodd" clip-rule="evenodd" d="M49.2539 41.5954L49.2914 41.6329V41.5879L49.2539 41.5954Z"
          fill="#D3CAB9"/>
    <path fill-rule="evenodd" clip-rule="evenodd"
          d="M40.1622 41.6745C38.8647 40.3245 37.5934 38.982 36.3334 37.6357C32.1859 38.412 28.0009 39.1845 23.7972 39.9645C23.6697 41.5732 23.5534 43.1857 23.4297 44.7945C29.0584 43.7557 34.6347 42.7132 40.1622 41.6745Z"
          fill="#9FA4AB"/>
    <path fill-rule="evenodd" clip-rule="evenodd"
          d="M23.3281 46.4179C27.3744 46.3392 31.4094 46.2529 35.4369 46.1704C39.4644 46.0917 43.5031 46.0054 47.5306 45.9192C45.3144 45.0042 43.1131 44.0817 40.9306 43.1592C35.1181 44.2504 29.2569 45.3342 23.3281 46.4179Z"
          fill="#9FA4AB"/>
    <path fill-rule="evenodd" clip-rule="evenodd"
          d="M49.2927 38.2583C47.1589 36.8633 44.6839 35.3746 42.1452 33.9346L27.2539 33.9796C29.3352 35.1683 30.7339 36.0008 32.7139 36.9908C37.4802 39.3608 41.8114 42.5746 45.0889 46.5196C46.8327 48.6158 48.2802 50.9183 49.2964 53.4158V38.2621H49.2927V38.2583Z"
          fill="white"/>
    <path fill-rule="evenodd" clip-rule="evenodd"
          d="M49.2912 49.2041C47.9225 46.9541 46.2275 44.9628 44.3412 43.1666C40.205 39.2253 35.1237 36.2816 30.2188 33.9716L40.01 33.9453C43.2462 35.5953 46.3925 37.5078 49.2912 39.7503V49.2041Z"
          fill="#FFCB68"/>
    <path d="M49.2938 65.1562C48.2063 67.4138 47.3363 70.0538 46.875 73.1625C47.5875 73.2413 48.2888 73.32 48.9863 73.395C49.0688 72.7725 49.1738 72.1688 49.2938 71.5875V65.1562Z"
          fill="white"/>
    <path fill-rule="evenodd" clip-rule="evenodd"
          d="M22.7578 44.9142C31.1616 43.3655 39.4603 41.8242 47.6353 40.268C48.1866 40.1592 48.7416 40.058 49.2928 39.9492V41.5917C48.7641 41.6892 48.2391 41.7905 47.7103 41.888C39.5053 43.4367 31.1916 44.978 22.7578 46.5192V44.9142Z"
          fill="white"/>
    <path fill-rule="evenodd" clip-rule="evenodd"
          d="M22.7578 78.859C25.4503 78.3078 27.5616 76.2265 27.7041 73.7515C27.8578 71.0365 25.6828 68.8053 22.7578 68.5615V78.859Z"
          fill="white"/>
    <path fill-rule="evenodd" clip-rule="evenodd"
          d="M22.7578 77.1153C24.4078 76.6503 25.6641 75.3229 25.7653 73.7554C25.8778 72.0229 24.5803 70.5866 22.7578 70.2979V77.1153Z"
          fill="#1E8161"/>
    <path fill-rule="evenodd" clip-rule="evenodd"
          d="M40.9117 77.4981C40.5405 76.4519 40.1655 75.4056 39.798 74.3594C37.7355 74.5881 35.673 74.8244 33.618 75.0494L27.1267 75.7656C26.3017 77.2994 24.6817 78.4656 22.7617 78.8594L32.6505 78.8331L41.3842 78.8069C41.223 78.3719 41.0692 77.9331 40.9117 77.4981Z"
          fill="#1E8161"/>
    <path fill-rule="evenodd" clip-rule="evenodd"
          d="M46.0919 72.0306L34.5719 64.3506L25.0469 69.2293C26.3556 69.8593 28.0319 72.2256 27.6981 73.7518C27.6906 73.8718 27.6831 73.9843 27.6681 74.1006C29.6969 73.8756 31.7256 73.6468 33.7431 73.4218C35.2806 73.2531 44.5506 72.2031 46.0919 72.0306Z"
          fill="#1E8161"/>
    <path fill-rule="evenodd" clip-rule="evenodd"
          d="M31.4862 54.2294L28.6213 49.2644C28.3325 48.7657 28.1562 48.1882 28.1562 47.5694C28.1562 45.7282 29.6488 44.2432 31.4825 44.2432C33.3238 44.2432 34.8088 45.7357 34.8088 47.5694C34.8088 48.1882 34.6325 48.7619 34.3438 49.2644L31.4862 54.2294Z"
          fill="#FFCB68"/>
    <path fill-rule="evenodd" clip-rule="evenodd"
          d="M31.488 49.9281C32.7855 49.9281 33.8392 48.8706 33.8392 47.5768C33.8392 46.2793 32.7817 45.2256 31.488 45.2256C30.1905 45.2256 29.1367 46.2831 29.1367 47.5768C29.1367 48.8706 30.1905 49.9281 31.488 49.9281Z"
          fill="white"/>
    <path fill-rule="evenodd" clip-rule="evenodd"
          d="M31.4873 45.8662C32.4323 45.8662 33.1973 46.6312 33.1973 47.5762C33.1973 48.5212 32.4323 49.2862 31.4873 49.2862C30.5423 49.2862 29.7773 48.5212 29.7773 47.5762C29.7773 46.6312 30.5423 45.8662 31.4873 45.8662Z"
          fill="#FFCB68"/>
    <path fill-rule="evenodd" clip-rule="evenodd"
          d="M31.9022 46.2715C32.3184 46.2715 32.6559 46.609 32.6559 47.0252C32.6559 47.4415 32.3184 47.779 31.9022 47.779C31.4859 47.779 31.1484 47.4415 31.1484 47.0252C31.1484 46.609 31.4859 46.2715 31.9022 46.2715Z"
          fill="#FFEBC2"/>
    <path d="M28.425 54.3678L28.4288 53.7528L29.0438 53.7565L29.04 54.3715L28.425 54.3678ZM27.195 54.364L27.1988 53.749L27.8138 53.7528L27.81 54.3678L27.195 54.364ZM26.61 54.7765L26.0588 54.5065L26.3288 53.9553L26.88 54.2253L26.61 54.7765ZM26.0663 55.8828L25.515 55.6128L25.785 55.0615L26.3363 55.3315L26.0663 55.8828ZM25.4288 56.8653L25.305 57.0453L25.155 56.9365L24.9375 56.7865L25.0538 56.5503L25.245 56.164L25.7963 56.434L25.605 56.8203L25.4288 56.8653ZM26.67 57.2403L26.3213 57.7428L25.8188 57.394L26.1675 56.8915L26.67 57.2403ZM27.6788 57.9415L27.33 58.444L26.8275 58.0953L27.1763 57.5928L27.6788 57.9415ZM28.6875 58.639L28.3388 59.1415L27.8363 58.7928L28.185 58.2903L28.6875 58.639ZM29.7 59.3403L29.3513 59.8428L28.8488 59.494L29.1975 58.9915L29.7 59.3403ZM30.7088 60.0415L30.36 60.544L29.8575 60.1953L30.2063 59.6928L30.7088 60.0415ZM31.7175 60.7428L31.3688 61.2453L30.8663 60.8965L31.215 60.394L31.7175 60.7428ZM32.73 61.4478L32.3813 61.9503L31.8788 61.6015L32.2275 61.099L32.73 61.4478ZM33.7425 62.149L33.3938 62.6515L32.8913 62.3028L33.24 61.8003L33.7425 62.149ZM34.7475 62.8503L34.3988 63.3528L33.8963 63.004L34.245 62.5015L34.7475 62.8503ZM35.76 63.5478L35.4113 64.0503L34.9088 63.7015L35.2575 63.199L35.76 63.5478ZM36.7688 64.249L36.42 64.7515L35.9175 64.4028L36.2663 63.9003L36.7688 64.249ZM37.7813 64.9503L37.4325 65.4528L36.93 65.104L37.2788 64.6015L37.7813 64.9503ZM38.79 65.6553L38.4413 66.1578L37.9388 65.809L38.2875 65.3065L38.79 65.6553ZM39.7988 66.3565L39.45 66.859L38.9475 66.5103L39.2963 66.0078L39.7988 66.3565ZM40.8113 67.0578L40.4625 67.5603L39.96 67.2115L40.3088 66.709L40.8113 67.0578ZM41.82 67.759L41.4713 68.2615L40.9688 67.9128L41.3175 67.4103L41.82 67.759ZM42.8288 68.4603L42.48 68.9628L41.9775 68.614L42.3263 68.1115L42.8288 68.4603ZM43.8412 69.1578L43.4925 69.6603L42.99 69.3115L43.3388 68.809L43.8412 69.1578ZM44.85 69.859L44.5013 70.3615L43.9988 70.0128L44.3475 69.5103L44.85 69.859ZM45.8625 70.564L45.5138 71.0665L45.0113 70.7178L45.36 70.2153L45.8625 70.564ZM46.8713 71.2653L46.5225 71.7678L46.02 71.419L46.3688 70.9165L46.8713 71.2653ZM47.5613 72.4728L46.9688 72.2965V72.2928V72.289V72.2853V72.2778V72.274V72.2703L46.9725 72.2628V72.259V72.2553V72.2515V72.2478V72.244V72.2403V72.2365V72.2328V72.2253V72.2215V72.2178V72.214V72.2065V72.2028V72.199V72.1915V72.1878V72.184V72.1803V72.1765V72.1728V72.169V72.1653V72.1615V72.1578V72.154V72.1503V72.1465V72.1428V72.139V72.1353V72.1315V72.1278V72.124V72.1203V72.1165V72.1128V72.109V72.1015V72.0978V72.094V72.0865V72.0828V72.079V72.0715V72.0678V72.064V72.0565V72.0528V72.049V72.0453V72.0415V72.0378V72.034V72.0303V72.0265V72.0228V72.019V72.0153V72.0115V72.0078V72.004V72.0003V71.9965V71.9928V71.989V71.9815V71.9853V71.9815V71.9778V71.974V71.9778V71.974V71.9703V71.974V71.9703V71.9665V71.9628V71.959V71.9628V71.9665L46.9763 71.9553V71.9515V71.9553V71.9628V71.959V71.9553V71.9515V71.944L46.9725 71.9515V71.9478V71.9403V71.9478V71.9403L46.9688 71.9515V71.9478L46.9725 71.9365V71.929L46.9688 71.9515L46.9725 71.929L46.965 72.004L46.9688 71.944L47.055 71.959L47.28 71.6328L47.4412 71.749L47.6063 71.8653L47.565 72.064V72.0715V72.079L47.5688 72.064V72.079L47.5725 72.064V72.0715V72.064L47.5688 72.0753V72.0715L47.565 72.0828V72.079V72.0753V72.0828V72.0903V72.0828V72.0903V72.0978V72.1053V72.1128V72.1165V72.124V72.1203V72.1278V72.1315V72.1353V72.139V72.1465V72.1503V72.1578V72.1653V72.169V72.1728V72.1803V72.184V72.1878V72.1953V72.199V72.2065V72.214V72.2178V72.2253V72.229V72.2328V72.2403V72.244V72.2515V72.259V72.2628V72.2665V72.2703V72.274V72.2815V72.2853V72.289V72.2928V72.2965V72.3003V72.304V72.3115V72.3153V72.319V72.3228V72.3265V72.334V72.3378V72.3415V72.3453V72.349V72.3528V72.3603V72.364V72.3678V72.3715V72.3753V72.3828V72.3865V72.3903V72.3978V72.4053V72.409V72.4128V72.4203V72.424V72.4278V72.4353V72.439V72.4465V72.4503V72.454V72.4578V72.4615V72.4653V72.469L47.5613 72.4765V72.4803V72.4878V72.4915V72.4953V72.5028V72.5065V72.4728ZM46.275 73.0915L46.2038 72.4803L46.2412 72.4765L46.2825 72.4728L46.3238 72.469L46.365 72.4653L46.4025 72.4615L46.44 72.4578L46.4775 72.454L46.515 72.4503L46.545 72.4465L46.575 72.4428L46.605 72.439L46.635 72.4353L46.665 72.4315L46.6912 72.4278L46.7175 72.424L46.7438 72.4203L46.7663 72.4165L46.7888 72.4128L46.8075 72.409L46.875 73.0203L46.8563 73.024L46.8338 73.0278L46.8075 73.0315L46.7812 73.0353L46.755 73.039L46.7288 73.0428L46.6988 73.0465L46.6688 73.0503L46.6388 73.054L46.6088 73.0578L46.5713 73.0615L46.5338 73.0653L46.4963 73.069L46.4588 73.0728L46.4213 73.0765L46.38 73.0803L46.3388 73.084L46.2975 73.0878L46.275 73.0915ZM45.0525 73.234L44.9813 72.6228H44.9888L45.0488 72.6153L45.105 72.6078L45.1613 72.6003L45.2175 72.5928L45.2738 72.5853L45.33 72.5778L45.3863 72.5703L45.4425 72.5628L45.495 72.5553L45.5475 72.5478L45.5963 72.544L45.6675 73.1553L45.6188 73.159L45.5662 73.1665L45.5138 73.174L45.4575 73.1815L45.4013 73.189L45.345 73.1965L45.2888 73.204L45.2325 73.2115L45.1763 73.219L45.1162 73.2265L45.0563 73.234H45.0525ZM43.8338 73.3765L43.7625 72.7653H43.7775L43.845 72.7578L43.9125 72.7503L43.98 72.7428L44.0475 72.7353L44.115 72.7278L44.1825 72.7203L44.2463 72.7128L44.31 72.7053L44.37 72.6978L44.4412 73.309L44.3813 73.3165L44.3175 73.324L44.25 73.3315L44.1825 73.339L44.115 73.3465L44.0475 73.354L43.98 73.3615L43.9125 73.369L43.845 73.3765H43.8338ZM42.6113 73.519L42.54 72.9078L42.5588 72.904L42.6338 72.8965L42.7088 72.889L42.7838 72.8815L42.8588 72.874L42.93 72.8665L43.0013 72.859L43.0725 72.8515L43.1438 72.844H43.1475L43.2188 73.4553H43.215L43.1438 73.4628L43.0725 73.4703L43.0013 73.4778L42.93 73.4853L42.855 73.4928L42.78 73.5003L42.705 73.5078L42.63 73.5153L42.6113 73.519ZM41.3888 73.6615L41.3175 73.0503L41.3363 73.0465L41.415 73.039L41.49 73.0315L41.565 73.024L41.64 73.0165L41.715 73.009L41.79 73.0015L41.865 72.994L41.9175 72.9865L41.9888 73.5978L41.9363 73.6053L41.8613 73.6128L41.7863 73.6203L41.7113 73.6278L41.6363 73.6353L41.5613 73.6428L41.4825 73.6503L41.4037 73.6578L41.3888 73.6615ZM40.17 73.8115L40.0988 73.2003L40.17 73.1928L40.2488 73.1853L40.3275 73.1778L40.4063 73.1703L40.485 73.1628L40.5638 73.1553L40.6425 73.1478L40.7138 73.1403L40.785 73.7515L40.7138 73.759L40.635 73.7665L40.5563 73.774L40.4775 73.7815L40.3988 73.789L40.32 73.7965L40.2413 73.804L40.17 73.8115ZM38.9475 73.954L38.8763 73.3428L38.9288 73.3353L39.0037 73.3278L39.0787 73.3203L39.1537 73.3128L39.2287 73.3053L39.3075 73.2978L39.3825 73.2903L39.4613 73.2828L39.48 73.279L39.5513 73.8903L39.5325 73.894L39.4537 73.9015L39.375 73.909L39.3 73.9165L39.225 73.924L39.15 73.9315L39.075 73.939L39 73.9465L38.9475 73.954ZM37.725 74.1003L37.6538 73.489L37.725 73.4815L37.7963 73.474L37.8675 73.4665L37.9425 73.459L38.0175 73.4515L38.0925 73.444L38.1675 73.4365L38.2425 73.429L38.2613 73.4253L38.3325 74.0365L38.3138 74.0403L38.2388 74.0478L38.1638 74.0553L38.0888 74.0628L38.0138 74.0703L37.9388 74.0778L37.8675 74.0853L37.7963 74.0928L37.725 74.1003ZM36.5063 74.2428L36.435 73.6315L36.4875 73.624L36.555 73.6165L36.6225 73.609L36.69 73.6015L36.7575 73.594L36.825 73.5865L36.8925 73.579L36.96 73.5715L37.0275 73.564L37.05 73.5603L37.1213 74.1715L37.0988 74.1753L37.0313 74.1828L36.9638 74.1903L36.8963 74.1978L36.8288 74.2053L36.7613 74.2128L36.6938 74.2203L36.6263 74.2278L36.5625 74.2353L36.5063 74.2428ZM35.2838 74.389L35.2125 73.7778L35.2388 73.774L35.2913 73.7665L35.3438 73.759L35.4 73.7515L35.4563 73.744L35.5125 73.7365L35.5688 73.729L35.625 73.7215L35.685 73.714L35.745 73.7065L35.805 73.699L35.8275 73.6953L35.8988 74.3065L35.8763 74.3103L35.8163 74.3178L35.7563 74.3253L35.6963 74.3328L35.64 74.3403L35.5838 74.3478L35.5275 74.3553L35.4713 74.3628L35.415 74.3703L35.3588 74.3778L35.3063 74.3853L35.2838 74.389ZM34.0613 74.5353L33.99 73.924L34.0125 73.9203L34.0388 73.9165L34.065 73.9128L34.095 73.909L34.125 73.9053L34.155 73.9015L34.185 73.8978L34.2225 73.894L34.26 73.8903L34.2975 73.8865L34.335 73.8828L34.3725 73.879L34.4138 73.8753L34.455 73.8715L34.4963 73.8678L34.5375 73.864L34.5788 73.8603L34.605 73.8565L34.6763 74.4678L34.65 74.4715L34.605 74.4753L34.5638 74.479L34.5225 74.4828L34.4813 74.4865L34.44 74.4903L34.4025 74.494L34.365 74.4978L34.3275 74.5015L34.29 74.5053L34.26 74.509L34.23 74.5128L34.2 74.5165L34.17 74.5203L34.14 74.524L34.1138 74.5278L34.0875 74.5315L34.0613 74.5353ZM29.6513 54.3753L29.655 53.7603L30.27 53.764L30.2663 54.379L29.6513 54.3753Z"
          fill="#FFCB68"/>
    <path fill-rule="evenodd" clip-rule="evenodd"
          d="M63.948 85.2643L63.8242 83.9668L65.1292 83.993L65.118 85.4893L63.948 85.2643Z" fill="#F4AF8F"/>
    <path fill-rule="evenodd" clip-rule="evenodd"
          d="M63.8807 85.1592C63.5132 85.8267 62.9094 86.4604 63.3782 87.0229H65.7744C65.7782 87.0117 65.7819 87.0004 65.7857 86.9854C65.8082 86.9067 65.9207 86.8729 65.8457 86.5917C65.7069 86.0667 65.2982 85.2604 65.1594 85.2154C64.8819 85.1367 64.4882 85.3692 63.8807 85.1592Z"
          fill="#002A35"/>
    <path fill-rule="evenodd" clip-rule="evenodd"
          d="M63.203 86.5801L63.1992 86.6776C63.2067 86.8163 63.263 86.9438 63.383 87.0188H65.7792C65.8467 86.9701 65.9555 86.8763 65.8505 86.5913L63.203 86.5801Z"
          fill="black"/>
    <path fill-rule="evenodd" clip-rule="evenodd"
          d="M60.6719 67.08L61.3619 72.945L61.6544 76.3575L63.6306 84.6337C63.6306 84.6337 63.9681 84.7875 64.5044 84.7575C65.0406 84.7275 65.3144 84.645 65.3144 84.645C65.3256 82.2075 65.0069 79.0763 64.6394 76.1588C64.3169 73.59 65.0144 71.8575 64.9206 69.1425C64.8906 68.295 64.1519 65.8462 64.1631 65.8762L60.6719 67.08Z"
          fill="#002A35"/>
    <path fill-rule="evenodd" clip-rule="evenodd"
          d="M58.2734 85.2642L58.2772 83.918L59.5822 83.948L59.4397 85.4892L58.2734 85.2642Z" fill="#F4AF8F"/>
    <path fill-rule="evenodd" clip-rule="evenodd"
          d="M58.1853 84.9795C58.1853 84.9795 56.1303 85.8232 55.5566 86.1045C55.1103 86.322 54.8553 86.787 55.2228 87.0195H59.7003C59.7041 87.0082 59.7079 86.997 59.7116 86.982C59.7791 86.7607 59.9554 85.182 59.4866 85.212C59.1979 85.242 58.8341 85.3132 58.1853 84.9795Z"
          fill="#002A35"/>
    <path fill-rule="evenodd" clip-rule="evenodd"
          d="M55.0467 86.5801L55.043 86.6776C55.0505 86.8163 55.1067 86.9438 55.2267 87.0188H59.7042C59.708 87.0076 59.7117 86.9963 59.7155 86.9813C59.7267 86.9363 59.7605 86.7113 59.7755 86.5876L55.0467 86.5801Z"
          fill="black"/>
    <path fill-rule="evenodd" clip-rule="evenodd"
          d="M58.2705 66.9005L57.7305 74.963L58.278 84.533C58.278 84.533 58.9042 84.668 59.4442 84.6343C59.9805 84.6043 59.883 84.5405 59.883 84.5405L60.3142 77.363C60.3142 77.363 60.408 76.493 60.6742 75.4355C61.0267 74.0255 61.6192 72.2818 62.0842 71.918C63.0667 71.153 63.153 70.4368 63.0667 69.0943C62.9767 67.7105 63.093 66.6343 62.9055 66.1543C62.7142 65.6743 61.7617 65.8693 61.7617 65.8693L58.2705 66.9005Z"
          fill="#002A35"/>
    <path fill-rule="evenodd" clip-rule="evenodd"
          d="M64.8333 68.3627C64.2183 68.3589 63.4758 68.3552 62.7858 68.3477C62.7858 68.3364 62.7858 68.3252 62.7858 68.3177C61.8183 68.3102 61.0008 68.2989 60.8658 68.2914C60.5658 68.2689 58.732 68.2614 58.1508 68.2539L58.1133 69.2139C60.3895 70.2602 63.8058 69.8364 64.9158 69.5139C64.9158 69.3489 64.897 69.1652 64.897 69.0077C64.9008 68.8352 64.8858 68.6252 64.8333 68.3627Z"
          fill="#004C40"/>
    <path fill-rule="evenodd" clip-rule="evenodd"
          d="M60.3148 77.359L60.6373 75.5253C60.6373 75.5253 60.9898 74.6965 61.3873 73.579L61.4136 73.4928L61.2711 71.8428L60.2773 76.0128L60.3148 77.359Z"
          fill="black"/>
    <path fill-rule="evenodd" clip-rule="evenodd"
          d="M60.4468 59.7679C59.7418 61.3654 59.4006 64.8642 57.3306 65.1979C55.8643 65.2579 52.0243 64.6167 52.2156 64.1029C52.4256 63.5517 51.6493 63.1242 52.4931 63.1279C53.6143 63.1129 56.9931 62.8654 57.2481 62.8467C57.4843 62.8279 58.8493 57.6117 60.3118 57.0604C60.4881 56.9442 60.9456 58.9917 60.4468 59.7679Z"
          fill="#0C604C"/>
    <path fill-rule="evenodd" clip-rule="evenodd"
          d="M58.1203 68.9517C58.0716 68.7867 58.5816 58.9805 60.3141 57.0605C62.4478 56.438 64.1878 56.7905 66.0066 57.7955C66.0628 57.8255 66.1041 57.8855 66.1528 57.938L65.8153 61.5717C64.7841 64.1817 64.7503 66.0717 64.9153 69.1167C64.9228 69.113 60.8953 70.043 58.1203 68.9517Z"
          fill="#0C604C"/>
    <path fill-rule="evenodd" clip-rule="evenodd"
          d="M61.2566 55.2979C61.2116 54.6154 61.2041 54.5554 61.4216 53.9966C61.5078 53.7679 61.5791 53.4941 61.6316 53.2241C61.7141 52.7629 62.3366 53.2504 62.2728 53.0554L62.5166 52.4629C62.5166 52.4629 63.9191 52.8304 64.5153 53.3891C65.1116 53.9479 64.6166 54.4166 64.1778 54.9941C64.1778 54.9941 64.5266 54.9304 64.5078 55.1629C64.4891 55.3916 64.3166 55.6054 64.2078 55.6391C64.0953 55.6691 63.7203 55.8716 63.6678 55.8716L63.6641 56.7529L63.7878 56.9066C63.7053 58.6879 61.2903 58.1254 62.0103 56.8654L62.0366 56.3741C61.7178 56.1979 61.3503 56.3104 61.2266 55.6954L61.2566 55.2979Z"
          fill="#FCC8AF"/>
    <path fill-rule="evenodd" clip-rule="evenodd"
          d="M63.2603 55.9766C62.9641 56.4603 62.6191 56.9628 62.0078 56.8653L62.0341 56.3741C62.3078 56.4303 62.5216 56.3591 63.2603 55.9766Z"
          fill="#F3B99C"/>
    <path fill-rule="evenodd" clip-rule="evenodd"
          d="M62.077 53.9777C62.842 54.1802 63.0708 53.5352 63.5808 53.9252C63.8358 54.1202 63.892 54.4689 63.7983 55.0539C63.772 55.2264 63.7083 55.3614 63.9408 55.1814C64.0458 55.0989 64.222 54.9752 64.3008 55.0127C64.477 55.0989 64.462 55.3802 64.3645 55.4889C64.3195 55.5377 64.237 55.6202 64.237 55.6202C65.4295 55.1702 65.2983 51.3489 62.1895 52.4739C62.1445 52.4852 60.9483 53.6139 62.077 53.9777Z"
          fill="#002A35"/>
    <path fill-rule="evenodd" clip-rule="evenodd"
          d="M57.6472 85.2041C57.0247 85.4629 55.9822 85.9016 55.5547 86.1041C55.7797 86.2804 55.9897 86.2428 55.9897 86.2428C55.9897 86.2428 57.2084 85.8603 57.5534 85.6203C57.7559 85.4741 57.7147 85.3129 57.6472 85.2041Z"
          fill="black"/>
    <path fill-rule="evenodd" clip-rule="evenodd"
          d="M64.8756 85.1289H64.2119C64.1219 85.1289 64.0469 85.2039 64.0469 85.2939V85.9539C64.0469 86.0439 64.1219 86.1189 64.2119 86.1189H64.8794C64.9694 86.1189 65.0444 86.0439 65.0444 85.9539V85.2939C65.0406 85.2077 64.9694 85.1289 64.8756 85.1289Z"
          fill="black"/>
    <path d="M64.9209 59.6326C64.9734 58.5451 65.3672 57.2101 66.2934 57.9826C67.9809 59.3926 69.0122 62.6739 68.8059 64.1964C68.5697 65.5089 65.5134 68.2501 64.7372 67.6689C64.3022 67.3426 64.3697 66.9939 64.4334 66.8476C64.9922 65.9589 66.4434 64.5301 66.5034 64.2601C66.6947 62.7939 64.8572 60.9864 64.9209 59.6326Z"
          fill="#0C604C"/>
    <path fill-rule="evenodd" clip-rule="evenodd"
          d="M61.4805 53.3287L64.8217 54.8362C64.8217 54.8362 65.3167 53.4112 65.0092 52.9762C64.218 51.8512 62.7517 51.3487 61.9305 52.5112C61.6192 52.9574 61.4805 53.3287 61.4805 53.3287Z"
          fill="#0C604C"/>
    <path fill-rule="evenodd" clip-rule="evenodd"
          d="M61.5961 53.3888L61.1424 53.1525C60.6624 52.8975 60.6399 52.7363 60.8461 52.785C61.2549 52.8825 62.5186 53.4825 62.5224 53.4863C62.8524 53.625 63.4374 54.1913 63.4374 54.1913L61.5961 53.3888Z"
          fill="#004C40"/>
    <path fill-rule="evenodd" clip-rule="evenodd"
          d="M66.8888 59.2314L65.9062 59.5877L66.825 61.2752L67.7738 60.8814L66.8888 59.2314Z" fill="#004C40"/>
    <path d="M63.9156 61.3125H55.2344V68.7787H63.9156V61.3125Z" fill="#FFEBC2"/>
    <path d="M55.2406 61.3125H51.4531V68.7787H55.2406V61.3125Z" fill="#FFCB68"/>
    <path d="M53.9637 61.3125H52.7188V63.0938H53.9637V61.3125Z" fill="#FFEBC2"/>
    <path d="M53.9637 66.998H52.7188V68.7793H53.9637V66.998Z" fill="#FFEBC2"/>
    <path d="M63.6053 67.0088H60.7891V68.4375H63.6053V67.0088Z" fill="#FFCB68"/>
    <path d="M61.9989 67.2871H61.0352V68.2134H61.9989V67.2871Z" fill="white"/>
    <path d="M58.9155 61.8945H55.7617V62.712H58.9155V61.8945Z" fill="#FFCB68"/>
    <path d="M60.8144 61.3125H59.3594V62.7188H60.8144V61.3125Z" fill="#FFCB68"/>
    <path fill-rule="evenodd" clip-rule="evenodd"
          d="M64.2968 66.9455C64.2218 66.908 64.0868 66.8293 63.9143 66.7393L63.8543 67.1068C63.3968 67.7293 62.8606 67.988 62.9093 68.2843C62.9768 68.3293 63.4681 68.4455 63.5843 68.5055C63.9031 68.6705 64.6869 67.7855 65.0881 67.553C65.1856 67.3843 65.0956 66.7693 64.5631 66.7505L64.2968 66.9455Z"
          fill="#FCC8AF"/>
    <path d="M114.152 87.4578H6.85313C6.77063 87.4578 6.70312 87.3903 6.70312 87.3078V87.1803C6.70312 87.0978 6.77063 87.0303 6.85313 87.0303H114.152C114.234 87.0303 114.302 87.0978 114.302 87.1803V87.3078C114.298 87.394 114.231 87.4578 114.152 87.4578Z"
          fill="#2E3552"/>
</svg>
