<svg width="100%" height="100%" viewBox="0 0 24 24" fill="none" xmlns="http://www.w3.org/2000/svg">
    <mask id="path-1-inside-1_2734_11511" fill="white">
        <path d="M14.0837 2H9.91625C5.55121 2 2 5.24562 2 9.23475V12.6664C2 15.6371 3.99708 18.307 7 19.3945V21.6191C7 21.7698 7.09704 21.9063 7.24779 21.9673C7.30192 21.9892 7.3595 22 7.41667 22C7.518 22 7.61829 21.9662 7.69642 21.9015L10.1124 19.9011H14.0837C18.4488 19.9011 22 16.6555 22 12.6664V9.23475C22 5.24562 18.4488 2 14.0837 2ZM21.1667 12.6664C21.1667 16.2356 17.9894 19.1394 14.0837 19.1394H9.95167C9.84829 19.1394 9.74862 19.1743 9.67192 19.2379L7.83333 20.7603V19.1305C7.83333 18.969 7.72204 18.8251 7.55542 18.7715C4.73113 17.8587 2.83333 15.4054 2.83333 12.6664V9.23475C2.83333 5.66554 6.01063 2.76175 9.91625 2.76175H14.0837C17.9894 2.76175 21.1667 5.66554 21.1667 9.23475V12.6664Z"/>
    </mask>
    <path d="M7 19.3945H8V18.6931L7.34052 18.4543L7 19.3945ZM7.24779 21.9673L7.62344 21.0405L7.62298 21.0403L7.24779 21.9673ZM7.69642 21.9015L7.05867 21.1312L7.05852 21.1313L7.69642 21.9015ZM10.1124 19.9011V18.9011H9.75212L9.47463 19.1309L10.1124 19.9011ZM9.67192 19.2379L10.3097 20.0082L10.3102 20.0077L9.67192 19.2379ZM7.83333 20.7603H6.83333V22.8867L8.4711 21.5306L7.83333 20.7603ZM7.55542 18.7715L7.24789 19.7231L7.24944 19.7236L7.55542 18.7715ZM14.0837 1H9.91625V3H14.0837V1ZM9.91625 1C5.08555 1 1 4.61053 1 9.23475H3C3 5.88072 6.01687 3 9.91625 3V1ZM1 9.23475V12.6664H3V9.23475H1ZM1 12.6664C1 16.1033 3.30499 19.1199 6.65948 20.3347L7.34052 18.4543C4.68918 17.4941 3 15.1709 3 12.6664H1ZM6 19.3945V21.6191H8V19.3945H6ZM6 21.6191C6 22.2171 6.38261 22.6959 6.87261 22.8942L7.62298 21.0403C7.81147 21.1166 8 21.3224 8 21.6191H6ZM6.87215 22.894C7.04909 22.9658 7.23455 23 7.41667 23V21C7.48445 21 7.55474 21.0127 7.62344 21.0405L6.87215 22.894ZM7.41667 23C7.73545 23 8.06525 22.8945 8.33431 22.6716L7.05852 21.1313C7.17133 21.0379 7.30055 21 7.41667 21V23ZM8.33416 22.6717L10.7501 20.6714L9.47463 19.1309L7.05867 21.1312L8.33416 22.6717ZM10.1124 20.9011H14.0837V18.9011H10.1124V20.9011ZM14.0837 20.9011C18.9145 20.9011 23 17.2906 23 12.6664H21C21 16.0204 17.9831 18.9011 14.0837 18.9011V20.9011ZM23 12.6664V9.23475H21V12.6664H23ZM23 9.23475C23 4.61053 18.9145 1 14.0837 1V3C17.9831 3 21 5.88072 21 9.23475H23ZM20.1667 12.6664C20.1667 15.6005 17.5237 18.1394 14.0837 18.1394V20.1394C18.455 20.1394 22.1667 16.8707 22.1667 12.6664H20.1667ZM14.0837 18.1394H9.95167V20.1394H14.0837V18.1394ZM9.95167 18.1394C9.62628 18.1394 9.29811 18.2488 9.03361 18.4681L10.3102 20.0077C10.1991 20.0998 10.0703 20.1394 9.95167 20.1394V18.1394ZM9.03415 18.4677L7.19556 19.9901L8.4711 21.5306L10.3097 20.0082L9.03415 18.4677ZM8.83333 20.7603V19.1305H6.83333V20.7603H8.83333ZM8.83333 19.1305C8.83333 18.4881 8.39554 17.9911 7.86139 17.8195L7.24944 19.7236C7.04854 19.659 6.83333 19.4499 6.83333 19.1305H8.83333ZM7.86294 17.82C5.40461 17.0255 3.83333 14.9243 3.83333 12.6664H1.83333C1.83333 15.8865 4.05764 18.692 7.24789 19.7231L7.86294 17.82ZM3.83333 12.6664V9.23475H1.83333V12.6664H3.83333ZM3.83333 9.23475C3.83333 6.30066 6.47626 3.76175 9.91625 3.76175V1.76175C5.54499 1.76175 1.83333 5.03042 1.83333 9.23475H3.83333ZM9.91625 3.76175H14.0837V1.76175H9.91625V3.76175ZM14.0837 3.76175C17.5237 3.76175 20.1667 6.30066 20.1667 9.23475H22.1667C22.1667 5.03042 18.455 1.76175 14.0837 1.76175V3.76175ZM20.1667 9.23475V12.6664H22.1667V9.23475H20.1667Z"
          fill="#1C7F62" mask="url(#path-1-inside-1_2734_11511)"/>
    <mask id="path-3-inside-2_2734_11511" fill="white">
        <path d="M17.5065 13.6141L14.9455 12.0936C14.6654 11.9273 14.3323 11.8708 14.0058 11.9325C13.679 11.9954 13.3985 12.1717 13.2162 12.4287L13.0957 12.5979C11.9873 12.2632 10.7652 11.8354 10.0336 9.89943L10.3365 9.65879H10.3367C10.8566 9.24554 10.9113 8.52249 10.459 8.04639L8.45566 5.93966C8.30466 5.78087 8.04141 5.7645 7.86766 5.90211L6.60995 6.90152C5.50641 7.77822 6.02216 9.07521 6.19166 9.50145C6.19916 9.52042 6.20833 9.53866 6.21912 9.55649C6.26287 9.62828 7.30758 11.3322 8.99437 12.9029C10.6881 14.48 13.7462 15.9365 13.84 15.9789C14.1893 16.1861 14.5822 16.2854 14.9707 16.2854C15.6531 16.2854 16.3225 15.9797 16.7214 15.4188L17.629 14.1412C17.7543 13.9645 17.6994 13.7286 17.5065 13.6141ZM16.0226 15.0037C15.647 15.5322 14.8715 15.6825 14.2587 15.3213C14.2282 15.3068 11.1904 13.8607 9.58908 12.3696C8.09249 10.9759 7.09883 9.42783 6.96312 9.21172C6.63291 8.36591 6.69133 7.8459 7.15641 7.47657L8.09999 6.72708L9.82995 8.54629C9.98354 8.70771 9.96587 8.94389 9.78987 9.08375L9.27862 9.48991C9.15408 9.58886 9.10504 9.74544 9.15366 9.88941C10.0255 12.4785 11.7204 12.987 12.958 13.3586L13.1382 13.4128C13.3185 13.4686 13.5163 13.405 13.6194 13.2592L13.915 12.8434C13.9761 12.7575 14.0692 12.6991 14.1775 12.6783C14.2861 12.6571 14.3972 12.6768 14.4914 12.7326L16.7031 14.0456L16.0226 15.0037Z"/>
    </mask>
    <path d="M17.5065 13.6141L18.0171 12.7543L18.0171 12.7542L17.5065 13.6141ZM14.9455 12.0936L15.456 11.2337L15.4559 11.2336L14.9455 12.0936ZM14.0058 11.9325L13.82 10.9499L13.8168 10.9505L14.0058 11.9325ZM13.2162 12.4287L14.0309 13.0085L14.0318 13.0072L13.2162 12.4287ZM13.0957 12.5979L12.8066 13.5552L13.4941 13.7629L13.9105 13.1777L13.0957 12.5979ZM10.0336 9.89943L9.4116 9.11642L8.84024 9.57032L9.09818 10.2529L10.0336 9.89943ZM10.3365 9.65879V8.65879H9.98768L9.71452 8.87579L10.3365 9.65879ZM10.3367 9.65879V10.6588H10.6858L10.959 10.4416L10.3367 9.65879ZM10.459 8.04639L11.1841 7.35768L11.1837 7.35729L10.459 8.04639ZM8.45566 5.93966L9.18032 5.25055L9.18031 5.25055L8.45566 5.93966ZM7.86766 5.90211L7.2468 5.11819L7.24553 5.11919L7.86766 5.90211ZM6.60995 6.90152L7.23199 7.68451L7.23208 7.68444L6.60995 6.90152ZM6.19166 9.50145L7.1216 9.13374L7.12088 9.13193L6.19166 9.50145ZM6.21912 9.55649L5.36368 10.0744L5.36518 10.0769L6.21912 9.55649ZM8.99437 12.9029L8.31289 13.6348L8.31292 13.6348L8.99437 12.9029ZM13.84 15.9789L14.3501 15.1188L14.3024 15.0905L14.2518 15.0677L13.84 15.9789ZM16.7214 15.4188L17.5363 15.9984L17.5366 15.9979L16.7214 15.4188ZM17.629 14.1412L18.4443 14.7203L18.4448 14.7196L17.629 14.1412ZM16.0226 15.0037L16.8377 15.5829L16.8379 15.5828L16.0226 15.0037ZM14.2587 15.3213L14.7664 14.4598L14.7283 14.4373L14.6883 14.4183L14.2587 15.3213ZM9.58908 12.3696L8.90757 13.1014L8.9076 13.1014L9.58908 12.3696ZM6.96312 9.21172L6.03159 9.57539L6.06597 9.66346L6.11625 9.74352L6.96312 9.21172ZM7.15641 7.47657L7.7783 8.25968L7.77838 8.25961L7.15641 7.47657ZM8.09999 6.72708L8.82465 6.03798L8.1943 5.3751L7.47803 5.94404L8.09999 6.72708ZM9.82995 8.54629L9.10529 9.2354L9.10549 9.23561L9.82995 8.54629ZM9.78987 9.08375L10.4119 9.86673L10.412 9.86666L9.78987 9.08375ZM9.27862 9.48991L8.65657 8.70693L8.65654 8.70696L9.27862 9.48991ZM9.15366 9.88941L10.1014 9.5703L10.1011 9.56943L9.15366 9.88941ZM12.958 13.3586L13.2463 12.401L13.2456 12.4008L12.958 13.3586ZM13.1382 13.4128L13.4339 12.4575L13.4266 12.4553L13.1382 13.4128ZM13.6194 13.2592L12.8044 12.6798L12.803 12.6818L13.6194 13.2592ZM13.915 12.8434L14.7301 13.4228L14.7303 13.4225L13.915 12.8434ZM14.1775 12.6783L14.3665 13.6602L14.3688 13.6598L14.1775 12.6783ZM14.4914 12.7326L15.0019 11.8727L15.001 11.8722L14.4914 12.7326ZM16.7031 14.0456L17.5184 14.6246L18.1469 13.7397L17.2136 13.1857L16.7031 14.0456ZM18.0171 12.7542L15.456 11.2337L14.435 12.9534L16.996 14.474L18.0171 12.7542ZM15.4559 11.2336C14.9602 10.9395 14.3787 10.8443 13.82 10.9499L14.1916 12.9151C14.2859 12.8972 14.3705 12.9152 14.4351 12.9535L15.4559 11.2336ZM13.8168 10.9505C13.2527 11.0591 12.7409 11.3703 12.4005 11.8502L14.0318 13.0072C14.056 12.9731 14.1054 12.9317 14.1948 12.9145L13.8168 10.9505ZM12.4014 11.8489L12.281 12.0181L13.9105 13.1777L14.0309 13.0085L12.4014 11.8489ZM13.3849 11.6406C12.8345 11.4744 12.3986 11.3228 12.0128 11.0413C11.65 10.7766 11.2733 10.3511 10.9691 9.54594L9.09818 10.2529C9.5255 11.3837 10.1257 12.1401 10.8339 12.6569C11.5192 13.157 12.2486 13.3867 12.8066 13.5552L13.3849 11.6406ZM10.6556 10.6824L10.9586 10.4418L9.71452 8.87579L9.4116 9.11642L10.6556 10.6824ZM10.3365 10.6588H10.3367V8.65879H10.3365V10.6588ZM10.959 10.4416C11.9292 9.67036 12.0486 8.26783 11.1841 7.35768L9.73401 8.73511C9.75215 8.75421 9.75903 8.76884 9.76191 8.77693C9.765 8.7856 9.76583 8.79332 9.76528 8.80059C9.76473 8.80789 9.76257 8.81732 9.75654 8.82862C9.75076 8.83944 9.73901 8.85648 9.71446 8.876L10.959 10.4416ZM11.1837 7.35729L9.18032 5.25055L7.731 6.62877L9.73438 8.7355L11.1837 7.35729ZM9.18031 5.25055C8.66407 4.70768 7.81602 4.66737 7.2468 5.11819L8.48852 6.68603C8.36656 6.78262 8.22728 6.81536 8.10696 6.80773C7.98657 6.80011 7.84553 6.7492 7.73101 6.62878L9.18031 5.25055ZM7.24553 5.11919L5.98782 6.11861L7.23208 7.68444L8.48979 6.68502L7.24553 5.11919ZM5.98792 6.11853C5.14086 6.79147 4.90543 7.66391 4.92373 8.39541C4.94082 9.07886 5.17771 9.65791 5.26244 9.87097L7.12088 9.13193C7.03611 8.91875 6.93038 8.63619 6.9231 8.34541C6.91703 8.10268 6.9755 7.88827 7.23199 7.68451L5.98792 6.11853ZM5.26172 9.86916C5.29126 9.94387 5.32602 10.0122 5.36368 10.0744L7.07456 9.03858C7.09063 9.06514 7.10706 9.09696 7.1216 9.13374L5.26172 9.86916ZM5.36518 10.0769C5.42747 10.1791 6.52798 11.9727 8.31289 13.6348L9.67585 12.1711C8.08718 10.6917 7.09827 9.07749 7.07306 9.03612L5.36518 10.0769ZM8.31292 13.6348C9.24599 14.5036 10.5149 15.3077 11.5197 15.8839C12.5345 16.4659 13.351 16.8553 13.4281 16.8902L14.2518 15.0677C14.2556 15.0694 14.21 15.0481 14.1141 15.0012C14.0233 14.9567 13.8949 14.8928 13.7373 14.8121C13.4219 14.6506 12.9922 14.4228 12.5146 14.1489C11.5435 13.592 10.4365 12.8793 9.67581 12.1711L8.31292 13.6348ZM13.3298 16.839C13.8422 17.1429 14.413 17.2854 14.9707 17.2854V15.2854C14.7513 15.2854 14.5363 15.2293 14.3501 15.1188L13.3298 16.839ZM14.9707 17.2854C15.9381 17.2854 16.9284 16.853 17.5363 15.9984L15.9065 14.8392C15.7165 15.1063 15.3681 15.2854 14.9707 15.2854V17.2854ZM17.5366 15.9979L18.4443 14.7203L16.8138 13.562L15.9062 14.8396L17.5366 15.9979ZM18.4448 14.7196C18.9299 14.0355 18.6791 13.1474 18.0171 12.7543L16.996 14.4739C16.7197 14.3099 16.5788 13.8934 16.8133 13.5627L18.4448 14.7196ZM15.2074 14.4244C15.1849 14.4561 15.1359 14.4966 15.0484 14.5127C14.9618 14.5286 14.8602 14.5151 14.7664 14.4598L13.7509 16.1829C14.7667 16.7815 16.1324 16.5755 16.8377 15.5829L15.2074 14.4244ZM14.6883 14.4183C14.685 14.4168 13.9422 14.0634 13.0085 13.5306C12.0588 12.9887 10.9828 12.3009 10.2706 11.6377L8.9076 13.1014C9.79671 13.9293 11.0402 14.7102 12.0173 15.2677C13.0104 15.8344 13.8018 16.2114 13.829 16.2243L14.6883 14.4183ZM10.2706 11.6377C8.86754 10.3312 7.92804 8.86792 7.80999 8.67992L6.11625 9.74352C6.26961 9.98774 7.31744 11.6206 8.90757 13.1014L10.2706 11.6377ZM7.89465 8.84805C7.75401 8.48783 7.75003 8.32415 7.75536 8.27639C7.75685 8.26307 7.75749 8.27086 7.74973 8.28431C7.74314 8.29574 7.7446 8.28643 7.7783 8.25968L6.53452 6.69346C6.11414 7.0273 5.83151 7.48285 5.7677 8.05454C5.71011 8.57057 5.84202 9.0898 6.03159 9.57539L7.89465 8.84805ZM7.77838 8.25961L8.72196 7.51012L7.47803 5.94404L6.53444 6.69353L7.77838 8.25961ZM7.37533 7.41619L9.10529 9.2354L10.5546 7.85719L8.82465 6.03798L7.37533 7.41619ZM9.10549 9.23561C8.99514 9.11963 8.92167 8.94441 8.93628 8.74866C8.95083 8.55375 9.04819 8.39583 9.16773 8.30084L10.412 9.86666C11.04 9.36766 11.1198 8.45125 10.5544 7.85698L9.10549 9.23561ZM9.16783 8.30076L8.65657 8.70693L9.90066 10.2729L10.4119 9.86673L9.16783 8.30076ZM8.65654 8.70696C8.22306 9.05137 8.01424 9.64091 8.20624 10.2094L10.1011 9.56943C10.1958 9.84997 10.0851 10.1264 9.9007 10.2729L8.65654 8.70696ZM8.20594 10.2085C8.70359 11.6865 9.46484 12.6382 10.3326 13.2658C11.1739 13.8743 12.0615 14.1335 12.6704 14.3163L13.2456 12.4008C12.6169 12.2121 12.0383 12.0312 11.5047 11.6453C10.9977 11.2785 10.4755 10.6815 10.1014 9.5703L8.20594 10.2085ZM12.6697 14.3161L12.8499 14.3704L13.4266 12.4553L13.2463 12.401L12.6697 14.3161ZM12.8426 14.3681C13.4078 14.5431 14.066 14.3595 14.4358 13.8367L12.803 12.6818C12.9665 12.4505 13.2293 12.3942 13.4339 12.4576L12.8426 14.3681ZM14.4344 13.8387L14.7301 13.4228L13.1 12.264L12.8044 12.6798L14.4344 13.8387ZM14.7303 13.4225C14.6336 13.5586 14.4961 13.6353 14.3665 13.6602L13.9885 11.6963C13.6424 11.7629 13.3185 11.9563 13.0998 12.2643L14.7303 13.4225ZM14.3688 13.6598C14.235 13.6859 14.0969 13.6611 13.9818 13.593L15.001 11.8722C14.6975 11.6924 14.3372 11.6283 13.9861 11.6967L14.3688 13.6598ZM13.9809 13.5925L16.1926 14.9054L17.2136 13.1857L15.0019 11.8727L13.9809 13.5925ZM15.8878 13.4665L15.2073 14.4246L16.8379 15.5828L17.5184 14.6246L15.8878 13.4665Z"
          fill="#1C7F62" mask="url(#path-3-inside-2_2734_11511)"/>
    <path d="M12.8235 8.67161L12.8238 8.67169L12.8235 8.67161Z" stroke="#1C7F62"/>
    <path d="M12.7752 7.14472L12.7755 7.14481L12.7752 7.14472Z" stroke="#1C7F62"/>
    <path d="M12.596 5.37131L12.5962 5.37138L12.596 5.37131ZM18.1707 10.6128C18.392 10.5556 18.521 10.345 18.4586 10.1427L18.0574 10.627C18.0948 10.627 18.1329 10.6225 18.1707 10.6128Z"
          stroke="#1C7F62"/>
</svg>
