<svg width="100%" height="100%" viewBox="0 0 200 200" fill="none" xmlns="http://www.w3.org/2000/svg">
    <rect width="200" height="200" rx="8" fill="#F5FAFF"/>
    <path d="M15.5494 133.253H45.0908L46.0428 114.509H14.6001L15.5494 133.253Z" fill="#EBEBEB"/>
    <path d="M42.9336 123.088H16.9096L16.5522 116.581H43.3442L42.9336 123.088ZM17.1282 122.866H42.7096L43.0989 116.821H16.8002L17.1282 122.866Z"
          fill="#DBDBDB"/>
    <path d="M42.5732 130.576H17.6586L17.3652 124.709H42.9332L42.5732 130.576ZM17.8666 130.333H42.3466L42.6852 124.923H17.5999L17.8666 130.333Z"
          fill="#DBDBDB"/>
    <path d="M32.9092 120.541H27.3946L27.1919 118.971H33.1119L32.9092 120.541ZM27.5972 120.309H32.7066L32.8506 119.203H27.4666L27.5972 120.309Z"
          fill="#DBDBDB"/>
    <path d="M32.9095 128.424H27.3949L27.2002 126.867H33.1202L32.9095 128.424ZM27.5975 128.2H32.7069L32.8509 127.093H27.4669L27.5975 128.2Z"
          fill="#DBDBDB"/>
    <path d="M19.6453 133.253L19.36 135.296L18.784 139.397H17.6533V133.253H19.6453Z" fill="#EBEBEB"/>
    <path d="M19.6453 133.253L19.36 135.296H17.6533V133.253H19.6453Z" fill="#DBDBDB"/>
    <path d="M40.9949 133.253L41.2802 135.296L41.8589 139.397H42.9869V133.253H40.9949Z" fill="#EBEBEB"/>
    <path d="M40.9949 133.253L41.2802 135.296H42.9869V133.253H40.9949Z" fill="#DBDBDB"/>
    <path d="M98.2534 79.3999H75.6348V56.7812H98.2534V79.3999ZM76.7014 78.3332H97.1868V57.8479H76.7014V78.3332Z"
          fill="#C7C7C7"/>
    <path d="M93.2213 59.3228H86.1387V75.2908H93.2213V59.3228Z" fill="#EBEBEB"/>
    <path d="M125.819 74.8161V69.4668H110.366V74.8161H125.819Z" fill="#C7C7C7"/>
    <path d="M140.267 76.064H146.987V64.8213H140.267V76.064Z" fill="#EBEBEB"/>
    <path d="M128.64 79.3999H106.021V56.7812H128.64V79.3999ZM107.088 78.3332H127.573V57.8479H107.088V78.3332Z"
          fill="#C7C7C7"/>
    <path d="M159.027 79.3999H136.408V56.7812H159.027V79.3999ZM137.475 78.3332H157.96V57.8479H137.475V78.3332Z"
          fill="#C7C7C7"/>
    <path d="M91.0346 64H82.8533V72.1813H91.0346V64Z" fill="#C7C7C7"/>
    <path d="M121.422 64H113.24V72.1813H121.422V64Z" fill="#EBEBEB"/>
    <path d="M151.808 64H143.627V72.1813H151.808V64Z" fill="#C7C7C7"/>
    <path d="M10.5811 139.416L32.9357 139.352L55.2904 139.328L99.9997 139.285L144.709 139.328L167.064 139.352L189.418 139.416L167.064 139.482L144.709 139.506L99.9997 139.549L55.2904 139.506L32.9357 139.482L10.5811 139.416Z"
          fill="#263238"/>
    <path d="M159.245 86.7065H75.416V129.248H159.245V86.7065Z" fill="#70CB75"/>
    <path d="M75.4158 100.573H64.4878V129.248H75.4158V100.573Z" fill="#70CB75"/>
    <path d="M170.173 100.573H159.245V129.248H170.173V100.573Z" fill="#70CB75"/>
    <g opacity="0.1">
        <path opacity="0.1" d="M117.461 86.7065H117.2V120.792H117.461V86.7065Z" fill="black"/>
        <path opacity="0.1" d="M75.5492 100.573H75.2878V129.248H75.5492V100.573Z" fill="black"/>
        <path opacity="0.1" d="M159.376 100.573H159.115V129.248H159.376V100.573Z" fill="black"/>
        <path opacity="0.1"
              d="M117.464 120.925H75.2878V112.032H117.464V120.925ZM75.5545 120.658H117.197V112.298H75.5545V120.658Z"
              fill="black"/>
        <path opacity="0.1"
              d="M159.376 120.925H117.197V112.032H159.376V120.925ZM117.464 120.658H159.109V112.298H117.464V120.658Z"
              fill="black"/>
    </g>
    <g opacity="0.1">
        <path opacity="0.1"
              d="M78.2663 96.0669C78.2182 96.0669 78.1721 96.086 78.1381 96.12C78.1041 96.154 78.085 96.2001 78.085 96.2482C78.085 96.2963 78.1041 96.3424 78.1381 96.3765C78.1721 96.4105 78.2182 96.4296 78.2663 96.4296C78.3144 96.4296 78.3605 96.4105 78.3945 96.3765C78.4285 96.3424 78.4476 96.2963 78.4476 96.2482C78.4476 96.2001 78.4285 96.154 78.3945 96.12C78.3605 96.086 78.3144 96.0669 78.2663 96.0669Z"
              fill="black"/>
        <path opacity="0.1"
              d="M78.5756 118.208C78.5317 118.213 78.4912 118.235 78.4618 118.268C78.4325 118.301 78.4163 118.344 78.4163 118.388C78.4163 118.432 78.4325 118.475 78.4618 118.508C78.4912 118.541 78.5317 118.563 78.5756 118.568C78.6196 118.563 78.6601 118.541 78.6895 118.508C78.7188 118.475 78.735 118.432 78.735 118.388C78.735 118.344 78.7188 118.301 78.6895 118.268C78.6601 118.235 78.6196 118.213 78.5756 118.208Z"
              fill="black"/>
        <path opacity="0.1"
              d="M88.9518 114.749C88.9445 114.731 88.9356 114.713 88.9251 114.696C88.9177 114.684 88.9074 114.674 88.895 114.667C88.8826 114.66 88.8686 114.656 88.8544 114.656C88.8402 114.656 88.8263 114.66 88.8139 114.667C88.8015 114.674 88.7911 114.684 88.7838 114.696C88.7838 114.712 88.7651 114.731 88.7544 114.749C88.6531 114.963 89.0664 114.963 88.9518 114.749Z"
              fill="black"/>
        <path opacity="0.1"
              d="M70.8877 118.661C70.879 118.643 70.8692 118.625 70.8584 118.608C70.8514 118.596 70.8413 118.586 70.8291 118.579C70.817 118.572 70.8031 118.568 70.7891 118.568C70.775 118.568 70.7612 118.572 70.749 118.579C70.7369 118.586 70.7268 118.596 70.7198 118.608C70.709 118.625 70.6992 118.643 70.6904 118.661C70.5891 118.867 70.9891 118.867 70.8877 118.661Z"
              fill="black"/>
        <path opacity="0.1"
              d="M79.821 97.1709C79.7921 97.1792 79.7666 97.1967 79.7484 97.2207C79.7303 97.2448 79.7205 97.2741 79.7205 97.3042C79.7205 97.3344 79.7303 97.3637 79.7484 97.3877C79.7666 97.4118 79.7921 97.4293 79.821 97.4376C79.85 97.4293 79.8755 97.4118 79.8937 97.3877C79.9118 97.3637 79.9216 97.3344 79.9216 97.3042C79.9216 97.2741 79.9118 97.2448 79.8937 97.2207C79.8755 97.1967 79.85 97.1792 79.821 97.1709Z"
              fill="black"/>
        <path opacity="0.1"
              d="M136.314 101.675C136.285 101.683 136.26 101.701 136.242 101.725C136.224 101.749 136.214 101.778 136.214 101.808C136.214 101.838 136.224 101.868 136.242 101.892C136.26 101.916 136.285 101.933 136.314 101.941C136.343 101.933 136.369 101.916 136.387 101.892C136.405 101.868 136.415 101.838 136.415 101.808C136.415 101.778 136.405 101.749 136.387 101.725C136.369 101.701 136.343 101.683 136.314 101.675Z"
              fill="black"/>
        <path opacity="0.1"
              d="M68.1997 111.203C68.1707 111.211 68.1452 111.228 68.1271 111.252C68.1089 111.277 68.0991 111.306 68.0991 111.336C68.0991 111.366 68.1089 111.395 68.1271 111.419C68.1452 111.444 68.1707 111.461 68.1997 111.469C68.2287 111.461 68.2542 111.444 68.2723 111.419C68.2905 111.395 68.3003 111.366 68.3003 111.336C68.3003 111.306 68.2905 111.277 68.2723 111.252C68.2542 111.228 68.2287 111.211 68.1997 111.203Z"
              fill="black"/>
        <path opacity="0.1"
              d="M86.3462 89.4587C86.3107 89.4235 86.2628 89.4038 86.2128 89.4038C86.1629 89.4038 86.115 89.4235 86.0795 89.4587C86.0452 89.4929 86.0209 89.5358 86.0092 89.5828C85.9974 89.6298 85.9987 89.6791 86.0129 89.7254C86.0261 89.7684 86.0528 89.8061 86.0891 89.8329C86.1253 89.8596 86.1691 89.874 86.2142 89.874C86.2592 89.874 86.3031 89.8596 86.3393 89.8329C86.3756 89.8061 86.4023 89.7684 86.4155 89.7254C86.4293 89.6788 86.4302 89.6294 86.418 89.5824C86.4057 89.5354 86.3809 89.4926 86.3462 89.4587Z"
              fill="black"/>
        <path opacity="0.1"
              d="M80.0906 117.181C80.0545 117.147 80.0068 117.128 79.9572 117.128C79.9077 117.128 79.86 117.147 79.8239 117.181C79.7896 117.215 79.7653 117.258 79.7536 117.305C79.7418 117.352 79.7431 117.402 79.7572 117.448C79.7705 117.491 79.7972 117.529 79.8334 117.555C79.8697 117.582 79.9135 117.597 79.9586 117.597C80.0036 117.597 80.0475 117.582 80.0837 117.555C80.1199 117.529 80.1466 117.491 80.1599 117.448C80.1737 117.401 80.1746 117.352 80.1623 117.305C80.1501 117.258 80.1253 117.215 80.0906 117.181Z"
              fill="black"/>
        <path opacity="0.1"
              d="M151.658 118.688C151.706 118.688 151.753 118.669 151.787 118.635C151.821 118.601 151.84 118.555 151.84 118.507C151.84 118.458 151.821 118.412 151.787 118.378C151.753 118.344 151.706 118.325 151.658 118.325C151.61 118.325 151.564 118.344 151.53 118.378C151.496 118.412 151.477 118.458 151.477 118.507C151.477 118.555 151.496 118.601 151.53 118.635C151.564 118.669 151.61 118.688 151.658 118.688Z"
              fill="black"/>
        <path opacity="0.1"
              d="M114.133 119.048C114.177 119.043 114.217 119.021 114.247 118.988C114.276 118.955 114.292 118.912 114.292 118.868C114.292 118.824 114.276 118.781 114.247 118.748C114.217 118.715 114.177 118.693 114.133 118.688C114.089 118.693 114.049 118.715 114.019 118.748C113.99 118.781 113.974 118.824 113.974 118.868C113.974 118.912 113.99 118.955 114.019 118.988C114.049 119.021 114.089 119.043 114.133 119.048Z"
              fill="black"/>
        <path opacity="0.1"
              d="M150.616 89.9388C150.664 89.9388 150.71 89.9197 150.744 89.8857C150.778 89.8517 150.797 89.8056 150.797 89.7575C150.797 89.7094 150.778 89.6633 150.744 89.6293C150.71 89.5953 150.664 89.5762 150.616 89.5762C150.568 89.5762 150.521 89.5953 150.487 89.6293C150.453 89.6633 150.434 89.7094 150.434 89.7575C150.434 89.8056 150.453 89.8517 150.487 89.8857C150.521 89.9197 150.568 89.9388 150.616 89.9388Z"
              fill="black"/>
        <path opacity="0.1"
              d="M105.133 94.8934C105.181 94.8934 105.227 94.8743 105.261 94.8403C105.295 94.8063 105.314 94.7602 105.314 94.7121C105.314 94.664 105.295 94.6179 105.261 94.5839C105.227 94.5499 105.181 94.5308 105.133 94.5308C105.085 94.5308 105.039 94.5499 105.005 94.5839C104.971 94.6179 104.952 94.664 104.952 94.7121C104.952 94.7602 104.971 94.8063 105.005 94.8403C105.039 94.8743 105.085 94.8934 105.133 94.8934Z"
              fill="black"/>
        <path opacity="0.1"
              d="M138.306 100.005C138.314 100.024 138.323 100.042 138.333 100.059C138.34 100.071 138.351 100.081 138.363 100.088C138.376 100.095 138.39 100.098 138.404 100.098C138.418 100.098 138.432 100.095 138.444 100.088C138.457 100.081 138.467 100.071 138.474 100.059C138.485 100.042 138.494 100.024 138.501 100.005C138.605 99.7893 138.202 99.7893 138.306 100.005Z"
              fill="black"/>
        <path opacity="0.1"
              d="M121.981 117.341L122.01 117.395C122.018 117.407 122.028 117.417 122.041 117.424C122.053 117.431 122.067 117.434 122.081 117.434C122.095 117.434 122.109 117.431 122.122 117.424C122.134 117.417 122.144 117.407 122.152 117.395C122.162 117.377 122.171 117.359 122.178 117.341C122.282 117.125 121.88 117.125 121.981 117.341Z"
              fill="black"/>
        <path opacity="0.1"
              d="M165.311 114.067C165.32 114.086 165.33 114.105 165.341 114.123C165.348 114.135 165.359 114.145 165.371 114.152C165.383 114.159 165.397 114.163 165.411 114.163C165.426 114.163 165.44 114.159 165.452 114.152C165.464 114.145 165.475 114.135 165.482 114.123L165.509 114.067C165.613 113.851 165.21 113.851 165.311 114.067Z"
              fill="black"/>
        <path opacity="0.1"
              d="M150.101 117.584C150.13 117.576 150.156 117.558 150.174 117.534C150.192 117.51 150.202 117.481 150.202 117.451C150.202 117.421 150.192 117.391 150.174 117.367C150.156 117.343 150.13 117.326 150.101 117.317C150.072 117.326 150.047 117.343 150.028 117.367C150.01 117.391 150 117.421 150 117.451C150 117.481 150.01 117.51 150.028 117.534C150.047 117.558 150.072 117.576 150.101 117.584Z"
              fill="black"/>
        <path opacity="0.1"
              d="M161.725 103.549C161.754 103.541 161.779 103.524 161.797 103.5C161.816 103.475 161.825 103.446 161.825 103.416C161.825 103.386 161.816 103.357 161.797 103.333C161.779 103.308 161.754 103.291 161.725 103.283C161.696 103.291 161.67 103.308 161.652 103.333C161.634 103.357 161.624 103.386 161.624 103.416C161.624 103.446 161.634 103.475 161.652 103.5C161.67 103.524 161.696 103.541 161.725 103.549Z"
              fill="black"/>
        <path opacity="0.1"
              d="M162.712 122.086C162.741 122.077 162.766 122.06 162.785 122.036C162.803 122.012 162.812 121.982 162.812 121.952C162.812 121.922 162.803 121.893 162.785 121.869C162.766 121.845 162.741 121.827 162.712 121.819C162.683 121.827 162.657 121.845 162.639 121.869C162.621 121.893 162.611 121.922 162.611 121.952C162.611 121.982 162.621 122.012 162.639 122.036C162.657 122.06 162.683 122.077 162.712 122.086Z"
              fill="black"/>
        <path opacity="0.1"
              d="M140.912 125.296C140.947 125.331 140.995 125.351 141.045 125.351C141.095 125.351 141.143 125.331 141.179 125.296C141.213 125.262 141.237 125.219 141.249 125.172C141.261 125.125 141.259 125.076 141.245 125.03C141.232 124.986 141.205 124.949 141.169 124.922C141.133 124.895 141.089 124.881 141.044 124.881C140.999 124.881 140.955 124.895 140.919 124.922C140.883 124.949 140.856 124.986 140.843 125.03C140.829 125.076 140.828 125.126 140.84 125.172C140.852 125.219 140.877 125.262 140.912 125.296Z"
              fill="black"/>
        <path opacity="0.1"
              d="M149.834 97.5706C149.87 97.6058 149.918 97.6255 149.968 97.6255C150.018 97.6255 150.065 97.6058 150.101 97.5706C150.135 97.5364 150.16 97.4935 150.171 97.4465C150.183 97.3995 150.182 97.3502 150.168 97.3039C150.154 97.2609 150.128 97.2232 150.091 97.1965C150.055 97.1697 150.011 97.1553 149.966 97.1553C149.921 97.1553 149.877 97.1697 149.841 97.1965C149.805 97.2232 149.778 97.2609 149.765 97.3039C149.751 97.3505 149.75 97.3999 149.762 97.4469C149.775 97.4939 149.8 97.5367 149.834 97.5706Z"
              fill="black"/>
        <path opacity="0.1"
              d="M99.6131 106.437C99.6485 106.472 99.6964 106.492 99.7464 106.492C99.7963 106.492 99.8442 106.472 99.8797 106.437C99.914 106.403 99.9383 106.36 99.95 106.313C99.9618 106.266 99.9605 106.217 99.9464 106.171C99.9331 106.128 99.9064 106.09 99.8702 106.063C99.8339 106.036 99.7901 106.022 99.7451 106.022C99.7 106.022 99.6562 106.036 99.6199 106.063C99.5837 106.09 99.557 106.128 99.5437 106.171C99.5299 106.217 99.5291 106.267 99.5413 106.314C99.5535 106.361 99.5783 106.403 99.6131 106.437Z"
              fill="black"/>
        <path opacity="0.1"
              d="M166.4 112.267C166.436 112.3 166.484 112.319 166.533 112.319C166.582 112.319 166.63 112.3 166.666 112.267C166.7 112.232 166.724 112.189 166.735 112.142C166.747 112.095 166.745 112.046 166.73 112C166.718 111.957 166.692 111.918 166.656 111.891C166.62 111.864 166.576 111.849 166.53 111.849C166.485 111.849 166.441 111.864 166.405 111.891C166.369 111.918 166.343 111.957 166.33 112C166.317 112.047 166.316 112.096 166.328 112.143C166.34 112.19 166.365 112.233 166.4 112.267Z"
              fill="black"/>
    </g>
    <path opacity="0.1"
          d="M75.5464 120.683C82.3667 122.302 89.3498 123.138 96.3597 123.173C103.458 123.127 110.531 122.328 117.461 120.792L75.5464 120.683Z"
          fill="black"/>
    <path opacity="0.1"
          d="M117.333 120.683C124.149 122.301 131.127 123.137 138.133 123.173C145.231 123.127 152.304 122.328 159.234 120.792L117.333 120.683Z"
          fill="black"/>
    <path d="M170.173 126.728H64.4878V129.248H170.173V126.728Z" fill="#37474F"/>
    <path d="M79.1279 129.248L76.3493 134.939L73.5573 140.656H71.1279L72.0293 134.939L72.9279 129.248H79.1279Z"
          fill="#37474F"/>
    <path d="M72.9278 129.248H79.1278L77.4425 132.699H72.3838L72.9278 129.248Z" fill="#263238"/>
    <path d="M162.496 140.656H160.064L157.272 134.939L154.493 129.248H160.693L161.592 134.939L162.496 140.656Z"
          fill="#37474F"/>
    <path d="M161.237 132.699H156.178L154.493 129.248H160.693L161.237 132.699Z" fill="#263238"/>
    <path d="M99.9997 159.12C140.854 159.12 173.973 156.777 173.973 153.888C173.973 150.998 140.854 148.656 99.9997 148.656C59.1453 148.656 26.0264 150.998 26.0264 153.888C26.0264 156.777 59.1453 159.12 99.9997 159.12Z"
          fill="#EBEBEB"/>
    <path d="M184.475 156.901H107.016L109.683 143.248H165.008L184.475 156.901Z" fill="#9DDCA0"/>
    <g opacity="0.1">
        <path opacity="0.1" d="M112.483 143.248L110.917 156.901H110.645L112.211 143.248H112.483Z" fill="black"/>
        <path opacity="0.1" d="M116.072 143.248L115.011 156.901H114.744L115.808 143.248H116.072Z" fill="black"/>
        <path opacity="0.1" d="M119.675 143.248L119.363 156.901H119.096L119.408 143.248H119.675Z" fill="black"/>
        <path opacity="0.1" d="M123.976 156.901H123.707L123.019 143.248H123.288L123.976 156.901Z" fill="black"/>
        <path opacity="0.1" d="M128.586 156.901H128.32L126.629 143.248H126.896L128.586 156.901Z" fill="black"/>
        <path opacity="0.1" d="M133.459 156.901H133.187L130.245 143.248H130.517L133.459 156.901Z" fill="black"/>
        <path opacity="0.1" d="M138.592 156.901H138.312L133.866 143.248H134.146L138.592 156.901Z" fill="black"/>
        <path opacity="0.1" d="M143.987 156.901H143.693L137.496 143.248H137.789L143.987 156.901Z" fill="black"/>
        <path opacity="0.1" d="M149.381 156.901H149.075L141.123 143.248H141.429L149.381 156.901Z" fill="black"/>
        <path opacity="0.1" d="M155.037 156.901H154.706L144.754 143.248H145.085L155.037 156.901Z" fill="black"/>
        <path opacity="0.1" d="M160.957 156.901H160.6L148.392 143.248H148.747L160.957 156.901Z" fill="black"/>
        <path opacity="0.1" d="M167.136 156.901H166.744L152.035 143.248H152.427L167.136 156.901Z" fill="black"/>
        <path opacity="0.1" d="M173.845 156.901H173.411L155.944 143.248H156.376L173.845 156.901Z" fill="black"/>
        <path opacity="0.1" d="M179.517 156.901H179.061L160.096 143.248H160.552L179.517 156.901Z" fill="black"/>
    </g>
    <path opacity="0.1"
          d="M122.477 156.901H107.01L109.677 143.248H117.453C118.877 147.208 121.298 153.914 122.477 156.901Z"
          fill="black"/>
    <path d="M164.336 143.336C165.753 143.157 167.186 143.157 168.603 143.336C167.186 143.514 165.753 143.514 164.336 143.336Z"
          fill="#9DDCA0"/>
    <path d="M165.712 144.295C167.129 144.117 168.562 144.117 169.979 144.295C168.562 144.474 167.129 144.474 165.712 144.295Z"
          fill="#9DDCA0"/>
    <path d="M167.091 145.266C168.507 145.088 169.941 145.088 171.357 145.266C169.941 145.445 168.507 145.445 167.091 145.266Z"
          fill="#9DDCA0"/>
    <path d="M168.467 146.215C169.883 146.037 171.317 146.037 172.733 146.215C171.317 146.394 169.883 146.394 168.467 146.215Z"
          fill="#9DDCA0"/>
    <path d="M169.845 147.175C171.262 146.997 172.695 146.997 174.112 147.175C172.695 147.354 171.262 147.354 169.845 147.175Z"
          fill="#9DDCA0"/>
    <path d="M171.224 148.136C172.641 147.961 174.074 147.961 175.491 148.136C174.074 148.314 172.64 148.314 171.224 148.136Z"
          fill="#9DDCA0"/>
    <path d="M172.6 149.098C174.016 148.92 175.45 148.92 176.866 149.098C175.45 149.277 174.016 149.277 172.6 149.098Z"
          fill="#9DDCA0"/>
    <path d="M173.979 150.066C175.395 149.888 176.829 149.888 178.245 150.066C176.829 150.244 175.395 150.244 173.979 150.066Z"
          fill="#9DDCA0"/>
    <path d="M175.355 151.018C176.771 150.84 178.205 150.84 179.621 151.018C178.205 151.197 176.771 151.197 175.355 151.018Z"
          fill="#9DDCA0"/>
    <path d="M176.733 151.978C178.15 151.8 179.583 151.8 181 151.978C179.583 152.157 178.15 152.157 176.733 151.978Z"
          fill="#9DDCA0"/>
    <path d="M178.112 152.938C179.528 152.76 180.962 152.76 182.378 152.938C180.962 153.117 179.528 153.117 178.112 152.938Z"
          fill="#9DDCA0"/>
    <path d="M179.488 153.899C180.905 153.72 182.338 153.72 183.755 153.899C182.338 154.077 180.905 154.077 179.488 153.899Z"
          fill="#9DDCA0"/>
    <path d="M180.866 154.866C181.573 154.771 182.286 154.726 183 154.733C183.713 154.725 184.426 154.77 185.133 154.866C183.716 155.045 182.283 155.045 180.866 154.866Z"
          fill="#9DDCA0"/>
    <path d="M182.243 155.818C182.95 155.725 183.663 155.68 184.376 155.685C185.089 155.677 185.802 155.722 186.509 155.818C185.093 155.997 183.659 155.997 182.243 155.818Z"
          fill="#9DDCA0"/>
    <path d="M183.621 156.778C184.329 156.684 185.041 156.64 185.755 156.645C186.468 156.637 187.181 156.682 187.888 156.778C186.471 156.957 185.038 156.957 183.621 156.778Z"
          fill="#9DDCA0"/>
    <path d="M101.035 138.037C101.269 136.538 104.523 133.658 107.123 133.658C109.723 133.658 113.152 135.461 113.568 136.538C113.984 137.616 116.141 152.805 115.968 153.856C115.795 154.906 110.933 156.746 107.571 156.898C104.208 157.05 99.1493 155.72 98.96 154.274C98.7706 152.829 101.035 138.037 101.035 138.037Z"
          fill="#9DDCA0"/>
    <path opacity="0.1"
          d="M107.467 153.469C107.76 153.469 108.053 153.442 108.344 153.405C108.489 153.388 108.633 153.36 108.773 153.322C108.844 153.303 108.912 153.273 108.973 153.234C108.989 153.226 109.003 153.216 109.014 153.203C109.025 153.19 109.034 153.175 109.039 153.158C109.045 153.142 109.047 153.125 109.046 153.107C109.044 153.09 109.04 153.073 109.032 153.058C108.928 152.956 108.791 152.896 108.645 152.887C108.5 152.865 108.354 152.851 108.208 152.845C107.917 152.831 107.621 152.831 107.328 152.845C107.037 152.857 106.748 152.902 106.467 152.981C106.327 153.019 106.192 153.074 106.064 153.143C106 153.172 105.943 153.214 105.897 153.267C105.851 153.32 105.817 153.383 105.797 153.45C105.794 153.519 105.809 153.588 105.842 153.648C105.875 153.709 105.924 153.76 105.984 153.794C106.102 153.878 106.231 153.943 106.368 153.989C106.645 154.079 106.933 154.133 107.224 154.149C107.807 154.179 108.391 154.111 108.952 153.949C109.232 153.875 109.496 153.752 109.733 153.586C109.846 153.507 109.933 153.395 109.981 153.266C110.002 153.203 110.007 153.136 109.996 153.071C109.984 153.006 109.956 152.944 109.915 152.893C109.718 152.687 109.465 152.545 109.187 152.485C108.906 152.407 108.62 152.354 108.331 152.325C107.752 152.261 107.168 152.271 106.592 152.357C106.016 152.441 105.455 152.605 104.925 152.845C104.665 152.949 104.438 153.121 104.267 153.343C104.123 153.57 104.339 153.829 104.557 153.991C105.034 154.318 105.573 154.543 106.141 154.65C106.71 154.773 107.291 154.82 107.872 154.791C108.454 154.765 109.032 154.687 109.6 154.557C110.167 154.441 110.709 154.224 111.2 153.917C111.438 153.775 111.616 153.551 111.699 153.287C111.725 153.157 111.714 153.022 111.667 152.898C111.619 152.774 111.538 152.666 111.432 152.586C110.964 152.255 110.42 152.046 109.851 151.978C109.276 151.881 108.695 151.83 108.112 151.823C107.528 151.81 106.944 151.832 106.363 151.89C105.783 151.946 105.209 152.048 104.645 152.194C104.08 152.325 103.539 152.548 103.045 152.853C102.809 152.983 102.631 153.199 102.547 153.455C102.542 153.585 102.568 153.714 102.624 153.831C102.68 153.948 102.763 154.05 102.867 154.127C103.308 154.493 103.823 154.761 104.376 154.911C105.495 155.235 106.662 155.359 107.824 155.279C108.989 155.223 110.144 155.026 111.261 154.693C111.816 154.532 112.346 154.298 112.837 153.997C113.071 153.86 113.265 153.663 113.397 153.426C113.438 153.308 113.442 153.181 113.408 153.061C113.375 152.941 113.306 152.834 113.211 152.754C112.788 152.376 112.283 152.102 111.736 151.954C111.183 151.78 110.615 151.655 110.04 151.581C108.883 151.437 107.714 151.413 106.552 151.509C105.388 151.577 104.237 151.785 103.123 152.127C102.572 152.293 102.048 152.536 101.565 152.85C101.333 152.993 101.141 153.193 101.008 153.431C100.967 153.55 100.959 153.678 100.987 153.8C101.014 153.923 101.075 154.035 101.163 154.125C101.541 154.55 102.013 154.882 102.541 155.093C103.073 155.326 103.627 155.505 104.195 155.626C105.335 155.858 106.498 155.959 107.661 155.925C108.831 155.909 109.998 155.807 111.152 155.618C111.727 155.521 112.295 155.389 112.853 155.223C113.412 155.066 113.95 154.841 114.453 154.551C114.696 154.412 114.913 154.232 115.093 154.018C115.179 153.918 115.236 153.796 115.256 153.665C115.276 153.535 115.26 153.401 115.208 153.279C115 152.77 114.509 152.402 114.016 152.119C112.979 151.588 111.852 151.254 110.693 151.133C109.532 150.992 108.36 150.951 107.192 151.01C106.033 151.04 104.877 151.148 103.733 151.335C102.589 151.554 101.435 151.845 100.44 152.45C100.194 152.597 99.9689 152.776 99.7707 152.983C99.572 153.184 99.4358 153.438 99.3787 153.714C99.3527 153.849 99.3618 153.988 99.4053 154.119C99.4487 154.249 99.525 154.366 99.6267 154.458C99.8259 154.666 100.053 154.846 100.301 154.991C101.331 155.547 102.441 155.937 103.592 156.149C104.741 156.384 105.91 156.506 107.083 156.511C108.256 156.504 109.427 156.42 110.589 156.258C111.756 156.112 112.903 155.844 114.013 155.458C112.906 155.855 111.76 156.135 110.595 156.293C109.431 156.465 108.258 156.561 107.083 156.581C105.905 156.586 104.729 156.474 103.573 156.247C102.407 156.046 101.28 155.661 100.235 155.106C99.9731 154.958 99.7342 154.773 99.5254 154.557C99.4186 154.443 99.3336 154.311 99.2747 154.167C99.2191 154.017 99.208 153.854 99.2427 153.698C99.3056 153.397 99.4526 153.119 99.6667 152.898C99.8725 152.679 100.107 152.489 100.363 152.333C101.387 151.709 102.552 151.415 103.704 151.189C104.865 150.983 106.038 150.858 107.216 150.815C108.394 150.75 109.575 150.787 110.747 150.927C111.928 151.051 113.076 151.391 114.133 151.933C114.397 152.077 114.644 152.251 114.869 152.45C115.101 152.654 115.283 152.907 115.403 153.191C115.463 153.344 115.484 153.509 115.464 153.671C115.433 153.832 115.366 153.984 115.267 154.114C115.073 154.352 114.837 154.553 114.571 154.706C114.056 155.007 113.506 155.243 112.933 155.407C112.366 155.577 111.789 155.712 111.205 155.813C110.042 156.007 108.865 156.115 107.685 156.135C106.501 156.173 105.316 156.074 104.155 155.839C103.572 155.72 103.003 155.541 102.456 155.306C101.888 155.081 101.382 154.724 100.979 154.266C100.878 154.138 100.802 153.992 100.755 153.837C100.705 153.667 100.719 153.485 100.795 153.325C100.944 153.045 101.163 152.808 101.432 152.639C101.933 152.31 102.479 152.054 103.053 151.879C104.186 151.525 105.357 151.31 106.541 151.237C107.722 151.144 108.91 151.172 110.085 151.322C110.675 151.4 111.257 151.53 111.824 151.711C112.412 151.877 112.952 152.179 113.4 152.594C113.518 152.713 113.609 152.855 113.667 153.013C113.719 153.181 113.71 153.363 113.64 153.525C113.491 153.806 113.265 154.04 112.989 154.199C112.479 154.513 111.928 154.755 111.352 154.919C110.215 155.257 109.041 155.454 107.856 155.506C106.669 155.582 105.478 155.451 104.336 155.117C103.749 154.955 103.204 154.671 102.736 154.282C102.619 154.176 102.519 154.052 102.443 153.914C102.359 153.764 102.329 153.59 102.357 153.421C102.453 153.112 102.663 152.852 102.944 152.693C103.454 152.378 104.011 152.148 104.595 152.013C105.169 151.866 105.754 151.765 106.344 151.709C106.932 151.653 107.524 151.631 108.115 151.645C108.706 151.655 109.296 151.709 109.88 151.807C110.174 151.858 110.464 151.932 110.747 152.029C111.038 152.122 111.31 152.269 111.547 152.463C111.664 152.569 111.755 152.701 111.813 152.847C111.874 153.001 111.885 153.17 111.845 153.33C111.753 153.634 111.552 153.893 111.28 154.058C110.772 154.375 110.211 154.598 109.624 154.717C109.047 154.848 108.458 154.926 107.867 154.949C107.272 154.979 106.677 154.929 106.096 154.799C105.508 154.686 104.949 154.451 104.456 154.111C104.33 154.017 104.222 153.901 104.139 153.767C104.097 153.694 104.072 153.612 104.067 153.527C104.063 153.44 104.085 153.354 104.131 153.279C104.316 153.033 104.565 152.841 104.851 152.725C105.393 152.48 105.968 152.315 106.557 152.234C107.145 152.153 107.741 152.147 108.331 152.218C108.626 152.25 108.917 152.307 109.203 152.389C109.502 152.457 109.773 152.614 109.981 152.839C110.031 152.904 110.064 152.979 110.077 153.059C110.091 153.139 110.084 153.221 110.059 153.298C110.002 153.445 109.902 153.572 109.773 153.663C109.53 153.832 109.259 153.956 108.973 154.031C108.402 154.191 107.808 154.255 107.216 154.221C106.92 154.2 106.628 154.142 106.347 154.047C106.204 154 106.07 153.931 105.949 153.842C105.883 153.801 105.828 153.743 105.793 153.673C105.757 153.604 105.741 153.525 105.747 153.447C105.768 153.374 105.805 153.306 105.855 153.248C105.906 153.19 105.968 153.143 106.037 153.111C106.168 153.041 106.307 152.986 106.451 152.949C106.736 152.871 107.03 152.827 107.325 152.818C107.621 152.818 107.912 152.818 108.208 152.834C108.355 152.842 108.501 152.858 108.645 152.882C108.795 152.892 108.937 152.957 109.043 153.063C109.051 153.081 109.057 153.099 109.058 153.118C109.06 153.138 109.058 153.157 109.052 153.175C109.046 153.194 109.036 153.211 109.024 153.225C109.011 153.24 108.996 153.252 108.979 153.261C108.915 153.298 108.847 153.327 108.776 153.346C108.634 153.385 108.488 153.411 108.341 153.426C108.061 153.447 107.768 153.461 107.467 153.469Z"
          fill="black"/>
    <g opacity="0.1">
        <path opacity="0.1"
              d="M101.76 136.674L99.8106 152.904L99.5439 152.866L101.435 137.114C101.535 136.962 101.643 136.815 101.76 136.674Z"
              fill="black"/>
        <path opacity="0.1"
              d="M104.477 134.442L103.373 151.242L103.107 151.226L104.2 134.594C104.291 134.544 104.384 134.493 104.477 134.442Z"
              fill="black"/>
        <path opacity="0.1"
              d="M115.378 152.866L115.09 152.695L113.074 135.896C113.184 135.996 113.286 136.104 113.381 136.218L115.378 152.866Z"
              fill="black"/>
        <path opacity="0.1" d="M111.696 151.026L111.429 151.042L110.443 134.381L110.709 134.493L111.696 151.026Z"
              fill="black"/>
        <path opacity="0.1"
              d="M107.811 133.698L107.563 150.866H107.296L107.544 133.68C107.632 133.68 107.733 133.688 107.811 133.698Z"
              fill="black"/>
    </g>
    <path d="M32.0664 45.3867V89.3067H30.9677V84.848C30.9677 84.7024 30.9098 84.5626 30.8068 84.4596C30.7038 84.3566 30.5641 84.2987 30.4184 84.2987C30.2727 84.2987 30.1329 84.3566 30.0299 84.4596C29.9269 84.5626 29.869 84.7024 29.869 84.848V89.3067H27.6717V87.9521C27.6717 87.8064 27.6138 87.6666 27.5108 87.5636C27.4078 87.4606 27.2681 87.4027 27.1224 87.4027C26.9767 87.4027 26.8369 87.4606 26.7339 87.5636C26.6309 87.6666 26.573 87.8064 26.573 87.9521V89.3067H23.277V88.24C23.277 88.0944 23.2192 87.9546 23.1161 87.8516C23.0131 87.7486 22.8734 87.6907 22.7277 87.6907C22.582 87.6907 22.4423 87.7486 22.3393 87.8516C22.2362 87.9546 22.1784 88.0944 22.1784 88.24V89.3067H20.2237V87.1334C20.2237 86.9877 20.1658 86.848 20.0628 86.7449C19.9598 86.6419 19.8201 86.584 19.6744 86.584C19.5287 86.584 19.3889 86.6419 19.2859 86.7449C19.1829 86.848 19.125 86.9877 19.125 87.1334V89.3094H18.0264V45.3867H32.0664Z"
          fill="#70CB75"/>
    <path d="M41.0237 59.0825L26.9624 62.6238L18.0264 45.3411L32.0904 41.7998L41.0237 59.0825Z" fill="#70CB75"/>
    <path d="M18.0264 86.5811H19.125V99.6477C19.1254 99.7201 19.1114 99.7918 19.084 99.8588C19.0565 99.9257 19.0161 99.9866 18.9651 100.038C18.914 100.089 18.8534 100.13 18.7865 100.158C18.7197 100.185 18.6481 100.2 18.5757 100.2C18.43 100.2 18.2903 100.142 18.1873 100.039C18.0842 99.9358 18.0264 99.7961 18.0264 99.6504V86.5837V86.5811Z"
          fill="#70CB75"/>
    <path d="M23.8264 91.9734C23.6807 91.9734 23.541 91.9155 23.438 91.8125C23.335 91.7095 23.2771 91.5697 23.2771 91.424V84.3867H24.3758V91.424C24.3758 91.5697 24.3179 91.7095 24.2149 91.8125C24.1118 91.9155 23.9721 91.9734 23.8264 91.9734Z"
          fill="#70CB75"/>
    <path d="M30.9678 84.3867H32.0664V91.424C32.0664 91.5697 32.0086 91.7095 31.9055 91.8125C31.8025 91.9155 31.6628 91.9734 31.5171 91.9734C31.445 91.9734 31.3735 91.9592 31.3069 91.9316C31.2402 91.904 31.1797 91.8635 31.1287 91.8125C31.0777 91.7615 31.0372 91.7009 31.0096 91.6343C30.982 91.5676 30.9678 91.4962 30.9678 91.424V84.3867Z"
          fill="#70CB75"/>
    <path d="M28.2212 97.7198C28.0757 97.7191 27.9364 97.661 27.8335 97.5582C27.7307 97.4553 27.6726 97.316 27.6719 97.1705V87.8052H28.7705V97.1705C28.7705 97.3162 28.7127 97.4559 28.6096 97.5589C28.5066 97.662 28.3669 97.7198 28.2212 97.7198Z"
          fill="#70CB75"/>
    <path d="M26.0235 94.0347C25.8778 94.0347 25.738 93.9768 25.635 93.8738C25.532 93.7708 25.4741 93.631 25.4741 93.4853V86.4507H26.5728V93.4853C26.5728 93.631 26.5149 93.7708 26.4119 93.8738C26.3089 93.9768 26.1691 94.0347 26.0235 94.0347Z"
          fill="#70CB75"/>
    <path d="M20.7705 95.8504C20.6248 95.8504 20.4851 95.7925 20.3821 95.6895C20.2791 95.5865 20.2212 95.4467 20.2212 95.301V82.2344H21.3332V95.301C21.3332 95.3743 21.3186 95.4468 21.2901 95.5144C21.2617 95.5819 21.22 95.6431 21.1676 95.6943C21.1152 95.7454 21.053 95.7856 20.9848 95.8124C20.9166 95.8392 20.8438 95.8521 20.7705 95.8504Z"
          fill="#70CB75"/>
    <path d="M24.3755 82.2373H25.4742V95.304C25.4742 95.4497 25.4163 95.5894 25.3133 95.6924C25.2102 95.7954 25.0705 95.8533 24.9248 95.8533C24.7791 95.8533 24.6394 95.7954 24.5364 95.6924C24.4334 95.5894 24.3755 95.4497 24.3755 95.304V82.2373Z"
          fill="#70CB75"/>
    <path d="M21.6319 98.0027C21.4862 98.0027 21.3464 97.9448 21.2434 97.8418C21.1404 97.7388 21.0825 97.5991 21.0825 97.4534V84.3867H22.1812V97.4534C22.1805 97.5989 22.1224 97.7382 22.0195 97.841C21.9166 97.9439 21.7773 98.002 21.6319 98.0027Z"
          fill="#70CB75"/>
    <path d="M29.333 99.9812C29.1873 99.9812 29.0476 99.9234 28.9446 99.8203C28.8416 99.7173 28.7837 99.5776 28.7837 99.4319V86.3652H29.8664V99.4319C29.8664 99.5749 29.8107 99.7122 29.7112 99.8148C29.6116 99.9174 29.4759 99.9771 29.333 99.9812Z"
          fill="#70CB75"/>
    <path d="M31.5171 93.8853C31.8205 93.8853 32.0664 93.6393 32.0664 93.336C32.0664 93.0326 31.8205 92.7866 31.5171 92.7866C31.2137 92.7866 30.9678 93.0326 30.9678 93.336C30.9678 93.6393 31.2137 93.8853 31.5171 93.8853Z"
          fill="#70CB75"/>
    <path d="M25.4742 96.2774C25.4742 96.386 25.4419 96.4922 25.3816 96.5826C25.3212 96.6729 25.2354 96.7433 25.135 96.7849C25.0347 96.8265 24.9242 96.8373 24.8177 96.8161C24.7111 96.7949 24.6132 96.7426 24.5364 96.6658C24.4596 96.589 24.4072 96.4911 24.386 96.3845C24.3648 96.278 24.3757 96.1675 24.4173 96.0671C24.4589 95.9668 24.5293 95.881 24.6196 95.8206C24.71 95.7602 24.8162 95.728 24.9248 95.728C25.0705 95.728 25.2102 95.7859 25.3133 95.8889C25.4163 95.9919 25.4742 96.1317 25.4742 96.2774Z"
          fill="#70CB75"/>
    <path d="M19.1252 101.557C19.1236 101.666 19.0901 101.771 19.0288 101.86C18.9675 101.95 18.8811 102.019 18.7806 102.059C18.6801 102.099 18.5699 102.109 18.4639 102.087C18.3579 102.065 18.2607 102.012 18.1847 101.935C18.1087 101.858 18.0572 101.76 18.0366 101.654C18.016 101.547 18.0274 101.437 18.0692 101.337C18.111 101.237 18.1814 101.152 18.2715 101.092C18.3617 101.032 18.4676 101 18.5759 101C18.6487 101 18.7208 101.014 18.788 101.043C18.8551 101.071 18.9161 101.112 18.9672 101.164C19.0183 101.216 19.0586 101.277 19.0857 101.345C19.1129 101.412 19.1263 101.485 19.1252 101.557Z"
          fill="#70CB75"/>
    <path d="M40.1386 154.731C40.7253 154.92 57.4533 154.707 58.0853 154.293C58.328 154.141 58.4373 151.701 58.488 148.749V148.659C58.5004 148.047 58.5075 147.425 58.5093 146.792C58.5093 146.704 58.5093 146.616 58.5093 146.525L47.6133 146.555V146.896L47.6826 148.675V148.859C47.6826 148.859 41.3173 151.792 40.6693 152.325C40.0213 152.859 39.552 154.544 40.1386 154.731Z"
          fill="#EBEBEB"/>
    <path d="M40.1357 154.728C40.4397 154.826 44.9837 154.816 49.4264 154.728C50.3197 154.709 51.2077 154.69 52.0531 154.666C55.2211 154.581 57.8397 154.45 58.0824 154.293C58.3251 154.136 58.4344 151.77 58.4824 148.872C58.4824 148.832 58.4824 148.792 58.4824 148.749C58.4824 148.706 58.4824 148.685 58.4824 148.656L47.7011 148.672V148.858C47.7011 148.858 41.3331 151.792 40.6877 152.325C40.0424 152.858 39.5517 154.541 40.1357 154.728Z"
          fill="#70CB75"/>
    <path d="M40.3196 154.08C43.1383 153.973 54.517 153.813 57.3116 153.925C57.3356 153.925 57.3356 153.941 57.3116 153.944C54.5196 154.109 43.1383 154.173 40.317 154.125C40.2663 154.123 40.2663 154.08 40.3196 154.08Z"
          fill="#263238"/>
    <path d="M46.4931 148.733C47.5997 148.512 48.9597 148.667 49.8184 149.445C49.8504 149.475 49.8184 149.523 49.7731 149.512C48.7084 149.183 47.6114 148.969 46.5011 148.875C46.4844 148.872 46.469 148.865 46.4575 148.852C46.4461 148.84 46.4393 148.824 46.4383 148.807C46.4374 148.79 46.4423 148.774 46.4523 148.76C46.4623 148.747 46.4767 148.737 46.4931 148.733Z"
          fill="#263238"/>
    <path d="M45.6984 149.213C46.805 148.992 48.165 149.144 49.0237 149.925C49.0557 149.955 49.0237 150.003 48.9757 149.992C47.9123 149.661 46.8161 149.448 45.7064 149.355C45.6897 149.352 45.6743 149.344 45.6629 149.332C45.6514 149.32 45.6446 149.304 45.6437 149.287C45.6427 149.27 45.6477 149.254 45.6577 149.24C45.6677 149.227 45.6821 149.217 45.6984 149.213Z"
          fill="#263238"/>
    <path d="M44.9036 149.706C46.0103 149.485 47.3703 149.637 48.229 150.418C48.261 150.448 48.229 150.496 48.181 150.485C47.1165 150.155 46.0195 149.94 44.909 149.845C44.8906 149.846 44.8727 149.839 44.8592 149.827C44.8457 149.814 44.8377 149.797 44.837 149.778C44.8363 149.76 44.8429 149.742 44.8554 149.729C44.8679 149.715 44.8852 149.707 44.9036 149.706Z"
          fill="#263238"/>
    <path d="M49.4263 154.728C50.3196 154.709 51.2076 154.69 52.0529 154.666C55.2209 154.581 57.8396 154.45 58.0823 154.293C58.3249 154.136 58.4343 151.77 58.4823 148.872C58.4823 148.832 58.4823 148.792 58.4823 148.749C58.4823 148.706 58.4823 148.685 58.4823 148.656C56.9996 149.69 51.7943 153.154 49.4263 154.728Z"
          fill="#263238"/>
    <path d="M47.0507 148.712H59.0987C59.0987 148.712 56.6801 120.573 56.7734 120.08C56.8934 119.45 57.6054 116.613 58.5547 112.88C58.8507 111.714 59.1707 110.466 59.5041 109.173C60.4027 105.672 61.3947 101.845 62.2587 98.5064C63.5521 93.5197 64.5654 89.645 64.5654 89.645H54.3547C54.3547 89.645 53.1627 93.4157 51.6641 98.325C49.2187 106.301 45.9494 117.277 45.6267 119.946C45.1041 124.269 47.0507 148.712 47.0507 148.712Z"
          fill="#455A64"/>
    <path d="M47.5836 146.656C49.4236 146.619 48.8956 146.603 50.7356 146.587C51.6369 146.587 57.5542 146.528 58.3969 146.667C58.4129 146.667 58.4156 146.701 58.3969 146.704C57.5542 146.843 51.6369 146.789 50.7356 146.781C48.8956 146.763 49.4236 146.749 47.5836 146.709C47.5765 146.709 47.5697 146.706 47.5647 146.701C47.5597 146.696 47.5569 146.69 47.5569 146.683C47.5569 146.675 47.5597 146.669 47.5647 146.664C47.5697 146.659 47.5765 146.656 47.5836 146.656Z"
          fill="#263238"/>
    <path d="M54.5063 118.363C54.9009 116.621 55.4929 114.915 56.0076 113.205C57.0529 109.733 58.1036 106.267 59.1596 102.805C59.6929 101.068 60.2263 99.3341 60.7596 97.6025C61.0263 96.7278 61.2929 95.8505 61.5729 94.9785C61.8529 94.1065 62.1463 93.2745 62.3889 92.4132C62.4876 92.0612 62.5409 92.2532 62.4129 92.6985C62.1463 93.5972 61.9089 94.4985 61.6476 95.3945C61.1267 97.1723 60.604 98.9501 60.0796 100.728C59.0343 104.257 57.98 107.783 56.9169 111.307C56.3836 113.074 55.8503 114.841 55.3169 116.608C55.0485 117.449 54.8312 118.306 54.6663 119.173C54.5228 120.08 54.487 121.001 54.5596 121.917C54.6743 123.76 54.8876 125.6 55.0556 127.44L55.5676 132.968C55.9054 136.637 56.2405 140.305 56.5729 143.971C56.6156 144.437 56.6556 144.901 56.6903 145.368C56.7036 145.522 56.4689 145.512 56.4529 145.368C56.0556 141.744 55.7516 138.104 55.4129 134.472C55.0743 130.84 54.7356 127.242 54.3996 123.629C54.3143 122.722 54.2183 121.813 54.2183 120.901C54.2181 120.047 54.3147 119.195 54.5063 118.363Z"
          fill="#263238"/>
    <path d="M64.5651 89.6611C64.5646 89.6691 64.5646 89.6771 64.5651 89.6851C64.4744 90.0265 63.4984 93.7705 62.2611 98.5225C61.3998 101.85 60.3944 105.677 59.5091 109.189C59.4451 109.442 59.3784 109.693 59.3144 109.941C58.1331 102.904 56.1144 94.3758 55.5171 89.6745L64.5651 89.6611Z"
          fill="#263238"/>
    <path d="M46.1811 118.81C45.3465 120.216 46.2611 121.056 46.3758 121.693C46.4905 122.33 46.1651 124.565 47.0185 124.626C47.8718 124.688 48.2505 121.402 49.0371 120.666C49.8238 119.93 51.8265 119.714 51.9064 117.976C51.9864 116.237 50.0398 116.018 49.3438 114.882C48.6478 113.746 47.9251 113.629 47.4345 114.65C46.9438 115.672 46.8291 117.717 46.1811 118.81Z"
          fill="#70CB75"/>
    <path d="M52.2664 115.101C52.3491 115.821 53.5998 115 53.3011 114.45C53.0024 113.901 52.1971 114.6 52.2664 115.101Z"
          fill="#70CB75"/>
    <path d="M51.0983 115.2C51.3036 115.421 51.8609 114.784 51.5169 114.499C51.1729 114.213 50.7756 114.867 51.0983 115.2Z"
          fill="#70CB75"/>
    <path d="M53.1196 154.893C53.7063 155.085 70.4343 154.933 71.0663 154.522C71.3089 154.37 71.4289 151.93 71.4903 148.981V148.888C71.5036 148.28 71.5143 147.653 71.5196 147.021C71.5196 146.933 71.5196 146.848 71.5196 146.754H60.6236V147.093L60.685 148.874V149.056C60.685 149.056 54.3063 151.989 53.6583 152.504C53.0103 153.018 52.533 154.704 53.1196 154.893Z"
          fill="#EBEBEB"/>
    <path d="M53.1196 154.893C53.7063 155.085 70.4343 154.933 71.0663 154.523C71.309 154.371 71.429 151.931 71.4903 148.981V148.888L60.6983 148.867V149.048C60.6983 149.048 54.3196 151.981 53.6716 152.496C53.0236 153.011 52.533 154.704 53.1196 154.893Z"
          fill="#70CB75"/>
    <path d="M53.3036 154.242C56.1222 154.149 67.5009 154.032 70.2956 154.152C70.3196 154.152 70.3196 154.168 70.2956 154.17C67.5036 154.325 56.1222 154.349 53.3036 154.29C53.2422 154.288 53.2422 154.245 53.3036 154.242Z"
          fill="#263238"/>
    <path d="M59.4958 148.907C60.6051 148.691 61.9624 148.848 62.8184 149.632C62.8504 149.661 62.8184 149.709 62.7704 149.699C61.7073 149.365 60.6112 149.146 59.5011 149.048C59.4845 149.046 59.4694 149.037 59.4582 149.025C59.4471 149.012 59.4406 148.996 59.44 148.98C59.4394 148.963 59.4446 148.946 59.4548 148.933C59.4649 148.92 59.4794 148.91 59.4958 148.907Z"
          fill="#263238"/>
    <path d="M58.6985 149.397C59.8079 149.181 61.1652 149.338 62.0212 150.122C62.0559 150.152 62.0212 150.197 61.9759 150.186C60.9124 149.853 59.8164 149.634 58.7065 149.533C58.6921 149.529 58.6792 149.52 58.6698 149.509C58.6604 149.497 58.6548 149.483 58.6539 149.468C58.6531 149.453 58.6569 149.438 58.6649 149.425C58.6729 149.413 58.6846 149.403 58.6985 149.397Z"
          fill="#263238"/>
    <path d="M57.9039 149.888C59.0105 149.669 60.3706 149.829 61.2239 150.611C61.2586 150.643 61.2239 150.688 61.1786 150.677C60.115 150.345 59.019 150.127 57.9092 150.027C57.8908 150.027 57.8729 150.021 57.8594 150.008C57.8459 149.996 57.8379 149.978 57.8372 149.96C57.8365 149.942 57.8431 149.924 57.8556 149.91C57.8681 149.897 57.8855 149.889 57.9039 149.888Z"
          fill="#263238"/>
    <path d="M54.6851 89.6587C54.6851 89.6587 54.9197 94.544 56.0371 98.4134C56.1251 98.7334 56.2237 99.048 56.3277 99.3494C57.3494 99.7642 58.3312 100.271 59.2611 100.864C59.2611 100.864 59.3784 104.795 59.4957 109.179C59.6264 114.077 59.7624 119.544 59.7304 120.704C59.6291 125.04 60.2637 148.891 60.2637 148.891L72.3091 148.941C72.3091 148.941 70.1384 122.307 70.1544 120.717C70.1784 118.165 69.573 106.877 69.1064 98.6454C68.821 93.5787 68.5864 89.6614 68.5864 89.6614L54.6851 89.6587Z"
          fill="#455A64"/>
    <path d="M60.6878 146.749C62.5278 146.717 61.9998 146.701 63.8398 146.69C64.7411 146.69 70.6585 146.661 71.4985 146.805C71.5034 146.805 71.5082 146.807 71.5117 146.811C71.5152 146.814 71.5171 146.819 71.5171 146.824C71.5171 146.829 71.5152 146.833 71.5117 146.837C71.5082 146.84 71.5034 146.842 71.4985 146.842C70.6585 146.978 64.7411 146.898 63.8398 146.888C61.9998 146.861 62.5278 146.848 60.6878 146.802C60.6807 146.802 60.6739 146.8 60.6689 146.795C60.6639 146.79 60.6611 146.783 60.6611 146.776C60.6611 146.769 60.6639 146.762 60.6689 146.757C60.6739 146.752 60.6807 146.749 60.6878 146.749Z"
          fill="#263238"/>
    <path d="M67.5864 91.3997C67.805 98.1197 68.0397 104.84 68.3384 111.557C68.637 118.274 69.0424 125.037 69.605 131.76C69.9197 135.517 70.2157 140.8 70.621 144.56C70.621 144.584 70.5837 144.594 70.581 144.56C69.7064 137.893 69.2184 129.65 68.789 122.941C68.3597 116.232 68.069 109.514 67.8397 102.797C67.7117 98.997 67.613 95.197 67.501 91.397C67.4984 91.349 67.5837 91.3543 67.5864 91.3997Z"
          fill="#263238"/>
    <path d="M55.8262 99.0587C57.0242 99.559 58.1761 100.163 59.2689 100.864C59.2748 100.865 59.2804 100.868 59.2852 100.872C59.29 100.876 59.2938 100.88 59.2965 100.886C59.2991 100.891 59.3004 100.897 59.3004 100.904C59.3003 100.91 59.2989 100.916 59.2962 100.921C59.2934 100.927 59.2895 100.931 59.2847 100.935C59.2798 100.939 59.2742 100.941 59.2682 100.942C59.2622 100.944 59.2561 100.943 59.2502 100.942C59.2443 100.94 59.2388 100.937 59.2342 100.933C58.0715 100.371 56.8849 99.8267 55.7676 99.1974C55.7535 99.1871 55.7433 99.1724 55.7386 99.1556C55.734 99.1388 55.7352 99.1209 55.742 99.1048C55.7487 99.0888 55.7608 99.0755 55.7761 99.0671C55.7914 99.0587 55.809 99.0558 55.8262 99.0587Z"
          fill="#263238"/>
    <path d="M55.7596 94.9145C55.8396 95.3412 55.9436 95.7652 56.0263 96.1918C56.109 96.6185 56.1756 96.9918 56.293 97.3918C56.3776 97.7745 56.5712 98.1246 56.8503 98.3998C57.0076 98.5465 57.181 98.6665 57.3463 98.8078C57.437 98.8798 57.5356 98.9492 57.629 99.0212C57.6156 98.9652 57.605 98.9065 57.597 98.8505C57.5677 98.6878 57.541 98.5252 57.5116 98.3625C57.453 98.0025 57.3943 97.6398 57.3383 97.2798C57.2316 96.5678 57.1303 95.8505 56.9836 95.1465C56.9836 95.1198 57.021 95.1065 57.0263 95.1465C57.205 95.8452 57.3997 96.5332 57.5597 97.2372C57.6343 97.5812 57.9036 99.2825 57.9143 99.4025C57.925 99.5225 57.9383 99.6531 57.9436 99.7785C57.9583 99.9052 57.9583 100.033 57.9436 100.16C57.9412 100.166 57.9371 100.17 57.9318 100.174C57.9266 100.177 57.9205 100.179 57.9143 100.179C57.9081 100.179 57.902 100.177 57.8968 100.174C57.8916 100.17 57.8875 100.166 57.885 100.16C57.833 100.043 57.7972 99.9187 57.7783 99.7918C57.7463 99.6692 57.7196 99.5465 57.6983 99.4238C57.6983 99.3785 57.6823 99.3332 57.677 99.2878C57.509 99.1838 57.3543 99.0505 57.197 98.9358C57.0396 98.8211 56.8556 98.6958 56.6956 98.5598C56.4002 98.3107 56.1872 97.9778 56.085 97.6052C55.9821 97.2039 55.9152 96.7943 55.885 96.3811C55.8316 95.8985 55.7916 95.4132 55.725 94.9305C55.7116 94.8958 55.7543 94.8852 55.7596 94.9145Z"
          fill="#263238"/>
    <path d="M64.6609 105.072C64.2075 104.573 62.8529 104.173 62.2182 104.981C61.5835 105.789 62.7515 106.629 62.6662 107.01C62.5809 107.392 61.7622 107.426 61.6769 107.912C61.5915 108.397 61.9089 108.664 62.1089 108.938C62.3089 109.213 62.2342 110.376 63.2929 110.581C64.3515 110.786 64.6822 109.416 65.2049 109.045C65.7275 108.674 66.9649 108.33 66.8342 107.461C66.7035 106.592 65.1702 106.944 64.9675 106.536C64.7649 106.128 65.1649 105.626 64.6609 105.072Z"
          fill="#70CB75"/>
    <path d="M61.7011 106.866C61.5917 106.376 60.8424 106.6 60.9384 107.09C61.0344 107.581 61.7491 107.074 61.7011 106.866Z"
          fill="#70CB75"/>
    <path d="M61.4452 105.533C61.2078 105.6 61.3412 106.021 61.6105 105.968C61.8798 105.915 61.6265 105.475 61.4452 105.533Z"
          fill="#70CB75"/>
    <path d="M58.5117 76.4906C55.085 79.6906 49.5144 84.2479 47.0797 83.8026C45.0424 83.4293 40.4904 81.4693 37.997 79.1893C37.3517 78.5973 41.197 72.5786 41.8264 73.2666C43.1597 74.7093 46.6984 76.7973 47.693 77.1786C48.581 77.5173 54.5757 74.7093 57.7864 73.6426C61.693 72.3493 59.877 75.2079 58.5117 76.4906Z"
          fill="#FFBDA7"/>
    <path d="M41.5997 80.4796C42.4797 80.2129 43.0557 74.4582 42.3784 73.8129C42.2504 73.6902 42.0611 73.5169 41.6691 73.0876C40.7908 72.123 40.0586 71.035 39.4957 69.8582C38.8717 68.4316 38.1117 66.2449 37.3304 66.5516C36.1944 66.9942 36.8264 69.8769 37.2904 71.5089C36.3917 71.2929 35.5997 71.1916 35.1171 71.3009C33.5171 71.6662 34.2317 79.0342 35.7357 79.7702C37.1784 80.4662 40.7117 80.7329 41.5997 80.4796Z"
          fill="#FFBDA7"/>
    <path d="M36.5485 67.9178L35.1724 68.2725L46.3957 111.819L47.7718 111.464L36.5485 67.9178Z" fill="#263238"/>
    <path d="M35.8316 68.933L34.9542 65.5223L25.8529 67.861L24.6982 63.3596L27.3756 62.6743L27.4422 62.9303L25.0209 63.5517L26.0449 67.5356L35.1462 65.1997L36.0902 68.8663L35.8316 68.933Z"
          fill="#C7C7C7"/>
    <path d="M36.5608 67.31L34.6702 67.7954L36.1112 73.408L38.0019 72.9226L36.5608 67.31Z" fill="#455A64"/>
    <path d="M40.8885 57.013L25.9155 60.8574L27.1709 65.7468L42.1439 61.9024L40.8885 57.013Z" fill="#EBEBEB"/>
    <path d="M37.6903 71.2239C38.157 71.9412 37.045 72.0799 37.045 72.0799C37.045 72.0799 38.693 72.2665 38.8876 73.1919C39.0823 74.1172 37.7223 74.2025 37.6263 74.2132C37.7143 74.2132 39.2263 74.4345 39.3223 75.3839C39.4263 76.3732 38.0503 76.2612 37.9623 76.2532C38.0423 76.2879 39.0796 76.7865 38.9916 77.5199C38.837 78.7892 36.149 77.6052 35.1996 78.0185C35.1996 78.0185 35.7196 79.7065 35.733 79.7599C35.733 79.7599 33.1516 78.6932 32.6636 77.3732C32.5894 77.1838 32.5822 76.9746 32.6433 76.7805C32.7045 76.5865 32.8302 76.4192 32.9996 76.3065C32.9996 76.3065 32.1276 76.0399 32.0263 75.3065C31.9756 74.9225 32.541 74.5065 32.541 74.5065C32.347 74.4385 32.1755 74.3185 32.0452 74.1595C31.9149 74.0005 31.8309 73.8087 31.8023 73.6052C31.7623 73.0719 32.3356 72.7305 32.3356 72.7305C32.3356 72.7305 31.7756 72.1972 31.9116 71.6399C32.1756 70.5092 36.6903 69.6879 37.6903 71.2239Z"
          fill="#FFBDA7"/>
    <path d="M32.4131 72.6561C32.3971 72.6561 32.3891 72.6401 32.4131 72.6347C33.8863 71.9728 35.526 71.7747 37.1144 72.0667C37.1651 72.0667 37.1678 72.1627 37.1144 72.1601C35.5315 72.0966 33.9479 72.2637 32.4131 72.6561Z"
          fill="#263238"/>
    <path d="M32.5088 74.4959C32.4928 74.4959 32.4848 74.4719 32.5088 74.4639C34.1404 73.7504 35.9733 73.6435 37.6768 74.1626C37.7355 74.1813 37.7675 74.2586 37.6981 74.2426C36.5168 73.9439 33.9408 74.1066 32.5088 74.4959Z"
          fill="#263238"/>
    <path d="M38.0692 76.3331C36.3998 75.8424 34.7412 75.9358 33.0505 76.2744C33.0265 76.2744 33.0238 76.2478 33.0505 76.2398C33.8318 75.8477 34.9332 75.7437 35.7972 75.7331C36.5966 75.7088 37.3887 75.8926 38.0958 76.2664C38.1145 76.2904 38.1038 76.3438 38.0692 76.3331Z"
          fill="#263238"/>
    <path d="M37.0664 72.0586C37.125 72.0719 37.0397 72.1466 37.101 72.1599C37.3517 72.2239 38.8344 72.7226 38.8184 73.2799C38.8184 73.7279 38.197 74.0213 37.9197 74.0426L37.221 74.0959L37.8957 74.2879C38.1969 74.3718 38.4825 74.5042 38.741 74.6799C38.8648 74.7546 38.9714 74.8544 39.0541 74.973C39.1368 75.0915 39.1937 75.226 39.221 75.3679C39.2445 75.4998 39.2221 75.6358 39.1576 75.7532C39.093 75.8706 38.9903 75.9624 38.8664 76.0133C38.5848 76.1224 38.28 76.1573 37.981 76.1146L37.157 76.0293L37.9064 76.3786C38.114 76.4764 38.3084 76.6001 38.485 76.7466C38.6585 76.8794 38.7892 77.0602 38.861 77.2666C38.8877 77.3604 38.8881 77.4597 38.8623 77.5538C38.8364 77.6478 38.7852 77.7329 38.7144 77.7999C38.5307 77.9251 38.3152 77.9954 38.093 78.0026C37.6127 78.0268 37.1311 78.0125 36.653 77.9599C36.4104 77.9439 36.1677 77.9253 35.9224 77.9199C35.6776 77.9 35.4314 77.9318 35.1997 78.0133C35.4359 77.9591 35.6802 77.95 35.9197 77.9866C36.1597 78.0106 36.3997 78.0479 36.6397 78.0826C37.1247 78.1683 37.6166 78.2085 38.109 78.2026C38.3761 78.2047 38.6377 78.1277 38.861 77.9813C38.9743 77.889 39.0581 77.7656 39.1022 77.6263C39.1462 77.487 39.1486 77.3379 39.109 77.1973C39.0281 76.9418 38.8742 76.7157 38.6664 76.5466C38.472 76.378 38.2558 76.2363 38.0237 76.1253L37.9464 76.3919C38.2984 76.4473 38.6588 76.4096 38.9917 76.2826C39.1736 76.2067 39.3234 76.07 39.4157 75.8959C39.5023 75.7219 39.533 75.5254 39.5037 75.3333C39.4701 75.1534 39.3984 74.9829 39.2936 74.8329C39.1887 74.683 39.0531 74.5572 38.8957 74.4639C38.6099 74.2744 38.2944 74.1338 37.9624 74.0479L37.9384 74.2959C38.2904 74.2559 39.005 74.0026 39.1144 73.3119C39.1117 72.3893 37.3864 72.0906 37.0664 72.0586Z"
          fill="#263238"/>
    <path d="M37.0452 72.0798C37.2119 72.0238 37.3693 71.9429 37.5118 71.8398C37.5705 71.8005 37.6174 71.746 37.6474 71.6821C37.6775 71.6183 37.6896 71.5474 37.6825 71.4772C37.6477 71.3245 37.5689 71.1854 37.4558 71.0772C37.3385 70.9518 37.2078 70.8265 37.0665 70.7012C37.2525 70.7442 37.4277 70.8249 37.5812 70.9385C37.6688 70.9968 37.744 71.0718 37.8026 71.1592C37.8611 71.2466 37.9019 71.3447 37.9225 71.4478C37.9325 71.5637 37.9074 71.6798 37.8505 71.7812C37.7929 71.8737 37.7107 71.9485 37.6132 71.9972C37.4373 72.084 37.2385 72.113 37.0452 72.0798Z"
          fill="#263238"/>
    <path d="M53.7036 75.0984L54.9569 80.1357C54.9569 80.1357 57.8903 77.6317 59.3836 75.693C60.877 73.7544 60.6236 72.6344 57.1623 73.733C55.9783 74.1051 54.8225 74.5613 53.7036 75.0984Z"
          fill="#70CB75"/>
    <path d="M55.8075 79.1011C55.5558 77.7064 55.1993 76.3327 54.7408 74.9917C54.7408 74.9651 54.6928 74.9731 54.6982 74.9917C54.7648 75.3464 55.4982 78.4584 55.7648 79.1037C55.7835 79.1331 55.8102 79.1171 55.8075 79.1011Z"
          fill="#263238"/>
    <path d="M68.7998 93.7679H52.9385C52.7251 93.5279 56.2505 75.4612 57.9518 73.2346C58.3171 72.7572 60.6185 72.1066 61.9518 73.1919C64.7838 75.4986 66.7038 83.1092 67.4105 85.4586C68.1693 88.1707 68.6351 90.9564 68.7998 93.7679Z"
          fill="#70CB75"/>
    <path d="M52.7622 93.7678C52.7622 93.7678 54.8609 78.1465 57.3995 73.5465L57.7142 73.3331L56.8342 78.0131L60.4902 77.8931L61.8235 73.0078C61.9831 73.0763 62.1272 73.176 62.2475 73.3011C62.2475 73.3011 62.4182 79.4745 62.8315 81.1571C63.2449 82.8398 64.9462 86.6265 65.6555 87.1145C66.3649 87.6025 68.5329 88.7331 68.5329 88.7331L68.8342 93.7678H52.7622Z"
          fill="#455A64"/>
    <path d="M56.5333 83.888C55.3439 84.192 54.4719 85.144 54.9626 85.5067C55.4533 85.8694 56.3839 85.5467 56.8853 86.16C57.3866 86.7734 58.0186 86.7734 58.2906 85.5947C58.5626 84.416 57.6373 83.6054 56.5333 83.888Z"
          fill="#70CB75"/>
    <path d="M54.6239 86.749C54.4319 87.517 55.9119 87.2823 55.7812 86.8103C55.6506 86.3383 54.7546 86.2263 54.6239 86.749Z"
          fill="#70CB75"/>
    <path d="M58.6826 75.6479C59.2559 75.7332 60.9386 74.6826 61.5759 73.5492C61.6186 73.4719 61.3306 70.3492 61.3386 69.7146C61.3386 69.5866 57.3999 70.6239 57.3999 70.6239C57.614 71.4066 57.7313 72.2126 57.7492 73.0239C57.7487 73.1136 57.7388 73.2029 57.7199 73.2906C57.7199 73.2906 57.7199 73.3172 57.7199 73.3332C57.6292 73.8186 57.8399 75.5226 58.6826 75.6479Z"
          fill="#F7A9A0"/>
    <path d="M61.0849 69.7305C60.9276 70.6798 60.2849 73.3358 58.1169 73.3598C57.9822 73.361 57.8476 73.3521 57.7143 73.3331C57.7143 73.3171 57.7143 73.3011 57.7143 73.2905C57.7292 73.2023 57.7381 73.1132 57.7409 73.0238C57.7227 72.2126 57.6054 71.4066 57.3916 70.6238C57.3916 70.6238 60.2129 69.8825 61.0849 69.7305Z"
          fill="#263238"/>
    <path d="M62.2265 65.56C62.3972 67.0053 60.9545 70.8346 59.8265 71.5413C58.1812 72.5626 55.8452 72.2666 55.0665 70.3706C54.3118 68.5306 56.2798 63.576 57.5145 62.9706C59.3225 62.08 61.9758 63.4213 62.2265 65.56Z"
          fill="#F7A9A0"/>
    <path d="M57.9066 67.3091C57.9066 67.3091 57.9066 67.3277 57.9066 67.3384C57.8026 67.6051 57.7252 67.9038 57.9279 68.0771C57.9279 68.0771 57.9279 68.0958 57.9279 68.0904C57.6612 67.9331 57.7652 67.5331 57.9066 67.3091Z"
          fill="#263238"/>
    <path d="M58.2372 67.1332C58.6639 67.2558 58.3865 68.1012 57.9919 67.9865C57.5972 67.8718 57.8665 67.0212 58.2372 67.1332Z"
          fill="#263238"/>
    <path d="M56.4692 66.8184C56.4692 66.8184 56.4425 66.8184 56.4398 66.8344C56.3625 67.101 56.2292 67.389 55.9652 67.397C55.9652 67.397 55.9518 67.397 55.9652 67.413C56.2665 67.4664 56.4372 67.0797 56.4692 66.8184Z"
          fill="#263238"/>
    <path d="M56.325 66.4666C55.9143 66.2986 55.6023 67.1306 55.9836 67.2879C56.365 67.4453 56.669 66.6 56.325 66.4666Z"
          fill="#263238"/>
    <path d="M58.6956 66.9945C58.5955 66.9251 58.4994 66.8503 58.4075 66.7705C58.2937 66.7074 58.2045 66.6078 58.1542 66.4878C58.146 66.4471 58.1511 66.4049 58.1689 66.3674C58.1867 66.3299 58.2162 66.2991 58.2529 66.2798C58.3323 66.2544 58.417 66.2505 58.4985 66.2683C58.5799 66.286 58.6553 66.325 58.7169 66.3811C58.8573 66.4773 58.9579 66.6214 58.9996 66.7865C59.0061 66.8247 59.0015 66.864 58.9864 66.8997C58.9713 66.9354 58.9462 66.966 58.9142 66.9879C58.8822 67.0098 58.8446 67.0221 58.8058 67.0232C58.7671 67.0244 58.7288 67.0144 58.6956 66.9945Z"
          fill="#263238"/>
    <path d="M56.2103 65.7544C56.3307 65.7682 56.4518 65.7753 56.5729 65.7757C56.7001 65.8018 56.8324 65.7849 56.9489 65.7277C56.9828 65.7033 57.0072 65.668 57.0184 65.6278C57.0295 65.5876 57.0267 65.5448 57.0103 65.5064C56.9677 65.4353 56.907 65.3769 56.8343 65.337C56.7617 65.2972 56.6798 65.2774 56.5969 65.2797C56.4279 65.2575 56.2567 65.2994 56.1169 65.3971C56.0866 65.4216 56.0641 65.4543 56.0519 65.4914C56.0397 65.5284 56.0385 65.5681 56.0483 65.6058C56.0582 65.6436 56.0787 65.6776 56.1074 65.704C56.1361 65.7303 56.1719 65.7478 56.2103 65.7544Z"
          fill="#263238"/>
    <path d="M56.5332 68.9544C56.596 69.1353 56.7055 69.2963 56.8505 69.4211C56.9302 69.4884 57.0292 69.5286 57.1332 69.5358C57.3599 69.5491 57.4265 69.3571 57.4425 69.1811C57.4535 69.0872 57.4535 68.9923 57.4425 68.8984C57.1535 69.0152 56.8344 69.0349 56.5332 68.9544Z"
          fill="#263238"/>
    <path d="M56.8452 69.4213C56.9249 69.4886 57.0239 69.5288 57.1279 69.536C57.3545 69.5493 57.4212 69.3573 57.4372 69.1813C57.3259 69.1488 57.2069 69.1548 57.0995 69.1984C56.992 69.2419 56.9024 69.3205 56.8452 69.4213Z"
          fill="#FF9CBD"/>
    <path d="M56.2798 64.4476C57.3944 65.6876 59.5598 64.7436 59.5598 64.7436C59.6035 65.063 59.7491 65.3598 59.9749 65.5899C60.2006 65.82 60.4946 65.9712 60.8131 66.021C60.8131 66.021 60.5304 68.349 61.1278 68.4876C62.0371 68.701 63.0638 65.6823 62.9251 65.0076C62.7864 64.333 62.0504 63.989 62.0504 63.989C62.0543 63.6017 61.9114 63.2273 61.6504 62.941C61.1438 62.3143 58.8451 62.437 58.8451 62.437C58.7919 62.1208 58.666 61.8214 58.4771 61.5623C58.4317 61.4984 58.3739 61.4444 58.307 61.4036C58.2402 61.3627 58.1657 61.3359 58.0881 61.3246C58.0106 61.3134 57.9316 61.3181 57.8559 61.3383C57.7802 61.3585 57.7094 61.3939 57.6478 61.4423C57.7217 61.6369 57.7509 61.8456 57.7331 62.053C57.6798 62.741 57.1384 62.6103 57.2878 62.0103C57.336 61.784 57.4637 61.5825 57.6478 61.4423C57.4771 60.9836 57.0718 60.7516 56.7544 60.909C56.1838 61.1623 55.3518 63.4183 56.2798 64.4476Z"
          fill="#263238"/>
    <path d="M60.7998 68.6318C60.7998 68.6318 61.9518 67.5358 62.4638 67.9732C62.9758 68.4105 61.9305 70.1065 61.2052 70.2372C61.1124 70.2582 61.0164 70.2602 60.9228 70.2432C60.8293 70.2262 60.7401 70.1905 60.6607 70.1382C60.5812 70.0859 60.5132 70.0181 60.4606 69.9389C60.408 69.8597 60.3719 69.7707 60.3545 69.6772L60.7998 68.6318Z"
          fill="#F7A9A0"/>
    <path d="M62.1488 68.4663V68.485C61.6315 68.581 61.2928 68.973 61.0234 69.397C61.06 69.3542 61.1054 69.3199 61.1565 69.2963C61.2076 69.2728 61.2632 69.2606 61.3195 69.2606C61.3757 69.2606 61.4313 69.2728 61.4824 69.2963C61.5335 69.3199 61.5789 69.3542 61.6155 69.397C61.6155 69.397 61.6155 69.4236 61.5968 69.4183C61.5186 69.3752 61.4291 69.3572 61.3404 69.3667C61.2516 69.3763 61.168 69.4129 61.1008 69.4716C60.9896 69.5706 60.8887 69.6805 60.7994 69.7996C60.7674 69.8396 60.6955 69.7996 60.7221 69.7543C60.8395 69.141 61.4821 68.3863 62.1488 68.4663Z"
          fill="#263238"/>
    <path d="M39.1489 94.2507C39.1552 94.4972 39.2368 94.7358 39.3826 94.9346C39.5285 95.1334 39.7317 95.2828 39.9649 95.3627C39.74 95.7169 39.6457 96.1384 39.6983 96.5547C39.8236 97.2827 41.0316 97.4027 41.0316 97.4027C40.8743 97.8184 40.8455 98.2717 40.9489 98.704C41.1383 99.3893 42.3303 99.6827 42.3303 99.6827C42.3949 100.145 42.6241 100.568 42.9756 100.875C43.9489 101.653 45.7436 101.027 46.8903 100.64C48.0369 100.253 50.9276 98.0827 51.5196 97.7253L49.1009 90.3467C49.1009 90.3467 43.4663 90.6133 42.1836 91.264C41.0903 91.8107 39.1596 93.3067 39.1489 94.2507Z"
          fill="#FFBDA7"/>
    <path d="M39.9781 95.229C40.9888 94.373 42.1968 93.8637 43.3728 93.2877C43.3781 93.2852 43.3842 93.285 43.3897 93.287C43.3952 93.289 43.3996 93.2931 43.4021 93.2984C43.4046 93.3037 43.4049 93.3098 43.4029 93.3153C43.4009 93.3208 43.3967 93.3252 43.3914 93.3277C42.2154 93.8877 41.1648 94.6744 40.0128 95.2797C39.9808 95.2984 39.9488 95.2504 39.9781 95.229Z"
          fill="#263238"/>
    <path d="M41.0103 97.2985C41.258 97.1274 41.5269 96.9894 41.8103 96.8878C42.1036 96.7598 42.3996 96.6398 42.6983 96.5225C43.2956 96.2905 43.8956 96.0718 44.5036 95.8691C44.5303 95.8691 44.5516 95.8985 44.5223 95.9091C43.9303 96.1438 43.3383 96.3865 42.757 96.6425L41.8823 97.0372C41.6177 97.1817 41.3377 97.2962 41.0476 97.3785C41.0382 97.3788 41.0289 97.3763 41.0209 97.3714C41.0129 97.3665 41.0065 97.3593 41.0026 97.3508C40.9986 97.3423 40.9972 97.3328 40.9986 97.3235C40.9999 97.3142 41.004 97.3055 41.0103 97.2985Z"
          fill="#263238"/>
    <path d="M42.341 99.6665C42.5686 99.5153 42.8202 99.4035 43.085 99.3358L43.9036 99.0292C44.437 98.8212 44.9943 98.6158 45.5303 98.3892C45.557 98.3892 45.5783 98.4185 45.5516 98.4292C45.0183 98.6612 44.4636 98.9012 43.917 99.1305L43.117 99.4612C42.8797 99.582 42.6236 99.6613 42.3596 99.6958C42.3356 99.7012 42.333 99.6825 42.341 99.6665Z"
          fill="#263238"/>
    <path d="M51.5064 97.7253C54.6691 96 62.2371 91.616 62.8984 89.5893C63.5598 87.5627 63.9971 78.64 63.9651 76.776C63.9331 74.912 62.7438 74.3493 61.7224 76.6933C60.7011 79.0373 58.0718 86.0667 57.8664 86.584C57.6611 87.1013 49.4878 89.784 48.4264 90.3867C47.3651 90.9893 50.8664 98.0667 51.5064 97.7253Z"
          fill="#FFBDA7"/>
    <path d="M59.6794 80.5116L64.1301 83.1783C64.1301 83.1783 64.4314 79.3303 64.1114 76.9063C63.7914 74.4823 62.8208 73.8663 61.1541 77.0956C60.5815 78.1975 60.0887 79.3391 59.6794 80.5116Z"
          fill="#70CB75"/>
    <path d="M63.9596 81.7492C62.7834 80.9618 61.5486 80.2656 60.2662 79.6665C60.2422 79.6665 60.2209 79.6878 60.2449 79.7012C60.5462 79.8985 63.3036 81.5172 63.9569 81.7705C63.9622 81.7838 63.9729 81.7572 63.9596 81.7492Z"
          fill="#263238"/>
    <path d="M64.5331 79.616C64.5331 79.6111 64.5311 79.6063 64.5276 79.6028C64.5241 79.5993 64.5194 79.5974 64.5144 79.5974C64.5095 79.5974 64.5047 79.5993 64.5012 79.6028C64.4977 79.6063 64.4957 79.6111 64.4957 79.616C64.4451 79.7678 64.405 79.9228 64.3757 80.08L64.3597 80.1867C64.3597 79.752 64.3437 79.3147 64.3251 78.8827C64.3251 78.8614 64.2904 78.8614 64.2904 78.8827C64.2557 80.304 64.1384 81.7227 64.1091 83.1494C64.0397 83.128 63.7517 82.9654 63.7091 82.9467C63.6664 82.928 63.6851 82.9467 63.7091 82.9787C63.7331 83.0107 64.1757 83.2454 64.1757 83.2454C64.1757 83.2454 64.3571 81.3494 64.3597 80.432C64.3811 80.3147 64.4024 80.1974 64.4291 80.0827C64.4557 79.968 64.5144 79.7707 64.5331 79.616Z"
          fill="#263238"/>
</svg>
